<svg xmlns="http://www.w3.org/2000/svg" viewBox="0 0 1054.7 786.5"><path fill-rule="evenodd" clip-rule="evenodd" fill="#C4B090" d="M23.6 45.1c.9-.6 1.9-1.1 2.9-1.3l.8-3.5 4-.1 1 3.4c1 .2 2 .6 3 1.2l3.1-1.9 2.9 2.8-1.7 3.1c.6.9 1.1 1.8 1.3 2.9l3.5.9.1 4-3.4.9c-.2 1-.6 2.1-1.2 3l1.9 3.1-2.8 2.9-3-1.8c-.9.6-1.9 1-2.9 1.3l-.9 3.5-4 .1-.9-3.4c-1-.2-2.1-.6-3-1.1L21.1 67l-2.9-2.8 1.7-3c-.6-1-1-1.9-1.3-2.9l-3.5-.8-.1-4 3.4-1c.2-1 .5-2 1.1-3l-1.9-3.1 2.8-2.9 3.2 1.6zM2.4 120.8l.2 27.2c0 .5.1 1 .2 1.5-.3 4.3 2.7 11.1 7.5 9.6 9.7-3 4.9-15.8 9.5-36.7-1.4.6-1.2.7-4.4 1.1-3.2.4-8.9-.2-13-2.7zM124.9 29c-2.2 0-3.9 1.9-3.9 4 0 2.2 1.9 3.9 4 3.9 2.2 0 3.9-1.9 3.9-4s-1.8-3.9-4-3.9zm-13.4-.4c-2.7 0-4.8 2.3-4.8 5s2.3 4.8 5 4.8 4.8-2.3 4.8-5c-.1-2.7-2.3-4.8-5-4.8zm-39.4 2.6c-3.7.1-6.6 3.1-6.6 6.8.1 3.7 3.1 6.6 6.8 6.6 3.7-.1 6.7-3.1 6.6-6.8-.1-3.7-3.1-6.7-6.8-6.6zM11.8 90.4c-3.7.1-6.6 3.1-6.6 6.8.1 3.7 3.1 6.7 6.8 6.6 3.7-.1 6.7-3.1 6.6-6.8 0-3.7-3.1-6.6-6.8-6.6zm-2.6 55.4c-2.2 0-3.9 1.8-3.9 4s1.8 3.9 4 3.9 3.9-1.9 3.9-4c0-2.3-1.8-4-4-3.9zm.7-18c-3 0-5.4 2.6-5.4 5.6 0 3 2.5 5.4 5.5 5.4s5.4-2.6 5.4-5.5c0-3.1-2.5-5.6-5.5-5.5zm19.9-91.5c-10.3.2-18.4 8.6-18.2 18.8.2 10.2 8.6 18.3 18.8 18.2 10.2-.2 18.3-8.6 18.2-18.8-.2-10.2-8.6-18.4-18.8-18.2zm9-8.6l51-.7c3.9 5 3.9 8.9 2.7 17.3C77.4 47 60.8 56.1 57.8 59c4.4-9.2-4.6-29.2-19-31.3zm56.3-.8l27.2-.7c.5 0 1 0 1.5.1 4.4-.4 11.1 2.3 9.9 7.2-2.7 9.9-15.6 5.5-36.3 10.7.5-1.4.6-1.2 1-4.4.2-3.2-.6-8.9-3.3-12.9zM.8 28.6l.3 24.3c1.9-12 11.6-21.8 23.4-24.7l-6.8.1-16.9.3zm29.6 48.6C18.3 77.4 8.2 67.8 8 55.6c-.2-12.2 9.5-22.2 21.6-22.4C41.8 33 51.8 42.7 52 54.9 52.3 67 42.6 77 30.4 77.2zM1.3 64.5l1 50.9c5.1 3.8 9 3.7 17.4 2.2 2.2-15 10.8-31.9 13.5-35.1-9.1 4.6-29.3-3.8-31.9-18zM26.7 50c.4-.3 1-.5 1.5-.7l.4-1.8h2.1l.4 1.7c.5.1 1 .3 1.5.6l1.5-.9 1.4 1.4-.9 1.6c.3.4.5 1 .7 1.5l1.8.4v2l-1.7.5c-.1.5-.3 1-.6 1.5l.9 1.6-1.4 1.4-1.6-.9c-.4.3-1 .5-1.5.7l-.2 1.6h-2l-.5-1.7c-.5-.1-1-.3-1.5-.6l-1.6 1-1.4-1.3.9-1.6c-.3-.4-.5-1-.7-1.5l-1.7-.4V54l1.7-.5c.1-.5.3-1 .6-1.5l-1-1.5 1.4-1.4 1.5.9zm-2.3 696.2c.9.6 1.9 1 3 1.2l1 3.5 4-.1.8-3.4c1-.3 2-.7 2.9-1.3l3.2 1.8 2.8-2.9-1.8-3c.6-.9 1-1.9 1.2-3l3.5-1-.1-4-3.4-.8c-.3-1-.7-2-1.3-2.9l1.8-3.2-2.9-2.8-3 1.8c-.9-.6-1.9-1-2.9-1.2l-1-3.5-4 .1-.8 3.4c-1 .3-2 .7-3 1.3l-3.2-1.8-2.8 2.9 1.8 3c-.6.9-.9 1.9-1.2 3l-3.5 1 .1 4 3.5.8c.2 1 .6 2 1.2 2.9l-1.8 3.2 2.9 2.8 3-1.8zM.7 671.3L0 644.1c0-.5 0-1 .1-1.5-.4-4.3 2.4-11.1 7.2-9.8 9.8 2.7 5.5 15.6 10.7 36.3-1.4-.6-1.2-.7-4.4-1-3.2-.3-8.9.6-12.9 3.2zM126.2 759c-2.2 0-4-1.7-4-3.9s1.7-4 3.9-4 4 1.7 4 3.9-1.8 4-3.9 4zm-13.4.9c-2.7 0-4.9-2.1-5-4.8 0-2.7 2.1-5 4.8-5 2.7 0 4.9 2.2 5 4.9.1 2.6-2.1 4.8-4.8 4.9zm-39.5-1.3c-3.7.1-6.7-2.9-6.8-6.6-.1-3.7 2.9-6.7 6.6-6.8 3.7-.1 6.8 2.8 6.8 6.6.1 3.7-2.9 6.7-6.6 6.8zm-62.2-57.3c-3.7.1-6.7-2.8-6.8-6.6-.1-3.7 2.9-6.8 6.6-6.8 3.7-.1 6.8 2.9 6.8 6.6.1 3.7-2.8 6.7-6.6 6.8zm-4.4-55.2c-2.2 0-4-1.7-4-3.9s1.7-4 3.9-4 4 1.7 4 3.9c.1 2.2-1.7 4-3.9 4zM8 664c-3 0-5.5-2.3-5.5-5.4 0-3 2.3-5.5 5.4-5.5 3 0 5.5 2.3 5.5 5.4 0 3-2.4 5.5-5.4 5.5zm22.9 90.9c-10.3.2-18.7-8-18.8-18.2-.2-10.2 8-18.7 18.2-18.8 10.2-.2 18.6 8 18.8 18.2.1 10.1-8 18.6-18.2 18.8zm9.3 8.2l50.9-1c3.7-5.1 3.6-9 2.1-17.4-15-2.2-31.9-10.8-35.1-13.5 4.7 9.1-3.6 29.3-17.9 31.9zm56.3-1l27.2-.2c.5 0 1-.1 1.5-.2 4.4.2 11.1-2.7 9.6-7.5-3-9.7-15.8-4.9-36.7-9.5.5 1.4.7 1.2 1.1 4.4.5 3.2-.2 8.9-2.7 13zm-94.4 1.4l-.5-24.4c2.3 12 12.3 21.5 24.2 24l-6.8.1-16.9.3zm28-49.6c-12.1.2-21.8 10.2-21.6 22.4.2 12.2 10.2 21.8 22.4 21.6 12.2-.2 21.9-10.2 21.7-22.4-.2-12.1-10.3-21.8-22.5-21.6zM1.5 727.6l-.7-50.9c5-3.9 8.9-4 17.3-2.7 2.7 15 11.8 31.6 14.7 34.6-9.3-4.3-29.2 4.7-31.3 19zm25.8 13.7c.5.3 1 .5 1.5.6l.5 1.8h2.1l.4-1.7c.5-.1 1-.3 1.5-.6l1.6.9 1.4-1.4-.9-1.5c.3-.5.5-1 .6-1.5l1.8-.5v-2l-1.7-.4c-.1-.5-.3-1-.6-1.5l.9-1.6-1.4-1.4-1.5.9c-.5-.2-1-.5-1.5-.6l-.5-1.7h-2l-.4 1.7c-.5.1-1 .3-1.5.6l-1.6-.9-1.4 1.4.9 1.5c-.2.5-.5 1-.6 1.5l-1.7.5v2l1.7.4c.1.5.3 1 .7 1.5l-.9 1.6 1.4 1.4 1.2-1zM1031.9 45.1c-.9-.6-1.9-1.1-2.9-1.3l-.8-3.5-4-.1-1 3.4c-1 .2-2 .6-3 1.2l-3.1-1.9-2.9 2.8 1.7 3.1c-.6.9-1.1 1.8-1.3 2.9l-3.5.9-.1 4 3.4.9c.2 1 .6 2.1 1.2 3l-1.9 3.1 2.8 2.9 3.1-1.7c.9.6 1.9 1 2.9 1.3l.9 3.5 4 .1.9-3.4c1-.2 2.1-.6 3-1.1l3.1 1.9 2.9-2.8-1.7-3c.6-1 1-1.9 1.3-2.9l3.5-.8.1-4-3.4-1c-.2-1-.5-2-1.1-3l1.9-3.1-2.8-2.9-3.2 1.5zm21.2 75.7l-.2 27.2c0 .5-.1 1-.2 1.5.3 4.3-2.7 11.1-7.5 9.6-9.7-3-4.9-15.8-9.5-36.7 1.4.6 1.2.7 4.4 1.1 3.2.4 8.9-.2 13-2.7zM930.6 29c2.2 0 3.9 1.9 3.9 4 0 2.2-1.9 3.9-4 3.9-2.2 0-3.9-1.9-3.9-4s1.8-3.9 4-3.9zm13.3-.4c2.7 0 4.8 2.3 4.8 5s-2.3 4.8-5 4.8-4.8-2.3-4.8-5c.1-2.7 2.4-4.8 5-4.8zm39.5 2.6c3.7.1 6.6 3.1 6.6 6.8-.1 3.7-3.1 6.6-6.8 6.6-3.7-.1-6.7-3.1-6.6-6.8 0-3.7 3.1-6.7 6.8-6.6zm60.3 59.2c3.7.1 6.6 3.1 6.6 6.8-.1 3.7-3.1 6.7-6.8 6.6-3.7-.1-6.7-3.1-6.6-6.8 0-3.7 3-6.6 6.8-6.6zm2.6 55.4c2.2 0 3.9 1.8 3.9 4s-1.8 3.9-4 3.9-3.9-1.9-3.9-4c0-2.3 1.8-4 4-3.9zm-.8-18c3 0 5.4 2.6 5.4 5.6 0 3-2.5 5.4-5.5 5.4s-5.4-2.6-5.4-5.5c.1-3.1 2.5-5.6 5.5-5.5zm-19.8-91.5c10.3.2 18.4 8.6 18.2 18.8-.2 10.2-8.6 18.3-18.8 18.2-10.2-.2-18.3-8.6-18.2-18.8.2-10.2 8.6-18.4 18.8-18.2zm-9.1-8.6l-50.9-.7c-3.9 5-3.9 8.9-2.7 17.3 15 2.7 31.6 11.8 34.6 14.7-4.3-9.2 4.7-29.2 19-31.3zm-56.3-.8l-27.2-.7c-.5 0-1 0-1.5.1-4.4-.4-11.1 2.3-9.9 7.2 2.7 9.9 15.6 5.5 36.3 10.7-.5-1.4-.6-1.2-1-4.4-.2-3.2.7-8.9 3.3-12.9zm94.4 1.7l-.3 24.3c-1.9-12-11.6-21.8-23.4-24.7l6.8.1 16.9.3zm-29.6 48.6c12.1.2 22.2-9.5 22.4-21.6.2-12.2-9.5-22.2-21.6-22.4-12.2-.2-22.2 9.5-22.4 21.7-.3 12.1 9.4 22.1 21.6 22.3zm29.1-12.7l-1 50.9c-5.1 3.8-9 3.7-17.4 2.2-2.2-15-10.8-31.9-13.5-35.1 9.1 4.6 29.3-3.8 31.9-18zM1028.8 50c-.4-.3-1-.5-1.5-.7l-.4-1.8h-2.1l-.4 1.7c-.5.1-1 .3-1.5.6l-1.5-.9-1.4 1.4.9 1.6c-.3.4-.5 1-.7 1.5l-1.8.4v2l1.7.5c.1.5.3 1 .6 1.5l-.9 1.6 1.4 1.4 1.6-.9c.4.3 1 .5 1.5.7l.4 1.7h2l.5-1.7c.5-.1 1-.3 1.5-.6l1.6 1 1.4-1.4-.9-1.6c.3-.4.5-1 .7-1.5l1.7-.4V54l-1.7-.5c-.1-.5-.3-1-.6-1.5l1-1.5-1.4-1.4-1.7.9zm.7 696.3c-.9.6-1.9 1-3 1.2l-1 3.5-4-.1-.8-3.4c-1-.3-2-.7-2.9-1.3l-3.2 1.8-2.8-2.9 1.8-3c-.6-.9-1-1.9-1.2-3l-3.5-1 .1-4 3.4-.8c.3-1 .7-2 1.3-2.9l-1.8-3.2 2.9-2.8 3 1.8c.9-.6 1.9-1 2.9-1.2l1-3.5 4 .1.8 3.4c1 .3 2 .7 3 1.3l3.2-1.8 2.8 2.9-1.8 3c.6.9.9 1.9 1.2 3l3.5 1-.1 4-3.5.8c-.2 1-.6 2-1.2 2.9l1.8 3.2-2.9 2.8-3-1.8zm23.6-74.9l.7-27.2c0-.5 0-1-.1-1.5.4-4.3-2.4-11.1-7.2-9.8-9.8 2.7-5.5 15.6-10.7 36.3 1.4-.6 1.2-.7 4.4-1 3.2-.3 8.9.6 12.9 3.2zm-125.4 87.7c2.2 0 4-1.7 4-3.9s-1.7-4-3.9-4-4 1.7-4 3.9c-.1 2.1 1.7 4 3.9 4zm13.3.9c2.7 0 4.9-2.1 5-4.8 0-2.7-2.1-5-4.8-5-2.7 0-4.9 2.2-5 4.9 0 2.6 2.1 4.8 4.8 4.9zm39.6-1.3c3.7.1 6.7-2.9 6.8-6.6.1-3.7-2.9-6.7-6.6-6.8-3.7-.1-6.8 2.8-6.8 6.6-.1 3.7 2.8 6.7 6.6 6.8zm62.1-57.3c3.7.1 6.7-2.8 6.8-6.6.1-3.7-2.9-6.8-6.6-6.8-3.7-.1-6.8 2.9-6.8 6.6-.1 3.7 2.9 6.7 6.6 6.8zm4.4-55.2c2.2 0 4-1.7 4-3.9s-1.7-4-3.9-4-4 1.7-4 3.9c0 2.1 1.8 4 3.9 4zm-1.3 17.9c3 0 5.5-2.3 5.5-5.4 0-3-2.3-5.5-5.4-5.5-3 0-5.5 2.3-5.5 5.4 0 3 2.4 5.4 5.4 5.5zm-22.8 90.8c10.3.2 18.7-8 18.8-18.2.2-10.2-8-18.7-18.2-18.8-10.2-.2-18.6 8-18.8 18.2-.2 10.2 8 18.7 18.2 18.8zm-9.3 8.3l-50.9-1c-3.7-5.1-3.6-9-2.1-17.4 15-2.2 31.9-10.8 35.1-13.5-4.7 9.1 3.6 29.3 17.9 31.9zm-56.4-1.1l-27.2-.2c-.5 0-1-.1-1.5-.2-4.4.2-11.1-2.7-9.6-7.5 3-9.7 15.8-4.9 36.7-9.5-.5 1.4-.7 1.2-1.1 4.4-.4 3.2.2 9 2.7 13zm94.4 1.5l.5-24.4c-2.3 12-12.3 21.5-24.2 24l6.8.1 16.9.3zm-28-49.6c12.1.2 21.8 10.2 21.6 22.4-.2 12.2-10.2 21.8-22.4 21.6-12.2-.2-21.9-10.2-21.7-22.4.3-12.1 10.3-21.8 22.5-21.6zm28.6 13.7l.7-50.9c-5-3.9-8.9-4-17.3-2.7-2.7 15-11.8 31.6-14.7 34.6 9.3-4.3 29.2 4.7 31.3 19zm-25.8 13.6c-.5.3-1 .5-1.5.6l-.5 1.8h-2.1l-.4-1.7c-.5-.1-1-.3-1.5-.6l-1.6.9-1.4-1.4.9-1.5c-.3-.5-.5-1-.6-1.5l-1.8-.5v-2l1.7-.4c.1-.5.3-1 .6-1.5l-.9-1.6 1.4-1.4 1.5.9c.5-.2 1-.5 1.5-.6l.5-1.7h2l.4 1.7c.5.1 1 .3 1.5.6l1.6-.9 1.4 1.4-.9 1.5c.2.5.5 1 .6 1.5l1.7.5v2l-1.7.4c-.1.5-.3 1-.7 1.5l.9 1.6-1.4 1.4-1.2-1zM578.4 38.5c-.4-.3-.7-.6-1-.9-28.2-25-74.9-25.4-103.6-1.2-.3.3-.7.7-1.1.9-4 3.5-11.3 4.5-15.5.2-6-6.1-.2-14.1 5-17.8 33-26.9 94.6-26.3 127 1.4C594.4 25 600 33 593.8 39c-4.2 4.3-11.5 3.1-15.4-.5zM475.6 17.2c-1.9 1.8-1.9 4.9-.1 6.7 1.8 1.9 4.9 2 6.8.1 1.9-1.8 1.9-4.9.1-6.8-1.9-1.9-4.9-1.9-6.8 0zm100.5 1c1.8 1.9 1.8 4.9-.1 6.8a4.86 4.86 0 0 1-6.8-.1c-1.8-1.9-1.8-4.9.1-6.8 2-1.9 5-1.8 6.8.1zm13.5 9.9c1.8 1.9 1.8 4.9-.1 6.8a4.86 4.86 0 0 1-6.8-.1c-1.8-1.9-1.8-4.9.1-6.8 1.9-1.8 4.9-1.8 6.8.1zm-46-21.3c1.8 1.9 1.8 4.9-.1 6.7-1.9 1.9-4.9 1.8-6.8-.1-1.8-1.9-1.8-4.9.1-6.8 1.9-1.7 5-1.7 6.8.2zm16 3.8c1.8 1.9 1.8 4.9-.1 6.8a4.86 4.86 0 0 1-6.8-.1c-1.8-1.9-1.8-4.9.1-6.8 1.9-1.8 4.9-1.8 6.8.1zm-29.7-4.9c2.1 2.1 2.1 5.5-.1 7.6-2.1 2.1-5.5 2-7.6-.1-2.1-2.1-2-5.5.1-7.6 2.2-2.1 5.6-2 7.6.1zm-68 21.1c-1.9 1.8-1.9 4.9-.1 6.8 1.8 1.9 4.9 1.9 6.8.1 1.9-1.8 1.9-4.9.1-6.8-1.8-2-4.9-2-6.8-.1zm46.5-20.3c-1.9 1.8-1.9 4.9-.1 6.8 1.8 1.9 4.9 1.9 6.8.1 1.9-1.8 2-4.9.1-6.8a4.86 4.86 0 0 0-6.8-.1zM492.3 10c-1.9 1.8-1.9 4.9-.1 6.8 1.8 1.9 4.9 1.9 6.8.1 1.9-1.8 1.9-4.9.1-6.8-1.9-2-4.9-2-6.8-.1z"/><path fill="none" stroke="#C4B090" stroke-miterlimit="10" d="M596.2 755.3c107.4.1 215.4.1 322.7 0m-785.1 0c107.2.1 213.3.1 320.5 0"/><path fill-rule="evenodd" clip-rule="evenodd" fill="#C4B090" d="M11.7 176H6.4v441.1h5.3V176z"/><path fill="none" stroke="#C4B090" stroke-miterlimit="10" d="M592.3 33.5h329.5m-787.9 0H459"/><path fill-rule="evenodd" clip-rule="evenodd" fill="#C4B090" d="M1050.1 174.9h-5.3V616h5.3V174.9zM578 748c-.4.3-.7.6-1 .9-28.2 25-74.9 25.4-103.6 1.2-.3-.3-.7-.7-1.1-.9-4-3.5-11.3-4.5-15.5-.2-6 6.1-.2 14.1 5 17.8 33 26.9 94.6 26.3 127-1.4 5.2-3.9 10.8-11.9 4.6-17.9-4.2-4.3-11.4-3.1-15.4.5zm-102.8 21.3c-1.9-1.8-1.9-4.9-.1-6.7 1.8-1.9 4.9-2 6.8-.1 1.9 1.8 1.9 4.9.1 6.8-1.8 1.9-4.9 1.9-6.8 0zm100.5-.9c1.8-1.9 1.8-4.9-.1-6.8a4.86 4.86 0 0 0-6.8.1c-1.8 1.9-1.8 4.9.1 6.8 2 1.8 5 1.8 6.8-.1zm13.5-9.9c1.8-1.9 1.8-4.9-.1-6.8a4.86 4.86 0 0 0-6.8.1c-1.8 1.9-1.8 4.9.1 6.8 1.9 1.8 5 1.8 6.8-.1zm-46 21.2c1.8-1.9 1.8-4.9-.1-6.7-1.9-1.9-4.9-1.8-6.8.1-1.8 1.9-1.8 4.9.1 6.8 2 1.7 5 1.7 6.8-.2zm16-3.8c1.8-1.9 1.8-4.9-.1-6.8a4.86 4.86 0 0 0-6.8.1c-1.8 1.9-1.8 4.9.1 6.8 1.9 1.8 4.9 1.8 6.8-.1zm-29.6 4.9c2.1-2.1 2.1-5.5-.1-7.6-2.1-2.1-5.5-2-7.6.1-2.1 2.1-2 5.5.1 7.6 2.1 2.1 5.5 2 7.6-.1zm-68.1-21.1c-1.9-1.8-1.9-4.9-.1-6.8 1.8-1.9 4.9-1.9 6.8-.1 1.9 1.8 2 4.9.1 6.8-1.8 2-4.9 2-6.8.1zM508 780c-1.9-1.8-1.9-4.9-.1-6.8 1.8-1.9 4.9-1.9 6.8-.1 1.9 1.8 2 4.9.1 6.8a4.86 4.86 0 0 1-6.8.1zm-16.1-3.5c-1.9-1.8-1.9-4.9-.1-6.8 1.8-1.9 4.9-1.9 6.8-.1 1.9 1.8 1.9 4.9.1 6.8-1.8 2-4.9 2-6.8.1z"/></svg>