<svg xmlns="http://www.w3.org/2000/svg" viewBox="0 0 1053.9 159.3"><path fill-rule="evenodd" clip-rule="evenodd" fill="#C4B090" d="M22.8 45.1c.9-.6 1.9-1.1 2.9-1.3l.8-3.5 4-.1 1 3.4c1 .2 2 .6 3 1.2l3.1-1.9 2.9 2.8-1.7 3.1c.6.9 1.1 1.8 1.3 2.9l3.5.9.1 4-3.4.9c-.2 1-.6 2.1-1.2 3l1.9 3.1-2.8 2.9-3.1-1.7c-.9.6-1.9 1-2.9 1.3l-.9 3.5-4 .1-.9-3.4c-1-.2-2.1-.6-3-1.1L20.3 67l-2.9-2.8 1.7-3c-.6-1-1-1.9-1.3-2.9l-3.5-.8-.1-4 3.4-1c.2-1 .5-2 1.1-3l-1.9-3.1 2.8-2.9 3.2 1.6zM1.6 120.8l.2 27.2c0 .5.1 1 .2 1.5-.3 4.3 2.7 11.1 7.5 9.6 9.7-3 4.9-15.8 9.5-36.7-1.4.6-1.2.7-4.4 1.1-3.2.4-8.9-.2-13-2.7zM124.1 29c-2.2 0-3.9 1.9-3.9 4 0 2.2 1.9 3.9 4 3.9 2.2 0 3.9-1.9 3.9-4s-1.8-3.9-4-3.9zm-13.4-.4c-2.7 0-4.8 2.3-4.8 5s2.3 4.8 5 4.8 4.8-2.3 4.8-5c-.1-2.7-2.3-4.8-5-4.8zm-39.4 2.6c-3.7.1-6.6 3.1-6.6 6.8.1 3.7 3.1 6.6 6.8 6.6 3.7-.1 6.7-3.1 6.6-6.8-.1-3.7-3.1-6.7-6.8-6.6zM11 90.4c-3.7.1-6.6 3.1-6.6 6.8.1 3.7 3.1 6.7 6.8 6.6 3.7-.1 6.7-3.1 6.6-6.8 0-3.7-3.1-6.6-6.8-6.6zm-2.6 55.4c-2.2 0-3.9 1.8-3.9 4s1.8 3.9 4 3.9 3.9-1.9 3.9-4c0-2.3-1.8-4-4-3.9zm.7-18c-3 0-5.4 2.6-5.4 5.6 0 3 2.5 5.4 5.5 5.4s5.4-2.6 5.4-5.5c0-3.1-2.5-5.6-5.5-5.5zM29 36.3c-10.3.2-18.4 8.6-18.2 18.8.2 10.2 8.6 18.3 18.8 18.2 10.2-.2 18.3-8.6 18.2-18.8-.2-10.2-8.6-18.4-18.8-18.2zm9-8.6l51-.7c3.9 5 3.9 8.9 2.7 17.3C76.6 47 60.1 56.1 57 59c4.4-9.2-4.6-29.2-19-31.3zm56.4-.8l27.2-.7c.5 0 1 0 1.5.1 4.4-.4 11.1 2.3 9.9 7.2-2.7 9.9-15.6 5.5-36.3 10.7.5-1.4.6-1.2 1-4.4.1-3.2-.7-8.9-3.3-12.9zM0 28.6l.3 24.3c1.9-12 11.6-21.8 23.4-24.7l-6.8.1-16.9.3zm29.6 48.6c-12.1.2-22.2-9.4-22.4-21.6-.2-12.2 9.6-22.2 21.7-22.4 12.2-.2 22.2 9.5 22.4 21.7.2 12.1-9.5 22.1-21.7 22.3zM.5 64.5l1 50.9c5.1 3.8 9 3.7 17.4 2.2 2.2-15 10.8-31.9 13.5-35.1-9.1 4.6-29.3-3.8-31.9-18zM25.9 50c.4-.3 1-.5 1.5-.7l.4-1.8h2.1l.4 1.7c.5.1 1 .3 1.5.6l1.5-.9 1.4 1.4-.9 1.6c.3.4.5 1 .7 1.5l1.8.4v2l-1.7.5c-.1.5-.3 1-.6 1.5l.9 1.6-1.4 1.4-1.6-.9c-.4.3-1 .5-1.5.7l-.4 1.7h-2l-.5-1.7c-.5-.1-1-.3-1.5-.6l-1.6 1-1.4-1.4.9-1.6c-.3-.4-.5-1-.7-1.5l-1.7-.4V54l1.7-.5c.1-.5.3-1 .6-1.5l-1-1.5 1.4-1.4 1.7.9zm1005.2-4.9c-.9-.6-1.9-1.1-2.9-1.3l-.8-3.5-4-.1-1 3.4c-1 .2-2 .6-3 1.2l-3.1-1.9-2.9 2.8 1.7 3.1c-.6.9-1.1 1.8-1.3 2.9l-3.5.9-.1 4 3.4.9c.2 1 .6 2.1 1.2 3l-1.9 3.1 2.8 2.9 3.1-1.7c.9.6 1.9 1 2.9 1.3l.9 3.5 4 .1.9-3.4c1-.2 2.1-.6 3-1.1l3.1 1.9 2.9-2.8-1.7-3c.6-1 1-1.9 1.3-2.9l3.5-.8.1-4-3.4-1c-.2-1-.5-2-1.1-3l1.9-3.1-2.8-2.9-3.2 1.5zm21.2 75.7l-.2 27.2c0 .5-.1 1-.2 1.5.3 4.3-2.7 11.1-7.5 9.6-9.7-3-4.9-15.8-9.5-36.7 1.4.6 1.2.7 4.4 1.1 3.2.4 8.9-.2 13-2.7zM929.8 29c2.2 0 3.9 1.9 3.9 4 0 2.2-1.9 3.9-4 3.9-2.2 0-3.9-1.9-3.9-4s1.8-3.9 4-3.9zm13.4-.4c2.7 0 4.8 2.3 4.8 5s-2.3 4.8-5 4.8-4.8-2.3-4.8-5 2.3-4.8 5-4.8zm39.4 2.6c3.7.1 6.6 3.1 6.6 6.8-.1 3.7-3.1 6.6-6.8 6.6-3.7-.1-6.7-3.1-6.6-6.8 0-3.7 3.1-6.7 6.8-6.6zm60.3 59.2c3.7.1 6.6 3.1 6.6 6.8-.1 3.7-3.1 6.7-6.8 6.6-3.7-.1-6.7-3.1-6.6-6.8 0-3.7 3-6.6 6.8-6.6zm2.6 55.4c2.2 0 3.9 1.8 3.9 4s-1.8 3.9-4 3.9-3.9-1.9-3.9-4c0-2.3 1.8-4 4-3.9zm-.7-18c3 0 5.4 2.6 5.4 5.6 0 3-2.5 5.4-5.5 5.4s-5.4-2.6-5.4-5.5c0-3.1 2.4-5.6 5.5-5.5zm-19.9-91.5c10.3.2 18.4 8.6 18.2 18.8-.2 10.2-8.6 18.3-18.8 18.2-10.2-.2-18.3-8.6-18.2-18.8.2-10.2 8.6-18.4 18.8-18.2zm-9-8.6l-51-.7c-3.9 5-3.9 8.9-2.7 17.3 15 2.7 31.6 11.8 34.6 14.7-4.3-9.2 4.7-29.2 19.1-31.3zm-56.4-.8l-27.2-.7c-.5 0-1 0-1.5.1-4.4-.4-11.1 2.3-9.9 7.2 2.7 9.9 15.6 5.5 36.3 10.7-.5-1.4-.6-1.2-1-4.4-.2-3.2.7-8.9 3.3-12.9zm94.4 1.7l-.3 24.3c-1.9-12-11.6-21.8-23.4-24.7l6.8.1 16.9.3zm-29.6 48.6c12.1.2 22.2-9.5 22.4-21.6.2-12.2-9.5-22.2-21.6-22.4-12.2-.2-22.2 9.5-22.4 21.7-.3 12.1 9.4 22.1 21.6 22.3zm29.1-12.7l-1 50.9c-5.1 3.8-9 3.7-17.4 2.2-2.2-15-10.8-31.9-13.5-35.1 9.1 4.6 29.3-3.8 31.9-18zM1028 50c-.4-.3-1-.5-1.5-.7l-.4-1.8h-2.1l-.4 1.7c-.5.1-1 .3-1.5.6l-1.5-.9-1.4 1.4.9 1.6c-.3.4-.5 1-.7 1.5l-1.8.4v2l1.7.5c.1.5.3 1 .6 1.5l-.9 1.6 1.4 1.4 1.6-.9c.4.3 1 .5 1.5.7l.4 1.7h2l.5-1.7c.5-.1 1-.3 1.5-.6l1.6 1 1.4-1.4-.9-1.6c.3-.4.5-1 .7-1.5l1.7-.4V54l-1.7-.5c-.1-.5-.3-1-.6-1.5l1-1.5-1.4-1.4-1.7.9zM577.6 38.5c-.4-.3-.7-.6-1-.9-28.2-25-74.9-25.4-103.6-1.2-.3.3-.7.7-1.1.9-4 3.5-11.3 4.5-15.5.2-6-6.1-.2-14.1 5-17.8 33-26.9 94.6-26.3 127 1.4C593.6 25 599.2 33 593 39c-4.2 4.3-11.4 3.1-15.4-.5zM474.8 17.2c-1.9 1.8-1.9 4.9-.1 6.7 1.8 1.9 4.9 2 6.8.1 1.9-1.8 1.9-4.9.1-6.8-1.9-1.9-4.9-1.9-6.8 0zm100.5 1c1.8 1.9 1.8 4.9-.1 6.8a4.86 4.86 0 0 1-6.8-.1c-1.8-1.9-1.8-4.9.1-6.8 2-1.9 5-1.8 6.8.1zm13.5 9.9c1.8 1.9 1.8 4.9-.1 6.8a4.86 4.86 0 0 1-6.8-.1c-1.8-1.9-1.8-4.9.1-6.8 1.9-1.8 4.9-1.8 6.8.1zm-46-21.3c1.8 1.9 1.8 4.9-.1 6.7-1.9 1.9-4.9 1.8-6.8-.1-1.8-1.9-1.8-4.9.1-6.8 1.9-1.7 5-1.7 6.8.2zm16 3.8c1.8 1.9 1.8 4.9-.1 6.8a4.86 4.86 0 0 1-6.8-.1c-1.8-1.9-1.8-4.9.1-6.8 1.9-1.8 4.9-1.8 6.8.1zm-29.6-4.9c2.1 2.1 2.1 5.5-.1 7.6-2.1 2.1-5.5 2-7.6-.1-2.1-2.1-2-5.5.1-7.6 2.1-2.1 5.5-2 7.6.1zm-68.1 21.1c-1.9 1.8-1.9 4.9-.1 6.8 1.8 1.9 4.9 1.9 6.8.1 1.9-1.8 1.9-4.9.1-6.8-1.8-2-4.9-2-6.8-.1zm46.5-20.3c-1.9 1.8-1.9 4.9-.1 6.8 1.8 1.9 4.9 1.9 6.8.1 1.9-1.8 2-4.9.1-6.8a4.86 4.86 0 0 0-6.8-.1zM491.5 10c-1.9 1.8-1.9 4.9-.1 6.8 1.8 1.9 4.9 1.9 6.8.1 1.9-1.8 1.9-4.9.1-6.8-1.8-2-4.9-2-6.8-.1z"/><path fill="none" stroke="#C4B090" stroke-miterlimit="10" d="M591.5 33.5H921m-787.9 0h325.1"/></svg>