<svg xmlns="http://www.w3.org/2000/svg" viewBox="0 0 52.7 53.3"><g fill="#443323"><path d="M53.3 9.1c.1-2.6.5-6.2-2-7.9-2.2-1.4-5.7-.9-8.1-.9-4.4.1-8.7.2-13.1.4-3.7.1-7.4-.1-11.1 0-3.4.1-6.8.3-10.2.2C6.4.8 3.5.7 1.9 2.7.9 3.9.6 5.6.7 7.2v.7c.1 2 .2 4 .2 6l.3 12.7c0 4.2-.2 8.4-.3 12.6C.8 42.5.4 46.4 2 49.5c2.2 4.5 8.6 4.1 12.8 3.8 7.5-.4 15 .3 22.5-.5.3 0 .5-.1.8-.1h.1c3.4.1 6.8.3 10-.9 2.7-1 4.3-3.6 4.8-6.3.3-1.7.1-3.4.1-5.1 0-2.2-.1-4.5-.2-6.7-.1-4.3.1-8.5.2-12.8 0-1.9.2-3.9.2-5.8.1-1.9-.1-4 0-6zm-.5 0c-.1 2 .1 4.1 0 6.1 0 1.9-.2 3.9-.2 5.8-.1 2.2.1 4.4-.1 6.6-.3 4.3-.1 8.6 0 12.9.1 3.9.2 8.1-3.5 10.4-2.7 1.7-6.4 1.6-9.6 1.5 0 0-.1 0-.1-.1-1.3-.4-2.9.1-4.3.1-2 .1-4.1.1-6.1.1-3.9 0-7.8-.1-11.7.1-4.5.3-11.2 1.6-14.4-2.6-2.2-2.9-1.5-7.5-1.5-10.9.1-4 .3-8.1.3-12.1 0-4.1-.1-8.1-.2-12.2 0-1.9-.1-3.8-.2-5.7 0-.3 0-.6-.1-.9v-.1c0-.1 0-.3-.1-.4 0-.7 0-1.4.1-2 0-.7.2-1.4.6-2.1.9-1.9 2.9-2.3 4.9-2.4 1.8-.1 3.5.1 5.3.1C14 1.3 16 1.1 18 1c4.2-.2 8.4.1 12.6 0C35 1 39.3.8 43.7.7c2.8 0 7.4-.7 8.7 2.5.7 1.8.5 4 .4 5.9z"/><path d="M46.1 43.6c-.1 0-.1.1-.1.2-.7.4-1.1 1.3-1.1 2.1.1 1.5 1.7 2 2.9 1.6 2.6-.9.8-5.7-1.7-3.9zm1.9 3.5c-1.1.7-2.7-.1-2.7-1.3-.1-1.2.9-1.9 1.9-2.1.6 0 1.1.2 1.5.9.3.8.1 2-.7 2.5z"/><path d="M47.8 45.3c-.1-.2-.2-.5-.5-.6-.2-.1-.6-.1-.8.1-.2.1-.4.4-.4.7-.1.6.4 1 .9 1 .6-.1.9-.7.8-1.2zm-.7.8c-.7.1-.8-.9-.2-1.1h.2c.2 0 .3.2.3.4.1.2 0 .6-.3.7zm.4-40c-.1-.4-.8-.8-1.1-.4-.2.2-.4.4-.4.6 0 .5.4.9.9.8.5 0 .8-.5.6-1zm-.6.6c-.5.1-.7-.6-.3-.8.2 0 .4 0 .5.2.1.3 0 .6-.2.6zM9.1 6.3c-.3-1.2-1.5-2-2.6-1.6-1.8.3-1.8 4.1.4 4.3 1.6.2 2.5-1.4 2.2-2.7zM6.7 8.6c-1.4-.2-1.5-2.4-.6-3.3h.1c.5-.2 1-.4 1.5-.2.6.2.9.7 1.1 1.3.5 1.3-.8 2.4-2.1 2.2z"/><path d="M7.8 6.3c-.1-.2-.2-.4-.5-.4-.2 0-.5.1-.6.3-.2.2-.3.6-.3.9 0 .6.8.9 1.3.5.4-.2.3-.9.1-1.3zm-.3 1c-.2.3-.7.1-.7-.3s.2-.7.6-.8h.1c.1 0 .1.1.2.1 0 .4.1.8-.2 1zm3.3 37.9c-.3-1-1.3-1.9-2.3-1.3-.9.3-1.5 1.1-1.5 2-.1 1.3 1 2 2.2 1.9 1.3-.2 1.9-1.3 1.6-2.6zm-1.9 2.2c-1 .1-1.7-.7-1.6-1.7.1-.6.5-1.1.9-1.4.9-.3 1.9-.2 2.3.9.4 1.3-.5 2.1-1.6 2.2z"/><path d="M9.9 45.8c-.1-.3-.3-.5-.5-.7-.2-.1-.7-.4-.9 0-.5.3-.4 1.4.3 1.7.5.1 1.2-.4 1.1-1zm-1.1.6c-.5-.1-.5-1-.1-1.2.1 0 .2 0 .3.1.2.1.3.2.4.4.2.5-.2.8-.6.7zm37.4-42c-1 .2-1.7 1.2-1.5 2.3.2 1.5 1.7 2.3 3.1 1.9 2.7-.9.5-5.7-1.6-4.2zm1.6 3.7c-1.1.6-2.5-.1-2.8-1.2-.3-1 .2-1.9 1.1-2.2h.1c1.1-.2 1.9-.1 2.4 1 .2.9.1 1.9-.8 2.4zM19.6 34.8c-1.8.6-2.4 5.1-1 6.3v.1c.1.2.4.1.3-.1-.8-2 .9-3.6 1.6-5.3.5-.8 0-1.3-.9-1zm.7 1.4c-.8 1.5-2.1 2.9-1.7 4.6-.7-.8-.5-2.3-.3-3.3.1-.5.3-1 .5-1.5.1-.3.3-.5.5-.7h.1c.2-.2.5-.4.9-.3.1 0 .2.1.3.2 0 .3-.1.7-.3 1 0-.1 0 0 0 0zm.3-12.3c-.6-.6-1.8.3-2.2.6-1.1.7-1.9 1.9-2.6 3-1.5 2.4-2.6 5.5-2 8.4 0 .2.1.4.1.5 0 .1.1.2.1.3.1.2.4.1.3-.1l-.3-1.2c.1-.8.3-1.9.3-2.1.2-1.4.8-2.6 1.5-3.8 1-1.6 2.3-2.7 3.8-3.9.3-.4 1.5-1.2 1-1.7zm-.2.6c-.1.1-.3.2-.4.3 0 .1-.1.1-.2.2 0 0-.1 0-.1.1h-.1c-.3.2-.6.5-.9.7-.7.5-1.3 1.1-1.9 1.7-1.4 1.6-2.5 3.5-2.8 5.7 0 .1-.1.4-.1.7.1-2.3 1.1-4.6 2.3-6.5.9-1.4 2.1-2.6 3.6-3.2.1 0 .2-.1.3-.1.3-.2.5.2.3.4z"/><path d="M51.2 40.4c-.1-2.3 0-4.7-.1-7v-8l-.3-10.6c-.1-1.9-.2-3.7-.3-5.6-.1-1.3.2-2.7-.1-4-.5-2.2-3.2-2.2-5-2.2-3.7-.1-7.4.1-11 .1-6.9-.1-13.8 0-20.7.2-1.9-.1-3.8.1-5.7 0-1.4-.1-2.8-.2-3.9.5-.9.6-1 1.9-1 2.8-.1 2 .1 4 0 6-.2 4.2.2 8.4.2 12.6 0 2 .1 4.1.1 6.1 0 2.1-.3 4.2-.4 6.4-.2 3.3-.5 7 1.2 10 1.3 2.4 3.6 3.2 6.2 3.4 8.3.6 16.6-.3 24.8-.4 4.9 0 14.2 1.5 15.6-5 .7-1.5.4-3.8.4-5.3zM27.4 3.5v2.6c-.4 0-.7.1-1 .1H26V3.5h1.4zm-.2 7.6h-1.1c0-1.2 0-2.4-.1-3.6h1.4V11c-.1.1-.2.1-.2.1zm.1.6v4.4h-1.2v-4.4h1.2zM26 7.3v-.8h.4c.3 0 .6-.1 1-.1v.8c-.5 0-.9 0-1.4.1zm0 9.2h1.5c1.1 0 2.1-.1 3.1-.2-.1.3-.1.7 0 1.1-2.5.3-5.2.1-7.7.1v-1H26c-.1 0 0 0 0 0zm7.5-2.7c-.7-.6-1.3-.4-2 .2-.1.1-.5-.4-.7-.4-.4-.1-.6 0-.9.1-.2.1-.3.3-.3.4-.1-.3-.5-.4-.8-.5-.5-.1-.9.1-1.2.4 0-.7 0-1.5.1-2.2h1.9c2.3.2 7.6.7 7.1 1.8-.6 1.1-2.8 1.6-3.9 1.9-1.7.5-3.4.7-5.1.7v-1.6c.2-.9 1.4-1 1.9-.1.1.1.2.1.3 0 .7-.7 1.3-.7 1.6 0 .1.1.2.1.3 0 .4-.7 1-.8 1.7-.4-.1 0 .2-.2 0-.3zm-5.7-3.9c.3-.6 1.6-1.2 1.9-.1 0 .1.2.1.3 0 .4-1.2 1.6-.8 2 0 0 .1.2.1.2 0 .5-.6 1.1-.7 1.9-.4.2.1.3-.2.2-.3-.3-.2-.7-.3-1.1-.2-.2 0-1.1.5-1.1.4-.5-.5-1.4-.9-2-.3-.2.2-.3.4-.3.4-.2-.3-.4-.4-.7-.5-.5-.1-1 .1-1.3.5V7.6h.6c.3 0 .7 0 1 .1h1.2c.1 0 .3 0 .4.1h.7c1.1 0 2.3.2 3.4.3.5.1 1 .1 1.5.3 1.5.7-1 1.6-1.2 1.6-2.4.8-5.2 1-7.7 1 0-.3.1-.7.1-1.1zm-.1-3.6c.9-.1 1.9 0 2.1.9h-2.1c.1-.3.1-.6 0-.9zm-2.2 17.5c-1.7.3-3.6.9-3.8 2.8-.5 0-1-.1-1.5 0-.1 0-.1 0-.1.1 0 1.8 0 3.6.1 5.4v.1c-.6.7-1.2 1.2-1.7 1.9-.6.8-.9 1.6-1.3 2.5-.6 1.4-.5 3.5.1 4.9 1.7 4 6 5.3 10.1 5.2 3.6-.1 7.2-1.8 8.9-5.1 1.7-3.3 0-7.4-2.4-9.9-.1-1.1-.2-2.1-.1-3.2 0-.5.2-1.2 0-1.7v-.6c0-.1-.1-.1-.2-.1h-.1c-.4 0-.8.1-1.2.1-.5-1.7-1.7-2.4-3.2-2.6.8-.3 1.4-.8 1.7-1.7h3.4s0 .1.1.1c2.6 1.2 4.7 2.8 6.3 5.3 1.7 2.8 2.1 6.3 1.5 9.5-1.3 6.6-7.9 10.5-14.2 10.7-3.2.1-7.2-.8-10-2.4-2.7-1.6-4.7-4.8-5.7-7.7-1.8-5.7 1.5-13.1 7.1-15.4 0 0 .1 0 .1-.1.5.1 1 0 1.5 0 .8 0 1.7 0 2.6.1-.2 1.3.9 1.7 2 1.8zm7.9 7.7h-1.2c-.6 0-1.2 0-1.8.1h-.1c-1.2.1-2.5.1-3.8 0-1.1 0-2.3.1-3.4.1-.9 0-1.8 0-2.6.2-.3-1.7-.1-3.4-.1-5.1 1.1 0 2.2.2 3.3.1 1.4 0 2.8-.1 4.2-.2 1.2-.1 2.5-.1 3.7-.1h1.6c.2 0 .2.6.2.7-.2 1.5-.2 3 0 4.2zm-6.8 2.8v1.2h-.3c-.4 0-.9.1-1.3.3-.3-.1-.5-.2-.7-.3-.2-.1-.3-.2-.3-.3-.1-.1-.3-.2-.3-.3 0-.2 0-.4.1-.5.1-.2.4-.4.6-.4l.2-.2c.5.2 1.3.4 2 .5zm-1.7-.6c.5-.2 1.1-.2 1.7-.2v.7c-.2-.2-.4-.2-.6-.2-.3-.1-.6-.1-.9-.2-.1-.1-.1-.1-.2-.1zm1.8 2v.6c-.5-.1-.9-.2-1.4-.4.4-.2.9-.2 1.4-.2zm-.1.8c.1.3.1.6.1.9-.6 0-1.3.1-1.8.3-.7-.4-1.3-.9-.3-1.6.1-.1.3-.1.4-.2.6.4 1.3.5 1.6.6zm.1 1.2v.5c-.3 0-.6-.1-.9-.2-.1 0-.2-.1-.4-.1.1 0 .2-.1.3-.1.3 0 .6 0 1-.1zm-1.6.4c.4.2 1 .3 1.6.4v.9c-.6.1-1.1.3-1.5.5-.1 0-.2.1-.2.1l-.6-.3c-1.2-.6-.1-1.3.7-1.6zm1.6 1.6v.7c-.3 0-.6-.1-.8-.1-.2 0-.3-.1-.5-.1.3-.1.6-.3.7-.3.1-.1.4-.2.6-.2zm-1.7.6c.5.1 1.1.2 1.7.3v.9c-.1 0-.1 0-.2.1-.1 0-.3.1-.5.2-.3-.1-.5-.2-.8-.3-1.1-.4-.7-.9-.2-1.2zm1.7 1.4v.4c-.2 0-.4-.1-.5-.2.2-.1.3-.2.5-.2zm.1.6v.4c0 1.5-2.2.6-1.4-.3.1-.1.3-.2.5-.3.3 0 .6.1.9.2zm-.2-9.2c-.6 0-1.2.1-1.8.3h-.3c-.1-.1-.3-.2-.4-.3-.1-.1-.1-.3 0-.4l.2-.2c.1-.2.3-.3.4-.4.1-.1.2-.2.3-.2h1.7c0 .5-.1.8-.1 1.2zm-2.3.5s-.1 0-.1.1c-1.5.8-.5 1.6.6 2.2-.8.3-1.4.9-.6 1.8.1.1.2.1.4.2-.3.1-.5.3-.7.5-.7.9-.2 1.4.8 1.8-.7.5-.6 1.1.5 1.6.2.1.4.1.6.2-.7.5-1.2 1.2-.2 1.7 1.2.6 1.5-.3 1.5-1.3.7.1 1.4.2 2 .1.3 0 .5-.1.8-.2.1 0 .2-.1.2-.2 0 0 .1 0 .1-.1.1 0 .1-.1 0-.2 0-.1-.1-.1-.1-.2s-.1-.1-.1-.1c-.7-.7-2-.5-3-.2v-.8c.9.1 1.6.1 1.9 0 .6 0 1.7-.5.8-1.1-.7-.4-1.7-.4-2.7-.2v-.8c1.7.3 3.5.4 3.5-.4s-2.2-.8-2.7-.8H27v-.9c1 .1 4 .4 3.8-.7-.2-.9-2.6-.6-3.8-.4v-1.1c2.1.3 4.5.1 4-.8-.4-.6-2.2-.5-2.7-.5H27c0-.4 0-.8.1-1.1 1.1-.1 2.3 0 3.4-.1 1.9.6 1.6 2.4 1.6 4 0 2 .5 4.3-.2 6.2-1.1 2.1-2.7 3.2-4.9 3.2-1.9 0-4-1.2-4.7-3-.6-1.7-.4-3.7-.4-5.4 0-1.5-.3-3.7 1.4-4.5h1.1c-1 .5-.9 1.1-.1 1.5zm5.2.5c-.3 0-.7.1-1 .1-.6 0-1.1 0-1.7-.1v-.7h.8c.9 0 1.7 0 2.6.2.8.2-.9.5-.7.5zm-2.6 3.6c.8-.1 1.6 0 2.4.1.1 0 .2.1.2.1.3 0 .3.5 0 .5h-1.4c-.4 0-.8-.1-1.1-.1h-.1v-.6zm0 1.9c.3 0 .5-.1.8-.1h.8c.2 0 .4 0 .7.1.1 0 .2 0 .2.1.1 0 .2 0 .2.1.1.1 0 .3-.1.4l-.1.1s0 .1-.1.1c-.1.1-.3.1-.4.1-.6 0-1.3 0-1.9-.1-.1-.3-.1-.5-.1-.8zm.1 2c.4-.1.8-.2 1.1-.2.2 0 1 .1 1.5.2.2.1.4.3 0 .4-.3.1-.6.2-.9.2-.5 0-1.1-.2-1.6-.2-.1-.1-.1-.3-.1-.4zm-.1-5.3v-.6h.5c.5 0 1-.1 1.5 0 .3 0 .6 0 .8.1.4.1.6.5.1.6-.9.1-1.9 0-2.9-.1zm-5.4-.4c0 2.3-.3 5 .8 7.1 2 3.5 8.9 2.8 9.8-1.2.7-2.1.2-4.8.1-6.8-.1-1.4-.2-2.6-1.4-3.1.8 0 1.7.2 2.5.1 2.6 2.6 4.1 6.5 2.3 9.9-1.6 3-5.2 4.4-8.4 4.6-3.8.2-8-1.1-9.7-4.7-.8-1.6-.8-3.7-.1-5.3.6-1.6 1.7-2.8 2.7-4.1.1 0 .2 0 .2-.1.9-.3 1.7-.3 2.5-.3-1.3.7-1.3 2.5-1.3 3.9zm5.3-9.4c-1.2.1-2.4.2-3.6.2-.4 0-.9 0-1.3-.1.6-2 2.6-2.4 4.4-2.6 2.2-.2 4.8-.2 5.5 2.3-1.6.2-3.3.1-5 .2zm0-2.9c-1.2 0-2.9-.1-3.2-1.5h1.3c1.8-.1 3.6-.1 5.4-.2-.5 1.7-2 1.8-3.5 1.7zm7.8-2.1c-.1 0-.3.1-.4.1-.2 0-.4 0-.6.1h-3.3c-1.8 0-3.6.1-5.4.2-1.5.1-3.1-.2-4.6-.1-.6 0-2.2 0-1.7-1.1.2-.5 1.2-.5 1.6-.6.8-.1 1.6 0 2.4.1 1.5.1 2.9-.1 4.4-.1h.1c1.1 0 2.3.1 3.4.1h.5c1.3-.1 2.6-.2 3.9 0h.2c.3.1.6.4.5.8-.2.2-.6.3-1 .5.1 0 0 0 0 0zm-11.8-3.4v-.5c2.6.1 5.2.3 7.8 0v.8c-1-.3-2.5 0-3.4 0-1.4.1-2.9-.1-4.4.1v-.4zm7.9 1.6h-1.8c-1.2 0-2.5-.2-3.7 0H23c0-.3-.1-.6-.1-.9 1.4-.2 2.9 0 4.3 0 1 0 2.4-.3 3.4 0 .1.3.1.6.1.9zm-8.2-1.4c0 .4-.1 1 .1 1.4h-1.1c-.7 0-1.9-.1-2.7.2 1-1.4 2.5-2.4 3.8-3.5 0 .6 0 1.3-.1 1.9zm10.3 1.4h-1.9c0-.7 0-1.3-.1-2v-.2c0-.4 0-.7-.1-1.1.9.7 1.5 1.6 2.4 2.3.4.3.9.5 1.3.8.1.1.2.2.3.2-.5-.2-1.4 0-1.9 0zm-7-3.5h-1.2c-1.3 0-2.6 0-4-.2-.4-.1-4.5-.9-3.8-1.8.4-.5 1.1-.8 1.9-1.1.6-.2 1.2-.4 1.4-.4 1.6-.4 3.1-.7 4.7-.8h1V14c-.1-.1-.3-.2-.6-.1s-.5.3-.7.5c.1-.1-.6-.5-.7-.5-.3-.1-.7-.2-1.1 0-.4.2-.4.5-.7.1-.6-.6-1.6-.2-2 .4-.1.1.1.3.2.1.6-.7 1.2-.7 1.8 0 .1.1.2.1.2 0 .7-.9 1.6-.4 2.1.2.1.1.2 0 .2-.1.4-.7.8-.8 1.1-.1.2.6.2 1.1.2 1.7zm-2.5-8.3l2.4-.3v1.8c-.5-.6-1.5-.6-1.9.1-.4-.5-1.3-.6-1.8 0-.5.5-.1.2-.9 0-.6-.1-1-.1-1.5.3-.1.1.1.3.2.2.7-.4 1.3-.3 1.8.2.1.1.2 0 .3-.1.2-.6 1.4-1.2 1.8-.2 0 .1.2.1.3 0 .3-1 1.4-.8 1.8 0v1.2c-2.1.1-4.3.1-6.4.1-.4 0-2.9-.4-3.6-1-.6-1.4 3.6-1.9 4.2-1.9.2 0 .4 0 .6-.1h.2c.8-.3 1.7-.3 2.5-.3zm0-.5c.2-.8 1.5-.9 2.5-.9v.8c-.3 0-.7 0-1 .1h-.7c-.3-.1-.6-.1-.8 0zm26.9 39c-1.3 3.4-5.7 4-9.1 4-4.1 0-8.2-.1-12.4 0-4.3.1-8.6.4-12.9.4-1.8 0-3.6-.1-5.4-.2-1.8-.1-3.4-.4-4.7-1.6-3-2.7-2.5-7.7-2.3-11.3.1-1.9.3-3.9.4-5.8.1-2.2 0-4.4-.1-6.6-.1-4.3-.4-8.5-.2-12.7.1-1.9.1-3.8 0-5.6 0-1.1.1-2.4 1.1-3.1.8-.6 2.1-.4 3-.3 1.7.1 3.5 0 5.2 0 4.3.1 8.7 0 13-.1v2.7c-1.1 0-2.7.1-2.7 1.2h-.3c-1 .1-2 .3-3 .5-1.4.2-3.6.5-4.5 1.7 0 0 0 .1.1.1v.1c0 .3.1.6.5.8 0 0 .1 0 .1.1.8.4 2.1.6 2.5.7 1.1.2 2.2.1 3.3.1h3.5-.6c-1.5.1-3 .4-4.4.8-.3.1-.6.2-1 .2-.5.1-3.8 1-3.1 2.1l.1.1c0 .1.1.1.2 0 .4.6 1.9.9 2.4 1 1.2.3 2.3.5 3.5.5-.9.6-1.6 1.4-2.4 2.1-.6.5-1.5 1.2-1.7 2-.3.5-.2 1.3.4 1.5.1 0 .1 0 .2.1-5.5 2.2-8.4 9.2-7.3 14.8.7 3.2 2.9 6.2 5.4 8.2 2.6 2 6.7 2.8 9.8 2.9 6.5.3 13.5-3.5 15.2-10 1.7-6.4-1.1-12.7-6.9-15.8-.1-.1-.3-.1-.4-.2.6-.1 1.1-.5 1.1-1.4 0-.3-.1-.4-.3-.6-.4-.6-1.3-1-1.8-1.3-1.1-.6-1.7-1.8-2.8-2.4 1-.2 1.9-.4 2.9-.7.8-.3 3.6-1.1 3.2-2.4-.3-.8-1.8-1-2.4-1.1-1.7-.4-3.5-.5-5.3-.5 1-.1 2.1-.2 3.1-.3 1.4-.2 2.8-.4 4.1-1 .6-.3.9-.8.6-1.4-.1-.8-1.1-.9-1.7-.9-1.6-.2-3.2-.4-4.8-.5h-.5C29.9 6 28.8 6 27.7 6c0-.9-.1-1.7-.2-2.6h4.8c3.4.1 6.8 0 10.3-.1 1.5 0 2.9 0 4.4.1.9.1 2.1.3 2.7 1.1.3.6.3 1.4.3 2 0 3.1.3 6.2.3 9.3.1 3.4.2 6.8.3 10.1 0 1.8.1 3.6 0 5.4-.1.8-.1 1.6 0 2.4v.6c-.1 1.7 0 3.5.1 5.2 0 1.1.1 2.3.1 3.4 0 1.3-.3 2.4-.6 3.5z"/><path d="M43.6 14.2c-.1 0-.2.1-.3.2l-.5.5c-.2.2-.5.4-.7.5-.2.1-.3.2-.4.3 0 .1 0 .1.1.1.4 0 .8-.5 1.1-.7.2-.1.7-.5.7-.9zm1 3.1c-.9.1-1.6.8-2.5 1-.2.1-.1.3.1.3.9-.2 1.6-.9 2.5-1.1.1 0 0-.2-.1-.2zm.5 4.7l-1.2-.6c-.4-.2-.8-.4-1.2-.4-.1 0-.2.2-.1.2.8.2 1.5.7 2.3 1 .2.2.3 0 .2-.2zm-31.5-4.9c-.4-.4-.7-.7-1.1-1-.3-.3-.7-.6-1.1-.8-.1 0-.1 0-.1.1.2.4.6.6.9.9.4.3.7.7 1.1 1 .3.1.5-.1.3-.2zm-1.2 2.5c-.3-.2-.7-.2-1.1-.2-.5 0-1-.1-1.4.1v.1c.4.1.8.1 1.2.1.4 0 .8.2 1.2.1.2-.1.2-.2.1-.2zm-.7 3.2c-.9.2-1.7.8-2.5 1.2-.1.1 0 .2.1.2.8-.4 1.5-1 2.4-1.2.2 0 .2-.3 0-.2z"/></g><g fill="#443323"><path d="M53.2 9.4c.1-2.6.5-6.2-2-7.9C49 .1 45.5.6 43.1.6 38.7.7 34.4.9 30 1c-3.7.1-7.4-.1-11.1 0-3.4.1-6.8.3-10.2.2-2.4 0-5.2-.1-6.9 1.8C.8 4.2.5 5.9.6 7.5v.7c.1 2 .2 4 .2 6l.3 12.7c0 4.2-.2 8.4-.3 12.6-.1 3.4-.5 7.2 1.1 10.3 2.2 4.5 8.6 4.1 12.8 3.8 7.5-.4 15 .3 22.5-.5.3 0 .5-.1.8-.1h.1c3.4.1 6.8.3 10-.9 2.7-1 4.3-3.6 4.8-6.3.3-1.7.1-3.4.1-5.1 0-2.2-.1-4.5-.2-6.7-.1-4.3.1-8.5.2-12.8 0-1.9.2-3.9.2-5.8.1-1.9 0-3.9 0-6zm-.4 0c-.1 2 .1 4.1 0 6.1 0 1.9-.2 3.9-.2 5.8-.1 2.2.1 4.4-.1 6.6-.3 4.3-.1 8.6 0 12.9.1 3.9.2 8.1-3.5 10.4-2.7 1.7-6.4 1.6-9.6 1.5 0 0-.1 0-.1-.1-1.3-.4-2.9.1-4.3.1-2 .3-4.1.3-6.1.3-3.9 0-7.8-.1-11.7.1-4.6.2-11.3 1.5-14.5-2.7-2.2-2.9-1.5-7.5-1.5-10.9.1-4 .3-8.1.3-12.1 0-4.1-.1-8.1-.2-12.2 0-1.9-.1-3.8-.2-5.7 0-.3 0-.6-.1-.9V8c0-.6-.1-1.3 0-1.9.1-.7.2-1.4.6-2.1.9-2 2.9-2.3 4.9-2.4 1.8-.1 3.5.1 5.3.1 2.1 0 4.1-.2 6.1-.3 4.2-.2 8.4.1 12.6 0 4.4-.1 8.7-.3 13.1-.4 2.8 0 7.4-.7 8.7 2.5.7 1.9.5 4.1.5 5.9z"/><path d="M46 43.9c-.1 0-.1.1-.1.2-.7.4-1.1 1.3-1.1 2.1.1 1.5 1.7 2 2.9 1.6 2.6-.9.8-5.6-1.7-3.9zm1.9 3.6c-1.1.7-2.7-.1-2.7-1.3-.1-1.3.8-2 1.8-2.2.6 0 1.1.2 1.5.9.4.8.2 2-.6 2.6z"/><path d="M47.7 45.7c-.1-.2-.2-.5-.5-.6-.2-.1-.6-.1-.8.1-.2.1-.4.4-.4.7-.1.6.4 1 .9 1 .7-.1.9-.7.8-1.2zm-.7.7c-.7.1-.8-.9-.2-1.1h.2c.2 0 .3.2.3.4.1.3 0 .7-.3.7zm.4-39.9c-.1-.4-.8-.8-1.1-.4-.2.1-.3.3-.3.5 0 .5.4.9.9.8.4 0 .7-.4.5-.9zm-.6.6c-.5.1-.7-.6-.3-.8.2 0 .4 0 .5.2.1.3 0 .5-.2.6zM9 6.6c-.3-1.2-1.5-2-2.6-1.6-1.8.4-1.8 4.2.4 4.4C8.4 9.5 9.3 8 9 6.6zM6.7 9c-1.5-.3-1.6-2.4-.6-3.3h.1c.5-.2 1-.4 1.5-.2.6.2.9.7 1.1 1.3C9.2 8 8 9.2 6.7 9z"/><path d="M7.7 6.7c-.1-.2-.2-.4-.5-.4-.2-.1-.5 0-.5.3-.3.2-.4.6-.4.9 0 .6.7.8 1.2.5.5-.3.4-.9.2-1.3zm-.3 1c-.2.3-.7.1-.7-.3s.2-.7.6-.8h.1c.1 0 .1.1.2.1.1.3.1.7-.2 1zm3.3 37.9c-.3-1-1.3-1.9-2.3-1.3-.9.3-1.5 1.1-1.5 2-.1 1.3 1 2 2.2 1.9 1.3-.2 1.9-1.3 1.6-2.6zm-1.8 2.2c-1 .1-1.7-.7-1.6-1.7.1-.6.5-1.1.9-1.4.9-.3 1.9-.2 2.3.9.4 1.2-.6 2.1-1.6 2.2z"/><path d="M9.8 46.2c-.1-.3-.3-.5-.5-.7-.2-.1-.7-.4-.9 0-.5.3-.4 1.4.3 1.7.5.1 1.2-.5 1.1-1zm-1.1.6c-.5-.1-.5-1-.1-1.2.1 0 .2 0 .3.1.2.1.3.2.4.4.3.5-.2.8-.6.7zM46.1 4.7c-1 .2-1.7 1.2-1.5 2.3.2 1.5 1.7 2.3 3.1 1.9 2.7-.8.5-5.6-1.6-4.2zm1.6 3.8c-1.1.6-2.5-.1-2.9-1.3-.3-1 .2-1.9 1.1-2.2h.1c1.1-.2 1.9-.1 2.4 1 .3.9.2 2-.7 2.5zM19.6 35.2c-1.8.6-2.4 5.1-1 6.3v.1c.1.2.4.1.3-.1-.8-2 .9-3.6 1.6-5.3.5-.9-.1-1.3-.9-1zm.6 1.3c-.8 1.5-2.1 2.9-1.7 4.6-.7-.8-.5-2.3-.3-3.3.1-.5.3-1 .5-1.5.1-.3.3-.5.5-.7h.1c.2-.2.5-.4.9-.3.1 0 .2.1.3.2 0 .4-.1.7-.3 1zm.3-12.2c-.6-.6-1.8.3-2.2.6-1.1.7-1.9 1.9-2.6 3-1.5 2.4-2.6 5.5-2 8.4 0 .2.1.4.1.5 0 .1.1.2.1.3.1.2.4.1.3-.1l-.3-1.2c.1-.8.3-1.9.3-2.1.2-1.4.8-2.6 1.5-3.8 1-1.6 2.3-2.7 3.8-3.9.3-.4 1.5-1.2 1-1.7zm-.2.5c-.1.1-.3.2-.4.3 0 .1-.1.1-.2.2 0 0-.1 0-.1.1h-.1c-.3.2-.6.5-.9.7-.7.5-1.3 1.1-1.9 1.7-1.4 1.6-2.5 3.5-2.8 5.7 0 .1-.1.4-.1.7.1-2.3 1.1-4.6 2.3-6.5.9-1.4 2.1-2.6 3.6-3.2.1 0 .2-.1.3-.1.3-.1.5.3.3.4z"/><path d="M51.1 40.8c-.1-2.3 0-4.7-.1-7v-8l-.3-10.6c-.1-1.9-.2-3.7-.3-5.6-.1-1.3.2-2.7-.1-4-.5-2.2-3.1-2.2-4.9-2.2-3.7-.1-7.4.1-11.1.1-6.9-.1-13.8 0-20.7.2-1.9-.1-3.8.1-5.7 0-1.4-.1-2.7-.3-3.9.5-.8.6-1 1.9-1 2.8-.1 2 0 4 0 6-.1 4.2.2 8.4.3 12.6 0 2 .1 4.1.1 6.1 0 2.1-.3 4.2-.4 6.4-.2 3.3-.5 7 1.2 10 1.3 2.4 3.6 3.2 6.2 3.4 8.3.6 16.6-.3 24.8-.4 4.9 0 14.2 1.5 15.6-5 .6-1.5.3-3.8.3-5.3zm-23.8-37v2.6c-.4 0-.7.1-1 .1h-.4V3.8c.5.1.9.1 1.4 0zm-.2 7.7H26c0-1.2 0-2.4-.1-3.6h1.4v3.5c-.1.1-.2.1-.2.1zm.1.6v4.4H26v-4.4h1.2zm-1.3-4.5v-.8h.4c.3 0 .6-.1 1-.1v.8c-.5.1-.9.1-1.4.1zm0 9.3h1.5c1.1 0 2.1-.1 3.1-.2-.1.3-.1.7 0 1.1-2.5.3-5.2.1-7.7.1v-1H24c.6-.1 1.2-.1 1.9 0zm7.5-2.8c-.7-.6-1.3-.4-2 .2-.1.1-.5-.4-.7-.4-.4-.1-.6 0-.9.1-.2.1-.3.3-.3.4-.1-.3-.5-.4-.8-.5-.5-.1-.9.1-1.2.4 0-.7 0-1.5.1-2.2h1.9c2.3.2 7.6.7 7.1 1.8-.6 1.1-2.8 1.6-3.9 1.9-1.7.5-3.4.7-5.1.7v-1.6c.2-.9 1.4-1 1.9-.1.1.1.2.1.3 0 .7-.7 1.3-.7 1.6 0 .1.1.2.1.3 0 .4-.7 1-.8 1.7-.4 0 .1.2-.1 0-.3zm-5.7-3.9c.3-.6 1.6-1.2 1.9-.1 0 .1.2.1.3 0 .4-1.2 1.6-.8 2 0 0 .1.2.1.2 0 .5-.6 1.1-.7 1.9-.4.2.1.3-.2.2-.3-.3-.2-.7-.3-1.1-.2-.2 0-1.1.5-1.1.4-.5-.5-1.4-.9-2-.3-.2.2-.3.4-.3.4-.2-.3-.4-.4-.7-.5-.5-.1-1 .1-1.3.5V7.9h.6c.3 0 .7 0 1 .1h1.2c.1 0 .3 0 .4.1h.6c1.2.1 2.3.3 3.5.5.5.1 1 .1 1.5.3 1.5.7-1 1.6-1.2 1.6-2.4.8-5.2 1-7.7 1 .1-.4.1-.9.1-1.3zm0-3.5c.9-.1 1.9 0 2.1.9h-2.1v-.9zm-2.3 17.5c-1.7.3-3.6.9-3.8 2.8-.5 0-1-.1-1.5 0-.1 0-.1 0-.1.1 0 1.8 0 3.6.1 5.4v.1c-.6.7-1.2 1.2-1.7 1.9-.6.8-.9 1.6-1.3 2.5-.6 1.4-.5 3.5.1 4.9 1.7 4 6 5.3 10.1 5.2 3.6-.1 7.2-1.8 8.9-5.1 1.7-3.3 0-7.4-2.4-9.9-.1-1.1-.2-2.1-.1-3.2 0-.5.2-1.2 0-1.7v-.6c0-.1-.1-.1-.2-.1h-.1c-.4 0-.8.1-1.2.1-.5-1.7-1.7-2.4-3.2-2.6.8-.3 1.4-.8 1.7-1.7h3.4s0 .1.1.1c2.6 1.2 4.7 2.8 6.3 5.3 1.7 2.8 2.1 6.3 1.5 9.5-1.4 6.6-8 10.6-14.3 10.8-3.2.1-7.2-.8-10-2.4-2.6-1.6-4.7-4.8-5.7-7.7-1.8-5.7 1.5-13.1 7.1-15.4 0 0 .1 0 .1-.1.5.1 1 0 1.5 0 .8 0 1.7 0 2.6.1-.1 1.2 1 1.6 2.1 1.7zm7.9 7.7h-1.2c-.6 0-1.2 0-1.8.1h-.1c-1.2.1-2.5.1-3.8 0-1.1 0-2.3.1-3.4.1-.9 0-1.8 0-2.6.2-.3-1.7-.1-3.4-.1-5.1 1.1 0 2.2.2 3.3.1 1.4 0 2.8-.1 4.2-.2 1.2-.1 2.5-.1 3.7-.1h1.6c.2 0 .2.6.2.7-.2 1.5-.2 2.9 0 4.2zm-6.8 2.8v1.2h-.3c-.4 0-.9.1-1.3.3-.3-.1-.5-.2-.7-.3-.2-.1-.3-.2-.3-.3-.1-.1-.3-.2-.3-.3 0-.2 0-.4.1-.5.1-.2.4-.4.6-.4l.2-.2c.5.2 1.3.4 2 .5zm-1.7-.7c.5-.2 1.1-.2 1.7-.2v.7c-.2 0-.4-.1-.6-.1-.3-.1-.6-.1-.9-.2l-.2-.2zm1.8 2v.6c-.5-.1-.9-.2-1.4-.4.5-.1.9-.1 1.4-.2zm-.1.9s.1 0 0 0c.1.3.1.6.1.9-.6 0-1.3.1-1.8.3-.7-.4-1.3-.9-.3-1.6.1-.1.3-.1.4-.2.7.3 1.3.5 1.6.6zm.1 1.2v.5c-.3 0-.6-.1-.9-.2-.1 0-.2-.1-.4-.1.1 0 .2-.1.3-.1.3 0 .6-.1 1-.1zm-1.6.4c.4.2 1 .3 1.6.4v.9c-.6.1-1.1.3-1.5.5-.1 0-.2.1-.2.1l-.6-.3c-1.2-.6-.1-1.3.7-1.6zm1.6 1.5v.7c-.3 0-.6-.1-.8-.1-.2 0-.3-.1-.5-.1.3-.1.6-.3.7-.3.2-.1.4-.1.6-.2zm-1.7.6c.5.1 1.1.2 1.7.3v.9c-.1 0-.1 0-.2.1-.1 0-.3.1-.5.2-.3-.1-.5-.2-.8-.3-1.1-.4-.7-.8-.2-1.2zm1.7 1.4v.4c-.2 0-.4-.1-.5-.2.2 0 .4-.1.5-.2zm.1.6v.4c0 1.5-2.2.6-1.4-.3.1-.1.3-.2.5-.3.3.1.6.2.9.2zm-.2-9.1c-.6 0-1.2.1-1.8.3h-.3c-.1-.1-.3-.2-.4-.3-.1-.1-.1-.3 0-.4l.2-.2c.1-.2.3-.3.4-.4.1-.1.2-.2.3-.2h1.7c0 .4 0 .8-.1 1.2zm-2.3.5s-.1 0-.1.1c-1.5.8-.5 1.6.6 2.2-.8.3-1.4.9-.6 1.8.1.1.2.1.4.2-.3.1-.5.3-.7.5-.7.9-.2 1.4.8 1.8-.7.5-.6 1.1.5 1.6.2.1.4.1.6.2-.7.5-1.2 1.2-.2 1.7 1.2.6 1.5-.3 1.5-1.3.7.1 1.4.2 2 .1.3 0 .5-.1.8-.2.1 0 .2-.1.2-.2 0 0 .1 0 .1-.1.1 0 .1-.1 0-.2 0-.1-.1-.1-.1-.2s-.1-.1-.1-.1c-.7-.7-2-.5-3-.2v-.8c.9.1 1.6.1 1.9 0 .6 0 1.7-.5.8-1.1-.7-.4-1.7-.4-2.7-.2v-.8c1.7.3 3.5.4 3.5-.4s-2.2-.8-2.7-.8h-.8v-.9c1 .1 4 .4 3.8-.7-.2-.9-2.6-.6-3.8-.4v-1.1c2.1.3 4.5.1 4-.8-.4-.6-2.2-.5-2.7-.5h-1.3c0-.4 0-.8.1-1.1 1.1-.1 2.3 0 3.4-.1 1.9.6 1.6 2.4 1.6 4 0 2 .5 4.3-.2 6.2-.9 1.8-2.5 2.9-4.8 2.9-1.9 0-4-1.2-4.7-3-.6-1.7-.4-3.7-.4-5.4 0-1.5-.3-3.7 1.4-4.5h1.1c-1.1.8-1 1.4-.2 1.8zm5.3.4c-.3 0-.7.1-1 .1-.6 0-1.1 0-1.7-.1v-.7h.8c.9 0 1.7 0 2.6.2.7.2-1 .6-.7.5zm-2.7 3.7c.8-.1 1.6 0 2.4.1.1 0 .2.1.2.1.3 0 .3.5 0 .5H28c-.4 0-.8-.1-1.1-.1h-.1v-.6zm0 1.9c.3 0 .5-.1.8-.1h.8c.2 0 .4 0 .7.1.1 0 .2 0 .2.1.1 0 .2 0 .2.1.1.1 0 .3-.1.4l-.1.1s0 .1-.1.1c-.1.1-.3.1-.4.1-.6 0-1.3 0-1.9-.1-.1-.3-.1-.6-.1-.8zm.1 2c.4-.1.8-.2 1.1-.2.2 0 1 .1 1.5.2.2.1.4.3 0 .4-.3.1-.6.2-.9.2-.5 0-1.1-.2-1.6-.2-.1-.2-.1-.3-.1-.4zm-.1-5.4V36h.5c.5 0 1-.1 1.5 0 .3 0 .6 0 .8.1.4.1.6.5.1.6-.8.2-1.9.1-2.9-.1zm-5.3-.3c0 2.3-.3 5 .8 7.1 2 3.5 8.9 2.8 9.8-1.2.7-2.1.2-4.8.1-6.8-.1-1.4-.2-2.6-1.4-3.1.8 0 1.7.2 2.5.1 2.6 2.6 4.1 6.5 2.3 9.9-1.6 3-5.2 4.4-8.4 4.6-3.8.2-8-1.1-9.7-4.7-.8-1.6-.8-3.7-.1-5.3.6-1.6 1.7-2.8 2.7-4.1.1 0 .2 0 .2-.1.8-.2 1.6-.2 2.4-.3-1.3.7-1.2 2.5-1.2 3.9zm5.2-9.4c-1.2.1-2.4.2-3.6.2-.4 0-.9 0-1.3-.1.6-2 2.6-2.4 4.4-2.6 2.2-.2 4.8-.2 5.5 2.3-1.6.1-3.3.1-5 .2zm0-2.9c-1.2 0-2.9-.1-3.2-1.5h1.3c1.8-.1 3.6-.1 5.4-.2-.4 1.7-2 1.7-3.5 1.7zm7.8-2.1c-.1 0-.3.1-.4.1-.2 0-.4 0-.6.1h-3.3c-1.8 0-3.6.1-5.4.2-1.5.1-3.1-.2-4.6-.1-.6 0-2.2 0-1.7-1.1.2-.5 1.2-.5 1.6-.6.8-.1 1.6 0 2.4.1 1.5.1 2.9-.1 4.4-.1h.1c1.1 0 2.3.1 3.4.1h.5c1.3-.1 2.6-.2 3.9 0h.2c.3.1.6.4.5.8-.2.1-.5.3-1 .5.1-.1 0-.1 0 0zm-11.8-3.4V18c2.6.1 5.2.3 7.8 0v.8c-1-.3-2.5 0-3.4 0-1.4.1-2.9-.1-4.4.1.1 0 0-.2 0-.4zm7.9 1.5h-1.8c-1.2 0-2.5-.2-3.7 0h-2.2c0-.3-.1-.6-.1-.9 1.4-.2 2.9 0 4.3 0 1 0 2.4-.3 3.4 0 .1.4.1.7.1.9zm-8.2-1.3c0 .4-.1 1 .1 1.4h-1.1c-.7 0-1.9-.1-2.7.2 1-1.4 2.5-2.4 3.8-3.5 0 .6 0 1.3-.1 1.9zM32.8 20h-1.9c0-.7 0-1.3-.1-2v-.2c0-.4 0-.7-.1-1.1.9.7 1.5 1.6 2.4 2.3.4.3.9.5 1.3.8.1.1.2.2.3.2-.6-.1-1.5 0-1.9 0zm-7.1-3.5h-1.2c-1.3 0-2.6 0-4-.2-.4-.1-4.5-.9-3.8-1.8.4-.5 1.1-.8 1.9-1.1.6-.2 1.2-.4 1.4-.4 1.6-.4 3.1-.7 4.7-.8h1v2.1c-.1-.1-.3-.2-.6-.1s-.5.3-.7.5c.1-.1-.6-.5-.7-.5-.3-.1-.7-.2-1.1 0-.4.2-.4.5-.7.1-.6-.6-1.6-.2-2 .4-.1.1.1.3.2.1.6-.7 1.2-.7 1.8 0 .1.1.2.1.2 0 .7-.9 1.6-.4 2.1.2.1.1.2 0 .2-.1.4-.7.8-.8 1.1-.1.2.6.2 1.2.2 1.7zm-2.5-8.3c.8 0 1.7-.1 2.5-.2v1.8c-.5-.6-1.5-.6-1.9.1-.4-.6-1.3-.7-1.8-.1-.5.5-.1.2-.9 0-.6-.1-1-.1-1.5.3-.1.1.1.3.2.2.7-.4 1.3-.3 1.8.2.1.1.2 0 .3-.1.2-.6 1.4-1.2 1.8-.2 0 .1.2.1.3 0 .3-1 1.4-.8 1.8 0v1.2c-2.1.1-4.3.1-6.4.1-.4 0-2.9-.4-3.6-1-.6-1.4 3.6-1.9 4.2-1.9.2 0 .4 0 .6-.1h.2c.7-.2 1.6-.2 2.4-.3zm0-.5c.2-.8 1.5-.9 2.5-.9v.8c-.3 0-.7 0-1 .1h-1.5zm26.9 39.1c-1.3 3.4-5.7 4-9.1 4-4.1 0-8.2-.1-12.4 0-4.3.1-8.6.4-12.9.4-1.8 0-3.6-.1-5.4-.2-1.7-.1-3.3-.5-4.7-1.7-3-2.7-2.5-7.7-2.3-11.3.1-1.9.3-3.9.4-5.8.1-2.2 0-4.4-.1-6.6 0-4.2-.4-8.4-.2-12.6.1-1.9.1-3.8 0-5.6 0-1.1.1-2.4 1.1-3.1.8-.6 2.1-.4 3-.3 1.7.1 3.5 0 5.2 0 4.3.1 8.7 0 13-.1v2.7c-1.1 0-2.7.1-2.7 1.2h-.3c-1 .1-2 .3-3 .5-1.4.2-3.6.5-4.5 1.7 0 0 0 .1.1.1v.1c0 .3.1.6.5.8 0 0 .1 0 .1.1.8.4 2.1.6 2.5.7 1.1.2 2.2.1 3.3.1h3.5-.6c-1.5.1-3 .4-4.4.8-.3.1-.6.2-1 .2-.5.1-3.8 1-3.1 2.1l.1.1c0 .1.1.1.2 0 .4.6 1.9.9 2.4 1 1.2.3 2.3.5 3.5.5-.9.6-1.6 1.4-2.4 2.1-.6.5-1.5 1.2-1.7 2-.3.5-.2 1.3.4 1.5.1 0 .1 0 .2.1-5.5 2.2-8.4 9.2-7.3 14.8.7 3.2 2.9 6.2 5.4 8.2 2.6 2 6.7 2.8 9.8 2.9 6.5.3 13.5-3.5 15.2-10 1.7-6.4-1.1-12.7-6.9-15.8-.1-.1-.3-.1-.4-.2.6-.1 1.1-.5 1.1-1.4 0-.3-.1-.4-.3-.6-.4-.6-1.3-1-1.8-1.3-1.1-.6-1.7-1.8-2.8-2.4 1-.2 1.9-.4 2.9-.7.8-.3 3.6-1.1 3.2-2.4-.3-.8-1.8-1-2.4-1.1-1.7-.4-3.5-.5-5.3-.5 1-.1 2.1-.2 3.1-.3 1.4-.2 2.8-.4 4.1-1 .6-.3.9-.8.6-1.4-.3-.6-1.3-.7-1.9-.8-1.6-.2-3.2-.4-4.8-.5h-.5c-.2-1.2-1.3-1.3-2.4-1.2 0-.9-.1-1.7-.2-2.6H32c3.4.1 6.8 0 10.3-.1 1.5 0 2.9 0 4.4.1 1.1 0 2.3.2 2.9 1 .4.5.3 1.3.3 1.9 0 3.1.3 6.2.3 9.3.1 3.4.2 6.8.3 10.1 0 1.8.1 3.6 0 5.4-.1.8-.1 1.6 0 2.4v.6c-.1 1.7 0 3.5.1 5.2 0 1.1.1 2.3.1 3.4 0 1.3-.3 2.3-.6 3.5z"/><path d="M43.5 14.6c-.1 0-.2.1-.3.2l-.5.5c-.2.2-.5.4-.7.5-.2.1-.3.2-.4.3 0 .1 0 .1.1.1.4 0 .8-.5 1.1-.7.2-.2.7-.6.7-.9zm1 3.1c-.9.1-1.6.8-2.5 1-.2.1-.1.3.1.3.9-.2 1.6-.9 2.5-1.1.1 0 .1-.2-.1-.2zm.5 4.7l-1.2-.6c-.4-.2-.8-.4-1.2-.4-.1 0-.2.2-.1.2.8.2 1.5.7 2.3 1 .2.2.4-.1.2-.2zm-31.4-5c-.4-.4-.7-.7-1.1-1-.3-.3-.7-.6-1.1-.8-.1 0-.1 0-.1.1.2.4.6.6.9.9.4.3.7.7 1.1 1 .2.2.4 0 .3-.2zm-1.3 2.5c-.3-.2-.7-.2-1.1-.2-.5 0-1-.1-1.4.1v.1c.4.1.8.1 1.2.1.4 0 .8.2 1.2.1.2 0 .2-.1.1-.2zm-.7 3.2c-.9.2-1.7.8-2.5 1.3-.1.1 0 .2.1.2.8-.4 1.5-1 2.4-1.2.2 0 .2-.3 0-.3z"/></g><g fill="#443323"><path d="M52.6 8.9c.1-2.6.5-6.2-2-7.9-2.2-1.4-5.7-.9-8.1-.9-4.4.1-8.7.2-13.1.4-3.7.1-7.4-.1-11.1 0-3.4.1-6.8.3-10.2.2C5.7.6 2.8.5 1.2 2.5.2 3.7-.1 5.4 0 6.9v.7c.1 2 .2 4 .2 6l.3 12.7c0 4.2-.2 8.4-.3 12.6-.1 3.4-.5 7.2 1.1 10.3 2.2 4.5 8.6 4.1 12.8 3.8 7.5-.4 15 .3 22.5-.5.3 0 .5-.1.8-.1h.1c3.4.1 6.8.3 10-.9 2.7-1 4.3-3.6 4.8-6.3.3-1.7.1-3.4.1-5.1 0-2.2-.1-4.5-.2-6.7-.1-4.3.1-8.5.2-12.8 0-1.9.2-3.9.2-5.8.1-1.8-.1-3.8 0-5.9zm-.5 0c-.1 2 .1 4.1 0 6.1 0 1.9-.2 3.9-.2 5.8-.1 2.2.1 4.4-.1 6.6-.3 4.3-.1 8.6 0 12.9.1 3.9.2 8.1-3.5 10.4-2.7 1.7-6.4 1.6-9.6 1.5 0 0-.1 0-.1-.1-1.3-.4-2.9.1-4.3.1-2 .1-4.1.1-6.1.1-3.9 0-7.8-.1-11.7.1-4.5.4-11.2 1.7-14.4-2.5C-.1 47 .5 42.4.6 39c.1-4 .3-8.1.3-12.1 0-4.1-.1-8.1-.2-12.2C.7 12.8.6 10.9.5 9c0-.3 0-.6-.1-.9V8c0-.1 0-.3-.1-.4 0-.6-.1-1.3 0-1.9.1-.9.3-1.6.7-2.2.9-1.9 2.9-2.3 4.9-2.4 1.7-.1 3.5 0 5.2.1 2.1 0 4.1-.2 6.1-.3 4.2-.2 8.4.1 12.6 0C34.2.8 38.5.6 42.9.5c2.8 0 7.4-.7 8.7 2.5.8 1.8.6 4.1.5 5.9z"/><path d="M45.4 43.4c-.1 0-.1.1-.1.2-.7.4-1.1 1.3-1.1 2.1.1 1.5 1.7 2 2.9 1.6 2.6-.9.8-5.7-1.7-3.9zm1.9 3.5c-1.1.7-2.7-.1-2.7-1.3-.1-1.2.9-1.9 1.9-2.1.6 0 1.1.2 1.5.9.3.8.1 2-.7 2.5z"/><path d="M47.1 45.1c-.1-.2-.2-.5-.5-.6-.2-.1-.6-.1-.8.1-.2.1-.4.4-.4.7-.1.6.4 1 .9 1 .6 0 .9-.6.8-1.2zm-.7.8c-.7.1-.8-.9-.2-1.1h.2c.2 0 .3.2.3.4.1.3 0 .7-.3.7zM46.8 6c-.1-.4-.8-.8-1.1-.4-.2.1-.3.3-.3.5 0 .5.4.9.9.8.4 0 .7-.5.5-.9zm-.6.6c-.5.1-.7-.6-.3-.8.2 0 .4 0 .5.2.1.3 0 .5-.2.6zM8.4 6.1c-.3-1.2-1.5-2-2.6-1.6-1.8.3-1.8 4.2.4 4.4 1.6.1 2.5-1.4 2.2-2.8zM6 8.4c-1.4-.2-1.5-2.3-.6-3.2h.1C6 5 6.5 4.8 7 5c.6.1 1 .6 1.2 1.2.4 1.3-.9 2.5-2.2 2.2z"/><path d="M7.1 6.1c-.1-.2-.2-.3-.5-.4-.2 0-.5.1-.6.3-.2.2-.3.6-.3.9 0 .6.8.9 1.3.5.4-.2.3-.8.1-1.3zm-.3 1.1c-.2.2-.7.1-.7-.3s.2-.7.6-.8h.1c.1 0 .1.1.2.1 0 .3.1.7-.2 1zm3.3 37.9c-.3-1-1.3-1.9-2.3-1.3-.9.3-1.5 1.1-1.5 2-.1 1.3 1 2 2.2 1.9 1.3-.3 1.9-1.3 1.6-2.6zm-1.9 2.2c-1 .1-1.7-.7-1.6-1.7.1-.6.5-1.1.9-1.4.9-.3 1.9-.2 2.3.9.4 1.2-.5 2.1-1.6 2.2z"/><path d="M9.2 45.6c-.1-.3-.3-.5-.5-.7-.2-.1-.7-.4-.9 0-.5.3-.4 1.4.3 1.7.5.2 1.2-.4 1.1-1zm-1.1.7c-.5-.1-.5-1-.1-1.2.1 0 .2 0 .3.1.2.1.3.2.4.4.2.4-.2.8-.6.7zM45.5 4.2c-1 .2-1.7 1.2-1.5 2.3.2 1.5 1.7 2.3 3.1 1.9 2.7-.8.5-5.6-1.6-4.2zm1.6 3.7c-1.1.6-2.5-.1-2.9-1.3-.3-1 .2-1.9 1.1-2.2h.1c1.1-.2 1.9-.1 2.4 1 .3 1 .2 2.1-.7 2.5zM18.9 34.7c-1.8.6-2.4 5.1-1 6.3v.1c.1.2.4.1.3-.1-.8-2 .9-3.6 1.6-5.3.5-.9 0-1.3-.9-1zm.7 1.3c-.8 1.5-2.1 2.9-1.7 4.6-.7-.8-.5-2.3-.3-3.3.1-.5.3-1 .5-1.5.1-.3.3-.5.5-.7h.1c.2-.2.5-.4.9-.3.1 0 .2.1.3.2 0 .4-.1.7-.3 1zm.3-12.3c-.6-.6-1.8.3-2.2.6-1.1.7-1.9 1.9-2.6 3-1.5 2.4-2.6 5.5-2 8.4 0 .2.1.4.1.5 0 .1.1.2.1.3.1.2.4.1.3-.1l-.3-1.2c.1-.8.3-1.9.3-2.1.2-1.4.8-2.6 1.5-3.8 1-1.6 2.3-2.7 3.8-3.9.3-.3 1.5-1.2 1-1.7zm-.2.6c-.1.1-.3.2-.4.3 0 .1-.1.1-.2.2 0 0-.1 0-.1.1h-.1c-.3.2-.6.5-.9.7-.7.5-1.3 1.1-1.9 1.7-1.4 1.6-2.5 3.5-2.8 5.7 0 .1-.1.4-.1.7.1-2.3 1.1-4.6 2.3-6.5.9-1.4 2.1-2.6 3.6-3.2.1 0 .2-.1.3-.1.3-.1.5.2.3.4z"/><path d="M50.5 40.3c-.1-2.3 0-4.7-.1-7v-8l-.3-10.6c-.1-1.9-.2-3.7-.3-5.6-.1-1.3.2-2.7-.1-4-.5-2.2-3.1-2.2-4.9-2.2-3.8-.2-7.5.1-11.1 0-6.9-.1-13.8 0-20.7.2-2-.1-3.9.1-5.8 0-1.3-.1-2.7-.2-3.8.6-.9.6-1 1.9-1 2.8-.1 2 .1 4 0 6-.1 4.2.2 8.4.3 12.6 0 2 .1 4.1.1 6.1 0 2.1-.3 4.2-.4 6.4-.2 3.3-.5 7 1.2 10C4.9 50 7.2 50.8 9.8 51c8.3.6 16.6-.3 24.8-.4 4.9 0 14.2 1.5 15.6-5 .6-1.6.3-3.9.3-5.3zm-23.8-37v2.6c-.4.1-.7.1-1 .1h-.4V3.3h1.4zm-.2 7.7h-1.1c0-1.2 0-2.4-.1-3.6h1.4v3.5c-.1.1-.2.1-.2.1zm.1.6V16h-1.2v-4.4h1.2zm-1.3-4.5v-.8h.4c.3 0 .6-.1 1-.1V7c-.5.1-.9.1-1.4.1zm0 9.2h1.5c1.1 0 2.1-.1 3.1-.2-.1.3-.1.7 0 1.1-2.5.3-5.2.1-7.7.1v-1h3.1c-.1 0 0 0 0 0zm7.5-2.7c-.7-.6-1.3-.4-2 .2-.1.1-.5-.4-.7-.4-.4-.1-.6 0-.9.1-.2.1-.3.3-.3.4-.1-.3-.5-.4-.8-.5-.5-.1-.9.1-1.2.4 0-.7 0-1.5.1-2.2h1.9c2.3.2 7.6.7 7.1 1.8-.6 1.1-2.8 1.6-3.9 1.9-1.7.5-3.4.7-5.1.7v-1.6c.2-.9 1.4-1 1.9-.1.1.1.2.1.3 0 .7-.7 1.3-.7 1.6 0 .1.1.2.1.3 0 .4-.7 1-.8 1.7-.4-.1.1.2-.2 0-.3zm-5.7-3.9c.3-.6 1.6-1.2 1.9-.1 0 .1.2.1.3 0 .4-1.2 1.6-.8 2 0 0 .1.2.1.2 0 .5-.6 1.1-.7 1.9-.4.2.1.3-.2.2-.3-.3-.2-.7-.3-1.1-.2-.2 0-1.1.5-1.1.4-.5-.5-1.4-.9-2-.3-.2.2-.3.4-.3.4-.2-.3-.4-.4-.7-.5-.5-.1-1 .1-1.3.5V7.4h.6c.3 0 .7 0 1 .1h1.2c.1 0 .3 0 .4.1h.7c1.2.1 2.3.3 3.5.5.5.1 1 .1 1.5.3 1.5.7-1 1.6-1.2 1.6-2.4.8-5.2 1-7.7 1-.1-.5 0-.9 0-1.3zM27 6.2c.9-.1 1.9 0 2.1.9H27c.1-.3.1-.6 0-.9zm-2.2 17.5c-1.7.3-3.6.9-3.8 2.8-.5 0-1-.1-1.5 0-.1 0-.1 0-.1.1 0 1.8 0 3.6.1 5.4v.1c-.6.7-1.2 1.2-1.7 1.9-.6.8-.9 1.6-1.3 2.5-.6 1.4-.5 3.5.1 4.9 1.7 4 6 5.3 10.1 5.2 3.6-.1 7.2-1.8 8.9-5.1 1.7-3.3 0-7.4-2.4-9.9-.1-1.1-.2-2.1-.1-3.2 0-.5.2-1.2 0-1.7v-.6c0-.1-.1-.1-.2-.1h-.1c-.4 0-.8.1-1.2.1-.5-1.7-1.7-2.4-3.2-2.6.8-.3 1.4-.8 1.7-1.7h3.4s0 .1.1.1c2.6 1.2 4.7 2.8 6.3 5.3 1.7 2.8 2.1 6.3 1.5 9.5-1.3 6.6-7.9 10.5-14.2 10.7-3.2.1-7.2-.8-10-2.4-2.7-1.6-4.7-4.8-5.7-7.7-1.9-5.6 1.5-13 7-15.3 0 0 .1 0 .1-.1.5.1 1 0 1.5 0 .8 0 1.7 0 2.6.1-.1 1.2 1 1.5 2.1 1.7zm7.9 7.7h-1.2c-.6 0-1.2 0-1.8.1h-.1c-1.2.1-2.5.1-3.8 0-1.1 0-2.3.1-3.4.1-.9 0-1.8 0-2.6.2-.3-1.7-.1-3.4-.1-5.1 1.1 0 2.2.2 3.3.1 1.4 0 2.8-.1 4.2-.2 1.2-.1 2.5-.1 3.7-.1h1.6c.2 0 .2.6.2.7-.2 1.4-.2 2.9 0 4.2zm-6.8 2.8v1.2h-.3c-.4 0-.9.1-1.3.3-.3-.1-.5-.2-.7-.3-.2-.1-.3-.2-.3-.3-.2-.1-.3-.2-.3-.4s0-.4.1-.5c.1-.2.4-.4.6-.4l.2-.2c.5.3 1.3.4 2 .6zm-1.7-.7c.5-.2 1.1-.2 1.7-.2v.7c-.2 0-.4-.1-.6-.1-.3-.1-.6-.1-.9-.2-.1-.1-.1-.2-.2-.2zm1.8 2v.6c-.5-.1-.9-.2-1.4-.4.4-.1.9-.2 1.4-.2zm-.1.8s.1.1 0 0c.1.4.1.7.1 1-.6 0-1.3.1-1.8.3-.7-.4-1.3-.9-.3-1.6.1-.1.3-.1.4-.2.6.3 1.3.5 1.6.5zm.1 1.3v.5c-.3 0-.6-.1-.9-.2-.1 0-.2-.1-.4-.1.1 0 .2-.1.3-.1.3 0 .6-.1 1-.1zm-1.6.3c.4.2 1 .3 1.6.4v.9c-.6.1-1.1.3-1.5.5-.1 0-.2.1-.2.1l-.6-.3c-1.2-.6-.1-1.2.7-1.6zm1.6 1.6v.7c-.3 0-.6-.1-.8-.1-.2-.1-.4-.1-.6-.1.3-.1.6-.3.7-.3.2-.1.5-.1.7-.2zm-1.7.6c.5.1 1.1.2 1.7.3v.9c-.1 0-.1 0-.2.1-.1 0-.3.1-.5.2-.3-.1-.5-.2-.8-.3-1.1-.4-.7-.9-.2-1.2zm1.7 1.4v.4c-.2 0-.4-.1-.5-.2.2-.1.3-.1.5-.2zm.1.6v.4c0 1.5-2.2.6-1.4-.3.1-.1.3-.2.5-.3.3.1.6.1.9.2zm-.2-9.1c-.6 0-1.2.1-1.8.3h-.3c-.1-.1-.3-.2-.4-.3-.1-.1-.1-.3 0-.4l.2-.2c.1-.2.3-.3.4-.4.1-.1.2-.2.3-.2H26c0 .4-.1.8-.1 1.2zm-2.3.5s-.1 0-.1.1c-1.5.8-.5 1.6.6 2.2-.8.3-1.4.9-.6 1.8.1.1.2.1.4.2-.3.1-.5.3-.7.5-.7.8-.2 1.4.8 1.7-.7.5-.6 1.1.5 1.6.2.1.4.1.6.2-.7.5-1.2 1.2-.2 1.7 1.2.6 1.5-.3 1.5-1.3.7.1 1.4.2 2 .1.3 0 .5-.1.8-.2.1 0 .2-.1.2-.2 0 0 .1 0 .1-.1.1 0 .1-.1 0-.2 0-.1-.1-.1-.1-.2s-.1-.1-.1-.1c-.7-.7-2-.5-3-.2v-.8c.9.1 1.6.1 1.9 0 .6 0 1.7-.5.8-1.1-.7-.4-1.7-.4-2.7-.2v-.8c1.7.3 3.5.4 3.5-.4s-2.2-.8-2.7-.8h-.8v-.9c1 .1 4 .4 3.8-.7-.2-.9-2.6-.6-3.8-.4v-1.1c2.1.3 4.5.1 4-.8-.4-.6-2.2-.5-2.7-.5h-1.3c0-.4 0-.8.1-1.1 1.1-.1 2.3 0 3.4-.1 1.9.6 1.6 2.4 1.6 4 0 2 .5 4.3-.2 6.2-.9 1.8-2.5 2.9-4.8 2.9-1.9 0-4-1.2-4.7-3-.6-1.7-.4-3.7-.4-5.4 0-1.5-.3-3.7 1.4-4.5h1.1c-1.1.9-1 1.5-.2 1.9zm5.3.4c-.3 0-.7.1-1 .1-.6 0-1.1 0-1.7-.1v-.7h.8c.9 0 1.7 0 2.6.2.7.2-1 .5-.7.5zm-2.7 3.7c.8-.1 1.6 0 2.4.1.1 0 .2.1.2.1.3 0 .3.5 0 .5h-1.4c-.4 0-.8-.1-1.1-.1h-.1v-.6zm0 1.9c.3 0 .5-.1.8-.1h.8c.2 0 .4 0 .7.1.1 0 .2 0 .2.1.1 0 .2 0 .2.1.1.1 0 .3-.1.4l-.1.1s0 .1-.1.1c-.1.1-.3.1-.4.1-.6 0-1.3 0-1.9-.1-.1-.3-.1-.6-.1-.8zm.1 1.9c.4-.1.8-.2 1.1-.2.2 0 1 .1 1.5.2.2.1.4.3 0 .4-.3.2-.7.2-1 .2-.5 0-1.1-.2-1.6-.2v-.4zm-.1-5.3v-.6h.5c.5 0 1-.1 1.5 0 .3 0 .6 0 .8.1.4.1.6.5.1.6-.9.1-1.9.1-2.9-.1zm-5.4-.3c0 2.3-.3 5 .8 7.1 2 3.5 8.9 2.8 9.8-1.2.7-2.1.2-4.8.1-6.8-.1-1.4-.2-2.6-1.4-3.1.8 0 1.7.2 2.5.1 2.6 2.6 4.1 6.5 2.3 9.9-1.6 3-5.2 4.4-8.4 4.6-3.8.2-8-1.1-9.7-4.7-.8-1.6-.8-3.7-.1-5.3.6-1.6 1.7-2.8 2.7-4.1.1 0 .2 0 .2-.1.8-.2 1.6-.2 2.4-.3-1.2.7-1.2 2.5-1.2 3.9zm5.3-9.4c-1.2.1-2.4.2-3.6.2-.4 0-.9 0-1.3-.1.6-2 2.6-2.4 4.4-2.6 2.2-.2 4.8-.2 5.5 2.3-1.6.1-3.3.1-5 .2zm0-2.9c-1.2 0-2.9-.1-3.2-1.5h1.3c1.8-.1 3.6-.1 5.4-.2-.4 1.6-2 1.7-3.5 1.7zm7.8-2.2c-.1 0-.3.1-.4.1-.2 0-.4 0-.6.1h-3.3c-1.8 0-3.6.1-5.4.2-1.5.1-3.1-.2-4.6-.1-.6 0-2.2 0-1.7-1.1.1-.5 1.1-.5 1.5-.6.8-.1 1.6 0 2.4.1 1.5.1 2.9-.1 4.4-.1h.1c1.1 0 2.3.1 3.4.1h.5c1.3-.1 2.6-.2 3.9 0h.2c.3.1.6.4.5.8-.1.2-.5.4-.9.5.1 0 0 0 0 0zM22.1 18v-.5c2.6.1 5.2.3 7.8 0v.8c-1-.3-2.5 0-3.4 0-1.4.1-2.9-.1-4.4.1V18zm7.9 1.5h-1.8c-1.2 0-2.5-.2-3.7 0h-2.2c0-.3-.1-.6-.1-.9 1.4-.2 2.9 0 4.3 0 1 0 2.4-.3 3.4 0 .1.4.1.6.1.9zm-8.2-1.3c0 .4-.1 1 .1 1.4h-1.1c-.7 0-1.9-.1-2.7.2 1-1.4 2.5-2.4 3.8-3.5 0 .6 0 1.2-.1 1.9zm10.4 1.3h-1.9c0-.7 0-1.3-.1-2v-.2c0-.4 0-.7-.1-1.1.9.7 1.5 1.6 2.4 2.3.4.3.9.5 1.3.8.1.1.2.2.3.2-.6-.1-1.5 0-1.9 0zM25.1 16h-1.2c-1.3 0-2.6 0-4-.2-.4-.1-4.5-.9-3.8-1.8.4-.5 1.1-.8 1.9-1.1.6-.2 1.2-.4 1.4-.4 1.6-.4 3.1-.7 4.7-.8h1v2.1c-.1-.1-.3-.2-.6-.1s-.5.3-.7.5c.1-.1-.6-.5-.7-.5-.3-.1-.7-.2-1.1 0-.4.2-.4.5-.7.1-.6-.6-1.6-.2-2 .4-.1.1.1.3.2.1.6-.7 1.2-.7 1.8 0 .1.1.2.1.2 0 .7-.9 1.6-.4 2.1.2.1.1.2 0 .2-.1.4-.7.8-.8 1.1-.1.2.6.2 1.1.2 1.7zm-2.5-8.3l2.4-.3v1.8c-.5-.6-1.5-.6-1.9.1-.4-.6-1.3-.7-1.8-.1-.5.5-.1.2-.9 0-.6-.1-1-.1-1.5.3-.1.1.1.3.2.2.7-.4 1.3-.3 1.8.2.1.1.2 0 .3-.1.2-.6 1.4-1.2 1.8-.2 0 .1.2.1.3 0 .3-1 1.4-.8 1.8 0v1.2c-2.1.1-4.3.1-6.4.1-.4 0-2.9-.4-3.6-1-.6-1.4 3.6-1.9 4.2-1.9.2 0 .4 0 .6-.1.1.1.1.1.2.1.8-.2 1.7-.2 2.5-.3zm0-.5c.2-.8 1.5-.9 2.5-.9v.8c-.3 0-.7 0-1 .1h-1.5zm26.9 39c-1.3 3.4-5.7 4-9.1 4-4.1 0-8.2-.1-12.4 0-4.3.1-8.6.4-12.9.4-1.8 0-3.6-.1-5.4-.2-1.8 0-3.4-.4-4.7-1.6-3-2.7-2.5-7.7-2.3-11.3.1-1.9.3-3.9.4-5.8.1-2.2 0-4.4-.1-6.6-.1-4.2-.4-8.4-.3-12.6.1-1.9.1-3.8 0-5.6 0-1.1.1-2.4 1.1-3.1.8-.6 2.1-.4 3-.3 1.7.1 3.5 0 5.2 0 4.3.1 8.7 0 13-.1v2.7c-1.1 0-2.7.1-2.7 1.2H22c-1 .1-2 .3-3 .5-1.4.2-3.6.5-4.5 1.7 0 0 0 .1.1.1v.1c0 .3.1.6.5.8 0 0 .1 0 .1.1.8.4 2.1.6 2.5.7 1.1.2 2.2.1 3.3.1h3.5-.6c-1.5.1-3 .4-4.4.8-.3.1-.6.2-1 .2-.5.1-3.8 1-3.1 2.1l.1.1c0 .1.1.1.2 0 .4.6 1.9.9 2.4 1 1.2.3 2.3.5 3.5.5-.9.6-1.6 1.4-2.4 2.1-.6.5-1.5 1.2-1.7 2-.3.5-.2 1.3.4 1.5.1 0 .1 0 .2.1-5.5 2.2-8.4 9.2-7.3 14.8.7 3.2 2.9 6.2 5.4 8.2 2.6 2 6.7 2.8 9.8 2.9 6.5.3 13.5-3.5 15.2-10 1.7-6.4-1.1-12.7-6.9-15.8-.1-.1-.3-.1-.4-.2.6-.1 1.1-.5 1.1-1.4 0-.3-.1-.4-.3-.6-.4-.6-1.3-1-1.8-1.3-1.1-.6-1.7-1.8-2.8-2.4 1-.2 1.9-.4 2.9-.7.8-.3 3.6-1.1 3.2-2.4-.3-.8-1.8-1-2.4-1.1-1.7-.4-3.5-.5-5.3-.5 1-.1 2.1-.2 3.1-.3 1.4-.2 2.8-.4 4.1-1 .6-.3.9-.8.6-1.4-.3-.6-1.3-.7-1.9-.8-1.6-.2-3.2-.4-4.8-.5h-.5c-.2-1.2-1.3-1.3-2.4-1.2 0-.9-.1-1.7-.2-2.6h4.8c3.4.1 6.8 0 10.3-.1 1.5 0 2.9 0 4.4.1.9.1 2.1.3 2.7 1.1.4.5.3 1.3.3 1.9 0 3.1.3 6.2.3 9.3.1 3.4.2 6.8.3 10.1 0 1.8.1 3.6 0 5.4-.1.8-.1 1.6 0 2.4v.6c-.1 1.7 0 3.5.1 5.2 0 1.1.1 2.3.1 3.4.3 1.2 0 2.2-.3 3.3z"/><path d="M42.9 14c-.1 0-.2.1-.3.2l-.5.5c-.2.2-.5.4-.7.5-.2.1-.3.2-.4.3 0 .1 0 .1.1.1.4 0 .8-.5 1.1-.7.2-.1.7-.5.7-.9zm1 3.2c-.9.1-1.6.8-2.5 1-.2.1-.1.3.1.3.9-.2 1.6-.9 2.5-1.1.1 0 .1-.2-.1-.2zm.5 4.7l-1.2-.6c-.4-.2-.8-.4-1.2-.4-.1 0-.2.2-.1.2.8.2 1.5.7 2.3 1 .2.1.3-.1.2-.2zm-31.4-5c-.4-.4-.7-.7-1.1-1-.3-.3-.7-.6-1.1-.8-.1 0-.1 0-.1.1.2.4.6.6.9.9.4.3.7.7 1.1 1 .2.2.4-.1.3-.2zm-1.3 2.5c-.3-.2-.7-.2-1.1-.2-.5 0-1-.1-1.4.1v.1c.4.1.8.1 1.2.1.4 0 .8.2 1.2.1.2-.1.2-.2.1-.2zm-.7 3.2c-.9.2-1.7.8-2.5 1.3-.1.1 0 .2.1.2.8-.4 1.5-1 2.4-1.2.2-.1.2-.3 0-.3z"/></g></svg>