<svg xmlns="http://www.w3.org/2000/svg" viewBox="0 0 51.3 52.6"><path fill="#443323" d="M51 26.5v-13c0-3.4.2-6.9 0-10.3-.1-1.9-.4-3.3-2.5-3.5-1.6-.1-3.2.1-4.8.1-1.8 0-3.7.1-5.5.2-3.5.2-7 .2-10.5.1s-7 .1-10.4 0c-3.5-.1-7 .2-10.6.1C4.8.1 1.7-.4.4 1.5c-.5.8-.6 1.9-.5 2.9-.1 3.6.2 7.2 0 10.8-.1 3.9 0 7.7.2 11.6.3 7.3-.7 14.6-.2 21.9v.1c.1 1.1.1 2.1.8 2.9.9 1 3 .3 4.1.3 4.2-.1 8.4-.3 12.6-.4 4.3-.1 8.5 0 12.8 0 4.2 0 8.4-.3 12.6-.4 1.9 0 3.7.2 5.6.1.9 0 1.6-.3 2-1.2.6-1.3.2-3.2.2-4.5-.1-2.2-.1-4.3 0-6.5.1-4.1.4-8.3.4-12.6zm-.9 16.2c0 2.3.4 4.8 0 7.1-.2 1.2-1.5 1.2-2.5 1.2-1.3 0-2.6-.1-3.9-.1-5-.1-10.1.4-15.1.4-5.1 0-10.2-.1-15.4.1-2.5.1-5 .2-7.5.2-1.1 0-2.1.1-3.2.2-1.6.2-2.1-.8-2.3-2v-.1c0-3.7-.2-7.3-.1-11 .2-3.8.4-7.6.3-11.3-.1-3.9-.4-7.7-.2-11.6.1-3 .1-5.9-.1-8.9 0 0 .1 0 .1-.1C.2 5.6.1 4.5.1 3.3.3.9 2 .5 4.1.4c2.1-.1 4.1.1 6.2.1 2.2-.1 4.3-.2 6.5-.2 4.1.1 8.3 0 12.5.1 4.2.1 8.3-.1 12.5-.3 2-.1 4-.1 6-.1.9 0 1.9 0 2.5.8.7.9.5 2.4.5 3.4.1 4.3-.1 8.6-.1 12.9 0 4.3 0 8.7.1 13-.1 4.3-.7 8.4-.7 12.6z"/><path fill="none" stroke="#443323" stroke-width=".5" stroke-miterlimit="10" d="M48.8 20c-.1-2.2-.4-4.3-.3-6.4 0-3.6 2.5-10.8-3.1-11.3-1-.1-2 .1-3 .1-1.4.1-2.8 0-4.1 0-3.6-.1-7.1-.2-10.7-.2-6.7.1-13.3.7-20-.1C5.8 2 3 1.7 2 3.5h-.1c-.4 1-.3 2-.2 3-.1 1.7-.1 3.4 0 5.1v1.2c-.1 3.8.2 7.6.1 11.4 0 3.9-.1 7.8 0 11.8.1 3.5 0 7 .1 10.5v.1c0 .2 0 .5.1.8v.5c0 .1.1.1.1.2.1.3.3.6.6.8 1.3.7 3 .8 4.5.9 4.3.4 8.6.2 12.9.3 4.2.1 8.3.1 12.5-.2 3.2-.3 6.4.1 9.7 0 1.6 0 4.4-.1 5.4-1.7.6-1 .6-2.5.6-3.6.1-2-.1-4.1.1-6.1s.5-4 .6-5.9c.1-2.2 0-4.3 0-6.5-.1-2.1 0-4.1-.2-6.1zm-7.7 29.4c-1.7 0-3.4 0-5.1-.1m11.9-9.9c-.2 2 0 4-.1 6m.8-36.5c-.2 1.9-.5 3.7-.5 5.6 0 2.2.3 4.3.4 6.4M2.1 5v-.4m0 4.1v-.8l.1-.1m1.9 40.9"/><path fill="#443323" d="M8 4.5c-.6-.9-2.2-1.6-2.8-.4-.9.5-1.3 1.6-1.1 2.7.3 1.6 2.1 1.8 3.3 1.1 1.3-.7 1.2-2.3.6-3.4zm-.6 3c-1 .8-2.6.5-3-.8-.3-1.2.6-2.6 1.8-2.8 0 0 .1 0 .1-.1h.3c.4.1.8.5 1 .9.6.9.7 2.1-.2 2.8z"/><path fill="#443323" d="M6.8 5.3c-.3-.5-1.1-.5-1.3 0-.2.2-.4.5-.3.7.1.6.7.8 1.2.6.5-.2.8-.8.4-1.3zm-.6 1c-.3.2-.8-.1-.7-.4.1-.3.4-.4.6-.6.2 0 .3.1.4.2.2.3 0 .7-.3.8zm41.1-.8c-.4-1.2-1.9-2-3-1.5-2.1.5-1.8 4.5.8 4.4 1.6-.1 2.7-1.4 2.2-2.9zM45 8c-1.9.1-2.2-2.6-.9-3.5 1.2-.2 2.2-.2 2.8 1 .6 1.3-.6 2.4-1.9 2.5z"/><path fill="#443323" d="M46.2 5.2c-.3-.3-.7-.4-1.1-.3-.4.2-.7.5-1 .9 0 .1 0 .1.1.1l.1-.1c0 .1-.1.3 0 .4.1.7.8 1.1 1.4.8.7-.2 1.1-1.2.5-1.8zm-.6 1.6c-.4.3-.8-.1-.9-.5-.1-.3 0-.5.2-.7.3-.2.5-.4.8-.2.6.3.3 1.1-.1 1.4zm.6 36.9c-.5-1-2.4-2.2-3.2-1v.1c-1 .7-1.5 1.8-1.2 3 .4 1.6 2.5 2.1 3.8 1.3 1.1-.6 1.1-2.3.6-3.4zm-.8 3c-1 .9-3 .3-3.4-.8-.5-1.2.5-2.5 1.6-3.1 1.9-.6 3.2 2.5 1.8 3.9z"/><path fill="#443323" d="M44.6 44.1c-.3-.4-1.3-.4-1.4.2 0 0 0 .1-.1.1-.3.4-.3.9 0 1.3.4.5 1.3.7 1.6 0 .4-.5.2-1.2-.1-1.6zm-.1 1.3c-.1.4-.4.5-.8.3s-.6-.5-.5-.9c.1-.3.3-.6.6-.7.1 0 .2 0 .3.2.4.3.5.7.4 1.1zm-35.6-.8c-.2-1.2-1.6-2.6-2.8-2-2.1.2-2.6 4.9.3 5 1.7.1 2.7-1.4 2.5-3zm-2.5 2.6c-2.2 0-2.1-3.3-.7-4.1.6 0 1.1-.2 1.7.1.6.3.9.9 1 1.4.5 1.4-.6 2.6-2 2.6z"/><path fill="#443323" d="M7.4 44.4c-.1-.2-.3-.4-.6-.5-.2 0-.5 0-.7.1-.4.2-.6.7-.5 1.1.1.7.7 1 1.3.7.6-.2.7-.9.5-1.4zm-.5 1c-.3.3-.8 0-.8-.3 0-.2 0-.4.1-.5 0-.1.1-.1.2-.2.3 0 .5-.2.7.1.1.3 0 .7-.2.9z"/><g fill-rule="evenodd" clip-rule="evenodd" fill="#443323"><path d="M25 30.2c.2-.5.3-1 .4-1.5v-.4c-.2-1.2-.3-2.4-.7-3.6-.5-1.7-1.4-3.2-2.4-4.6-.9-1.1-1.9-2.1-3.2-2.8-.2-.1-.4-.2-.5-.1-.7 0-1.3.2-1.8.8-.2.2-.3.4-.3.6 0 .2-.1.5 0 .7.1 1 .3 2 1.1 2.6.3.3.6.6.9.8.4.3.7.8.9 1.2.4 1 .6 2 .6 3 0 .7.1 1.3.2 1.9.2.9.7 1.6 1.6 2 .5.2 1 .3 1.5.1.4-.2.8-.3 1.2-.5.2.1.4 0 .5-.2zm-1.1.1c-.1 0-.2.1-.3.1-1 .6-1.8.2-2.4-.7-.2-.3-.3-.7-.4-1-.1-.4-.2-.8-.1-1.1.1-.9-.2-1.8-.3-2.6-.2-1-.6-1.9-1.5-2.5l-.6-.6c-.8-.5-1-1.3-1.1-2.2V19c.1-.6.4-.9 1-1 .4-.1.8 0 1.2.3.8.5 1.3 1 2.1 2 0 .4-.4.5-.5.8-.2.3-.5.5-.7.7v.2c.1.1.2.1.2.1.2-.2.5-.3.7-.5.2-.2.3-.4.4-.5.1-.1.3-.1.4-.1.2.1.2.3.1.5-.2.4-.4.7-.8.9-.1.1-.2.1-.3.3 0 0 0 .2.1.2 0 0 .1.1.1 0 .3-.2.6-.3.8-.5.2-.1.3-.3.5-.5.6.2.7.7.8 1.2 0 0 .1 0 .1.1.1.2.2.5.3.7-.4.6-1 .9-1.7.8l-.1.1c0 .1.1.2.1.2.2.1.3.2.5.1.3-.1.5-.2.8-.3.2-.1.3-.1.6-.2.5 1.2.7 2.4.8 3.6 0 .4-.1.7-.1 1.1-.1.4-.3.8-.7 1zm13-9.5c-.3-.6-.7-1-1.3-1.3-.4-.2-.8-.4-1.3-.6-.1-.1-.3-.1-.4-.1-.7 0-1.4-.3-2.1 0-.3.1-.6.1-.8.1-.3.3-.6.5-.9.7-.2.2-.5.4-.7.7-.5.8-1 1.7-1.1 2.7-.1.8 0 1.6.2 2.4.2.5.4.8.8 1.2.4.3.8.6 1.3.8 1.2.4 2.4.3 3.6.2.2 0 .5-.1.7-.2 1.8-.8 2.8-2.3 2.6-4.4.2-.9-.2-1.5-.6-2.2zm-.4 4.8c-.1.2-.2.3-.4.4-.1.1-.3.2-.5.3-.8.5-1.6.8-2.5.7-1 .1-2-.2-2.9-.6-.4-.2-.7-.6-.9-1-.5-1.1-.4-2.2 0-3.3.2-.5.4-.9.7-1.4.5-.9 1.3-1.3 2.3-1.4 1.3-.2 2.3.3 3.3.9.2.1.4.3.5.5.4.6.7 1.2.9 1.9.3 1.1.1 2.1-.5 3zm-21.8-2.7c.1-.1.2-.3.3-.5.4-1.1-.2-1.9-1.3-1.9h-.2c-.4-.1-.8 0-1.2.3-.1.1-.2.3-.3.4-.1.1-.1.3-.1.4-.1.6.2 1.1.6 1.4.6.5 1.8.3 2.2-.1zm-2.2-.7c-.1-.3 0-.6.1-.8 0-.1.1-.1.2-.2.3-.1.5-.2.8-.2.4-.1.7.2.8.6.1.6-.2 1-.8 1.1h-.4c-.2.1-.6-.2-.7-.5zm13 13.6c-.5 0-.9.4-1 .9 0 .2 0 .4-.1.6 0 .2.1.3.1.5.2.6 1.1.9 1.7.6.4-.3.9-.6 1.1-1 .1-.3.1-.6-.1-.8-.5-.6-1-.9-1.7-.8zm.2 2c-.1 0-.3 0-.4-.1-.1 0-.1-.1-.2-.2-.3-.5.1-1.2.7-1.3.3 0 .8.3.9.6v.2c-.2.4-.5.7-1 .8zM15.5 27.2c.3-.2.5-.6.4-1.2 0-.1 0-.4-.2-.6-.4-.6-1.1-.7-1.8-.6h-.1c-.9.4-1.2 1.4-.7 2.1l.3.3c.4.5 1 .6 1.5.4.3-.2.5-.3.6-.4zm-1.3-.1c-.1 0-.3-.1-.4-.2-.3-.4-.3-.9 0-1.3.3-.3.6-.3.9-.2.3.1.5.2.6.6.1.3.1.7-.3.9-.2 0-.4.2-.8.2zm4.5 3.6c-.3-.2-.7-.2-1 .1-.1.1-.2.3-.4.4-.4.4-.5.9-.3 1.4.3.7 1 1 1.6.6.3-.2.6-.4.9-.7.1-.1.2-.3.2-.5-.1-.2-.1-.4-.2-.6-.2-.2-.5-.5-.8-.7zm.2 1.7c-.2.1-.4.3-.6.4-.2.1-.5 0-.6-.2-.1-.2-.1-.4-.1-.5 0-.2.1-.4.3-.5.2-.1.5-.2.8-.3l.3.3c.1.4.1.6-.1.8zm11.6.4c-.2-.1-.4-.1-.4-.1-1 0-1.6.4-1.9 1.3v.5c.4.6 1 1 1.8.7.6-.2.9-.6 1-1.2v-.3c0-.5-.1-.8-.5-.9zm-.9 1.9c-.2 0-.5 0-.6-.2-.1-.2-.2-.3-.1-.5.1-.3.3-.6.7-.6.2 0 .4-.1.6-.1.1.1.2.2.2.3 0 .5-.3.9-.8 1.1zm-12.9-5.9l-.6-.3c-.8-.4-1-.4-1.4.5-.1.3-.2.5-.2.8 0 .4.3.8.7 1 .2.1.4.1.5.1.3-.1.5-.1.7-.2.4-.2.6-.4.7-.8.1-.5 0-.9-.4-1.1zm-.9 1.3c-.3 0-.6-.2-.6-.4-.1-.4.2-.8.5-.8.4 0 .8.3.8.6.1.4-.2.6-.7.6zm18.1.1c-.1-.1-.3-.2-.4-.3-.5.1-.9.1-1.3.2-.2 0-.3.2-.4.4-.3 1.1-.3 1.4.8 1.8.3.1.5.1.8 0 .1-.1.2-.1.4-.2.4-.2.6-.9.5-1.2-.1-.3-.2-.5-.4-.7zm-1 1.6c-.3 0-.4-.2-.5-.4-.1-.3 0-.6.3-.7.1-.1.2-.1.4-.2.4-.2.8 0 .8.5-.1.5-.5.9-1 .8zm-11.2 2c-.4-.2-.8-.2-1.2.2l-.3.3c-.5.5-.2 1.5.4 1.6.2.1.4.1.5.2.4.1.7-.1.9-.5.1-.2.1-.4.1-.5v-.6c.1-.3-.1-.6-.4-.7zm-.1 1.4c-.1.2-.3.3-.6.3-.3-.1-.4-.3-.3-.5.1-.2.1-.3.2-.5 0-.1.2-.1.3-.1.1.1.2.1.3.2.2.1.2.4.1.6z"/><path d="M42 20.3c-.1-.2-.1-.5-.1-.7 0-.2 0-.4-.1-.5-.2-.6-.5-1.1-.8-1.7-.1-.2-.3-.4-.4-.5-1.7-1.3-3.6-2.1-5.7-2-.3 0-.7.1-1 0-.6 0-1.1.1-1.7.1-.9.1-1.7.5-2.5.8-1.2.5-2.2 1.2-3 2.2-.3.4-.6.8-.9 1.3-.1.1-.1.2-.2.3-.1.1-.2.1-.2.1-.1 0-.2-.1-.2-.2-.5-1.6-1.6-2.9-2.7-4.1-.2-.2-.4-.3-.6-.4-.6-.3-1.2-.5-1.8-.7-.5-.2-1-.2-1.5-.3H18c-.2 0-.5.1-.7.2-.7.1-1.3.3-1.9.5-.6.2-1.2.4-1.8.8-.1.1-.3.1-.4.2-1 .6-1.9 1.1-2.6 2.1-.7.9-1.4 1.8-1.5 3-.4 1-.5 2.1-.4 3.4-.1.6.1 1.5.3 2.3.1.4.2.7.4 1 .4.6.8 1.2 1.3 1.8.2.3.5.6.6.9.2.4.4.8.8 1.1l1.5 1.2c.2.2.5.3.6.5.7.8 1.5 1.4 2.3 2.1.5.4 1.1.8 1.5 1.2.5.5 1 1 1.4 1.6l.4.4c.4.5 1 .9 1.6 1.1 1 .4 2 .7 3 1.3 0 0 .1 0 .1.1.3.2.7.1.9-.1.5-.4 1.1-.8 1.5-1.3 1.5-1.4 3.1-2.6 4.7-3.8 1.3-1 2.7-1.9 3.9-3 1.2-1 2.4-2.1 3.7-3.1.6-.5 1.1-1.1 1.4-1.7.4-.8.7-1.6 1-2.5.4-1.1.4-2.3.5-3.5.1-.4.1-1-.1-1.5zm-.9 1.9c.2 0 .3.2.3.4v.4c0 .4-.2.6-.6.6h-1.1l-.1.1.1.1h1.1c.4 0 .6.3.5.7-.1.2-.1.5-.2.7-.2.6-.4.7-.9.4-.2-.1-.5-.3-.7-.4h-.1c0 .1-.1.2 0 .2l.3.3c.2.2.5.3.7.4.1.1.2.4.1.5-.1.2-.2.3-.2.5-.1.3-.4.3-.7.2-.2-.1-.3-.2-.5-.3l-.3-.3h-.2l-.1.2c.1.2.3.4.5.5.3.2.6.3.8.5-.1.5-.5.8-.8 1.2-.2.2-.4.2-.6 0-.2-.2-.5-.4-.7-.7 0 0-.2 0-.2.1v.1c.1.4.5.6.7.8.1.2.1.4 0 .5-.3.2-.5.4-.8.6-.2.1-.4.1-.5 0l-.6-.6c-.2-.1-.4-.2-.3 0 0 .1 0 .2.1.2l.9.9-.6.6c-.7.6-1.4 1.1-2.1 1.7-.6.4-1.1.9-1.7 1.3-1.3.9-2.5 1.9-3.7 2.8-1 .7-1.9 1.6-2.8 2.4-.2.2-.5.4-.8.6-.4-.2-.8-.4-1.1-.6-.3-.1-.7-.2-1.1-.3-.5-.2-.9-.4-1.4-.6-.4-.2-.7-.4-1-.7-.6-.6-1.2-1.3-1.9-1.9-.2-.2-.5-.5-.7-.6-1-.6-1.9-1.4-2.7-2.2-.6-.5-1.2-1.1-1.8-1.6-.2-.1-.3-.2-.4-.4-.1-.1-.1-.2 0-.4.2-.4.2-.4-.3-.4h-.1c-.3 0-.5 0-.6-.3-.2-.3-.4-.6-.4-1.1.2-.2.4-.5.6-.7-.4-.2-.7.3-1.3.1-.3-.4-.8-.9-1.1-1.5-.1-.2 0-.4.2-.5.3-.2.7-.3 1-.5-.4-.2-.7 0-1 0-.3 0-.5-.2-.6-.5-.1-.3-.1-.6-.1-1s.1-.6.5-.6c.3 0 .7.1.9-.2-.3-.2-.6-.1-1-.2s-.6-.3-.5-.7c0-.5.1-.9.2-1.4 0-.3.2-.4.6-.4h.7c0-.2-.1-.3-.2-.3s-.2-.1-.3-.1c-.4-.2-.5-.4-.4-.9.1-.4.3-.8.6-1.1.1-.1.4-.2.5-.1.3.2.7.4 1 .5.1 0 .2 0 .3-.1-.3-.3-.6-.5-.9-.8-.1-.1-.2-.4-.1-.5.2-.3.5-.6.7-.9.2-.2.5-.2.7 0 .3.3.5.6.8.8h.1c.1 0 .1-.1.1-.2-.2-.3-.4-.6-.6-1-.1-.2 0-.4.1-.5.1-.1.2-.2.4-.2.9-.5.9-.5 1.4.4 0 .1.1.1.2.2h.1l.1-.1c-.1-.3-.1-.6-.2-1 .1-.1.2-.3.4-.3.8-.4 1.7-.4 2.6-.6.2 0 .4 0 .6.1.6.2 1.3.2 1.9.6.1.1.3.1.4.1.4 0 .6.2.9.4.3.3.7.6 1 1 .7 1 1.5 2 1.7 3.2 0 .3.1.6.3.8.1.1.4.2.5 0 .3-.4.6-.9.9-1.3.7-1 1.5-2 2.5-2.6.4-.3.6-.2 1 .2.1.1.2.3.3.4h.1c.1 0 .2-.1.2-.2s-.1-.3-.1-.4c-.1-.2-.2-.3-.3-.5V16l.6-.3c.6-.2 1-.2 1 .6v.3c0 .1.1.3.3.3.1 0 .2-.1.2-.3 0-.3-.1-.6-.1-.8 0-.4.2-.6.6-.6h.3c.2 0 .4.2.4.4v.8c0 .1 0 .3.1.5.1-.1.3-.1.3-.2.1-.2.1-.4.1-.6.1-.9.1-.9 1.1-.9.4 0 .7.3.6.7 0 .3-.1.5-.2.8l.1.1c.1 0 .2 0 .2-.1.2-.4.3-.8.4-1.2.1-.2.3-.3.6-.3.7.1 1 .6.8 1.2-.1.3-.3.7-.4 1 0 0 0 .1.1.1h.1c.1-.1.3-.3.3-.4.2-.4.3-.8.5-1.2 0-.1.2-.1.2-.1.2 0 .4.1.5.2.4.2.6.5.4.9-.1.4-.3.9-.5 1.3 0 .1 0 .2.1.2h.3c.1 0 .1-.1.2-.2.2-.3.3-.7.5-1 0-.1.1-.2.1-.2.1-.1.3-.1.4 0 .5.5.6 1.1.9 1.7 0 .3-.2.6-.4.8l-.6.3c-.3.1-.6.2-1 .4-.2 0-.2.3 0 .3.3 0 .6-.1.8-.2.2-.1.4-.2.5-.3.2-.1.3-.1.5-.2h.1c.1 0 .2.1.3.2.1.1.1.3.1.4.2.9.1 1.3-1.1 1.3-.3 0-.6-.1-.8.2.4.3.9.2 1.4.3z"/><path d="M21.8 26.9c-.1.1-.1.2-.1.2v.5c0 .3 0 .5.1.8.1.3.6.6.9.6.3-.1.6-.2.9-.4.1-.1.3-.3.3-.4.1-.5 0-.9-.4-1.3-.5-.4-1.3-.4-1.7 0zm.8 1.5c-.1 0-.2-.1-.2-.1-.1-.2-.1-.3-.1-.5.1-.3.3-.5.6-.6.2.1.3.3.3.6 0 .2-.3.5-.6.6zm-3.4-9.3zm.1 0h-.7c-.5 0-.8.5-.6 1 0 .1.1.3.2.4.2.3.6.5 1 .4.4-.1.8-.3.9-.8.1-.4-.1-1.1-.8-1zm0 1.1c-.2.1-.4 0-.5-.1 0-.2.3-.4.5-.4.1 0 .2.1.2.2s-.1.2-.2.3zm4 2.9s.1 0 0 0c.1 0 .1 0 0 0 .1 0 .1 0 0 0zm-.7-.1c-.3.3-.8.2-1.1.5 0 0-.1.1 0 .1 0 .1.1.2.1.2h.4c.5-.2.9-.5 1.3-.7-.2-.1-.4-.3-.7-.1zm.3 3c.4.2.7.1 1-.2l.1-.1c-.1-.1-.1-.1-.2-.1-.4 0-.7.1-.9.4zm10.5-4.1h-.1c-.6 0-1.4.8-1.4 1.4 0 .4.2.7.5 1 .3.2.6.3.9.4h.4c.7-.2.9-.8 1-1.4 0-.1 0-.3-.1-.4-.4-.5-.8-.8-1.2-1zm.5 1.6c-.1.3-.3.5-.6.6l-.6-.3c-.2-.1-.2-.3-.2-.5s.1-.4.3-.4c.2-.1.5-.1.7-.1.4 0 .6.4.4.7zm1.5-2.1h-.1l-.1.1c.1.3.3.7.4 1 .1.3.2.5.2.7 0 .8-.2 1.3-.6 2l-.1.1c-.1.1 0 .4.1.3.1 0 .2 0 .2-.1.9-.9 1.1-2.7.2-4 0 0-.1 0-.2-.1z"/><path d="M33.1 26c-.4.1-.9.2-1.3.1 0-.1-.1-.1-.1-.1-.5-.1-.8-.3-1.1-.6-.1-.4-.3-.7-.4-1-.1-.2-.1-.5-.1-.7.3-.8.5-1.6 1.2-2.2l.3-.3v-.1c-.1 0-.2-.1-.3-.1-.1 0-.2.1-.2.1-.6.5-.9 1-1 1.8-.4.8-.2 1.5.1 2.3.1.1.1.3.2.4.1.2.3.4.4.5 0 .1.1.1.1.1.7.5 1.5.6 2.4.3l.1-.1c-.2-.4-.3-.4-.3-.4zm1.1-5.1s.2-.1.2-.2-.1-.2-.1-.2c-.3-.1-.7-.2-1-.3-.1 0-.2 0-.2.1l-.1.1v.2l1.2.3z"/></g><path fill="#443323" d="M50.8 26.7v-13c0-3.4.2-6.9 0-10.3-.1-1.9-.4-3.3-2.5-3.5-1.6-.1-3.2.1-4.8.1-1.8 0-3.7 0-5.5.1-3.5.2-7 .2-10.5.1s-7 .1-10.4 0c-3.5-.1-7 .2-10.6.1C4.6.2 1.5-.3.2 1.6c-.5.8-.6 1.9-.5 2.9-.1 3.6.2 7.2 0 10.8-.1 3.9 0 7.7.2 11.6.3 7.3-.7 14.6-.2 21.9v.1c.1 1.1.1 2.1.8 2.9.9 1 3 .3 4.1.3 4.2-.1 8.4-.3 12.6-.4 4.3-.1 8.5 0 12.8 0 4.2 0 8.4-.3 12.6-.4 1.9 0 3.7.2 5.6.1.9 0 1.6-.3 2-1.2.6-1.3.2-3.2.2-4.5-.1-2.2-.1-4.3 0-6.5.2-4.1.4-8.3.4-12.5zM50 42.9c0 2.3.4 4.8 0 7.1-.2 1.2-1.5 1.2-2.5 1.2-1.3 0-2.6-.1-3.9-.1-5-.1-10.1.4-15.1.4-5.1 0-10.2-.1-15.4.1-2.5.1-5 .2-7.5.2-1.1 0-2.1.1-3.2.2-1.6.2-2.1-.8-2.3-2v-.1C0 46.2-.2 42.5 0 38.8c.2-3.8.4-7.6.3-11.3-.1-3.9-.4-7.7-.2-11.6.1-3 0-5.9-.1-8.9 0 0 .1 0 .1-.1C.1 5.8 0 4.6 0 3.5.1 1 1.8.6 3.9.6 6 .5 8 .7 10.1.7c2.2-.1 4.3-.2 6.5-.2 4.1.1 8.3 0 12.5.1 4.2.1 8.3-.1 12.5-.3 2-.1 4-.1 6-.1.9 0 1.9 0 2.5.8.7.9.5 2.4.5 3.4.1 4.3-.1 8.6-.1 12.9 0 4.3 0 8.7.1 13-.1 4.2-.7 8.4-.6 12.6z"/><path fill="none" stroke="#443323" stroke-width=".5" stroke-miterlimit="10" d="M48.7 20.1c-.1-2.2-.4-4.3-.3-6.4 0-3.6 2.5-10.8-3.1-11.3-1-.1-2 .1-3 .1-1.4.1-2.8 0-4.1 0-3.6-.1-7.1-.2-10.7-.2-6.8.1-13.5.7-20.1 0-1.7-.2-4.6-.4-5.6 1.4h-.1c-.4.9-.3 1.9-.2 2.9-.1 1.7-.1 3.4 0 5.1v1.2c-.1 3.8.2 7.6.1 11.4 0 3.9-.1 7.8 0 11.8.1 3.5 0 7 .1 10.5v.1c0 .2 0 .5.1.8v.5c0 .1.1.1.1.2.1.3.3.6.6.8 1.3.7 3 .8 4.5.9 4.3.4 8.6.2 12.9.3 4.2.1 8.3.1 12.5-.2 3.2-.3 6.4.1 9.7 0 1.6 0 4.4-.1 5.4-1.7.6-1 .6-2.5.6-3.6.1-2-.1-4.1.1-6.1s.5-4 .6-5.9c.1-2.2 0-4.3 0-6.5-.1-2.1 0-4.1-.1-6.1zm-7.8 29.4c-1.7 0-3.4 0-5.1-.1m11.9-9.8c-.2 2 0 4-.1 6M48.4 9c-.2 1.9-.5 3.7-.5 5.6 0 2.2.3 4.3.4 6.4M1.9 5.2v-.4m0 4.1v-.8L2 8m1.9 40.9"/><path fill="#443323" d="M7.8 4.7C7.3 3.8 5.7 3 5 4.2c-.8.6-1.2 1.7-1.1 2.7.3 1.7 2.1 1.9 3.4 1.2 1.2-.7 1.1-2.4.5-3.4zm-.6 3c-1 .8-2.6.5-3-.8-.3-1.3.6-2.6 1.8-2.8 0 0 .1 0 .1-.1h.3c.5.1.8.5 1.1.8.6.9.6 2.2-.3 2.9z"/><path fill="#443323" d="M6.6 5.4c-.3-.5-1.1-.5-1.3 0-.2.2-.3.5-.3.8.1.6.7.8 1.2.6.5-.3.8-.9.4-1.4zM6 6.5c-.3.1-.7-.1-.7-.5.1-.3.4-.4.6-.6.2 0 .3.1.4.2.2.4 0 .7-.3.9zm41.2-.9c-.4-1.2-1.9-2-3-1.5-2.1.5-1.8 4.5.8 4.4 1.5 0 2.6-1.4 2.2-2.9zm-2.4 2.5c-1.9.1-2.2-2.6-.9-3.5 1.2-.2 2.2-.2 2.8 1 .6 1.3-.6 2.5-1.9 2.5z"/><path fill="#443323" d="M46.1 5.4c-.3-.3-.7-.4-1.1-.3-.4.2-.7.5-1 .9 0 .1 0 .1.1.1l.1-.1c0 .1-.1.3 0 .4.1.7.8 1.1 1.4.8.7-.2 1-1.2.5-1.8zm-.7 1.5c-.4.3-.8-.1-.9-.5-.1-.3 0-.5.2-.7.3-.2.5-.4.8-.2.6.3.3 1.2-.1 1.4zm.6 37c-.5-1-2.4-2.2-3.2-1v.1c-1 .7-1.5 1.8-1.2 3 .4 1.6 2.5 2.1 3.8 1.3 1.1-.6 1.1-2.3.6-3.4zm-.7 2.9c-1 .9-3 .3-3.4-.8-.5-1.2.5-2.5 1.6-3.1 1.8-.5 3.2 2.6 1.8 3.9z"/><path fill="#443323" d="M44.4 44.2c-.3-.4-1.3-.4-1.4.2 0 0 0 .1-.1.1-.3.4-.3.9 0 1.3.4.5 1.3.7 1.6 0 .4-.4.3-1.2-.1-1.6zm0 1.3c-.1.5-.4.5-.8.3s-.6-.5-.5-.9c.1-.3.3-.6.6-.7.1 0 .2 0 .3.2.4.3.4.8.4 1.1zm-35.7-.7c-.2-1.2-1.6-2.6-2.8-2-2.1.2-2.6 4.9.3 5 1.7 0 2.8-1.4 2.5-3zm-2.5 2.5c-2.2 0-2.1-3.3-.7-4.1.6 0 1.1-.2 1.7.1.6.3.9.9 1 1.4.5 1.5-.6 2.6-2 2.6z"/><path fill="#443323" d="M7.3 44.6c-.1-.2-.3-.4-.6-.5-.2 0-.5 0-.7.1-.4.2-.6.7-.5 1.1.1.7.7 1 1.3.7.5-.2.7-.9.5-1.4zm-.6 1c-.3.3-.8 0-.8-.3 0-.2 0-.4.1-.5 0-.1.1-.1.2-.2.3 0 .5-.2.7.1.1.3 0 .7-.2.9z"/><g fill-rule="evenodd" clip-rule="evenodd" fill="#443323"><path d="M24.8 30.4c.2-.5.3-1 .4-1.5v-.4c-.2-1.2-.3-2.4-.7-3.6-.5-1.7-1.4-3.2-2.4-4.6-.9-1.1-1.9-2.1-3.2-2.8-.2-.1-.4-.2-.5-.1-.7 0-1.3.2-1.8.8-.2.2-.3.4-.3.6 0 .2-.1.5 0 .7.1 1 .3 2 1.1 2.6.3.3.6.6.9.8.4.3.7.8.9 1.2.4 1 .6 2 .6 3 0 .7.1 1.3.2 1.9.2.9.7 1.6 1.6 2 .5.2 1 .3 1.5.1.4-.2.8-.3 1.2-.5.3.1.4-.1.5-.2zm-1.1 0c-.1 0-.2.1-.3.1-1 .6-1.8.2-2.4-.7-.2-.3-.3-.7-.4-1-.1-.4-.2-.8-.1-1.1.1-.9-.2-1.8-.3-2.6-.2-1-.6-1.9-1.5-2.5l-.6-.6c-.8-.5-1-1.3-1.1-2.2v-.7c.1-.6.4-.9 1-1 .4-.1.8 0 1.2.3.8.5 1.3 1 2.1 2 0 .4-.4.5-.5.8-.2.3-.5.5-.7.7v.2c.1.1.2.1.2.1.2-.2.5-.3.7-.5.2-.2.3-.4.4-.5.1-.1.3-.1.4-.1.2.1.2.3.1.5-.2.4-.4.7-.8.9-.1.1-.2.1-.3.3 0 0 0 .2.1.2 0 0 .1.1.1 0 .3-.2.6-.3.8-.5.2-.1.3-.3.5-.5.6.2.7.7.8 1.2 0 0 .1 0 .1.1.1.2.2.5.3.7-.4.6-1 .9-1.7.8l-.1.1c0 .1.1.2.1.2.2.1.3.2.5.1.3-.1.5-.2.8-.3.2-.1.3-.1.6-.2.5 1.2.7 2.4.8 3.6 0 .4-.1.7-.1 1.1 0 .5-.3.8-.7 1zM36.8 21c-.3-.6-.7-1-1.3-1.3-.4-.2-.8-.4-1.3-.6-.1-.1-.3-.1-.4-.1-.7 0-1.4-.3-2.1 0h-.8c-.3.3-.6.5-.9.7-.2.2-.5.4-.7.7-.5.8-1 1.7-1.1 2.7-.1.8 0 1.6.2 2.4.2.5.4.8.8 1.2.4.3.8.6 1.3.8 1.2.4 2.4.3 3.6.2.2 0 .5-.1.7-.2 1.8-.8 2.8-2.3 2.6-4.4.1-.8-.3-1.5-.6-2.1zm-.5 4.8c-.1.2-.2.3-.4.4-.1.1-.3.2-.5.3-.8.5-1.6.8-2.5.7-1 .1-2-.2-2.9-.6-.4-.2-.7-.6-.9-1-.5-1.1-.4-2.2 0-3.3.2-.5.4-.9.7-1.4.5-.9 1.3-1.3 2.3-1.4 1.3-.2 2.3.3 3.3.9.2.1.4.3.5.5.4.6.7 1.2.9 1.9.4 1.1.1 2-.5 3zm-21.8-2.7c.1-.1.2-.3.3-.5.4-1.1-.2-1.9-1.3-1.9h-.2c-.4-.1-.8 0-1.2.3-.1.1-.2.3-.3.4-.1.1-.1.3-.1.4-.1.6.2 1.1.6 1.4.6.4 1.9.3 2.2-.1zm-2.2-.7c-.1-.3 0-.6.1-.8 0-.1.1-.1.2-.2.3-.1.5-.2.8-.2.4-.1.7.2.8.6.1.6-.2 1-.8 1.1H13c-.2 0-.6-.2-.7-.5zm13 13.5c-.5 0-.9.4-1 .9 0 .2 0 .4-.1.6 0 .2.1.3.1.5.2.6 1.1.9 1.7.6.4-.3.9-.6 1.1-1 .1-.3.1-.6-.1-.8-.4-.6-1-.8-1.7-.8zm.2 2.1c-.1 0-.3 0-.4-.1-.1 0-.1-.1-.2-.2-.3-.5.1-1.2.7-1.3.3 0 .8.3.9.6v.2c-.2.3-.5.7-1 .8zM15.4 27.3c.3-.2.5-.6.4-1.2 0-.1 0-.4-.2-.6-.4-.6-1.1-.7-1.8-.6h-.1c-.9.4-1.2 1.4-.7 2.1l.3.3c.4.5 1 .6 1.5.4.2-.1.4-.3.6-.4zm-1.4-.1c-.1 0-.3-.1-.4-.2-.3-.4-.3-.9 0-1.3.3-.3.6-.3.9-.2.3.1.5.2.6.6.1.3.1.7-.3.9-.1.1-.4.2-.8.2zm4.5 3.6c-.3-.2-.7-.2-1 .1-.1.1-.2.3-.4.4-.4.4-.5.9-.3 1.4.3.7 1 1 1.6.6.3-.2.6-.4.9-.7.1-.1.2-.3.2-.5-.1-.2-.1-.4-.2-.6-.1-.1-.4-.4-.8-.7zm.2 1.8c-.2.1-.4.3-.6.4-.2.1-.5 0-.6-.2-.1-.2-.1-.4-.1-.5 0-.2.1-.4.3-.5.2-.1.5-.2.8-.3l.3.3c.1.3.1.6-.1.8zm11.6.3c-.2-.1-.4-.1-.4-.1-1 0-1.6.4-1.9 1.3v.5c.4.6 1 1 1.8.7.6-.2.9-.6 1-1.2v-.3c.1-.4-.1-.7-.5-.9zm-.9 1.9c-.2 0-.5 0-.6-.2-.1-.2-.2-.3-.1-.5.1-.3.3-.6.7-.6.2 0 .4-.1.6-.1.1.1.2.2.2.3 0 .6-.3 1-.8 1.1zm-12.8-5.9l-.6-.3c-.8-.4-1-.4-1.4.5-.1.3-.2.5-.2.8 0 .4.3.8.7 1 .2.1.4.1.5.1.3-.1.5-.1.7-.2.4-.2.6-.4.7-.8 0-.5-.1-.8-.4-1.1zm-1 1.4c-.3 0-.6-.2-.6-.4 0-.5.2-.9.6-.9.4 0 .8.3.8.6 0 .4-.3.7-.8.7zm18.2 0c-.1-.1-.3-.2-.4-.3-.5.1-.9.1-1.3.3-.2 0-.3.2-.4.4-.3 1.1-.3 1.4.8 1.8.3.1.5.1.8 0 .1-.1.2-.1.4-.2.4-.2.6-.9.5-1.2-.1-.3-.3-.6-.4-.8zM32.7 32c-.3 0-.4-.2-.5-.4-.1-.3 0-.6.3-.7.1-.1.2-.1.4-.2.4-.2.8 0 .8.5-.1.4-.5.8-1 .8zm-11.2 1.9c-.4-.2-.8-.2-1.2.2l-.3.3c-.5.5-.2 1.5.4 1.6.2.1.4.1.5.2.4.1.7-.1.9-.5.1-.2.1-.4.1-.5v-.6c.1-.3-.1-.5-.4-.7zm-.1 1.4c-.1.2-.3.3-.6.3-.3-.1-.4-.3-.3-.5.1-.2.1-.3.2-.5 0-.1.2-.1.3-.1.1.1.2.1.3.2.2.2.2.4.1.6z"/><path d="M41.8 20.4c-.1-.2-.1-.5-.1-.7 0-.2 0-.4-.1-.5-.2-.6-.5-1.1-.8-1.7-.1-.2-.3-.4-.4-.5-1.7-1.3-3.6-2.1-5.7-2-.3 0-.7.1-1 0-.6 0-1.1.1-1.7.1-.9.1-1.7.5-2.5.8-1.2.5-2.2 1.2-3 2.2-.3.4-.6.8-.9 1.3-.1.1-.1.2-.2.3-.1.1-.2.1-.2.1-.1 0-.2-.1-.2-.2-.5-1.6-1.6-2.9-2.7-4.1-.2-.2-.4-.3-.6-.4-.6-.3-1.2-.5-1.8-.7-.5-.2-1-.2-1.5-.3h-.6c-.2 0-.5.1-.7.2-.7.1-1.3.3-1.9.5-.6.2-1.2.4-1.8.8-.1.1-.3.1-.4.2-1 .6-1.9 1.1-2.6 2.1-.7.9-1.4 1.8-1.5 3-.4 1-.5 2.1-.4 3.4-.1.6.1 1.5.3 2.3.1.4.2.7.4 1 .4.6.8 1.2 1.3 1.8.2.3.5.6.6.9.2.4.4.8.8 1.1l1.5 1.2c.2.2.5.3.6.5.7.8 1.5 1.4 2.3 2.1.5.4 1.1.8 1.5 1.2.5.5 1 1 1.4 1.6l.4.4c.4.5 1 .9 1.6 1.1 1 .4 2 .7 3 1.3 0 0 .1 0 .1.1.3.2.7.1.9-.1.5-.4 1.1-.8 1.5-1.3 1.5-1.4 3.1-2.6 4.7-3.8 1.3-1 2.7-1.9 3.9-3 1.2-1 2.4-2.1 3.7-3.1.6-.5 1.1-1.1 1.4-1.7.4-.8.7-1.6 1-2.5.4-1.1.4-2.3.5-3.5.1-.3.1-.9-.1-1.5zm-.8 1.9c.2 0 .3.2.3.4v.4c0 .4-.2.6-.6.6h-1.1l-.1.1.1.1h1.1c.4 0 .6.3.5.7-.1.2-.1.5-.2.7-.2.6-.4.7-.9.4-.2-.1-.5-.3-.7-.4h-.1c0 .1-.1.2 0 .2l.3.3c.2.2.5.3.7.4.1.1.2.4.1.5-.1.2-.2.3-.2.5-.1.3-.4.3-.7.2-.2-.1-.3-.2-.5-.3l-.3-.3h-.2l-.1.2c.1.2.3.4.5.5.3.2.6.3.8.5-.1.5-.5.8-.8 1.2-.2.2-.4.2-.6 0-.2-.2-.5-.4-.7-.7 0 0-.2 0-.2.1v.1c.1.4.5.6.7.8.1.2.1.4 0 .5-.3.2-.5.4-.8.6-.2.1-.4.1-.5 0l-.6-.6c-.2-.1-.4-.2-.3 0 0 .1 0 .2.1.2l.9.9-.6.6c-.7.6-1.4 1.1-2.1 1.7-.6.4-1.1.9-1.7 1.3-1.3.9-2.5 1.9-3.7 2.8-1 .7-1.9 1.6-2.8 2.4-.2.2-.5.4-.8.6-.4-.2-.8-.4-1.1-.6-.3-.1-.7-.2-1.1-.3-.5-.2-.9-.4-1.4-.6-.4-.2-.7-.4-1-.7-.6-.6-1.2-1.3-1.9-1.9-.2-.2-.5-.5-.7-.6-1-.6-1.9-1.4-2.7-2.2-.6-.5-1.2-1.1-1.8-1.6-.2-.1-.3-.2-.4-.4-.1-.1-.1-.2 0-.4.2-.4.2-.4-.3-.4h-.1c-.3 0-.5 0-.6-.3-.2-.3-.4-.6-.4-1.1.2-.2.4-.5.6-.7-.4-.2-.7.3-1.3.1-.3-.4-.8-.9-1.1-1.5-.1-.2 0-.4.2-.5.3-.2.7-.3 1-.5-.4-.2-.7 0-1 0-.3 0-.5-.2-.6-.5-.4-.1-.5-.5-.5-.8 0-.4.1-.6.5-.6.3 0 .7.1.9-.2-.3-.2-.6-.1-1-.2-.3-.1-.4-.3-.4-.7 0-.5.1-.9.2-1.4 0-.3.2-.4.6-.4h.7c0-.2-.1-.3-.2-.3s-.2-.1-.3-.1c-.4-.2-.5-.4-.4-.9.1-.4.3-.8.6-1.1.1-.1.4-.2.5-.1.3.2.7.4 1 .5.1 0 .2 0 .3-.1-.3-.3-.6-.5-.9-.8-.1-.1-.2-.4-.1-.5.2-.3.5-.6.7-.9.2-.2.5-.2.7 0 .3.3.5.6.8.8h.1c.1 0 .1-.1.1-.2-.2-.3-.4-.6-.6-1-.1-.2 0-.4.1-.5.1-.1.2-.2.4-.2.9-.5.9-.5 1.4.4 0 .1.1.1.2.2h.1l.1-.1c-.1-.3-.1-.6-.2-1 .1-.1.2-.3.4-.3.8-.4 1.7-.4 2.6-.6.2 0 .4 0 .6.1.6.2 1.3.2 1.9.6.1.1.3.1.4.1.4 0 .6.2.9.4.3.3.7.6 1 1 .7 1 1.5 2 1.7 3.2 0 .3.1.6.3.8.1.1.4.2.5 0 .3-.4.6-.9.9-1.3.7-1 1.5-2 2.5-2.6.4-.3.6-.2 1 .2.1.1.2.3.3.4h.1c.1 0 .2-.1.2-.2s-.1-.3-.1-.4c-.1-.2-.2-.3-.3-.5v-.2l.6-.3c.6-.2 1-.2 1 .6v.3c0 .1.1.3.3.3.1 0 .2-.1.2-.3 0-.3-.1-.6-.1-.8 0-.4.2-.6.6-.6h.3c.2 0 .4.2.4.4v.8c0 .1 0 .3.1.5.1-.1.3-.1.3-.2.1-.2.1-.4.1-.6.1-.9.1-.9 1.1-.9.4 0 .7.3.6.7 0 .3-.1.5-.2.8l.1.1c.1 0 .2 0 .2-.1.2-.4.3-.8.4-1.2.1-.2.3-.3.6-.3.7.1 1 .6.8 1.2-.1.3-.3.7-.4 1 0 0 0 .1.1.1h.1c.1-.1.3-.3.3-.4.2-.4.3-.8.5-1.2 0-.1.2-.1.2-.1.2 0 .4.1.5.2.4.2.6.5.4.9-.1.4-.3.9-.5 1.3 0 .1 0 .2.1.2h.3c.1 0 .1-.1.2-.2.2-.3.3-.7.5-1 0-.1.1-.2.1-.2.1-.1.3-.1.4 0 .5.5.6 1.1.9 1.7 0 .3-.2.6-.4.8l-.6.3c-.3.1-.6.2-1 .4-.2 0-.2.3 0 .3.3 0 .6-.1.8-.2.2-.1.4-.2.5-.3.2-.1.3-.1.5-.2h.1c.1 0 .2.1.3.2.1.1.1.3.1.4.2.9.1 1.3-1.1 1.3-.3 0-.6-.1-.8.2.6.2 1.2 0 1.7.1z"/><path d="M21.6 27.1c-.1.1-.1.2-.1.2v.5c0 .3 0 .5.1.8.1.3.6.6.9.6.3-.1.6-.2.9-.4.1-.1.3-.3.3-.4.1-.5 0-.9-.4-1.3-.5-.5-1.3-.5-1.7 0zm.8 1.4c-.1 0-.2-.1-.2-.1-.2-.2-.2-.4-.1-.6.1-.3.3-.5.6-.6.2.1.3.3.3.6s-.3.7-.6.7zM19 19.2c.1 0 .1 0 0 0zm.2 0h-.7c-.5 0-.8.5-.6 1 0 .1.1.3.2.4.2.3.6.5 1 .4.4-.1.8-.3.9-.8.1-.3-.2-1-.8-1zm-.1 1.1c-.2.1-.4 0-.5-.1 0-.2.3-.4.5-.4.1 0 .2.1.2.2.1.2-.1.3-.2.3zm4.1 2.9c0 .1 0 .1 0 0 0 .1 0 .1 0 0zm-.8 0c-.3.3-.8.2-1.1.5 0 0-.1.1 0 .1 0 .1.1.2.1.2h.4c.5-.2.9-.5 1.3-.7-.2-.2-.4-.3-.7-.1zm.3 3c.4.2.7.1 1-.2l.1-.1c-.1-.1-.1-.1-.2-.1-.4 0-.7.1-.9.4zm10.5-4.1h-.1c-.6 0-1.4.8-1.4 1.4 0 .4.2.7.5 1 .3.2.6.3.9.4h.4c.7-.2.9-.8 1-1.4 0-.1 0-.3-.1-.4-.4-.5-.8-.8-1.2-1zm.5 1.5c-.1.3-.3.5-.6.6l-.6-.3c-.2-.1-.2-.3-.2-.5s.1-.4.3-.4c.2-.1.5-.1.7-.1.4 0 .6.4.4.7zm1.5-2h-.1l-.1.1c.1.3.3.7.4 1 .1.3.2.5.2.7 0 .8-.2 1.3-.6 2l-.1.1c-.1.1 0 .4.1.3.1 0 .2 0 .2-.1.9-.9 1.1-2.7.2-4 0 0-.1-.1-.2-.1z"/><path d="M32.9 26.1c-.4.1-.9.2-1.3.1 0-.1-.1-.1-.1-.1-.5-.1-.8-.3-1.1-.6-.1-.4-.3-.7-.4-1-.1-.2-.1-.5-.1-.7.3-.8.5-1.6 1.2-2.2l.3-.3v-.1c-.1 0-.2-.1-.3-.1-.1 0-.2.1-.2.1-.6.5-.9 1-1 1.8-.4.8-.2 1.5.1 2.3.1.1.1.3.2.4.1.2.3.4.4.5 0 .1.1.1.1.1.7.5 1.5.6 2.4.3l.1-.1c-.2-.3-.2-.4-.3-.4zm1.1-5s.2-.1.2-.2-.1-.2-.1-.2c-.3-.1-.7-.2-1-.3-.1 0-.2 0-.2.1l-.1.1v.2l1.2.3z"/></g><path fill="#443323" d="M51 26.5v-13c0-3.4.2-6.9 0-10.3-.1-1.9-.4-3.3-2.5-3.5-1.6-.1-3.2.1-4.8.1-1.8 0-3.7.1-5.5.2-3.5.2-7 .2-10.5.1s-7 .1-10.4 0c-3.5-.1-7 .2-10.6.1C4.8.1 1.7-.4.4 1.5c-.5.8-.6 1.9-.5 2.9-.1 3.6.2 7.2 0 10.8-.1 3.9 0 7.7.2 11.6.3 7.3-.7 14.6-.2 21.9v.1c.1 1.1.1 2.1.8 2.9.9 1 3 .3 4.1.3 4.2-.1 8.4-.3 12.6-.4 4.3-.1 8.5 0 12.8 0 4.2 0 8.4-.3 12.6-.4 1.9 0 3.7.2 5.6.1.9 0 1.6-.3 2-1.2.6-1.3.2-3.2.2-4.5-.1-2.2-.1-4.3 0-6.5.1-4.1.4-8.3.4-12.6zm-.9 16.2c0 2.3.4 4.8 0 7.1-.2 1.2-1.5 1.2-2.5 1.2-1.3 0-2.6-.1-3.9-.1-5-.1-10.1.4-15.1.4-5.1 0-10.2-.1-15.4.1-2.5.1-5 .2-7.5.2-1.1 0-2.1.1-3.2.2-1.6.2-2.1-.8-2.3-2v-.1c0-3.7-.2-7.3-.1-11 .2-3.8.4-7.6.3-11.3-.1-3.9-.4-7.7-.2-11.6.1-3 .1-5.9-.1-8.9 0 0 .1 0 .1-.1C.2 5.6.1 4.5.1 3.3.3.9 2 .5 4.1.4c2.1-.1 4.1.1 6.2.1 2.2-.1 4.3-.2 6.5-.2 4.1.1 8.3 0 12.5.1 4.2.1 8.3-.1 12.5-.3 2-.1 4-.1 6-.1.9 0 1.9 0 2.5.8.7.9.5 2.4.5 3.4.1 4.3-.1 8.6-.1 12.9 0 4.3 0 8.7.1 13-.1 4.3-.7 8.4-.7 12.6z"/><path fill="none" stroke="#443323" stroke-width=".5" stroke-miterlimit="10" d="M48.8 20c-.1-2.2-.4-4.3-.3-6.4 0-3.6 2.5-10.8-3.1-11.3-1-.1-2 .1-3 .1-1.4.1-2.8 0-4.1 0-3.6-.1-7.1-.2-10.7-.2-6.7.1-13.3.7-20-.1C5.8 2 3 1.7 2 3.5h-.1c-.4 1-.3 2-.2 3-.1 1.7-.1 3.4 0 5.1v1.2c-.1 3.8.2 7.6.1 11.4 0 3.9-.1 7.8 0 11.8.1 3.5 0 7 .1 10.5v.1c0 .2 0 .5.1.8v.5c0 .1.1.1.1.2.1.3.3.6.6.8 1.3.7 3 .8 4.5.9 4.3.4 8.6.2 12.9.3 4.2.1 8.3.1 12.5-.2 3.2-.3 6.4.1 9.7 0 1.6 0 4.4-.1 5.4-1.7.6-1 .6-2.5.6-3.6.1-2-.1-4.1.1-6.1s.5-4 .6-5.9c.1-2.2 0-4.3 0-6.5-.1-2.1 0-4.1-.2-6.1zm-7.7 29.4c-1.7 0-3.4 0-5.1-.1m11.9-9.9c-.2 2 0 4-.1 6m.8-36.5c-.2 1.9-.5 3.7-.5 5.6 0 2.2.3 4.3.4 6.4M2.1 5v-.4m0 4.1v-.8l.1-.1m1.9 40.9"/><path fill="#443323" d="M8 4.5c-.6-.9-2.2-1.6-2.8-.4-.9.5-1.3 1.6-1.1 2.7.3 1.6 2.1 1.8 3.3 1.1 1.3-.7 1.2-2.3.6-3.4zm-.6 3c-1 .8-2.6.5-3-.8-.3-1.2.6-2.6 1.8-2.8 0 0 .1 0 .1-.1h.3c.4.1.8.5 1 .9.6.9.7 2.1-.2 2.8z"/><path fill="#443323" d="M6.8 5.3c-.3-.5-1.1-.5-1.3 0-.2.2-.4.5-.3.7.1.6.7.8 1.2.6.5-.2.8-.8.4-1.3zm-.6 1c-.3.2-.8-.1-.7-.4.1-.3.4-.4.6-.6.2 0 .3.1.4.2.2.3 0 .7-.3.8zm41.1-.8c-.4-1.2-1.9-2-3-1.5-2.1.5-1.8 4.5.8 4.4 1.6-.1 2.7-1.4 2.2-2.9zM45 8c-1.9.1-2.2-2.6-.9-3.5 1.2-.2 2.2-.2 2.8 1 .6 1.3-.6 2.4-1.9 2.5z"/><path fill="#443323" d="M46.2 5.2c-.3-.3-.7-.4-1.1-.3-.4.2-.7.5-1 .9 0 .1 0 .1.1.1l.1-.1c0 .1-.1.3 0 .4.1.7.8 1.1 1.4.8.7-.2 1.1-1.2.5-1.8zm-.6 1.6c-.4.3-.8-.1-.9-.5-.1-.3 0-.5.2-.7.3-.2.5-.4.8-.2.6.3.3 1.1-.1 1.4zm.6 36.9c-.5-1-2.4-2.2-3.2-1v.1c-1 .7-1.5 1.8-1.2 3 .4 1.6 2.5 2.1 3.8 1.3 1.1-.6 1.1-2.3.6-3.4zm-.8 3c-1 .9-3 .3-3.4-.8-.5-1.2.5-2.5 1.6-3.1 1.9-.6 3.2 2.5 1.8 3.9z"/><path fill="#443323" d="M44.6 44.1c-.3-.4-1.3-.4-1.4.2 0 0 0 .1-.1.1-.3.4-.3.9 0 1.3.4.5 1.3.7 1.6 0 .4-.5.2-1.2-.1-1.6zm-.1 1.3c-.1.4-.4.5-.8.3s-.6-.5-.5-.9c.1-.3.3-.6.6-.7.1 0 .2 0 .3.2.4.3.5.7.4 1.1zm-35.6-.8c-.2-1.2-1.6-2.6-2.8-2-2.1.2-2.6 4.9.3 5 1.7.1 2.7-1.4 2.5-3zm-2.5 2.6c-2.2 0-2.1-3.3-.7-4.1.6 0 1.1-.2 1.7.1.6.3.9.9 1 1.4.5 1.4-.6 2.6-2 2.6z"/><path fill="#443323" d="M7.4 44.4c-.1-.2-.3-.4-.6-.5-.2 0-.5 0-.7.1-.4.2-.6.7-.5 1.1.1.7.7 1 1.3.7.6-.2.7-.9.5-1.4zm-.5 1c-.3.3-.8 0-.8-.3 0-.2 0-.4.1-.5 0-.1.1-.1.2-.2.3 0 .5-.2.7.1.1.3 0 .7-.2.9z"/><g fill-rule="evenodd" clip-rule="evenodd" fill="#443323"><path d="M25 30.2c.2-.5.3-1 .4-1.5v-.4c-.2-1.2-.3-2.4-.7-3.6-.5-1.7-1.4-3.2-2.4-4.6-.9-1.1-1.9-2.1-3.2-2.8-.2-.1-.4-.2-.5-.1-.7 0-1.3.2-1.8.8-.2.2-.3.4-.3.6 0 .2-.1.5 0 .7.1 1 .3 2 1.1 2.6.3.3.6.6.9.8.4.3.7.8.9 1.2.4 1 .6 2 .6 3 0 .7.1 1.3.2 1.9.2.9.7 1.6 1.6 2 .5.2 1 .3 1.5.1.4-.2.8-.3 1.2-.5.2.1.4 0 .5-.2zm-1.1.1c-.1 0-.2.1-.3.1-1 .6-1.8.2-2.4-.7-.2-.3-.3-.7-.4-1-.1-.4-.2-.8-.1-1.1.1-.9-.2-1.8-.3-2.6-.2-1-.6-1.9-1.5-2.5l-.6-.6c-.8-.5-1-1.3-1.1-2.2V19c.1-.6.4-.9 1-1 .4-.1.8 0 1.2.3.8.5 1.3 1 2.1 2 0 .4-.4.5-.5.8-.2.3-.5.5-.7.7v.2c.1.1.2.1.2.1.2-.2.5-.3.7-.5.2-.2.3-.4.4-.5.1-.1.3-.1.4-.1.2.1.2.3.1.5-.2.4-.4.7-.8.9-.1.1-.2.1-.3.3 0 0 0 .2.1.2 0 0 .1.1.1 0 .3-.2.6-.3.8-.5.2-.1.3-.3.5-.5.6.2.7.7.8 1.2 0 0 .1 0 .1.1.1.2.2.5.3.7-.4.6-1 .9-1.7.8l-.1.1c0 .1.1.2.1.2.2.1.3.2.5.1.3-.1.5-.2.8-.3.2-.1.3-.1.6-.2.5 1.2.7 2.4.8 3.6 0 .4-.1.7-.1 1.1-.1.4-.3.8-.7 1zm13-9.5c-.3-.6-.7-1-1.3-1.3-.4-.2-.8-.4-1.3-.6-.1-.1-.3-.1-.4-.1-.7 0-1.4-.3-2.1 0-.3.1-.6.1-.8.1-.3.3-.6.5-.9.7-.2.2-.5.4-.7.7-.5.8-1 1.7-1.1 2.7-.1.8 0 1.6.2 2.4.2.5.4.8.8 1.2.4.3.8.6 1.3.8 1.2.4 2.4.3 3.6.2.2 0 .5-.1.7-.2 1.8-.8 2.8-2.3 2.6-4.4.2-.9-.2-1.5-.6-2.2zm-.4 4.8c-.1.2-.2.3-.4.4-.1.1-.3.2-.5.3-.8.5-1.6.8-2.5.7-1 .1-2-.2-2.9-.6-.4-.2-.7-.6-.9-1-.5-1.1-.4-2.2 0-3.3.2-.5.4-.9.7-1.4.5-.9 1.3-1.3 2.3-1.4 1.3-.2 2.3.3 3.3.9.2.1.4.3.5.5.4.6.7 1.2.9 1.9.3 1.1.1 2.1-.5 3zm-21.8-2.7c.1-.1.2-.3.3-.5.4-1.1-.2-1.9-1.3-1.9h-.2c-.4-.1-.8 0-1.2.3-.1.1-.2.3-.3.4-.1.1-.1.3-.1.4-.1.6.2 1.1.6 1.4.6.5 1.8.3 2.2-.1zm-2.2-.7c-.1-.3 0-.6.1-.8 0-.1.1-.1.2-.2.3-.1.5-.2.8-.2.4-.1.7.2.8.6.1.6-.2 1-.8 1.1h-.4c-.2.1-.6-.2-.7-.5zm13 13.6c-.5 0-.9.4-1 .9 0 .2 0 .4-.1.6 0 .2.1.3.1.5.2.6 1.1.9 1.7.6.4-.3.9-.6 1.1-1 .1-.3.1-.6-.1-.8-.5-.6-1-.9-1.7-.8zm.2 2c-.1 0-.3 0-.4-.1-.1 0-.1-.1-.2-.2-.3-.5.1-1.2.7-1.3.3 0 .8.3.9.6v.2c-.2.4-.5.7-1 .8zM15.5 27.2c.3-.2.5-.6.4-1.2 0-.1 0-.4-.2-.6-.4-.6-1.1-.7-1.8-.6h-.1c-.9.4-1.2 1.4-.7 2.1l.3.3c.4.5 1 .6 1.5.4.3-.2.5-.3.6-.4zm-1.3-.1c-.1 0-.3-.1-.4-.2-.3-.4-.3-.9 0-1.3.3-.3.6-.3.9-.2.3.1.5.2.6.6.1.3.1.7-.3.9-.2 0-.4.2-.8.2zm4.5 3.6c-.3-.2-.7-.2-1 .1-.1.1-.2.3-.4.4-.4.4-.5.9-.3 1.4.3.7 1 1 1.6.6.3-.2.6-.4.9-.7.1-.1.2-.3.2-.5-.1-.2-.1-.4-.2-.6-.2-.2-.5-.5-.8-.7zm.2 1.7c-.2.1-.4.3-.6.4-.2.1-.5 0-.6-.2-.1-.2-.1-.4-.1-.5 0-.2.1-.4.3-.5.2-.1.5-.2.8-.3l.3.3c.1.4.1.6-.1.8zm11.6.4c-.2-.1-.4-.1-.4-.1-1 0-1.6.4-1.9 1.3v.5c.4.6 1 1 1.8.7.6-.2.9-.6 1-1.2v-.3c0-.5-.1-.8-.5-.9zm-.9 1.9c-.2 0-.5 0-.6-.2-.1-.2-.2-.3-.1-.5.1-.3.3-.6.7-.6.2 0 .4-.1.6-.1.1.1.2.2.2.3 0 .5-.3.9-.8 1.1zm-12.9-5.9l-.6-.3c-.8-.4-1-.4-1.4.5-.1.3-.2.5-.2.8 0 .4.3.8.7 1 .2.1.4.1.5.1.3-.1.5-.1.7-.2.4-.2.6-.4.7-.8.1-.5 0-.9-.4-1.1zm-.9 1.3c-.3 0-.6-.2-.6-.4-.1-.4.2-.8.5-.8.4 0 .8.3.8.6.1.4-.2.6-.7.6zm18.1.1c-.1-.1-.3-.2-.4-.3-.5.1-.9.1-1.3.2-.2 0-.3.2-.4.4-.3 1.1-.3 1.4.8 1.8.3.1.5.1.8 0 .1-.1.2-.1.4-.2.4-.2.6-.9.5-1.2-.1-.3-.2-.5-.4-.7zm-1 1.6c-.3 0-.4-.2-.5-.4-.1-.3 0-.6.3-.7.1-.1.2-.1.4-.2.4-.2.8 0 .8.5-.1.5-.5.9-1 .8zm-11.2 2c-.4-.2-.8-.2-1.2.2l-.3.3c-.5.5-.2 1.5.4 1.6.2.1.4.1.5.2.4.1.7-.1.9-.5.1-.2.1-.4.1-.5v-.6c.1-.3-.1-.6-.4-.7zm-.1 1.4c-.1.2-.3.3-.6.3-.3-.1-.4-.3-.3-.5.1-.2.1-.3.2-.5 0-.1.2-.1.3-.1.1.1.2.1.3.2.2.1.2.4.1.6z"/><path d="M42 20.3c-.1-.2-.1-.5-.1-.7 0-.2 0-.4-.1-.5-.2-.6-.5-1.1-.8-1.7-.1-.2-.3-.4-.4-.5-1.7-1.3-3.6-2.1-5.7-2-.3 0-.7.1-1 0-.6 0-1.1.1-1.7.1-.9.1-1.7.5-2.5.8-1.2.5-2.2 1.2-3 2.2-.3.4-.6.8-.9 1.3-.1.1-.1.2-.2.3-.1.1-.2.1-.2.1-.1 0-.2-.1-.2-.2-.5-1.6-1.6-2.9-2.7-4.1-.2-.2-.4-.3-.6-.4-.6-.3-1.2-.5-1.8-.7-.5-.2-1-.2-1.5-.3H18c-.2 0-.5.1-.7.2-.7.1-1.3.3-1.9.5-.6.2-1.2.4-1.8.8-.1.1-.3.1-.4.2-1 .6-1.9 1.1-2.6 2.1-.7.9-1.4 1.8-1.5 3-.4 1-.5 2.1-.4 3.4-.1.6.1 1.5.3 2.3.1.4.2.7.4 1 .4.6.8 1.2 1.3 1.8.2.3.5.6.6.9.2.4.4.8.8 1.1l1.5 1.2c.2.2.5.3.6.5.7.8 1.5 1.4 2.3 2.1.5.4 1.1.8 1.5 1.2.5.5 1 1 1.4 1.6l.4.4c.4.5 1 .9 1.6 1.1 1 .4 2 .7 3 1.3 0 0 .1 0 .1.1.3.2.7.1.9-.1.5-.4 1.1-.8 1.5-1.3 1.5-1.4 3.1-2.6 4.7-3.8 1.3-1 2.7-1.9 3.9-3 1.2-1 2.4-2.1 3.7-3.1.6-.5 1.1-1.1 1.4-1.7.4-.8.7-1.6 1-2.5.4-1.1.4-2.3.5-3.5.1-.4.1-1-.1-1.5zm-.9 1.9c.2 0 .3.2.3.4v.4c0 .4-.2.6-.6.6h-1.1l-.1.1.1.1h1.1c.4 0 .6.3.5.7-.1.2-.1.5-.2.7-.2.6-.4.7-.9.4-.2-.1-.5-.3-.7-.4h-.1c0 .1-.1.2 0 .2l.3.3c.2.2.5.3.7.4.1.1.2.4.1.5-.1.2-.2.3-.2.5-.1.3-.4.3-.7.2-.2-.1-.3-.2-.5-.3l-.3-.3h-.2l-.1.2c.1.2.3.4.5.5.3.2.6.3.8.5-.1.5-.5.8-.8 1.2-.2.2-.4.2-.6 0-.2-.2-.5-.4-.7-.7 0 0-.2 0-.2.1v.1c.1.4.5.6.7.8.1.2.1.4 0 .5-.3.2-.5.4-.8.6-.2.1-.4.1-.5 0l-.6-.6c-.2-.1-.4-.2-.3 0 0 .1 0 .2.1.2l.9.9-.6.6c-.7.6-1.4 1.1-2.1 1.7-.6.4-1.1.9-1.7 1.3-1.3.9-2.5 1.9-3.7 2.8-1 .7-1.9 1.6-2.8 2.4-.2.2-.5.4-.8.6-.4-.2-.8-.4-1.1-.6-.3-.1-.7-.2-1.1-.3-.5-.2-.9-.4-1.4-.6-.4-.2-.7-.4-1-.7-.6-.6-1.2-1.3-1.9-1.9-.2-.2-.5-.5-.7-.6-1-.6-1.9-1.4-2.7-2.2-.6-.5-1.2-1.1-1.8-1.6-.2-.1-.3-.2-.4-.4-.1-.1-.1-.2 0-.4.2-.4.2-.4-.3-.4h-.1c-.3 0-.5 0-.6-.3-.2-.3-.4-.6-.4-1.1.2-.2.4-.5.6-.7-.4-.2-.7.3-1.3.1-.3-.4-.8-.9-1.1-1.5-.1-.2 0-.4.2-.5.3-.2.7-.3 1-.5-.4-.2-.7 0-1 0-.3 0-.5-.2-.6-.5-.1-.3-.1-.6-.1-1s.1-.6.5-.6c.3 0 .7.1.9-.2-.3-.2-.6-.1-1-.2s-.6-.3-.5-.7c0-.5.1-.9.2-1.4 0-.3.2-.4.6-.4h.7c0-.2-.1-.3-.2-.3s-.2-.1-.3-.1c-.4-.2-.5-.4-.4-.9.1-.4.3-.8.6-1.1.1-.1.4-.2.5-.1.3.2.7.4 1 .5.1 0 .2 0 .3-.1-.3-.3-.6-.5-.9-.8-.1-.1-.2-.4-.1-.5.2-.3.5-.6.7-.9.2-.2.5-.2.7 0 .3.3.5.6.8.8h.1c.1 0 .1-.1.1-.2-.2-.3-.4-.6-.6-1-.1-.2 0-.4.1-.5.1-.1.2-.2.4-.2.9-.5.9-.5 1.4.4 0 .1.1.1.2.2h.1l.1-.1c-.1-.3-.1-.6-.2-1 .1-.1.2-.3.4-.3.8-.4 1.7-.4 2.6-.6.2 0 .4 0 .6.1.6.2 1.3.2 1.9.6.1.1.3.1.4.1.4 0 .6.2.9.4.3.3.7.6 1 1 .7 1 1.5 2 1.7 3.2 0 .3.1.6.3.8.1.1.4.2.5 0 .3-.4.6-.9.9-1.3.7-1 1.5-2 2.5-2.6.4-.3.6-.2 1 .2.1.1.2.3.3.4h.1c.1 0 .2-.1.2-.2s-.1-.3-.1-.4c-.1-.2-.2-.3-.3-.5V16l.6-.3c.6-.2 1-.2 1 .6v.3c0 .1.1.3.3.3.1 0 .2-.1.2-.3 0-.3-.1-.6-.1-.8 0-.4.2-.6.6-.6h.3c.2 0 .4.2.4.4v.8c0 .1 0 .3.1.5.1-.1.3-.1.3-.2.1-.2.1-.4.1-.6.1-.9.1-.9 1.1-.9.4 0 .7.3.6.7 0 .3-.1.5-.2.8l.1.1c.1 0 .2 0 .2-.1.2-.4.3-.8.4-1.2.1-.2.3-.3.6-.3.7.1 1 .6.8 1.2-.1.3-.3.7-.4 1 0 0 0 .1.1.1h.1c.1-.1.3-.3.3-.4.2-.4.3-.8.5-1.2 0-.1.2-.1.2-.1.2 0 .4.1.5.2.4.2.6.5.4.9-.1.4-.3.9-.5 1.3 0 .1 0 .2.1.2h.3c.1 0 .1-.1.2-.2.2-.3.3-.7.5-1 0-.1.1-.2.1-.2.1-.1.3-.1.4 0 .5.5.6 1.1.9 1.7 0 .3-.2.6-.4.8l-.6.3c-.3.1-.6.2-1 .4-.2 0-.2.3 0 .3.3 0 .6-.1.8-.2.2-.1.4-.2.5-.3.2-.1.3-.1.5-.2h.1c.1 0 .2.1.3.2.1.1.1.3.1.4.2.9.1 1.3-1.1 1.3-.3 0-.6-.1-.8.2.4.3.9.2 1.4.3z"/><path d="M21.8 26.9c-.1.1-.1.2-.1.2v.5c0 .3 0 .5.1.8.1.3.6.6.9.6.3-.1.6-.2.9-.4.1-.1.3-.3.3-.4.1-.5 0-.9-.4-1.3-.5-.4-1.3-.4-1.7 0zm.8 1.5c-.1 0-.2-.1-.2-.1-.1-.2-.1-.3-.1-.5.1-.3.3-.5.6-.6.2.1.3.3.3.6 0 .2-.3.5-.6.6zm-3.4-9.3zm.1 0h-.7c-.5 0-.8.5-.6 1 0 .1.1.3.2.4.2.3.6.5 1 .4.4-.1.8-.3.9-.8.1-.4-.1-1.1-.8-1zm0 1.1c-.2.1-.4 0-.5-.1 0-.2.3-.4.5-.4.1 0 .2.1.2.2s-.1.2-.2.3zm4 2.9s.1 0 0 0c.1 0 .1 0 0 0 .1 0 .1 0 0 0zm-.7-.1c-.3.3-.8.2-1.1.5 0 0-.1.1 0 .1 0 .1.1.2.1.2h.4c.5-.2.9-.5 1.3-.7-.2-.1-.4-.3-.7-.1zm.3 3c.4.2.7.1 1-.2l.1-.1c-.1-.1-.1-.1-.2-.1-.4 0-.7.1-.9.4zm10.5-4.1h-.1c-.6 0-1.4.8-1.4 1.4 0 .4.2.7.5 1 .3.2.6.3.9.4h.4c.7-.2.9-.8 1-1.4 0-.1 0-.3-.1-.4-.4-.5-.8-.8-1.2-1zm.5 1.6c-.1.3-.3.5-.6.6l-.6-.3c-.2-.1-.2-.3-.2-.5s.1-.4.3-.4c.2-.1.5-.1.7-.1.4 0 .6.4.4.7zm1.5-2.1h-.1l-.1.1c.1.3.3.7.4 1 .1.3.2.5.2.7 0 .8-.2 1.3-.6 2l-.1.1c-.1.1 0 .4.1.3.1 0 .2 0 .2-.1.9-.9 1.1-2.7.2-4 0 0-.1 0-.2-.1z"/><path d="M33.1 26c-.4.1-.9.2-1.3.1 0-.1-.1-.1-.1-.1-.5-.1-.8-.3-1.1-.6-.1-.4-.3-.7-.4-1-.1-.2-.1-.5-.1-.7.3-.8.5-1.6 1.2-2.2l.3-.3v-.1c-.1 0-.2-.1-.3-.1-.1 0-.2.1-.2.1-.6.5-.9 1-1 1.8-.4.8-.2 1.5.1 2.3.1.1.1.3.2.4.1.2.3.4.4.5 0 .1.1.1.1.1.7.5 1.5.6 2.4.3l.1-.1c-.2-.4-.3-.4-.3-.4zm1.1-5.1s.2-.1.2-.2-.1-.2-.1-.2c-.3-.1-.7-.2-1-.3-.1 0-.2 0-.2.1l-.1.1v.2l1.2.3z"/></g><path fill="#443323" d="M51 26.5v-13c0-3.4.2-6.9 0-10.3-.1-1.9-.4-3.3-2.5-3.5-1.6-.1-3.2.1-4.8.1-1.8 0-3.7.1-5.5.2-3.5.2-7 .2-10.5.1s-7 .1-10.4 0c-3.5-.1-7 .2-10.6.1C4.8.1 1.7-.4.4 1.5c-.5.8-.6 1.9-.5 2.9-.1 3.6.2 7.2 0 10.8-.1 3.9 0 7.7.2 11.6.3 7.3-.7 14.6-.2 21.9v.1c.1 1.1.1 2.1.8 2.9.9 1 3 .3 4.1.3 4.2-.1 8.4-.3 12.6-.4 4.3-.1 8.5 0 12.8 0 4.2 0 8.4-.3 12.6-.4 1.9 0 3.7.2 5.6.1.9 0 1.6-.3 2-1.2.6-1.3.2-3.2.2-4.5-.1-2.2-.1-4.3 0-6.5.1-4.1.4-8.3.4-12.6zm-.9 16.2c0 2.3.4 4.8 0 7.1-.2 1.2-1.5 1.2-2.5 1.2-1.3 0-2.6-.1-3.9-.1-5-.1-10.1.4-15.1.4-5.1 0-10.2-.1-15.4.1-2.5.1-5 .2-7.5.2-1.1 0-2.1.1-3.2.2-1.6.2-2.1-.8-2.3-2v-.1c0-3.7-.2-7.3-.1-11 .2-3.8.4-7.6.3-11.3-.1-3.9-.4-7.7-.2-11.6.1-3 .1-5.9-.1-8.9 0 0 .1 0 .1-.1C.2 5.6.1 4.5.1 3.3.3.9 2 .5 4.1.4c2.1-.1 4.1.1 6.2.1 2.2-.1 4.3-.2 6.5-.2 4.1.1 8.3 0 12.5.1 4.2.1 8.3-.1 12.5-.3 2-.1 4-.1 6-.1.9 0 1.9 0 2.5.8.7.9.5 2.4.5 3.4.1 4.3-.1 8.6-.1 12.9 0 4.3 0 8.7.1 13-.1 4.3-.7 8.4-.7 12.6z"/><path fill="none" stroke="#443323" stroke-width=".5" stroke-miterlimit="10" d="M48.8 20c-.1-2.2-.4-4.3-.3-6.4 0-3.6 2.5-10.8-3.1-11.3-1-.1-2 .1-3 .1-1.4.1-2.8 0-4.1 0-3.6-.1-7.1-.2-10.7-.2-6.7.1-13.3.7-20-.1C5.8 2 3 1.7 2 3.5h-.1c-.4 1-.3 2-.2 3-.1 1.7-.1 3.4 0 5.1v1.2c-.1 3.8.2 7.6.1 11.4 0 3.9-.1 7.8 0 11.8.1 3.5 0 7 .1 10.5v.1c0 .2 0 .5.1.8v.5c0 .1.1.1.1.2.1.3.3.6.6.8 1.3.7 3 .8 4.5.9 4.3.4 8.6.2 12.9.3 4.2.1 8.3.1 12.5-.2 3.2-.3 6.4.1 9.7 0 1.6 0 4.4-.1 5.4-1.7.6-1 .6-2.5.6-3.6.1-2-.1-4.1.1-6.1s.5-4 .6-5.9c.1-2.2 0-4.3 0-6.5-.1-2.1 0-4.1-.2-6.1zm-7.7 29.4c-1.7 0-3.4 0-5.1-.1m11.9-9.9c-.2 2 0 4-.1 6m.8-36.5c-.2 1.9-.5 3.7-.5 5.6 0 2.2.3 4.3.4 6.4M2.1 5v-.4m0 4.1v-.8l.1-.1m1.9 40.9"/><path fill="#443323" d="M8 4.5c-.6-.9-2.2-1.6-2.8-.4-.9.5-1.3 1.6-1.1 2.7.3 1.6 2.1 1.8 3.3 1.1 1.3-.7 1.2-2.3.6-3.4zm-.6 3c-1 .8-2.6.5-3-.8-.3-1.2.6-2.6 1.8-2.8 0 0 .1 0 .1-.1h.3c.4.1.8.5 1 .9.6.9.7 2.1-.2 2.8z"/><path fill="#443323" d="M6.8 5.3c-.3-.5-1.1-.5-1.3 0-.2.2-.4.5-.3.7.1.6.7.8 1.2.6.5-.2.8-.8.4-1.3zm-.6 1c-.3.2-.8-.1-.7-.4.1-.3.4-.4.6-.6.2 0 .3.1.4.2.2.3 0 .7-.3.8zm41.1-.8c-.4-1.2-1.9-2-3-1.5-2.1.5-1.8 4.5.8 4.4 1.6-.1 2.7-1.4 2.2-2.9zM45 8c-1.9.1-2.2-2.6-.9-3.5 1.2-.2 2.2-.2 2.8 1 .6 1.3-.6 2.4-1.9 2.5z"/><path fill="#443323" d="M46.2 5.2c-.3-.3-.7-.4-1.1-.3-.4.2-.7.5-1 .9 0 .1 0 .1.1.1l.1-.1c0 .1-.1.3 0 .4.1.7.8 1.1 1.4.8.7-.2 1.1-1.2.5-1.8zm-.6 1.6c-.4.3-.8-.1-.9-.5-.1-.3 0-.5.2-.7.3-.2.5-.4.8-.2.6.3.3 1.1-.1 1.4zm.6 36.9c-.5-1-2.4-2.2-3.2-1v.1c-1 .7-1.5 1.8-1.2 3 .4 1.6 2.5 2.1 3.8 1.3 1.1-.6 1.1-2.3.6-3.4zm-.8 3c-1 .9-3 .3-3.4-.8-.5-1.2.5-2.5 1.6-3.1 1.9-.6 3.2 2.5 1.8 3.9z"/><path fill="#443323" d="M44.6 44.1c-.3-.4-1.3-.4-1.4.2 0 0 0 .1-.1.1-.3.4-.3.9 0 1.3.4.5 1.3.7 1.6 0 .4-.5.2-1.2-.1-1.6zm-.1 1.3c-.1.4-.4.5-.8.3s-.6-.5-.5-.9c.1-.3.3-.6.6-.7.1 0 .2 0 .3.2.4.3.5.7.4 1.1zm-35.6-.8c-.2-1.2-1.6-2.6-2.8-2-2.1.2-2.6 4.9.3 5 1.7.1 2.7-1.4 2.5-3zm-2.5 2.6c-2.2 0-2.1-3.3-.7-4.1.6 0 1.1-.2 1.7.1.6.3.9.9 1 1.4.5 1.4-.6 2.6-2 2.6z"/><path fill="#443323" d="M7.4 44.4c-.1-.2-.3-.4-.6-.5-.2 0-.5 0-.7.1-.4.2-.6.7-.5 1.1.1.7.7 1 1.3.7.6-.2.7-.9.5-1.4zm-.5 1c-.3.3-.8 0-.8-.3 0-.2 0-.4.1-.5 0-.1.1-.1.2-.2.3 0 .5-.2.7.1.1.3 0 .7-.2.9z"/><g fill-rule="evenodd" clip-rule="evenodd" fill="#443323"><path d="M25 30.2c.2-.5.3-1 .4-1.5v-.4c-.2-1.2-.3-2.4-.7-3.6-.5-1.7-1.4-3.2-2.4-4.6-.9-1.1-1.9-2.1-3.2-2.8-.2-.1-.4-.2-.5-.1-.7 0-1.3.2-1.8.8-.2.2-.3.4-.3.6 0 .2-.1.5 0 .7.1 1 .3 2 1.1 2.6.3.3.6.6.9.8.4.3.7.8.9 1.2.4 1 .6 2 .6 3 0 .7.1 1.3.2 1.9.2.9.7 1.6 1.6 2 .5.2 1 .3 1.5.1.4-.2.8-.3 1.2-.5.2.1.4 0 .5-.2zm-1.1.1c-.1 0-.2.1-.3.1-1 .6-1.8.2-2.4-.7-.2-.3-.3-.7-.4-1-.1-.4-.2-.8-.1-1.1.1-.9-.2-1.8-.3-2.6-.2-1-.6-1.9-1.5-2.5l-.6-.6c-.8-.5-1-1.3-1.1-2.2V19c.1-.6.4-.9 1-1 .4-.1.8 0 1.2.3.8.5 1.3 1 2.1 2 0 .4-.4.5-.5.8-.2.3-.5.5-.7.7v.2c.1.1.2.1.2.1.2-.2.5-.3.7-.5.2-.2.3-.4.4-.5.1-.1.3-.1.4-.1.2.1.2.3.1.5-.2.4-.4.7-.8.9-.1.1-.2.1-.3.3 0 0 0 .2.1.2 0 0 .1.1.1 0 .3-.2.6-.3.8-.5.2-.1.3-.3.5-.5.6.2.7.7.8 1.2 0 0 .1 0 .1.1.1.2.2.5.3.7-.4.6-1 .9-1.7.8l-.1.1c0 .1.1.2.1.2.2.1.3.2.5.1.3-.1.5-.2.8-.3.2-.1.3-.1.6-.2.5 1.2.7 2.4.8 3.6 0 .4-.1.7-.1 1.1-.1.4-.3.8-.7 1zm13-9.5c-.3-.6-.7-1-1.3-1.3-.4-.2-.8-.4-1.3-.6-.1-.1-.3-.1-.4-.1-.7 0-1.4-.3-2.1 0-.3.1-.6.1-.8.1-.3.3-.6.5-.9.7-.2.2-.5.4-.7.7-.5.8-1 1.7-1.1 2.7-.1.8 0 1.6.2 2.4.2.5.4.8.8 1.2.4.3.8.6 1.3.8 1.2.4 2.4.3 3.6.2.2 0 .5-.1.7-.2 1.8-.8 2.8-2.3 2.6-4.4.2-.9-.2-1.5-.6-2.2zm-.4 4.8c-.1.2-.2.3-.4.4-.1.1-.3.2-.5.3-.8.5-1.6.8-2.5.7-1 .1-2-.2-2.9-.6-.4-.2-.7-.6-.9-1-.5-1.1-.4-2.2 0-3.3.2-.5.4-.9.7-1.4.5-.9 1.3-1.3 2.3-1.4 1.3-.2 2.3.3 3.3.9.2.1.4.3.5.5.4.6.7 1.2.9 1.9.3 1.1.1 2.1-.5 3zm-21.8-2.7c.1-.1.2-.3.3-.5.4-1.1-.2-1.9-1.3-1.9h-.2c-.4-.1-.8 0-1.2.3-.1.1-.2.3-.3.4-.1.1-.1.3-.1.4-.1.6.2 1.1.6 1.4.6.5 1.8.3 2.2-.1zm-2.2-.7c-.1-.3 0-.6.1-.8 0-.1.1-.1.2-.2.3-.1.5-.2.8-.2.4-.1.7.2.8.6.1.6-.2 1-.8 1.1h-.4c-.2.1-.6-.2-.7-.5zm13 13.6c-.5 0-.9.4-1 .9 0 .2 0 .4-.1.6 0 .2.1.3.1.5.2.6 1.1.9 1.7.6.4-.3.9-.6 1.1-1 .1-.3.1-.6-.1-.8-.5-.6-1-.9-1.7-.8zm.2 2c-.1 0-.3 0-.4-.1-.1 0-.1-.1-.2-.2-.3-.5.1-1.2.7-1.3.3 0 .8.3.9.6v.2c-.2.4-.5.7-1 .8zM15.5 27.2c.3-.2.5-.6.4-1.2 0-.1 0-.4-.2-.6-.4-.6-1.1-.7-1.8-.6h-.1c-.9.4-1.2 1.4-.7 2.1l.3.3c.4.5 1 .6 1.5.4.3-.2.5-.3.6-.4zm-1.3-.1c-.1 0-.3-.1-.4-.2-.3-.4-.3-.9 0-1.3.3-.3.6-.3.9-.2.3.1.5.2.6.6.1.3.1.7-.3.9-.2 0-.4.2-.8.2zm4.5 3.6c-.3-.2-.7-.2-1 .1-.1.1-.2.3-.4.4-.4.4-.5.9-.3 1.4.3.7 1 1 1.6.6.3-.2.6-.4.9-.7.1-.1.2-.3.2-.5-.1-.2-.1-.4-.2-.6-.2-.2-.5-.5-.8-.7zm.2 1.7c-.2.1-.4.3-.6.4-.2.1-.5 0-.6-.2-.1-.2-.1-.4-.1-.5 0-.2.1-.4.3-.5.2-.1.5-.2.8-.3l.3.3c.1.4.1.6-.1.8zm11.6.4c-.2-.1-.4-.1-.4-.1-1 0-1.6.4-1.9 1.3v.5c.4.6 1 1 1.8.7.6-.2.9-.6 1-1.2v-.3c0-.5-.1-.8-.5-.9zm-.9 1.9c-.2 0-.5 0-.6-.2-.1-.2-.2-.3-.1-.5.1-.3.3-.6.7-.6.2 0 .4-.1.6-.1.1.1.2.2.2.3 0 .5-.3.9-.8 1.1zm-12.9-5.9l-.6-.3c-.8-.4-1-.4-1.4.5-.1.3-.2.5-.2.8 0 .4.3.8.7 1 .2.1.4.1.5.1.3-.1.5-.1.7-.2.4-.2.6-.4.7-.8.1-.5 0-.9-.4-1.1zm-.9 1.3c-.3 0-.6-.2-.6-.4-.1-.4.2-.8.5-.8.4 0 .8.3.8.6.1.4-.2.6-.7.6zm18.1.1c-.1-.1-.3-.2-.4-.3-.5.1-.9.1-1.3.2-.2 0-.3.2-.4.4-.3 1.1-.3 1.4.8 1.8.3.1.5.1.8 0 .1-.1.2-.1.4-.2.4-.2.6-.9.5-1.2-.1-.3-.2-.5-.4-.7zm-1 1.6c-.3 0-.4-.2-.5-.4-.1-.3 0-.6.3-.7.1-.1.2-.1.4-.2.4-.2.8 0 .8.5-.1.5-.5.9-1 .8zm-11.2 2c-.4-.2-.8-.2-1.2.2l-.3.3c-.5.5-.2 1.5.4 1.6.2.1.4.1.5.2.4.1.7-.1.9-.5.1-.2.1-.4.1-.5v-.6c.1-.3-.1-.6-.4-.7zm-.1 1.4c-.1.2-.3.3-.6.3-.3-.1-.4-.3-.3-.5.1-.2.1-.3.2-.5 0-.1.2-.1.3-.1.1.1.2.1.3.2.2.1.2.4.1.6z"/><path d="M42 20.3c-.1-.2-.1-.5-.1-.7 0-.2 0-.4-.1-.5-.2-.6-.5-1.1-.8-1.7-.1-.2-.3-.4-.4-.5-1.7-1.3-3.6-2.1-5.7-2-.3 0-.7.1-1 0-.6 0-1.1.1-1.7.1-.9.1-1.7.5-2.5.8-1.2.5-2.2 1.2-3 2.2-.3.4-.6.8-.9 1.3-.1.1-.1.2-.2.3-.1.1-.2.1-.2.1-.1 0-.2-.1-.2-.2-.5-1.6-1.6-2.9-2.7-4.1-.2-.2-.4-.3-.6-.4-.6-.3-1.2-.5-1.8-.7-.5-.2-1-.2-1.5-.3H18c-.2 0-.5.1-.7.2-.7.1-1.3.3-1.9.5-.6.2-1.2.4-1.8.8-.1.1-.3.1-.4.2-1 .6-1.9 1.1-2.6 2.1-.7.9-1.4 1.8-1.5 3-.4 1-.5 2.1-.4 3.4-.1.6.1 1.5.3 2.3.1.4.2.7.4 1 .4.6.8 1.2 1.3 1.8.2.3.5.6.6.9.2.4.4.8.8 1.1l1.5 1.2c.2.2.5.3.6.5.7.8 1.5 1.4 2.3 2.1.5.4 1.1.8 1.5 1.2.5.5 1 1 1.4 1.6l.4.4c.4.5 1 .9 1.6 1.1 1 .4 2 .7 3 1.3 0 0 .1 0 .1.1.3.2.7.1.9-.1.5-.4 1.1-.8 1.5-1.3 1.5-1.4 3.1-2.6 4.7-3.8 1.3-1 2.7-1.9 3.9-3 1.2-1 2.4-2.1 3.7-3.1.6-.5 1.1-1.1 1.4-1.7.4-.8.7-1.6 1-2.5.4-1.1.4-2.3.5-3.5.1-.4.1-1-.1-1.5zm-.9 1.9c.2 0 .3.2.3.4v.4c0 .4-.2.6-.6.6h-1.1l-.1.1.1.1h1.1c.4 0 .6.3.5.7-.1.2-.1.5-.2.7-.2.6-.4.7-.9.4-.2-.1-.5-.3-.7-.4h-.1c0 .1-.1.2 0 .2l.3.3c.2.2.5.3.7.4.1.1.2.4.1.5-.1.2-.2.3-.2.5-.1.3-.4.3-.7.2-.2-.1-.3-.2-.5-.3l-.3-.3h-.2l-.1.2c.1.2.3.4.5.5.3.2.6.3.8.5-.1.5-.5.8-.8 1.2-.2.2-.4.2-.6 0-.2-.2-.5-.4-.7-.7 0 0-.2 0-.2.1v.1c.1.4.5.6.7.8.1.2.1.4 0 .5-.3.2-.5.4-.8.6-.2.1-.4.1-.5 0l-.6-.6c-.2-.1-.4-.2-.3 0 0 .1 0 .2.1.2l.9.9-.6.6c-.7.6-1.4 1.1-2.1 1.7-.6.4-1.1.9-1.7 1.3-1.3.9-2.5 1.9-3.7 2.8-1 .7-1.9 1.6-2.8 2.4-.2.2-.5.4-.8.6-.4-.2-.8-.4-1.1-.6-.3-.1-.7-.2-1.1-.3-.5-.2-.9-.4-1.4-.6-.4-.2-.7-.4-1-.7-.6-.6-1.2-1.3-1.9-1.9-.2-.2-.5-.5-.7-.6-1-.6-1.9-1.4-2.7-2.2-.6-.5-1.2-1.1-1.8-1.6-.2-.1-.3-.2-.4-.4-.1-.1-.1-.2 0-.4.2-.4.2-.4-.3-.4h-.1c-.3 0-.5 0-.6-.3-.2-.3-.4-.6-.4-1.1.2-.2.4-.5.6-.7-.4-.2-.7.3-1.3.1-.3-.4-.8-.9-1.1-1.5-.1-.2 0-.4.2-.5.3-.2.7-.3 1-.5-.4-.2-.7 0-1 0-.3 0-.5-.2-.6-.5-.1-.3-.1-.6-.1-1s.1-.6.5-.6c.3 0 .7.1.9-.2-.3-.2-.6-.1-1-.2s-.6-.3-.5-.7c0-.5.1-.9.2-1.4 0-.3.2-.4.6-.4h.7c0-.2-.1-.3-.2-.3s-.2-.1-.3-.1c-.4-.2-.5-.4-.4-.9.1-.4.3-.8.6-1.1.1-.1.4-.2.5-.1.3.2.7.4 1 .5.1 0 .2 0 .3-.1-.3-.3-.6-.5-.9-.8-.1-.1-.2-.4-.1-.5.2-.3.5-.6.7-.9.2-.2.5-.2.7 0 .3.3.5.6.8.8h.1c.1 0 .1-.1.1-.2-.2-.3-.4-.6-.6-1-.1-.2 0-.4.1-.5.1-.1.2-.2.4-.2.9-.5.9-.5 1.4.4 0 .1.1.1.2.2h.1l.1-.1c-.1-.3-.1-.6-.2-1 .1-.1.2-.3.4-.3.8-.4 1.7-.4 2.6-.6.2 0 .4 0 .6.1.6.2 1.3.2 1.9.6.1.1.3.1.4.1.4 0 .6.2.9.4.3.3.7.6 1 1 .7 1 1.5 2 1.7 3.2 0 .3.1.6.3.8.1.1.4.2.5 0 .3-.4.6-.9.9-1.3.7-1 1.5-2 2.5-2.6.4-.3.6-.2 1 .2.1.1.2.3.3.4h.1c.1 0 .2-.1.2-.2s-.1-.3-.1-.4c-.1-.2-.2-.3-.3-.5V16l.6-.3c.6-.2 1-.2 1 .6v.3c0 .1.1.3.3.3.1 0 .2-.1.2-.3 0-.3-.1-.6-.1-.8 0-.4.2-.6.6-.6h.3c.2 0 .4.2.4.4v.8c0 .1 0 .3.1.5.1-.1.3-.1.3-.2.1-.2.1-.4.1-.6.1-.9.1-.9 1.1-.9.4 0 .7.3.6.7 0 .3-.1.5-.2.8l.1.1c.1 0 .2 0 .2-.1.2-.4.3-.8.4-1.2.1-.2.3-.3.6-.3.7.1 1 .6.8 1.2-.1.3-.3.7-.4 1 0 0 0 .1.1.1h.1c.1-.1.3-.3.3-.4.2-.4.3-.8.5-1.2 0-.1.2-.1.2-.1.2 0 .4.1.5.2.4.2.6.5.4.9-.1.4-.3.9-.5 1.3 0 .1 0 .2.1.2h.3c.1 0 .1-.1.2-.2.2-.3.3-.7.5-1 0-.1.1-.2.1-.2.1-.1.3-.1.4 0 .5.5.6 1.1.9 1.7 0 .3-.2.6-.4.8l-.6.3c-.3.1-.6.2-1 .4-.2 0-.2.3 0 .3.3 0 .6-.1.8-.2.2-.1.4-.2.5-.3.2-.1.3-.1.5-.2h.1c.1 0 .2.1.3.2.1.1.1.3.1.4.2.9.1 1.3-1.1 1.3-.3 0-.6-.1-.8.2.4.3.9.2 1.4.3z"/><path d="M21.8 26.9c-.1.1-.1.2-.1.2v.5c0 .3 0 .5.1.8.1.3.6.6.9.6.3-.1.6-.2.9-.4.1-.1.3-.3.3-.4.1-.5 0-.9-.4-1.3-.5-.4-1.3-.4-1.7 0zm.8 1.5c-.1 0-.2-.1-.2-.1-.1-.2-.1-.3-.1-.5.1-.3.3-.5.6-.6.2.1.3.3.3.6 0 .2-.3.5-.6.6zm-3.4-9.3zm.1 0h-.7c-.5 0-.8.5-.6 1 0 .1.1.3.2.4.2.3.6.5 1 .4.4-.1.8-.3.9-.8.1-.4-.1-1.1-.8-1zm0 1.1c-.2.1-.4 0-.5-.1 0-.2.3-.4.5-.4.1 0 .2.1.2.2s-.1.2-.2.3zm4 2.9s.1 0 0 0c.1 0 .1 0 0 0 .1 0 .1 0 0 0zm-.7-.1c-.3.3-.8.2-1.1.5 0 0-.1.1 0 .1 0 .1.1.2.1.2h.4c.5-.2.9-.5 1.3-.7-.2-.1-.4-.3-.7-.1zm.3 3c.4.2.7.1 1-.2l.1-.1c-.1-.1-.1-.1-.2-.1-.4 0-.7.1-.9.4zm10.5-4.1h-.1c-.6 0-1.4.8-1.4 1.4 0 .4.2.7.5 1 .3.2.6.3.9.4h.4c.7-.2.9-.8 1-1.4 0-.1 0-.3-.1-.4-.4-.5-.8-.8-1.2-1zm.5 1.6c-.1.3-.3.5-.6.6l-.6-.3c-.2-.1-.2-.3-.2-.5s.1-.4.3-.4c.2-.1.5-.1.7-.1.4 0 .6.4.4.7zm1.5-2.1h-.1l-.1.1c.1.3.3.7.4 1 .1.3.2.5.2.7 0 .8-.2 1.3-.6 2l-.1.1c-.1.1 0 .4.1.3.1 0 .2 0 .2-.1.9-.9 1.1-2.7.2-4 0 0-.1 0-.2-.1z"/><path d="M33.1 26c-.4.1-.9.2-1.3.1 0-.1-.1-.1-.1-.1-.5-.1-.8-.3-1.1-.6-.1-.4-.3-.7-.4-1-.1-.2-.1-.5-.1-.7.3-.8.5-1.6 1.2-2.2l.3-.3v-.1c-.1 0-.2-.1-.3-.1-.1 0-.2.1-.2.1-.6.5-.9 1-1 1.8-.4.8-.2 1.5.1 2.3.1.1.1.3.2.4.1.2.3.4.4.5 0 .1.1.1.1.1.7.5 1.5.6 2.4.3l.1-.1c-.2-.4-.3-.4-.3-.4zm1.1-5.1s.2-.1.2-.2-.1-.2-.1-.2c-.3-.1-.7-.2-1-.3-.1 0-.2 0-.2.1l-.1.1v.2l1.2.3z"/></g><path fill="#443323" d="M51.3 26.8v-13c0-3.4.2-6.9 0-10.3-.1-1.9-.4-3.3-2.5-3.5-1.6-.1-3.2.1-4.8.1-1.8 0-3.7.1-5.5.2-3.5.2-7 .2-10.5.1s-7 .1-10.4 0C14.1.3 10.6.6 7 .5 5 .4 1.9-.1.7 1.8.2 2.6.1 3.7.2 4.7c-.1 3.6.2 7.2 0 10.8-.1 3.9 0 7.7.2 11.6C.6 34.4-.4 41.7.1 49v.1c.1 1.1.1 2.1.8 2.9.9 1 3 .3 4.1.3 4.2-.1 8.4-.3 12.6-.4 4.3-.1 8.5 0 12.8 0 4.2 0 8.4-.3 12.6-.4 1.9 0 3.7.2 5.6.1.9 0 1.6-.3 2-1.2.6-1.3.2-3.2.2-4.5-.1-2.2-.1-4.3 0-6.5.2-4.1.5-8.3.5-12.6zM50.4 43c0 2.3.4 4.8 0 7.1-.2 1.2-1.5 1.2-2.5 1.2-1.3 0-2.6-.1-3.9-.1-5-.1-10.1.4-15.1.4-5.1 0-10.2-.1-15.4.1-2.5.1-5 .2-7.5.2-1.1 0-2.1.1-3.2.2-1.6.2-2.1-.8-2.3-2V50C.4 46.3.2 42.7.4 39c.2-3.8.4-7.6.3-11.3C.7 23.8.4 19.9.5 16c.1-3 .1-5.9-.1-8.9 0 0 .1 0 .1-.1C.5 5.8.4 4.7.4 3.5.5 1.1 2.2.7 4.3.6c2.1-.1 4.1.1 6.2.1C12.7.6 14.8.5 17 .5c4.1.1 8.3 0 12.5.1C33.7.7 37.8.5 42 .3c2-.1 4-.1 6-.1.9 0 1.9 0 2.5.8.6 1 .4 2.5.5 3.6.1 4.3-.1 8.6-.1 12.9 0 4.3 0 8.7.1 13 0 4.2-.6 8.3-.6 12.5z"/><path fill="none" stroke="#443323" stroke-width=".5" stroke-miterlimit="10" d="M49.1 20.3c-.1-2.2-.4-4.3-.3-6.4 0-3.6 2.5-10.8-3.1-11.3-1-.1-2 .1-3 .1-1.4.1-2.8 0-4.1 0-3.6-.1-7.1-.2-10.7-.2-6.7.1-13.3.7-20-.1-1.8-.2-4.6-.4-5.6 1.4h-.1c-.4 1-.3 2-.2 3-.1 1.7-.1 3.4 0 5.1v1.2c-.1 3.8.2 7.6.1 11.4 0 3.9-.1 7.8 0 11.8.1 3.5 0 7 .1 10.5v.1c0 .2 0 .5.1.8v.5c0 .1.1.1.1.2.1.3.3.6.6.8 1.3.7 3 .8 4.5.9 4.3.4 8.6.2 12.9.3 4.2.1 8.3.1 12.5-.2 3.2-.3 6.4.1 9.7 0 1.6 0 4.4-.1 5.4-1.7.6-1 .6-2.5.6-3.6.1-2-.1-4.1.1-6.1s.5-4 .6-5.9c.1-2.2 0-4.3 0-6.5-.1-2.1-.1-4.1-.2-6.1zm-7.7 29.4c-1.7 0-3.4 0-5.1-.1m11.9-9.9c-.2 2 0 4-.1 6m.8-36.5c-.2 1.9-.5 3.7-.5 5.6 0 2.2.3 4.3.4 6.4M2.4 5.3v-.4m0 4.1v-.8l.1-.1M4.3 49"/><path fill="#443323" d="M8.3 4.8c-.6-.9-2.2-1.6-2.8-.4-.9.5-1.3 1.6-1.1 2.7.3 1.6 2.1 1.8 3.3 1.1 1.3-.7 1.2-2.3.6-3.4zm-.6 3c-1.1.8-2.7.6-3-.8-.3-1.2.6-2.6 1.8-2.8 0 0 .1 0 .1-.1h.3c.4.1.8.5 1 .9.6.9.6 2.1-.2 2.8z"/><path fill="#443323" d="M7.1 5.6c-.3-.5-1.1-.6-1.3 0-.2.2-.4.5-.3.7.1.6.7.8 1.2.6.5-.2.7-.8.4-1.3zm-.6 1c-.3.2-.8-.1-.7-.4.1-.3.4-.4.6-.6.2 0 .3.1.4.2.2.3 0 .7-.3.8zm41.1-.8c-.4-1.2-1.9-2-3-1.5-2.1.5-1.8 4.5.8 4.4 1.5-.1 2.7-1.4 2.2-2.9zm-2.3 2.5c-1.9.1-2.2-2.6-.9-3.5 1.2-.2 2.2-.2 2.8 1 .6 1.3-.6 2.4-1.9 2.5z"/><path fill="#443323" d="M46.5 5.5c-.3-.3-.7-.4-1.1-.3-.4.2-.7.5-1 .9 0 .1 0 .1.1.1l.1-.1c0 .1-.1.3 0 .4.1.7.8 1.1 1.4.8.7-.2 1.1-1.2.5-1.8zm-.6 1.6c-.4.2-.8-.1-.9-.5-.1-.3 0-.5.2-.7.3-.2.5-.4.8-.2.6.3.3 1.1-.1 1.4zm.6 36.9c-.5-1-2.4-2.2-3.2-1v.1c-1 .7-1.5 1.8-1.2 3 .4 1.6 2.5 2.1 3.8 1.3 1.1-.6 1.1-2.3.6-3.4zm-.8 3c-1 .9-3 .3-3.4-.8-.5-1.2.5-2.5 1.6-3.1 1.9-.6 3.2 2.5 1.8 3.9z"/><path fill="#443323" d="M44.9 44.4c-.3-.4-1.3-.4-1.4.2 0 0 0 .1-.1.1-.3.4-.3.9 0 1.3.4.5 1.3.7 1.6 0 .3-.5.2-1.2-.1-1.6zm-.1 1.3c-.1.4-.4.5-.8.3s-.6-.5-.5-.9c.1-.3.3-.6.6-.7.1 0 .2 0 .3.2.4.3.5.7.4 1.1zm-35.6-.8c-.2-1.2-1.6-2.6-2.8-2-2.1.2-2.6 4.9.3 5 1.7.1 2.7-1.4 2.5-3zm-2.5 2.6c-2.2 0-2.1-3.3-.7-4.1.6 0 1.1-.2 1.7.1.6.3.9.9 1 1.4.5 1.4-.6 2.6-2 2.6z"/><path fill="#443323" d="M7.7 44.7c-.1-.2-.3-.4-.6-.5-.2 0-.5 0-.7.1-.4.2-.6.7-.5 1.1.1.7.7 1 1.3.7.6-.2.7-.9.5-1.4zm-.5 1c-.3.3-.8 0-.8-.3 0-.2 0-.4.1-.5 0-.1.1-.1.2-.2.3 0 .5-.2.7.1.1.3 0 .7-.2.9z"/><g fill-rule="evenodd" clip-rule="evenodd" fill="#443323"><path d="M25.3 30.5c.2-.5.3-1 .4-1.5v-.4c-.2-1.2-.3-2.4-.7-3.6-.5-1.7-1.4-3.2-2.4-4.6-.9-1.1-1.9-2.1-3.2-2.8-.2-.1-.4-.2-.5-.1-.7 0-1.3.2-1.8.8-.2.2-.3.4-.3.6 0 .2-.1.5 0 .7.1 1 .3 2 1.1 2.6.3.3.6.6.9.8.4.3.7.8.9 1.2.4 1 .6 2 .6 3 0 .7.1 1.3.2 1.9.2.9.7 1.6 1.6 2 .5.2 1 .3 1.5.1.4-.2.8-.3 1.2-.5.2.1.4 0 .5-.2zm-1.1.1c-.1 0-.2.1-.3.1-1 .6-1.8.2-2.4-.7-.2-.3-.3-.7-.4-1-.1-.4-.2-.8-.1-1.1.1-.9-.2-1.8-.3-2.6-.2-1-.6-1.9-1.5-2.5l-.6-.6c-.8-.5-1-1.3-1.1-2.2v-.7c.1-.6.4-.9 1-1 .4-.1.8 0 1.2.3.8.5 1.3 1 2.1 2 0 .4-.4.5-.5.8-.2.3-.5.5-.7.7v.2c.1.1.2.1.2.1.2-.2.5-.3.7-.5.2-.2.3-.4.4-.5.1-.1.3-.1.4-.1.2.1.2.3.1.5-.2.4-.4.7-.8.9-.1.1-.2.1-.3.3 0 0 0 .2.1.2 0 0 .1.1.1 0 .3-.2.6-.3.8-.5.2-.1.3-.3.5-.5.6.2.7.7.8 1.2 0 0 .1 0 .1.1.1.2.2.5.3.7-.4.6-1 .9-1.7.8l-.1.1c0 .1.1.2.1.2.2.1.3.2.5.1.3-.1.5-.2.8-.3.2-.1.3-.1.6-.2.5 1.2.7 2.4.8 3.6 0 .4-.1.7-.1 1.1-.1.4-.3.8-.7 1zm13-9.5c-.3-.6-.7-1-1.3-1.3-.4-.2-.8-.4-1.3-.6-.1-.1-.3-.1-.4-.1-.7 0-1.4-.3-2.1 0-.3.1-.6.1-.8.1-.3.3-.6.5-.9.7-.2.2-.5.4-.7.7-.5.8-1 1.7-1.1 2.7-.1.8 0 1.6.2 2.4.2.5.4.8.8 1.2.4.3.8.6 1.3.8 1.2.4 2.4.3 3.6.2.2 0 .5-.1.7-.2 1.8-.8 2.8-2.3 2.6-4.4.1-.9-.2-1.5-.6-2.2zm-.4 4.8c-.1.2-.2.3-.4.4-.1.1-.3.2-.5.3-.8.5-1.6.8-2.5.7-1 .1-2-.2-2.9-.6-.4-.2-.7-.6-.9-1-.5-1.1-.4-2.2 0-3.3.2-.5.4-.9.7-1.4.5-.9 1.3-1.3 2.3-1.4 1.3-.2 2.3.3 3.3.9.2.1.4.3.5.5.4.6.7 1.2.9 1.9.3 1.1.1 2.1-.5 3zM15 23.2c.1-.1.2-.3.3-.5.4-1.1-.2-1.9-1.3-1.9h-.2c-.4-.1-.8 0-1.2.3-.1.1-.2.3-.3.4-.1.1-.1.3-.1.4-.1.6.2 1.1.6 1.4.5.5 1.8.3 2.2-.1zm-2.2-.7c-.1-.3 0-.6.1-.8 0-.1.1-.1.2-.2.3-.1.5-.2.8-.2.4-.1.7.2.8.6.1.6-.2 1-.8 1.1h-.4c-.2.1-.6-.2-.7-.5zm12.9 13.6c-.5 0-.9.4-1 .9 0 .2 0 .4-.1.6 0 .2.1.3.1.5.2.6 1.1.9 1.7.6.4-.3.9-.6 1.1-1 .1-.3.1-.6-.1-.8-.4-.6-1-.9-1.7-.8zm.3 2c-.1 0-.3 0-.4-.1-.1 0-.1-.1-.2-.2-.3-.5.1-1.2.7-1.3.3 0 .8.3.9.6v.2c-.2.4-.5.7-1 .8zM15.8 27.4c.3-.2.5-.6.4-1.2 0-.1 0-.4-.2-.6-.4-.5-1-.6-1.7-.6h-.1c-.9.4-1.2 1.4-.7 2.1l.3.3c.4.5 1 .6 1.5.4.2-.1.3-.2.5-.4zm-1.3 0c-.1 0-.3-.1-.4-.2-.3-.4-.3-.9 0-1.3.3-.3.6-.3.9-.2.3.1.5.2.6.6.1.3.1.7-.3.9-.2 0-.4.2-.8.2zM19 31c-.3-.2-.7-.2-1 .1-.1.1-.2.3-.4.4-.4.4-.5.9-.3 1.4.3.7 1 1 1.6.6.3-.2.6-.4.9-.7.1-.1.2-.3.2-.5-.1-.2-.1-.4-.2-.6-.2-.2-.5-.5-.8-.7zm.1 1.7c-.2.1-.4.3-.6.4-.2.1-.5 0-.6-.2-.1-.2-.1-.4-.1-.5 0-.2.1-.4.3-.5.2-.1.5-.2.8-.3l.3.3c.2.4.2.6-.1.8zm11.6.4c-.1-.1-.3-.1-.4-.1-1 0-1.6.4-1.9 1.3v.5c.4.6 1 1 1.8.7.6-.2.9-.6 1-1.2V34c.1-.5-.1-.8-.5-.9zm-.9 1.9c-.2 0-.5 0-.6-.2-.1-.2-.2-.3-.1-.5.1-.3.3-.6.7-.6.2 0 .4-.1.6-.1.1.1.2.2.2.3.1.5-.2.9-.8 1.1zM17 29.1l-.6-.3c-.8-.4-1-.4-1.4.5-.1.3-.2.5-.2.8 0 .4.3.8.7 1 .2.1.4.1.5.1.3-.1.5-.1.7-.2.4-.2.6-.4.7-.8.1-.5 0-.9-.4-1.1zm-.9 1.3c-.3 0-.6-.2-.6-.4-.1-.4.2-.8.5-.8.4 0 .8.3.8.6 0 .4-.2.6-.7.6zm18.1.1c-.1-.1-.3-.2-.4-.3-.5.1-.9.1-1.3.3-.2 0-.3.2-.4.4-.3 1.1-.3 1.4.8 1.8.3.1.5.1.8 0 .1-.1.2-.1.4-.2.4-.2.6-.9.5-1.2-.1-.4-.2-.6-.4-.8zm-1.1 1.6c-.3 0-.4-.2-.5-.4-.1-.3 0-.6.3-.7.1-.1.2-.1.4-.2.4-.2.8 0 .8.5s-.5.9-1 .8zm-11.1 2c-.4-.2-.8-.2-1.2.2l-.3.3c-.5.5-.2 1.5.4 1.6.2.1.4.1.5.2.4.1.7-.1.9-.5.1-.2.1-.4.1-.5v-.6c.1-.3-.1-.6-.4-.7zm-.1 1.4c-.1.2-.3.3-.6.3-.3-.1-.4-.3-.3-.5.1-.2.1-.3.2-.5 0-.1.2-.1.3-.1.1.1.2.1.3.2.2.1.2.4.1.6z"/><path d="M42.3 20.6c-.1-.2-.1-.5-.1-.7 0-.2 0-.4-.1-.5-.2-.6-.5-1.1-.8-1.7-.1-.2-.3-.4-.4-.5-1.7-1.3-3.6-2.1-5.7-2-.3 0-.7.1-1 0-.6 0-1.1.1-1.7.1-.9.1-1.7.5-2.5.8-1.2.5-2.2 1.2-3 2.2-.3.4-.6.8-.9 1.3-.1.1-.1.2-.2.3-.1.1-.2.1-.2.1-.1 0-.2-.1-.2-.2-.5-1.6-1.6-2.9-2.7-4.1-.2-.2-.4-.3-.6-.4-.6-.3-1.2-.5-1.8-.7-.5-.2-1-.2-1.5-.3h-.6c-.2 0-.5.1-.7.2-.7.1-1.3.3-1.9.5-.6.2-1.2.4-1.8.8-.1.1-.3.1-.4.2-1 .6-1.9 1.1-2.6 2.1-.7.9-1.4 1.8-1.5 3-.4 1-.5 2.1-.4 3.4-.1.6.1 1.5.3 2.3.1.4.2.7.4 1 .4.6.8 1.2 1.3 1.8.2.3.5.6.6.9.2.4.4.8.8 1.1l1.5 1.2c.2.2.5.3.6.5.7.8 1.5 1.4 2.3 2.1.5.4 1.1.8 1.5 1.2.5.5 1 1 1.4 1.6l.4.4c.4.5 1 .9 1.6 1.1 1 .4 2 .7 3 1.3 0 0 .1 0 .1.1.3.2.7.1.9-.1.5-.4 1.1-.8 1.5-1.3 1.5-1.4 3.1-2.6 4.7-3.8 1.3-1 2.7-1.9 3.9-3 1.2-1 2.4-2.1 3.7-3.1.6-.5 1.1-1.1 1.4-1.7.4-.8.7-1.6 1-2.5.4-1.1.4-2.3.5-3.5.1-.4.1-1-.1-1.5zm-.9 1.9c.2 0 .3.2.3.4v.4c0 .4-.2.6-.6.6H40l-.1.1.1.1h1.1c.4 0 .6.3.5.7-.1.2-.1.5-.2.7-.2.6-.4.7-.9.4-.2-.1-.5-.3-.7-.4h-.1c0 .1-.1.2 0 .2l.3.3c.2.2.5.3.7.4.1.1.2.4.1.5-.1.2-.2.3-.2.5-.1.3-.4.3-.7.2-.2-.1-.3-.2-.5-.3l-.3-.3h-.2l-.1.2c.1.2.3.4.5.5.3.2.6.3.8.5-.1.5-.5.8-.8 1.2-.2.2-.4.2-.6 0-.2-.2-.5-.4-.7-.7 0 0-.2 0-.2.1v.1c.1.4.5.6.7.8.1.2.1.4 0 .5-.3.2-.5.4-.8.6-.2.1-.4.1-.5 0l-.6-.6c-.2-.1-.4-.2-.3 0 0 .1 0 .2.1.2l.9.9-.6.6c-.7.6-1.4 1.1-2.1 1.7-.6.4-1.1.9-1.7 1.3-1.3.9-2.5 1.9-3.7 2.8-1 .7-1.9 1.6-2.8 2.4-.2.2-.5.4-.8.6-.4-.2-.8-.4-1.1-.6-.3-.1-.7-.2-1.1-.3-.5-.2-.9-.4-1.4-.6-.4-.2-.7-.4-1-.7-.6-.6-1.2-1.3-1.9-1.9-.2-.2-.5-.5-.7-.6-1-.6-1.9-1.4-2.7-2.2-.6-.5-1.2-1.1-1.8-1.6-.2-.1-.3-.2-.4-.4-.1-.1-.1-.2 0-.4.2-.4.2-.4-.3-.4h-.1c-.3 0-.5 0-.6-.3-.2-.3-.4-.6-.4-1.1.2-.2.4-.5.6-.7-.4-.2-.7.3-1.3.1-.3-.4-.8-.9-1.1-1.5-.1-.2 0-.4.2-.5.3-.2.7-.3 1-.5-.4-.2-.7 0-1 0-.3 0-.5-.2-.6-.5-.1-.3-.1-.6-.1-1s.1-.6.5-.6c.3 0 .7.1.9-.2-.3-.2-.6-.1-1-.2s-.6-.3-.5-.7c0-.5.1-.9.2-1.4 0-.3.2-.4.6-.4h.7c0-.2-.1-.3-.2-.3s-.2-.1-.3-.1c-.7-.1-.8-.3-.7-.8.1-.4.3-.8.6-1.1.1-.1.4-.2.5-.1.3.2.7.4 1 .5.1 0 .2 0 .3-.1-.3-.3-.6-.5-.9-.8-.1-.1-.2-.4-.1-.5.2-.3.5-.6.7-.9.2-.2.5-.2.7 0 .3.3.5.6.8.8h.1c.1 0 .1-.1.1-.2-.2-.3-.4-.6-.6-1-.1-.2 0-.4.1-.5.1-.1.2-.2.4-.2.9-.5.9-.5 1.4.4 0 .1.1.1.2.2h.1l.1-.1c-.1-.3-.1-.6-.2-1 .1-.1.2-.3.4-.3.8-.4 1.7-.4 2.6-.6.2 0 .4 0 .6.1.6.2 1.3.2 1.9.6.1.1.3.1.4.1.4 0 .6.2.9.4.3.3.7.6 1 1 .7 1 1.5 2 1.7 3.2 0 .3.1.6.3.8.1.1.4.2.5 0 .3-.4.6-.9.9-1.3.7-1 1.5-2 2.5-2.6.4-.3.6-.2 1 .2.1.1.2.3.3.4h.1c.1 0 .2-.1.2-.2s-.1-.3-.1-.4c-.1-.2-.2-.3-.3-.5v-.2l.6-.3c.6-.2 1-.2 1 .6v.3c0 .1.1.3.3.3.1 0 .2-.1.2-.3 0-.3-.1-.6-.1-.8 0-.4.2-.6.6-.6h.3c.2 0 .4.2.4.4v.8c0 .1 0 .3.1.5.1-.1.3-.1.3-.2.1-.2.1-.4.1-.6.1-.9.1-.9 1.1-.9.4 0 .7.3.6.7 0 .3-.1.5-.2.8l.1.1c.1 0 .2 0 .2-.1.2-.4.3-.8.4-1.2.1-.2.3-.3.6-.3.7.1 1 .6.8 1.2-.1.3-.3.7-.4 1 0 0 0 .1.1.1h.1c.1-.1.3-.3.3-.4.2-.4.3-.8.5-1.2 0-.1.2-.1.2-.1.2 0 .4.1.5.2.4.2.6.5.4.9-.1.4-.3.9-.5 1.3 0 .1 0 .2.1.2h.3c.1 0 .1-.1.2-.2.2-.3.3-.7.5-1 0-.1.1-.2.1-.2.1-.1.3-.1.4 0 .5.5.6 1.1.9 1.7 0 .3-.2.6-.4.8l-.6.3c-.3.1-.6.2-1 .4-.2 0-.2.3 0 .3.3 0 .6-.1.8-.2.2-.1.4-.2.5-.3.2-.1.3-.1.5-.2h.1c.1 0 .2.1.3.2.1.1.1.3.1.4.2.9.1 1.3-1.1 1.3-.3 0-.6-.1-.8.2.7.2 1.2 0 1.7.2z"/><path d="M22.1 27.2c-.1.1-.1.2-.1.2v.5c0 .3 0 .5.1.8.1.3.6.6.9.6.3-.1.6-.2.9-.4.1-.1.3-.3.3-.4.1-.5 0-.9-.4-1.3-.5-.4-1.3-.4-1.7 0zm.7 1.5c-.1 0-.2-.1-.2-.1-.1-.2-.1-.3-.1-.5.1-.3.3-.5.6-.6.2.1.3.3.3.6.1.2-.2.5-.6.6zm-3.3-9.3zm.1 0h-.7c-.5 0-.8.5-.6 1 0 .1.1.3.2.4.2.3.6.5 1 .4.4-.1.8-.3.9-.8.1-.4-.1-1.1-.8-1zm0 1.1c-.2.1-.4 0-.5-.1 0-.2.3-.4.5-.4.1 0 .2.1.2.2s-.1.2-.2.3zm4 2.9s.1 0 0 0c.1 0 .1 0 0 0 .1 0 0 0 0 0zm-.7-.1c-.3.3-.8.2-1.1.5 0 0-.1.1 0 .1 0 .1.1.2.1.2h.4c.5-.2.9-.5 1.3-.7-.2-.1-.5-.3-.7-.1zm.3 3c.4.2.7.1 1-.2l.1-.1c-.1-.1-.1-.1-.2-.1-.4 0-.7.1-.9.4zm10.5-4.1h-.1c-.6 0-1.4.8-1.4 1.4 0 .4.2.7.5 1 .3.2.6.3.9.4h.4c.7-.2.9-.8 1-1.4 0-.1 0-.3-.1-.4-.4-.5-.8-.8-1.2-1zm.5 1.6c-.1.3-.3.5-.6.6l-.6-.3c-.2-.1-.2-.3-.2-.5s.1-.4.3-.4c.2-.1.5-.1.7-.1.4 0 .6.4.4.7zm1.5-2.1h-.1l-.1.1c.1.3.3.7.4 1 .1.3.2.5.2.7 0 .8-.2 1.3-.6 2l-.1.1c-.1.1 0 .4.1.3.1 0 .2 0 .2-.1.9-.9 1.1-2.7.2-4 0 0-.1 0-.2-.1z"/><path d="M33.4 26.3c-.4.1-.9.2-1.3.1 0-.1-.1-.1-.1-.1-.5-.1-.8-.3-1.1-.6-.1-.4-.3-.7-.4-1-.1-.2-.1-.5-.1-.7.3-.8.5-1.6 1.2-2.2l.3-.3v-.1c-.1 0-.2-.1-.3-.1-.1 0-.2.1-.2.1-.6.5-.9 1-1 1.8-.4.8-.2 1.5.1 2.3.1.1.1.3.2.4.1.2.3.4.4.5 0 .1.1.1.1.1.7.5 1.5.6 2.4.3l.1-.1c-.2-.4-.3-.4-.3-.4zm1.1-5.1s.2-.1.2-.2-.1-.2-.1-.2c-.3-.1-.7-.2-1-.3-.1 0-.2 0-.2.1l-.1.1v.2l1.2.3z"/></g></svg>