<svg xmlns="http://www.w3.org/2000/svg" viewBox="0 0 121.3 32.7"><path fill="#C4B090" d="M6.9 0c17 .6 33.9 1.1 50.8 1.6s33.8.9 50.8 1.6c6.5.4 10.5 4.4 12.1 9.5.6 2 .9 4.2.7 6.3-.2 2.1-.7 4.3-1.7 6.2-2.4 4.7-7.2 8.1-14.5 7.5-17.4-3.7-34.6-7.6-51.8-11.5-17.2-4-34.4-7.9-51.8-11.6h-.2l-.2-.2C.3 8.5-.1 6.9 0 5.4c.1-.7.2-1.4.5-2.1.3-.7.8-1.3 1.4-1.9C3 .5 4.6-.1 6.9 0zm50.7 2.7c-16.9-.4-33.8-.9-50.8-1.5-1.9-.2-3.3.3-4.2 1.1-.5.4-.8.9-1 1.4-.3.6-.4 1.2-.4 1.8-.1 1.2.2 2.3.7 3 17.3 3.7 34.4 7.6 51.6 11.5 17.2 3.9 34.3 7.7 51.8 11.5 6.7.6 11.1-2.5 13.3-6.8.9-1.8 1.4-3.7 1.6-5.7.2-2-.1-4-.7-5.9-1.5-4.6-5.2-8.3-11.1-8.7-17-.7-33.9-1.2-50.8-1.7z"/></svg>