<svg xmlns="http://www.w3.org/2000/svg" viewBox="0 0 8 7.9"><path fill="#C4B090" d="M.2.9c-.1.2-.1.3-.1.4C0 1.6-.4 3.7 2 6c2.5 2.4 4.5 1.9 4.8 1.7.1 0 .2 0 .3-.1.2-.1.6-.4.8-.6.2-.3.1-.5-.1-.6L6 5.1c-.2-.1-.5-.1-.6.1l-.5.7s0 .1-.1.1c0 0-.6.4-1.7-.8-1.2-1.1-1.3-1.7-1.2-2.1 0 0 .1 0 .1-.1l.7-.5c.2-.1.2-.3.1-.5L1.4.2C1.3 0 1.1-.1.8.1.6.3.3.7.2.9zm6.3 3.3c-.1 0-.1 0-.1-.1C6 2.9 5 2 3.8 1.6c-.1 0-.1-.1-.1-.2s.1-.1.2-.1c1.3.4 2.3 1.4 2.7 2.7.1.1 0 .2-.1.2z"/><path fill="#C4B090" d="M7.7 4.3c-.1 0-.1-.1-.1-.1C7.2 2.4 5.9.9 4.1.5 4 .4 3.9.4 3.9.3c.1-.1.1-.1.2-.1 1.9.5 3.4 2 3.7 4 .1 0 0 .1-.1.1z"/></svg>