<svg xmlns="http://www.w3.org/2000/svg" viewBox="0 0 27.1 27.1"><path fill-rule="evenodd" clip-rule="evenodd" fill="#3D3323" d="M1.2 13.3L.4 13l-.4-.2v-.4l.4-.1.9-.2-.8-.4-.3-.2.1-.4.4-.1h.8l-.7-.5-.3-.2.1-.4h1.3l-.8-.6-.3-.2.1-.4h1.3l-.7-.6-.3-.2.2-.4.4.1.9.1-.6-.7-.3-.3.2-.3.4.1.9.2-.5-.7-.3-.3.2-.3.4.1.9.3-.5-.8-.2-.3.3-.3.4.2.8.4-.4-.9-.2-.4.3-.3.3.2.8.4-.3-.7-.1-.4.3-.2.3.2.7.5-.2-.9-.1-.3.3-.2.3.3.7.6-.1-1-.1-.4.3-.2.4.3.6.6-.1-.8V1l.4-.1.2.3.6.7V.6l.4-.1.2.3.5.8.1-.9V.3l.4-.1.2.3.4.8.2-.9.1-.4h.4l.1.4.3.8.3-.9.2-.3h.4l.1.4.3.9.4-.8.2-.4h.4l.1.4.2.9.4-.8V.2l.4.1v.4l.1.9.5-.7.2-.3.4.1V2l.6-.7.2-.3.4.1v.4l-.1.9.6-.6.3-.3.4.1-.1.4-.2.9.7-.6.3-.2.3.2v.4l-.2.9.7-.6.3-.2.3.2-.1.4-.3.8.8-.4.3-.2.3.3-.2.3-.4.8.8-.4.4-.2.3.3-.2.3-.5.8.9-.3.4-.1.2.3-.2.3-.5.7.9-.2.4-.1V7l-.3.3-.6.7.9-.1h.4l.2.2-.3.3-.7.6h1.3l.1.4-.3.2-.6.4h1.1l.1.4-.3.2-.6.4.8.1.4.1.1.4-.3.2-.8.2.7.2.4.1v.4l-.4.1-.6.2.6.2.4.1v.4l-.4.1-.9.3.8.3.4.2v.4l-.4.1-.9.2.8.4.3.2-.1.4h-.4l-.9.1.7.5.3.2-.1.4H25l.7.6.3.2-.1.4h-.4l-.9-.1.6.6.3.3-.2.3-.4-.1-.9-.1.6.7.3.3v.4l-.4-.1-.9-.2.5.7.2.3-.2.3-.4-.1-.8-.3.4.8.2.3-.2.3-.4-.2-.8-.4.4.8.2.4-.3.3-.4-.2-.8-.5.3.8.1.4-.3.2-.3-.2-.7-.5.2.9.1.4-.3.2-.3-.3-.7-.6.1.9.1.4-.4.2-.3-.3-.5-.7v1.3l-.4.1-.2-.3-.5-.7v1.3l-.4.1-.2-.3-.6-.8-.1.9-.1.4h-.4l-.2-.3-.4-.8-.2.8-.1.4h-.4l-.1-.4-.3-.8-.3.8-.1.4h-.4l-.1-.4-.2-.8-.4.8-.2.3h-.4l-.1-.4-.2-.9-.4.8-.2.3-.4-.1v-.4l-.1-.9-.5.7-.2.3-.4-.1V25l-.6.7-.2.3-.4-.2v-.4l.1-.9-.6.6-.3.3-.3-.2.1-.4.2-.9-.7.5-.4.4-.3-.2.1-.4.3-.8-.7.5-.4.2-.3-.3.1-.4.3-.8-.7.4-.3.2-.3-.3.2-.3.4-.8-.8.3-.4.1-.3-.2.2-.3.5-.7-.8.2-.4.1-.2-.3.2-.3.6-.7-.9.2-.4.1-.2-.3.3-.3.6-.6-.9-.1h-.4l-.1-.3.3-.3.7-.5H.7l-.1-.4.3-.2.7-.5-.9-.1H.3l-.1-.4.4-.3.8-.4-.9-.2-.4-.1v-.4l.4-.2.8-.4-.8-.2H0v-.4l.4-.1.8-.3zm11.1.3c0 .7.6 1.3 1.3 1.3s1.3-.6 1.3-1.3c0-.7-.6-1.3-1.3-1.3s-1.3.5-1.3 1.3zm.9-4.1c1.5-.9 2-2.8 1.1-4.3-.9-1.5-2.8-2-4.3-1.2-1.5.9-2 2.8-1.2 4.3 1 1.6 2.9 2.1 4.4 1.2zm-3.1 6.4c-1.5-.9-3.4-.4-4.3 1.1-.9 1.5-.4 3.4 1.2 4.3 1.5.9 3.4.4 4.3-1.1.8-1.5.3-3.5-1.2-4.3zm7.1-.5c0 1.7 1.4 3.1 3.1 3.1 1.7 0 3.1-1.4 3.1-3.1 0-1.7-1.4-3.1-3.1-3.1-1.7-.1-3.1 1.3-3.1 3.1z"/></svg>