<svg xmlns="http://www.w3.org/2000/svg" viewBox="0 0 24.9 24.9"><g fill-rule="evenodd" clip-rule="evenodd" fill="#493D29"><path d="M0 12.2L.1 11l.2-1.2.3-1.1.4-1.1.5-1.1.6-1 .7-.9.8-.9.9-.8.9-.7 1-.6 1.1-.5L8.6.7 9.7.4l1.2-.2L12 0h1.2l1.2.1 1.2.2 1.1.3 1.1.4 1 .5 1 .6.9.7.8.8.8.9.7 1 .6 1 .4 1.3.3 1V9l.2.9v.1l.2.9v.2l.1.9v1.2l-.1 1.2-.2 1.2-.3 1.1-.4 1.1-.5 1-.6 1-.7.9-.8.9-.9.8-1 .7-1 .6-1.1.3-1.1.4-1.1.3-1.2.2-1.2.1h-1.2l-1.2-.1-1.1-.3-1.1-.5-1.1-.5-1-.6-1-.7-.9-.7-.8-.8-.7-.9-.7-1-.6-1-.5-1.1-.4-1.1-.2-1.1-.1-1.3v-1.1zm11.9.2c0 .3.3.6.6.6s.6-.3.6-.6-.3-.6-.6-.6c-.4.1-.6.3-.6.6zm0-4c1-.6 1.4-1.9.8-3-.6-1-1.9-1.4-3-.8-1 .6-1.4 1.9-.8 3 .6 1.1 1.9 1.4 3 .8zM9.1 15c-1-.6-2.4-.2-3 .8-.6 1-.2 2.4.8 3s2.4.2 3-.8c.7-1.1.3-2.4-.8-3zm7.1-1c0 1.2 1 2.2 2.2 2.2 1.2 0 2.2-1 2.2-2.2 0-1.2-1-2.2-2.2-2.2-1.2.1-2.2 1-2.2 2.2z"/><path d="M1.6 12.2l-.7-.3-.3-.1v-.3l.4-.1.8-.2-.8-.4-.3-.2.1-.3h.3l.8-.1-.7-.4-.3-.2.1-.4h1.1l-.6-.5-.2-.2.1-.3h1.1l-.6-.5-.2-.2.1-.3h.3l.8.1-.5-.6-.2-.2.2-.3.3.1.8.2-.5-.7-.2-.3.2-.2.3.1.7.3-.3-.8-.2-.2.2-.3.3.1.7.3-.3-.7-.1-.3.3-.2.3.2.7.4-.4-.8-.1-.3.3-.2.3.2.6.5-.2-.8-.1-.3.3-.2.3.2.6.5-.1-.8-.1-.3.3-.2.2.3.5.6V1.5l.3-.1.2.3.5.5V1.1l.4-.1.2.3.4.6.1-.8V.8l.3-.1.3.3.3.7.2-.7.1-.3h.3l.1.3.3.6.2-.7.1-.3h.3l.1.3.2.8.3-.7.1-.3h.3l.3.3.2.8.4-.7.2-.3h.3v.3l.1.9.4-.7.2-.3.3.1v1.1l.5-.6.2-.3.3.1v1.2l.6-.6.2-.2.3.2-.1.3-.1.8.6-.5.3-.2.3.2-.1.3-.2.8.7-.4.2-.3.3.2-.1.3-.3.7.7-.4.3-.2.2.4-.2.3-.3.7.7-.3.3-.1.2.3-.2.3-.3.6.7-.2.3-.2.2.3-.2.3-.5.6.8-.2.3-.1.2.3-.2.3-.5.6.8-.1h.3l.1.3-.3.2-.6.5h1.1l.1.3-.3.2-.3.4h.9l.1.4-.3.2-.6.4.7.1h.3l.1.3-.3.2-.6.3.6.1.3.1v.3l-.2.1-.6.2.5.2.3.1v.3l-.2.1-.8.3.7.3.3.1v.3l-.3.1-.7.2.7.4.3.2-.1.3h-.3l-.8.1.6.4.3.2-.1.3h-1.1l.6.5.3.2-.2.4h-.3l-.8-.1.6.5.2.2-.2.4-.3-.1-.8-.1.5.6.2.3-.1.3-.4-.1-.7-.2.4.6.2.3-.2.3-.3-.1-.7-.3.4.7.2.3-.3.2-.3-.1-.7-.4.3.7.1.3-.3.2-.3-.2-.7-.4.2.7.1.3-.3.2H19l-.6-.5.2.7.1.3-.3.2-.3-.2-.6-.5.1.8v.3l-.3.1-.2-.2-.5-.6v1.1l-.3.1-.2-.3-.5-.6v1.1l-.4.2-.2-.3-.4-.7-.1.8-.1.3-.3.1-.2-.3-.3-.7-.2.8-.1.3H13l-.1-.3-.3-.7-.3.7-.1.3h-.3l-.1-.3-.2-.7-.3.7-.1.3h-.3l-.1-.3-.1-.8-.4.7-.3.2-.4-.1v-.3l-.1-.8-.4.6-.2.3-.3-.1v-1.1l-.5.6-.2.3-.3-.1v-.3l.1-.8-.6.5-.2.2-.3-.2.1-.3.2-.7-.6.5-.3.2-.3-.2.1-.3.2-.7-.6.4H5l-.3-.2.1-.3.3-.7-.7.4-.3.2-.2-.2.2-.3.4-.7-.8.1-.3.1-.2-.3.2-.3.4-.6-.8.2-.3.1-.2-.3.2-.3.5-.6-.8.1-.3.1-.2-.2.2-.2.5-.6-.8.1h-.3l-.1-.3.3-.2.6-.5H1.2l-.1-.3.3-.2.6-.6-.8-.1H.9l-.1-.3.3-.2.7-.4-.8-.1-.3-.1v-.3l.3-.2.7-.3-.8-.2-.3-.1v-.3l.3-.1.7-.3zm9.7.2c0 .6.5 1.1 1.1 1.1.6 0 1.1-.5 1.1-1.1 0-.6-.5-1.1-1.1-1.1-.6 0-1.1.5-1.1 1.1zm.9-3.5c1.3-.8 1.8-2.4 1-3.8-.8-1.3-2.4-1.8-3.8-1-1.3.8-1.8 2.4-1 3.8.8 1.3 2.4 1.8 3.8 1zm-2.8 5.6c-1.3-.8-3-.3-3.8 1-.8 1.3-.3 3 1 3.8 1.3.8 3 .3 3.8-1 .8-1.4.3-3.1-1-3.8zm6.2-.5c0 1.5 1.2 2.8 2.8 2.8 1.5 0 2.8-1.2 2.8-2.8 0-1.5-1.2-2.8-2.8-2.8-1.6.1-2.8 1.3-2.8 2.8z"/></g></svg>