<svg xmlns="http://www.w3.org/2000/svg" viewBox="0 0 145.9 32.7"><path fill="#C4B090" d="M80.8 2.5C63.9 2.1 47 1.6 30 1m1.4-1c17 .6 33.9 1.1 50.8 1.6s33.8.9 50.8 1.6c6.5.4 10.5 4.4 12.1 9.5.6 2 .9 4.2.7 6.3-.2 2.1-.7 4.3-1.7 6.2-2.4 4.7-7.2 8.1-14.5 7.5C112.2 29 95 25.1 77.8 21.2c-17.2-4-34.3-7.9-51.8-11.6h-.2l-.1-.1c-.8-.9-1.2-2.4-1.1-4 .1-.7.2-1.4.5-2.1.3-.7.7-1.3 1.3-1.8 1.1-1.1 2.8-1.7 5-1.6zm50.7 2.7c-16.9-.4-33.8-.9-50.8-1.5-1.9-.1-3.3.3-4.1 1.1-.5.4-.8.9-1 1.4-.2.5-.4 1.1-.4 1.7-.1 1.2.2 2.3.7 3 17.3 3.7 34.4 7.6 51.6 11.5 17.2 3.9 34.3 7.7 51.8 11.5 6.7.6 11.1-2.5 13.3-6.8.9-1.8 1.4-3.7 1.6-5.7.2-2-.1-4-.7-5.9-1.5-4.6-5.2-8.3-11.1-8.7-17.1-.6-34-1.1-50.9-1.6z"/><g fill-rule="evenodd" clip-rule="evenodd"><path fill="#FFF" d="M3.5 23.5l-.3.2-.5-.6.2-.3-.3.1-.6-.6.2-.3-.3.1-.4-.7.2-.3-.3.1-.4-.7.2-.2H.9l-.3-.7.3-.2H.6l-.2-.7.3-.2H.4l-.1-.8.3-.2-.3-.1-.3-.8.3-.1-.3-.1v-.8l.3-.1-.3-.1.1-.8.3-.1-.3-.2.1-.8h.3l-.3-.2.2-.7h.3l-.3-.2.3-.7H1v-.3l.4-.7.3.1-.2-.3.4-.7.3.2-.2-.3.5-.6.3.1-.1-.3.5-.6.3.2-.1-.3.6-.5.3.2-.1-.4.6-.5.3.2-.1-.3.7-.4.3.2v-.3l.7-.3.2.3v-.3l.7-.3.1.2v-.3l.8-.2.2.3.1-.3.8-.1.2.3.1-.3h.8l.1.3.1-.3h.8l.1.3.1-.3.8.1.1.3.2-.3.8.2V6l.2-.3.7.2v.3V6l.7.3v.2l.1-.1.7.4V7l.2-.1.6.4v.1l.2-.1.6.5-.1.1.1-.1.6.5-.1.3.3-.1.4.7-.2.3.3-.1.5.6-.2.3.3-.1.4.7-.1.2h.3l.3.7-.2.2h.3l.3.7-.3.2h.3l.2.8-.2.2h.3l.1.8-.3.2.3.1.1.8-.3.1.3.1v.8l-.3.1.3.1-.1.8H21l.3.2-.2.8h-.3l.3.2-.2.7h-.3l.3.2-.3.7h-.3l.2.2-.5.7-.3-.1.2.3-.4.6-.3-.1.2.3-.5.6-.4-.1.2.3-.5.6-.3-.2.1.3-.6.5-.4-.1.1.3-.6.4-.3-.2.1.3-.7.4-.3-.2v.3l-.6.3-.2-.3v.3l-.7.2-.2-.3v.3l-.8.2-.2-.3-.1.3-.8.1-.1-.3-.1.3h-.8l-.1-.3-.1.3h-.8l-.1-.3-.2.3-.8-.1-.1-.3-.2.3-.8-.2v-.3l-.2.3-.6-.2v-.3l-.2.3-.7-.3v-.3l-.3.2-.7-.4.2-.5-.3.2-.6-.5.1-.3-.3.2-.6-.5.2-.3zm6.8-7c.3.2.7.2.9 0 .2-.3.2-.7 0-.9-.3-.2-.7-.2-.9 0-.3.2-.3.7 0 .9zM8 14c.3-1.1-.5-2.3-1.6-2.5-1.1-.3-2.3.5-2.5 1.6-.3 1.1.5 2.3 1.6 2.5 1.1.2 2.2-.5 2.5-1.6zm2.4 5.5c-1.2.3-1.8 1.5-1.4 2.6.3 1.1 1.5 1.7 2.6 1.4 1.1-.3 1.7-1.5 1.4-2.6-.4-1.1-1.5-1.8-2.6-1.4zm3.5-4.8c.8.8 2.2.7 3-.1.8-.8.7-2.2-.1-3-.8-.8-2.2-.7-3 .1-.8.9-.7 2.2.1 3z"/><path fill="#3D3323" d="M4.1 22.8l-.6.3-.3.1L3 23l.1-.3.3-.6-.6.2-.3.1-.2-.2.3-.2.4-.5-.7.2H2l-.2-.3.2-.2.4-.5-.7.1-.3.1-.1-.3.2-.2.5-.5H1v-.2l.2-.2.5-.4h-1l-.1-.3.2-.2.6-.4-.7-.1H.4l-.1-.3.3-.1.6-.3-.7-.1-.3-.1v-.3l.3-.1.6-.3-.7-.2-.3-.1v-.3l.3-.1.7-.2-.6-.3-.3-.1v-.3l.3-.1.7-.1-.6-.3-.3-.1.1-.3h.3l.7-.1-.4-.5-.2-.2.1-.3h1l-.5-.4-.4-.2.1-.3h.3l.7.1-.5-.5-.2-.2.1-.3h.3l.7.1-.4-.5-.2-.2.1-.2.3.1.7.1-.4-.5-.2-.3.2-.2.3.1.6.2-.3-.6-.1-.2.2-.2.3.1.6.3-.3-.7-.1-.2.2-.2.3.2.6.4-.3-.8-.1-.3.2-.2.3.2.6.4-.2-.6v-.3l.3-.2.2.2.5.5-.1-.7v-.3l.3-.1.2.2.5.5v-1l.3-.1.2.2.2.6v-1l.3-.1.2.3.4.6L9 6v-.3h.3l.2.3.3.6.2-.7v-.3h.3l.1.3.2.6.2-.7.2-.2h.3l.1.3.2.7.3-.6.1-.3h.3V6l.1.7.3-.6.2-.3.3.1v.3l.1.7.4-.6.2-.2.3.1v1l.5-.5.2-.2.3.1v.3l-.2.5.4-.4.2-.2.3.1-.1.3-.1.6.5-.4.2-.2.3.2-.1.3-.2.5.5-.3.2-.2.2.2-.1.3-.2.5.4-.3.3-.1.3.2-.1.3-.3.6.6-.3.2-.1.2.2-.2.3-.3.5.6-.2.3-.1.2.2-.2.2-.4.6.7-.2.3-.1.2.3-.2.3-.5.5.7-.1h.3l.1.3-.2.2-.5.5h1l.1.3-.2.2-.5.4h1l.1.3-.3.2-.6.2.7.1h.3v.3l-.3.1-.6.3.7.2.3.1v.3l-.3.1-.6.2.6.2.3.1v.3l-.3.1-.7.2.6.3.3.1v.3l-.3.1-.7.1.6.3.3.1-.1.3h-.3l-.7.1.5.4.2.2-.1.3h-1l.5.4.2.2-.1.3h-.3l-.7-.1.5.5.2.2-.1.3-.3-.1-.5.1.4.5.2.2-.2.3-.3-.1-.6-.2.4.6.2.3-.2.2-.3-.1-.6-.3.3.6.1.3-.3.2-.3-.1-.5-.4.3.6.1.3-.2.2-.4-.1-.6-.4.2.6.1.3-.2.2-.2-.2-.5-.4.1.7.1.3-.3.1-.3-.2-.4-.4.1.7v.3l-.3.1-.2-.2-.4-.5v1h-.4l-.2-.2-.4-.5-.1.7v.3l-.3.1-.1-.4-.3-.6-.1.6-.1.3h-.3l-.1-.3-.3-.6-.2.6-.1.3h-.3l-.1-.3-.2-.6-.2.6-.1.3H10l-.1-.3-.2-.7-.3.6-.1.3H9v-.3l-.1-.7-.4.6-.2.3H8v-1l-.4.5-.2.2-.3-.1v-1l-.5.5-.2.2-.3-.1V25l.1-.7-.5.5-.2.2-.3-.2.1-.3.2-.5-.5.4-.2.2-.2-.2.1-.3.2-.6-.6.4H4l-.2-.2.1-.3.2-.6zm6-6.1c.4.4 1 .3 1.4-.1.4-.4.3-1-.1-1.4-.4-.4-1-.3-1.4.1-.3.4-.3 1.1.1 1.4zm-1.8-2.6c.3-1.3-.5-2.6-1.8-2.9-1.3-.3-2.6.5-2.9 1.8-.3 1.3.5 2.6 1.8 2.9 1.3.3 2.6-.5 2.9-1.8zm2 5.1c-1.3.4-2 1.7-1.6 3 .4 1.3 1.7 2 3 1.6 1.3-.4 2-1.7 1.6-3-.4-1.3-1.8-2-3-1.6zm3.4-4.3c1 .9 2.5.9 3.4-.1.9-1 .9-2.5-.1-3.4-1-.9-2.5-.9-3.4.1-1 1-.9 2.5.1 3.4z"/><circle fill="#493D29" cx="29" cy="5.2" r=".9"/><circle fill="#493D29" cx="29.1" cy="5.2" r=".6"/><path fill="#3D3323" d="M29.2.6h1l.2.1h.2l.3.3h.2l.2.1h.1l.1.1.2.1.1.1.1.1.1.2.1.1.1.1.1.1.1.1.1.1.1.2.1.1.1.1.1.2.1.1.1.2v.2l.1.2v.2l.1.2v2.2l-.1.2v.2l-.1.2v.2l-.1.2v.4l-.1.2-.1.1-.1.1-.1.1-.1.1-.1.1-.1.2-.1.1-.1.1-.1.1-.1.1-.2.1-.1.1-.1.1-.2.1h-.1l-.1.1-.2.1h-.2l-.2.1h-2.3l-.2-.1h-.2l-.2-.1h-.2l-.2-.1-.1-.1H27l-.2-.1-.1-.1-.1-.1-.2-.1-.1-.1-.3.2-.2-.1-.1-.1-.1-.1-.1-.2-.1-.1-.1-.1-.1-.1-.1-.1-.1-.1v-.3l-.1-.1-.1-.2v-.1l-.1-.1-.1-.2v-.2l-.1-.2V4.2l.1-.2v-.2l.1-.2v-.2l.1-.4.1-.1.1-.1.1-.2.1-.1.1-.1.1-.2.1-.1.1-.1.1-.1.1-.1.2-.1v-.1l.1-.1.2-.1.1-.1.1-.1.2-.1h.1V1h.4l.2-.1h.2l.2-.1h1l.4-.2zM29 4.8c-.2 0-.4.2-.4.4s.2.4.4.4.4-.2.4-.4c-.1-.2-.2-.4-.4-.4z"/><path fill="#49433E" d="M29.2 1.3l.1-.3.1-.1h.1V1l.1.3.1-.2.1-.1h.1v.4l.2-.2.1-.1h.1v.4l.2-.2.1-.1h.1v.4l.2-.2.1-.1v.6l.2-.2.1-.1.1.1v.1l-.1.3.2-.2.1-.1.1.1V2l-.1.3.3-.1.1-.1v.2l-.1.3.3-.1h.1l.1.1-.1.1-.2.2.3-.1h.1l.1.1-.1.1-.2.2.3-.1h.1l.1.1-.1.1-.2.2h.4v.1l-.1.1-.2.2h.4V4h-.1l-.2.2h.4v.1l-.1.1-.2.1.3.1h.1v.1l-.1.1-.3.1.3.1h.1v.1h-.1l-.3.1.3.1h.1v.1h-.1l-.3.1.3.1.1.1v.1L33 6h-.3l.3.1.1.1v.1h-.4l.2.2.1.1v.1h-.4l.2.2V7l-.1.1h-.4l.2.2.1.1-.1.1h-.1l-.3-.1.2.2.1.1-.1.1h-.1l-.2-.2.1.2.1.2-.1.1L32 8l-.3-.1.1.3.1.1-.1.1-.1-.1-.2-.1.1.3v.1l-.1.1-.1-.1-.2-.2.1.3v.1l-.1.1-.1-.1-.2-.2V9l-.1.1-.1-.1-.2-.2v.4h-.1l-.1-.1-.2-.2v.4H30v-.1l-.1-.2v.3h-.1l-.1-.1-.1-.2v.3h-.1v-.1l-.1-.2-.1.2v.1h-.1v-.1l-.1-.2-.1.2v.1h-.1v-.1l-.1-.3-.1.3-.1.1h-.1v-.4l-.5.4v.1h-.1V9l-.2.2-.1.1h-.1v-.4l-.2.1-.1.1-.1-.1v-.4l-.2.2-.1.1-.1-.1v-.1l.1-.3-.2.2-.1.1-.1-.1v-.1l.1-.3-.2.1-.1.1-.1-.1v-.1l.1-.2-.2.1-.1.1-.1-.1V8l.2-.2-.3.1h-.1l-.1-.1.1-.1.2-.2-.3.1h-.1l-.1-.1.1-.1.2-.2h-.4l-.1-.1.1-.1.2-.2H25v-.1l.2-.2h-.4v-.1l.1-.1.2-.2h-.4V6l.1-.1.2-.1-.3-.1h-.1v-.1h.1l.3-.2-.3-.1h-.1v-.1h.1L25 5l-.3-.1h-.1v-.1h.1l.3-.1-.2-.1-.1-.1v-.1h.4l-.2-.2-.1-.1V4h.5l-.3-.2-.1-.1v-.1h.4l-.2-.2-.1-.1.1-.1h.4l-.2-.2.1-.1h.1l.2.1-.2-.2-.1-.1.1-.1h.1l.4.1-.1-.2-.1-.1.1-.1h.1l.2.1-.1-.3L26 2h.2l.2.1-.1-.3v-.1l.1-.1.1.1.2.2-.1-.3v-.1l.1-.1.1.1.2.2v-.4l.1-.1.1.1.2.2v-.4h.1l.1.1.2.2V1h.1l.1.1.1.2V.9h.1l.1.1.1.2.1-.3V.8h.1v.1l.1.3.3-.2V.9h.1V1l.1.3zM29 4.4c-.4 0-.8.3-.8.7 0 .4.3.8.7.8.4 0 .8-.3.8-.7 0-.4-.3-.7-.7-.8z"/><path fill="#FFF" d="M11.1 19.6L22 9.2c.3-.3.9-.5 1.3-.1l1.4 1.6c.4.4.1 1-.2 1.3l-11.7 9.8c0 .1 0 .1-.1.2-.3 1-1.4 1.6-2.4 1.2s-1.6-1.4-1.2-2.4c.2-.8 1.1-1.4 2-1.2z"/><path fill="#3D3323" d="M11.3 20l11-10.5c.2-.2.6-.3.7-.1l1.4 1.6c.1.2.1.5-.2.7l-11.9 9.9c0 .1 0 .2-.1.3-.2.8-1.1 1.2-1.8 1-.8-.2-1.2-1.1-1-1.8.3-.9 1.1-1.3 1.9-1.1z"/><path fill="#FFF" d="M16.9 18.2l-2.3-2.5c-.4-.4-.3-1.1.1-1.4l12-10.7c.4-.4 1.1-.3 1.4.1l2.3 2.5c.4.4.3 1.1-.1 1.4l-12 10.7c-.3.4-1 .3-1.4-.1z"/><path fill="#3D3323" d="M17.3 18L15 15.4c-.2-.2-.2-.6 0-.9L27 3.9c.2-.2.6-.2.9 0l2.3 2.5c.2.2.2.6 0 .9L18.1 18c-.2.2-.6.2-.8 0z"/><path fill="#FFF" d="M17.9 11c0-.2.1-.3.3-.4l.3-.3c.1-.1.3-.2.4-.2 0-.2.1-.3.3-.4l.3-.3c.1-.1.3-.2.4-.2 0-.2.1-.3.3-.4l.3-.3c.1-.1.3-.2.4-.2 0-.2.1-.3.3-.4l.3-.3c.1-.1.3-.2.4-.2 0-.2.1-.3.3-.4l.3-.3c.4-.3.9-.3 1.3.1l3.4 3.7c.3.4.3.9-.1 1.3l-.3.3c-.1.1-.3.2-.4.2 0 .2-.1.3-.3.4l-.5.3c-.1.1-.3.2-.4.2 0 .2-.1.3-.3.4l-.3.3c-.1.1-.3.2-.4.2 0 .2-.1.3-.3.4l-.3.3c-.1.1-.3.2-.4.2 0 .2-.1.3-.3.4l-.3.3c-.1.1-.3.2-.4.2 0 .2-.1.3-.3.4l-.3.3c-.4.3-.9.3-1.3-.1l-3.4-3.7c-.3-.4-.3-.9.1-1.3l.3-.3c.3-.1.4-.2.6-.2z"/><path fill="#49433E" d="M20.7 16.2l-3.4-3.7c-.2-.2-.2-.5 0-.7l.3-.3c.2-.2.5-.2.7 0-.2-.2-.2-.5 0-.7l.3-.3c.2-.2.5-.2.7 0-.2-.2-.2-.5 0-.7l.3-.3c.2-.2.5-.2.7 0-.2-.2-.2-.5 0-.7l.3-.3c.2-.2.5-.2.7 0-.2-.2-.2-.5 0-.7l.4.2c.2-.2.5-.2.7 0-.2-.2-.2-.5 0-.7l.3-.3c.2-.2.5-.2.7 0l3.4 3.7c.2.2.2.5 0 .7l-.3.3c-.2.2-.5.2-.7 0 .2.2.2.5 0 .7l-.3.3c-.2.2-.5.2-.7 0 .2.2.2.5 0 .7l-.3.3c-.2.2-.5.2-.7 0 .2.2.2.5 0 .7l-.3.3c-.2.2-.5.2-.7 0 .2.2.2.5 0 .7l-.3.3c-.2.2-.5.2-.7 0 .2.2.2.5 0 .7l-.3.3c-.3-.3-.6-.3-.8-.5z"/><circle fill="#FFF" cx="10.9" cy="21.4" r=".5"/><path fill="#FFF" d="M31 5.3c-.1 1-.9 1.8-2 1.8-1-.1-1.8-.9-1.8-2 .1-1 .9-1.8 2-1.8 1 .1 1.8 1 1.8 2z"/><circle fill="#3D3323" cx="29.1" cy="5.2" r="1.5"/><circle fill="#FFF" cx="29.1" cy="5.2" r=".5"/></g></svg>