<svg xmlns="http://www.w3.org/2000/svg" viewBox="0 0 67.3 67.3"><path fill-rule="evenodd" clip-rule="evenodd" fill="#C4B090" d="M3 33v-.1l-2-.8-1-.3.1-1 1-.2 2.1-.5-2-1-.8-.5.1-.9 1-.2 2.2-.3L1.8 26l-.8-.5.2-.9 1-.1 2.2-.1-1.7-1.3-.8-.6.3-.9h1l2.2.1-1.6-1.5-.7-.7.4-.8 1 .1 2.2.3-1.5-1.7-.6-.7.5-.8.9.2 2.2.5-1.3-1.8-.6-.8.6-.7.9.3 2.1.7-1.1-1.9-.5-.8.6-.8.9.4 2 1v-.1l-.9-2-.4-.8.7-.7.8.5 2 1.1-.8-2.1-.3-.9.7-.6.8.6 1.9 1.2-.6-2.1-.2-1 .8-.5.7.7 1.7 1.4-.3-2.2-.2-.9.9-.5.6.7 1.6 1.6-.1-2.2-.1-1 .9-.3.6.7L24 4.6l.1-2.2v-1l.9-.3.6.8 1.2 1.9.3-2.2.1-1 .9-.1.5.8 1 2 .5-2.2.2-.9 1-.1.3.9.9 2 .7-2.1.3-.9h1l.2.9.7 2.2.9-2.1.4-.9.9.1.2 1 .5 2.2 1-2 .5-.8 1 .2.1.9.2 2.2 1.2-1.8.6-.8.9.3v.9l.1 2.3 1.4-1.7.6-.8.9.4-.1.9-.2 2.3 1.6-1.6.7-.7.9.5-.2.9-.4 2.2 1.7-1.4.8-.6.8.5-.3.9-.6 2.2 1.9-1.3.8-.5.7.6-.3.9-.8 2.1 1.9-1.1.9-.5.7.7-.4.9-1 2 2-.9.9-.4.6.7-.5.9-1.1 1.9 2.1-.7.9-.3.6.8-.6.7-1.4 1.8 2.2-.5 1-.2.4.9-.6.7-1.5 1.6 2.2-.3 1-.1.4.9-.8.7-1.6 1.5 2.2-.1h1l.3.9-.8.6-1.4 1 1.7.1h1l.3 1-.9.5-1.6 1 1.9.2 1 .2.1.9-.8.5-1.6.8 1.7.4.9.2.1.9-.9.4-1.5.6 1.6.5.9.3v1l-.9.3-2.1.6 2 .9.9.4-.1.9-1 .2-2.1.5 1.9 1.1.9.4-.2 1-1 .1-2.2.2v.1l1.9 1.2.8.5-.3.9-1 .1h-2.2l1.7 1.4.8.6-.4.9h-.9l-2.2-.2 1.5 1.6.7.6-.4.9-1-.2-2.1-.3h-.1l1.4 1.7.7.7-.5.8-1-.2-2.1-.6 1.2 1.8.6.8-.6.8-.9-.3-2.1-.8 1.1 1.9.4.9-.6.7-.9-.4-2-1 .9 2 .4.9-.7.7-.9-.5-1.8-1.2h-.1l.7 2.1.3.9-.7.6-.8-.6-1.8-1.3.5 2.2.2.9-.8.5-.8-.7-1.6-1.4.3 2.2.1.9-.9.4-.6-.7-1.5-1.6.1 2.2v1l-.9.3-.6-.8-1.3-1.7h-.1l-.1 2.2v.9l-1 .3-.5-.8-1.1-1.9h-.1l-.3 2.2-.1.9-1 .2-.4-.9-1-1.9-.6 2.1-.2.9-1 .1-.3-.9-.8-2.1-.7 2.1-.4.9-.9-.1-.3-.9-.6-2.1-.9 2-.4.9-1-.2-.2-.9-.3-2.1-.1-.1-1.1 1.9-.5.9-.9-.3-.1-.9-.2-2.2-1.3 1.8-.5.7-1-.3.1-.9v-2.2h-.1l-1.4 1.6-.6.8-.9-.4.1-1 .2-2.2-1.6 1.5-.7.7-.8-.5.2-.9.4-2.2-1.7 1.4-.8.5-.8-.5.3-.9.6-2.1-1.8 1.1-.9.6-.7-.7.4-.9.8-2-2 1-.8.5-.7-.7.4-.9 1.1-1.9-.1-.1-2 .9-.9.3-.6-.7.5-.8L9 51.9l-2.1.6-.9.3-.6-.8.6-.8 1.4-1.7-2.1.4-1 .2-.5-.8.7-.7L6 47l-2.2.2-.9.1-.4-.9.7-.7 1.7-1.4H1.7l-.3-.9.8-.6L4 41.6v-.1l-2.2-.2-.9-.1-.2-.9.8-.5 1.9-1.1-2.1-.4-1-.2-.1-.9.9-.4 2-.9v-.1L1 35.2 0 35v-1l.9-.3L3 33z"/></svg>