<svg xmlns="http://www.w3.org/2000/svg" viewBox="0 0 74.5 74.4"><path fill="#C4B090" d="M71.8 37.3s0-.1 0 0h2.7c0-1.9-.1-3.7-.4-5.5l-2.7.4c-.3-1.7-.6-3.4-1.1-5l2.6-.8c-.5-1.8-1.2-3.5-2-5.2l-2.4 1.2c-.8-1.6-1.6-3-2.6-4.5l2.2-1.5c-1-1.5-2.2-3-3.5-4.3l-2 1.9c-1.2-1.3-2.4-2.4-3.8-3.5l1.7-2.1C59 7 57.5 5.9 55.8 5l-1.4 2.4c-1.5-.9-3-1.6-4.7-2.2l1-2.5C49 2 47.2 1.5 45.4 1.1l-.6 2.7c-1.7-.4-3.4-.6-5.1-.8L40 .1c-.9 0-1.8-.1-2.8-.1-.9 0-1.9 0-2.8.1l.2 2.7c-1.7.1-3.4.4-5.1.8L28.9 1c-1.8.4-3.6 1-5.3 1.6l1 2.5c-1.6.7-3.1 1.4-4.6 2.3L18.6 5c-1.6.9-3.1 2-4.6 3.2l1.7 2.1c-1.3 1.1-2.6 2.2-3.8 3.5l-2-1.9c-1.3 1.4-2.4 2.8-3.5 4.3l2.2 1.5c-1 1.4-1.8 2.9-2.6 4.5L3.6 21c-.8 1.7-1.5 3.4-2 5.2l2.6.8c-.5 1.6-.9 3.3-1.1 5l-2.7-.4c-.3 1.9-.4 3.8-.4 5.7v.1h2.7c0 1.7.1 3.5.4 5.1l-2.7.4c.3 1.8.7 3.7 1.2 5.4l2.6-.8c.5 1.7 1.1 3.3 1.9 4.8l-2.4 1.2c.8 1.7 1.7 3.3 2.8 4.8l2.2-1.5c1 1.4 2.1 2.8 3.2 4l-2 1.9c1.3 1.4 2.6 2.6 4.1 3.8l1.7-2.1c1.3 1.1 2.8 2 4.3 2.9l-1.4 2.4c1.6.9 3.3 1.7 5 2.4l1-2.5c1.6.6 3.2 1.1 4.9 1.5l-.5 2.5c1.8.4 3.7.7 5.5.8l.2-2.7c.8.1 1.7.1 2.5.1.9 0 1.8 0 2.6-.1l.2 2.7c1.9-.1 3.7-.4 5.5-.8l-.5-2.7c1.7-.4 3.3-.9 4.9-1.5l1 2.5c1.7-.7 3.4-1.5 5-2.4l-1.4-2.4c1.5-.9 2.9-1.8 4.3-2.9l1.7 2.1c1.4-1.2 2.8-2.4 4.1-3.8l-2-1.8c1.2-1.3 2.2-2.6 3.2-4l2.2 1.5c1-1.5 2-3.2 2.8-4.8l-2.4-1.2c.7-1.5 1.4-3.1 1.9-4.8l2.6.8c.5-1.8 1-3.6 1.2-5.4l-2.7-.4c.2-1.7.4-3.4.4-5.1zM37.2 63.8c-14.6 0-26.5-11.9-26.5-26.5s11.9-26.5 26.5-26.5 26.5 11.9 26.5 26.5c.1 14.6-11.8 26.5-26.5 26.5z"/></svg>