<svg xmlns="http://www.w3.org/2000/svg" viewBox="0 0 115.2 115.2"><g fill-rule="evenodd" clip-rule="evenodd" fill="#FFF"><path d="M81.7 110.5l-5.6 2.2-1.9-4.9c-2.5.8-4.9 1.4-7.4 1.8l.6 5.2-6 .7-.6-5.2c-2.6.1-5.1.1-7.6-.2l-.8 5.2-6-.9.8-5.2c-2.5-.5-4.9-1.3-7.3-2.1l-2.1 4.8-5.6-2.4 2.1-4.9c-2.3-1.2-4.5-2.5-6.5-4l-3.3 4.1-4.7-3.8 3.3-4.1c-1.9-1.7-3.7-3.5-5.3-5.5l-4.2 3.1-3.6-4.9 4.3-3.1c-1.4-2.1-2.6-4.4-3.7-6.7l-4.9 1.9L3.2 76l4.9-2c-.8-2.5-1.4-4.9-1.8-7.4l-5.2.6-.7-6 5.3-.6c-.1-2.6-.1-5.1.2-7.6l-5.2-.8c.6-2 1.2-3.9 1.9-5.9l4.1.7c.5-2.5 1.3-5 2.1-7.3l-3.3-1.5c.8-1.9 1.6-3.7 2.4-5.6l3.4 1.5c1.2-2.3 2.5-4.5 4-6.5l-3.4-2.7c1-1.8 2-3.6 3.1-5.3l4.1 3.3c1.7-1.9 3.5-3.7 5.5-5.3l-3.1-4.2 4.9-3.6 3.1 4.3c2.1-1.4 4.4-2.6 6.7-3.7l-1.9-4.9 5.6-2.2L41.8 8c2.5-.8 4.9-1.4 7.4-1.8L48.7 1l6-.7.6 5.3c2.6-.1 5.1-.1 7.6.2l.8-5.2 6 .9-.8 5.2c2.5.5 5 1.3 7.3 2.1L78.3 4l5.6 2.4-2.1 4.9c2.3 1.2 4.5 2.5 6.5 4l3.3-4.1 4.7 3.8-3.2 4c1.9 1.7 3.7 3.5 5.3 5.5l4.2-3.1 3.6 4.9-4.3 3.1c1.4 2.1 2.6 4.4 3.7 6.7l4.9-1.9 2.2 5.6-4.9 1.9c.8 2.5 1.4 4.9 1.8 7.4l5.2-.6.7 6-5.2.6c.1 2.6.1 5.1-.2 7.6l5.2.8-.9 6-5.2-.8c-.5 2.5-1.3 5-2.1 7.3l4.8 2.1-2.4 5.6-4.9-2.1c-1.2 2.3-2.5 4.5-4 6.5l4.1 3.3-3.8 4.7-4-3.1c-1.7 1.9-3.5 3.7-5.5 5.3l3.1 4.2-4.9 3.6-3.1-4.2c-2.1 1.4-4.4 2.6-6.7 3.7l1.9 4.9zM34.3 39C23.9 52.1 26 71.1 39.1 81.6c13.1 10.4 32.1 8.3 42.6-4.8 10.4-13.1 8.3-32.1-4.8-42.6-13.1-10.4-32.2-8.3-42.6 4.8zm3.1 2.5c-9 11.3-7.2 27.9 4.2 36.9 11.3 9 27.9 7.2 36.9-4.2 9-11.3 7.2-27.9-4.2-36.9-11.3-9-27.8-7.1-36.9 4.2zm-14-11.2c-15.2 19.1-12.1 46.9 7 62.1 19.1 15.2 46.9 12.1 62.1-7 15.2-19.1 12.1-46.9-7-62.1-19-15.2-46.9-12.1-62.1 7z"/><path d="M50.5 51.9c.8-1 1.7-1.8 2.8-2.4l-6.8-17.3 2.4-.9 6.8 17.3c2-.5 4.1-.3 6 .5l22.5-28.2 3.3 2.6-22.4 28c1.6 1.8 2.4 4.1 2.4 6.5l19 2.9-.4 2.6-19-2.9c-.3 1.2-.9 2.3-1.7 3.3-.8.9-1.6 1.7-2.6 2.3l13.6 34.7-3.9 1.5-13.7-35c-1.8.1-3.6-.2-5.2-1L41.7 81.3l-2-1.6 11.8-14.8c-1.5-1.4-2.5-3.2-2.9-5.1L11 54.1l.6-4.2 37 5.6c.5-1.3 1.1-2.5 1.9-3.6z"/><path d="M74 93.4l-3.8 1.5-1.3-3.3c-1.7.5-3.3 1-5 1.2l.4 3.5-4.1.5-.4-3.5c-1.7.1-3.5 0-5.2-.1l-.5 3.5-4-.7.5-3.5c-1.7-.4-3.3-.8-5-1.4l-1.4 3.3-3.8-1.6 1.4-3.3c-1.5-.8-3-1.7-4.4-2.7l-2.2 2.8L32 87l2.2-2.8c-1.3-1.1-2.5-2.4-3.6-3.7l-2.9 2.1-2.4-3.3 2.9-2.1c-.9-1.4-1.8-2.9-2.5-4.5L22.4 74 21 70.1l3.3-1.3c-.5-1.7-1-3.3-1.2-5l-3.5.4-.5-4.1 3.5-.4c-.1-1.7 0-3.5.1-5.2l-3.5-.5c.4-1.3.8-2.6 1.3-4l2.9.4c.4-1.7.8-3.3 1.4-5l-2.3-1c.5-1.3 1.1-2.5 1.6-3.8l2.3 1c.8-1.5 1.7-3 2.7-4.4l-2.3-1.8 2.1-3.6 2.8 2.2c1.1-1.3 2.4-2.5 3.7-3.6l-2.1-2.9 3.3-2.4 2.1 2.9c1.4-.9 2.9-1.8 4.5-2.5L42 22.4l3.8-1.5 1.3 3.3c1.7-.5 3.3-1 5-1.2l-.4-3.5 4.1-.5.4 3.5c1.7-.1 3.5 0 5.2.1l.5-3.5 4.1.6-.5 3.5c1.7.4 3.3.8 5 1.4l1.4-3.3 3.8 1.6-1.4 3.3c1.5.8 3 1.7 4.4 2.7l2.2-2.8 3.2 2.6-2.2 2.8c1.3 1.1 2.5 2.4 3.6 3.7l2.9-2.1 2.4 3.3-2.9 2.1c.9 1.4 1.8 2.9 2.5 4.5l3.3-1.3 1.5 3.8-3.5 1.5c.5 1.7 1 3.3 1.2 5l3.5-.4.5 4.1-3.5.4c.1 1.7 0 3.5-.1 5.2l3.5.5-.6 4.1-3.5-.5c-.4 1.7-.8 3.3-1.4 5l3.3 1.4-1.6 3.8-3.5-1.6c-.8 1.5-1.7 3-2.7 4.4l2.8 2.2-2.6 3.2-2.8-2.2c-1.1 1.3-2.4 2.5-3.7 3.6l2.1 2.9-3.3 2.4-2.1-2.9c-1.4.9-2.9 1.8-4.5 2.5l1.3 3.3zM42 45.1c-7 8.8-5.6 21.7 3.2 28.8 8.8 7 21.7 5.6 28.8-3.2 7-8.8 5.6-21.7-3.2-28.8-8.9-7.1-21.8-5.6-28.8 3.2zm2.1 1.7a17.8 17.8 0 0 0 2.8 25 17.8 17.8 0 0 0 25-2.8c6.1-7.7 4.9-18.8-2.8-24.9-7.7-6.2-18.9-4.9-25 2.7zm-9.5-7.5c-10.3 12.9-8.2 31.7 4.7 42 12.9 10.3 31.7 8.2 42-4.7 10.3-12.9 8.2-31.7-4.7-42-12.9-10.4-31.7-8.2-42 4.7z"/><path d="M53 53.9c.5-.7 1.2-1.2 1.9-1.6l-4.6-11.7 1.6-.6 4.6 11.7c1.3-.3 2.8-.2 4 .3l15.2-19.1 2.2 1.8-15.1 19c1.1 1.2 1.7 2.8 1.6 4.4L77.3 60l-.3 1.6-12.9-1.9c-.2.8-.6 1.5-1.1 2.2-.5.6-1.1 1.2-1.8 1.5l9.2 23.4-2.6 1-9.3-23.6c-1.2.1-2.4-.1-3.5-.7l-8 10.1-1.4-1.1 8-10c-1-1-1.7-2.2-1.9-3.5l-25.4-3.8.4-2.8 25 3.8c.3-.8.7-1.6 1.3-2.3z"/></g></svg>