<svg xmlns="http://www.w3.org/2000/svg" viewBox="0 0 40.2 40.2"><path fill-rule="evenodd" clip-rule="evenodd" fill="#C4B090" d="M1.8 19.7l-1.2-.5L0 19v-.6l.6-.1 1.3-.3-1.2-.6-.5-.3.1-.6.6-.1 1.3-.2-1.1-.7-.5-.3.1-.6h.6l1.3-.1-1-.8-.5-.4.2-.5h.6l1.3.2-1-.9-.4-.4.3-.5.6.1 1.3.1-.9-1-.4-.4.3-.5.6.1 1.3.3-.8-1-.3-.5.3-.5.5.2 1.3.4-.7-1.1-.3-.5.4-.4.5.2 1.2.5-.5-1.1-.2-.6.4-.4.5.3 1.2.7-.5-1.3-.2-.5.5-.4.5.3 1 .8-.3-1.2-.2-.6.5-.3.4.4 1 .9-.1-1.4-.1-.6.5-.2.4.4.9 1-.1-1.4v-.6l.5-.2.4.5.8 1V.8l.6-.2.3.5.8 1.2.2-1.3.1-.6.6-.1.3.5.5 1.2.3-1.3.1-.6h.6l.2.5.5 1.2.4-1.3.2-.5h.6l.2.6.4 1.3.5-1.2.2-.5.6.1.1.6.3 1.1.6-1.2.3-.5.6.1V1l.1 1.3.7-1.1.3-.5.6.2v1.9l.8-1 .4-.4.7.2v.6l-.1 1.3.9-.9.4-.4.5.3-.1.5-.2 1.3 1-.8.4-.4.5.3-.2.6-.4 1.3 1.1-.7.5-.3.5.4-.2.5-.5 1.2 1.2-.6.5-.3.4.4-.2.4-.6 1.2 1.2-.5.5-.2.4.4-.3.5-.7 1.1 1.3-.4.6-.2.3.5-.3.5-.8 1.1 1.3-.3.6-.1.3.5-.4.4-.9 1 1.3-.2.6-.1.2.5-.4.4-1 .9h1.9l.2.5-.5.3-.8.6 1 .1h.6l.1.6-.5.3-1 .6 1.1.2.6.1.1.6-.5.3-.9.5 1 .2.6.1v.6l-.6.1-.9.4.9.3.6.2v.6l-.6.2-1.2.3 1.2.5.5.2-.1.6-.6.1-1.3.3 1.2.6.5.3-.1.6-.6.1-1.3.2 1.1.7.5.3-.1.5h-1.9l1 .8.4.4-.2.5H38l-1.3-.1.9.9.4.4-.3.5-.6-.1-1.1-.1.8 1 .4.4-.3.5-.6-.1-1.3-.3.7 1.1.3.5-.4.5-.5-.2L34 32l.6 1.1.3.5-.4.4-.5-.2-1.2-.6.5 1.2.2.5-.4.4-.5-.3-1.1-.7.4 1.2.2.5-.5.3-.5-.3-1-.8.3 1.3.1.6-.5.5-.4-.4-1-.9.2 1.3.1.6-.5.2-.5-.4-.9-1v1.9l-.5.2-.3-.5-.8-1-.1 1.3v.6l-.6.1-.3-.5-.7-1.1-.2 1.3-.1.6-.5.1-.3-.5-.6-1.2-.3 1.3-.1.6H21l-.2-.5-.5-1.2-.4 1.2-.2.5h-.6l-.2-.6-.3-1.2-.6 1.1-.2.5h-.6l-.1-.6-.2-1.3-.7 1.1-.3.5-.6-.1V39l-.1-1.3-.8 1-.3.5-.6-.2v-1.9l-.8 1-.4.4-.5-.2.1-.6.1-1.3-1 1-.4.4-.5-.3.1-.6.3-1.3-1 .8-.5.4-.5-.3.2-.6.3-1.2-1.1.7-.5.3-.4-.4.2-.5.5-1.2-1.2.6-.5.2-.4-.4.3-.5.6-1.1-1.2.5-.6.1-.4-.4.3-.5.8-1.1-1.2.4-.6.2-.3-.5.4-.5.8-1-1.3.2-.6.1-.3-.5.4-.4.9-.9-1.3.1-.6.1-.2-.5.4-.4 1-.8H1L.8 26l.5-.3 1.1-.7-1.3-.1-.6-.1-.1-.6.5-.3 1.1-.8-1.3-.2-.6-.1-.1-.6.6-.2 1.2-.5L.6 21l-.6-.1v-.6l.5-.2 1.3-.4zm16.4.4c0 1.1.9 1.9 1.9 1.9 1.1 0 1.9-.9 1.9-1.9 0-1.1-.9-1.9-1.9-1.9-1.1 0-1.9.8-1.9 1.9zm1.4-6c2.2-1.3 3-4.1 1.7-6.4-1.3-2.2-4.1-3-6.4-1.7-2.2 1.3-3 4.1-1.7 6.4 1.3 2.2 4.2 3 6.4 1.7zM15 23.5c-2.2-1.3-5.1-.5-6.4 1.7-1.3 2.2-.5 5.1 1.7 6.4 2.2 1.3 5.1.5 6.4-1.7 1.3-2.2.5-5.1-1.7-6.4zm10.4-.7c0 2.6 2.1 4.7 4.7 4.7s4.7-2.1 4.7-4.7-2.1-4.7-4.7-4.7-4.7 2.1-4.7 4.7z"/></svg>