<svg xmlns="http://www.w3.org/2000/svg" viewBox="0 0 43.1 43"><path fill-rule="evenodd" clip-rule="evenodd" fill="#FFF" d="M1.9 21.1l-1.3-.5-.6-.3v-.6l.6-.1 1.4-.4-1.3-.6-.6-.3.1-.6.8-.1 1.4-.2-1.2-.7-.5-.3.2-.6h.6l1.4-.1-1.1-.9-.5-.4.2-.6h.6l1.4.1-1-1-.5-.4.3-.6.6.1 1.4.2-.9-1.1-.4-.5.3-.5.6.1 1.4.3-.9-1L4 9l.4-.5.6.2 1.3.5-.7-1.3-.3-.5.4-.5.6.3 1.3.6L7 6.5l-.3-.6.5-.4.5.3 1.2.7-.5-1.3-.2-.6.5-.4.5.4 1.2.8L10 4l-.1-.6.5-.3.5.4 1.1.9-.3-1.4-.1-.6.6-.3.4.4 1 1-.1-1.4v-.6l.6-.2.4.5.9 1.1v-2l.6-.2.3.5.8 1.2.2-1.4.1-.6.6-.1.3.5.7 1.3.3-1.4.1-.6h.6l.2.6.5 1.3.4-1.4.3-.6h.6l.2.6.4 1.4.6-1.3.2-.6.6.1.1.6.3 1.4.7-1.2.3-.5.6.1.1.6.2 1.4.8-1.2.3-.5.6.1v2l1-1 .4-.5.6.2v.6l-.1 1.4 1-1 .4-.4.6.3-.1.6-.3 1.4 1.1-.9.4-.4.5.3-.2.6-.3 1.4 1.2-.8.5-.3.5.4-.2.6-.5 1.3 1.3-.7.5-.3.4.4-.3.6-.7 1.2 1.3-.6.6-.2.4.5-.3.5-.7 1.2 1.3-.4.6-.2.4.5-.4.5L38 11l1.4-.3.6-.1.3.5-.4.5-1 1.1 1.4-.2.6-.1.3.6-.5.4-1.1 1h2l.2.6-.5.4-.9.7 1.1.1h.6l.2.6-.5.3-1 .6 1.2.2.6.1.1.6-.6.3-1 .5 1.1.2.6.1.1.6-.6.2-1 .4 1 .3.6.2v.6h-.4l-1.4.4 1.3.6.6.2-.1.6-.6.2-1.4.3 1.2.7.5.3-.1.6-.5.1-1.4.2 1.2.8.5.3-.2.6h-2l1.1.9.5.4-.2.6h-.6l-1.4-.1 1 1 .4.4-.3.6-.6-.1-1.4-.2.9 1.1.4.5-.3.5-.6-.2-1.4-.4.8 1.2.4.5-.5.4-.6-.2-1.3-.5.7 1.2.3.5-.4.5-.6-.3-1.3-.6.6 1.3.3.6-.5.4-.5-.3-1.2-.7.4 1.3.2.6-.5.4-.5-.4-1.1-.8.3 1.4.1.6-.5.3-.5-.4-1-.9.2 1.4.1.6-.6.3-.4-.5-.9-1 .1 1.4v.6l-.6.2-.4-.5-.8-1.1-.1 1.4v.6l-.6.2-.3-.5-.7-1.2-.2 1.4-.1.6-.6.1-.3-.6-.9-1.4-.3 1.3-.2.7h-.6l-.2-.6-.5-1.3-.5 1.3-.2.6h-.6l-.2-.6-.4-1.3-.6 1.3-.3.5-.6-.1-.1-.6-.2-1.4-.7 1.2-.4.6-.6-.1-.1-.6-.1-1.4-.8 1.1-.4.5-.6-.2v-2l-.9 1-.4.5-.6-.2.1-.6.2-1.4-1 1-.4.4-.5-.3.1-.6.3-1.4-1.1.9-.5.4-.5-.4.2-.6.4-1.3-1.2.7-.6.2-.5-.4.2-.6.5-1.2-1.2.6-.6.3-.4-.5.3-.5c.8-1.6 1-1.4-.7-.7l-.6.2-.4-.5.4-.5.8-1.2-1.3.4-.6.2-.3-.5.4-.5.9-1.1-1.4.3-.6.1-.3-.5.4-.4 1-1-1.4.1-.6.1-.2-.6.5-.4 1.1-.9h-2l-.2-.6.5-.4 1.1-.8-1.4-.1-.6-.1-.1-.6.3-.4 1.2-.7-1.4-.3-.6-.1-.1-.6.6-.3 1.3-.6-1.3-.4-.7-.1v-.6l.6-.2 1.3-.5zm17.6.4c0 1.1.9 2 2 2s2-.9 2-2-.9-2-2-2-2 .9-2 2z"/></svg>