<svg xmlns="http://www.w3.org/2000/svg" viewBox="0 0 59.3 59.3"><path fill-rule="evenodd" clip-rule="evenodd" fill="#FFF" d="M2.6 29.1l-1.8-.7L0 28l.1-.9.8-.1 1.9-.5-1.7-.9-.8-.4.1-.8.8-.1 2-.3-1.6-1-.7-.5.2-.8H2l1.9-.1-1.5-1.2-.7-.5.3-.9h.9l1.9.1-1.4-1.3-.6-.6.4-.8.8.1 1.9.3-1.3-1.5-.6-.6.5-.7.8.2 1.9.5-1.1-1.6-.5-.7.5-.7.8.3 1.9.6-1-1.7-.4-.7.6-.6.8.3 1.8.8-1-1.8-.4-.7.6-.6.8.4 1.7 1-.7-1.8-.3-.8.7-.6.7.5 1.6 1.1-.5-1.9-.2-.8.7-.5.7.6 1.5 1.3-.3-1.9-.1-.8.8-.4.6.6L18.8 5l-.1-2-.1-.9.8-.3.5.7L21.2 4l.1-2v-.9l.8-.1.5.7 1.1 1.6.2-1.9.1-.8.8-.2.4.8.9 1.7.4-1.9.2-.8.9-.1.3.8.7 1.8.6-1.9.3-.8h.9l.3.8.6 1.9.7-1.8.3-.8.8.1.2.8.4 2 .9-1.7.4-.7.8.2.2.7.2 2 1.1-1.6.5-.7.8.2v2.9l1.3-1.5.6-.8.8.3-.1.9-.2 2 1.4-1.4.6-.6.8.4-.1.8-.3 1.9L44.9 5l.7-.5.6.5-.2.8-.5 1.9 1.6-1.1.7-.5.7.5-.3.8-.7 1.8 1.7-.9.7-.3.6.6-.4.8-.9 1.8 1.8-.8.8-.3.6.6-.4.6-1 1.7 1.9-.6.8-.3.5.7-.5.7-1.2 1.6 1.9-.4.8-.2.4.7-.6.7-1.3 1.5 1.9-.2.8-.1.4.8-.6.6-1.5 1.3 2-.1h.9l.3.8-.7.5-1.2.9 1.5.1h.9l.2.8-.7.5-1.5.7 1.7.2.8.1.1.8-.8.4-1.4.7 1.5.3.8.2.1.9-.7.4-1.3.5 1.4.4.8.3v.9l-.8.3-1.9.6 1.8.8.8.3-.1.9-.8.2-1.9.4 1.7.9.8.4-.2.8-.8.1-2.1.2 1.6 1.1.7.5-.2.8h-2.8l1.5 1.2.7.5-.3.9h-.9l-1.9-.1 1.4 1.4.6.6-.4.8-.9-.3-1.9-.3 1.2 1.5.6.7-.4.7-.8-.2-1.9-.5 1.1 1.6.5.7-.5.7-.9-.4-1.8-.7.9 1.7.4.7-.5.7-.8-.3-1.7-.8.8 1.8.3.8-.6.6-.7-.4-1.6-1 .6 1.8.3.8-.9.4-.7-.5-1.5-1.1.4 1.9.2.8-.7.4-.6-.6-1.4-1.3.3 1.9.1.8-.8.4-.6-.6-1.4-1.4.1 1.9v.9l-.8.3-.5-.7-1.2-1.5-.1 1.9v.9l-.8.2-.4-.7-1-1.6-.3 1.9-.1.8h-1.1l-.4-.8-.8-1.7-.6 1.9-.2.8-.8.1-.3-.8-.7-1.8-.6 1.8-.4.8h-.9l-.1-.8-.5-1.8-.8 1.7-.4.8-.9-.2-.2-.8-.3-1.9-1 1.6-.4.7-.8-.2-.1-.9-.2-1.9-1.1 1.5-.5.9-.8-.3v-2.8l-1.3 1.4-.5.7-.8-.3.1-.8.2-1.9-1.4 1.3-.6.6-.7-.4.2-.8.4-1.9-1.5 1.2-.7.5-.7-.5.2-.8.6-1.8-1.6 1-.9.3-.7-.5.3-.8.7-1.8-1.7.9-.8.4-.6-.6.4-.8.9-1.7-1.8.7-.7.3-.5-.7.5-.7 1-1.6-1.8.5-.8.2-.5-.7.5-.7 1.2-1.5-2 .4-.8.2-.4-.8.6-.6 1.3-1.4-1.9.2-.8.1-.3-.8.6-.6 1.5-1.2H1.6l-.3-.8.7-.5 1.6-1.1-1.9-.2-.8-.1-.2-.8.7-.4 1.7-1-1.9-.4-.8-.2-.1-.8.8-.4 1.8-.8-1.9-.5-1-.3V30l.8-.3 1.8-.6zm24.2.6c0 1.6 1.3 2.8 2.8 2.8 1.6 0 2.8-1.3 2.8-2.8s-1.3-2.8-2.8-2.8c-1.5-.1-2.8 1.2-2.8 2.8zm2.1-8.9c3.3-1.9 4.4-6.1 2.5-9.4C29.5 8.1 25.3 7 22 8.9c-3.3 1.9-4.4 6.1-2.5 9.4 1.9 3.3 6.1 4.4 9.4 2.5zm-6.8 13.9c-3.3-1.9-7.5-.8-9.4 2.5-1.9 3.3-.8 7.5 2.5 9.4 3.3 1.9 7.5.8 9.4-2.5 1.9-3.3.8-7.5-2.5-9.4zm15.5-1c0 3.8 3.1 6.9 6.9 6.9 3.8 0 6.9-3.1 6.9-6.9 0-3.8-3.1-6.9-6.9-6.9-3.8 0-6.9 3.1-6.9 6.9z"/></svg>