<svg xmlns="http://www.w3.org/2000/svg" viewBox="0 0 33.9 33.9"><g fill-rule="evenodd" clip-rule="evenodd" fill="#C4B090"><path d="M23.9 32.4l-1.7.7-.6-1.5c-.7.2-1.5.4-2.2.5l.2 1.5-1.8.2-.2-1.5c-.8 0-1.5 0-2.3-.1l-.2 1.5-1.8-.3.2-1.5c-.7-.2-1.5-.4-2.2-.6l-.3 1.5-1.6-.7.6-1.4c-.7-.3-1.4-.7-2-1.2l-1 1.2-1.4-1.1 1-1.2c-.6-.5-1.1-1-1.6-1.6l-1.2.9-1.1-1.4 1.3-.9c-.4-.6-.8-1.3-1.1-2l-1.4.6-.7-1.7 1.5-.6c-.3-.7-.4-1.4-.6-2.2l-1.5.2-.2-1.8 1.5-.2c0-.8 0-1.5.1-2.3l-1.5-.2c.2-.6.4-1.2.5-1.7l1.3.2c.1-.7.3-1.4.6-2.1l-1-.4c.2-.6.5-1.1.7-1.6l1 .4c.4-.7.7-1.4 1.2-2l-1-.8c.3-.5.6-1 .9-1.6l1.2 1C6 6 6.5 5.5 7.1 5l-.9-1.2 1.4-1.1 1 1.3c.6-.4 1.3-.8 2-1.1L10 1.5l1.7-.7.6 1.5c.7-.2 1.5-.4 2.2-.5L14.3.3 16 0l.2 1.5c.8 0 1.5 0 2.3.1l.2-1.5 1.8.3-.2 1.5c.7.2 1.5.4 2.2.6l.5-1.4 1.6.7-.6 1.4c.7.3 1.3.7 1.9 1.2l1-1.2 1.4 1.1-1 1.2c.6.5 1.1 1 1.6 1.6l1.2-.9 1.1 1.4-1.3.9c.4.6.8 1.3 1.1 2l1.4-.6.7 1.7-1.5.6c.2.7.4 1.5.5 2.2l1.5-.2.2 1.8-1.5.2v2.3l1.5.2-.3 1.8-1.5-.3c-.2.7-.4 1.5-.6 2.2l1.4.6-.7 1.6-1.4-.6c-.3.7-.7 1.3-1.2 1.9l1.2 1-1.1 1.4-1.2-1c-.5.6-1 1.1-1.6 1.6l.9 1.2-1.4 1.1-.9-1.3c-.6.4-1.3.8-2 1.1l.5 1.4zM10 11.4c-3.1 3.9-2.4 9.5 1.4 12.5 3.9 3.1 9.5 2.4 12.5-1.4C27 18.6 26.3 13 22.5 10c-3.8-3.1-9.4-2.5-12.5 1.4zm.9.7c-2.7 3.3-2.1 8.2 1.2 10.9 3.3 2.7 8.2 2.1 10.9-1.2 2.7-3.3 2.1-8.2-1.2-10.9-3.4-2.7-8.2-2.1-10.9 1.2zM6.8 8.8c-4.5 5.6-3.6 13.8 2.1 18.3 5.6 4.5 13.8 3.6 18.3-2.1 4.5-5.6 3.6-13.8-2.1-18.3-5.6-4.4-13.8-3.5-18.3 2.1z"/><path d="M14.8 15.2c.2-.3.5-.5.8-.7l-2-5.1.7-.3 2 5.1c.6-.1 1.2-.1 1.8.1L24.7 6l1 .8-6.6 8.3c.5.5.7 1.2.7 1.9l5.6.8-.1.8-5.6-.8c-.1.3-.3.7-.5 1-.2.3-.5.5-.8.7l4 10.2-1.2.3-4-10.3c-.5 0-1-.1-1.5-.3l-3.5 4.4-.6-.5L15 19c-.4-.4-.7-.9-.8-1.5L3.1 15.8l.2-1.2 10.9 1.6c.1-.3.3-.7.6-1z"/><path d="M21.7 27.4l-1.1.4-.4-1c-.5.2-1 .3-1.5.4l.1 1-1.2.1-.1-1H16l-.2 1-1.2-.2.2-1c-.5-.1-1-.2-1.5-.4l-.4 1-1.1-.5.4-1c-.5-.2-.9-.5-1.3-.8l-.7.8-.9-.8.7-.8c-.4-.3-.7-.7-1.1-1.1l-.8.6-.7-1 .8-.6c-.3-.4-.5-.9-.7-1.3l-1 .4-.4-1.1 1-.4c-.2-.5-.3-1-.4-1.5l-1 .1-.1-1.2 1-.1v-1.5l-1-.2c.1-.4.2-.8.4-1.2l.8.1c.1-.5.2-1 .4-1.5l-.7-.1c.2-.4.3-.7.5-1.1l.7.3c.2-.5.5-.9.8-1.3l-.7-.5c.2-.4.4-.7.6-1.1l.8.7c.3-.4.7-.7 1.1-1.1l-.6-.8 1-.7.6.8c.4-.3.9-.5 1.3-.7l-.4-1 1.1-.4.4 1c.5-.2 1-.3 1.5-.4l-.1-1 1.2-.1.1 1h1.5l.2-1 1.2.2-.2 1c.5.1 1 .2 1.5.4l.4-1 1.1.5-.4 1c.5.2.9.5 1.3.8l.7-.8.9.8-.7.8c.4.3.7.7 1.1 1.1l.8-.6.7 1-.8.6c.3.4.5.9.7 1.3l1-.4.4 1.1-1 .4c.2.5.3 1 .4 1.5l1-.1.1 1.2-1 .1V18l1 .2-.2 1.2-1-.2c-.1.5-.2 1-.4 1.5l1 .4-.5 1.1-1-.4c-.2.5-.5.9-.8 1.3l.8.7-.8.9-.8-.7c-.3.4-.7.7-1.1 1.1l.6.8-1 .7-.6-.8c-.4.3-.9.5-1.3.7l.5.9zm-9.5-14.2c-2.1 2.6-1.6 6.4 1 8.5 2.6 2.1 6.4 1.6 8.5-1 2.1-2.6 1.6-6.4-1-8.5-2.6-2-6.4-1.6-8.5 1zm.7.5c-1.8 2.3-1.4 5.5.8 7.3 2.3 1.8 5.5 1.4 7.3-.8 1.8-2.3 1.4-5.5-.8-7.3-2.2-1.8-5.5-1.5-7.3.8zm-2.8-2.2c-3 3.8-2.4 9.3 1.4 12.4 3.8 3 9.3 2.4 12.4-1.4 3-3.8 2.4-9.3-1.4-12.4-3.9-3-9.4-2.4-12.4 1.4z"/><path d="M15.5 15.8c.2-.2.3-.4.5-.5l-1.4-3.5.5-.2 1.4 3.4c.4-.1.8-.1 1.2.1l4.5-5.6.7.5-4.5 5.6c.3.4.5.8.5 1.3l3.8.6-.1.5-3.8-.6-.3.6c-.1.2-.3.3-.5.5l2.7 6.9-.8.3-2.7-6.9c-.3 0-.7 0-1-.2l-2.4 3-.4-.3 2.3-2.9c-.3-.3-.5-.6-.6-1l-7.5-1.1.1-.8 7.4 1.1c.1-.4.2-.6.4-.8z"/></g></svg>