<svg xmlns="http://www.w3.org/2000/svg" viewBox="0 0 33.6 26.2"><g fill-rule="evenodd" clip-rule="evenodd"><path fill="#FFF" d="M3.5 23l-.3.2-.5-.6.2-.3-.3.1-.6-.7.2-.3-.3.1-.4-.7.2-.3-.3.1L1 20l.2-.2H.9l-.3-.7.3-.2H.6l-.2-.7.3-.2H.4l-.1-.8.3-.2-.3-.1-.3-.8.3-.1-.3-.2V15h.3l-.3-.2.1-.8h.3l-.3-.2.2-.8h.3l-.3-.2.2-.7h.3l-.3-.2.3-.7h.3l-.1-.3.4-.7.3.1-.2-.3.4-.7.3.1-.2-.2.5-.6.3.1-.1-.3.5-.6.3.2-.1-.4.6-.5.3.2-.1-.3.6-.5.3.2-.1-.3.7-.4.3.2v-.3l.7-.3.2.3v-.3l.7-.3.2.3v-.3l.8-.2.2.3.1-.3.8-.1.2.3.1-.3h.8-.2l.1-.3h.8l.1.3.1-.3.8.1.1.3.2-.3.8.2v.3l.2-.3.7.2v.3l.2-.3.7.3v.2l.1-.1.7.4v.2l.2-.1.6.6v.2l.2-.1.6.5-.1.1.1-.1.6.5-.1.3.2-.1.5.6-.2.3.3-.1.5.6-.2.3.3-.1.4.7-.1.2h.3l.3.7-.3.2h.3l.3.7-.3.2h.3l.2.8-.1.2h.3l.1.8-.3.2.3.1.1.8-.3.1.3.1v.8l-.3.1.3.1-.1.8H21l.3.2-.2.8h-.3l.3.2-.2.7h-.3l.3.2-.3.7h-.3l.2.2-.5.8-.3-.1.2.3-.4.6-.3-.1.2.3-.5.6-.3-.1.2.3-.5.6-.3-.2.1.3-.8.5-.3-.2.1.3-.6.4-.3-.2.1.3-.7.4-.3-.2v.3l-.7.3-.2-.3v.3l-.7.2-.2-.3v.3l-.8.2-.2-.3-.1.3-.8.1-.1-.3-.1.3h-.8l-.1-.3-.1.3h-.8l-.1-.3-.2.3-.6.1-.1-.3-.1.3-.8-.2v-.3l-.2.3-.7-.3v-.3l-.2.3-.8-.5v-.3l-.3.2-.7-.4.2-.3-.3.2-.6-.5.1-.3-.3.2-.6-.5.2-.3zm6.8-7c.3.2.7.2.9 0 .2-.3.2-.7 0-.9-.3-.2-.7-.2-.9 0-.3.2-.3.6 0 .9zM8 13.5c.3-1.1-.5-2.3-1.6-2.5-1.1-.3-2.3.5-2.5 1.6-.3 1.1.5 2.3 1.6 2.5 1.1.2 2.2-.5 2.5-1.6zm2.4 5.4c-1.1.3-1.7 1.5-1.4 2.6.3 1.1 1.5 1.7 2.6 1.4 1.1-.3 1.7-1.5 1.4-2.6-.4-1.1-1.5-1.7-2.6-1.4zm3.5-4.7c.8.8 2.2.7 3-.1.8-.8.7-2.2-.1-3-.8-.8-2.2-.7-3 .1-.8.8-.7 2.2.1 3z"/><path fill="#3D3323" d="M4.1 22.3l-.6.3-.3.1-.2-.2.1-.3.3-.6-.6.2-.2.2-.2-.2.2-.2.4-.7-.7.2-.3.1-.2-.3.2-.2.4-.5-.7.1-.3.1-.1-.3.2-.2.5-.5H1v-.2l.2-.2.5-.4h-1l-.1-.3.2-.2.6-.4-.7-.1H.4l-.1-.3.3-.1.6-.3-.7-.1-.3-.1v-.3l.3-.1.6-.3-.7-.2-.3-.1v-.3l.3-.1.9-.3-.6-.3-.3-.1v-.3l.3-.1.7-.1-.6-.3-.3-.1.1-.3h.3l.7-.1-.6-.5-.2-.2.1-.3h1l-.5-.4-.4-.2.1-.3h.3l.7.1-.5-.5-.2-.2.1-.3h.3l.7.1-.4-.5-.2-.1.1-.3.3.1.7.2-.4-.6-.2-.2.2-.2h.3l.6.2-.3-.5-.1-.3.2-.2.3.1.6.3-.3-.6-.1-.3.2-.2.3.2.5.3-.2-.6-.1-.3.2-.2.3.2.6.4-.2-.7v-.3l.3-.2.2.2.5.5-.1-.6v-.3l.2-.1.2.2.5.5v-1l.3-.1.2.2.3.6v-1l.3-.1.2.3.4.6.1-.7v-.3h.3l.1.3.4.5.2-.7v-.2h.3l.1.3.3.6.2-.7.1-.3h.3l.1.3.1.7.3-.6.2-.3h.3l.1.3.1.7.3-.6.2-.3.3.1v.3l.1.7.4-.6.2-.2.3.1v1l.5-.5.2-.2.1.1v.3l-.1.5.4-.4.2-.2.3.1-.1.3-.1.6.5-.4.2-.2.3.2-.1.3-.2.5.5-.3.2-.2.2.2-.1.3-.2.5.4-.3.3-.1.3.2-.1.3-.3.6.6-.3.3-.1.2.2-.2.3-.4.6.6-.2.3-.1.2.2-.2.2-.4.6.7-.2.3-.1.2.3-.2.2-.5.6.7-.1h.3l.1.3-.2.1-.5.5h1l.1.3-.2.2-.5.4h1l.1.3-.3.2-.6.4.7.1h.3v.3l-.3.1-.6.3.7.2.3.1v.3h-.3l-.6.2.6.2.3.1v.3l-.3.2-.7.2.6.3.3.1v.3l-.3.1-.7.1.6.3.3.1-.1.3h-.3l-.7.1.5.4.2.2-.1.3h-1l.5.4.2.2-.1.3h-.3l-.7-.1.5.5.2.2-.1.3-.3-.1-.7-.1.4.5.2.2-.2.2-.1.1-.6-.2.4.6.2.3-.2.2-.3-.1-.6-.3.3.6.1.3-.3.1-.3-.1-.6-.3.3.6.1.3-.2.2-.3-.2-.6-.4.2.6.1.3-.2.2-.2-.1-.5-.4.1.7.1.3-.3.1-.2-.2-.5-.5.1.7v.3l-.3.1-.2-.2-.4-.5v1l-.3.1-.2-.2-.4-.5-.1.7v.3l-.3.1-.2-.3-.3-.6-.1.7-.1.3h-.3l-.1-.3-.3-.7-.2.6-.1.3h-.3l-.1-.3-.2-.6-.2.6-.1.3H10l-.1-.3-.2-.7-.3.6-.1.3H9v-.3l-.1-.7-.4.6-.2.3-.3-.2v-1l-.4.5-.2.2-.3-.1v-1l-.5.5-.2.4-.3-.1v-.3l.1-.7-.5.5-.2.2-.3-.2.1-.3.2-.7-.5.4-.3.2-.2-.2.1-.3.2-.6-.6.4-.2.1-.2-.2.1-.3.2-.6zm6-6.1c.4.4 1 .3 1.4-.1.4-.4.3-1-.1-1.4-.4-.4-1-.3-1.4.1-.3.4-.3 1 .1 1.4zm-1.8-2.7c.3-1.3-.5-2.6-1.8-2.9-1.3-.3-2.6.5-2.9 1.8-.3 1.3.5 2.6 1.8 2.9 1.3.4 2.6-.5 2.9-1.8zm2 5.1c-1.3.4-2 1.7-1.6 3 .4 1.3 1.7 2 3 1.6 1.3-.4 2-1.7 1.6-3-.4-1.3-1.8-2-3-1.6zm3.4-4.2c1 .9 2.5.9 3.4-.1.9-1 .9-2.5-.1-3.4-1-.9-2.5-.9-3.4.1-1 1-.9 2.5.1 3.4z"/><circle fill="#493D29" cx="29" cy="4.7" r=".9"/><circle fill="#493D29" cx="29.1" cy="4.7" r=".6"/><path fill="#3D3323" d="M29.2 0h1l.2.1h.2l.2.1h.2l.2.1h.1l.1.1.2.1.1.1.1.4.2.1.1.1.1.1.2.2.1.1.1.1.1.2.1.1.1.1.1.2.1.1-.1-.1.1.2v.2l.1.2v.2l.1.2v2.2l-.1.2v.2l-.1.2v.2l-.1.2v.4l-.1.2-.1.1-.1.1-.1.2-.1.1-.1.1-.1.2-.1.1-.2.1v.1l-.1.1-.2.1-.1.1-.1.1-.2.1h-.1l-.1.1-.2.1h-.2l-.2.1h-2.3l-.2-.1h-.2l-.5.1h-.2l-.2-.1-.1-.1h-.1l-.2-.1-.1-.1-.1-.1-.2-.1-.1-.1-.2-.1-.1-.2h-.1l-.1-.2-.1-.1-.1-.1-.1-.2-.1-.1-.1-.1V7l-.1-.1-.1-.2v-.1l-.1-.1-.1-.2v-.2l-.1-.2V3.7l.1-.2v-.2l.1-.2v-.2l.1-.2.1-.1.1-.1.1-.2V2l.1-.1.1-.2.1-.1.1-.1.1-.2.1-.1.1-.1.2-.1h.1l.2-.1.1-.1.1-.1.2-.1h.1l.1-.1.1-.1h.2l.2-.1h.2l.2-.1h.9L29 0h.2zM29 4.3c-.2 0-.4.2-.4.4s.2.4.4.4.4-.2.4-.4c-.1-.2-.2-.4-.4-.4z"/><path fill="#49433E" d="M29.2.8l.1-.3.1-.1h.1v.1l.1.3.1-.2.1-.1h.1v.4l.2-.2.1-.1h.1V1l.2-.2.1-.1h.1v.4l.2-.1.1-.1v.4l.2-.2.1-.1.1.1v.1l-.1.3.2-.2.1-.1.1.1v.1l-.1.3.3-.1.1-.1v.3l-.2.2.3-.1h.1l.1.1-.1.1-.2.2.3-.1h.1l.1.1-.1.1-.2.2.3-.1h.1l.1.1-.1.1-.2.2h.4V3l-.1.1-.2.2h.4v.1l-.1.1-.2.2h.4v.1l-.2.2h.4v.1l-.1.1-.3.1.3.1h.1v.1h-.1l-.3.1.3.1h.1v.1h-.1l-.3.1.3.1.1.1v.1h-.4l.2.4.1.1v.1h-.4l.2.2.1.1v.1h-.4l.2.2.1.1-.1.1h-.4l.2.2.1.1-.1.1h-.1l-.3-.1.2.1.1.1-.1.1h-.1l-.3-.1.1.2.1.1-.1.1H32l-.3-.1.1.3.1.1-.1.1-.1-.1-.2-.1.1.3v.1l-.1.1-.1-.2-.2-.2.1.3v.1l-.1.1-.1-.1-.2-.2v.4l-.1.1-.1-.1-.2-.2v.4h-.1l-.1-.1-.2-.2v.4H30l-.1-.2v.3h-.1l-.1-.1-.1-.2v.3h-.1v-.1l-.1-.2-.1.2v.1h-.1v-.1l-.1-.2-.1.2v.1h-.1v-.1l-.1-.3-.1.3-.1.1h-.1v-.4l-.5.3v.1h-.1v-.4l-.2.2-.1.1h-.1v-.4l-.2.2-.1.1-.1-.1v-.4l-.2.2-.1.1-.1-.1v-.1l.1-.3-.2.2-.1.1-.1-.1V8l.1-.3-.2.1-.1.1-.1-.1v-.1l.1-.3-.2.2-.1.1-.1-.1.1-.1.1-.3-.3.1h-.1l-.1-.1.1-.1.2-.2-.3.1h-.1l-.1-.1.1-.1.2-.2h-.4l-.1-.1.1-.1.2-.2H25v-.1l.2-.1h-.4v-.1l.1-.1.2-.2h-.4v-.1l.1-.1.2-.1-.3-.1h-.1v-.1h.1l.3-.2-.3-.1h-.1v-.1h.1l.3-.2-.3-.1h-.1v-.1h.1l.3-.1-.2-.2-.1-.1v-.1h.4l-.2-.2-.1-.1v-.1h.4l-.2-.2-.1-.1.1-.1h.4l-.2-.2-.1-.1.1-.1h.4l-.2-.2-.1-.1.1-.1h.1l.3.1-.2-.2-.1-.1h.2l.3.1-.1-.2-.1-.1.1-.1h.1l.2.1-.1-.3H26l.1-.1.1.1.2.1-.1-.3v-.1l.1-.1.1.1.2.2-.1-.3V1l.1-.1.2.1.2.2V.8l.1-.1.1.1.2.2V.6h.1l.1.1.2.2V.5h.1v.1l.1.2V.4h.1l.1.1.1.2.1-.3V.3h.1v.1l.1.3.3-.2V.4h.1v.1l.1.3zM29 3.9c-.4 0-.8.3-.8.7 0 .4.3.8.7.8.4 0 .8-.3.8-.7 0-.4-.3-.8-.7-.8z"/><path fill="#FFF" d="M11.1 19L22 8.7c.3-.3.9-.5 1.3-.1l1.4 1.6c.4.4.1 1-.2 1.3l-11.7 9.8c0 .1 0 .1-.1.2-.3 1-1.4 1.6-2.4 1.2s-1.6-1.4-1.2-2.4c.2-.9 1.1-1.4 2-1.3z"/><path fill="#3D3323" d="M11.3 19.5L22.3 9c.2-.2.6-.3.7-.1l1.4 1.6c.1.2.1.5-.2.7L12.3 21c0 .1 0 .2-.1.3-.2.8-1.1 1.2-1.8 1-.8-.2-1.2-1.1-1-1.8.3-.8 1.1-1.2 1.9-1z"/><path fill="#FFF" d="M16.9 17.7l-2.3-2.5c-.4-.4-.3-1.1.1-1.4L26.7 3c.4-.4 1.1-.3 1.4.1l2.3 2.5c.4.4.3 1.1-.1 1.4l-12 10.7c-.3.4-1 .4-1.4 0z"/><path fill="#3D3323" d="M17.3 17.4L15 14.9c-.2-.2-.2-.6 0-.9L27 3.3c.2-.2.6-.2.9 0l2.3 2.5c.2.2.2.6 0 .9l-12 10.7c-.3.3-.7.3-.9 0z"/><path fill="#FFF" d="M17.9 10.4c0-.2.1-.3.3-.4l.3-.3c.1-.1.3-.2.4-.2 0-.2.1-.3.3-.4l.3-.3c.1-.1.3-.2.4-.2 0-.2.1-.3.3-.4l.2-.2c.1-.1.3-.2.4-.2 0-.2.1-.3.3-.4l.3-.3c.1-.1.3-.2.4-.2 0-.2.1-.3.3-.4l.3-.3c.4-.3.9-.3 1.3.1L27 10c.3.4.3.9-.1 1.3l-.3.3c-.1.1-.3.2-.4.2 0 .2-.1.3-.3.4l-.3.3c-.1.1-.3.2-.4.2 0 .2-.1.3-.3.4l-.3.3c-.1.1-.3.2-.4.2 0 .2-.1.3-.3.4l-.3.3c-.1.1-.3.2-.4.2 0 .2-.1.3-.3.4l-.3.3c-.1.1-.3.2-.4.2 0 .2-.1.3-.3.4l-.2.2c-.4.3-.9.3-1.3-.1L17 12.2c-.3-.4-.3-.9.1-1.3l.3-.3c.2-.1.3-.1.5-.2z"/><path fill="#49433E" d="M20.7 15.6l-3.4-3.7c-.2-.2-.2-.5 0-.7l.3-.3c.2-.2.5-.2.7 0-.2-.2-.2-.5 0-.7l.3-.3c.2-.2.5-.2.7 0-.2-.2-.2-.5 0-.7l.3-.3c.2-.2.5-.2.7 0-.2-.2-.2-.5 0-.7l.3-.3c.2-.2.5-.2.7 0-.2-.2-.2-.5 0-.7l.3-.3c.2-.2.5-.2.7 0-.2-.2-.2-.5 0-.7l.3-.3c.2-.2.5-.2.7 0l3.4 3.7c.2.2.2.5 0 .7l-.3.3c-.2.2-.5.2-.7 0 .2.2.2.5 0 .7l-.3.3c-.2.2-.5.2-.7 0 .2.2.2.5 0 .7l-.3.7c-.2.2-.5.2-.7 0 .2.2.2.5 0 .7l-.3.3c-.2.2-.5.2-.7 0 .2.2.2.5 0 .7l-.3.3c-.2.2-.5.2-.7 0 .2.2.2.5 0 .7l-.3.3c-.2-.2-.5-.2-.7-.4z"/><circle fill="#FFF" cx="10.9" cy="20.9" r=".5"/><path fill="#FFF" d="M31 4.8c-.1 1-.9 1.8-2 1.8-1-.1-1.8-.9-1.8-2 .1-1 .9-1.8 2-1.8 1 0 1.8.9 1.8 2z"/><circle fill="#3D3323" cx="29.1" cy="4.7" r="1.5"/><circle fill="#FFF" cx="29.1" cy="4.7" r=".5"/></g></svg>