<svg xmlns="http://www.w3.org/2000/svg" viewBox="0 0 33.5 33.5"><path fill-rule="evenodd" clip-rule="evenodd" fill="#49433E" d="M1.5 16.4l-1-.4-.5-.2v-.5l.5-.1 1.1-.2-1-.5-.4-.2.1-.5.5-.1 1.1-.2-1-.5-.4-.3.1-.5h.5l1.1-.1-.9-.7-.4-.3.2-.5h.5l1.1.1-.8-.7-.4-.3.2-.4.5.1 1.1.2-.7-.9-.3-.4.2-.4.5.1 1.1.3-.7-.9-.3-.4.3-.4.5.2 1 .4-.5-1-.3-.4.3-.4.4.2 1 .5L5.4 5l-.2-.4.4-.3.4.2 1 .6L6.6 4l-.2-.4.4-.3.4.3.9.6-.3-1.1-.1-.4.4-.3.4.3.8.7-.2-1.1v-.4l.4-.2.3.3.8.8-.1-1.1v-.5l.4-.2.3.4.7.9V.7l.5-.1.3.4.6.9.1-1.1.1-.5.5-.1.2.4.5 1 .3-1 .1-.5h.5l.2.4.4 1 .3-1.1.2-.4h.5l.1.5.3 1.1.4-1 .2-.4.5.1.1.5.2.9.5-1 .2-.4.5.1.1.5.1 1.1.7-1 .3-.4.5.1v1.6l.7-.9.3-.4.4.2v.5l-.1 1.1.8-.8.3-.3.4.3-.1.5-.2 1.1.9-.7.4-.3.4.3-.1.5-.3 1.1.9-.6.4-.4.4.3-.2.5-.4 1 1-.5.4-.2.3.3-.2.4-.5 1 1-.4.4-.2.4.3-.3.4-.6.9 1.1-.3.5-.1.3.4-.3.4-.7.9 1.1-.2.5-.1.2.4-.4.2-.7.8 1.1-.1.5-.1.2.4-.4.3-.8.7h1.6l.2.5-.4.3-.7.5h1.3l.1.5-.4.3-.8.5.9.1.5.1.1.5-.4.2-.8.4.9.2.5.1v.5l-.5.2-.8.3.8.2.5.1v.5l-.5.2-1 .4 1 .4.4.2v.5l-.5.1-1.1.2 1 .5.4.2-.1.5-.5.1-1.1.1.9.6.4.3-.1.5h-1.6l.8.7.4.3-.2.4h-.5l-1-.1.8.8.3.3-.2.4-.5-.1-1-.1.7.8.3.4-.3.4-.5-.1-1.1-.3.6.9.3.4-.3.4-.5-.2-1-.4.5.9.2.4-.3.4-.4-.2-1-.5.4 1 .2.4-.4.3-.4-.2-.9-.6.3 1 .2.5-.4.3-.2-.1-.9-.6.2 1.1.1.5-.4.1-.3-.3-.8-.7.1 1.1.1.5-.5.1-.3-.4-.7-.8v1.6l-.5.2-.3-.4-.7-.9-.1 1.1v.5l-.4.1-.3-.4-.6-.9-.2 1.1-.1.5-.5.1-.2-.4-.5-1-.3 1 .1.4h-.5l-.2-.4-.4-1-.4 1-.2.5h-.5V33l-.3-1-.5 1-.2.4-.5-.1-.1-.5-.2-1.1-.5.9-.2.4h-.5v-.5l-.1-1.1-.7.9-.3.4-.5-.2v-1.6l-.7.8-.3.4-.4-.1.1-.5.1-1.1-.8.7-.3.3-.4-.2.1-.5.2-1.1-.8.7-.4.3-.4-.3.1-.5.3-1-.9.6-.4.3-.4-.3.1-.4.4-1-1 .5-.4.2-.3-.3.2-.4c.7-1.2.8-1.1-.5-.6l-.4.2-.3-.4.3-.4.6-.9-1 .3-.6.1-.3-.4.3-.4.7-.8-1.1.2-.5.1-.2-.4.3-.3.8-.9-1.1.1h-.5l-.2-.4.4-.3.8-.7H.8l-.1-.5.4-.3.9-.6-1.1-.1H.4l-.1-.5.4-.2.9-.5-1.1-.2-.4-.2-.1-.5.4-.2 1-.4-1-.3-.4-.2v-.5l.5-.2 1-.3zm13.6.3c0 .9.7 1.6 1.6 1.6.9 0 1.6-.7 1.6-1.6 0-.9-.7-1.6-1.6-1.6-.8 0-1.6.8-1.6 1.6z"/></svg>