<svg xmlns="http://www.w3.org/2000/svg" viewBox="0 0 522.9 74"><g fill="#26201A"><path d="M38.8 39.4l.7.7.1 1.5-.6 1.8-.6 1.1-.8 1.2-.6 1-.7 1.1-.9 1-.6 1-4.8 4.4-1 .7-3.6 1.7-2.1.7-3 .8-3.8.4-2.9.1-3.4-.6-1.9-.9-1.1-.4-1.9-1.1-1.5-1.5-1.3-1.7-1.6-4L.4 46l-.3-1.2-.1-2.1.3-4.8L1.7 32l1.5-4.9.7-1.1.5-1.2.5-1.1.7-1.1.5-1.2 1.3-2.2.7-1 .7-1.2 3.2-3.8 2.8-2.8 3-2.2 3.4-2 3.6-1.3 2.3-.3 1.8-.1 2.8.1 1.1.3L34.6 6l.9.8.5.8.5.9.5 2.2.2 1.2-.2 1.2-.2 1.1-.3 1.2-.4 1.1-2.2 4.6-1.2 1.3-1.7 1-1.1-.1-.9-.5-.6-.8.2-1.6.9-1.6.5-1.1.9-3.4v-1.2l-.6-1.9-.7-.6-1.8-.3h-1.5L24 11l-1.7.8-1.7 1-2.2 1.7-1.9 1.7-.8.9-.7 1-.9 1.1-.6.9-.8 1.1-1.9 3.4-1 2.3-.7 1.2-.9 2.3-1.6 6v1.1l-.2 1.1.1 2.5-.1 1 .2 2.3.2 1.1.8 2 .5 1 1.3 1.6.8.6 1 .6 2 .8 2.2.6 1.7.1 3-.3 2.5-.4 3.5-1.4 3.2-2.2 3.6-3.7.7-1.1.9-1.1.6-1.1 1.1-1.6 1.6-1 1 .5zM2.6 37.7l-.3-.3-.8-.4-.1.4.2.4.2.7h.7l.1-.8zm.5-2.2l-.1-.7-.8.3.1.6.8-.2zM2.3 41l-.6-.2-.1.8h.7V41zm-.1 2.9l-.5-.1-.3.5.6.3.2-.7zM3 32.2l-.2.7.6-.3-.1-.6-.3.2zm2.1 11.4l-.6-.1-.6.5-.3.5-.3.3-.5.2-.5.5v.3l.7.5.8-.9.2-.2.3-.2.7-.6.1-.8zm-.5-10.2l-.7.1-.2.8.7-.1.2-.8zm-.3 3.1h-.8l.1.7h.7v-.7zm-.7 5.6l-.8.2-.1.8.8-.3.1-.7zm-.2-2.7l-.2.7H4l.2-.7h-.8zm2-12h-.5l-.1.6h.6v-.6zM2.9 48.9l.1-.6h-.7l-.1.7.7-.1zm2.3-18.8l-.6.2.1.6.5-.2v-.6zm1.2 1.7h-.7l-.2.7.5.1.3-.2.1-.6zM5.5 38h-.6v.6l.6-.1V38zm-.9 2.9l-.1.5h.4l.3-.4-.6-.1zm2.5-15h-.6l-.1.4H7l.1-.4zM4.6 46.7l-.7.2-.1.6.7-.1.1-.7zm-.3 3l-.8.1-.1.6H4l.2-.2.1-.5zm2.5-20.8l-.6-.1-.2.7h.7l.1-.6zm.8-6.1l-.7.2-.1.5.7-.1.1-.6zM5.9 35h-.4l-.1.3.4.1.1-.4zm2.4-13.8l-.2.7h.6l.2-.7h-.6zM8 24.4l-.1.6.6.1v-.7H8zM5.3 48.3l-.2.7h.7l.1-.7h-.6zm.3 2.8H5l-.1.6h.6l.1-.6zm4.5-31.6v.7h.7l.1-.7h-.8zM7 49.7h-.5l-.1.5h.5l.1-.5zm-.3 2.8h-.6v.7l.7-.1-.1-.6zm19.8-38.6l-1 .5-1.2.7-1 .6-3.1 2.5-1.8 1.9-.7 1.1-.9 1-.7 1-3.3 5.6-1.4 3.6-1 3.6-.6 3.5-.1 2.4.1 2.2.5 2.2.4 1.1.3 1.2-1-.8-.5-.9-1.3-4.4.1-1-.2-1.3-.1-2.4.7-3.7.3-1 .6-1.2.6-2.3.5-1.2.4-1.1.7-1 .6-1.2 1.4-2.2.6-1 .9-1 .8-1.1.9-1 .7-.9 1.8-1.7.8-.9 1-.7 3.3-2 1.2-.4 1.1-.3 1.4.1.3.9-.7.7-1.4.3zm-18 36.9l-.7.2v.7l.7-.1v-.8zM8 54.9v-.6l-.5.1-.1.6.6-.1zm4.2-39.4l-.1.4h.4v-.4h-.3zm-.5 3.6l.4-.1.2-.5-.5-.1-.1.7zm27.6 30.2l-.1.9-.3.7-.6 1-.6.9-2.5 2.6-3.9 3-3.3 1.7-2.5.9-7 1.3h-1.2l-.9-.1H15l-2.7-.4-1.6-.4-1.9-.7-1-.5-.5-.7 2.5.5 1 .3 3.3.3 4.6-.3 6.5-1.5 5.5-2.8 1.1-.7 1-.8.8-.9.9-.8 1.5-1.6 2.6-3.8h.2l.2 1 .3.9zM14.4 13.7h-.6l-.1.4h.6l.1-.4zM9.1 52.6l-.1.7h.6l.2-.7h-.7zm.1 3.4v-.3H9l-.1.4.3-.1zm1.7-1.2l.2-.8h-.7l-.2.8h.7zM15.8 12h-.4l-.1.4.5-.1V12zm-.1 3.1l-.4-.1-.2.4.4.1.2-.4zm2.2-4.7l-.7-.2v.7l.6.2.1-.7zm-.7 3.2h-.4v.3h.3l.1-.3zm-4.7 41.5h-.7l-.1.7h.7l.1-.7zm-.1-2.1l-.1-.1-.1.3h.2V53zm6.4-41l-.5.1v.4h.5V12zm-5 42.7l.1-.6-.6.1-.1.5h.6zm5.6-45.6l.1-.4h-.6v.4h.5zM13.6 57l-.3-.1-.2.5.4.1.1-.5zm1.6-.9l.3-1h-.8l-.3.9.8.1zm5.3-45.5l.2-.5h-.6l-.1.4.5.1zm.5-3.1h-.3l-.1.4.4-.2v-.2zm1.2 1.8l.2-.7-.7.1-.1.6h.6zM16 56.7v.4l.4.1.1-.5H16zm1.1-2.7h-.5l-.1.5h.5l.1-.5zm1.1 1.2h-.7l.1.7.6-.1v-.6zM25.4 6l-.5.2-.8.5-.3.3-.3.8h.7l.3-.4.3-.3.3-.3.3-.3V6zm-6 47.7l-.2.7h.7l.1-.7h-.6zm5.8-44.6l.1-.6-.5-.2v.6l.4.2zm-5.4 47.5l.4-.3.3-.2.4-.3.4-.7-.3-.2-.5.4-.5.2-.3.2-.2.3-.4.5.2.3.5-.2zm6.5-48.9h.7V7h-.6l-.1.7zm2 1.1v-.6l-.7.1V9l.7-.2zM22.8 54v-.7h-.5v.7h.5zm5.8-48.4h-.4V6h.4v-.4zm-6.2 50.5h-.1l-.2.2.2.1.1-.3zm7.4-49.3h-.6l-.1.7h.7v-.7zm-5.6 48.4l.1-.5h-.4l-.1.5h.4zm1.7-2h-.7l-.2.8h.7l.2-.8zm6.8-46.5h-.4l-.4.5-.3.3-.3.4-.3.1-.4.5.1.4.6-.3.4-.2.2-.4.3-.2.3-.4.2-.7zm-.1 2.9l-.7.1.1.6.7-.1-.1-.6zm-5.1 42H27l-.1.5h.6v-.5zm4.2-39v.5l.8.1v-.7l-.8.1zm-.1 6l-.7.1.1.6.5-.1.1-.6zm0-2.6l.3-.1v-.4l-.3.2v.3zm2.3-5l-.8.1-.1.8.7-.2.2-.7zm-.2 3.1L33 14l-.4.7h.7l.4-.6zm-5.3 36.1v.5l.5-.2v-.4l-.5.1zm5.8-41.9h-.7l-.1.7h.6l.2-.7zm-5.3 44.5h-.4l-.2.4.5.1.1-.5zm6.9-31.6L37 19l.4-1.1.5-1.2.3-1.2.3-3.5-.3-3 .5.3.7.9.6 2.1.1 1.2-.1 2.4-.5 2.5-1.3 3.4-1.4 2.4-1.2 1.5-1.6 1-1.1-.1-1-.5-.1-.7 1.9-.8.9-1.1 1.2-2.3zm-2.5-4.1h-.4l-.1.5h.5v-.5zm1.4-1.5l-.5-.1-.1.6.4.1.2-.6zm.5-5.8l.2-.2h-.3v.1l.1.1zm-.3 2.8h-.2l.1.3h.1v-.3zm-4.7 38.9H30v.4h.2v-.4zm5.9-8.3l-.3.3-.2.5.4.2.3-.7.2-.3.1-.5-.5.5z"/><path d="M71.8 37.4l1 .5.5.9-.1 1.5-.7 1.4-.7 1.1-.7 1.2-1.3 2.1-.7.6-.8.9-.8 1.2-.8.9-1.9 1.4-.9.6-1.1.6-1.2.4-4.3.2-1-.2-1.3-.2-5.5 2.9-1.2.4-4.3.2-.9-.4h-.9l-2.5-1.3-.7-.6-1.5-2.5-1.2-4.2.1-4.4-.1-1 .2-2.5.3-1.1.1-2.1.3-1 .2-2.5.3-1.1 1.4-5.8.1-.9.4-1.2.2-1.1.5-.9.5-2.3 1.3-3.5.5-.8 1.4-3.5.7-1 .4-1 .6-1.1 1.5-1.8L49 4.8l1.1-.7 1-.5 1.6-.6 1.5-.2 1.2-.3 3 .9.8.4 1.4 1.5.5 2 .2 1.2-.2.9-.1 1.3-.1 1-.5 1.3-.4 1-.4 1.1-2.6 5.6-.7 1.1-1.5 1.8-.1 1 .9.5 2.9.5 1 .6.9.4.6.7 1.2 1.7.4 1.1.4 2 .2 2.3v.8l-.3 2.2-.4 1.3-.1.9-.4 1.2-.8 2.3-.5.8-.4 1.1-.6 1-.1 1.1 1.1.5 1.5-.3 2-1.1.8-.9 1.6-2.2.5-1 .8-1.1.6-1.1 1.1-1.4 1.2-1.2 1 .1zm-33.6-2.1l-.2.8.2.2.8-.2-.1-.8h-.7zm1-3.1l-.7.1.1.8.6-.2v-.7zm.6-3l-.8.2v.7h.7l.1-.9zm-1.2 9.3H38l-.2.7h.7l.1-.7zm-.9 3.2l-.2.5.6.1.1-.6h-.5zm.1 3.6l.1-.5h-.5l-.1.5h.5zm2.4-8.5h-.8v.7h.7l.1-.7zm-.4 3l-.8.2v.9l.9-.1-.1-1zm-.1-5.2l.7.1.3-.3.2-.7-.2-.3-.8.2-.2 1zm1.3-9.8l-.1.5.5-.1.1-.5-.5.1zm.3 3.1h-.7l-.1.7h.7l.1-.7zm-.3 2.7h-.7v.7h.7v-.7zm-1.6 13.1v-.6h-.5l-.1.6h.6zm-.2 3.3v-.8h-.7l.1.8h.6zm3.1-28.2l-.5.1v.4h.4l.1-.5zm-.4 3.3l.1-.5h-.4l-.1.4.4.1zm-3.1 27.6l.1-.5-.6.2.1.5.4-.2zm3.1-14.5h-.7l-.3.2v.6h.9l.1-.8zm.6-3.2h-.7l-.3.2-.2.8h.8l.3-.2.1-.8zm-1 6.3l-.8.2-.1.7h.8l.1-.9zm-.6 3.2l-.4-.1-.2.5.5.1.1-.5zm-1.1 6.1l-.2.8.7-.1.1-.7h-.6zm4.3-34l-.3.5.3.6.5.6.2.4.5.5.5-.6-.4-.6-.5-.5-.2-.3-.2-.4-.4-.2zm-.1 3.1l-.6.2v.7l.6-.2v-.7zm.5 4.4l-.4-.6-.1-.3-.4-.4-.6.5.3.6.3.3.3.2.3.3.3.3.2-.2-.2-.7zm-1.6 5l-.6.2.1.6.6-.2-.1-.6zm.4-2.7v-.5h-.4l-.1.5h.5zM42 29.3v.7l.8-.1-.1-.7-.7.1zm-1.9 21.9l.1-.7h-.7l-.2.7h.8zm.6-6.4h-.4l-.1.5h.4l.1-.5zM45.3 12l-.1.8.6.2.2-.8-.7-.2zm.2 6.4l-.8.1.1.6.6.1.1-.8zm-1.7 12.1l-.6.1v.6l.6-.2v-.5zm6.7 18.7l.9-1.4 1-2.5 1.3-1.3 1-.7 1-1.1.9-2.1.4-1.3.4-3.1v-2.3l-.3-.9-.6-.7-.6-1-.9-.2-1.4-.1-1.7-.1-2 .6-1 .6-1 .4-.9.6-.9 1-.8.7-.8.9-.6 1.1-.8.9-1.1 3.4-.1 1v1.1l.3 3.3.7 2.2.7 1 .8.6 2.4.3 1.6-.2 2.1-.7zm-7.1-14.9l.1-.7h-.7l-.1.8.7-.1zm-2.2 18l-.4-.1-.1.5.5.1v-.5zm.5-3.4l-.5.2-.1.4h.5l.1-.6zm2.6-21.7l-.3 1 .2.9.8-.3.8-.6.7-1 .7-.7.7-1.1.8-.9 2-3.1 2.7-5.2.8-2.2.3-1.3.3-1.9-.1-1.2-.4-.8-1.2-.1-1.4.5-2.2 3.1-1.5 3.6-.6.9-.2 1.2-.5 1-2.2 6.8-.2 1.4zm8.1 7.2l-.9.6-.9.3-1 .6-.9.7-2.3 3.1-.5.9-1 3.2.4 3.2.3.9v.4l-.6-.1-1.2-1.6-.2-1.2-.3-3.3.3-1.6.7-1.6.7-.9 1.5-1.9 1.8-1.8 2.1-1.5 1.2-.5 1.2-.2 1.4.1.3 1-1 .8-1.1.4zM42.2 50.8l.1.4h.5l-.1-.6-.5.2zm5.7-40.3h-.7l-.2.8h.7l.2-.8zm-.4-2.4h.3l.1-.3-.4-.1v.4zm-.2 5.7H47l-.3.4.5.2.1-.6zm-1.9 15.9l.1-.4h-.4l-.1.5.4-.1zm-.2 2.3l-.6.1-.1.7.7-.1V32zm27.4 15.5l-.1 1-1.8 3.2-1.4 1.5-2.6 1.9-1 .3-.9.3-3 .6-5 .2-.9.3-3.1 1.5-2 .6-3.1.4-1-.1-2.7-.8-1.6-.9-.1-.4h.5l.9.2.9.1h1.6l1 .1 1.4-.1 1.3-.4 1-.2 1.9-.8 1-.6.9-.4 1.1-.4 4.4.1 3.1-.5 1-.4 2.8-1.6 2.3-2.2 2.3-3.6.1-.3.2-.2h.2l.2.5.2 1.1zM47.2 22l.5-.9.3-1.4 1.4-3.4 1.8-3.2.6-.8.8-.6.5.9-.3 1.7-.7 1.7-1.6 3-.5 1.2-1.9 2.9-1.3 1v-1l.4-1.1zm1.6-13l-.2.7h.7l.1-.7h-.6zM50 5.7l-.7.1v.7l.7-.3v-.5zm-5.6 46.2h-.7l-.2.7.8.1.1-.8zM47 30.5h-.5l-.2.5h.5l.2-.5zm4.5-25.7l.1-.6H51l-.1.7.6-.1zm-2.7 23.9l-.7.1-.1.7h.5l.3-.3v-.5zm-2.5 26l-.2-.6-.3-.8-.6.3-.1.5.5.3.4.1.3.2zm4.8-47.1h-.4V8l.5-.1-.1-.3zM49.2 26h-.6l-.1.7h.5l.2-.7zm-3.3 25h-.4v.4h.4V51zm5.6-22.4l-.7-.8-.1-.4.2-.5.7-.6.5-.7-.1-.2h-.7l-.3.2-.3.4-.2.4-.3.3-.7.8.2.6.3.3.8.6.5.3.3-.3-.1-.4zm1.4-22.7h-.6l-.2.5.6.1.2-.6zm-5.6 46l-.7.1v.8l.7-.1v-.8zM50.9 24h-.7l-.2.8h.7l.2-.8zm.4-2l-.1.6.5.7.8-.3v-.7l-.7-.3h-.5zm-2.9 31.9l.2-.6h-.7l-.1.6h.6zm6-49.6H54l-.1.2.3.1.2-.3zm-.3 2.8l-.4.2-.1.5h.5v-.7zm-1.3 12.5h-.4l-.1.5h.4l.1-.5zm2.1 8.9l-.4-.3-.8-.8-.6-.6-.6.7.4.6.3.2.5.4.5.5.5-.3.2-.4zm-1.4-7.6l.1.7h.7l.1-.7h-.9zm-.4 3v.7h.7l.1-.7h-.8zm1.5-6.1l-.7.1-.1.7.7-.2.1-.6zM56 6.3l.2-.7-.7-.1-.1.7.6.1zM50.5 52l.1-.7-.6.3-.1.7.6-.3zm4.1-36.8l.2.5.2.3.1.3.1.4.4.6.6-.4v-.7l-.2-.3-.3-.3-.5-.4h-.6zm1.8-2.2l-.2-.3-.3-.2-.4-.3-.1.5.1.3.2.3.3.3h.5l-.1-.6zm.7-2.3V10h-.8v.9l.8-.2zm-1.6 8.6l-.4.1.1.4.3-.2v-.3zm-1 6.5l-.2.2.4.1v-.3h-.2zM52 50.9l.1-.7h-.7l-.1.7h.7zm-.9 2.3l-.1.5.5-.2.1-.4-.5.1zm6.4-49l-.2-.2-.1.2.1.1.2-.1zm-3.7 44.2H53v.6l.2.3.8-.2-.2-.7zm5.1-43l-.4-.1-.3.5.6.2.1-.6zm-.3 3.1h-.7l.1.7.5-.1.1-.6zm-5.1 43.2l-.5-.2-.3.6.6.2.2-.6zm4.3-37l-.6.1v.5h.5l.1-.6zm-.8 3l-.2.3.3.1v-.3l-.1-.1zm-.4 9.3h-.8l-.1.7h.7l.2-.7zm1.6-15.3h-.5l-.1.5h.4l.2-.5zm-4.5 33.8l-.1.6h.4l.1-.6h-.4zm5.6-15.6l-.3-.3-.3-.2-.3-.2-.4-.6-.5-.4-.7.6.5.6.3.3.3.2.3.3.5.4.6-.3v-.4zm-4.8 20.2l-.1.5h.6l.2-.6-.7.1zM59 20.3l1.9-4.3 1.1-3.2.3-3.3V8.4l.1-.9-.1-.7.5.2.5.6.3 1.2.3 1.9-.1 2.2-.3 1-.1 1.3-.4 1-.3 1.1-1.4 3.3-1.1 2.1-1.3 1-1.2-.1.3-1.5 1-1.8zm0-7.3l-.1.2.3.1v-.2L59 13zm-3.5 34.5v-.6H55l-.1.7.6-.1zm4-38l-.1.7.6-.3.1-.6-.6.2zm-3.6 34.9l.1-.7-.5.1-.1.6h.5zm3.1-17l.1-.4h-.4l-.1.5.4-.1zm-.3 16.2l-1-1.1-.3-.2h-.6l.3.6.2.4.3.3.2.4.4.5.5-.3v-.6zm-1.4 1.3l-.8.1-.1.8 1-.1-.1-.8zm1.6 3.4l.1.3.3.2.7-.1v-.5l-.3-.2h-.4l-.4-.3-.1-.7-.3-.4-.7.1-.3.5-.2.7-.2.2h-.5l-.4.2-.1.7.7.4.2.3.2.7.3.3.8-.2.2-.8-.2-.3-.6-.4-.2-.3-.1-.3.3-.4h.7l.5.3zm-.7-15.2v.3l.3.1v-.3l-.3-.1zm-1.8 18.5l-.2-.1-.1.2.2.1.1-.2zm4-20.3h-.6l-.4.7.8.2.2-.9zm-1.2 9h-.5l-.2.6.6.1.1-.7zm.7-6.1l-.5.1v.4l.5-.1v-.4zm.7-5.8l-.5.1-.1.4h.4l.2-.5zm.2 7.3l-.3.3-.3.2-.3.3-.5.8v.7l.6-.3.3-.3.5-.6.4-.4.4-.5-.2-.4-.6.2zm.9-3.1l-.7-.1-.2.7h.7l.2-.6zm-1.8 9.3l-.1.4h.7l.1-.5-.7.1zm.5-2.9v.4h.5l.1-.4h-.6zm-1 12.3l-.4-.1v.2l.3.1.1-.2zm1.8-1l.2-.7-.6-.2-.2.7.6.2zm1.9-7.9l.3-1.1.4-1.2.1-1 .4-1.3v-1.3l.2-1.1.1-1-.1-2.1.1-.9.9 1.1.6 3.2v2l-.3 2.5-1 2.6-1.3 1.3-.7.1-.1-.8.4-1zm-.3 6.2l-.3-.1v.3h.1l.2-.2zm1.2 1.2l-.3-.1-.1.3h.3l.1-.2zm2-1.8h-.4l-.2.5h.5l.1-.5zm1.1-1.8v.3l.2.1.1-.3-.3-.1zm2.8-3.3v-.2l-.3-.2-.1-.1V42l-.1-.2-.1.4.2.3.4.4z"/><path d="M72.1 54.5l-.9-.3-.9-.7-1.3-1.3-.8-2.1v-2.2l-.1-1.1.3-3.6 1.1-4 1-1.6 1-.1 1.2.3.6.7-.2 3.1-.4 1.2-.2 2 .1 1v1.3l.4.7.4 1.1 1.3.1 1.3-.2 1.1-.8.9-1 .7-.9 1.2-1.9.7-.9.3-1.3-.8-.9-2.3-1.6-1.1-1.8-.4-.7-.4-3.4.2-1.3.4-1.8.4-1 .6-1 .9-.9.6-.8.9-.9 1.8-1.2 1.1-.4 1.2-.7 3.2-.3 1.9.4 1.2.1.9.4h1.1l2.7-1.6 1.9.4.8.4.2 1.5.1 1.5-.3 1.3-.7 2-.2 1.3-.4 1.1-1.6 6.8-.4.9-.5 3.6-.3 1 .3 2.2 1 .5h1.7l.9-.6.9-.6 1.5-1.8.8-1.1.8-.9 3.8-6 1.3-1 .9.1.9.6.5.5v1.6l-1.8 3.6-.6 1-.9 1-.6 1.1-.7.9-.5.9-3.4 3.8-2 1.1-1 .8-.9.6-1.4.4-1.4-.1-1.6.2-2-.6-.8-.8-.5-.7-.8-4.2.2-1 .1-2.1.1-1-.3-.9-1.1-.1-1 1.3-.6 1-.5 1.3-2 3-3.3 3.9-1 .9-.9.4-2.7 1-1.8.2-1.1-.3zm-1.2-6.6h-.4l-.1.4.4.1.1-.5zm.3-3H71v.2l.1.1.1-.3zm1.1 4.2h-.7l-.2.7h.7l.2-.7zm1 2.2l.2-.5-.5-.2-.2.6.5.1zm.8-7.7l.4-2.2.6-1.1 1 .5-.1 4.4-.6 1.5-.9.3-.4-1v-2.4zm10.8 9.3l-2.3 2.5-2.3 1.9-4.5.9-1.2-.1-1-.6-1-.5-.1-.7h.7l.9.3 1.6-.3 2.8-.8.7-.7 1.1-.7.7-.9.9-.8 1.5-1.9.5-.8.9-1.1.5-.9.7-.6.3.8v1l-.3 1.5-.6 1.6-.5.9zm-9.8-.9h-.5l-.3.6h.7l.1-.6zm2.8-19.5l-.1.7 1-.1-.1-.7-.8.1zm-2.1 18.2l.1.6.5-.1v-.5h-.6zm2.8-15.5l-.7.2-.3.3.1.6h.7l.1-.4.1-.6.4-.3.5-.1.4-.4v-.6h-.7l-.2.3-.1.5-.3.5zm.1-5.3l-.3.1v.3l.3-.1v-.3zm.8 1.1l-.1.7h.7l.2-.6-.8-.1zm.2 5.8h-.8v.7h.7l.1-.7zm-.9 13.7l-.3.3-.4.2-.4.3-.3.3-.2.5.3.2.6-.5.3-.3.3-.2.4-.3.4-.5-.1-.1-.6.1zm-.6-1.5h-.5l-.1.5h.6V49zm2.1-20.6l-.1.3.4.1.1-.5-.4.1zm.3 7l-.1.7h.7l.1-.8-.7.1zm.2 3l-.5.1-.1.5h.7l-.1-.6zm.6 7.2l-.2.2-.4.2-.7.6-.9.9.4.6.6-.6.3-.3.3-.3.3-.3.2-.3.3-.4.7-.6.5-.2.3-.4v-.6l-.6.1-.3.3-.2.5-.6.6zm.9-18.6h-.5l.1.3.4.1V27zm-.4 2.7h-.4v.3h.3l.1-.3zm6.3 7l1.1-.8.8-1.3.6-2.3.6-1.1-.3-1.3-.7-1.1-.9-.3-1.1-.1-.9-.2-2.1.4-1.3.5-.7.6-.8.9-.8 1.5V34l.2.8.5.9.7 1 .8.4h3.2l1.1-.4zm-7.8 12.5l.4.2.2-.5-.6-.2v.5zm2.9-20.7l.1-.3h-.2l-.2.3h.3zm.3 9.7l-.6.5-.4.3-.3.4-.3.3-.5.8.7-.1.3-.4.3-.3.4-.3.5-.8-.1-.4zm-.6 3l-.4.4-.3.3-.3.3-.3.4-.2.2-.1.5.5-.2.3-.3.7-.7.5-.5-.1-.5-.3.1zm1-9.4l.5-.6 1-.9.9-.5 1-.1 1.1-.1 1 .5-.3 1-2.3.8-1 .6-.5 1.1-.4 1.1-.1.8-1.3-1-.1-1.2.5-1.5zm1.3-5.2l-.4-.1-.2.5h.4l.2-.4zm0 12.8h-.7l-.2.7.1.2.7-.1.1-.8zm-.5 3h-.5l-.1.7.6-.2v-.5zm1.5-1.4l-.7.1.1.7.7-.2-.1-.6zm1.5-14.9l-.3.4.2.4.7.4.3.2.5.1-.1-.4-.3-.3-.1-.2-.3-.4-.6-.2zm.1 14.1l.3-.4-.4-.6-.2-.2-.4-.6-.6-.3-.2.7.2.4.3.3.2.3.3.3.5.1zm2.3.1h.4l.4.1.5.3v.3l.4.6h.2l.5-.6-.4-.6-.5-.1-.2-.4.4-.8.4-.3.6-.5-.3-.6-.8.4-.6.5-.5.3-.3.3-.3.4-.2.4-.3.5-.9.4v.5l.8.2.3-.8.4-.5zm1.1-13.7V26h-.7l-.1.7.8-.1zm-1.5 11.9v-.6h-.7v.7l.7-.1zm.8-2.4v.8l.3.2.8-.1.2-.7-.3-.2-.3-.1-.7.1zm2-8.7h-.7l-.2.8h.7l.2-.8zm-2.5 14.8l-.1.5h.6v-.5h-.5zm.2 3.1l-.6.1v.4h.5l.1-.5zm2.3-12.6l.4-.1.6-.4-.1-.6h-.6l-.5.5-.1.5-.4.5-.4.2-.1.6.5-.2.3-.5.4-.5zm-.7-2.1v.4l.3-.2-.1-.3-.2.1zm2.2-4.9l-.6.1-.2.7.7-.1.1-.7zm-2.4 20.9H91v.7l.7-.1v-.6zM93 35.4v-.6h-.6l-.1.7.7-.1zm.3-5.9h.6l.1-.7-.7-.1v.8zm-1.5 14.9l.1-.4h-.5l-.1.5.5-.1zm-.6 5.8l.1-.5-.3-.1-.2.5.4.1zm4-20.1l-.8-.1-.2 1h.8l.2-.9zm-.9 6h-.4l-.3.7h.5l.2-.7zm-1.4 6.4l.4.1.1-.4H93l-.1.3zm.2 2.8h-.4l-.1.5h.4l.1-.5zm1.8-18v.7l.6-.1v-.6h-.6zm-.1 5.7l-.6.1-.1.7.6-.1.1-.7zm-2.3 18.6l.1-.5h-.4l-.1.5h.4zm1.2-2.4l-.2.2v.7h.7l.2-.9h-.7zm2.9-20.1l-.2-.5-.4.2v.4l.6-.1zm11.6 16.3l-.1.9-.8 1.5-1.9 2.8-1.4 1.6-1.6 1.4-.9.5-.7.6-.9.6-1 .5-1.5.5-1.3.2h-1l-.8-.2-.6-.3-.7-.6v-.7h1.4l1.6-.2 1.3-.4 1.9-1 2.6-1.8 2.6-3 3.2-4.6h.2l.2 1 .2.7zM96.9 25.8l-.3-.1v.3l.3-.1v-.1zm3.6.6l.7.3.1 1.5-.3 1.6-.5.9-.5 2.3-.4 1-.2 1.3-1.3 4.4-.1 1.1-.6 2-.2 1.6-.5.6-.7.2-.5-.6-.2-.5-.1-.7.1-.6 1.7-7.3.5-1.2.9-4 .5-1.1.6-2.2.4-.8.6.2zm-4.8 21.7h-.4l-.1.5.5-.1v-.4zm-.3 2.9l-.5-.1v.6h.5V51zm1.9-1.8h-.7l-.1.7h.7l.1-.7zm1.6-1.5l-.6.1v.5l.6-.1v-.5zm1.6-1.5h-.4l-.2.5h.5l.1-.5zm1.6-1.2v-.4l-.4-.1-.1.6.5-.1zm1.7-1.8h-.4l-.1.4.3.1.2-.5z"/><path d="M115 40.8l1-.8.8-1.1 1.6-1.6 1.2-2.1 1.5-3.1.3-1 .2-1.4-.2-.9-.4-.9-.7-.8-1.5-.2-1.4.4-1.1.6-.8.6-.9.8-.9 1-2.7 4-.4 1.3-.7.9-.5 1.1-1.6 2.6-1.3 1-.9-.2-.9-.5-.5-.9.3-1.5.6-1.3.7-1.1 1-2.3 1.3-1.9.5-1.4.8-1 .5-1.1 3.3-3.7.8-.8 1-.6 2-.8 2.8-.7 1.7.1 1.1-.1 2 .6 1.7 1.5.6.9.4.7.3 1.2.2 2.2v1l-.3 1.3-.2 1-3.1 6.6-.9.7-.8.9-.9.9-.5.8.5.9.8.3.9.6 1.1 1.4.4 1.2.3 1.2.6.5.8-.3.9-1 1.8-1.6.6-1.1 1.6-2.1 1.3-1.9.5-1.2.9-1.1 1.7-2.4 1.1-1 1.2.1.8.2.5.9-.1 1.3-.7 1.6-.7 1-.5 1.1-1.4 2.3-.8.8-.7 1.2-.8.9-.7 1.1-2.4 2.6-.7 1-2.8 2.7-1 .7-.9 1.2-2.5 7.2-.5.8-.4 1-.8 1.2-.5 1.1-1.7 1.8-1 .7-.8.8-1.5.8-1.7.4-1.1.5-1.7.1-1.6-.1-2-.6-.7-.8-.7-.9-.3-.8-.2-1.2-.1-1.2.6-2.3 1.6-2.7.9-1.1.8-.8.8-.6 1.1-.9.9-.6 3.1-1.6 1.1-.9 1.9-.8 1.3-1.3.4-1.3-.2-1.2-.7-2-.7-.5-1.1-.4h-1.8l-1.1.1-1.7-.2-.7-.6-.3-1.1.1-1 1.3-1.2 1.5-1 .5-.8zm-7.2-6.1v-.3l-.4.1v.3l.4-.1zm11.4-4.3l-.6.9-.7.5-1.5 1.5-.7 1-.7 1.2-.7.9-.7 1.3-.7.8-2 3.5-1.4 2-1.1 2.1-.5.7-.6-.8-.3-.9.1-.7.4-.8 1.2-2.1.5-.7 1.6-2.7.1-.2 2.7-4.1.5-.9 1.6-2 1.8-1.6 1.5.1.2 1zM107.4 65h-.7l-.4.8h.7l.4-.8zm4.1-36.6v-.2l-.3.2v.3l.3-.3zm-4.1 34.1v-.4h-.4v.5l.4-.1zm-.6 6.2l.1-.4-.4-.2v.4l.3.2zm1.7-1.6l.4-.3.3-.4.3-.3.4-.2.4-.5-.3-.6-.8.5-.9.7-.4.6.2.5h.4zm-.1-3.8l-.1.7.6.1.1-.7-.6-.1zm.7-2.6l-.2-.1-.1.3h.3v-.2zm1.7-1.4l.1-.5h-.6v.5h.5zm-.5 3.1l.2-.3h-.4l-.1.4.3-.1zm-.4 5.5h-.6v.7h.5l.1-.7zm5.1-43.1l-.4-.1-.1.4.4.1.1-.4zm23.1 20l-.5 1.1-1.1 1.9-1.3 1.9-1.7 1.9-.8 1.1-.8.9-.9.8-.8.9-1 .9-1.1 1.4-.6 1.7-.4 1.3L125 66l-.8 1.6-.7 1.1-1.7 1.9-1.9 1.5-1.2.7-1.3.4-1.1.3-3.6.4-1.1-.2-1-.5-.9-.6-.3-.4h.7l2.1.1 2.5-.4 1.2-.4 2.2-1 1.1-.7 1-.8 1.8-1.9 1.4-2.3 1.1-2.3 1.5-4.9.6-1.6 1.1-1.4 2-1.8 5.7-6.7 2.1-3.6.3-.3h.2l.5 1.8-.4.8zm-23.3 19.8l.8-.8.8-1.1 1.7-3.6-.4-.9h-.8l-1.2.8-1 .8-2.8 2.7-.6 1.1-.1 1.1 1.2.7 1.4-.2 1-.6zm-2.8-4.4l-.2.1v.2h.4l-.2-.3zm-.5 6.1h-.4l-.1.7h.4l.1-.7zm5.2-43h-.3l-.1.4.3.1.1-.5zm-5.9 46.3l-.1.4h.4v-.3l-.3-.1zm4.9-26.3l-.4-.1-.1.3.3.2.2-.4zm2-18.8l-.2.5.5.2.2-.7h-.5zm-3.6 34.1h-.5v.4l.5-.2v-.2zm.9 2.1l.8-.3.1.4-.5 1.1-.9 1.1-1 .6-.5.1-.1-.4.2-.8 1.9-1.8zm-2.4 7.2l-.2.1v.4l.3-.3-.1-.2zm7.2-44.8h-.4l-.1.5h.5v-.5zm-2.1 18.2l-.6.2-.1.5.6-.1.1-.6zm-.5 3.2l-.5.1v.6l.5-.2v-.5zm-1.4 12.4l-.6.2-.1.5h.4l.3-.7zm-1.4 9.6v.6l.3.3.3.2.3.3.4.3.4-.3-.2-.4-.2-.3-.3-.3-.2-.4h-.8zm4.4-22.9l.2-.6h-.7l-.1.6h.6zm-1.4 11.9l-.6-.1.1.6h.5v-.5zm3.7-30.4l.1-.4-.5-.3-.1.7h.5zm-1.8 14.6l-.5.3-.1.4.5-.1.1-.6zm.3 5v.4h.4l-.1-.4h-.3zm-1 9l-.1.5h.4l.1-.4-.4-.1zm.4 2.9h-.7l-.1.7h.6l.2-.7zm3.3-33.6l-.1.5h.5l.1-.5h-.5zm.2 3l-.5-.1-.1.5h.5l.1-.4zm-5 40.3h-.4l.1.4.2-.2.1-.2zm3.9-31h-.3v.4l.3-.2v-.2zm-.5 3.1l-.1-.1v.4h.3l-.2-.3zm-1 9.3h-.2l-.1.4h.3v-.4zm1-1.8l-.1.6.7-.1.1-.5h-.7zm-.5 6.1l-.3.5.3.5.3.3.3.2.2.4.6.4.5-.4-.2-.7-.2-.3-.3-.3-.2-.4-.4-.3-.6.1zm3.8-27.7h-.6v.7h.5l.1-.7zm-3.7 30.8l-.6.1-.1.8.7-.3v-.6zm3.3-27.9h-.4l-.1.4.5-.1v-.3zm-4.5 34.2l-.1.7.6-.2v-.5h-.5zm2-12.4h-.4l-.1.4.5.1V49zm-1.6 9.2l-.1.4h.4l.1-.5-.4.1zm2.4-1.8h-.9l-.2.8.9.2.2-1zm.3-5.8h-.5l-.1.4h.5l.1-.4zm2.1-21.5l.2.4.5-.1V29l-.7.1zm-1.4 18.3h-.5v.6h.4l.1-.6zm2.8-9.5l.5-1.1.7-.9.4-1.3.9-2.1.1-2.4.2-1.3v-.9l-.3-1.8.3.2.6.9.9 1.9.3 2-.3 1-.1 1.3-.5 2.1-.5.8-1.1 2.3-.5.9-1.6 2-1 .2-.9-.9.4-1.1 1.5-1.8zm-1.7 10.8l-.7.1.2.7h.5v-.8zm-.1 3.8v-.9h-.7v.8l.7.1zm-.8 3v-.4l-.3-.1-.1.5h.4zm1.6-2.3h-.2v.2h.3l-.1-.2zm.9-3h-.7l-.1.8.7-.3.1-.5zm.9-1.6l-.1.6.6.2.2-.8h-.7zm3.8-3.1l-.2.2v.1l.4-.1-.2-.2z"/><path d="M141.6 50.5h-1.1l-1-.2-1.9-.9-1.1-.8-.6-.6-.6-.8-.3-.8-.4-.8-.6-2.7v-1l.2-3.9.3-1.9.4-1.1.3-1 1.5-3.8.5-.8 1.7-2.6.7-.9 1.4-1.5 2.4-2.1 2.3-1.2 2.5-1 3.8-.3.9.1 2.3.6 1.4.1.8-.9 1.1-.9h2l.9.1.5.4.4 1.2.1 1.3-.5 2-.1 1-.3.9-.5 1.9-.4 3-.3 1.1-.1 1.8-.3 1.1-.3 2.9-.3 1v1.8l-.1 1 .3.9.6.7 1.1.2 1.3-.2.9-.4 2.3-2.2.5-.8.8-.9.5-1.1.8-.9 1.1-1.9.4-1 1-1.3 1.2-1h.9l.8.3.7.5.3.7-.3 1.4-.9 2-.7 1-.4.8-1.3 1.7-.5.8-1.3 1.6-.5.9-2.2 2.2-1 .6-.7.7-1.3.9-1.1.6-2.4.7-1.5.2-1-.1-.8-.3-.6-.5-.6-.7-.4-.9-.6-.8-.3-.8-.1-1.1-.2-.6-.8.3-2.7 3.1-1.7 1.3-.8.4-2.9 1.3-2.8.4-.7.5zm-5.7-13.2l.5-.3.6-.6-.5-.5-.6.5-.3.4v.3l-.4.5-.2.2.2-.1.7-.4zm.5-3.5h.4l.1-.5-.5.1v.4zm.1 6.2v-.8l-.7.1.1.7h.6zm-.5 2.4h-.5l-.1.5h.6v-.5zm2.9-10.9l-.2-.3-.7.2v.8h.7l.2-.7zm-.3 3l-.6-.3-.3.3-.2.7h.8l.3-.7zm-.7 3.2l-.6.2.2.5.5-.2-.1-.5zm-.9 3.6l.6.1.2-.7h-.7l-.1.6zm-.2 2.6l-.1.5h.5l.1-.5h-.5zm3.5-16.1l.3-.2.3-.3.3-.3.3-.3.2-.3.4-.4.4-.5-.3-.3-.6.3-.7.5-.4.3-.5.8-.1.4-.6.5-.4.2-.2.5.5-.2.3-.3.8-.4zm-.2 5h-.7l-.2.7.7.1.2-.8zm-1 6.4l-.4-.1-.1.5.3.1.2-.5zm.3-3.1h-.3l.1.2h.2v-.2zm-.7 6.6l.1-.5-.4-.1-.1.5.4.1zm0 3.1v-.7l-.7.1.1.6h.6zm1.7-15.4l.1-.5h-.5l-.1.6.5-.1zm11 21.1l-2.7 1.5-.9.3-1.4.3-4.2.1-.8-.2-1.7-.7-1.3-1-.2-.4h.6l1.8.5h5l1.4-.5 2.6-1.2 1.7-1.3.7-.9 1.1-.4.5.3v1.2l-.6 1.1-1.6 1.3zM144 26.6l-.6-.2-.6.7-.3.3-.3.3-.8.6-.1.4.5.6.5-.2.4-.8.6-.5.6-.5.1-.7zm3.3 17.3l1.7-1 .6-.8 1.4-1.4.7-.9 1.9-4 .8-2.3.5-2 .4-.9.1-1 .3-.9.1-.9-.2-1.2-.7-.8-1-.3-1.8-.2-1.5.2-1.4.3-1 .4-1.8 1.1-.8.8-1.4 1.6-2.3 3.7-.8 1.9-.3 1-.4.9-.3 3 .2.9v1l.3.8 1.2 1.3.8.5.7.1 2.9-.6 1.1-.3zm-8 2.9l.1.6.6-.2v-.5l-.7.1zm1.4 1.4l-.1.6h.6l.2-.6h-.7zM152 28.8l-1 .1-.8.3-.9.5-1.7 1.1-.7.7-.6.9-.7.9-1.3 2.7-.2 1-.2.9-.3 1-.1.9.2 1.9v1.5l-.6-.1-.9-1.4-.1-1-.2-.9.1-1.9.7-2.8.5-1 .5-.8.4-.9 1.2-1.7.6-.8.8-.8.9-.6.7-.6.9-.4.9-.3 2.8-.2.7.4-.1 1-.6.5-.9-.1zm-8.2-5v.4h.4l-.1-.4h-.3zm1.9 1h-.7l-.2.7h.7l.2-.7zm-2.4 21.7l-.6-.1-.3.7.7.1.2-.7zm3.9-23.2h-.5l-.1.5.6.1v-.6zm-2.7 24.5l-.6.2v.6h.7l-.1-.8zm4.4-25.5l.1-.4h-.4l-.1.4h.4zm-3.3 24.6l.5-.1.1-.5-.5.2-.1.4zm4.7-23.3v-.2l-.3-.1-.2.4.5-.1zm1.7-2h-.5v.4l.4.1.1-.5zm1.4 1.6l-.4-.1-.2.3.4.1.2-.3zm1 18.1l-.5-.3-.4-.1-.4-.7-.3-.2h-.3l-.3.3-.4.7-.3.3-.3.6.2.3.5-.6.4-.2h.4l.3.3.7.5.5-.1.2-.8zm-2.5 1.4l-.1.7.6.1.2-.7-.7-.1zm2.8-18.2l-.2.1v.2l.2-.1v-.2zm-.6 13.7l-.3.2.2.7.3.3.4.6.3.3.5.3.6-.5-.3-.7-.5-.6-.3-.3-.3-.3h-.6zm1.8-15.2l-.1.6.7-.1.2-.7-.8.2zm-.7 12.7v-.4l-.4-.1-.1.5h.5zm1-2.2l-.2.8.8-.2v-.8l-.6.2zm.2 2.9h-.7l-.1.6.7.1.1-.7zm.9-9l-.5.1v.5l.4-.2.1-.4zm.8-6.1h-.4l-.1.5.5-.2v-.3zm-.2 2.9h-.7l-.1.7.7-.1.1-.6zm-1.3 6.2l-.1.4.3.1.2-.3-.4-.2zm-1.3 12.5l-.1.5h.4V43l-.3-.1zm4.2-20.5l-.5.2v.6l.5-.2v-.6zm-1.2 10.2l.1-.6h-.6l-.1.6h.6zm-1.6 8.6v.7l.7-.1-.1-.6h-.6zm.3 2.8l-.6.3-.1.6.6-.2.1-.7zm1.7-18.3l-.1.5h.5l.1-.4-.5-.1zm-1.1 9.4v.5h.5v-.5h-.5zm1.6 1.5l-.4-.1-.1.4.3.1.2-.4zm-.6 6.1h-.5l-.1.6h.6v-.6zm2-21.3v.2l.4-.1v-.2l-.4.1zm0 2.9l-.2-.1-.2.3.3.1.1-.3zm-.8 6l-.3.1v.3l.4-.1-.1-.3zm-2 15.3l-.2.7h.8l.2-.7h-.8zm1.9 1.3h-.5l-.2.5h.6l.1-.5zm.2-2.6h-.5v.5h.5v-.5zm14.1-2.4l-.1.9-.8 1.5-1.9 2.8-1.4 1.6-1.6 1.4-.9.5-.7.6-.9.6-1 .5-2.8.4h-1l-.8-.2-.6-.3-.7-.6-.1-.7h1.4l1.6-.2 1.2-.3 1.9-.8 2.6-1.8 2.6-3 3.2-4.6h.2l.2 1 .4.7zm-12.5-.4l-.3-.6-.1-.9v-1.7l.1-2 .7-2.9.1-1.7.3-1.1.5-2.8.3-1 .1-1 .4-.9.2-1.1.6-.7.8-.2.5 1-.1 1.4-.8 3-.1.9-.7 2.8-.2 2-.3 1-.6 2.8v3.7l-.6.4-.8-.4zm-.6 4.1l-.1.2.3.2.3-.4h-.5zm1.2 1.5l-.1.3.3.1.1-.4h-.3zm2.1-1.5l-.1-.1-.1.1v.2l.2-.2z"/><path d="M221.8 29.1l.7.5.5.7-.2 1.6-1.3 2.7-1.5 2.2-.4 1-.9 1.1-.7 1.1-1.7 1.9-2.7 2.6-1.1.7-2.1 1.2-1.7.5-1.7.2-1.2-.1-1.1-.4-.8-.5-1.3-1.6-.3-2.2-.3-1.1.1-1.1-.1-1.2.4-3.6.7-2.5.1-1.1.6-3.5.5-1.8.2-1.7-.4-.9-.8-.6-1-.2-1.7.7-1.9.9-2.8 2.5-.9 1.1-.7 1.1-2 5.8-1 4.6-.2 2.3.2 1.1-.3 2.7-.7 1.4-1 .6-1 .3h-1.1l-1.1-.3-.9-1.4v-1.5l.1-2.3.7-4.8.7-2.4.1-1.1.5-1.2.3-1.3 1.1-2.9.4-1.7-.6-1-.8-.4h-1l-2.7 1.3-1.6 1-2 1.9-1.6 2.1-1.1 2.2-.8 1.2-1 3.1-.7 3.1-.2 3.7-.4 1.7-.8 1.5-1.2.5-2.3.1-1.1-.3-.6-1.4-.1-1.6.6-2.3 1.1-8.3.4-1.1 1.2-7.1.4-1.3.7-3.4.6-1.7 1.2-1.4 1.2-.4 1.3-.1 1.3.3.4 1.3v1.8l-1 3.7.1.7.9-.4.6-1 1.8-1.9 3.4-2 1.2-.6 3.6-.6 1.3.1 1.1.4 1 .6.4.9.9.5.9-.3L199 19l2.4-1.1 1.1-.4 1.7-.3h1.7l1.1.2 2 1 .7.6.6.9.6 2 .1 1.1-.4 2.9-2.2 7.7-.1 1.2-.4 1.3-.2 3.6.4.9 1.3.5 1.7-.2 1.4-1.1 1.3-1.3 3.8-5.2.5-1.2 1.1-1.5 1.2-1.1 1.4-.4zm-48.6 11.2l.2.7h.6v-.7l-.6-.2-.2-.4.2-.8.7-.6.3-.4.2-.8-.6-.1-.2.8v.3l-.5.4-.7-.1-.3-.2-.4-.1-.4-.6-.6.5.4.5.3.3.2.4.2.3.3.3.3.2.4.1.2.2zm-2 .4l-.6-.3-.2.7h.5l.3-.4zm1.4-12.6l-.4-.1-.2.5.4.1.2-.5zm-.7 6.4h-.5l-.1.5h.5l.1-.5zm-1.2 9.1l-.5.2-.1.4.5-.2.1-.4zm-.4 3.4l-.2-.1-.2.2.3.1.1-.2zm1.6-15.6v.4l.4.2.1-.5-.5-.1zm.9-6.3l-.1.2.4.1v-.3h-.3zm.4 10.7h-.7l-.2.7h.6l.3-.7zm.4-3.2l-.7.2.1.7.7-.3-.1-.6zm-1.7 10.1l.6-.1v-.5h-.7l.1.6zm3.1-19.2l-.7-.1-.2.8.7.1.2-.8zm-.7 3h-.6l-.1.6h.6l.1-.6zm-.3 3.8l.1-.9h-.7l-.1.9h.7zm-2.2 15.1l.3-.1v-.2h-.3v.3zm12.4-14.2l-2.4 2.9-2 3.4-.5 1.2-.7 1.8-.2 1.6v1.1l-1.1 6.1-.8 1.2-1.2 1-1.1.1H173l-1-.3v-.8l.9-.5 1-.2 1-.5.8-1.4.4-1.6.1-1.2.2-1.1.1-1 .2-1.2.1-1.3.8-3.4 2.5-4.4 1.6-2 1.1-.9.8-.9.9-.8 1-.6 1.1-.1.5.9-.8 1-2.1 1.9zm-8.3-3.5l-.7-.2-.3.2v.7l.6.2.3-.2.1-.7zm.2-2.9l-.9.1-.1.8.7.1.4-.3-.1-.7zm-1.6 6.2l-.1.7.2.3.7-.2.2-.2-.2-.7-.8.1zm.2 3.2l-.5.1-.1.4h.6v-.5zm-1.1 9.3l-.5-.3-.1.6.4.1.2-.4zm2.6-21.5l-.3-.1-.1.3.4.1V22zm1.3 1.3l-.4.2-.1.2h.4l.1-.4zm0 3h-.7l-.1.8h.7l.1-.8zm-1.4 6.4v.4h.4l.1-.4h-.5zm.5-3.4l-.1.9h.7l.1-.9h-.7zm1.5 1.8h-.5l-.1.5h.6v-.5zm.7-3.2l-.7-.1-.2.7.7.1.2-.7zm1.1-1.4l.3.1.2-.5h-.4l-.1.4zm2.2-1.7h-.4l-.4.5.6.1.2-.6zm1.4-1.9l-.1.5.4.1.1-.5-.4-.1zm1.6 2l.1-.5h-.5l-.1.6.5-.1zm1.7-2l-.5-.1-.2.7h.6l.1-.6zm1.7-1.8h-.4l-.3.6h.7v-.6zm-.9 3.1v.6l.5-.1.1-.5h-.6zm2.2-1.7l-.5.1v.4l.5-.1v-.4zm-3 21.6v.6h.7l-.1-.6h-.6zm1.5-11.9l.1.4.4-.2.1-.4-.6.2zm.1 2.9l-.5.1v.4h.4l.1-.5zm-.3 3.4V38h-.5l-.1.6.6-.1zm1.2-13.1l-.2.5h.6l.1-.4-.5-.1zm-1.9 16.3l.3-.3h-.4v.2l.1.1zm2.5-4.4v-.7l-.2-.3-.6.2v.7l.2.3.6-.2zm-1.5 5.3l-.2.7.6.2.2-.8-.6-.1zm1.7-9.4h-.5v.6h.5v-.6zm1.3-9l-.6-.1-.1.6h.6l.1-.5zm-2.5 15.4v.7h.6l.1-.6-.7-.1zm-.1 6.2h-.4l-.3.3.4.1.3-.4zm2.3-18.6h-.6v.5h.5l.1-.5zm-.6 3.2h-.4v.4h.4v-.4zm9.8-2.3l-1.8 1.7-1.3 2.3-.6 1.7-.4 1.7-.3 1.1-.1 1.2-.3 1.1-.9 8-.5 1.7-.6 1.2-1 .7-1.1.3h-1.2l-1.1-.3-.8-.8.4-.6 2.3-.3 1-.6.5-1.4.3-2.7-.1-1.2.4-1.2.4-3.3.4-1.2.3-1 .1-1.2 1.7-4.7.6-1.1 1.8-2 1.9-1.7 1.5-.8h1.2l-.2 1.3-1.2 1.2-1.3.9zm-9.5 9.9l-.4-.1-.1.5.5-.1V38zm1.9-12.5h-.8l.1.7h.7v-.7zm-.3 3l-.6-.1-.3.8.8.1.1-.8zm-.8 3.8v-.4h-.2l-.3.3.5.1zm-1.7 11.9l-.3.5h.4l.2-.4-.3-.1zm3-21.7h-.4l-.1.4h.4l.1-.4zm.9 4.5l-.5.1-.1.5h.5l.1-.6zm0-3v.5l.5-.2.1-.4-.6.1zm2.1-1.3l.1-.4h-.4v.4h.3zm1.5 1.3v-.3l-.3-.1-.2.4h.5zm1.7-1.8l-.5-.1v.5h.4l.1-.4zm1.8-1.8h-.7l-.1.6h.6l.2-.6zm1.3-1.4l-.3.1v.4h.3V19zm1.7 1l-.8.1.1.7.6-.1.1-.7zm1.2 2.1v-.4h-.4v.4h.4zm.5-3.4h-.5l-.1.5.5-.1.1-.4zm.1 10.6l-.5-.1-.2.6h.6l.1-.5zm-.3 3.2l-.6.1v.5l.5-.1.1-.5zm1.4-12.4h-.4v.3h.4v-.3zm-.3 3.1h-.4v.4l.4-.2v-.2zm-1.9 15.3l-.5.1-.1.4h.4l.2-.5zm.4-2.7v-.3l-.3.1v.2h.3zm1.9-4.3l.2-.6-.6-.2-.1.7.5.1zm-.4 2.4l-.5.1.1.4h.4v-.5zm1.7-12.3l-.6.1v.5l.5-.1.1-.5zm-.6 3.1l-.4.2.1.3h.3v-.5zm-1.4 12.2l-.5.1v.4h.4l.1-.5zm3.3-13.8l-.4-.1-.3.3.5.2.2-.4zm-.3 3.1h-.4l-.1.4h.4l.1-.4zm-1.9 15.4h-.4l-.1.4h.4l.1-.4zm15-2.4l-.1.9-.8 1.5-1.9 2.8-1.4 1.6-1.6 1.4-.9.5-.7.6-.9.5-1 .4-2.8.6h-1.3l-.8-.2-.6-.3-.7-.6-.1-.7h1.4l1.9-.2 3.2-1.3 2.6-1.8 2.6-3 3.2-4.6h.2l.2 1 .3.9zm-13.8 3.7l-.3.1v.3l.3-.1v-.3zm1.4-7.8l.1-1.2.6-2.5.4-1.3 1.1-4.8.3-2.2v-1.6l.9.7.5 3.6-.1 1.3-.3 1.8-2 8-1 1.4-1 .5-.3-1.1.8-2.6zm.1 9.4h-.5l.1.5h.4v-.5zm1.8-1.5v-.4l-.4.1v.4l.4-.1zm1.2-1.5l-.1-.2-.2.1v.3l.3-.2zm5.3-5.1h-.1v.3l.2-.2-.1-.1z"/><path d="M251.4 27.5l1-.1.9.3.7.6-.1 1.6-.8 1.8-2.5 4.3-.8.7-.7.9-3.7 3.5-2.2 1.2-2.8.4-1.4-.1-1.3.1-1.3-.1-3.5 2.1-1.2.5-1.6.3-5 .5-3.4-.7-.7-.8-1-.4-1.2-1.8-.6-2-.2-2.4.1-1.9.6-2.8v-1l.2-1.1 1.5-4.7.2-1.3 2.2-5.4.3-1 1-1.8 1.2-1.2 1.2-.5h1.1l.9.2.7.8-.1 1.6-.5 1.7-.6 1-1.6 4.5-.5 1-.4 1.3.2.7.9-.3 1-.9 1.2-.5 1.2-.6 1-.3 4.6-.2 3.6 1.8.7.8.4.9.8 2.8-.2 2.4-.3 1.2-.4 1v1.1l1.1.5 1.5-.5 1.9-1.4.7-.7.8-1.2.8-.9 2.6-4.4.9-1 .9-.1zm-31.6 6.8v-.2h-.4l.1.3.3-.1zm-.3 2.5l-.2-.1-.2.3.4.1v-.3zm2.5-7.6h-.5v.4l.3.1.2-.5zm-.9 2.7l-.1 1h.7l.1-1h-.7zm1.2-5.6l-.3-.1-.2.2h.2l.3-.1zm-.9 8.9h-.5l-.2.7h.6l.1-.7zm-.4 3.5l.1-.7h-.6l-.1.6.6.1zm1.5-2h-.5l-.3.6h.7l.1-.6zm.7-6.1l-.7.1-.1.6.7-.1.1-.6zm-1.1 9.6l.1-.5h-.6l-.1.7.6-.2zm.7-6.1l.2-.6-.6.1-.1.6.5-.1zm1.1-12.3v.2l.3.1.1-.4-.4.1zm-.1 5.8h-.5l-.1.5h.6v-.5zm-2.4 15.2v.5l.4-.1.1-.4h-.5zm2.4-17.6l.1-.3-.3-.1v.4h.2zm1.3.9h-.4v.4h.3l.1-.4zm.5-3h-.4v.4l.4-.1v-.3zm-1.1 9.4l.2-.8h-.7l-.1.7.6.1zm-.9 9.1l.1-.7-.7.1-.1.6h.7zm2.3-21.6h-.4v.3l.3.1.1-.4zm-1.4 9.2l.1.4h.4v-.4h-.5zm5.7 11.3l2-.8.7-1.5.6-1.7 1.5-2.6.4-1.3-.3-.9-.6-.9-.8-.8-.8-.2-3.1.2-1.1.4-1.2.8-1 .4-.8.8-1.5 2.4-.4 1.7-.1 1.2.3.7.6 1 1.4 1.3 1 .4 1-.1 1.2-.3 1-.2zm23-3l-.1.9-.8 1.7-1 1.6-1.4 1.5-2.6 1.9-1 .3-.9.3-3 .6-4.9.2-.9.3-3.2 1.7-2 .6-1.3.2h-1.4l-1-.1-2.6-.8-1.6-.9-.1-.4h.5l.9.2.9.1h1.6l1 .1 1.4-.1.9-.3 1-.2 4.1-2.1.9-.3 1.2-.1 1.9.1 1-.1 3.1-.5 1-.4 2.8-1.6 2.3-2.2 2.7-4.1h.2l.2 1 .2.9zm-27.1-6.6l.2-.5-.5-.1-.2.5.5.1zm-1.9 11.9l-.1.4h.4l.1-.5-.4.1zm2.1-7.9l.5-.9 1.4-1.3 1.6-.8 1.1-.3 1.3.4.6.9-.8.6-1.2.5-2.1 1.3-1.8 2.5-.5.1-.7-.7-.2-1.1.8-1.2zm-.7 9.2v.3l.2-.1V44l-.2.1zm3.8-22.3l.9-2.6.6-1.1.9-.8 1 .5-.2 1.9-1.4 3.6-1.2.8h-.7v-.9l.1-1.4zm-1.6 20.9l-.3-.2-.2.3.2.2.3-.3zm.9 1.2v.5l.5-.1v-.4h-.5zm1.4-1.5v.2l.3.1.1-.4-.4.1zm2.2-1.6h-.2v.2h.2v-.2zM232 44l.1-.4-.4-.1v.3l.3.2zm1.9-2h-.6l-.1.6.6-.1.1-.5zm-.2-2.9l-.1.4h.4l.1-.4h-.4zm3-10.8h-.6l-.1.6h.7v-.6zm-1.3 12h-.7v.7h.7v-.7zm.3-2.4l.1-.6h-.7l-.1.5.7.1zm.6-3l.1-.6h-.5l-.2.7.6-.1zm.5-3.4l-.5-.1-.1.7.5.2.2.4.1.4.2.3.7-.1-.1-.7-.8-.2-.2-.9zm-.3 7.3l-.1.6h.6l.1-.5-.6-.1zm1.7-8.9l-.3-.1-.2.5h.4l.1-.4zm-.7 6h-.5v.6h.6l-.1-.6zm-1 6h-.2v.4h.3l-.1-.4zm2.8-10.7h-.5l-.2.6.6.1.1-.7zm-.4 5.9h-.7l-.2.7h.7l.2-.7zm-.4-2.3l.6.2.2-.7h-.6l-.2.5zm-.2 5.4l-.5.2v.4l.5-.2v-.4zm1.9-1.6h-.5l-.3.5.5.1.3-.6zm-.7 3l-.2-.1-.1.2.3.1v-.2zm2-1.7l-.5.2v.5l.5-.2v-.5zm1.3-7v-1l-.1-1.4v-1.8h.5l1.1.9.5.8.4 1.6-.1 1-.7 1.5-1.4.7-.4-.9.2-1.4zm.4 5.7h-.6l-.1.5.6-.1.1-.4z"/><path d="M281.1 25.8l.8.4.6.8-.1 1.3-1.2 2.4-.5.8-.4.9-1.8 2.6-.8.9-.5.8-1.4 1.6-.9.7-1.1 1-1.2 1-.9.5-1.7 1.1-2.9 1-2 .4-.8.3-2.4.4-5.1-.5-.9-.2-.9-.4-.6-.6-1-.5-1.8-1.9-.3-.8-.5-.7-.4-.9-.1-.9-.3-.9-.2-.8.2-4.4.5-2.3.1-1 .8-2.8 2.1-3.7.5-.8.7-.8.5-.8.7-.8 2.2-2 3.7-1.9 1.8-.6 1.1-.2h3.7l.9.2.8.2 2.2 1.3.5.7.6.6.3.8.2 1 .3.9v1l-.9 3.2-.9 1.2-1.8.7h-.9l-.8-.2-.7-.5-.1-1.3.1-1.4-.1-1-.3-.8-.7-.5-1.4-.3-1.4.1-.7.1-1 .4-.7.6-1 .6-.6.8-.7.7L258 24l-.4 1-.3.8-.4 1-.6 2-.3 3.9.2 1.8.3.9.9 1.5.7.7 1.4.9.8.3.9.2h1.4l2.5-.3.8-.3 1.1-.2 1.9-.8 2.5-1.5 3.8-3.4.5-.8.8-.9.7-1.3 1-1.2.8-1.4 1.2-.9.9-.2zm-29.3 1.1l-.2.5h.6l.2-.7-.6.2zm-.3 5.9l-.6.2v.6h.6v-.8zm.5-3.2l-.6.2v.6l.5-.2.1-.6zm-.6 5.9h-.7l-.2.7h.6l.3-.7zm1.2-4.3l-.2.5.4.6.2.1.3.2.2.3.4.6.2.1.6-.6-.5-.6-.3-.2-.2-.4-.5-.6h-.6zm1.1-2.9h-.7l-.2.7h.6l.3-.7zm.2-3h-.5l-.1.6.5-.1.1-.5zm-.9 8.9h-.6l-.1.6h.6l.1-.6zm1.2-11.9h-.2v.2h.3l-.1-.2zm-1.7 15.6v-.4l-.4-.1-.1.4.5.1zm1.7-2.1h-.7l-.2.7h.7l.2-.7zm.9-11.6l.5-.1.1-.6-.6.1v.6zm-.4 5.5h-.3l-.1.4.3.1.1-.5zm1.4-9.1l-.5-.1-.1.5h.4l.2-.4zm-.9 6.4l.1-.4h-.4l-.1.5.4-.1zm-1.8 11.8v.5l.5-.1v-.5l-.5.1zm28.3-1.9l-1.7 2.9-2.4 2.7-1.3 1-.9.6-1.6 1.2-2.8 1.2-4 .9-3.7.4h-1.1l-.9-.1h-.9l-2.9-.5-2.5-.9-.9-.7-.2-.8.7.2.8.3 1.8.5 1.7.2h4.5l2.3-.3 1-.4.9-.1 2.9-.9 1.7-.8.9-.6 1.2-.9 1.3-.8 1.3-1.4.9-.8 2.3-3.2.7-1.4.3-.3h.2l.5 1.8-.1 1zm-26.3 1l.1-.6h-.6l-.2.6h.7zm2.2-18.6l.2-.5h-.5l-.1.5h.4zm-.4 2.6h-.4l-.1.4.4-.1.1-.3zm-2.5 18.2l-.1.6h.6l.1-.6h-.6zm4.1-19.5l.1-.3h-.4l-.1.3h.4zm-1.9 17.9l-.6.1-.1.4h.6l.1-.5zm2.6-21.2h-.5l-.1.5h.5l.1-.5zm-3 24.4h-.4v.4l.4.1v-.5zm6.9-17.8l-.7.8-1.8 2.5-1.7 4.8-.3 1.6-.4 1.1-.4-.3-.4-1.1-.3-1.7.3-1.3.1-1 .7-1.8.6-1 .3-.8.5-.9.7-.9.7-.7.6-.8.9-.6.9-.5.8-.3 1.1.2v1l-.7.9-1.5.8zm-3.3-4.8h.5l.1-.5h-.4l-.2.5zM258 40.2h-.4v.4l.5-.1-.1-.3zm3-24.1l.2-.5h-.5v.4l.3.1zm-1.6 25.5l-.5.1v.4l.4-.1.1-.4zm2.7-24.2v.3l.3-.1v-.3l-.3.1zm1.7-1.9l-.1.4h.4v-.4h-.3zm-2.9 24.6l-.1.4.4.1.1-.4-.4-.1zm-.1 2.9h-.4v.3h.2l.2-.3zm1.9-1.5l-.3-.3-.3.4.4.2.2-.3zm4.5-26.5h-.6l-.1.5.5.2.2-.7zm.4 2.9l.3-.2.7-.6-.1-.7-.7.5-.5.8-.2.5.5-.3zm-2 23.5h-.7l-.1.6h.7l.1-.6zm3.7-23.2v.5l.5-.1v-.5l-.5.1zm-2 21.5l-.3-.1-.1.3.3.1.1-.3zm4.1-22.9h-.4l-.1.5h.5v-.5zm-.2 2.8h-.4v.4h.4v-.4zm-2.7 21.7l-.3.1v.3l.3-.1v-.3zm6.7-20.2l-.1-1 .1-.9-.3-.9.1-.7.3.3.9 1.5.3 1 .1 2.8-.2 1-.6 1.5-1 1.3-1 .5-.9.2-1.2.1-.7-.3v-.8l.7-.6 1.1-.5.9-.7.5-.9 1-2.9zm-2.5-3l-.1-.1-.1.2.1.1.1-.2zM270 39.4v.5l.5-.2v-.4l-.5.1zm2-1l.1-.4-.4-.1-.1.4.4.1zm3.3-3.6l-.4-.1v.4h.4v-.3z"/><path d="M281.3 42.9l-.9-.3-.9-.7-1.2-1.3-.8-2.1v-2.2l-.1-1.1.3-3.6 1.1-4 1-1.6 1-.1 1.2.3.6.7-.2 3.1-.4 1.2-.2 2 .1 1v1.3l.4.7.4 1.1 1.3.1 1.3-.2 1.1-.8.8-.9.7-.9 1.2-1.9.7-.9.3-1.3-.8-.9L287 28l-1.1-1.8-.4-.8-.4-3.4.2-1.3.4-1.8.4-1 .6-1 .9-.9.6-.8.9-.9L291 13l1.1-.4 1.2-.7 3.2-.3 1.9.4 1.2.1.9.4h1.1l2.7-1.6 1.9.4.8.4.2 1.5-.3 1.6-.3 1.3-.7 2-.2 1.3-.4 1.1-1.6 6.8-.4.9-.5 3.6-.3 1 .3 2.2 1 .5h1.7l.9-.6.9-.6 1.5-1.8.8-1.1.8-.9 3.8-6 1.3-1 .9.1.9.6.5.5v1.6l-1.8 3.6-.6 1-.9 1-.6 1.1-.7.9-.5.9-3.4 3.8-2 1.1-1 .8-.9.6-1.4.4-1.4-.1-1.6.2-2-.6-.8-.8-.5-.7-.9-4.2.2-1 .1-2.1.1-1-.3-.9-1.2.1-1 1.3-.6 1-.5 1.3-2 3-3.3 3.9-1 .9-.9.4-2.7 1-1.8.2-.6-.5zm-1.2-6.6h-.4l-.1.4.4.1.1-.5zm.3-3l-.2-.1v.2l.1.1.1-.2zm1 4.2h-.7l-.2.7h.7l.2-.7zm1.1 2.2l.2-.5-.5-.2-.2.6.5.1zm.8-7.7l.4-2.2.6-1.1 1 .5-.1 4.4-.6 1.5-.9.3-.5-.9.1-2.5zm10.8 9.3l-2.3 2.5-2.3 1.9-4.5.9-1.2-.1-1-.6-1-.5-.1-.7h.7l.9.3 1.6-.3 2.8-.8.7-.7 1.1-.7.7-.9.9-.8 1.5-1.9.5-.8.9-1.1.5-.9.7-.6.3.8v1l-.3 1.5-.6 1.6-.5.9zm-9.9-.9h-.5l-.3.6h.7l.1-.6zm2.9-19.5l-.1.7 1-.1-.1-.7-.8.1zM285 39.1l.1.6.5-.1v-.5h-.6zm2.8-15.5l-.7.2-.3.3.1.6h.7l.1-.4.1-.6.4-.3.5-.1.4-.4v-.6h-.7l-.3.3-.1.5-.2.5zm.1-5.3l-.3.1v.3l.3-.1v-.3zm.8 1.1l-.1.7h.7l.2-.6-.8-.1zm.2 5.8h-.8v.7h.7l.1-.7zm-1 13.7l-.3.3-.3.2-.4.3-.3.3-.2.5.3.2.6-.5.3-.3.3-.2.4-.3.4-.5-.1-.1-.7.1zm-.5-1.5h-.5l-.1.5h.6v-.5zm2.1-20.6l-.1.3.4.1.1-.5-.4.1zm.3 7l-.1.7h.7l.1-.8-.7.1zm.2 3l-.5.1-.1.4h.7l-.1-.5zm.6 7.2l-.2.2-.4.2-.7.6-.9.9.4.6.6-.6.3-.3.3-.3.3-.3.2-.3.3-.4.7-.6.5-.2.3-.4v-.6l-.6.1-.3.3-.2.5-.6.6zm.9-18.6h-.5l.1.3.4.1v-.4zm-.4 2.7h-.4v.3h.3l.1-.3zm6.2 7l1.1-.8.8-1.3.6-2.3.6-1.1-.3-1.3-.7-1.1-.9-.3-1.1-.1-.9-.2-2.1.4-1.2.7-.7.6-.8.9-.8 1.5-.1 1.8.2.8.5.9.7 1 .8.4h3.2l1.1-.5zm-7.7 12.5l.4.2.2-.5-.6-.2v.5zm2.9-20.7l.1-.3h-.2l-.2.2.3.1zm.3 9.7l-.6.5-.3.3-.3.4-.3.3-.5.8.7-.1.3-.4.3-.3.4-.3.5-.8-.2-.4zm-.6 3l-.4.4-.3.3-.3.3-.3.4-.2.2-.1.5.5-.2.3-.3.7-.7.5-.5-.1-.5-.3.1zm1-9.4l.5-.6 1-.9.9-.5 1-.1 1.1-.1 1 .5-.3 1-2.3.8-1 .6-.5 1.1-.4 1.1-.1.8-1.3-1-.1-1.2.5-1.5zm1.2-5.2l-.4-.1-.1.5h.4l.1-.4zm0 12.8h-.7l-.2.7.1.2.7-.1.1-.8zm-.5 3h-.5l-.1.7.6-.2v-.5zm1.6-1.4l-.7.1.1.7.7-.2-.1-.6zm1.5-14.9l-.3.4.2.4.7.4.3.2.5.1-.1-.4-.3-.3-.1-.2-.3-.4-.6-.2zm.1 14.1l.3-.4-.4-.6-.3-.3-.4-.6-.6-.3-.2.7.2.4.3.3.2.3.3.3.6.2zm2.3.1h.4l.4.1.5.3v.3l.4.6h.2l.5-.6-.4-.6-.5-.1-.2-.4.4-.8.4-.3.6-.5-.3-.6-.8.4-.6.5-.5.3-.3.3-.3.4-.2.5-.3.5-.9.4v.5l.8.2.3-.8.4-.6zm1-13.7v-.6h-.7l-.1.7.8-.1zM299 26.9v-.6h-.7v.7l.7-.1zm.7-2.4v.8l.3.2.8-.1.2-.7-.3-.2-.3-.1-.7.1zm2.1-8.7h-.7l-.2.8h.7l.2-.8zm-2.5 14.8l-.1.5h.6v-.5h-.5zm.2 3.1l-.6.1v.4h.5l.1-.5zm2.3-12.6l.4-.1.6-.4-.1-.6h-.6l-.5.5-.1.5-.4.5-.4.2-.1.6.5-.2.3-.5.4-.5zm-.7-2.1v.4l.3-.2-.1-.3-.2.1zm2.2-4.9l-.6.1-.2.7.7-.1.1-.7zM300.8 35h-.7v.7l.7-.1V35zm1.4-11.2v-.6h-.6l-.1.7.7-.1zm.2-5.9h.6l.1-.7-.7-.1v.8zM301 32.8l.1-.4h-.5l-.1.5.5-.1zm-.6 5.8l.1-.5-.4-.1-.2.5.5.1zm4-20.1l-.9-.2-.2 1h.8l.3-.8zm-.9 6h-.4l-.3.7h.5l.2-.7zm-1.4 6.4l.4.1.1-.4h-.4l-.1.3zm.2 2.8h-.4l-.1.5h.4l.1-.5zm1.8-18v.7l.6-.1v-.6h-.6zm-.1 5.7l-.6.1-.1.7.6-.1.1-.7zM301.7 40l.1-.5h-.4l-.1.5h.4zm1.2-2.4l-.2.2v.7h.7l.2-.9h-.7zm2.9-20.1l-.2-.5-.4.2v.4l.6-.1zm11.6 16.3l-.1.9-.8 1.5-1.9 2.8-1.4 1.6-1.6 1.4-.9.5-.7.6-.9.6-1 .5-1.5.5-1.3.2h-1l-.8-.2-.6-.3-.7-.6-.1-.7h1.4l1.6-.2 1.3-.4 1.9-1 2.6-1.8 2.6-3 3.2-4.6h.2l.2 1 .3.7zm-11.3-19.6l-.3-.1v.3l.3-.1v-.1zm3.6.6l.7.3.1 1.5-.3 1.6-.5.9-.5 2.3-.5.9-.2 1.3-1.3 4.4-.1 1.1-.6 2-.2 1.6-.4.6-.8.2-.5-.6-.2-.5-.1-.7.1-.6 1.7-7.3.5-1.2.9-4 .5-1.1.6-2.2.4-.8.7.3zm-4.8 21.7h-.4l-.1.5.5-.1v-.4zm-.3 2.9l-.5-.1v.6h.5v-.5zm1.9-1.8h-.7l-.1.7h.7l.1-.7zm1.6-1.5l-.6.1v.5l.6-.1v-.5zm1.6-1.5h-.4l-.2.5h.5l.1-.5zm1.5-1.2V33l-.4-.1-.1.6.5-.1zm1.7-1.8h-.4l-.1.4.3.1.2-.5zm45.6-10.1l.8.4.6.8-.1 1.3-1.2 2.4-.5.8-.4.9-1.8 2.6-.8.9-.5.8-1.4 1.6-.9.7-1.1 1-1.2 1-.9.5-1.7 1.1-2.9 1-2 .4-.8.3-2.4.4-5.1-.5-.9-.2-.9-.4-.6-.6-1-.5-1.8-1.9-.3-.8-.5-.7-.4-.9-.1-.9-.3-.9-.2-.8.2-4.4.5-2.3.1-1 .8-2.8 2.1-3.7.5-.8.7-.8.5-.8.7-.8 2.2-2 3.7-1.9 1.8-.6 1.1-.2h3.7l.9.2.8.2 2.2 1.3.5.7.6.6.3.8.2 1 .3.9v1l-.9 3.2-.9 1.2-1.8.7h-.9l-.8-.2-.7-.5-.1-1.3.1-1.4-.1-1-.3-.8-.7-.5-1.4-.3-1.4.1-.7.1-1 .4-.7.6-1 .6-.6.8-.7.7-1.2 1.7-.4 1-.3.8-.4 1-.6 2-.3 3.9.2 1.8.3.9.9 1.5.7.7 1.4.9.8.3.9.2h1.4l2.5-.3.8-.3 1.1-.2 1.9-.8 2.5-1.5 3.8-3.4.5-.8.8-.9.7-1.3 1-1.2.8-1.4 1.2-.9.5-.5zm-29.3 1.1l-.2.5h.6l.2-.7-.6.2zm-.3 5.9l-.6.2v.6h.6v-.8zm.5-3.2l-.6.2v.6l.5-.2.1-.6zm-.6 5.9h-.7l-.1.8h.6l.2-.8zm1.2-4.3l-.2.5.4.6.2.1.3.2.2.3.4.6.2.1.6-.6-.5-.6-.3-.2-.2-.4-.5-.6h-.6zm1.1-2.9h-.7l-.2.7h.6l.3-.7zm.2-3h-.5l-.1.6.5-.1.1-.5zm-.9 8.9h-.6l-.1.6h.6l.1-.6zm1.3-11.9h-.2v.2h.3l-.1-.2zm-1.8 15.6v-.4l-.4-.1-.1.4.5.1zm1.7-2.1h-.7l-.2.7h.7l.2-.7zm.9-11.6l.5-.1.1-.6-.6.1v.6zm-.3 5.5h-.3l-.1.4.3.1.1-.5zm1.4-9.1l-.5-.1-.1.5h.4l.2-.4zm-1 6.4l.1-.4h-.4l-.1.5.4-.1zm-1.7 11.8v.5l.5-.1v-.5l-.5.1zm28.3-1.9l-1.7 2.9-2.4 2.7-1.3 1-.9.6-1.6 1.2-2.8 1.2-4 .9-3.7.4h-1.1l-.9-.1h-.9l-2.9-.5-2.5-.9-.9-.7-.2-.8.7.2.8.3 1.8.5 1.7.2h4.5l2.3-.3 1-.4.9-.1 2.9-.9 1.7-.8.9-.6 1.2-.9 1.3-.8 1.3-1.4.9-.8 2.3-3.2.7-1.4.3-.3h.2l.5 1.8-.1 1zm-26.3 1l.1-.6h-.6l-.2.6h.7zM335 15l.2-.5h-.5l-.1.5h.4zm-.4 2.6h-.4l-.1.4.4-.1.1-.3zm-2.4 18.2l-.1.6h.6l.1-.6h-.6zm4.1-19.5l.1-.3h-.4l-.1.3h.4zm-2 17.9l-.6.1-.1.4h.6l.1-.5zm2.6-21.2h-.5l-.1.5h.5l.1-.5zM334 37.4h-.4v.4l.4.1v-.5zm6.8-17.8l-.7.8-1.8 2.5-1.7 4.8-.3 1.6-.4 1.1-.4-.3-.4-1.1-.3-1.7.3-1.3.1-1 .7-1.8.6-1 .3-.8.5-.9.7-.9.7-.7.6-.8.9-.6.9-.5.8-.3 1.1.2v1l-.7.9-1.5.8zm-3.3-4.8h.5l.1-.5h-.4l-.2.5zm-2.1 21.1h-.4v.4l.5-.1-.1-.3zm3-24.1l.2-.5h-.5v.4l.3.1zm-1.6 25.5l-.5.1v.4l.4-.1.1-.4zm2.8-24.2v.3l.3-.1V13l-.3.1zm1.6-1.9l-.1.4h.4v-.4h-.3zm-2.9 24.6l-.1.4.4.1.1-.4-.4-.1zm-.1 2.9h-.4v.3h.2l.2-.3zm1.9-1.5l-.3-.3-.3.4.4.2.2-.3zm4.6-26.5h-.6l-.1.5.5.2.2-.7zm.4 2.9l.3-.2.7-.6-.1-.8-.7.5-.5.8-.2.5.5-.2zm-2 23.5h-.7l-.1.6h.7l.1-.6zm3.7-23.2v.5l.5-.1v-.5l-.5.1zm-2.1 21.5l-.3-.1-.1.3.3.1.1-.3zm4.2-22.9h-.4l-.1.5h.5v-.5zm-.2 2.8h-.4v.4h.4v-.4zM345.9 37l-.3.1v.3l.3-.1V37zm6.7-20.2l-.1-1 .1-.9-.3-.9.1-.7.3.3.9 1.5.3 1 .1 2.8-.2 1-.6 1.5-1 1.3-1 .5-.9.2-1.2.1-.7-.3v-.8l.7-.6 1.1-.5.9-.7.5-.9 1-2.9zm-2.4-3l-.1-.1-.1.2.1.1.1-.2zm-2.8 21.3v.5l.5-.2V35l-.5.1zm2-1l.1-.4-.4-.1-.1.4.4.1zm3.3-3.6l-.4-.1v.4h.4v-.3zm39.3 6l-2.9.1-.9-.2-1-.5-.8-.6-1.4-3.9.3-5.6-.4-1.1-.8-.5-1.2.2-1.2-.1-3.2.4-2.3.1-1.1.6-.7 1.3-.5 2.2V30l-.7 3.4v.9l-.5 1.7-.8 1.5-1 .4-1.1.3h-1.1l-1.1-.4-.5-1.3v-2.6l.3-1.1.6-3.8.3-1.1v-1l1.7-8 .1-1.1.3-1 .1-1.1.4-1.2.3-2.2.7-2.8 1-1.3 1.1-.4 1.2-.1h1.1l1 .3.4 1.2-.6 3.8-.3 1-.3 1.2-.3 1.8-.4 1.3.5 1.1 1.1.3 1.1-.1 1.2-.3 2.1.1 1.1-.3h2.2l1.3-.6.9-1.2.1-1.2.4-1.1.7-3.3 1.1-2.8 1-1.6 1.1-.5 1.2-.3 1.1.2.7.5.3 1.9-2.2 9.6-.7 2.3-.1 1.2-.3 1.2-.3 2.3-.3.9-.2 2.2.2 1.4 1.4.3h1.5l.9-.8.9-.5 3.2-3.8.5-1.1 1.4-2.2.5-1.1 2.3-2.3 1 .2 1 .5.5.7-.3 1.6-1.1 2.6-.7 1-.8 1.1-.6 1-1.3 1.9-.8.8-.7 1.1-.7.9-2.6 2.5-3 1.6-1.6.3zm-21.4-9h-.9l-.2.7h.9l.2-.7zm-.6 2.9h-.6l-.1.6h.6l.1-.6zm-.6 3.3h-.4l-.1.5.5-.1v-.4zm1.2-12.2v.4l.4-.2v-.3l-.4.1zm.4 3.6v-.7h-.7v.8l.7-.1zm.1-5.9l.4-.1.1-.4h-.4l-.1.5zm.5 1.5h.7l.2-.2v-.7h-.7l-.3.4.1.5zm4.1-.9l-.7-.2-.5.8-.4.5-.3.1-.3.2-.5.8-.3.3-.4.2-.9.5.1.7h.4l.6-.5.4-.2.3-.2.5-.2.3.3-.2.8-.3.3-.6.4-.3.6v.3l.6.3.5-.8.3-.3.7-.6.3-.3-.1-.9-.4-.1-.5-.4.1-1 .5-.5.7-.3.4-.6zm-2.4 7.5l-.4-.5-.2-.4-.3-.2-.4-.6h-.3l-.6.6.1.4.7.4.3.3.4.6.5-.2.2-.4zm-2.5 2.5l.9-.1v-.8h-.9l-.2.7.2.2zm1.5-13v.7h.7l-.1-.7h-.6zM371 32.3l.1-.6-.4-.1-.3.7h.6zm1.7-17.8l.7.1.1-.6-.6-.1-.2.6zm-.4 18.8l-.6.3-.3.5-.5.5-.4.2-.2.5h.6l.3-.4.4-.6.6-.3.1-.7zm1.2-21.8h.2l-.1-.1h-.1v.1zm8.6 14.3l1.1.6-.2.8-1.1.4-2.7.4-1.2.7-.5 1.4-.2 1.3-.3 1.1-.2 2.2-.3 1-.4 3.1-.8 1.4-1.3.7-1 .1-2.2-.2-.1-1 .9-.4.9-.3 1-.7.6-1.4.5-1.4.1-1 .3-1.3.1-.9v-1.5l.4-2.3.4-1.4 1.2-.8 5-.6zm-8.3-9.9h.7l.1-.5h-.7l-.1.5zm.5-2.8h.6v-.6l-.5-.1-.1.7zm-1.6 17.3h-.4l-.1.5h.4l.1-.5zm1-12.1l-.1.7.6.2.2-.8-.7-.1zm1.1-8.2h.4v-.4l-.4-.1v.5zm.9 4.1v.3l.2-.2-.1-.1h-.1zm1.3 7.2l-.2-.4-.7.2-.1.8h.9l.1-.6zm.9-4l-.4-1.2.2-1 .5-1.1.6-2.4.1-1.1.6-1.1 1-.1.4 1.2-.2 1.5-1.2 4.9-.6.7-1-.3zm.4 5.2l-.6-.1-.2.6.5.1.3-.6zm1.6-.9l-.1-.6h-.6v.6h.7zm1 .8h-.3v.2h.3v-.2zm.4-2.3l-.1-.1-.1.3.2.1v-.3zm1.4 1.4v-.4l-.6-.1.1.6.5-.1zm.8-1.2h.7l.1-.7h-.7l-.1.7zm.7 1.9l-.6-.1-.1.6.5.1.2-.6zm1.6-.7v-.7h-.7v.7h.7zm.4 1.3l1.4 1.5.4.1.4-.6-.5-.5-.2-.4v-.3l-.1-.3v-.6l.5.2h.4l.5-.8-.2-.3-.7-.5-.3-.3-.4-.7-.4-.1-.6.5v.3l.4.6.2.4.2.3-.3.5-.3.2-.4.3-.1.3.1.2zm-.2 2.8l.6.3.1-.8-.6-.1-.1.6zm.8 2.9l.3-.5.3-.2.3-.4.4-.6-.6-.3-.4.5-.3.4-.4.4-.4.6.2.4.6-.3zm.7 1.8l.1-.3v-.5h-.5l-.3.4.1.7.6-.3zm.8-11.9h.7l.1-.8h-.7l-.1.8zm.7-3.5l.2.6.2.4.2.3.2.4.7.4.1-.8-.3-.3-.5-.7-.3-.2-.5-.1zm.1 16.1l-.6-.1-.6.5-.2.4-.3.4-.5.2-.1.5.5-.2.1-.5.4-.2h.4l.8-.4.1-.6zm1.5-12l-.2-.2-.7.1-.2.8.9.1.2-.8zm-.8 5.9h-.7l-.2.2-.2.7h.7l.3-.2.1-.7zm.4-11.1h.8v-.7l-.7.1-.1.6zm-.4 8.9l.2-.6h-.7l-.2.6h.7zm-1.3 5.9h.7V28h-.7v.7zm2.2-18h.6l.1-.5-.5-.1-.2.6zm-2.3 23.6l-.2-.2-.2.2.1.1.3-.1zm3.2-19.6v.7l.5-.2.1-.4-.6-.1zm-.3 3.1h.3l.1-.3h-.3l-.1.3zm-1.4 12.3l.1-.2-.2-.1v.1l.1.2zm1.2-9.4l-.1.3h.3v-.3h-.2zm-.8 12.3v-.6l-.6.1-.1.5h.7zm1.9-20.9l.3.1.1-.4h-.1l-.3.3zM405.4 29l-.1.9-.8 1.5-1.9 2.8-1.4 1.6-1.6 1.4-.9.5-.7.6-.9.6-1 .5-2.8.4h-1l-.8-.2-.6-.3-.7-.6-.1-.7h1.4l1.6-.2 1.2-.3 1.9-.8 2.6-1.8 2.6-3 3.2-4.6h.2l.2 1 .4.7zm-13.8 5.6l-.1-.7h-.7l.1.7h.7zm.7-2.2l.6.2.3-.4-.4-.3-.3-.1-.3-.2-.4-.1-.4-.1.1.4.5.5.3.1zm0-5.8l2.3-11 .4-1 .2-1.4.6-2.2.4-1h.4l.8.4v1.5l-.2 1.7-2.5 10.4v1l-.2 1.3-.3 1-.1 1.3-.4.3-.6-.1-.4-.6-.3-.8-.1-.8zm4.9 4.6l.4-.1.1-.5h-.4l-.1.6zm3.6-6.6v.4l.3-.2v-.3l-.3.1z"/><path d="M408.7 35.6h-1.1l-1-.2-1.9-.9-1.1-.8-.6-.6-.6-.8-.3-.8-.4-.8-.6-2.7v-1l.2-3.9.3-1.9.4-1.1.3-1 1.5-3.8.5-.8 1.7-2.6.7-.9 1.4-1.5 2.4-2.1 2.3-1.2 2.5-1 3.8-.3.9.1 2.3.6 1.4.1.8-.9 1.1-.9h2l.9.1.5.4.4 1.2.1 1.3-.5 2-.1 1-.3.9-.5 1.9-.4 3-.3 1.1-.1 1.8-.3 1.4-.3 2.9-.3 1v1.8l-.1 1 .3.9.6.7 1.1.2 1.3-.2.9-.4 2.3-2.2.5-.8.8-.9.5-1.1.8-.9 1.1-1.9.4-1 1-1.3 1.2-1h.9l.8.3.7.5.3.7-.3 1.4-.9 2-.7 1-.4.8-1.3 1.7-.5.8-1.3 1.6-.5.9-2.2 2.2-1 .6-.7.7-1.3.9-1.1.6-2.4.7-1.5.2-1-.1-.8-.3-.6-.5-.6-.7-.4-.9-.6-.8-.3-.8-.1-1.1-.2-.6-.8.3-2.7 3.1-1.7 1.3-.8.4-2.9 1.3-2.8.4-.7.2zM403 22.5l.5-.3.6-.6-.5-.5-.6.5-.3.4v.3l-.4.5-.2.2.2-.1.7-.4zm.5-3.5h.4l.1-.5-.5.1v.4zm.1 6.2v-.8l-.7.1.1.7h.6zm-.5 2.3h-.5l-.1.5h.6v-.5zm2.9-10.8l-.2-.3-.7.2v.8h.7l.2-.7zm-.3 3l-.6-.3-.3.3-.2.7h.8l.3-.7zm-.7 3.2l-.6.2.2.5.5-.2-.1-.5zm-.9 3.6l.6.1.2-.7h-.7l-.1.6zm-.2 2.5l-.1.5h.5l.1-.5h-.5zm3.5-16l.3-.2.3-.3.3-.3.3-.3.2-.3.4-.4.4-.5-.3-.3-.6.3-.7.5-.4.3-.5.8-.1.4-.6.5-.4.2-.2.5.5-.2.3-.3.8-.4zm-.2 5h-.7l-.2.7.7.1.2-.8zm-1 6.4l-.4-.1-.1.5.3.1.2-.5zm.3-3.1h-.3l.1.2h.2v-.2zm-.7 6.6l.1-.5-.4-.1-.1.5.4.1zm0 3.1v-.7l-.7.1.1.6h.6zm1.7-15.4l.1-.5h-.5l-.1.6.5-.1zm11 21.1l-2.7 1.5-.9.3-1.4.3-4.2.1-.8-.2-1.7-.7-1.3-1-.2-.4h.6l1.8.5h5l1.4-.5 2.6-1.2 1.7-1.3.8-.9 1.1-.4.5.3v1.2l-.6 1.1-1.7 1.3zm-7.4-25l-.6-.2-.6.7-.3.3-.3.3-.8.6-.1.4.5.6.5-.2.4-.8.6-.5.6-.5.1-.7zm3.2 17.4l1.7-1 .6-.8 1.4-1.4.7-.9 1.9-4 .8-2.3.5-2 .4-.9.1-1 .3-.9.1-.9-.2-1.2-.7-.8-1-.3-1.8-.2-1.5.2-1.4.3-1 .4-1.8 1.1-.8.8-1.4 1.6-2.3 3.7-.8 1.9-.3 1-.4.9-.3 3 .2.9v1l.3.8 1.2 1.3.8.5.7.1 2.9-.6 1.1-.3zm-7.9 2.9l.1.6.6-.2v-.5l-.7.1zm1.4 1.3l-.1.6h.6l.2-.6h-.7zM419.1 14l-1 .1-.8.3-.9.5-1.7 1.1-.7.7-.6.9-.7.9-1.3 2.7-.2 1-.2.9-.3 1-.1.9.2 1.9v1.5l-.6-.1-.9-1.4-.1-1-.2-.9.1-1.9.7-2.8.5-1 .5-.8.4-.9 1.2-1.7.6-.8.8-.8.9-.6.7-.6.9-.4.9-.3 2.8-.2.7.4-.1 1-.6.5-.9-.1zm-8.2-5.1v.4h.4l-.1-.4h-.3zm1.8 1.1h-.7l-.2.7h.7l.2-.7zm-2.3 21.7l-.6-.1-.3.7.7.1.2-.7zm3.9-23.2h-.5l-.1.5.6.1v-.6zM411.6 33l-.6.2v.6h.7l-.1-.8zM416 7.5l.1-.4h-.4l-.1.4h.4zm-3.3 24.6l.5-.1.1-.5-.5.2-.1.4zm4.7-23.3v-.2l-.3-.1-.2.4.5-.1zm1.7-2h-.5v.4l.4.1.1-.5zm1.4 1.5l-.4-.1-.2.3.4.1.2-.3zm1 18.1l-.5-.3-.4-.1-.4-.7-.3-.2h-.3l-.3.3-.4.7-.3.3-.3.6.2.3.5-.6.4-.2h.4l.3.3.7.5.5-.1.2-.8zm-2.5 1.5l-.1.7.6.1.2-.7-.7-.1zm2.8-18.2l-.2.1v.2l.2-.1v-.2zm-.6 13.7l-.3.2.2.7.3.3.4.6.3.3.5.3.6-.5-.3-.7-.5-.6-.3-.3-.3-.3h-.6zM423 8.2l-.1.6.7-.1.2-.7-.8.2zm-.7 12.7v-.4l-.4-.1-.1.5h.5zm1-2.2l-.2.8.8-.2v-.8l-.6.2zm.2 2.9h-.7l-.1.6.7.1.1-.7zm.9-9l-.5.1v.5l.4-.2.1-.4zm.8-6.1h-.4l-.1.5.5-.2v-.3zm-.2 2.8h-.7l-.1.7h.8v-.7zm-1.3 6.3l-.1.4.3.1.2-.3-.4-.2zm-1.3 12.5l-.1.5h.4v-.4l-.3-.1zm4.2-20.5l-.6.2v.6l.5-.2.1-.6zm-1.2 10.2l.1-.6h-.6l-.1.6h.6zm-1.6 8.6v.7l.7-.1-.1-.6h-.6zm.3 2.8l-.6.3-.1.6.6-.2.1-.7zm1.7-18.3l-.1.5h.5l.1-.4-.5-.1zm-1.1 9.4v.5h.5v-.5h-.5zm1.6 1.5l-.4-.1-.1.4.4.1.1-.4zm-.6 6h-.5l-.1.6h.6v-.6zm2-21.3v.2l.4-.1v-.2l-.4.1zm0 3l-.2-.1-.2.3.3.1.1-.3zm-.8 6l-.3.1v.3l.4-.1-.1-.3zm-2 15.3l-.2.7h.8l.2-.7h-.8zm1.9 1.3h-.5l-.2.5h.6l.1-.5zm.2-2.6h-.5v.5h.5v-.5zm14.1-2.4l-.1.9-.8 1.5-1.9 2.8-1.4 1.6-1.6 1.4-.9.5-.7.6-.9.6-1 .5-2.8.4h-1l-.8-.2-.6-.3-.7-.6-.1-.7h1.4l1.6-.2 1.2-.3 1.9-.8 2.6-1.8 2.6-3 3.2-4.6h.2l.2 1 .4.7zm-12.5-.5l-.3-.6-.1-.9v-1.7l.1-2 .7-2.9.1-1.7.3-1.1.5-2.8.3-1 .1-1 .4-.9.2-1.1.6-.7.8-.2.5 1-.1 1.4-.8 3-.1.9-.7 2.8-.2 2-.3 1-.6 2.8v3.7l-.6.4-.8-.4zm-.6 4.2l-.1.2.3.2.3-.4h-.5zm1.2 1.5l-.1.3.3.1.1-.4h-.3zm2.1-1.5l-.1-.1-.1.1v.2l.2-.2z"/><path d="M487.2 14.2l.8.4.6.9-.2 1.6-.6 1.6-.6 1.1-.7.9-1.2 2.2-.8.9-1.3 1.9-.9 1.1-.9.7-.8 1-2.8 2.2-1.1.4-.9.6-2.7.6-1.5-.2-.8-.3-.9-.6-.8-.8-.5-.8-.9-2.7-.1-1.3v-.9l-.2-1.1.1-2.2-.2-.4-.3.4-1.2 2.1-.8 1.1-.6 1.1-1 .7-.8.9-2.1 1.4-1.7.2-1.6-.3-1.6-.8-.5-.9-.4-.9-.5-2.1-.4-.9-.1-1-.3-.6-1.1 2.8-.5.9-.4 1.1-2.7 4.1-1.5 1.7-1.5 1.3-1.5.7-1.6.2H441l-.9-.2-.9-.5-.8-.5-1.3-1.4-.4-1.3-.5-2.8v-2.3l.3-2.3 1.1-4.2 1.1-1.5 1-.4 1.1.3.6.8.2 1.7-.4 1.5-.1 1-.2 1 .1 1.1-.1 1.1.2 2.1.6.8 1.2.3 1.4-.4.7-.6.6-.5.8-1.1 1-1.8.7-1 .4-1.1.6-1.1.4-1.3 1-2 1.4-3.5.7-2.5.9-2.3.9-3.3.8-1.7.9-1.4 1.1-.4 1-.1.9.1.7.7.3 1.4-.1 1.8-.4 1.1-.1 1.1-.6 2.5v.9l-.4 2.2.1 1.3-.2 1.3-.1 3.1.5 2 1 .8 1.2-.3.8-.7.7-.7.6-.8.6-1.3 1.2-1.8.6-1.1.7-2.4.5-1.4.5-.8.4-1.3.5-1.1 1.3-3.9 1-1.5 1-.6 1.1-.2 1.1.5.7.4.3 1.5-.4 3.9-.3 1.2-.1 1.2.1 1.1-.1 1.1-.4 1.1-.2 1.2v1l-.1 1.3-.1 1-.2 1-.1 1 .1 1.3-.1 1 .2.9.3 1 1.8.5 1.3.1 1-.8 1-.6 1-.8.7-.8 2.1-2.9.6-1.1.8-.9 1.6-2.8 1.1-1 1-.2zM438.9 27l.7-.6.3-.5-.1-.3-.4.3-.5.5-.3.5.3.1zm.5 1.3l-.1.5.5-.1.1-.5-.5.1zm13.4 2.8l-.7 1.2-.8.9-.8.9-.8.9-1 .7-1.1.7-1 .4-1.9.5-1.6.1-.9-.2-1-.4-1-.7-.1-.6.8.1h2.5l1-.1 2.1-.8 1.8-1.2 1.7-1.8.7-1.1.6-1.1 1.3-2 .7-.3.6.9-.5 1.6-.6 1.4zm-9.2-11l.7.2.3 1.8-.2 2.5-.2 1.3-.7 1h-.5l-.6-2 .1-1.3.3-1.7.4-1.1v-.7h.4zm-1.2 11.3l-.2-.1-.2.3.2.1.2-.3zm1.3-1.8v.3h.3v-.3h-.3zm7.5-8.9v-.5h-.4l-.1.6.5-.1zm1.9-5h-.2v.1l.3.1-.1-.2zm-.2 3.2v-.3l-.4-.1-.1.4h.5zm.9-5.9l.1-.5h-.4l-.1.4.4.1zm1.3.7h-.6l-.1.6h.6l.1-.6zm-.4 3.2l-.6.2v.4h.6v-.6zm-.4 3.1h-.5l-.1.5h.6V20zm1.2-9h-.5l-.2.6h.7V11zm.8 4.1h-.7l-.1.8.7-.1.1-.7zm-.2-2.8l-.1.7h.5l.2-.7h-.6zm1.2-5.6l-.3-.1-.2.3h.4l.1-.2zm-.3 2.5h-.5v.4h.4l.1-.4zm-1 9.1h-.4l-.1.5.5-.2v-.3zm.7 4.6l-.3-.1v.4l.3.1v-.4zm1.3 1.5h-.4v.4h.4v-.4zm1.5-5.8l.2-2.1v-1l.2-2.2.9-4.3.1-1.2.4-1.3v-.4l.4-.2.9.5.1 1.4-.4 3-.3 1V14l-.2 1.3-.1 3.5-.5 1.4-.9.3-.6-.7-.2-1.2zm4.2 12.5l-1 .4-1.6.3-1.6-.2-.9-.4-.4-.8 1.2-.2 1.8-.1 1.1-.5 1-.8.8-.8.9-.8.8-.5.5.3-.3 1.6-.6 1.1-1.7 1.4zm-4.1-5.5h-.4l-.1.5h.5v-.5zm1.4-1.3l-.3-.1-.1.3.3.1.1-.3zm1.9-1.6v-.2l-.2.2v.2l.2-.2zm3.6-6.4l-.3.1v.2l.4-.1-.1-.2zm-.1 3h-.5l-.1.5h.5l.1-.5zm2.2-4.8h-.7l-.2.5-.1.7.6.1.3-.3.1-1zm-1.2 3.3l-.1.6.7-.2.1-.6-.7.2zm1.4-6.2h-.5l-.1.6h.5l.1-.6zm.2 5.3l.6-.2.1-.6h-.7v.8zm1.4-10l-.2.8.7.1.1-.8-.6-.1zm0 3.2h-.6l-.1.6h.6l.1-.6zm-1 9h-.5l-.1.6h.5l.1-.6zm.8-6.1h-.5l-.1.7h.5l.1-.7zm1.7-4.7h-.6V9l.7-.1-.1-.6zm-1.7 9.3v.6l.6-.1.1-.6-.7.1zm.9-6.2l-.2.7.6.1.2-.7-.6-.1zm.2 3.1l-.4-.2-.3.7h.6l.1-.5zm.5 7.7l-.7.3-.4.2-.8.7-.2.2.4.6.5-.4.7-.7.7-.6-.2-.3zm-1.2-1.6h-.4l-.1.4.4.1.1-.5zM470 27l-.2-.5h-.4v.5h.6zm2.3-21.2h-.3V6l.2-.1.1-.1zm1.2 1.1h-.5l-.1.4.4.1.2-.5zm-2.1 20.9h-.6l-.3.2-.2.8h.7l.4-.7 1.2-1.2-.5-.3-.5.8-.2.4zm-.3-2.8l-.2.6.6.2.2-.7-.6-.1zm1.8-12h-.4v.3l.4.1V13zm-.7 6.1l-.4-.1-.1.5.3.2.2-.6zm.7-8.9l.1.3.2-.2-.1-.1h-.2zm-1.1 19.2l-.1.4.5.2.3-.5-.7-.1zm3.6-5.1l-.6-.6-.5-2.8.3-4.8.8-5.1.1-1.1.2-1.3V7.2l.7-.7.7.4.2 1.6-1 9.4v2.4l-.1 1.1.1 2-.2.7-.7.2zm-1.2 3.4h-.6l-.1.5.6.1.1-.6zm13.9-3.4l-.1.9-.8 1.5-1.9 2.8-1.4 1.6-1.6 1.4-.9.5-.7.6-.9.6-1 .5-1.5.5-1.3.2h-1l-.8-.2-.6-.3-.7-.6-.1-.7h1.4l1.6-.2 1.3-.4 1.9-1 2.6-1.8 2.6-3 3.2-4.6h.2l.2 1 .3.7zm-13 5l-.1.6h.7v-.7l-.6.1zm2.3-1.7l-.9.1-.1.9.6.1.3-.3.1-.8zm1.4-1.2l.4-.2.8-.8.3-.3.1-.6-.6.4-.3.4-.3.2-.4.3-.4.5v.2l.4-.1zm3.6-3l-.1-.3h-.5l-.1.6.2.1h.6l-.1-.4zm1.3-2l-.4-.1-.1.4h.4l.1-.3zm1.5-1.6l-.2-.1v.3h.1l.1-.2z"/><path d="M487.8 31l-.9-.3-1.8-1.2-.6-.9-.5-.9-.8-3.2v-1.1l.7-3.5.1-1.2.5-2.3.5-1.1.1-1.2.4-1.2.6-1.1.4-1.3.5-2.9.1-1.5-1.7-.2-1.4-.4-.5-1 .8-1.7 1.1-1.2 1.2-.6 1.1-.3 1.2-.1 1.3.1 1 .5.9.5.7.6.4 1v1.8l-1.1 5.5-1.1 3.6-.4 1.1-.1 1.2-.4 1.3-.3 1.2-.1 1.1-.2 1.9.1 1.6.2 1 .7.6 1.5.1 1.7-.2 1.2-.5 2.1-1.4 1.7-1.6.7-1.1.6-1.1.8-1.2 2-4.8.4-1.8.2-1.7 1.3-4.7.1-1.3 1.1-2.8 1.2-1.2 1.2-.1 1.2.1 1 .5.5 1.6-.1 1.8-.3 1.2-.4 1.2-.1 1-.3 1.2-.4 1.2-1.3 6.9v1.3l-.4 1.1-.1 1.1v1.2l.2 1.2.2 1 1.2.7 1.6-.2 1.1-.6.9-.8 1.9-2 .6-1.1.9-1 .7-1.1.6-1.1 1.8-2.6 1.2-1.1h1.1l.8.4.6.8-.3 1.6-1.9 3.9-.7 1.1-.9 1.1-.6 1.1-1.6 2.1-2.7 2.7-3.3 2.2-1.1.4-1.3.3h-1.8l-1.4-.3-1-.6-.7-.9-.7-2.2-.2-1.2-.6-.7-.7.3-1.6 2-3.1 2.5-1 .6-1.1.5-1.1.4-4.6.6-1.2-.2zm-1.9-9.5l.2-.6h-.6l-.2.5.6.1zm.5-3.7h-.5l-.1.5.6.1v-.6zm-.2-2.6l.1.4h.4V15l-.5.2zm-.4 8.6l-.6.2-.1.6.7-.1v-.7zm2.5-20.9h-.5l-.1.5.5.1.1-.6zm1.2 2.1l.3-.3.4-.3.2-.2.3-.4.2-.5-.4-.3-.3.3-.3.2-.8.5-.4.6V5h.8zm-1.4 11l-.8.3v.7h.7l.4-.8.7-.6.4-.3v-.5l-.5.1-.2.3-.7.8zm-1.5 7.1h.7l.1-.8h-.7l-.1.8zm2.6-15.8h-.7l.1.6.6-.1v-.5zm-.9 2.8l-.1.5h.5v-.4l-.4-.1zm-.4 3.2v.7l.7-.2-.1-.7-.6.2zm-1.5 12.1v.7l.8-.2-.1-.6-.7.1zm1.2-5.6l.1-.4h-.4v.4h.3zm11.8 12.1l-2.3 1.4-2.2.9-1.9.2-2.9-.1-.9-.2-1.9-1.1-.3-.4h.7l1.1.2 2.2.1 2.4-.3 2.2-.8 2.2-1.2 1-.6.9-.8 1.2-.3.4.9-.8 1.4-1.1.7zm-11-11.2l-.1.4h.5l-.1-.5-.3.1zm1.3 7.4l-.3-.3-.2-.3-.3-.2-.2-.4-.4-.1h-.7l.3.6.5.5.4.6.6.3.3-.7zm.7-19.4h-.4l-.1.5h.5v-.5zm.3-3.1h-.4V6h.4v-.4zm-.6 6.3h-.4l-.1.5h.4l.1-.5zm-1.9 12v.4l.3-.2v-.4l-.3.2zm1.4 1.8l.1-.3h-.4v.2l.3.1zm2.3-18.5l-.2-.1-.1.3h.3v-.2zm.6 8.4l.8-2.5.2-1.1 1-3.7.5-2.3.4-1.2h.8l.3.9.2 1-.3 3.4-.7 1.8-.7 3-.4 1.1-.2 1.2-1 3.4v1.2l-.7 1.1-1 .6-.4-.6 1.2-7.3zm-1.8 11.1l-.1.5h.5l.1-.6-.5.1zm.2 2.8h-.4l-.1.4h.4l.1-.4zm1.4-1.5l-.1.6h.5l.1-.6h-.5zm1.4-1.4l-.1.4.4.1.1-.4-.4-.1zm3.2-.3l-.1.4.3.1.2-.3-.4-.2zm1.8-1.3l.2-.2-.3-.1-.1.2.2.1zm2.3-4.7l-.3-.2-.3.5.3.1.3-.4zm-.2 2.6l-.6.1-.1.7.6-.2.1-.6zm.9-1.4l.1.7.6-.1v-.7l-.7.1zm1.1-3h-.7l-.1.7h.6l.2-.7zm1.5-1.7l-.6-.1-.2.5.6.1.2-.5zm.4-3.1h-.6l-.2.7.7-.1.1-.6zm-.7 9.6l-.4-.7-.6.2-.2.7.7.3.5.4.3.8.8-.3.2-.7-.8-.2-.5-.5zm-.5-3.4l-.1.7h.7l.1-.7h-.7zm1.1-9.1v.3l.4.1v-.4h-.4zm1.6-3.7l.8-.3v-.7l-.8.4-.2.3-.6.7-.2.2v.4l.2-.2.2-.4.6-.4zm-.8 5.1l.1.5.3.2.7-.1.1-.7-.4-.1h-.6l-.2.2zm.1 6.9l.1-.7h-.7v.7h.6zm0 1.7l-.4.1-.7.6.1.7h.7l.5-.8.9-.9.1-.7-.6.2-.2.5-.4.3zm1.9-17.5h-.4l-.2.3.4.1.2-.4zm-.8 5.9l-.5.2.1.4.5-.1-.1-.5zm-1 6.2v.3l.2.1.2-.3-.4-.1zm1.8-1.7h-.7l-.2.4-.1.6h.6l.3-.2.1-.8zm.7-3l-.3-.3h-.6l-.2.6.2.3h.7l.2-.6zm-1.6 12.1l-.5-.2-.4.6h.6l.3-.4zm2.2-18.3l-.7.1v.7l.6-.1.1-.7zm-2.4 21.1h-.7l-.1.7h.7l.1-.7zm1.9-18.1l-.2.2V8h.4l-.2-.5zm-1.1 9.2l-.3-.1v.3h.1l.2-.2zm.5 11l-.1-.7h-.7l-.1.7h.9zm-.3-3.4l-.1.4.3.1.2-.5h-.4zm14.9-1.7l-.1.9-.8 1.5-1.9 2.8-1.4 1.6-1.6 1.4-.9.5-.7.6-.9.6-1 .5-1.5.5-1.3.2h-1l-.8-.2-.6-.3-.7-.6-.1-.7h1.4l1.6-.2 1.3-.4 1.9-1 2.6-1.8 2.6-3 3.2-4.6h.2l.2 1 .3.7zm-8.6-19.2l.3.5.1 1.4-.3 3-1 3.7-.1 1.2-.4 1.2-.7 3.7-.3 3.7-.4.6-.7-.1-.5-.5-.2-.8v-1l.1-1.2 1-3.9v-1.4l.5-2.6.8-2.7.2-1.3.7-2.8.3-.8.6.1zM509 25.5h-.4l-.1.5.5-.1v-.4zm-.6 3.1v.2h.3l-.1-.3-.2.1zm1.6-1.7l-.1.5h.5l.1-.5h-.5zm2.1-1.3v-.4h-.6l.1.5.5-.1zm1.7-1.7h-.4v.4h.3l.1-.4zm1.7-1.6l-.4-.1v.4l.3.1.1-.4zm1.3-1.7l-.1.2h.3l.1-.2h-.3zm1.7-1.2l.1-.4-.4-.1-.1.4.4.1z"/></g></svg>