<svg xmlns="http://www.w3.org/2000/svg" viewBox="0 0 254.2 92.5"><g fill="#26201A"><path d="M31 29.4l.6.6.1 1.2-.5 1.4-.5.9-.7.9-.5.9-.5.8-.7.8-.5.8-3.9 3.5-.8.6-2.9 1.4-1.7.6-2.4.7-3 .3-2.3.1-2.7-.5-1.6-.7-.8-.3-1.5-.9L3 41.3l-1.1-1.4-1.3-3.2-.2-1.9-.2-.9L0 32l.2-3.8 1.1-4.7 1.2-3.9.5-.9.4-1 .4-.8.7-.9.4-1 1-1.8.6-.8.6-.9 2.5-3 2.3-2.2 2.4-1.8L17 2.9l2.9-1 1.8-.3 1.4-.1 2.3.1.9.2 1.3.9.7.7.5.6.4.7.4 1.7.1.9-.1.9-.2.9-.2 1-.3.9-1.8 3.6-.9 1.1-1.3.8-.9-.1-.7-.4-.5-.7.2-1.3.7-1.3.3-.7.7-2.7v-.9l-.5-1.5-.6-.5-1.4-.2H21l-1.9.6-1.4.6-1.3.8-1.7 1.3-1.5 1.4-.7.7-.5.8-.7.9-.6.7-.6.9-1.5 2.7-.8 1.8-.6 1-.7 1.9-1.3 4.8v.9l-.2.9.1 2v.8l.2 1.8.2.9.6 1.6.4.8 1 1.3.6.5.9.5 1.6.6 1.8.5h1.3L16 40l2-.3 2.8-1.1 2.5-1.7 2.9-2.9.6-.9.7-.9.5-.9.9-1.3 1.3-.8.8.2zM2 28.1l-.3-.2-.6-.4-.1.3.3.2.2.5H2v-.4zm.4-1.8l-.1-.5-.6.2.1.5.6-.2zm-.5 4.4l-.4-.2-.1.7h.5v-.5zM1.8 33l-.4-.1-.3.4.4.2.3-.5zm.6-9.4l-.1.5.5-.3-.1-.5-.3.3zm1.7 9.2l-.5-.1-.5.4-.2.4-.3.3-.4.2-.4.4v.2l.5.3.7-.7.2-.2.3-.2.5-.4.1-.6zm-.4-8.2l-.6.1-.1.7.6-.1.1-.7zm-.2 2.5h-.6v.6h.6v-.6zm-.6 4.5l-.6.2-.1.7.6-.2.1-.7zm-.2-2.2l-.1.6h.6l.1-.5-.6-.1zm1.6-9.6h-.4l-.1.5h.5v-.5zM2.3 37l.1-.5h-.6v.5h.5zm1.8-15l-.5.1.1.5.4-.1V22zm1 1.3h-.6l-.1.6.4.1.2-.2.1-.5zm-.7 5h-.5v.5l.5-.1v-.4zm-.7 2.3l-.1.4h.3l.2-.4h-.4zm1.9-12h-.5v.4h.5v-.4zm-2 16.6l-.5.1-.1.6.5-.1.1-.6zm-.1 2.5l-.7.1-.1.5h.5l.2-.1.1-.5zm2-16.7l-.5-.1-.1.5h.5l.1-.4zm.5-4.8l-.5.1v.4l.5-.1v-.4zm-1.3 9.7h-.3l-.1.2h.3l.1-.2zm2-11.1l-.1.5h.5l.1-.5h-.5zm-.3 2.6l-.1.5.5.1v-.5l-.4-.1zM4.3 36.5l-.2.5h.6l.1-.6-.5.1zm.1 2.3h-.5l-.1.5h.5l.1-.5zm3.7-25.3v.6h.5l.1-.6h-.6zM5.6 37.7h-.4v.4h.4v-.4zm-.2 2.2h-.5v.6l.5-.1v-.5zM21.2 9l-.8.4-1 .6-.8.5-2.5 2-1.4 1.5-.6.9-.7.8-.6.8-2.6 4.5L9 23.8l-.7 2.8-.5 2.8-.1 2 .1 1.8.4 1.7.3.9.2 1-.8-.7-.4-.7-1-3.5v-.8L6.3 30l.1-1.8.6-3 .2-.8.5-1 .5-1.9.4-1 .3-.9.6-.8.5-1 1.1-1.8.4-.8.7-.8.6-.9.7-.8.6-.7 1.4-1.3.7-.7.8-.6 2.6-1.6 1-.3.8-.2 1.2.1.3.7-.6.6-1.1.3zM6.8 38.5l-.5.1v.5l.5-.1v-.5zm-.4 3.3l.1-.5-.5.1-.1.4h.5zm3.4-31.5l-.1.3h.3v-.3h-.2zm-.4 2.8l.3-.1.2-.4-.4-.1-.1.6zm22 24.3l-.1.7-.2.5-.4.8-.5.7-2 2.1-3.2 2.5-2.6 1.3-2 .7-5.6 1.1h-.9l-.8-.1H12l-2.2-.3-1.3-.3-1.5-.6-.8-.4-.4-.6 2 .4.8.3 2.7.3 3.7-.2 5.2-1.2 4.4-2.2.9-.6.8-.6.7-.7.7-.6 1.2-1.2 2.1-3.1h.2l.2.8v.5zM11.5 8.9H11v.3h.5v-.3zM7.3 40l-.1.5h.5l.1-.6-.5.1zm.1 2.7v-.2h-.2l-.1.3.3-.1zm1.3-1l.2-.7h-.6l-.2.7h.6zm3.9-34.2h-.3v.4l.4-.1-.1-.3zm-.1 2.5h-.3l-.2.3.3.1.2-.4zm1.8-3.8l-.6-.1v.5l.4.2.2-.6zm-.6 2.6h-.3V9h.2l.1-.2zM10 42h-.5l-.1.6h.5l.1-.6zm-.1-1.7l-.1-.1-.1.2h.2v-.1zM15 7.5l-.4.1v.3h.4v-.4zm-3.9 34.1l.1-.5-.5.1-.1.4h.5zm4.4-36.4v-.4H15v.4h.5zm-4.6 38.2l-.3-.1-.2.4.3.1.2-.4zm1.3-.7l.2-.8h-.6l-.2.7.6.1zm4.2-36.3l.1-.4H16v.3l.4.1zm.3-2.5h-.2l-.1.3.3-.2v-.1zm1 1.5l.2-.5-.5.1-.1.5.4-.1zm-4.9 37.8v.4l.3.1v-.4l-.3-.1zm.8-2.2h-.4l-.1.4h.4l.1-.4zm.9 1H14v.6l.5-.1V42zm5.8-39.3l-.4.1-.6.4-.3.3-.3.7h.6l.3-.3.2-.2.3-.3.2-.2v-.5zm-4.8 38.1l-.2.5h.5l.1-.5h-.4zm4.6-35.6l.1-.5-.4-.2V5l.3.2zm-4.3 38l.3-.3.3-.2.3-.3.3-.5-.3-.2-.4.3-.3.3-.3.2-.1.2-.3.4.1.2.4-.1zM21 4.1h.5v-.6H21v.6zm1.6.8v-.5l-.5.1v.6l.5-.2zm-4.3 36.2v-.6h-.4l-.1.6h.5zm4.6-38.7h-.4v.3h.3l.1-.3zm-5 40.4h-.1l-.1.2h.2v-.2zm5.9-39.5h-.5l-.1.5h.5l.1-.5zM19.3 42l.1-.4h-.3l-.1.4h.3zm1.4-1.6h-.5l-.2.6h.5l.2-.6zm5.5-37.1h-.3l-.3.4-.2.2-.4.3-.2.1-.3.4V5l.4-.3.3-.2.3-.3.3-.2.2-.2.2-.5zm-.1 2.3l-.6.1.1.5.5-.1v-.5zM22 39.2h-.4l-.1.4h.5v-.4zM25.3 8v.4h.7v-.5l-.7.1zm0 4.8l-.5.1.1.5.4-.1v-.5zm0-2.1l.2-.1v-.3l-.2.1v.3zm1.8-4l-.7.1-.1.6.5-.1.3-.6zm-.2 2.5l-.5-.1-.3.5h.5l.3-.4zm-4.2 28.9v.4l.4-.1V38l-.4.1zm4.7-33.6h-.5l-.1.5h.4l.2-.5zm-4.3 35.6h-.3l-.2.3.4.1.1-.4zm5.5-25.3l.9-1.8.3-.9.4-1 .2-1 .3-2.8-.2-2.3.4.2.6.7.4 1.7.1 1.1-.1 1.9-.4 2-1 2.7-1.1 1.9-1 1.2-1.3.8-.9-.1-.8-.4-.1-.6 1.5-.7.7-.9 1.1-1.7zm-2-3.2h-.3l-.1.4h.4v-.4zm1.1-1.2l-.4-.1-.1.5h.3l.2-.4zm.4-4.7l.1-.2H28v.1l.1.1zM27.9 8h-.2l.1.2h.1V8zm-3.7 31.1H24v.3h.2v-.3zm4.7-6.7l-.3.3-.2.4.3.2.2-.5.1-.2.1-.4-.2.2z"/><path d="M57.4 27.8l.8.4.4.7-.1 1.2-.5 1.2-.6.9-.5 1-1 1.6-.6.5-.6.7-.6 1-.7.7-1.5 1.1-.7.5-.9.5-1 .3-3.5.1-.8-.2-1-.1-4.4 2.3-1 .3-3.4.1-.7-.3h-.8l-2-1.1-.7-.5-1.2-2-.8-3.2.1-3.5-.1-.8.1-2 .2-.9.1-1.7.3-.8.2-2 .3-.8 1.1-4.7.1-.7.3-1 .2-.9.4-.7.4-1.9 1-2.8.3-.6 1.1-2.8.6-.8.3-.7.5-.9L37.8 3l1.4-1.3.8-.5.8-.4 1.3-.4 1.2-.1 1-.2 2.4.7.5.2 1.1 1.2.4 1.6.1.9-.1.7-.1 1-.1.8-.4 1-.1.9-.3.9-2.2 4.4-.6.9-1.2 1.4-.1.8.7.4 2.3.4.8.5.7.3.5.6.9 1.4.3.9.3 1.6.2 1.8v.6l-.2 1.7-.3 1-.1.7-.3 1.1-.6 1.9-.3.6-.3.9-.4.7-.1.9.9.4 1.2-.2 1.6-.9.6-.7 1.3-1.8.4-.8.6-.9.5-.9.9-1.1 1-.9.7.1zm-26.9-1.7l-.1.6.2.2.7-.2-.1-.6h-.7zm.8-2.4l-.5.1.1.6.5-.1-.1-.6zm.5-2.4l-.6.1v.5h.6v-.6zm-1 7.3h-.5l-.1.6h.5l.1-.6zm-.7 2.6l-.1.4.5.1.1-.5h-.5zm.1 2.9l.1-.4h-.4l-.1.4h.4zm1.9-6.8h-.6v.6h.5l.1-.6zm-.3 2.4l-.7.2v.7l.7-.1v-.8zm-.1-4.1l.6.1.2-.2.1-.5-.1-.2-.7.2-.1.6zm1-7.9v.4l.4-.1v-.4l-.4.1zm.3 2.5h-.6l-.1.5h.6l.1-.5zm-.2 2.1h-.6v.6h.6v-.6zm-1.3 10.5v-.5h-.4l-.1.5h.5zm-.2 2.7v-.6h-.6l.1.6h.5zm2.5-22.6l-.4.1v.3h.4v-.4zm-.3 2.7v-.4h-.4l-.1.4h.5zm-2.5 22v-.4l-.5.1.1.4.4-.1zM33.5 26H33l-.3.2-.1.5h.7l.2-.7zm.5-2.5h-.6l-.3.2-.1.6h.6l.3-.2.1-.6zm-.9 5l-.6.2-.1.5h.6l.1-.7zm-.4 2.6l-.3-.1-.2.4.4.1.1-.4zm-.9 4.9l-.2.6.6-.1.1-.5h-.5zm3.4-27.2l-.2.4.2.5.4.4.1.3.4.4.4-.5-.4-.5-.4-.4-.1-.2-.2-.3-.2-.1zm0 2.5l-.5.1v.5l.5-.1v-.5zm.4 3.5l-.3-.5-.1-.3-.3-.3-.5.4.2.5.2.2.2.2.2.2.3.2.1-.2v-.4zm-1.3 4l-.5.1.1.5.5-.1-.1-.5zm.3-2.2v-.4h-.4l-.1.4h.5zm-1 4.7v.6l.7-.1-.1-.5h-.6zm-1.5 17.5l.1-.5h-.5l-.1.5h.5zm.4-5.1h-.3v.4h.3v-.4zm3.7-26.2l-.1.7.5.1.1-.7-.5-.1zm.1 5.1l-.7.1.1.5.5.1.1-.7zM35 22.3l-.5.1v.5l.5-.1v-.5zm5.3 15l.7-1.1.8-2 1-1.1.8-.6.8-.9.7-1.7.3-1 .3-2.5v-1.8l-.3-.8-.4-.5-.5-.8-.7-.2-1.1-.1h-1.3l-1.5.6-.8.5-.8.2-.7.5-.7.8-.7.6-.6.7-.5.9-.6.7-.9 2.7-.1.8v.9l.3 2.6.6 1.7.5.8.6.5 2 .2 1.2-.2 1.6-.4zm-5.6-12l.1-.5h-.5l-.1.7.5-.2zm-1.8 14.4l-.3-.1v.4l.4.1-.1-.4zm.4-2.7l-.4.1v.4h.4V37zm2.1-17.3l-.2.8.2.7.6-.2.6-.5.6-.8.6-.6.6-.9.6-.7 1.6-2.4 2.2-4.2.7-1.7.2-1 .2-1.5-.1-.9-.3-.6-1-.1-1.1.4L39.6 8l-1.2 2.7-.5.7-.2 1-.4.8-1.8 5.5-.1 1zm6.5 5.7l-.8.5-.7.3-.8.5-.7.6-1.9 2.4-.4.7-.8 2.6.3 2.5.2.7v.4l-.4-.1-1-1.2-.2-.9-.2-2.6.2-1.3.6-1.3.6-.7 1.2-1.5 1.5-1.4 1.7-1.2.9-.4 1-.2 1.1.1.3.8-.9.3-.8.4zm-8.2 13.1l.1.3h.4l-.1-.5-.4.2zm4.6-32.2h-.6l-.1.6h.6l.1-.6zm-.4-1.9h.2l.1-.2h-.3v.2zM37.8 9h-.2l-.2.3.4.2V9zm-1.5 12.7v-.4H36l-.1.4h.4zm-.2 1.8l-.5.1-.1.5.5-.1.1-.5zM58 35.9l-.1.8-1.5 2.6-1.1 1.2-2.1 1.5-.8.2-.7.3-2.4.5-4 .2-.7.2-2.5 1.2-1.6.4-2.5.3-.8-.1-2.1-.7-1.3-.8-.1-.3h.4l.7.2.7.1h1.3l.8.1 1.1-.1 1-.4.8-.2 1.5-.7.8-.5.7-.3.9-.3h3.5l2.4-.4.8-.3 2.3-1.3 1.8-1.8 1.9-2.9.1-.2.2-.2h.2l.1.4.3 1.3zM37.7 15.5l.4-.7.3-1.1 1.1-2.7 1.4-2.6.5-.7.6-.6.4.7-.2 1.4-.6 1.3-1.3 2.5-.3 1-1.5 2.3-1 .8v-.8l.2-.8zM39 5.1l-.2.5h.6l.1-.5H39zm.9-2.6l-.6.1v.6l.6-.2v-.5zm-4.4 36.9H35l-.1.5.6.1v-.6zm2.1-17.1h-.4l-.2.3h.4l.2-.3zm3.5-20.5l.1-.5h-.5l-.1.5h.5zm-2.1 19l-.5.1-.1.6h.4l.3-.3-.1-.4zm-2 20.8l-.2-.5-.3-.6-.5.2v.4l.4.3h.3l.3.2zM40.9 4h-.3v.4l.4-.1-.1-.3zm-1.6 14.7h-.5l-.1.5h.4l.2-.5zm-2.6 19.9h-.3v.3h.3v-.3zm4.5-17.8l-.6-.6-.1-.3.2-.4.5-.5.4-.6-.1-.2h-.6l-.3.2-.3.3v.3l-.3.3-.5.6.2.5.3.2.6.5.4.3.3-.3-.1-.3zm1-18.2h-.5l-.1.4.5.1.1-.5zm-4.4 36.8l-.5.1v.6l.5-.1v-.6zm2.9-22.3h-.6l-.2.6h.6l.2-.6zm.3-1.6v.4l.4.6.6-.2v-.6l-.6-.2H41zM38.7 41l.2-.5h-.6l-.1.5h.5zm4.8-39.7h-.3l-.1.2.2.1.2-.3zm-.3 2.3l-.3.1-.1.4h.4v-.5zm-1 10h-.4v.4h.4v-.4zm1.6 7.1l-.3-.2-.6-.7-.5-.4-.5.6.3.5.3.2.4.3.4.4.4-.3.1-.4zm-1.1-6.1v.6h.5l.1-.6h-.6zm-.2 2.4v.6h.5l.1-.5-.6-.1zm1.1-4.9l-.5.1-.1.6.5-.1.1-.6zM44.8 3l.1-.5-.6-.1V3h.5zm-4.5 36.5l.1-.5-.5.1-.1.5.5-.1zm3.3-29.4l.1.4.1.2.1.2.1.3.3.5.4-.3v-.5l-.1-.2-.2-.2-.4-.3-.4-.1zm1.5-1.8l-.1-.2-.3-.2-.3-.2-.1.4.1.2.1.2.2.2h.4v-.4zm.5-1.8v-.6H45v.7l.6-.1zm-1.2 6.8l-.3.1.1.3.3-.2-.1-.2zm-.8 5.2l-.1.2.3.1v-.2l-.2-.1zm-2 20.1l.1-.6h-.5l-.1.5.5.1zm-.8 1.8v.4l.4-.1v-.4l-.4.1zM46 1.3l-.2-.1-.1.2.1.1.2-.2zm-3 35.3h-.6l.1.5.1.2.6-.2-.2-.5zm4.1-34.3l-.3-.1-.2.4.4.1.1-.4zm-.3 2.4h-.5l.1.5.4-.1v-.4zm-4 34.5l-.5-.2-.2.5.5.1.2-.4zm3.4-29.6l-.5.1v.4h.4l.1-.5zm-.6 2.5l-.1.2h.2v-.2h-.1zm-.4 7.4h-.6l-.1.5h.6l.1-.5zm1.3-12.2h-.4v.4h.4v-.4zm-3.6 27l-.1.5h.4l.1-.5h-.4zm4.5-12.5l-.3-.2-.3-.2-.2-.2-.3-.5-.3-.3-.6.4.4.5.3.2.2.2.2.2.4.3.4-.3.1-.1zm-3.9 16.1l-.1.4h.5l.2-.5-.6.1zm3.7-23.7l1.5-3.4.9-2.6.2-2.7v-.9l.1-.7v-.6l.4.2.3.5.2.9.2 1.5v1.8l-.2.8-.1 1-.3.8-.3.8-1.1 2.7-.9 1.7-1 .8-.9-.1.2-1.2.8-1.3zm0-5.9l-.1.2h.2v-.2h-.1zm-2.9 27.6v-.5h-.4l-.1.5h.5zm3.3-30.4l-.1.6.5-.2v-.4h-.4zm-2.9 27.9l.1-.5-.5.1-.1.5.5-.1zm2.4-13.6l.1-.3h-.3v.4l.2-.1zm-.2 13l-.8-.9-.2-.2h-.5l.2.5.2.3.2.2.2.3.3.4.4-.2v-.4zm-1.1 1l-.7.1-.1.7.8-.1v-.7zm1.3 2.7l.1.2.2.2.5-.1v-.4l-.2-.2h-.3L47 36v-.6l-.2-.3-.6.1-.2.4-.1.5-.2.2h-.4l-.3.2-.1.6.5.3.1.2.2.5.2.2.6-.2.2-.6-.1-.2-.4-.4-.2-.1-.1-.2.2-.3h.6l.4.2zm-.6-12.1v.2h.2v-.2h-.2zm-1.4 14.7h-.2l-.1.2.2.1.1-.3zm3.2-16.2h-.5l-.3.5.6.1.2-.6zm-1 7.3h-.4l-.2.5.5.1.1-.6zm.5-4.9l-.4.1v.4l.4-.1v-.4zm.6-4.7l-.4.1v.4h.4v-.5zm.2 5.8l-.3.3-.3.2-.3.3-.4.6v.6l.5-.3.3-.3.4-.5.3-.3.3-.4-.1-.3-.4.1zm.7-2.4l-.6-.1-.1.6h.6l.1-.5zm-1.4 7.4l-.1.4h.5v-.4h-.4zm.4-2.3v.3h.4V29l-.4.1zm-.8 9.8h-.3v.2h.2l.1-.2zm1.4-.8l.1-.5-.5-.1-.1.5.5.1zm1.5-6.3l.2-.9.3-1 .1-.8.4-1v-1l.2-.9v-.8l-.1-1.7.1-.7.7.9.5 2.6v1.6l-.2 2-.8 2.1-1 1.1-.6.1-.2-.8.4-.8zm-.3 4.9h-.2v.2h.1l.1-.2zm1 1h-.2l-.1.2h.2l.1-.2zm1.6-1.4h-.3l-.2.4h.4l.1-.4zm.9-1.5v.2h.2l.1-.2h-.3zm2.3-2.6V32l-.2-.2-.1-.1v-.3l-.1-.2-.1.3.1.2.4.5z"/><path d="M57.6 41.5l-.7-.3-.8-.5-1-1.1-.6-1.6v-1.7l-.1-.9.2-2.9.9-3.2.8-1.3.8-.1 1 .2.5.6-.1 2.5-.3 1-.2 1.5.1.8v1.1l.3.6.3.9 1 .1 1.1-.2.9-.6.7-.7.6-.7.9-1.5.6-.7.2-1-.7-1-1.8-1.3-.9-1.4-.3-.6-.3-2.7.2-1.1.3-1.4.3-.8.4-.8.7-.7.5-.7.7-.7 1.5-1 .9-.3 1-.5 2.6-.2 1.5.3 1 .1.7.3h.9l2.2-1.2 1.5.3.7.3.2 1.2-.2 1.3-.2 1.1-.5 1.6-.2 1-.4.7-1.3 5.4-.3.7-.4 2.9-.2.8.3 1.8.8.4h1.3l.8-.5.7-.5 1.2-1.4.6-.9.7-.7 3-4.8 1-.8.8.1.7.5.4.4v1.2l-1.5 2.9-.6.8-.7.8-.5.9-.6.7-.4.7-2.7 3-1.5 1-.8.6-.8.5-1 .3-1.1-.1-1.2.1-1.7-.5-.6-.6-.4-.5-.7-3.4.2-.8.1-1.7.1-.8-.2-.8-.9.1-.8 1-.4.8-.4 1-1.6 2.4-2.7 3.2-.8.7-.9.3-2.1.8-1.4.1-.9-.2zm-1-5.3h-.4v.4h.3l.1-.4zm.3-2.4h-.2v.2l.1.1.1-.3zm.8 3.4h-.5l-.1.6h.5l.1-.6zm.9 1.7l.2-.4-.4-.2-.2.5.4.1zm.6-6.1l.3-1.8.5-.9.8.4V34l-.5 1.2-.7.2-.4-.7v-1.9zm8.6 7.4l-1.8 2-1.8 1.5-3.6.7-.9-.1-.8-.5-.8-.4-.1-.6h.5l.7.3 1.3-.2 2.2-.7.6-.6.9-.5.5-.7.7-.6 1.2-1.5.4-.7.7-.9.4-.7.5-.5.2.6v.8l-.2 1.2-.5 1.3-.3.8zm-7.8-.7h-.4l-.2.5h.5l.1-.5zm2.3-15.6l-.1.6h.8l-.1-.6h-.6zm-1.7 14.5l.1.5.4-.1v-.4h-.5zM62.8 26l-.5.1-.2.2.1.5h.5l.1-.3.1-.5.3-.3.4-.1.3-.3v-.5h-.5l-.3.3-.1.5-.2.4zm.1-4.2l-.2.1v.2l.2-.1v-.2zm.6.9l-.1.5h.5l.2-.5h-.6zm.2 4.7h-.6v.6h.6v-.6zm-.8 10.9l-.3.3-.3.2-.2.2-.3.3-.2.4.3.2.5-.4.2-.2.3-.2.3-.3.3-.4-.1-.1h-.5zm-.4-1.3h-.4v.4h.5l-.1-.4zm1.7-16.4l-.1.2.3.1.1-.4-.3.1zm.2 5.6l-.1.6h.5l.1-.7-.5.1zm.2 2.4l-.4.1-.1.3h.5v-.4zm.4 5.8l-.2.1-.3.2-.5.4-.7.7.3.5.5-.5.3-.3.2-.2.3-.3.1-.2.2-.3.5-.4.4-.1.3-.3v-.5l-.5.1-.3.3-.2.4-.4.4zm.8-14.9h-.4l.1.2h.3v-.2zm-.4 2.2h-.3v.2h.2l.1-.2zm5 5.6l.9-.6.7-1 .5-1.9.5-.9-.2-1-.6-.9-.7-.3-.9-.1-.7-.2-1.7.3-.9.5-.6.5-.6.7-.6 1.2-.1 1.4.2.6.4.7.5.8.7.3h2.6l.6-.1zm-6.1 9.9l.3.2.2-.4-.4-.2-.1.4zm2.3-16.5l.1-.2h-.2l-.1.2h.2zm.2 7.7l-.5.4-.3.3-.3.3-.2.2-.4.6.6-.1.3-.3.3-.3.3-.3.4-.6-.2-.2zm-.5 2.4l-.3.3-.2.2-.3.3-.2.3-.1.2v.4l.4-.1.3-.3.5-.6.4-.4-.1-.4-.4.1zm.8-7.5l.4-.5.8-.7.7-.4.8-.1.9-.1.8.4-.2.8-1.8.6-.8.5-.4.9-.3.8-.1.7-1.1-.8-.1-.9.4-1.2zm1-4.1l-.3-.1-.1.4h.3l.1-.3zm0 10.2h-.5l-.1.6.1.2.5-.1v-.7zm-.4 2.4h-.4l-.1.5.5-.1v-.4zm1.3-1.1l-.6.1v.6l.5-.1.1-.6zm1.2-12l-.3.3.2.3.5.3.2.2.4.1-.1-.3-.1-.2-.1-.2-.3-.2-.4-.3zm0 11.4l.3-.3-.3-.5-.2-.2-.3-.5-.5-.2-.1.5.1.3.3.2.1.2.2.2.4.3zm1.9 0h.6l.4.3v.2l.4.5h.2l.4-.5-.4-.5-.4-.1-.2-.3.3-.6.3-.3.5-.4-.2-.5-.6.3-.5.4-.4.3-.3.3-.2.3-.2.4-.3.4-.7.3v.4l.6.1.2-.6.5-.4zm.8-10.9v-.5h-.5l-.1.5h.6zm-1.1 9.5v-.5h-.5v.5h.5zm.6-1.9v.6l.2.2.7-.1.1-.5-.2-.2h-.8zm1.6-7h-.6l-.2.6h.6l.2-.6zm-2 11.8v.4h.5v-.4H72zm.2 2.5l-.5.1v.4h.4l.1-.5zM74 24l.3-.1.4-.3-.1-.5h-.5l-.4.4v.5l-.3.4-.4.1-.1.5.4-.1.2-.4.5-.5zm-.6-1.7v.3l.2-.1-.1-.2h-.1zm1.8-3.8l-.5.1-.1.5.5-.1.1-.5zm-2 16.6h-.6v.6l.6-.1v-.5zm1.1-8.9v-.5h-.5l-.1.5h.6zm.2-4.7h.5V21l-.6-.1.1.6zm-1.1 11.9V33H73v.4h.4zm-.5 4.7l.1-.4-.3-.1-.1.4.3.1zM76.1 22l-.7-.1-.2.8h.6l.3-.7zm-.7 4.8h-.3l-.2.5h.4l.1-.5zm-1.2 5h.3l.1-.3h-.3l-.1.3zm.2 2.3h-.3v.4h.3v-.4zm1.4-14.4v.5l.5-.1v-.5l-.5.1zm0 4.6l-.5.1-.1.5.5-.1.1-.5zm-1.9 14.8l.1-.4h-.4l-.1.4h.4zm1-1.9l-.1.2v.5h.6l.1-.7h-.6zm2.3-16l-.1-.4-.3.1v.4l.4-.1zm9.3 13l-.1.7-.6 1.2-1.5 2.2-1.1 1.3-1.3 1.1-.7.4-.6.4-.7.5-.8.4-1.2.4-1 .2H76l-.6-.1-.5-.3-.5-.4-.1-.5h1.1l1.3-.2 1-.3 1.5-.8 2-1.5 2.1-2.4 2.5-3.7h.2l.2.8.3.6zm-9.1-15.7h-.2v.2l.2-.1v-.1zm2.9.5l.6.2.1 1.2-.2 1.3-.4.7-.4 1.9-.4.7-.1 1.1-1.1 3.5-.1.9-.5 1.6-.1 1.2-.4.5-.6.2-.4-.4-.2-.4v-.6l.1-.5 1.4-5.8.4-1 .7-3.2.4-.9.4-1.7.3-.6.5.1zm-3.8 17.3h-.3l-.2.3.4-.1.1-.2zm-.2 2.3l-.4-.1v.5h.4v-.4zm1.5-1.3h-.6l-.1.5h.6l.1-.5zm1.2-1.2l-.5.1v.4l.5-.1v-.4zm1.3-1.2H80l-.2.4h.4l.1-.4zm1.3-1v-.3l-.3-.1-.1.5.4-.1zm1.3-1.5h-.3v.4h.2l.1-.4z"/><path d="M91.9 30.5l.8-.6.6-.9 1.3-1.3 1-1.6 1.2-2.5.2-.8.1-1.1-.1-.8-.3-.7-.6-.6-1.2-.2-1.2.4-.9.5-.6.4-.7.6-.7.8-2.2 3.2-.4 1-.5.7-.4.8L86 30l-1 .8-.7-.1-.7-.4-.4-.7.2-1.2.5-1 .6-.9.8-1.8 1-1.5.4-1.1.6-.8.4-.8 2.6-3 .7-.6.8-.5 1.6-.7 2.2-.6 1.3.1.9-.1 1.6.4 1.4 1.2.4.7.3.6.2 1 .1 1.8v.8l-.2 1.1-.2.8-2.5 5.3-.7.2-.6.7-.7.7-.4.6.4.7.7.3.7.5.9 1.1.4.9.2.9.5.4.6-.3.7-.8 1.4-1.3.5-.9 1.3-1.7 1-1.5.4-1 .7-.9 1.3-1.9.9-.8.9.1.7.2.4.7-.1 1.1-.6 1.3-.6.8-.4.8-1.1 1.8-.6.6-.5 1-.7.7-.6.9L104 37l-.6.8-2.2 2.1-.8.6-.8.9-2 5.8-.4.6-.2.8-.6 1-.4.8-1.3 1.4-.8.6-.6.6-1.3.7-1.4.3-.9.4-1.4.1-1.3-.1-1.6-.5-.4-.6-.6-.7-.3-.6-.1-1v-.9l.5-1.9 1.3-2.2.7-.9.7-.6.6-.4.8-.7.7-.5 2.5-1.3.8-.7 1.5-.7 1-1.1.4-1-.2-1-.6-1.6-.6-.4-.9-.3h-1.4l-.9.1-1.3-.2-.6-.3-.2-.9v-.8l1-.9L91 31l.9-.5zm-5.8-4.9v-.2l-.3.1v.2l.3-.1zm9.1-3.4l-.5.7-.6.4-1.1 1.2-.6.8-.5 1-.6.7-.5 1-.5.6-1.6 2.8-1.1 1.6-.9 1.7-.4.6-.5-.6-.3-.7.1-.5.3-.7 1-1.6.4-.6 1.3-2.2.1-.2 2.1-3.2.4-.7 1.2-1.6 1.4-1.3 1.2.1.2.7zm-9.3 27.6h-.6l-.3.6h.6l.3-.6zm3.2-29.2v-.2l-.2.1v.2l.2-.1zm-3.2 27.3v-.3h-.4v.4l.4-.1zm-.5 4.9v-.4l-.3-.2v.3l.3.3zm1.3-1.2l.3-.3.2-.3.3-.3.3-.1.3-.4-.2-.5-.6.4-.7.6-.4.5.1.4h.4zm0-3.1l-.1.5.5.1.1-.5-.5-.1zm.5-2.1H87l-.1.2h.2l.1-.2zm1.4-1.1v-.4h-.5v.4h.5zm-.5 2.5l.1-.2h-.3l-.1.3.3-.1zm-.3 4.4h-.5v.5h.4l.1-.5zm4.1-34.5h-.3l-.1.3h.3l.1-.3zm18.5 16l-.4.9-.9 1.5-1.1 1.5-1.4 1.6-.6.9-.7.7-.7.6-.7.7-.8.7-.9 1.1-.5 1.3-.3 1-1.7 4.3-.6 1.5-.6.9-1.4 1.5-1.5 1.2-.9.5-1 .4-.9.2-2.9.3-.9-.1-.8-.4-.7-.5-.3-.3h.6l1.7.1 2-.3 1-.3 1.7-.8.9-.6.8-.6 1.4-1.6 1.1-1.8.9-1.9 1.2-3.9.5-1.3.9-1.1 1.6-1.4 4.6-5.4 1.7-2.9.2-.2h.2l.4 1.5-.2.5zM91.7 49.5l.7-.6.6-.9 1.4-2.8-.3-.7h-.6l-1 .6-.8.6-2.2 2.1-.5.9-.1.9.9.5 1.1-.2.8-.4zM89.5 46l-.2.1v.2h.3l-.1-.3zm-.4 4.9h-.4l-.1.5h.4l.1-.5zm4.1-34.3H93l-.1.3h.2l.1-.3zm-4.6 36.9v.4h.3v-.2l-.3-.2zm3.8-21h-.3l-.1.2.3.2.1-.4zm1.6-15l-.1.5.4.2.2-.5-.5-.2zm-2.8 27.2h-.4v.4l.4-.1v-.3zm.7 1.7l.7-.2.1.3-.4.8-.7.9-.8.5-.4.1-.1-.3.2-.6 1.4-1.5zM90 52.2l-.1.1v.3l.2-.2-.1-.2zm5.7-35.8h-.3l-.1.4h.4v-.4zM94 30.9l-.5.1v.4l.5-.1v-.4zm-.3 2.6l-.4.1v.5l.4-.2v-.4zm-1.2 9.9l-.5.1v.4h.4l.1-.5zm-1.1 7.7v.5l.2.2.2.2.2.2.3.3.3-.3-.2-.3-.1-.2-.2-.2-.1-.4h-.6zM95 32.8l.1-.5h-.6l-.1.5h.6zm-1.2 9.5l-.5-.1.1.5h.4v-.4zm3-24.3v-.4l-.4-.2-.1.5.5.1zm-1.5 11.7l-.3.2v.4l.4-.1-.1-.5zm.3 3.9v.3h.4l-.1-.3h-.3zm-.8 7.2v.4h.4v-.4h-.4zm.3 2.3h-.6l-.1.6h.5l.2-.6zm2.7-26.8v.4h.4v-.4h-.4zm.1 2.4l-.4-.1v.4h.4v-.3zm-4 32.2h-.3l.1.3.2-.1v-.2zM97 26.1h-.2v.3l.2-.1v-.2zm-.4 2.5l-.1-.1v.3h.2l-.1-.2zm-.8 7.4h-.2l-.1.3h.2l.1-.3zm.8-1.4v.4l.5-.1v-.4l-.5.1zm-.4 4.9l-.2.4.2.4.3.2.2.2.1.3.5.3.4-.3-.2-.6-.1-.2-.3-.2-.2-.3-.3-.3-.4.1zm3.1-22.2h-.5v.5h.4l.1-.5zm-3 24.6l-.5.1-.1.7.6-.2v-.6zm2.6-22.2h-.4v.4l.4-.1v-.3zM95.3 47l-.1.5.5-.1V47h-.4zm1.6-9.9h-.4v.4l.4.1v-.5zm-1.2 7.4v.4h.4l.1-.4h-.5zm1.9-1.5h-.7l-.2.6.7.1.2-.7zm.2-4.7h-.4v.4h.4v-.4zm1.7-17.1l.1.3.4-.1v-.3l-.5.1zm-1.2 14.6h-.4v.5h.4v-.5zm2.3-7.6l.4-.8.6-.7.3-1 .7-1.7.1-1.9.2-1v-.7l-.2-1.5.2.2.5.7.7 1.5.3 1.6-.2.8-.1 1.1-.4 1.7-.4.7-.9 1.9-.4.7-1.2 1.6-.8.2-.7-.7.3-.9 1-1.8zm-1.4 8.6l-.6.1.2.5h.4v-.6zm-.1 3.1v-.7h-.5v.7h.5zm-.5 2.4V42l-.3-.1v.4h.3zm1.2-1.8h-.2v.2h.2v-.2zm.7-2.4h-.5l-.1.7.6-.2v-.5zm.8-1.4l-.1.5.4.2.2-.6-.5-.1zm3-2.4l-.1.1v.1l.3-.1-.2-.1z"/><path d="M113.2 38.2h-.9l-.8-.1-1.5-.7-.9-.7-.5-.5-.5-.6-.2-.6-.3-.6-.4-2.2v-.8l.1-3.1.2-1.5.3-.8.2-.8 1.2-3 .4-.7 1.4-2.1.5-.7 1.1-1.2 1.9-1.6 1.9-.9 2-.8 3.1-.2.8.1 1.8.5 1.2.1.7-.7.8-.7h1.6l.7.1.4.3.3 1v1.1l-.4 1.6-.1.8-.3.7-.4 1.6-.3 2.4-.3.8-.1 1.4-.3.8-.2 2.3-.3.8v1.5l-.1.8.3.8.5.6.9.2 1-.2.7-.3 1.8-1.8.4-.7.7-.7.4-.8.7-.7.9-1.5.3-.8.8-1 1-.8h.7l.6.2.6.4.2.6-.3 1.1-.7 1.6-.6.8-.3.7-1 1.4-.4.7-1 1.3-.4.7-1.7 1.7-.8.5-.6.6-1 .7-.9.5-1.9.6-1.2.1-.8-.1-.7-.3-.5-.4-.5-.6-.3-.7-.5-.6-.2-.6-.1-.9-.2-.5-.7.3-2.2 2.5-1.3 1-.6.3-2.3 1-2.2.3-.4-.3zm-4.6-10.4l.4-.3.5-.5-.4-.4-.5.4-.2.3v.2l-.4.5-.1.1.1-.1.6-.2zm.4-2.9h.3l.1-.4-.4.1v.3zm.1 5v-.6l-.6.1v.6l.6-.1zm-.4 1.9h-.4l-.1.4h.5v-.4zm2.3-8.7l-.1-.2-.5.1v.6h.6v-.5zm-.3 2.4l-.4-.2-.3.3-.1.6h.6l.2-.7zm-.5 2.5l-.5.1.1.4.4-.1V28zm-.8 2.9l.5.1.1-.5h-.5l-.1.4zm-.1 2.1l-.1.4h.4l.1-.4h-.4zm2.8-12.9l.2-.1.3-.3.2-.2.3-.3.1-.2.3-.3.3-.4-.3-.2-.4.3-.6.4-.3.3-.4.6-.1.3-.5.4-.3.2-.2.4.4-.1.3-.3.7-.5zm-.2 4.1h-.6l-.1.6.6.1.1-.7zm-.7 5.1l-.3-.1-.1.4.2.1.2-.4zm.2-2.5h-.2l.1.2h.2l-.1-.2zm-.6 5.3l.1-.4h-.3l-.1.4h.3zm0 2.4V34l-.5.1.1.5.4-.1zm1.4-12.3v-.4h-.4l-.1.5.5-.1zm8.8 16.9l-2.1 1.2-.7.2-1.1.2-3.3.1-.7-.2-1.3-.6-1-.8-.2-.3h.5l1.4.4h4l1.1-.4 2-.9 1.3-1 .6-.7.9-.3.4.3v.9l-.5.9-1.3 1zm-5.9-20l-.4-.2-.5.6-.2.2-.3.3-.6.4-.1.3.4.4.4-.1.3-.7.5-.4.5-.4v-.4zm2.6 13.9l1.3-.8.5-.6 1.1-1.1.6-.7 1.6-3.2.6-1.8.4-1.6.3-.7.1-.8.2-.7.1-.7-.2-.9-.6-.6-.8-.3-1.4-.2-1.2.1-1.1.2-.8.3-1.5.9-.6.6-1.1 1.2-1.9 2.9-.6 1.5-.2.8-.3.7-.2 2.4.1.7v.8l.3.6.9 1.1.7.4.6.1 2.3-.5.8-.1zm-6.4 2.3l.1.5.5-.1v-.4h-.6zm1.1 1.1l-.1.5h.5l.2-.5h-.6zm9-15.5l-.8.1-.7.2-.7.4-1.3.9-.5.6-.5.7-.6.7-1.1 2.1-.2.8-.1.7-.3.8-.1.7.2 1.5v1.2l-.5-.1-.7-1.1-.1-.8-.1-.8.1-1.5.6-2 .4-.8.4-.7.3-.7.9-1.3.5-.6.7-.6.7-.5.5-.5.7-.3.7-.3 2.2-.2.5.3-.1.8-.5.4-.5-.1zm-6.5-4v.3h.4l-.1-.3h-.3zm1.5.9h-.6l-.1.5h.6l.1-.5zm-1.9 17.3l-.5-.1-.2.5.6.1.1-.5zm3.1-18.6h-.4l-.1.4.5.1v-.5zm-2.1 19.6l-.5.1v.5h.5v-.6zm3.5-20.4l.1-.3h-.4l-.1.3h.4zm-2.7 19.7l.4-.1v-.4l-.4.1v.4zm3.8-18.6v-.2l-.2-.1-.2.3h.4zm1.4-1.6h-.4v.3l.3.1.1-.4zm1.1 1.2h-.3l-.1.2.3.1.1-.3zm.8 14.5l-.4-.3-.3-.1-.3-.6-.2-.2h-.2l-.3.3-.4.6-.3.3-.2.5.1.2.4-.5.3-.1h.4l.2.2.6.4.4-.1.2-.6zm-2 1.2l-.1.5.5.1.1-.6h-.5zm2.2-14.6l-.2.1v.2l.2-.1v-.2zm-.4 10.9l-.3.2.2.5.2.2.4.5.3.2.4.3.5-.4-.2-.6-.4-.4-.3-.2-.2-.2-.6-.1zm1.4-12.1l-.1.5.5-.1.1-.6-.5.2zm-.6 10.1v-.3l-.3-.1v.4h.3zm.8-1.7l-.2.6.7-.2v-.7l-.5.3zm.2 2.3h-.6l-.1.5.6.1.1-.6zm.7-7.1l-.4.1v.4l.3-.1.1-.4zm.7-4.9h-.4l-.1.4.4-.1.1-.3zm-.2 2.2h-.5l-.1.6.5-.1.1-.5zm-1.1 5l-.1.3h.2l.1-.2-.2-.1zm-1 10l-.1.4h.3v-.3l-.2-.1zm3.3-16.3l-.4.1v.5l.4-.1v-.5zm-.9 8.1l.1-.5h-.5l-.1.5h.5zm-1.3 6.8v.5l.6-.1-.1-.5-.5.1zm.2 2.3l-.5.2-.1.5.5-.1.1-.6zm1.4-14.6l-.1.4h.4v-.4h-.3zm-.9 7.5v.4h.4V26h-.4zm1.3 1.2h-.3l-.1.3h.3l.1-.3zm-.5 4.8h-.4l-.1.5h.5V32zm1.7-17v.2l.3-.1v-.2l-.3.1zm0 2.3l-.2-.1-.1.2h.2l.1-.1zm-.7 4.9l-.2.1v.2l.3-.1-.1-.2zm-1.6 12.1l-.1.6h.6l.1-.6h-.6zm1.5 1.1h-.4l-.2.4h.5l.1-.4zm.2-2.1h-.4v.4h.4v-.4zm11.2-1.9l-.1.7-.6 1.2-1.5 2.2-1.1 1.3-1.3 1.1-.7.4-.6.4-.7.5-.8.4-2.2.3h-.8l-.6-.1-.5-.3-.5-.4-.1-.5h1.1l1.3-.1 1-.2 1.5-.7 2-1.5 2.1-2.4 2.5-3.7h.2l.2.8.2.6zm-9.9-.4l-.2-.5-.1-.7v-1.4l.1-1.6.6-2.3v-1.4l.3-.8.4-2.2.2-.8v-.8l.3-.7.2-.9.5-.6.6-.2.4.8-.1 1.1-.6 2.4-.1.7-.6 2.3-.1 1.6-.3.8-.4 2.2v2.9l-.4.3-.7-.2zm-.6 3.4l-.1.2.3.2.2-.3-.4-.1zm1 1.2l-.1.2.2.1.1-.3h-.2zm1.7-1.3l-.1-.1-.1.1v.2l.2-.2z"/><path d="M177.2 21.2l.6.4.4.6-.1 1.2-1 2.2-1.2 1.7-.3.8-.7.9-.6.9-1.3 1.5-2.2 2.1-.9.5-1.7.9-1.4.4-1.4.1-.9-.1-.8-.3-.7-.4-1-1.2-.3-1.8-.2-.9.1-.9-.1-.9.3-2.9.5-2 .1-.9.5-2.8.4-1.4.2-1.4-.3-.7-.6-.5-.8-.1-1.4.5-1.5.7-2.2 2-.7.9-.6.9-1.6 4.6-.8 3.6-.2 1.8.1.9-.2 2.2-.5 1.2-.8.5-.8.2h-.9l-.9-.2-.7-1.1v-3l.6-3.8.5-1.9.1-.9.4-1 .2-1.1.9-2.3.3-1.4-.5-.8-.6-.3h-.8l-2.2 1.1-1.3.8-1.6 1.5-1.3 1.7-.9 1.8-.6.9-.8 2.5-.5 2.4-.2 3-.3 1.4-.7 1.2-.8.3-1.8.1-.9-.2-.4-1.2-.1-1.3.5-1.9.9-6.6.3-.9 1-5.7.4-1 .6-2.7.5-1.4 1-1.1 1-.3 1-.1 1 .2.3 1v1.4l-.8 2.9.1.6.7-.3.5-.8 1.5-1.5 2.7-1.6.9-.5 2.9-.5 1 .1.8.3.8.5.3.7.7.4.7-.2 3.1-2.7 1.8-.7.9-.3 1.4-.3h1.3l.9.1 1.6.8.5.5.5.7.5 1.6.1.9-.3 2.3-1.7 6.1-.1.9-.4 1-.2 2.8.3.7 1 .4 1.4-.2 1.2-.9 1-1.1 3.1-4.2.4-1 .9-1.2 1-.9.9.5zm-38.8 8.9l.2.5h.5v-.5l-.5-.1-.1-.3.2-.6.5-.4.3-.3.1-.7-.5-.1-.2.7v.2l-.4.3-.6-.1-.3-.2-.3-.1-.4-.5-.5.4.3.4.2.2.1.3.1.2.2.2.3.2.3.1.5.2zm-1.6.3l-.4-.2-.1.6h.4l.1-.4zm1.1-10h-.3l-.2.4.3.1.2-.5zm-.5 5.1h-.4l-.1.4h.4l.1-.4zm-1 7.3l-.4.1v.4l.4-.1v-.4zm-.3 2.6h-.2l-.2.2h.2l.2-.2zm1.3-12.4v.3l.3.2.1-.4-.4-.1zm.7-5l-.1.2h.3V18h-.2zm.3 8.5h-.5l-.1.5h.5l.1-.5zm.3-2.5l-.5.1v.6l.6-.2-.1-.5zm-1.3 8l.5-.1v-.4h-.5v.5zm2.4-15.3l-.6-.1-.2.6.6.1.2-.6zm-.5 2.4h-.5l-.1.5h.5l.1-.5zm-.2 3l.1-.7h-.6l-.1.7h.6zm-1.8 12.1l.2-.1v-.2h-.2v.3zm9.9-11.4l-1.9 2.3-1.6 2.7-.4 1-.5 1.4-.2 1.3v.9l-.9 4.9-.6 1-1 .8-.9.1h-1l-.8-.3v-.7l.7-.4.8-.2.8-.4.7-1.2.3-1.3.1-1 .2-.9V32l.2-1 .1-1 .6-2.7 2-3.5 1.3-1.6.8-.7.6-.7.7-.6.8-.5.9-.1.4.7-.6.8-1.6 1.7zm-6.7-2.7l-.6-.1-.3.2v.6l.5.1.2-.1.2-.7zm.3-2.3l-.7.1-.1.7.6.1.3-.3-.1-.6zm-1.3 4.9l-.1.5.1.2.5-.1.2-.2-.2-.5-.5.1zm.1 2.5l-.4.1v.4h.5l-.1-.5zm-.9 7.5l-.4-.2-.1.5.3.1.2-.4zm2.1-17.2h-.2l-.1.2h.3v-.2zm1 1l-.3.1-.1.2h.4v-.3zm0 2.5h-.5l-.1.7h.5l.1-.7zm-1.1 5v.3h.4v-.4l-.4.1zm.4-2.7l-.1.7h.5l.1-.7h-.5zm1.2 1.5h-.4l-.1.4h.5v-.4zm.6-2.6l-.6-.1-.1.5.6.1.1-.5zm.8-1.1l.3.1.2-.4h-.4l-.1.3zm1.8-1.4h-.3l-.3.4.5.1.1-.5zm1.1-1.5l-.1.4.3.1v-.4l-.2-.1zm1.3 1.6v-.4h-.4l-.1.5.5-.1zm1.4-1.6l-.4-.1-.1.5h.5v-.4zm1.3-1.4h-.3l-.2.5h.5v-.5zm-.7 2.5v.5l.4-.1v-.4h-.4zm1.8-1.4l-.4.1v.4l.4-.1v-.4zm-2.5 17.3v.5h.5l-.1-.5h-.4zm1.2-9.5l.1.3.3-.1v-.4l-.4.2zm.1 2.3l-.4.1v.3h.4V26zm-.2 2.7v-.4h-.4l-.1.5.5-.1zm1-10.4l-.2.4h.5v-.4h-.3zm-1.6 13l.2-.2h-.3v.2h.1zm2-3.6v-.6l-.1-.2-.5.1v.6l.1.2.5-.1zm-1.1 4.3l-.1.5.5.1.2-.7-.6.1zm1.3-7.5h-.4v.5h.4v-.5zm1.1-7.2l-.5-.1-.1.5h.5l.1-.4zm-2 12.3v.5h.5l.1-.5h-.6zm-.1 5h-.3l-.2.2.3.1.2-.3zm1.8-14.9h-.5v.4h.4l.1-.4zm-.4 2.5h-.4v.3h.3l.1-.3zm7.8-1.8l-1.5 1.4-1 1.8-.5 1.4-.3 1.4-.3.8-.1 1-.3.8-.7 6.4-.4 1.4-.5 1-.8.6-.9.2h-.9l-.9-.2-.6-.6.4-.5 1.8-.3.8-.5.4-1.1.3-2.1-.1-.9.3-1 .3-2.7.3-1 .2-.8.1-.9 1.3-3.7.5-.9 1.4-1.6 1.5-1.3 1.2-.7h1l-.2 1.1-.9.9-.9.6zm-7.6 7.9h-.3l-.1.4.4-.1v-.3zm1.5-10h-.6l.1.6h.5v-.6zm-.2 2.4l-.5-.1-.3.7.6.1.2-.7zm-.7 3v-.3h-.2l-.2.2.4.1zm-1.4 9.6l-.2.4h.3l.2-.3-.3-.1zm2.5-17.4h-.3v.4h.3v-.4zm.7 3.6l-.4.1-.1.4h.4l.1-.5zm0-2.4v.4l.4-.1V17l-.4.1zm1.7-1l.1-.4h-.4v.3l.3.1zm1.1 1v-.2h-.2l-.2.3.4-.1zm1.4-1.5l-.4-.1v.4h.3l.1-.3zm1.4-1.3h-.5l-.1.5h.5l.1-.5zm1.1-1.2l-.2.1v.3h.2v-.4zm1.4.8l-.7.1.1.6.5-.1.1-.6zm.9 1.7v-.3h-.3v.3h.3zm.4-2.7h-.4v.4l.4-.1v-.3zm.1 8.5l-.4-.1-.2.5h.5l.1-.4zm-.2 2.5l-.5.1v.4l.4-.1.1-.4zm1.1-9.9h-.4v.2h.4V14zm-.3 2.4h-.4v.4l.3-.1.1-.3zm-1.5 12.3l-.4.1v.4h.4v-.5zm.3-2.2v-.2l-.2.1v.2l.2-.1zm1.5-3.4l.2-.5-.5-.1-.1.5.4.1zM165 25l-.4.1.1.3h.3V25zm1.4-9.8l-.5.1v.4l.4-.1.1-.4zm-.5 2.4l-.3.1.1.2h.2v-.3zm-1.1 9.8l-.4.1v.3h.4v-.4zm2.6-11l-.3-.1-.3.3.4.2.2-.4zm-.3 2.4h-.3v.4h.4l-.1-.4zm-1.4 12.3h-.4v.4h.3l.1-.4zm11.9-1.9l-.1.7-.6 1.2-1.5 2.2-1.1 1.3-1.3 1.1-.7.4-.6.4-.7.5-.8.3-2.2.5h-1.1l-.6-.1-.5-.3-.5-.4-.1-.5h1.1l1.5-.1 2.5-1 2-1.5 2.1-2.4 2.5-3.7h.2l.2.8.3.6zm-11 3l-.2.1v.2l.2-.1v-.2zm1.1-6.2l.1-1 .5-2 .4-1 .9-3.8.2-1.8v-1.3l.7.6.4 2.9-.1 1-.2 1.4-1.6 6.4-.8 1.1-.8.4-.2-.9.5-2zm.1 7.5h-.4l.1.4h.3v-.4zm1.4-1.2V32l-.3.1v.3l.3-.1zm1-1.2l-.1-.2-.1.1v.2l.2-.1zm4.2-4.1h-.1v.2l.2-.1-.1-.1z"/><path d="M200.9 19.9l.8-.1.7.3.5.5-.1 1.3-.6 1.5-2 3.4-.7.6-.5.6-3 2.8-1.7.9-2.2.4-1.1-.1-1 .1-1-.1-2.8 1.7-.9.4-1.3.2-4 .4-2.7-.6-.6-.7-.8-.3-.9-1.4-.4-1.6-.2-1.9.1-1.5.4-2.2v-.8l.2-.9 1.2-3.8.2-1 1.7-4.3.2-.8.8-1.4.9-.9.9-.4h.9l.7.2.6.6-.1 1.2-.4 1.4-.4.8L181 18l-.4.8-.4 1 .2.6.7-.2.8-.8 1-.4 1-.5.8-.2 3.7-.1 2.9 1.4.6.6.3.7.7 2.2-.2 1.9-.2 1-.3.8v.9l.9.4 1.2-.4 1.5-1.1.6-.6.6-1 .6-.7 2.1-3.5.7-.8.5-.1zm-25.2 5.4v-.2h-.3l.1.2h.2zm-.3 2.1h-.2l-.1.2.3.1v-.3zm2-6.1h-.4v.4l.2.1.2-.5zm-.7 2.2l-.1.8h.6l.1-.8h-.6zm.9-4.5l-.2-.1-.1.2h.2l.1-.1zm-.7 7h-.4l-.1.5h.5V26zm-.3 2.8l.1-.5h-.5l-.1.5h.5zm1.2-1.6h-.4l-.2.5h.5l.1-.5zm.6-4.8l-.5.1-.1.5.5-.1.1-.5zm-.9 7.6v-.4h-.5l-.1.5.6-.1zm.6-4.8l.2-.5-.5.1-.1.5.4-.1zm.8-9.8v.2l.2.1.1-.3h-.3zm-.1 4.6h-.4l-.1.4h.5V20zm-1.9 12.1v.4l.3-.1V32l-.3.1zm2-14.1l.1-.2-.3-.1v.3h.2zm1 .8h-.3v.3h.2l.1-.3zm.3-2.4h-.4v.4l.3-.1.1-.3zm-.8 7.5l.2-.6h-.5l-.1.6h.4zm-.8 7.3l.1-.5-.5.1-.1.5.5-.1zm1.9-17.3h-.3v.2h.2l.1-.2zm-1.1 7.3l.1.3h.3v-.4l-.4.1zm4.6 9l1.6-.7.6-1.2.5-1.3 1.2-2.1.4-1-.2-.7-.4-.7-.6-.6-.7-.2-2.5.1-.9.3-1 .6-.8.3-.7.6-1.2 1.9-.3 1.5-.1.9.2.6.5.8 1.1 1 .8.3h.8l1-.2.7-.2zm18.3-2.3l-.1.7-.6 1.3-.8 1.3-1.1 1.2-2.1 1.5-.8.2-.7.3-2.4.5-3.9.2-.7.2-2.6 1.3-1.6.5-1.1.2h-1.1l-.8-.1-2.1-.7-1.3-.8-.1-.3h.4l.7.2.7.1h1.3l.8.1 1.1-.1.7-.2.8-.2 3.3-1.7.7-.2.9-.1 1.5.1h.8l2.4-.4.8-.3 2.3-1.3 1.8-1.8 2.1-3.3h.2l.2.8.4.8zm-21.6-5.3l.2-.4-.4-.1-.2.4.4.1zm-1.5 9.5v.4h.3l.1-.4h-.4zm1.7-6.3l.4-.7 1.1-1.1 1.2-.6.8-.2 1.1.3.5.7-.6.4-.9.4-1.7 1-1.5 2-.4.1-.6-.6-.2-.9.8-.8zm-.6 7.4v.2l.2-.1v-.2l-.2.1zm3-17.8l.7-2 .5-.9.7-.6.8.4-.2 1.5-1.2 2.8-1 .6h-.6v-.7l.3-1.1zM182 32l-.2-.2-.1.2.2.2.1-.2zm.8 1v.4l.4-.1v-.4l-.4.1zm1.1-1.2v.2l.2.1.1-.3h-.3zm1.7-1.3h-.2v.2h.2v-.2zm-.2 2.6l.1-.3h-.3v.2l.2.1zm1.5-1.6h-.5l-.1.5.5-.1.1-.4zm-.1-2.4v.4h.4l.1-.4h-.5zm2.3-8.6h-.5l-.1.5h.5l.1-.5zm-1 9.6h-.6v.6h.6v-.6zm.2-1.9l.1-.5h-.5v.4l.4.1zm.5-2.4l.1-.5h-.4l-.2.5h.5zm.4-2.7l-.4-.1-.1.5.4.2.1.3.1.3.1.2.5-.1-.1-.6-.7-.2.1-.5zm-.2 5.8l-.1.5h.5V29l-.4-.1zm1.3-7.1h-.2l-.2.4h.4v-.4zm-.5 4.8h-.4v.5h.5l-.1-.5zm-.8 4.8h-.2v.3h.2v-.3zm2.3-8.5h-.4l-.2.5.5.1.1-.6zm-.4 4.7h-.5l-.1.6h.6v-.6zm-.3-1.9l.4.2.1-.6h-.5v.4zm-.2 4.4l-.4.2v.3l.4-.1v-.4zm1.6-1.4h-.4l-.2.4.4.1.2-.5zm-.6 2.5h-.2l-.1.2h.2l.1-.2zm1.5-1.4l-.4.1v.4l.4-.1v-.4zm1.1-5.6v-.8l-.1-1.1v-1.5h.4l.8.7.4.6.3 1.3-.1.8-.6 1.2-1.1.6-.3-.7.3-1.1zm.4 4.6h-.5v.4l.5-.1v-.3z"/><path d="M224.6 18.6l.6.3.5.6-.1 1.1-.9 1.9-.4.6-.3.7-1.5 2.1-.6.7-.4.6-1.1 1.2-.7.6-.9.8-1 .8-.8.4-1.4.9-2.3.8-1.6.3-.7.2-1.9.3-4.1-.4-.7-.2-.7-.3-.5-.4-.8-.4-1.5-1.5-.3-.6-.4-.6-.3-.7-.1-.7-.2-.8-.2-.6.1-3.5.4-1.9.1-.8.6-2.2 1.7-3 .4-.6.5-.6.4-.7.5-.6 1.8-1.6 2.9-1.5 1.4-.5.9-.2h3l.7.1.7.2 1.7 1 .4.6.5.4.2.6.1.8.2.7v.8l-.7 2.6-.7.9-1.5.6h-.7l-.6-.1-.6-.4-.1-1 .1-1.1-.1-.8-.3-.6-.6-.4-1.1-.2-1.1.1-.6.1-.8.3-.6.5-.8.5-.5.6-.5.6-1 1.4-.3.8-.2.6-.3.8-.5 1.6-.3 3.1.2 1.5.2.7.7 1.2.6.6 1.1.7.6.3.7.1h1.1l2-.2.6-.2.9-.2 1.5-.7 2-1.2 3.1-2.7.4-.7.6-.7.6-1 .8-1 .7-1.1 1-.7 1.1-.4zm-23.4.8l-.2.4h.5l.1-.5-.4.1zm-.2 4.7l-.5.1v.5h.5v-.6zm.4-2.5l-.5.1v.5l.4-.1.1-.5zm-.5 4.7h-.5l-.1.6h.5l.1-.6zm.9-3.5l-.2.4.4.5.2.1.3.2.1.2.3.5h.2l.5-.5-.4-.5-.3-.2-.2-.3-.4-.4h-.5zm.9-2.3h-.5l-.1.6h.5l.1-.6zm.2-2.3h-.4l-.1.5.4-.1.1-.4zm-.8 7h-.5l-.1.5h.5l.1-.5zm1.1-9.5h-.2v.2h.2v-.2zm-1.4 12.5v-.3h-.3v.4l.3-.1zm1.3-1.7h-.5l-.1.5h.5l.1-.5zm.7-9.2l.4-.1.1-.5-.5.1v.5zm-.2 4.4h-.2l-.1.3h.2l.1-.3zm1.1-7.4l-.4-.1-.1.4h.3l.2-.3zm-.8 5.2v-.4h-.4v.4h.4zm-1.4 9.4v.4l.4-.1v-.4l-.4.1zm22.6-1.5l-1.3 2.3-1.9 2.2-1 .8-.8.5-1.3 1-2.2.9-3.2.7-3 .3h-.9l-.7-.1h-.8l-2.3-.4-2-.7-.8-.5-.2-.6.6.1.6.3 1.4.4 1.4.2h3.6l1.8-.3.8-.3.7-.1 2.3-.7 1.4-.6.8-.5 1-.7 1.1-.6 1.1-1.1.7-.6 1.8-2.5.6-1.1.2-.2h.2l.4 1.5-.1.4zm-21 .8l.1-.5h-.5l-.2.5h.6zm1.7-14.9l.2-.4h-.4l-.1.4h.3zm-.3 2.1h-.3v.4l.3-.1v-.3zM203.6 30l-.1.5h.5V30h-.4zm3.2-15.6l.1-.2h-.3l-.1.2h.3zm-1.5 14.3l-.5.1v.4h.5v-.5zm2.1-17h-.4v.4h.4v-.4zM205 31.2h-.3v.3h.3v-.3zm5.5-14.2l-.5.6-1.4 2-1.4 3.9-.2 1.3-.3.8-.3-.2-.3-.9-.2-1.3.2-1.1.1-.8.5-1.4.4-.8.3-.7.4-.7.5-.7.6-.6.5-.7.7-.5.7-.4.7-.3.9.2v.8l-.5.7-1.4.8zm-2.7-3.8h.4l.1-.4h-.3l-.2.4zm-1.6 16.9h-.3v.3l.4-.1-.1-.2zm2.3-19.3l.2-.4h-.4v.3l.2.1zm-1.2 20.4l-.4.1v.3l.3-.1.1-.3zm2.2-19.4v.2l.2-.1v-.2l-.2.1zm1.3-1.5v.4h.4v-.3l-.4-.1zm-2.3 19.6l-.1.3.3.1.1-.3-.3-.1zm-.1 2.4h-.3v.2h.2l.1-.2zm1.5-1.2l-.3-.2-.3.3.3.2.3-.3zm3.7-21.2h-.5l-.1.4.4.2.2-.6zm.3 2.3l.3-.2.5-.5v-.6l-.6.4-.4.6-.2.4.4-.1zM212.3 31h-.5l-.1.5h.5l.1-.5zm2.9-18.5v.4l.4-.1v-.4l-.4.1zm-1.6 17.1h-.2l-.1.2h.2l.1-.2zm3.3-18.3h-.4l-.1.4h.4l.1-.4zm-.2 2.3h-.4v.4h.3l.1-.4zm-2.2 17.3l-.2.1v.2l.2-.1v-.2zm5.4-16.1l-.1-.8.1-.7-.2-.7.1-.5.3.2.7 1.2.3.8.1 2.2-.2.8-.5 1.2-.8 1-.8.4-.7.2-.9.1-.6-.2v-.7l.6-.4.9-.4.7-.6.4-.7.6-2.4zm-2-2.4l-.1-.1-.1.2.1.1.1-.2zm-2.2 17v.4l.4-.1v-.4l-.4.1zm1.6-.8l.1-.3-.3-.1-.1.3.3.1zm2.7-2.9h-.3v.4h.3v-.4z"/><path d="M224.8 32.2l-.7-.3-.8-.5-1-1.1-.7-1.7v-1.7l-.1-.9.2-2.9.9-3.2.8-1.3.8-.1 1 .2.5.6-.1 2.5-.3 1-.2 1.6.1.8v1.1l.3.6.3.9 1 .1 1.1-.2.9-.6.7-.7.6-.7.9-1.7.6-.7.2-1-.6-.7-1.8-1.3-.9-1.4-.3-.6-.3-2.7.2-1.1.3-1.4.3-.8.4-.8.7-.7.5-.7.7-.7 1.5-1 .9-.3 1-.5 2.6-.2 1.5.3 1 .1.7.3h.9l2.2-1.2 1.5.3.7.3.2 1.2-.2 1.3-.2 1.1-.5 1.6-.2 1-.3.8-1.3 5.4-.3.7-.4 2.9-.2.8.3 1.8.8.4h1.3l.8-.5.7-.5 1.2-1.4.6-.9.7-.7 3-4.8 1-.8.8.1.7.5.4.4v1.2l-1.5 2.9-.5.8-.7.8-.5.9-.6.7-.4.7-2.7 3-1.6.9-.8.6-.8.5-1.1.3-1.2-.2-1.2.1-1.6-.5-.6-.6-.4-.6-.7-3.4.2-.8.1-1.7.1-.8-.2-.8-.9.1-.8 1-.4.8-.4 1-1.6 2.4-2.7 3.2-.8.7-.7.3-2.1.8-1.4.1-1.1-.1zm-1-5.3h-.4v.4h.3l.1-.4zm.3-2.4h-.2v.2l.1.1.1-.3zm.8 3.4h-.5l-.1.6h.5l.1-.6zm.8 1.7l.2-.4-.4-.2-.2.5.4.1zm.7-6.1l.3-1.8.5-.9.8.4-.1 3.5-.5 1.2-.7.2-.4-.7.1-1.9zm8.6 7.4l-1.8 2-1.8 1.5-3.6.7-.9-.1-.8-.5-.8-.4-.1-.6h.5l.7.3 1.3-.2 2.2-.7.6-.6.9-.5.5-.7.7-.6L234 29l.4-.7.7-.9.4-.7.5-.5.2.6v.8l-.2 1.2-.5 1.3-.5.8zm-7.9-.7h-.4l-.2.5h.5l.1-.5zm2.3-15.6l-.1.6h.8l-.1-.6h-.6zm-1.7 14.6l.1.5.4-.1v-.4h-.5zm2.3-12.4l-.5.1-.2.2.1.5h.5l.1-.3.1-.5.3-.3.4-.1.3-.3v-.5h-.5l-.3.3-.1.4-.2.5zm.1-4.3l-.2.1v.2l.2-.1v-.2zm.6.9l-.1.5h.5l.2-.5h-.6zm.2 4.7h-.6v.6h.6v-.6zm-.8 10.9l-.3.3-.3.2-.3.3-.3.3-.2.4.3.2.5-.4.2-.2.3-.2.3-.3.3-.4-.1-.1-.4-.1zm-.5-1.2h-.4v.4h.5l-.1-.4zm1.7-16.5l-.1.2.3.1.1-.4-.3.1zm.3 5.6l-.1.6h.5l.1-.7-.5.1zm.1 2.4l-.4.1-.1.4h.5v-.5zm.5 5.8l-.2.1-.3.2-.5.4-.7.7.3.5.5-.5.3-.3.2-.2.3-.3.1-.2.2-.3.5-.4.4-.1.3-.3v-.5l-.6.1-.3.3-.2.4-.3.4zm.7-14.9h-.4l.1.2h.3v-.2zm-.3 2.2h-.3v.2h.2l.1-.2zm5 5.6l.9-.6.7-1 .5-1.9.5-.9-.2-1-.6-.9-.7-.3-.9-.1-.7-.2-1.7.3-.9.5-.6.5-.6.7-.6 1.2-.1 1.4.2.6.4.7.5.8.7.3h2.6l.6-.1zm-6.2 10l.3.2.2-.4-.4-.2-.1.4zm2.3-16.6l.1-.2h-.2l-.1.2h.2zm.2 7.8l-.5.4-.3.3-.3.3-.2.2-.4.6.6-.1.3-.3.3-.3.3-.3.4-.6-.2-.2zm-.4 2.3l-.3.3-.2.2-.3.3-.2.3-.1.2v.4l.4-.1.3-.3.5-.6.4-.4-.1-.4-.4.1zm.8-7.4l.4-.5.8-.7.7-.4.8-.1.9-.1.8.4-.2.8-1.8.6-.8.5-.4.9-.3.8-.1.7-1.1-.8-.1-.9.4-1.2zm1-4.2l-.3-.1-.1.4h.3l.1-.3zm0 10.2h-.5l-.1.5.1.2.5-.1v-.6zm-.4 2.4h-.4l-.1.5.5-.1v-.4zm1.2-1.1l-.6.1v.6l.5-.1.1-.6zm1.2-11.9l-.3.3.2.3.5.3.2.2.4.1-.1-.3-.2-.2V10l-.3-.3-.4-.2zm.1 11.3l.3-.3-.3-.5-.2-.2-.3-.5-.5-.2-.1.5.1.3.3.2.1.2.2.2.4.3zm1.8.1h.6l.4.3v.2l.4.5h.2l.4-.5-.4-.5-.4-.1-.2-.3.3-.6.3-.3.5-.4-.2-.5-.6.3-.5.4-.4.3-.3.3-.2.3-.2.4-.3.4-.7.3v.4l.6.1.2-.6.5-.4zm.9-11v-.5h-.5l-.1.5h.6zm-1.2 9.5v-.5h-.5v.5h.5zm.6-1.9v.6l.2.2.7-.1.1-.5-.2-.2h-.8zm1.7-6.9h-.6l-.2.6h.6l.2-.6zm-2 11.7v.4h.5v-.4h-.5zm.1 2.5l-.5.1v.4h.4l.1-.5zm1.8-10.1l.3-.1.4-.3-.1-.5h-.5l-.4.4-.1.4-.3.4-.3.2-.1.5.4-.1.2-.4.5-.5zm-.5-1.6v.3l.2-.1-.1-.2h-.1zm1.7-3.9l-.5.1-.1.5.5-.1.1-.5zm-1.9 16.7h-.6v.6l.6-.1v-.5zm1.1-8.9v-.5h-.5l-.1.5h.6zm.2-4.8h.5l.1-.5-.6-.1v.6zm-1.2 11.9v-.4h-.4v.4h.4zm-.5 4.7l.1-.4-.3-.1-.2.4.4.1zm3.2-16.1l-.7-.1-.2.8h.6l.3-.7zm-.7 4.8h-.3l-.2.5h.4l.1-.5zm-1.1 5.1h.3l.1-.3h-.3l-.1.3zm.2 2.3h-.3v.4h.3v-.4zm1.4-14.4v.5l.5-.1v-.5l-.5.1zm-.1 4.6l-.5.1-.1.5.5-.1.1-.5zm-1.8 14.8l.1-.4h-.4l-.1.4h.4zm.9-1.9l-.1.2v.5h.6l.1-.7h-.6zm2.3-16.1l-.1-.4-.3.1v.4l.4-.1zm9.3 13.1l-.1.7-.6 1.2-1.5 2.2-1.1 1.3-1.3 1.1-.7.4-.6.4-.7.5-.8.4-1.2.4-1 .2h-.8l-.6-.1-.5-.3-.5-.4-.1-.5h1.1l1.3-.2 1-.3 1.5-.8 2-1.5 2.1-2.4 2.5-3.7h.2l.2.8.2.6zm-9-15.8h-.2v.2l.2-.1v-.1zm2.9.5l.6.2.1 1.2-.2 1.3-.4.7-.4 1.9-.4.7-.1 1.1-1.1 3.5-.1.9-.5 1.6-.1 1.2-.4.5-.6.2-.4-.4-.2-.4v-.6l.1-.5 1.4-5.8.4-1 .7-3.2.4-.9.4-1.7.3-.6.5.1zm-3.9 17.4h-.3l-.1.4.4-.1v-.3zm-.2 2.3l-.4-.1v.5h.4v-.4zm1.5-1.4h-.6l-.1.5h.6l.1-.5zm1.3-1.2l-.5.1v.4l.5-.1v-.4zm1.3-1.2h-.3l-.2.4h.4l.1-.4zm1.2-1v-.3l-.3-.1-.1.5.4-.1zm1.4-1.4h-.3v.4h.2l.1-.4zM74.5 75l.6.3.5.6-.1 1.1-.9 1.9-.4.6-.3.7-1.5 2.1-.6.7-.4.6-1.1 1.2-.7.6-.9.8-1 .8-.7.4-1.4.9-2.3.8-1.6.3-.7.2-2 .4-4.1-.4-.7-.2-.7-.3-.5-.5-.8-.4-1.5-1.5-.3-.6-.4-.6-.3-.7-.1-.7-.2-.8-.2-.6.1-3.5.4-1.9.1-.8.6-2.2 1.7-3 .4-.6.5-.6.4-.7.5-.6 1.8-1.6 2.9-1.5 1.4-.5.9-.2h3l.7.1.7.2 1.7 1 .4.6.5.4.2.6.1.8.2.7v.8l-.4 2.5-.7.9-1.5.6h-.7l-.6-.1-.6-.4-.1-1 .1-1.1-.1-.8-.3-.6-.6-.4-1.1-.2-1.1.1-.6.1-.7.2-.6.5-.8.5-.5.6-.5.6-1 1.4-.3.8-.2.6-.3.8-.5 1.6-.3 3.1.2 1.5.2.7.7 1.2.6.6 1.1.7.6.3.7.1h1.1l2-.2.6-.2.9-.2 1.5-.7 2-1.2 3.1-2.7.4-.7.6-.7.6-1 .8-1 .7-1.1 1-.7.7-.2zm-23.4.9l-.2.4h.5l.1-.5-.4.1zm-.3 4.6l-.5.1v.5h.5v-.6zm.4-2.5l-.5.1v.5l.4-.1.1-.5zm-.4 4.7h-.5l-.1.6h.5l.1-.6zm.9-3.5l-.2.4.4.5.2.1.3.2.1.2.3.5h.2l.5-.5-.5-.4-.3-.2-.2-.3-.4-.4-.4-.1zm.9-2.2H52l-.1.6h.5l.2-.6zm.1-2.4h-.4l-.1.5.4-.1.1-.4zm-.7 7h-.5l-.1.5h.5l.1-.5zm1-9.5h-.2v.2h.2v-.2zm-1.4 12.5v-.3h-.3v.4l.3-.1zm1.3-1.7h-.5l-.1.5h.5l.1-.5zm.8-9.2l.4-.1.1-.5-.5.1v.5zm-.3 4.4h-.2l-.1.3h.2l.1-.3zm1.1-7.3l-.4-.1-.1.4h.3l.2-.3zm-.7 5.1v-.4h-.4v.4h.4zm-1.4 9.4v.4l.4-.1v-.4l-.4.1zM75 83.8l-1.3 2.3-1.9 2.2-1 .8-.8.5-1.3 1-2.2.9-3.2.7-3 .3h-.9l-.7-.1h-.8l-2.2-.4-2-.7-.8-.5-.2-.6.6.1.6.3 1.4.4 1.4.2h3.6l1.8-.3.8-.3.7-.1 2.3-.7 1.4-.6.8-.5 1-.7 1.1-.6 1.1-1.1.7-.6 1.8-2.5.6-1.1.2-.2h.2l.4 1.5-.2.4zm-21 .8l.1-.5h-.5l-.2.5h.6zm1.7-14.8l.2-.4h-.4l-.1.4h.3zm-.3 2h-.3v.4l.3-.1v-.3zm-2 14.6l-.1.5h.5l.1-.5h-.5zm3.3-15.6l.1-.2h-.3l-.1.2h.3zm-1.6 14.3l-.5.1v.4h.5v-.5zm2.1-17h-.4v.4h.4v-.4zm-2.4 19.5h-.3v.3h.3v-.3zm5.5-14.1l-.5.6-1.4 2-1.4 3.8-.2 1.3-.4.8-.3-.2-.3-.8-.2-1.3.2-1.1.1-.8.5-1.4.4-.8.3-.7.4-.7.5-.7.6-.6.5-.7.7-.5.7-.4.7-.3.9.2v.8l-.5.7-1.3.8zm-2.6-3.9h.4l.1-.4h-.3l-.2.4zM56 86.5h-.3v.3l.4-.1-.1-.2zm2.4-19.3l.2-.4h-.4v.3l.2.1zm-1.3 20.4l-.4.1v.3l.3-.1.1-.3zm2.2-19.3v.2l.2-.1v-.2l-.2.1zm1.3-1.6v.4h.4v-.3l-.4-.1zm-2.3 19.7l-.1.3.3.1.1-.3-.3-.1zm0 2.3H58v.2h.2l.1-.2zm1.5-1.2l-.3-.2-.3.3.3.2.3-.3zm3.6-21.2h-.5l-.1.4.4.2.2-.6zm.3 2.4l.3-.2.5-.5v-.6l-.6.4-.4.6-.2.4.4-.1zm-1.6 18.7h-.5l-.1.5h.5l.1-.5zm3-18.5v.4l.4-.1v-.4l-.4.1zM63.4 86h-.2l-.1.2h.2l.1-.2zm3.3-18.3h-.4l-.1.4h.4l.1-.4zm-.1 2.3h-.4v.4h.3l.1-.4zm-2.2 17.3l-.2.1v.2l.2-.1v-.2zm5.4-16.1l-.1-.8.1-.7-.2-.7.1-.5.3.2.7 1.2.3.8.1 2.2-.2.8-.6 1.3-.8 1-.8.4-.7.2-.9.1-.6-.2v-.7l.6-.4.9-.4.7-.6.4-.7.7-2.5zm-2-2.4l-.1-.1-.1.2.1.1.1-.2zm-2.2 17v.4l.4-.1v-.4l-.4.1zm1.6-.8l.1-.3-.3-.1-.1.3.3.1zm2.6-2.9h-.3v.4h.3v-.4zm31.4 4.8l-2.3.1-.7-.1-.8-.4-.6-.5-1.1-3.1.2-4.4-.3-.9-.6-.4-1 .2-.9-.1-2.6.3h-1.9l-.9.5-.5 1-.4 1.8v.9l-.6 2.7v.7l-.4 1.3-.6 1.2-.7.3-.9.2h-.9l-.8-.2-.4-1v-2.1l.2-.9.4-3 .2-.9v-.8l1.3-6.4V72l.2-.8v-.9l.3-1 .3-1.8.6-2.2.8-1 .9-.3.9-.1h.9l.8.3.3.9-.5 3-.1.8-.2 1-.2 1.4-.3 1.1.4.9.8.2h.9l1-.2 1.7.1.9-.2h1.8l1-.5.7-.9.1-.9.3-.9.5-2.6.9-2.2.8-1.3.9-.4 1-.2.9.2.6.4.2 1.5L102 73l-.6 1.8-.1 1-.2 1-.2 1.8-.2.7-.2 1.8.2 1.1 1.1.2h1.2l.7-.6.7-.4 2.5-3 .4-.8 1.1-1.8.4-.9 1.9-1.9.8.2.8.4.4.6-.2 1.3-.9 2.1-.6.8-.6.9-.4.8-1.1 1.5-.6.6-.6.9-.5.7-2.1 2-2.4 1.3-1.5-.2zm-17.1-7.2h-.7l-.1.6h.7l.1-.6zm-.5 2.4h-.5l-.1.5h.5l.1-.5zm-.4 2.6h-.3l-.1.4.4-.1v-.3zm.9-9.7v.4l.3-.1v-.2l-.3-.1zm.3 2.8v-.6h-.6v.6h.6zm.2-4.7l.3-.1v-.4h-.3v.5zm.3 1.2h.6l.2-.2v-.5h-.5l-.3.3v.4zm3.3-.7l-.6-.1-.4.7-.3.4-.2.1-.3.2-.4.5-.2.2-.3.2-.7.4.1.5h.3l.5-.4.3-.2.3-.2.4-.2.3.3-.2.6-.2.2-.4.3-.2.5v.2l.5.2.4-.6.3-.3.6-.4.2-.2-.1-.7-.3-.1-.4-.3.1-.8.4-.4.6-.2-.1-.4zm-1.9 6l-.3-.4-.2-.3-.2-.2-.4-.5H85l-.5.5.1.3.5.3.2.2.3.5.4-.1.3-.3zm-2 2l.7-.1v-.6h-.7l-.1.6.1.1zm1.2-10.4v.5h.6l-.1-.5h-.5zm-1 12.4l.1-.5-.3-.1-.3.6h.5zm1.3-14.2l.6.1.1-.5-.5-.1-.2.5zm-.3 15l-.5.2-.2.4-.4.4-.3.1-.2.4h.5l.3-.3.3-.5.5-.2v-.5zm.9-17.5h.2v-.1h-.1l-.1.1zm6.9 11.4l.9.5-.2.7-.9.3-2.1.3-.9.5-.4 1.1-.1 1-.2.9-.1 1.7-.3.8-.4 2.4-.7 1.2-1 .6-.9.2-1.7-.1-.1-.8.7-.3.7-.2.8-.6.5-1.1.4-1.1.1-.8.2-1.1.1-.7v-1.2l.3-1.8.3-1.1 1-.6 4-.7zm-6.6-7.8h.5l.1-.4h-.5l-.1.4zm.4-2.2h.5v-.5l-.4-.1-.1.6zm-1.3 13.8h-.4v.4h.4v-.4zm.8-9.7v.6l.5.1.1-.7h-.6zm.9-6.5h.4v-.3h-.3l-.1.3zm.7 3.2v.2l.1-.2V69l-.1.1zm1 5.8l-.1-.3-.5.1-.1.7h.7v-.5zm.7-3.2l-.3-1 .2-.8.4-.8.5-1.9.1-.9.5-.9h.8l.3 1-.1 1.2-1 3.9-.5.6-.9-.4zm.4 4.2l-.5-.1-.2.5.4.1.3-.5zm1.3-.8l-.1-.5H91v.5h.6zm.8.6h-.2v.2h.2v-.2zm.3-1.8l-.1-.1-.1.2h.2v-.1zm1.1 1.1v-.4l-.5-.1.1.5h.4zm.6-.9h.6l.1-.5h-.6l-.1.5zm.6 1.5l-.5-.1-.1.5.4.1.2-.5zm1.2-.5v-.5h-.5v.5h.5zm.4.9l1.1 1.2h.3l.4-.5-.4-.4-.3-.3v-.2l-.1-.2V75l.4.2h.4l.4-.6-.1-.2-.7-.4-.2-.2-.3-.6h-.3l-.5.4v.2l.4.5.1.3.1.2-.2.4-.2.1-.3.3-.1.2.1.2zm-.2 2.3l.4.2.1-.7-.5-.1v.6zm.7 2.3l.2-.4.3-.2.2-.3.3-.5-.4-.2-.3.4-.2.3-.3.3-.3.5.1.3.4-.2zm.5 1.5l.1-.2v-.4h-.4l-.3.2.1.5.5-.1zm.6-9.6h.6l.1-.7h-.6l-.1.7zm.6-2.7l.2.5.2.3.1.2.2.3.5.3.1-.7-.2-.2-.4-.6-.3-.2-.4.1zm.1 12.8l-.5-.1-.5.4-.2.3-.2.3-.4.2v.4l.4-.1.1-.4.3-.2h.3l.6-.3.1-.5zm1.2-9.6l-.2-.2-.6.1-.2.6.7.1.3-.6zm-.6 4.8h-.6l-.2.2-.1.6h.5l.3-.2.1-.6zm.3-8.9h.6v-.6l-.6.1v.5zm-.3 7.1l.2-.5h-.5l-.3.5h.6zm-1.1 4.7h.6v-.6h-.6v.6zm1.8-14.4h.5v-.4l-.4-.1-.1.5zm-1.8 18.8l-.2-.1-.1.2.1.1.2-.2zm2.5-15.6v.5l.4-.2v-.4l-.4.1zm-.3 2.5h.2l.1-.2h-.2l-.1.2zm-1 9.8l.1-.2h-.2v.1l.1.1zm.9-7.5l-.1.2h.2v-.2h-.1zm-.7 9.8v-.5l-.5.1v.4h.5zm1.6-16.6l.2.1v-.4h-.1l-.1.3zM112 81l-.1.7-.6 1.2-1.6 2.2-1.1 1.3-1.3 1.1-.7.4-.6.4-.7.5-.8.4-2.2.3h-.8l-.6-.1-.5-.3-.5-.4-.1-.5h1.1l1.3-.1 1-.2 1.5-.7 2-1.5 2.1-2.4 2.5-3.7h.2l.2.8.3.6zm-11.1 4.4l-.1-.5h-.6l.1.5h.6zm.6-1.7l.4.2.2-.3-.3-.3-.2-.1-.2-.2-.3-.1h-.3l.1.3.4.4.2.1zm-.1-4.7l1.9-8.8.3-.8.1-1.1.5-1.7.3-.8h.4l.7.3v1.2l-.2 1.4-2.1 8.3v.8l-.2 1-.3.8-.1 1-.3.3-.5-.1-.4-.5-.2-.6.1-.7zm4 3.7l.3-.1.1-.4h-.3l-.1.5zm2.9-5.2v.3l.3-.2v-.2l-.3.1z"/><path d="M114.6 86.3h-.9l-.8-.1-1.5-.7-.9-.7-.5-.5-.5-.6-.2-.6-.3-.6-.4-2.2v-.8l.1-3.1.2-1.5.3-.8.2-.8 1.2-3 .4-.7 1.4-2.1.5-.7 1.1-1.2 1.9-1.6 1.9-.9 2-.8 3.1-.2.8.1 1.8.5 1.2.1.7-.7.8-.7h1.6l.7.1.4.3.3 1v1.1l-.4 1.6-.1.8-.3.7-.4 1.6-.3 2.4-.3.8-.1 1.4-.3.8-.2 2.3-.3.8v1.5l-.1.8.3.8.5.6.9.2 1-.2.7-.3 1.8-1.8.4-.7.7-.7.4-.8.7-.7.9-1.5.3-.8.8-1 1-.8h.7l.6.2.6.4.2.6-.3 1.1-.7 1.6-.6.8-.3.7-1 1.4-.4.7-1 1.3-.4.7-1.7 1.7-.8.5-.6.6-1 .7-.9.5-1.9.6-1.2.1-.8-.1-.7-.3-.5-.4-.5-.6-.3-.7-.5-.6-.2-.6-.1-.9-.2-.5-.7.3-2.2 2.5-1.3 1-.6.3-2.3 1-2.2.3-.4-.3zM110 75.8l.4-.3.5-.5-.4-.4-.5.4-.2.3v.2l-.3.4-.1.1.1-.1.5-.1zm.4-2.9h.3l.1-.4-.4.1v.3zm.1 5v-.6l-.6.1v.6l.6-.1zm-.4 1.9h-.4l-.1.4h.5v-.4zm2.3-8.7l-.1-.2-.5.1v.6h.6v-.5zm-.3 2.4l-.4-.2-.3.3-.1.6h.6l.2-.7zm-.5 2.5l-.5.1.1.4.4-.1V76zm-.7 2.9l.5.1.1-.5h-.5l-.1.4zm-.2 2.1l-.1.4h.4l.1-.4h-.4zm2.9-12.9l.2-.1.3-.3.2-.2.3-.3.1-.2.3-.3.3-.4-.3-.2-.4.3-.6.4-.3.3-.4.6-.1.3-.5.4-.3.2-.2.4.4-.1.3-.3.7-.5zm-.2 4.1h-.6l-.1.6.6.1.1-.7zm-.8 5.1l-.3-.1-.1.4.2.1.2-.4zm.2-2.5h-.2l.1.2h.2l-.1-.2zm-.6 5.3l.1-.4h-.3v.3l.2.1zm0 2.4V82l-.5.1.1.5.4-.1zm1.5-12.2v-.4h-.4l-.1.5.5-.1zm8.7 16.8l-2.1 1.2-.7.2-1.1.2-3.3.1-.7-.2-1.3-.6-1-.8-.2-.3h.5l1.4.4h4l1.1-.4 2-.9 1.3-1 .6-.7.9-.3.4.3v.9l-.5.9-1.3 1zm-5.9-19.9l-.5-.2-.5.6-.2.2-.3.3-.6.4-.1.3.4.4.4-.1.3-.7.6-.4.5-.4v-.4zm2.6 13.8l1.3-.8.5-.6 1.1-1.1.6-.7 1.6-3.2.6-1.8.4-1.6.3-.7.1-.8.2-.7.1-.7-.2-.9-.6-.6-.8-.3-1.4-.2-1.2.1-1.1.2-.8.3-1.5.9-.6.6-1.1 1.2-1.9 2.9-.6 1.5-.2.8-.3.7-.2 2.4.1.7v.8l.3.6.9 1.1.7.4.6.1 2.3-.5.8-.1zm-6.4 2.3l.1.5.5-.1v-.4h-.6zm1.1 1.1l-.1.5h.5l.2-.5h-.6zm9.1-15.5l-.8.1-.7.2-.7.4-1.3.9-.5.6-.5.7-.6.7-1.1 2.1-.2.8-.1.7-.3.8-.1.7.2 1.5v1.2l-.5-.1-.7-1.1-.1-.8-.1-.8.1-1.5.6-2.2.4-.8.4-.7.3-.7.9-1.3.5-.6.7-.6.7-.5.5-.5.7-.3.7-.3 2.2-.2.5.3-.1.8-.5.4-.5.1zm-6.6-4v.3h.4l-.1-.3h-.3zm1.5.9h-.6l-.1.5h.6l.1-.5zm-1.9 17.3l-.5-.1-.2.5.6.1.1-.5zm3.2-18.6h-.4l-.1.4.5.1v-.5zm-2.2 19.6l-.5.1v.5h.5v-.6zm3.5-20.4l.1-.3h-.4l-.1.3h.4zm-2.7 19.7l.4-.1v-.4l-.4.1v.4zm3.8-18.6v-.2l-.2-.1-.2.3h.4zm1.4-1.6h-.4v.3l.3.1.1-.4zm1.1 1.2h-.3l-.1.2.3.1.1-.3zm.8 14.5l-.4-.3-.3-.1-.3-.6-.2-.2h-.2l-.3.3-.4.6-.3.3-.2.5.1.2.4-.5.3-.1h.4l.2.2.6.4.4-.1.2-.6zm-2 1.2l-.1.5.5.1.1-.6h-.5zm2.2-14.6l-.2.1v.2l.2-.1v-.2zm-.4 10.9l-.3.2.2.5.2.2.4.5.3.2.4.3.5-.4-.2-.6-.4-.4-.3-.2-.2-.2-.6-.1zm1.4-12.1l-.1.5.5-.1.1-.6-.5.2zm-.6 10.1v-.3l-.3-.1v.4h.3zm.8-1.7l-.2.6.7-.2v-.7l-.5.3zm.2 2.3h-.6l-.1.5.6.1.1-.6zm.7-7.1l-.4.1v.4l.3-.1.1-.4zm.7-4.9h-.4l-.1.4.4-.1.1-.3zm-.2 2.2h-.5l-.1.6.5-.1.1-.5zm-1 5.1l-.1.3h.2l.1-.2-.2-.1zm-1.1 9.9l-.1.4h.3v-.3l-.2-.1zm3.3-16.3l-.4.1v.5l.4-.1v-.5zm-.9 8.1l.1-.5h-.5l-.1.5h.5zm-1.3 6.9v.5l.6-.1-.1-.5-.5.1zm.2 2.2l-.5.2-.1.5.5-.1.1-.6zm1.4-14.6l-.1.4h.4v-.4h-.3zm-.9 7.5v.4h.4V74h-.4zm1.3 1.2h-.3l-.1.3h.3l.1-.3zm-.5 4.8h-.4l-.1.5h.5V80zm1.7-17v.2l.3-.1v-.2l-.3.1zm0 2.4l-.2-.1-.1.2h.2l.1-.1zm-.7 4.8l-.2.1v.2l.3-.1-.1-.2zm-1.6 12.2l-.1.6h.6l.1-.6h-.6zm1.5 1h-.4l-.2.4h.5l.1-.4zm.2-2.1h-.4v.4h.4v-.4zm11.2-1.9l-.1.7-.6 1.2-1.5 2.2-1.1 1.3-1.3 1.1-.7.4-.6.4-.7.5-.8.4-2.2.3h-.8l-.6-.1-.5-.3-.5-.4-.1-.5h1.1l1.3-.1 1-.2 1.5-.7 2-1.5 2.1-2.4 2.5-3.7h.2l.2.8.2.6zm-9.9-.3l-.2-.5-.1-.7v-1.4l.1-1.6.6-2.3v-1.4l.3-.8.4-2.2.2-.8v-.8l.3-.7.2-.9.5-.6.6-.2.4.8-.1 1.1-.6 2.4-.1.7-.6 2.3-.1 1.6-.3.8-.4 2.2V79l-.4.3-.7-.2zm-.5 3.3l-.1.2.3.2.2-.3-.4-.1zm.9 1.2l-.1.2.2.1.1-.3h-.2zm1.8-1.2l-.1-.1-.1.1v.2l.2-.2z"/><path d="M177.3 69.1l.7.3.4.7-.1 1.2-.4 1.3-.5.9-.5.7-1 1.8-.6.7-1 1.5-.7.9-.7.6-.6.8-2.2 1.8-.9.3-.8.5-2.2.5-1.2-.2-.6-.3-.7-.5-.6-.6-.4-.6-.7-2.1-.1-1.1v-.7l-.1-.9.1-1.8-.2-.3-.3.3-1 1.7-.6.9-.5.9-.8.6-.6.7-1.6 1.1-1.4.1-1.3-.2-1.3-.6-.4-.7-.3-.7-.4-1.7-.3-.7-.1-.8-.2-.5-.9 2.2-.4.7-.3.9-2.1 3.3-1.2 1.4-1.2 1-1.2.6-1.3.2h-1.3l-.7-.1-.7-.4-.6-.4-1-1.1-.3-1-.4-2.3V76l.9-3.4.8-1.2.8-.3.9.2.6.7.1 1.3-.3 1.2-.1.8-.2.8.1.9-.1.9.1 1.7.5.6 1 .2 1.1-.4.5-.4.5-.4.6-.9.8-1.5.6-.8.3-.9.5-.9.3-1 .8-1.6 1.1-2.8.5-2 .7-1.8.7-2.6.6-1.3.7-1.1.9-.3.8-.1.8.1.6.6.2 1.1-.1 1.4-.3.9v.9l-.5 2v.7l-.3 1.8.1 1-.1 1.1-.1 2.5.4 1.6.8.7 1-.2.7-.6.5-.6.5-.7.5-1 .9-1.5.5-.9.6-1.9.4-1.1.4-.7.3-1 .4-.9 1-3.1.8-1.2.8-.5.9-.2.9.4.5.3.3 1.2-.5 3.2-.2 1-.1 1 .1.9-.1.9-.3.9-.2 1v.8l-.1 1v.8l-.2.8v.8l.1 1.1v.8l.1.8.3.8 1.2.3 1 .1.8-.6.8-.5.8-.6.5-.7 1.7-2.3.5-.9.6-.7 1.3-2.3.9-.8.8-.3zm-38.6 10.3l.5-.5.3-.4-.1-.2-.3.3-.4.4-.3.4h.3zm.4.9v.4l.4-.1v-.4l-.4.1zm10.7 2.3l-.5 1-.6.7-.7.7-.6.7-.8.6-.9.6-.8.3-1.5.4-1.3.1-.7-.1-.8-.3-.8-.5-.1-.5.6.1h2l.8-.1 1.7-.6 1.5-1 1.3-1.4.6-.9.5-.9 1-1.6.6-.3.5.7-.4 1.3-.6 1zm-7.3-8.8l.6.1.2 1.4-.2 2-.2 1-.6.8h-.4l-.5-1.6.1-1 .2-1.4.3-.9v-.5l.5.1zm-1 9.1l-.2-.1-.1.2h.2l.1-.1zm1.1-1.4v.2h.2v-.2h-.2zm6-7.2v-.4h-.4l-.1.5.5-.1zm1.4-4h-.2v.1h.2v-.1zm-.1 2.6v-.2h-.3v.4l.3-.2zm.8-4.8l.1-.4h-.4l-.1.3.4.1zm.9.6h-.5l-.1.5h.5l.1-.5zm-.3 2.5l-.5.1v.3h.5v-.4zm-.3 2.5h-.4l-.1.4h.5v-.4zm1-7.1h-.4l-.2.5h.5l.1-.5zm.6 3.2h-.5l-.1.7.5-.1.1-.6zm-.1-2.2l-.1.5h.4l.1-.5h-.4zm.9-4.5h-.3l-.1.2h.3l.1-.2zm-.2 2h-.4v.4h.3l.1-.4zm-.8 7.3h-.4v.4l.4-.1v-.3zm.5 3.7h-.2v.3h.2v-.3zm1.1 1.2h-.3v.3h.3v-.3zm1.2-4.7l.2-1.7v-.8l.2-1.8.7-3.4.1-.9.4-1v-.3l.3-.2.7.4V64l-.3 2.4-.2.8-.2 1.8-.2 1v2.8l-.4 1.1-.7.2-.5-.6-.1-.9zm3.4 10l-.8.3-1.3.2-1.3-.2-.7-.3-.3-.6 1-.2 1.5-.1.9-.4.8-.6.6-.6.7-.6.6-.4.4.3-.3 1.3-.5.9-1.3 1zm-3.4-4.4h-.3l-.1.4h.4v-.4zm1.2-1l-.2-.1-.1.2h.2l.1-.1zm1.5-1.3v-.2l-.2.1v.2l.2-.1zm2.9-5.1l-.2.1v.2l.3-.1-.1-.2zm-.1 2.4h-.4v.4h.4v-.4zm1.7-3.9h-.6l-.2.4-.1.5.5.1.2-.2.2-.8zm-.9 2.7l-.1.5.5-.1.1-.5-.5.1zm1.1-4.9h-.4l-.1.5h.4l.1-.5zm.2 4.2l.5-.1.1-.5h-.5l-.1.6zm1.1-8l-.2.7.6.1.1-.7-.5-.1zm0 2.6h-.5l-.1.5h.5l.1-.5zm-.8 7.1h-.4l-.1.5h.4l.1-.5zm.6-4.9h-.4l-.1.5h.4l.1-.5zm1.4-3.7h-.5v.5l.5-.1v-.4zm-1.4 7.4v.5l.5-.1.1-.5-.6.1zm.7-4.9l-.1.6.5.1.1-.6-.5-.1zm.2 2.5l-.3-.2-.2.5h.5v-.3zm.4 6.1l-.6.3-.3.2-.7.6-.2.2.3.5.4-.3.5-.6.5-.4.1-.5zm-1-1.3h-.3v.4l.3.1v-.5zm-.4 5.1l-.1-.4h-.4v.4h.5zm1.8-16.9h-.2v.2l.2-.1v-.1zm1 .9h-.4v.4l.3.1.1-.5zM164.7 80h-.5l-.2.1-.1.7h.6l.4-.6 1-.9-.4-.3-.4.6-.4.4zm-.3-2.3l-.2.5.4.2.2-.5-.4-.2zm1.4-9.6h-.3v.2h.3v-.2zm-.5 5l-.3-.1v.4l.3.2v-.5zm.6-7.2l.1.2.1-.1v-.1h-.2zm-.9 15.4v.4l.4.2.2-.4-.6-.2zm2.9-4.1l-.5-.4-.4-2.2.2-3.8.7-4 .1-.9.2-1v-1.1l.6-.6.5.3.1 1.3-.8 7.5v1.9l-.1.9.1 1.6-.1.6-.6-.1zm-1 2.7h-.5l-.1.4.5.1.1-.5zm11.1-2.7l-.1.7-.6 1.2-1.6 2.2-1.1 1.3-1.3 1.1-.7.4-.6.4-.7.5-.8.4-1.2.4-1 .2h-.8l-.6-.1-.5-.3-.5-.4-.1-.5h1.1l1.3-.2 1-.3 1.5-.8 2-1.5 2.1-2.4 2.5-3.7h.2l.2.8.3.6zm-10.4 4l-.1.5h.5v-.5h-.4zm1.9-1.4l-.7.1-.1.7.5.1.3-.3v-.6zm1.1-.9l.3-.2.7-.6.2-.2.1-.5-.5.3-.3.3-.3.2-.3.3-.3.4v.2l.4-.2zm2.8-2.5l-.1-.2h-.4l-.1.5.2.1h.5l-.1-.4zm1.1-1.5h-.3v.4h.3v-.4zm1.2-1.3h-.2v.2h.1l.1-.2z"/><path d="M177.8 82.6l-.7-.3-1.5-1-.4-.7-.4-.7-.6-2.6v-.9l.6-2.8.1-.9.4-1.9.4-.9.1-1 .3-1 .5-.9.4-1 .4-2.3.1-1.2-1.3-.2-1.1-.3-.4-.8.6-1.3.9-1 1-.5.9-.2.9-.1 1 .1.8.4.7.4.6.5.3.8v1.5l-.9 4.4-.9 2.9-.3.9-.1 1-.4 1-.2 1v.9l-.2 1.5.1 1.3.2.8.3.5 1.2.1 1.4-.1.9-.4 1.7-1.1 1.4-1.3.6-.9.5-.9.6-.9 1.6-3.8.3-1.4.2-1.4 1-3.8.1-1 .9-2.2.9-1 .9-.1.9.1.8.4.5 1.1-.1 1.4-.2 1-.3 1v.8l-.2 1-.3 1L194 71v1l-.3.9-.1.9v.9l.1.9.2.8.9.5 1.2-.2.9-.5.7-.6 1.5-1.6.5-.9.7-.8.6-.9.5-.9 1.4-2.1 1-.9h.9l.7.3.5.6-.3 1.3L204 73l-.6.9-.7.9-.5.9-1.3 1.7-2.2 2.1-2.6 1.8-.9.3-1 .2h-1.5l-1.1-.2-.8-.5-.6-.7-.6-1.7-.1-.9-.5-.6-.6.3-1.2 1.6-2.5 2-.8.5-.9.4-.9.3-3.7.5-.6-.2zm-1.6-7.6l.2-.5h-.5l-.2.4.5.1zm.5-3h-.4l-.1.4.5.1V72zm-.2-2.1l.1.3h.3v-.5l-.4.2zm-.3 6.9l-.5.1-.1.5.5-.1.1-.5zm2-16.7h-.4v.4l.4.1v-.5zm.9 1.6l.3-.3.3-.3.2-.2.3-.3.2-.4-.4-.2-.3.3-.3.2-.6.4-.3.5v.3h.6zm-1 8.8l-.6.2v.6h.5l.3-.6.5-.4.3-.3v-.4l-.4.1-.1.2-.5.6zm-1.3 5.8h.6l.1-.7h-.5l-.2.7zm2.1-12.7h-.5l.1.5.5-.1-.1-.4zm-.7 2.3l-.1.4h.4V66l-.3-.1zm-.4 2.5v.6l.5-.1-.1-.5h-.4zm-1.1 9.7v.6l.6-.2-.1-.5-.5.1zm.9-4.5l.1-.3h-.3v.3h.2zm9.5 9.6l-1.8 1.1-1.8.7-1.5.1h-2.3l-.7-.2-1.5-.9-.3-.3h.5l.9.1 1.7.1 2-.2 1.8-.6 1.8-1 .8-.5.7-.6 1-.2.3.7-.7 1.1-.9.6zm-8.9-8.9v.4h.4l-.1-.4h-.3zm1.1 5.9l-.2-.2-.1-.2-.3-.2-.2-.3-.3-.1h-.5l.2.5.4.4.4.5.5.2.1-.6zm.6-15.5h-.4l-.1.4h.4l.1-.4zm.2-2.5h-.3v.4h.3v-.4zm-.5 5h-.4l-.1.4h.3l.2-.4zm-1.5 9.7v.3l.2-.1v-.3l-.2.1zm1.1 1.4l.1-.2h-.3v.2h.2zm1.9-14.8l-.2-.1-.1.2h.2l.1-.1zm.4 6.8l.6-2 .2-.9.8-3 .3-1.8.3-1h.6l.2.7.1.8-.2 2.7-.5 1.4-.6 2.4-.3.9-.2 1-.8 2.7v.9l-.6.9-.8.5-.3-.5 1.2-5.7zm-1.4 8.8v.4h.4l.1-.5-.5.1zm.2 2.3h-.3v.4h.3v-.4zm1-1.3l-.1.5h.4l.1-.5h-.4zm1.2-1l-.1.3h.3l.1-.3h-.3zm2.5-.4l-.1.3h.2l.1-.2-.2-.1zm1.5-.9l.1-.2h-.2l-.1.1.2.1zm1.8-3.8l-.2-.2-.2.4.2.1.2-.3zm-.2 2l-.5.1-.1.5.5-.1.1-.5zm.8-1.1l.1.5.5-.1v-.5l-.6.1zm.9-2.4h-.5l-.1.6h.5l.1-.6zm1.1-1.3l-.5-.1-.2.4.5.1.2-.4zm.4-2.5h-.5l-.2.5.5-.1.2-.4zm-.6 7.7l-.3-.6-.5.1-.1.5.6.3.4.3.2.6.6-.2.1-.6-.6-.1-.4-.3zm-.4-2.7l-.1.5h.5l.1-.5h-.5zm.9-7.3v.2h.3v-.3l-.3.1zm1.3-3l.7-.3-.1-.5-.6.3-.1.2-.5.6-.2.2v.4l.2-.2.2-.3.4-.4zm-.6 4.1l.1.4.2.2.5-.1.1-.5-.3-.1h-.5l-.1.1zm0 5.5l.1-.6h-.6v.6h.5zm0 1.4l-.3.1-.5.4.1.5h.5l.4-.6.7-.7.1-.5-.5.1-.2.4-.3.3zm1.5-14h-.3l-.1.2.3.1.1-.3zm-.6 4.8l-.4.1.1.3.4-.1-.1-.3zm-.8 4.9v.2h.2l.1-.2h-.3zm1.5-1.4h-.6l-.2.3-.1.5h.5l.3-.2.1-.6zm.5-2.4l-.2-.2h-.5l-.2.4.1.2h.5l.3-.4zm-1.3 9.7l-.4-.2-.3.5h.5l.2-.3zm1.8-14.6l-.6.1v.5l.5-.1.1-.5zm-1.9 16.8h-.5l-.1.5h.5l.1-.5zm1.5-14.4l-.2.1v.2h.3l-.1-.3zm-.9 7.3h-.2v.2h.1l.1-.2zm.4 8.8v-.6h-.5l-.1.6h.6zm-.2-2.7l-.1.3.2.1.2-.4h-.3zm11.9-1.4l-.1.7-.6 1.2-1.5 2.2-1.1 1.3-1.3 1.1-.7.4-.6.4-.7.5-.8.4-1.2.4-1 .2h-.8l-.6-.1-.5-.3-.5-.4-.1-.5h1.1l1.3-.2 1-.3 1.5-.8 2-1.5 2.1-2.4 2.5-3.7h.2l.2.8.2.6zm-6.9-15.3l.2.4V62l-.2 2.4-.8 2.9-.1 1-.3 1-.6 2.9-.2 3-.4.5-.6-.1-.4-.4-.2-.6v-.8l.1-.9.8-3.1v-1.1l.4-2.1.6-2.2.2-1 .6-2.2.3-.7h.6zm-3.7 17.7h-.3v.4l.4-.1-.1-.3zm-.5 2.4v.2h.2l-.1-.2h-.1zm1.3-1.4l-.1.4h.4l.1-.4h-.4zm1.7-.9v-.4h-.5l.1.4h.4zm1.4-1.4h-.3v.3h.2l.1-.3zm1.3-1.3h-.3v.3h.2l.1-.3zm1-1.3l-.1.2h.2l.1-.2h-.2zm1.4-1.1l.1-.3h-.3l-.1.3h.3z"/></g></svg>