<svg xmlns="http://www.w3.org/2000/svg" viewBox="0 0 9 9"><path fill="#C4B090" d="M4.5 0C2 0 0 2 0 4.5S2 9 4.5 9 9 7 9 4.5 7 0 4.5 0zm4.2 4.2c-.1.2-.3.5-.5.6-.1.3-.2.9-.2 1.1-.1.3-.5.6-.5.6-.1 0 0-.3 0-.5.1-.2-.2-.4-.2-.6 0-.2-.3-.8-.4-.8-.1 0-.6-.1-.8 0-.1 0-.5 0-.7-.1-.2-.2-.2-.9-.2-1.1 0-.2.3-.3.3-.4.1-.1.1-.3.3-.2l.2-.2c.3-.1.5.2.9.2s.3 0 .7-.1c.4-.1.1-.4 0-.4-.1-.1-.2.1-.4.1-.2.1-.2 0-.5-.1-.3 0-.2-.2-.3-.3-.1-.1 0 .1-.3.2s-.3.2-.6.1 0-.2.1-.4c.1-.1.4-.5.5-.8.1-.2-.1-.2-.4-.1-.2 0-.2-.1-.5-.2C4.9.8 5 .5 5 .3c2 .3 3.5 1.9 3.7 3.9zm-5-2.9l.1.2h-.4c-.5.6-1.2 1.4-1.2 1.7-.1.3-.2.3-.2.3s-.3-.6-.6-.4c-.3.1-.3.7-.1.7.2 0 .3-.2.4-.1.1.1 0 .1.1.4.1.3 0 .5 0 .5s-.6-.1-.8-.3c-.2-.2-.2-.5-.3-.6-.1-.1-.1-.4-.2-.6C1 1.8 2.1.7 3.5.4c.1.2.3.7.2.9zm-.6 7.2S3 8.4 3 8.3c-.1-.3-.3-.7-.3-1 0-.3.2-.7-.3-1-.4-.2-.6-.6-.6-.8 0-.2.1-.8.1-.8s.3-.1.5-.2.6 0 .9.2c.3.3.6.5.9.6.4.1.6 0 .6.2.1.2-.1.2-.2.4 0 .1-.5 1.5-.8 1.8-.4.2-.5.2-.5.5v.4c0-.1-.1-.1-.2-.1z"/></svg>