<svg xmlns="http://www.w3.org/2000/svg" viewBox="0 0 9 8.9"><g fill="#C4B090"><path d="M2.3 4.3h2V2.8c-.7 0-1.3-.1-1.8-.2-.1.4-.2 1-.2 1.7zm.2 2.1c.5-.1 1.1-.2 1.8-.2V4.6h-2c0 .6.1 1.2.2 1.8zm1.8 2.4V6.4c-.7 0-1.2.1-1.7.2.4 1.2 1 2.1 1.7 2.2zm0-8.7C3.6.2 3 1 2.6 2.2c.5.1 1.1.2 1.7.2V.1zm.3 0v2.4c.7 0 1.2-.1 1.7-.2C6 1 5.4.2 4.6.1zM7 4.6c0 .7-.1 1.3-.2 1.9.6.2 1 .5 1.3.6.5-.7.9-1.6.9-2.5H7zm0-.3h2c0-.9-.3-1.8-.8-2.5-.3.2-.8.4-1.5.6.2.6.3 1.2.3 1.9z"/><path d="M6.7 2.1c.6-.2 1-.4 1.3-.5C7.3.8 6.3.2 5.2 0c.7.4 1.2 1.1 1.5 2.1zm-4.4 0c.3-1 .8-1.8 1.4-2.1-1 .2-2 .8-2.7 1.6.3.1.7.3 1.3.5zM2 4.3c0-.7.1-1.3.3-1.9-.7-.2-1.2-.4-1.5-.6-.5.7-.8 1.6-.8 2.5h2zm.3 2.4c-.6.2-1 .5-1.3.6.7.8 1.6 1.4 2.7 1.6-.6-.4-1.1-1.1-1.4-2.2zm4.3.1c-.3 1-.8 1.7-1.4 2.1 1-.2 2-.7 2.6-1.5-.2-.2-.6-.4-1.2-.6zm-.2-4.3c-.5.1-1.1.2-1.8.3v1.5h2c.1-.7 0-1.3-.2-1.8zm.3 2.1h-2v1.5c.7 0 1.3.1 1.8.3.1-.5.2-1.2.2-1.8z"/><path d="M6.4 6.7c-.5-.1-1.1-.3-1.8-.3v2.3c.8 0 1.4-.8 1.8-2zM2 4.6H0C0 5.5.3 6.3.8 7c.2-.1.7-.4 1.4-.6-.1-.5-.2-1.1-.2-1.8z"/></g></svg>