<svg xmlns="http://www.w3.org/2000/svg" viewBox="0 0 156.3 156.1"><path fill="#825F41" d="M72.7 156.1h-.3c-3.9-.3-7.8-.9-11.6-1.7l-.3-.1 1.2-5.5c-3.3-.8-6.6-1.8-9.8-3l-2.1 5.3-.3-.1c-3.6-1.4-7.2-3.1-10.5-5.1l-.3-.1 2.8-4.9c-2.9-1.7-5.8-3.6-8.5-5.8l-3.5 4.4-.2-.2c-3-2.4-5.9-5.1-8.6-7.9l-.2-.2 4.2-3.9c-2.3-2.5-4.5-5.2-6.4-8l-4.7 3.2-.2-.2c-2.2-3.2-4.2-6.6-5.9-10.1l-.1-.3 5.1-2.5c-1.5-3.1-2.7-6.3-3.8-9.5l-5.4 1.7-.1-.3C2 97.6 1.2 93.8.6 89.9v-.3l5.6-.9c-.2-3.2-.5-6.7-.5-10.1H0v-.5c0-3.9.3-7.8.9-11.6v-.3l5.6.8c.5-3.4 1.3-6.7 2.3-10l-5.4-1.7.1-.3c1.1-3.7 2.6-7.4 4.3-10.9l.1-.1 5.1 2.5c1.5-3 3.2-6 5.1-8.9l-4.7-3.2.2-.2c2.2-3.2 4.6-6.3 7.3-9.1l.2-.2 4.2 3.9c2.3-2.5 4.8-4.8 7.5-7l-3.5-4.4.2-.2c3-2.4 6.3-4.6 9.6-6.6l.3-.1 2.8 4.9c3-1.7 6.1-3.2 9.2-4.4l-2.1-5.3.3-.1C53.2 4 56.9 2.8 60.7 2l.3-.1 1.3 5.5c3.3-.7 6.7-1.3 10.1-1.5L72 .2h.3c2.2-.1 4.1-.2 5.9-.2 1.9 0 3.9.1 5.8.2h.3l-.4 5.7c3.4.3 6.8.8 10.1 1.5l1.3-5.5.3.1c3.8.9 7.6 2 11.2 3.4l.3.1-2.1 5.3c3.2 1.3 6.3 2.7 9.2 4.4l2.8-4.9.3.1c3.4 1.9 6.6 4.2 9.6 6.6l.2.2-3.5 4.4c2.6 2.1 5.2 4.5 7.5 7l4.2-3.9.2.2c2.6 2.8 5.1 5.9 7.3 9.1l.2.2-4.7 3.2c1.9 2.8 3.6 5.8 5.1 8.8l5.1-2.5.1.3c1.7 3.5 3.1 7.2 4.3 10.9l.1.3-5.4 1.7c1 3.3 1.8 6.6 2.3 10l5.6-.8v.3c.6 3.8.9 7.7.9 11.6v.3h-5.7c0 3.4-.3 6.8-.7 10.2l5.6.8v.3c-.6 3.8-1.4 7.7-2.6 11.4l-.1.3-5.4-1.7c-1 3.3-2.3 6.5-3.7 9.5l5.1 2.5-.1.3c-1.7 3.5-3.6 6.9-5.8 10.1l-.2.2-4.7-3.2c-1.9 2.8-4.1 5.5-6.4 8l4.2 3.9-.2.2c-2.6 2.8-5.5 5.5-8.5 8l-.2.2-3.6-4.4c-2.7 2.1-5.5 4.1-8.4 5.8l2.9 4.9-.3.2c-3.4 2-6.9 3.7-10.5 5.1l-.3.1-2.1-5.3c-3.2 1.2-6.5 2.3-9.8 3l1.3 5.5-.3.1c-3.8.9-7.7 1.5-11.5 1.7h-.3l-.4-5.7c-3.4.2-6.8.2-10.2 0l-.8 5.8zm-11.4-2.2c3.6.8 7.2 1.3 10.9 1.6l.4-5.7h.3c3.6.3 7.2.3 10.7 0h.3l.4 5.7c3.6-.3 7.3-.8 10.9-1.6l-1.3-5.5.3-.1c3.5-.8 6.9-1.9 10.3-3.2l.3-.1 2.1 5.3c3.4-1.4 6.7-3 9.9-4.8l-2.9-4.9.3-.2c3.1-1.8 6.1-3.8 8.9-6.1l.2-.2 3.6 4.4c2.8-2.3 5.5-4.8 8-7.5l-4.2-3.9.2-.2c2.4-2.6 4.7-5.5 6.7-8.4l.2-.2 4.7 3.2c2-3 3.9-6.2 5.5-9.5l-5.1-2.5.1-.3c1.5-3.2 2.9-6.6 3.9-10l.1-.2 5.4 1.7c1.1-3.5 1.9-7.1 2.4-10.7l-5.6-.8v-.3c.5-3.5.8-7.1.8-10.6V78l.3-.1h5.4c0-3.7-.3-7.3-.8-11l-5.6.8v-.3c-.5-3.5-1.3-7.1-2.4-10.5l-.1-.3 5.4-1.7c-1.1-3.5-2.4-6.9-4-10.2l-5.1 2.5-.1-.3c-1.5-3.2-3.4-6.3-5.4-9.3l-.2-.2 4.7-3.2c-2.1-3-4.4-5.9-6.9-8.6l-4.2 3.9-.2-.2c-2.4-2.6-5.1-5.1-7.9-7.3l-.2-.2 3.5-4.4c-2.9-2.3-5.9-4.4-9.1-6.2l-2.8 4.9-.3-.1c-3.1-1.8-6.4-3.4-9.7-4.7l-.3-.1 2.1-5.3c-3.4-1.3-7-2.4-10.5-3.2l-1.3 5.5-.3-.1c-3.4-.8-7-1.4-10.5-1.6h-.3l.4-5.7C81.8.7 80 .6 78.2.6h-.6c-1.5 0-3.1.1-5 .2l.4 5.7h-.3c-3.6.3-7.1.8-10.6 1.6l-.3.1-1.3-5.5c-3.5.7-7 1.8-10.4 3.1l2.1 5.3-.3.1c-3.3 1.3-6.6 2.9-9.7 4.7l-.3.1-2.8-4.9c-3.2 1.8-6.2 3.9-9.1 6.2l3.5 4.4-.2.3c-2.8 2.2-5.4 4.7-7.9 7.3l-.2.2-4.2-3.9c-2.5 2.7-4.8 5.6-6.9 8.6l4.7 3.2-.2.2c-2 3-3.8 6.1-5.4 9.3l-.1.3L8 44.7C6.4 48 5.1 51.4 4 54.9l5.4 1.7.1.4c-1 3.4-1.9 6.9-2.4 10.5v.3L1.5 67C.9 70.6.6 74.3.6 78h5.7v.3c0 3.6.3 7.2.8 10.7v.3l-5.6.9c.6 3.6 1.4 7.2 2.5 10.7l5.4-1.7.1.3c1.1 3.4 2.4 6.8 3.9 10l.1.3-5.1 2.5c1.6 3.3 3.5 6.5 5.5 9.5l4.7-3.2.2.2c2 2.9 4.3 5.8 6.7 8.4l.2.2-4.2 3.9c2.5 2.7 5.2 5.2 8.1 7.5l3.5-4.4.2.2c2.8 2.2 5.8 4.3 8.9 6l.3.1-2.8 4.9c3.2 1.8 6.5 3.4 9.9 4.8l2.1-5.3.3.1c3.3 1.3 6.8 2.4 10.3 3.1l.3.1-1.3 5.5zm16.9-20c-30.7 0-55.7-25-55.7-55.7 0-30.7 25-55.7 55.7-55.7 30.7 0 55.7 25 55.7 55.7 0 30.7-25 55.7-55.7 55.7zm0-110.9C47.8 23 23 47.8 23 78.2c0 30.4 24.7 55.1 55.1 55.1 30.4 0 55.1-24.7 55.1-55.1.1-30.4-24.7-55.2-55-55.2z"/><path fill="#C4B090" d="M150.3 78.2c0-.1 0-.1 0 0l5.7-.1c0-3.9-.3-7.8-.9-11.6l-5.6.8c-.5-3.6-1.3-7.1-2.4-10.5l5.4-1.7c-1.1-3.7-2.6-7.3-4.3-10.8l-5.1 2.5a70.6 70.6 0 0 0-5.4-9.3l4.7-3.2c-2.2-3.2-4.6-6.2-7.3-9.1L131 29c-2.4-2.6-5.1-5.1-7.9-7.3l3.5-4.4c-3-2.4-6.3-4.6-9.6-6.6l-2.8 4.9c-3.1-1.8-6.3-3.4-9.7-4.7l2.1-5.3C103 4.2 99.2 3 95.5 2.2l-1.3 5.5c-3.5-.8-7-1.3-10.7-1.6l.4-5.7C82 .3 80.1.2 78.1.2s-3.9.1-5.9.2l.4 5.7c-3.5.4-7.1.9-10.5 1.7l-1.3-5.5c-3.8.9-7.5 2-11.1 3.4l2.1 5.3c-3.4 1.3-6.6 2.9-9.7 4.7l-2.8-4.9c-3.3 1.9-6.6 4.1-9.6 6.6l3.5 4.4c-2.8 2.2-5.5 4.7-7.9 7.3l-4.2-3.9c-2.6 2.8-5.1 5.9-7.3 9.1l4.7 3.2c-2 3-3.8 6.1-5.4 9.3L8 44.4c-1.7 3.5-3.1 7.1-4.3 10.8l5.4 1.7c-1 3.4-1.9 6.9-2.4 10.5l-5.6-.8C.5 70.4.2 74.3.2 78.2v.2H6c0 3.7.3 7.2.8 10.8l-5.6.9c.6 3.8 1.5 7.6 2.6 11.3l5.4-1.7c1.1 3.5 2.4 6.8 4 10l-5.1 2.5c1.7 3.5 3.7 6.9 5.8 10.1l4.7-3.2c2 3 4.3 5.8 6.7 8.4l-4.2 3.9c2.6 2.8 5.5 5.5 8.5 7.9l3.5-4.4c2.8 2.2 5.8 4.3 8.9 6.1l-2.8 4.9c3.4 1.9 6.9 3.6 10.5 5l2.1-5.3c3.3 1.3 6.8 2.4 10.3 3.2l-1.2 5.5c3.8.8 7.6 1.4 11.5 1.7l.4-5.7c1.7.1 3.5.2 5.3.2 1.9 0 3.7-.1 5.5-.2l.4 5.7c3.9-.3 7.7-.9 11.5-1.7l-1.3-5.5c3.5-.8 7-1.9 10.3-3.2l2.1 5.3c3.6-1.4 7.1-3.1 10.5-5.1l-2.9-4.9c3.1-1.8 6.1-3.9 8.9-6.1l3.6 4.4c3-2.4 5.9-5.1 8.5-7.9l-4.2-3.9c2.4-2.6 4.7-5.5 6.7-8.4l4.7 3.2c2.2-3.2 4.1-6.6 5.8-10.1l-5.1-2.5c1.6-3.2 2.9-6.6 3.9-10l5.4 1.7c1.1-3.7 2-7.5 2.6-11.3l-5.6-.8c.6-3.9.9-7.4.9-11zm-72.1 55.4c-30.6 0-55.4-24.9-55.4-55.4 0-30.6 24.9-55.4 55.4-55.4 30.6 0 55.4 24.9 55.4 55.4s-24.9 55.4-55.4 55.4z"/><linearGradient id="a" gradientUnits="userSpaceOnUse" x1="23.436" y1="78.05" x2="132.864" y2="78.05"><stop offset=".061" stop-color="#6a6664"/><stop offset=".148" stop-color="#737070"/><stop offset=".264" stop-color="#83828a"/><stop offset=".522" stop-color="#acadb0"/><stop offset=".635" stop-color="#9c9ca0"/><stop offset=".85" stop-color="#7d7b82"/><stop offset=".876" stop-color="#79787e"/></linearGradient><path fill="url(#a)" d="M78.1 132.8c-30.2 0-54.7-24.5-54.7-54.7 0-30.2 24.5-54.7 54.7-54.7 30.2 0 54.7 24.5 54.7 54.7.1 30.1-24.5 54.7-54.7 54.7zm0-106.5c-28.5 0-51.7 23.2-51.7 51.7 0 28.5 23.2 51.7 51.7 51.7 28.5 0 51.7-23.2 51.7-51.7.1-28.5-23.1-51.7-51.7-51.7z"/></svg>