<svg xmlns="http://www.w3.org/2000/svg" xmlns:xlink="http://www.w3.org/1999/xlink" viewBox="0 0 595.3 841.9"><path fill="#C4B090" d="M150.346 736.856l-35.37-15.95L189.92 554.72l35.37 15.95z"/><defs><path id="a" d="M225.4 377.8c31.3-19.4 64.7-31.3 98.1-34.5l248 392.5 21.6-14-368.8-585.6-24.8 9.7 93.8 148.8c-33.4 3.2-67.9 15.1-98.1 34.5-31.3 19.4-55 45.3-73.3 74.4l-96-152.1-20.5 16.3 264.2 417.3 21.6-14-139.1-218.9c18.3-29.1 43.1-55 73.3-74.4z"/></defs><clipPath id="b"><use xlink:href="#a" overflow="visible"/></clipPath><path clip-path="url(#b)" fill="#C4B090" d="M225.4 377.8c31.3-19.4 64.7-31.3 98.1-34.5l248 392.5 21.6-14L203.8 105l-21.6 14 111.1 175.8c-33.4 3.2-67.9 15.1-98.1 34.5-31.3 19.4-55 45.3-73.3 74.4L21.6 245.2 0 259.2l269.6 426 21.6-14-139.1-219c18.3-29.1 43.1-55 73.3-74.4z"/><g fill="#47433D"><circle cx="548.9" cy="549.3" r="25.9"/><circle cx="548.9" cy="549.3" r="22.6"/><circle cx="548.9" cy="549.3" r="25.9"/><circle cx="548.9" cy="549.3" r="22.6"/></g><linearGradient id="c" gradientUnits="userSpaceOnUse" x1="50.17" y1="798.572" x2="51.644" y2="802.851" gradientTransform="matrix(10.7841 0 0 -10.7841 0 9183.963)"><stop offset=".044" stop-color="#e7eaf3"/><stop offset=".193" stop-color="#afb4c1"/><stop offset=".223" stop-color="#afb4c1"/><stop offset=".289" stop-color="#b0b3c1"/><stop offset=".348" stop-color="#898c95"/><stop offset=".361" stop-color="#898c95"/><stop offset=".408" stop-color="#d8dae4"/><stop offset=".442" stop-color="#dde0ea"/><stop offset=".485" stop-color="#68676a"/><stop offset=".521" stop-color="#6b696d"/><stop offset=".538" stop-color="#807e82"/><stop offset=".575" stop-color="#d0d2dc"/><stop offset=".58" stop-color="#dfe3ed"/><stop offset=".585" stop-color="#dfe3ed"/><stop offset=".609" stop-color="#bbbdc6"/><stop offset=".639" stop-color="#989ba3"/><stop offset=".655" stop-color="#8e9197"/><stop offset=".679" stop-color="#8e9197"/><stop offset=".703" stop-color="#979aa2"/><stop offset=".746" stop-color="#b4b7c2"/><stop offset=".751" stop-color="#b8bbc7"/><stop offset="1" stop-color="#c0c3cd"/></linearGradient><circle fill="url(#c)" cx="548.9" cy="549.3" r="24.8"/><g fill="#47433D"><path d="M211.4 341.1c8.6 0 16.2 7.5 16.2 16.2 0 8.6-7.5 16.2-16.2 16.2s-16.2-7.5-16.2-16.2c0-9.7 7.5-16.2 16.2-16.2"/><path d="M211.4 337.9c-10.8 0-19.4 8.6-19.4 19.4s8.6 19.4 19.4 19.4 19.4-8.6 19.4-19.4c-1.1-10.8-9.7-19.4-19.4-19.4z"/><path d="M211.4 341.1c8.6 0 16.2 7.5 16.2 16.2 0 8.6-7.5 16.2-16.2 16.2s-16.2-7.5-16.2-16.2c0-9.7 7.5-16.2 16.2-16.2"/><path d="M211.4 337.9c-10.8 0-19.4 8.6-19.4 19.4s8.6 19.4 19.4 19.4 19.4-8.6 19.4-19.4c-1.1-10.8-9.7-19.4-19.4-19.4z"/></g><linearGradient id="d" gradientUnits="userSpaceOnUse" x1="19.06" y1="817.021" x2="20.108" y2="820.066" gradientTransform="matrix(10.7841 0 0 -10.7841 0 9183.963)"><stop offset=".044" stop-color="#e7eaf3"/><stop offset=".193" stop-color="#afb4c1"/><stop offset=".223" stop-color="#afb4c1"/><stop offset=".289" stop-color="#b0b3c1"/><stop offset=".348" stop-color="#898c95"/><stop offset=".361" stop-color="#898c95"/><stop offset=".408" stop-color="#d8dae4"/><stop offset=".442" stop-color="#dde0ea"/><stop offset=".485" stop-color="#68676a"/><stop offset=".521" stop-color="#6b696d"/><stop offset=".538" stop-color="#807e82"/><stop offset=".575" stop-color="#d0d2dc"/><stop offset=".58" stop-color="#dfe3ed"/><stop offset=".585" stop-color="#dfe3ed"/><stop offset=".609" stop-color="#bbbdc6"/><stop offset=".639" stop-color="#989ba3"/><stop offset=".655" stop-color="#8e9197"/><stop offset=".679" stop-color="#8e9197"/><stop offset=".703" stop-color="#979aa2"/><stop offset=".746" stop-color="#b4b7c2"/><stop offset=".751" stop-color="#b8bbc7"/><stop offset="1" stop-color="#c0c3cd"/></linearGradient><circle fill="url(#d)" cx="211.4" cy="356.2" r="17.3"/></svg>