<svg xmlns="http://www.w3.org/2000/svg" viewBox="0 0 197.1 46.8"><path fill="#49433E" d="M188.4 46.8H8.7L0 0h197.1z"/><path fill="#49433E" d="M188.4 46.8H8.7L0 0h197.1z"/><path fill="#906D57" d="M197.1 0h-1.8v1.5h-.3l-.3 1.8 1.8.3.3-1.8h-.1.1l.3-1.8zm-3.6 0h-1.8v1.8h1.8V0zm-3.6 0h-1.8v1.8h1.8V0zm-3.6 0h-1.8v1.8h1.8V0zm-3.5 0H181v1.8h1.8V0zm-3.6 0h-1.8v1.8h1.8V0zm-3.6 0h-1.8v1.8h1.8V0zM172 0h-1.8v1.8h1.8V0zm-3.5 0h-1.8v1.8h1.8V0zm-3.6 0h-1.8v1.8h1.8V0zm-3.6 0h-1.8v1.8h1.8V0zm-3.6 0h-1.8v1.8h1.8V0zm-3.5 0h-1.8v1.8h1.8V0zm-3.6 0h-1.8v1.8h1.8V0zM147 0h-1.8v1.8h1.8V0zm-3.6 0h-1.8v1.8h1.8V0zm-3.5 0h-1.8v1.8h1.8V0zm-3.6 0h-1.8v1.8h1.8V0zm-3.6 0h-1.8v1.8h1.8V0zm-3.6 0h-1.8v1.8h1.8V0zm-3.5 0h-1.8v1.8h1.8V0zM122 0h-1.8v1.8h1.8V0zm-3.6 0h-1.8v1.8h1.8V0zm-3.6 0H113v1.8h1.8V0zm-3.6 0h-1.8v1.8h1.8V0zm-3.5 0h-1.8v1.8h1.8V0zm-3.6 0h-1.8v1.8h1.8V0zm-3.6 0h-1.8v1.8h1.8V0zm-3.6 0h-1.8v1.8h1.8V0zm-3.5 0h-1.8v1.8h1.8V0zm-3.6 0H88v1.8h1.8V0zm-3.6 0h-1.8v1.8h1.8V0zm-3.6 0h-1.8v1.8h1.8V0zm-3.5 0h-1.8v1.8h1.8V0zm-3.6 0h-1.8v1.8h1.8V0zm-3.6 0h-1.8v1.8h1.8V0zm-3.6 0h-1.8v1.8h1.8V0zm-3.5 0H63v1.8h1.8V0zm-3.6 0h-1.8v1.8h1.8V0zm-3.6 0h-1.8v1.8h1.8V0zM54 0h-1.8v1.8H54V0zm-3.5 0h-1.8v1.8h1.8V0zm-3.6 0h-1.8v1.8h1.8V0zm-3.6 0h-1.8v1.8h1.8V0zm-3.6 0h-1.8v1.8h1.8V0zm-3.5 0h-1.8v1.8h1.8V0zm-3.6 0h-1.8v1.8h1.8V0zM29 0h-1.8v1.8H29V0zm-3.6 0h-1.8v1.8h1.8V0zm-3.5 0h-1.8v1.8h1.8V0zm-3.6 0h-1.8v1.8h1.8V0zm-3.6 0h-1.8v1.8h1.8V0zm-3.6 0H9.3v1.8h1.8V0zM7.5 0H5.8v1.8h1.8V0h-.1zM4 0H2.2v1.8H4V0zM1.8 0H0l.3 1.8h.1v-.5L2 1l-.2-1zm.5 2.8l-1.7.3.3 1.8 1.8-.3-.4-1.8zM3 6.3l-1.8.3s.1.4.2.9l.2.9 1.8-.3L3 6.3zm.6 3.5l-1.8.3.2.6c.1.5.2 1.2.2 1.2l1.8-.3-.4-1.8zm.7 3.5l-1.8.3.3 1.8 1.8-.3-.3-1.8zm.6 3.6l-1.8.3.3 1.8 1.8-.3-.3-1.8zm.7 3.5l-1.8.3.3 1.8 1.8-.3-.3-1.8zm.6 3.5l-1.8.3s.1.3.1.7l.3 1.1 1.8-.3-.4-1.8zm.7 3.5l-1.8.3.1.6c.1.5.2 1.1.2 1.1l1.8-.3-.3-1.7zm.7 3.5l-1.8.3s.2 1.3.3 1.7l1.8-.3-.3-1.7zm.6 3.5l-1.8.3.3 1.8 1.8-.3-.3-1.8zm.7 3.6l-1.8.3.3 1.7 1.8-.3-.3-1.7zm.6 3.5l-1.8.3s.1.3.1.7l.2 1 1.8-.3-.3-1.7zm.7 3.5l-1.2.2V45h-.3v.2-.2.2l-.3.1.3 1.4h.2l1.5-.3-.2-1.4zm2.3 0h-1.8v1.8h1.8V45zm3.6 0h-1.8v1.8h1.8V45zm3.5 0h-1.8v1.8h1.8V45zm3.6 0h-1.8v1.8h1.8V45zm3.6 0H25v1.8h1.8V45zm3.6 0h-1.8v1.8h1.8V45zm3.5 0h-1.8v1.8h1.8V45zm3.6 0h-1.8v1.8h1.8V45zm3.6 0h-1.8v1.8h1.8V45zm3.6 0h-1.8v1.8h1.8V45zm3.5 0h-1.8v1.8h1.8V45zm3.6 0H50v1.8h1.8V45zm3.6 0h-1.8v1.8h1.8V45zm3.6 0h-1.8v1.8H59V45zm3.6 0h-1.8v1.8h1.8V45zm3.5 0h-1.8v1.8h1.8V45zm3.6 0h-1.8v1.8h1.8V45zm3.6 0h-1.8v1.8h1.8V45zm3.6 0h-1.8v1.8h1.8V45zm3.5 0h-1.8v1.8h1.8V45zm3.6 0h-1.8v1.8H84V45zm3.6 0h-1.8v1.8h1.8V45zm3.6 0h-1.8v1.8h1.8V45zm3.5 0h-1.8v1.8h1.8V45zm3.6 0h-1.8v1.8h1.8V45zm3.6 0h-1.8v1.8h1.8V45zm3.6 0h-1.8v1.8h1.8V45zm3.5 0h-1.8v1.8h1.8V45zm3.6 0h-1.8v1.8h1.8V45zm3.6 0h-1.8v1.8h1.8V45zm3.6 0H118v1.8h1.8V45zm3.5 0h-1.8v1.8h1.8V45zm3.6 0h-1.8v1.8h1.8V45zm3.6 0h-1.8v1.8h1.8V45zm3.6 0h-1.8v1.8h1.8V45zm3.5 0h-1.8v1.8h1.8V45zm3.6 0h-1.8v1.8h1.8V45zm3.6 0H143v1.8h1.8V45zm3.6 0h-1.8v1.8h1.8V45zm3.5 0h-1.8v1.8h1.8V45zm3.6 0h-1.8v1.8h1.8V45zm3.6 0h-1.8v1.8h1.8V45zm3.6 0h-1.8v1.8h1.8V45zm3.6 0h-1.8v1.8h1.8V45zm3.5 0H168v1.8h1.8V45zm3.6 0h-1.8v1.8h1.8V45zm3.6 0h-1.8v1.8h1.8V45zm3.6 0h-1.8v1.8h1.8V45zm3.5 0h-1.8v1.8h1.8V45zm3.1-1.3l-.3 1.4h-1v1.8h1.8v-1.2l.9.2.3-1.4v-.2l-1.7-.6zm.6-3.5l-.3 1.8 1.8.3.3-1.8-1.8-.3zm.7-3.6l-.3 1.8 1.8.3.3-1.8-1.8-.3zm.6-3.5l-.3 1.8 1.8.3.3-1.8-1.8-.3zm.7-3.5l-.3 1.8 1.8.3s.1-.4.2-.9l.2-.9-1.9-.3zm.6-3.5l-.3 1.8 1.8.3.2-1c.1-.4.1-.7.1-.7l-1.8-.4zm.7-3.5l-.3 1.8 1.8.3.3-1.8-1.8-.3zm.6-3.5l-.3 1.8 1.8.3.3-1.8-1.8-.3zm.7-3.6l-.3 1.8 1.8.3v-.1c.1-.4.3-1.7.3-1.7l-1.8-.3zm.6-3.5l-.3 1.8 1.8.3s.1-.5.2-.9l.2-.8-1.9-.4zm.7-3.5l-.3 1.8 1.8.3.3-1.5v-.2l-1.8-.4zm.6-3.5l-.3 1.8 1.8.3.3-1.8-1.8-.3z"/><path fill="#49433E" d="M195.6 1.2l-8.2 44.4H9.7L1.4 1.2h194.2m1.5-1.2H0l8.7 46.8h179.7L197.1 0z"/><path fill="#C4B090" d="M55.8 37.4H139v.4H55.8zm-8.1-29H147v.4H47.7z"/><text transform="translate(12.85 31.752)" fill="#26201A" font-family="'PFDinTextCompPro-Bold'" font-size="23.924">СИБНЕФТЕХИМТРЕЙД</text><path d="M18 14.7c1.5 0 2.5.4 3.2 1.1.7.7 1 1.6 1 2.8v.4l-3.1.6c0-.5-.1-.9-.3-1.2-.2-.3-.5-.5-.8-.5-.2 0-.4 0-.5.1l-.3.3c-.1.1-.1.3-.2.4v8.9c0 .2.1.4.2.6.1.2.4.3.8.3.3 0 .6-.1.8-.4s.3-.7.3-1.3l3.2.4c0 1.3-.4 2.4-1.1 3.2-.7.8-1.8 1.2-3.1 1.2-1.5 0-2.6-.4-3.3-1.1-.7-.7-1-1.8-1-3.2V19c0-1.3.4-2.4 1.1-3.2.5-.7 1.6-1.1 3.1-1.1zm11.7 8.1l-2.6 8.7h-3.2V14.8h3.2v8.8h.1l2.5-8.8H33v16.7h-3.3v-8.7zm5.6 8.7V14.8h7.6v3.1h-4.4v3h.8c1.6 0 2.8.4 3.5 1.3s1.1 2.2 1.1 3.9c0 .9-.1 1.7-.3 2.4-.2.7-.6 1.2-1 1.7-.4.4-.9.7-1.5.9s-1.2.3-1.8.3h-4zm3.8-3.1c.5 0 .9-.2 1.2-.5s.4-.9.4-1.7c0-.5 0-.9-.1-1.1-.1-.3-.2-.5-.4-.6s-.3-.2-.5-.3c-.2 0-.4-.1-.6-.1h-.6v4.3h.6zm11.7 3.1v-6.9h-2.1v6.9h-3.3V14.8h3.3v6.6h2.1v-6.6h3.3v16.7h-3.3zm5.7 0V14.8h7.6v3.1h-4.4v3.5h3.8v3.1h-3.8v3.8h4.4v3.1h-7.6zm21.8-6.1c0 .7-.1 1.4-.3 1.9-.2.6-.5 1-1 1.4-.4.4-.9.7-1.5.9-.6.2-1.2.4-1.9.4v1.4h-3.3V30c-.7 0-1.3-.2-1.9-.4-.6-.2-1.1-.5-1.5-.9-.4-.4-.7-.9-1-1.4-.2-.6-.3-1.2-.3-1.9v-5.2c0-.7.1-1.4.3-1.9.2-.6.5-1 1-1.4.4-.4.9-.7 1.5-.9.6-.2 1.2-.3 1.9-.4v-.8h3.3v.8c1.4.1 2.5.5 3.4 1.3.8.8 1.2 1.9 1.2 3.3v5.2zm-7.9-6.9c-.5 0-.8.2-1.1.5-.3.3-.4.7-.4 1.2v5.4c0 .5.1.9.4 1.2s.6.5 1.1.5v-8.8zm4.7 1.7c0-.5-.1-.9-.4-1.2s-.6-.4-1-.4v8.7c.4 0 .8-.2 1-.5.3-.3.4-.7.4-1.1v-5.5zm9.9-2.3v13.5h-3.3V17.9h-2.6v-3.1h8.4v3.1H85zm4 13.6V14.8h7.6v3.1h-4.4v3.5H96v3.1h-3.8v3.8h4.4v3.1H89zm13.5-4.9l-1.5 4.9h-3.8l3.4-8.7-3.2-8h3.8l1.2 4.1h.1l1.1-4.1h3.8l-3.3 8 3.5 8.7H104l-1.5-4.9zm12.3-3.8l-2.6 8.7H109V14.8h3.2v8.8h.1l2.5-8.8h3.3v16.7h-3.3v-8.7zm10.3 5.4l-.7-2.1-.8-2.5h-.1v7.8h-3.3V14.8h3l1.7 4.4 1.1 3.3h.1l1.1-3.4 1.6-4.4h3v16.7h-3.3v-7.8h-.1l-.8 2.6-.6 1.9h-1.9zM139 17.9v13.5h-3.3V17.9h-2.6v-3.1h8.4v3.1H139zm7.9-3.1c.7 0 1.3.1 1.9.3.6.2 1.1.4 1.5.8.4.4.7.9.9 1.6.2.7.3 1.5.3 2.5 0 1.7-.4 3-1.1 4-.7.9-1.9 1.4-3.5 1.4h-.8v6.1h-3.3V14.8h4.1zm-.7 3.1v4.3h.6c.2 0 .4 0 .6-.1s.4-.2.5-.3c.2-.2.3-.4.4-.7s.1-.7.1-1.2c0-.7-.1-1.3-.4-1.6-.3-.3-.7-.5-1.2-.5h-.6zm7 13.6V14.8h7.6v3.1h-4.4v3.5h3.8v3.1h-3.8v3.8h4.4v3.1h-7.6zm15-8.7l-2.6 8.7h-3.2V14.8h3.2v8.8h.1l2.5-8.8h3.3v16.7h-3.3v-8.7zm-2.5-12.1c0 .2.1.4.1.6s.2.4.3.6c.1.2.3.3.5.4.2.1.4.2.6.2.2 0 .4-.1.6-.2.2-.1.3-.3.4-.4l.3-.6c.1-.2.1-.4.1-.6h2.3c0 .4-.1.8-.3 1.2-.2.4-.4.8-.7 1.2s-.7.7-1.1.9c-.4.2-1 .4-1.6.4-.7 0-1.2-.1-1.7-.4-.5-.2-.8-.5-1.1-.9s-.5-.8-.7-1.2c-.1-.4-.2-.8-.2-1.2h2.2zm9.8 20.8v3.2h-2.7v-6l1-.2c.5-.6.8-1.2 1-1.9.1-.7.2-1.3.2-2l.4-9.8h7.8v13.6h1.3v6.2h-2.7v-3.2h-6.3zm2.5-6.6c0 .7-.1 1.4-.2 2-.1.6-.3 1.1-.5 1.5h2.7V17.9h-1.8l-.2 7z" fill="#C0AD8F"/></svg>