<svg xmlns="http://www.w3.org/2000/svg" viewBox="0 0 18.1 18.1"><linearGradient id="a" gradientUnits="userSpaceOnUse" x1=".359" y1="9.039" x2="18.441" y2="9.039"><stop offset=".061" stop-color="#6a6664"/><stop offset=".148" stop-color="#737070"/><stop offset=".264" stop-color="#83828a"/><stop offset=".522" stop-color="#acadb0"/><stop offset=".635" stop-color="#9c9ca0"/><stop offset=".85" stop-color="#7d7b82"/><stop offset=".876" stop-color="#79787e"/></linearGradient><path fill-rule="evenodd" clip-rule="evenodd" fill="url(#a)" d="M17.9 9h.6v-.6h-.6c0-.2 0-.3-.1-.5l.5-.1c0-.2-.1-.4-.1-.5l-.5.1c0-.2-.1-.3-.1-.5l.5-.1c0-.2-.1-.4-.2-.5l-.5.2c-.1-.2-.1-.3-.2-.5l.5-.2c-.1-.2-.1-.3-.2-.5l-.5.2c0-.2-.1-.4-.1-.5l.5-.3c-.1-.2-.2-.3-.3-.5l-.5.3c-.1-.1-.2-.3-.3-.4l.4-.3c-.1-.2-.2-.3-.3-.4l-.4.3c-.1-.1-.2-.3-.3-.4l.4-.4-.4-.4-.4.4c-.1-.1-.3-.2-.4-.4l.4-.4c-.2-.1-.3-.2-.5-.3l-.3.4c-.1-.1-.3-.2-.4-.3l.3-.5c-.2-.1-.3-.2-.5-.3l-.3.5c-.2-.1-.3-.2-.5-.2l.2-.5c-.2-.1-.3-.2-.5-.2l-.2.5c-.2-.1-.3-.1-.5-.2l.2-.5c-.2-.1-.4-.1-.5-.2l-.1.5c-.2 0-.3-.1-.5-.1l.1-.5c-.2 0-.4-.1-.5-.1l-.1.5c-.2 0-.3 0-.5-.1v-.6c-.2.1-.4.1-.6.1v.6h-.5V0h-.6l.1.6c-.2 0-.3 0-.5.1L8 .1c-.2 0-.4.1-.5.1l.1.5c-.2.1-.4.1-.6.2L6.9.3c-.2.1-.4.2-.5.2l.1.5c-.1.1-.3.2-.4.2L5.8.7c-.1.1-.3.2-.5.3l.3.5c-.2 0-.3.1-.5.2l-.2-.5c-.2.1-.4.2-.5.3l.3.5c-.2.1-.3.2-.4.3l-.4-.5c-.1.2-.3.3-.4.4l.4.4c-.2.1-.3.2-.4.4l-.4-.4c-.1.1-.3.2-.4.4l.4.4-.3.3-.5-.3c-.1.1-.2.3-.3.4l.5.3c-.1.2-.2.3-.3.5l-.5-.3c-.1.2-.2.3-.3.5l.5.2c-.1.2-.1.4-.2.5l-.5-.2c-.1.2-.2.3-.2.5l.5.2c-.1.2-.1.3-.2.5l-.5-.2c-.1.2-.1.4-.2.6l.6.1c0 .2-.1.3-.1.5l-.6-.1c0 .2-.1.4-.1.5L1 8v.5H.4V9H1v.5H.4c0 .2 0 .4.1.6H1c0 .2 0 .3.1.5l-.5.1c0 .2.1.4.1.5l.5-.1c0 .2.1.3.1.5l-.5.2c0 .2.1.4.2.5l.5-.2c.1.2.1.3.2.5l-.5.2c.1.2.2.3.2.5l.5-.3c.1.2.2.3.3.5l-.5.3c.1.2.2.3.3.5l.5-.3c.1.1.2.3.3.4l-.4.3c.1.1.2.3.4.4l.4-.4c.1.1.2.3.4.4l-.4.4.4.4.4-.4c.1.1.3.2.4.3l-.4.5c.1.1.3.2.5.3l.3-.5c.1.1.3.2.4.3l-.3.5c.2.1.3.2.5.3l.2-.5c.2.1.3.2.5.2l-.2.5c.2.1.3.1.5.2l.2-.6c.2.1.3.1.5.2l-.1.5c.2.1.4.1.5.1l.1-.5c.2 0 .3.1.5.1L8 18c.2 0 .4 0 .6.1v-.6h.5v.6h.6v-.6h.5l.1.6c.2 0 .4 0 .6-.1l-.1-.5c.2 0 .3-.1.5-.1l.1.5c.2 0 .4-.1.5-.1l-.2-.5c.2 0 .3-.1.5-.2l.2.5c.2-.1.3-.1.5-.2l-.2-.5c.2-.1.3-.1.5-.2l.2.5c.2-.1.3-.2.5-.3l-.3-.5c.2-.1.3-.2.4-.3l.3.5c.2-.1.3-.2.5-.3l-.3-.4c.1-.1.3-.2.4-.3l.4.4c.1-.1.3-.2.4-.4l-.4-.4.4-.4.4.4c.1-.1.2-.3.4-.4l-.5-.5c.1-.1.2-.3.3-.4l.5.3c.1-.2.2-.3.3-.5l-.5-.3c.1-.1.2-.3.3-.5l.5.3c.1-.2.2-.3.2-.5l-.5-.2c.1-.2.1-.3.2-.5l.5.2c.1-.2.1-.3.2-.5l-.5-.2c.1-.2.1-.3.1-.5l.5.1c0-.2.1-.4.1-.5l-.5-.1c0-.2.1-.3.1-.5l.5.1c0-.2 0-.4.1-.6h-.6c.1-.1.1-.3.1-.5zm-8.5 5.6c-3.1 0-5.6-2.5-5.6-5.6 0-3.1 2.5-5.6 5.6-5.6C12.5 3.5 15 6 15 9c0 3.1-2.5 5.6-5.6 5.6z"/></svg>