<svg xmlns="http://www.w3.org/2000/svg" viewBox="0 0 250.9 46.8"><path fill="#26201A" d="M66.2 16.6c0-5.8.8-11.4 2.4-16.6H0l11 46.8h63.6c-5.3-8.8-8.4-19.1-8.4-30.2z"/><path fill="#765547" d="M68.6 0h-1.8v1.4l-.4-.1c-.2.6-.3 1.2-.4 1.8l1.7.4c.1-.2.1-.4.2-.7v-.3c.3-1.1.5-1.8.7-2.5zM65 0h-1.8v1.8H65V0zm-3.6 0h-1.8v1.8h1.8V0zm-3.5 0h-1.8v1.8h1.8V0zm-3.6 0h-1.8v1.8h1.8V0zm-3.6 0h-1.8v1.8h1.8V0zm-3.6 0h-1.8v1.8h1.8V0zm-3.5 0h-1.8v1.8h1.8V0zM40 0h-1.8v1.8H40V0zm-3.6 0h-1.8v1.8h1.8V0zm-3.6 0H31v1.8h1.8V0zm-3.5 0h-1.8v1.8h1.8V0zm-3.6 0h-1.8v1.8h1.8V0zm-3.6 0h-1.8v1.8h1.8V0zm-3.6 0h-1.8v1.8h1.8V0zm-3.6 0h-1.8v1.8h1.8V0zm-3.5 0H9.6v1.8h1.8V0zM7.8 0H6v1.8h1.8V0zM4.2 0H2.4v1.8h1.8V0zM1.8 0H0l.4 1.8h.2V1L2 .7 1.8 0zm.6 2.4l-1.7.5.4 1.7 1.7-.4-.4-1.8zm.8 3.5l-1.7.4.4 1.7 1.7-.4-.4-1.7zm.9 3.5l-1.8.4.4 1.7 1.7-.4-.3-1.7zm.8 3.5l-1.7.4.3 1.7 1.7-.4-.3-1.7zm.8 3.5l-1.7.4s.1.6.3 1.1l.1.6 1.7-.4-.4-1.7zm.8 3.4l-1.7.4.1.3c.1.6.3 1.5.3 1.5l1.7-.4-.4-1.8zm.8 3.5l-1.7.4.2 1 .2.8 1.7-.4-.4-1.8zm.9 3.5l-1.7.4.2.6.2 1 1.7-.4-.4-1.6zm.8 3.5l-1.7.4.2.8.2.9 1.7-.4-.4-1.7zm.8 3.5l-1.7.4.3 1.1c.1.3.1.6.1.6l1.7-.4-.4-1.7zm.8 3.4l-1.7.4.2 1 .2.7L11 39l-.4-1.8zm.8 3.5l-1.7.4.4 1.5v.2l1.7-.4-.4-1.7zm.9 3.5l-1.7.4.2.8.2.9 1.4-.3v.8h1.8V45h-1.7l-.2-.8zm5.4.8h-1.8v1.8h1.8V45zm3.6 0h-1.8v1.8h1.8V45zm3.5 0H23v1.8h1.8V45zm3.6 0h-1.8v1.8h1.8V45zm3.6 0h-1.8v1.8H32V45zm3.6 0h-1.8v1.8h1.8V45zm3.6 0h-1.8v1.8h1.8V45zm3.5 0h-1.8v1.8h1.8V45zm3.6 0h-1.8v1.8h1.8V45zm3.6 0h-1.8v1.8h1.8V45zm3.6 0h-1.8v1.8h1.8V45zm3.5 0h-1.8v1.8H57V45zm3.6 0h-1.8v1.8h1.8V45zm3.6 0h-1.8v1.8h1.8V45zm3.6 0H66v1.8h1.8V45zm3.5 0h-1.8v1.8h1.8V45zm1.4-1.5l-1.6.8c.3.5.6 1.1.9 1.6l1.1-.6v1.6h1.5c-.4-.6-.7-1.2-1-1.8-.2-.4-.4-.7-.6-1.1-.2-.4-.3-.5-.3-.5zm-1.5-3.3l-1.7.8c.2.6.5 1.1.8 1.7l1.6-.8c-.3-.6-.5-1.1-.7-1.7zm-1.4-3.3l-1.7.6c.2.6.4 1.2.7 1.7l1.7-.7s0-.1-.1-.1c-.1-.2-.2-.5-.3-.7v-.1c-.2-.3-.2-.5-.3-.7zm-1.1-3.4L67 34l.6 1.8 1.7-.6c-.2-.5-.3-1-.5-1.5-.1-.1-.1-.1-.1-.2zm-1-3.4l-1.7.4c.1.6.3 1.2.5 1.8l1.7-.5c-.1-.4-.2-.7-.3-1.1v-.1c-.1-.3-.1-.4-.2-.5zm-.7-3.5l-1.8.3.3 1.8 1.8-.4c-.1-.4-.2-.9-.2-1.3 0-.1-.1-.3-.1-.4zm-.5-3.6l-1.8.2c.1.6.1 1.2.2 1.8l1.8-.2c0-.2-.1-.5-.1-.7 0-.5 0-.8-.1-1.1zm-.3-3.5l-1.8.1c0 .6.1 1.2.1 1.8l1.8-.1c0-.4-.1-.7-.1-1.1v-.1c.1-.3.1-.5 0-.6zm-1.8-3.6v1.9h1.8V17l-1.8-1.1zm.1-3.7c0 .6-.1 1.2-.1 1.8l1.8.1V13l-1.7-.8zm.4-3.7c-.1.6-.2 1.2-.2 1.8l1.8.2c.1-.5.1-1 .2-1.5v-.2l-1.8-.3zm.6-3.6l-.3 1.8L67 7c0-.1 0-.2.1-.3 0-.2.1-.4.1-.6 0-.2.1-.4.1-.5l-1.8-.7z"/><path fill="#26201A" d="M67 1.2c-1.3 5-2 10.2-2 15.4 0 10.2 2.6 20.2 7.5 29H12L1.5 1.2H67M68.6 0H0l11 46.8h63.6c-5.3-8.8-8.4-19.2-8.4-30.2 0-5.7.8-11.3 2.4-16.6zm111.8 0c1.6 5.3 2.4 10.9 2.4 16.6 0 11.1-3.1 21.4-8.4 30.2h65.5l11-46.8h-70.5z"/><path fill="#765547" d="M250.9 0h-1.8v1.7l-.4-.1-.4 1.7 1.7.4s0-.1.1-.4l.3-1.4-1-.2h1l.5-1.7zm-3.6 0h-1.8v1.8h1.8V0zm-3.6 0H242v1.8h1.8V0h-.1zm-3.5 0h-1.8v1.8h1.8V0zm-3.6 0h-1.8v1.8h1.8V0zM233 0h-1.8v1.8h1.8V0zm-3.6 0h-1.8v1.8h1.8V0zm-3.5 0h-1.8v1.8h1.8V0zm-3.6 0h-1.8v1.8h1.8V0zm-3.6 0h-1.8v1.8h1.8V0zm-3.6 0h-1.8v1.8h1.8V0zm-3.5 0h-1.8v1.8h1.8V0zM208 0h-1.8v1.8h1.8V0zm-3.6 0h-1.8v1.8h1.8V0zm-3.6 0H199v1.8h1.8V0zm-3.5 0h-1.8v1.8h1.8V0zm-3.6 0h-1.8v1.8h1.8V0zm-3.6 0h-1.8v1.8h1.8V0zm-3.6 0h-1.8v1.8h1.8V0zM183 0h-1.8v.8l-.5.2v.1c.1.4.2.9.4 1.3 0 .1 0 .2.1.2l1.7-.4c0-.2-.1-.3-.1-.5h.2V0zm.3 4.1l-1.8.4c.1.3.1.6.2 1 0 .2.1.4.1.6l1.8-.3c-.1-.5-.2-1.1-.3-1.7zm.6 3.6l-1.7.3c0 .1 0 .3.1.4 0 .3.1.6.1.9l1.8-.2c-.1-.2-.2-.8-.3-1.4zm.5 3.7l-1.8.2c.1.6.1 1.2.1 1.8l1.8-.1c0-.7-.1-1.3-.1-1.9zm.2 3.6h-1.8v.7h1.8V15zm-1.8 3.7V20l1.8.1c0-.6.1-1.2.1-1.8l-1.9.4zm-.3 3.5c-.1.6-.1 1.2-.2 1.8l1.8.2c.1-.6.1-1.2.2-1.8l-1.8-.2zm-.4 3.6c0 .2-.1.5-.1.7 0 .2-.1.3-.1.5l1.8.3.3-1.8-1.9.3zm-.7 3.5c-.1.6-.3 1.2-.4 1.7l1.7.4c.2-.6.3-1.2.4-1.8l-1.7-.3zm-.9 3.5c-.1.3-.2.5-.2.8v.1c-.1.2-.2.5-.2.7l1.7.5c.2-.6.4-1.2.5-1.8l-1.8-.3zm-1 3.4c-.1.2-.1.3-.2.5l-.3.9v.1l1.7.7c.2-.6.4-1.2.6-1.7l-1.8-.5zm-1.3 3.3l-.3.6c-.1.3-.3.6-.4 1l1.6.8c.3-.6.5-1.1.7-1.7l-1.6-.7zm-1.5 3.2s-.1 0 0 0c-.1.1-.1.1 0 0-.1.1-.1.1 0 0-.1.1-.1.1 0 0-.1.1-.1.1 0 0-.1.1-.1.1 0 0-.1.1-.1.1 0 0-.1.1-.1.1 0 0 0 .1-.1.1-.1.1-.2.4-.5.9-.7 1.3l1.3.7h-.3v1.8h1.8V45h-1.2c.3-.5.5-1 .8-1.5l-1.6-.8zm-1.6 3c-.2.4-.4.8-.7 1.1h2.1v-.1l-1.4-.8v-.2zm7.1-.7h-1.8v1.8h1.8V45zm3.6 0H184v1.8h1.8V45zm3.6 0h-1.8v1.8h1.8V45zm3.5 0h-1.8v1.8h1.8V45zm3.6 0h-1.8v1.8h1.8V45zm3.6 0h-1.8v1.8h1.8V45zm3.6 0h-1.8v1.8h1.8V45zm3.5 0h-1.8v1.8h1.8V45zm3.6 0H209v1.8h1.8V45zm3.6 0h-1.8v1.8h1.8V45zm3.6 0h-1.8v1.8h1.8V45zm3.5 0h-1.8v1.8h1.8V45zm3.6 0h-1.8v1.8h1.8V45zm3.6 0h-1.8v1.8h1.8V45zm3.6 0h-1.8v1.8h1.8V45zm3.5 0H234v1.8h1.8V45zm3-1.6l-.4 1.7h-.8v1.8h1.8v-1.5l.7.2.3-1.1c.1-.3.1-.6.1-.6l-1.7-.5zm.9-3.5l-.4 1.7 1.7.4.3-1.3c.1-.2.1-.4.1-.4l-1.7-.4zm.8-3.5l-.4 1.7 1.7.4.4-1.5v-.2l-1.7-.4zm.8-3.5l-.4 1.7 1.7.4.4-1.7-1.7-.4zm.8-3.4l-.4 1.7 1.7.4s.2-1 .4-1.5v-.2l-1.7-.4zm.8-3.5l-.4 1.7 1.7.4s.2-.9.3-1.4l.1-.3-1.7-.4zm.9-3.5l-.4 1.7 1.7.4s.2-.7.3-1.3l.1-.5-1.7-.3zm.8-3.5l-.4 1.7 1.7.4s.1-.6.3-1.1l.2-.7-1.8-.3zm.8-3.5l-.4 1.7 1.7.4s.1-.5.2-.9l.2-.8-1.7-.4zm.8-3.4l-.4 1.7 1.7.4s.2-.6.3-1.1l.1-.6-1.7-.4zm.8-3.5l-.4 1.7 1.7.4s.1-.4.2-.9l.2-.9-1.7-.3zm.9-3.5l-.4 1.7 1.7.4s.1-.3.1-.6l.3-1.1-1.7-.4z"/><path fill="#26201A" d="M249.4 1.2l-10.5 44.4h-62.4c4.9-8.8 7.5-18.8 7.5-29 0-5.2-.7-10.4-2-15.4h67.4m1.5-1.2h-70.5c1.6 5.3 2.4 10.9 2.4 16.6 0 11.1-3.1 21.4-8.4 30.2h65.5l11-46.8z"/><path fill="#161716" d="M67 0H53.5L26.9 11.1h35.3m122.3 0H224L192.9 0h-12.6"/></svg>