<svg xmlns="http://www.w3.org/2000/svg" viewBox="0 0 37.5 37.5"><linearGradient id="a" gradientUnits="userSpaceOnUse" y1="18.73" x2="37.471" y2="18.73"><stop offset=".043" stop-color="#6a6664"/><stop offset=".138" stop-color="#737070"/><stop offset=".264" stop-color="#83828a"/><stop offset=".522" stop-color="#acadb0"/><stop offset=".635" stop-color="#9c9ca0"/><stop offset=".85" stop-color="#7d7b82"/><stop offset=".876" stop-color="#79787e"/></linearGradient><path fill="url(#a)" d="M36.3 18.7v-.1h1.2v-1.2l-1.1.1c0-.4-.1-.7-.1-1.1l1.1-.1c0-.4-.1-.8-.2-1.1l-1.2.2c-.1-.4-.1-.7-.2-1.1l1.1-.3c-.1-.4-.2-.7-.3-1.1l-1.1.4c-.1-.3-.2-.7-.4-1l1.1-.4c-.1-.4-.3-.7-.5-1.1l-1 .5c-.2-.3-.3-.6-.5-1l1-.6c-.2-.3-.4-.7-.6-1l-1 .6-.6-.9 1-.6c-.2-.3-.5-.6-.7-.9l-.9.7c-.2-.3-.5-.6-.7-.8l.8-.8c-.3-.3-.5-.6-.8-.8l-.8.8c-.3-.3-.5-.5-.8-.7l.7-.9c-.2-.2-.5-.4-.8-.7l-.7.9-.9-.6.6-1c-.3-.2-.6-.4-1-.6l-.6 1c-.3-.2-.6-.3-1-.5l.5-1c-.3-.2-.7-.3-1-.5l-.4 1.1c-.3-.1-.7-.3-1-.4l.4-1.1c-.4-.1-.7-.2-1.1-.3l-.3 1.1c-.3-.1-.7-.2-1.1-.3l.2-1.1c-.4-.1-.8-.2-1.1-.2l-.2 1.1c-.4-.1-.7-.1-1.1-.1l.1-1.1C20 0 19.6 0 19.2 0v1.1h-1.1V0c-.4 0-.8 0-1.2.1l.1 1.1c-.4 0-.7.1-1.1.1L15.7.2c-.4.1-.8.1-1.1.2l.2 1.1c-.4.1-.7.2-1 .3L13.5.7c-.4.1-.7.2-1.1.4l.4 1.1c-.3.1-.7.3-1 .4l-.5-1.1c-.4.2-.7.3-1 .5l.5 1c-.3.2-.6.3-1 .5l-.6-1c-.2.2-.5.4-.9.6l.6 1c-.2.2-.5.4-.8.6l-.7-.9c-.3.2-.6.5-.9.7l.7.9-.7.7-.8-.8c-.3.3-.6.6-.9.8l.9.8c-.2.3-.5.6-.7.8L4.1 7c-.2.3-.5.6-.7 1l.9.7c-.2.2-.4.5-.5.8l-1-.6c-.2.3-.4.7-.6 1l1 .5c-.2.3-.3.6-.5 1l-1-.5c-.2.3-.3.7-.4 1.1l1.1.4c-.1.3-.2.7-.4 1l-1.1-.3c-.1.4-.2.7-.3 1.1l1.1.3c-.1.3-.2.7-.2 1.1l-1.1-.2c-.1.4-.1.8-.2 1.1l1.1.1c0 .4-.1.7-.1 1.1L0 17.6v1.1h1.2v1.1l-1.2.1c0 .4.1.8.1 1.1l1.1-.1c0 .4.1.7.2 1.1l-1.1.2c.1.4.2.8.2 1.1l1.1-.3c.1.4.2.7.3 1l-1.1.4c.1.4.2.7.4 1.1l1.1-.4c.1.3.3.7.4 1l-1 .5c.2.3.3.7.5 1l1-.5c.2.3.4.6.5.9l-1 .6c.2.3.4.6.6 1l.9-.7c.2.3.4.6.7.9l-.9.7c.2.3.5.6.8.9l.8-.8c.2.3.5.5.8.8l-.8.8c.4.3.7.5 1 .8l.7-.9c.3.2.6.5.8.7l-.7.9c.3.2.6.5.9.7l.6-1 .9.6-.6 1c.3.2.7.4 1 .5l.5-1c.3.2.7.3 1 .5l-.2 1c.4.1.7.3 1.1.4l.4-1.1c.3.1.7.2 1 .3l-.3 1.1c.4.1.7.2 1.1.3l.2-1.1c.4.1.7.1 1.1.2l-.2 1.1c.4.1.8.1 1.1.1l.1-1.1c.4 0 .7.1 1.1.1v1.1h1.2v-1.1c.4 0 .7 0 1.1-.1l.1 1.1c.4 0 .8-.1 1.1-.1l-.2-1.1c.4-.1.7-.1 1.1-.2l.2 1.1c.4-.1.7-.2 1.1-.3l-.3-1.1c.3-.1.7-.2 1-.3l.4 1.1c.4-.1.7-.3 1.1-.4l-.5-1.1c.3-.1.7-.3 1-.5l.5 1c.3-.2.7-.4 1-.5l-.6-1 .9-.6.6 1c.3-.2.6-.4.9-.7l-.7-.9c.3-.2.6-.4.8-.7l.7.9c.3-.3.6-.5.9-.8l-.6-.8.8-.8.9.8c.3-.3.5-.6.7-.9l-.9-.7c.2-.3.4-.6.7-.9l.9.7c.2-.3.4-.6.6-1l-1-.6c.2-.3.4-.6.5-.9l1 .5c.2-.3.3-.7.5-1l-1-.5c.2-.3.3-.7.4-1l1.1.4c.1-.4.3-.7.4-1.1l-1.1-.3c.1-.3.2-.7.3-1l1.1.3c.1-.4.2-.7.2-1.1l-1.1-.3c.1-.4.1-.7.2-1.1l1.1.1c0-.4.1-.8.1-1.1l-1.1-.1v-1zM18.8 34.4c-8.7 0-15.7-7-15.7-15.7 0-4.4 1.8-8.4 4.7-11.2l21 23.3c-2.7 2.3-6.2 3.6-10 3.6zm12.5-6.2L10.6 5.3C12.9 3.9 15.7 3 18.7 3c8.7 0 15.7 7 15.7 15.7.1 3.6-1.1 6.9-3.1 9.5z"/></svg>