<svg xmlns="http://www.w3.org/2000/svg" viewBox="0 0 595.3 841.9"><path fill="#C4B090" d="M561.1 521.3v-1l14.1 5c2-6 4-11 6-17.1l-14.1-4c2-5 3-11 5-16.1l14.1 4c1-6 3-12 4-17.1l-15.1-3c1-6 2-11 3-17.1l15.1 2c1-6 1-12 2-18.1l-15.1-1v-17.1h15.1c0-6 0-12-1-18.1l-15.1 1c0-6-1-11-2-17.1l15.1-3c-1-6-2-12-3-18.1l-15.1 3c-1-6-2-11-4-17.1l14.1-4c-1-6-3-12-5-17.1l-14.1 4c-2-5-4-11-6-16.1l14.1-5c-2-6-4-11-7-17.1l-14.1 6c-2-5-5-10-7-15.1l13-7c-3-5-6-10-9-16.1l-13 8c-3-5-6-10-9-14.1l12-8c-3-5-7-10-11-14.1l-12 9c-3-4-7-9-11-13l11-10c-4-4-8-9-12-13l-10 11-12-12 10-11c-4-4-9-8-14.1-11l-9 12c-4-3-9-7-14.1-10l8-12c-5-3-10-7-15.1-10l-8 13c-5-3-10-6-15.1-8l7-13c-5-3-11-5-16.1-8l-3 13.1c-5-2-10-4-15.1-6h-1l6-14.1c-6-2-11-4-17.1-6l-4 14.1c-5-2-11-3-16.1-5l4-14.1c-6-1-12-3-17.1-4l-4 15.1c-6-1-11-2-17.1-3l2-15.1c-6-1-12-1-18.1-2l-1 15.1h-17.1v-15.1c-6 0-12 0-18.1 1l1 15.1c-6 0-11 1-17.1 2l-2-15.1c-6 1-12 2-18.1 3l3 14.1c-6 1-11 2-17.1 4l-3-14.1c-6 1-12 3-17.1 5l4 14.1c-5 2-11 4-16.1 6l-5-15.1c-6 2-11 4-17.1 7l6 14.1c-5 2-10 5-15.1 7l-7-13c-5 3-10 6-16.1 9l8 13c-5 3-10 6-14.1 9l-8-12c-5 3-10 7-14.1 11l9 12c-4 3-9 7-13 11l-10-11c-5 2-9 7-13 11l11 11-12 12-11-10c-4 4-8 9-11 14.1l12 9c-3 4-7 9-10 14.1l-12-8c-3 5-7 10-10 15.1l13 8c-3 5-6 10-8 15.1l-15.1-8c-3 5-5 11-8 16.1l14.1 6c-2 5-4 10-6 15.1l-14.1-5c-2 6-4 11-6 17.1l14.1 4c-2 5-3 11-5 16.1l-14.1-4c-1 6-3 12-4 17.1l15.1 4c-1 6-2 11-3 17.1l-15.1-2c-1 6-1 12-2 18.1l16.1 1c0 6-1 11 0 17.1H1c0 6 0 12 1 18.1l15.1-1c0 6 1 11 2 17.1l-15.1 2c1 6 2 12 3 18.1l13-3c1 6 2 11 4 17.1l-14.1 4c1 6 3 12 5 17.1l14.1-4c2 5 4 11 6 16.1l-15.1 4c2 6 4 11 7 17.1l13-7c2 5 5 10 7 15.1l-13 7c3 6 6 11 9 16.1l13-8c3 5 6 10 9 14.1l-12 8c3 5 7 10 11 14.1l11-8c3 4 7 9 11 13l-11 10c4 4 8 9 12 13l11-11 12 12-10 11c4 4 9 8 14.1 11l9-12c4 3 9 7 14.1 10l-8 12c5 3 10 7 15.1 10l8-13c5 3 10 6 15.1 8l-7 13c5 3 11 5 16.1 8l6-14.1c5 2 10 4 15.1 6l-5 14.1c6 2 11 4 17.1 6l4-14.1c5 2 11 3 16.1 5l-4 14.1c6 1 12 3 17.1 4l3-15.1c6 1 11 2 17.1 3l-2 15.1c6 1 12 1 18.1 2l1-15.1c6 0 11 1 17.1 1V717c6 0 12 0 18.1-1l-1-15.1c6 0 11-1 17.1-2l2 15.1c6-1 12-2 18.1-3l-3-15.1c6-1 11-2 17.1-4l4 14.1c6-1 12-3 17.1-5l-5-11c5-2 11-4 16.1-6l5 14.1c6-2 11-4 17.1-7l-6-14.1c5-2 10-5 15.1-7l7 13c5-3 10-6 16.1-9l-8-13c5-3 10-6 14.1-9l8 12c5-3 10-7 14.1-11l-8-10c4-3 9-7 13-11l10 11c4-4 9-8 13-12l-10-11 12-12 11 10c4-4 8-9 12-14.1l-13-9c3-4 7-9 10-14.1l12 8c3-5 7-10 10-15.1l-13-8c3-5 6-10 8-15.1l13 7c3-5 5-11 8-16.1l-14.1-6c3-4.1 5-9.2 7-14.2zm-22-40.1c-11-7-28.1-17.1-50.2-26.1-2-5-5-10-7-14.1-3-5-6-10-9-15.1-3-5-6-9-10-12-4-4-8-8-12-10-4-3-8-5-12-7l-1-1c-4-1-7-2-11-3s-9-1-14.1-1c-6 0-11 1-15.1 2-5 2-8 4-12 6-3 3-6 6-7 9-2 3-3 7-3 11 0 3 1 5 2 7s2 3 4 4c-7-1-13-1-20.1-2-7-1-14.1-1-20.1-2 3-17.1-4-33.1-17.1-44.2 2-3 5-6 7-10 17.1-23.1 37.1-48.2 50.2-73.3 0 1 1 3 1 4 2 7 3 14.1 4 21.1 0 7 0 14.1-1 18.1-1 5-3 9-6 12-2 2-3 3-5 4s-3 2-5 2h-4c-1 0-2-1-2-2-2-4-5-6-7-6-3-1-5 0-8 2-3 4-3 7-2 9s2 4 4 6 5 4 8 5c1 0 2 1 2 1 4 1 8 1 12 1 4-1 8-2 12-5 4-2 8-6 12-10 3-4 6-7 8-11l6-12c1-4 2-9 3-13 1-5 1-10 0-16.1 0-5-1-10-2-15.1-1-5-3-11-5-16.1s-4-11-7-16.1c9-28.1 13-50.2 15.1-63.2C515 253.3 567.2 369.7 539.1 481.2zm-145.6-62.3v-3c1-1 1-2 2-3s3-2 5-3 4-1 7-1 7 1 10 2c1 0 2 1 3 1 4 2 9 6 15.1 11 5 4 9 10 13 16.1 0 1 1 1 1 2-19.1-4-41.2-7-62.2-9 2-1 4-2 5-4 2.1-2 2.1-5 1.1-9.1zM356.4 179c-7 11-19.1 30.1-31.1 58.2-5 2-10 5-14.1 7-5 3-10 6-15.1 9-5 3-9 6-12 10-4 4-8 8-10 12-3 4-5 8-7 12s-3 8-4 12-1 9-1 14.1c0 6 1 11 2 15.1 2 5 4 8 6 12 3 3 6 6 9 7 3 2 7 3 11 3 3 0 5-1 7-2 1-1 3-2 4-5-1 7-1 13-2 20.1 0 4-1 8-1 12-16.1-1-32.1 7-40.2 21.1-5-4-10-8-16.1-12-5-4-10-8-16.1-12 2 1 4 1 6 0s4-2 6-4c3-3 4-6 5-10s1-8 1-12c-1-4-2-8-5-12-2-4-6-8-10-12-4-3-7-6-11-8-3-2-7-4-10-5l-1-1c-4-1-9-2-13-3-5-1-10-1-16.1 0-5 0-10 1-15.1 2-5 1-11 3-16.1 5-5 2-10 4-15.1 6-23.1-8-42.2-12-55.2-14.1C129.5 204.1 244.9 151.9 356.4 179zm-54.2 158.6c-1-2-2-4-4-5s-6-1-10 0h-3c-1 0-2-1-3-2s-2-3-3-5-1-4-1-7c0-4 1-9 3-13s6-9 11-15.1c4-5 10-9 16.1-13 1 0 1-1 2-1-4.1 19-6.1 40-8.1 61.1zm-80.4 25.1c-1 3 0 5 1 7-17.1-13-35.1-25.1-52.2-34.1 1 0 2 0 2-1 7-2 14.1-3 21.1-4 7 0 14.1 0 18.1 1 5 1 9 3 12 6 2 2 3 3 4 5s2 3 2 5v4c0 1-1 2-2 3-3.9 3.1-6 6.1-6 8.1zm-167.6 5c11 7 27.1 16.1 48.2 25.1 2 5 5 11 8 16.1s6 10 9 15.1c3 5 6 9 10 12 4 4 8 8 12 10 4 3 8 5 12 7l1 1c4 1 7 2 11 3s9 1 14.1 1c6 0 11-1 15.1-2 5-2 8-4 12-6 3-3 6-6 7-9 2-3 3-7 3-11 0-3-1-5-2-7-1-3-4-4-9-4-3 0-5 2-6 4s-1 6 0 10v3c-1 1-1 2-2 3s-3 2-5 3-4 1-7 1c-4 0-9-1-13-3s-9-6-15.1-11c-5-4-9-10-13-16.1-1-1-1-2-2-3 27.1 6 59.2 9 88.3 11 8 1 15.1 1 22.1 2 0 14.1 6 28.1 17.1 37.1-3 4-6 8-10 13s-8 11-12 16.1c1-2 1-4 0-6s-2-4-4-6c-3-3-6-4-10-5s-8-1-12-1c-4 1-8 2-12 5-4 2-8 6-12 10-3 4-6 7-8 11l-6 12c-1 4-2 9-3 13.1-1 5-1 10 0 16.1 0 5 1 10 2 15.1s3 11 5 16.1 4 10 6 15.1c-8 25.1-12 46.2-14.1 59.2C81.3 587.6 30.1 476.2 54.2 367.7zm189.7 122.5c-12 17.1-25.1 35.1-34.1 52.2 0-1 0-2-1-2-2-7-3-14.1-4-21.1 0-7 0-14.1 1-18.1 1-5 3-9 6-12 2-2 3-3 5-4s3-2 5-2h4c1 0 2 1 3 2 2 4 5 6 7 6 4.1 1 7.1 0 8.1-1zm-5 172.7c7-11 18.1-29.1 28.1-53.2 5-2 11-5 16.1-8 5-3 10-6 15.1-9 5-3 9-6 12-10 4-4 8-8 10-12 3-4 5-8 7-12s3-8 4-12 1-9 1-14.1c0-6-1-11-2-15.1-2-5-4-8-6-12-3-3-6-6-9-7-1 0-1-1-2-1-3-1-6-2-9-2s-5 1-7 2-4 3-4 8c0 3 2 5 4 6s6 1 10 0h3c1 1 2 1 3 3 1 1 2 3 3 5s1 4 1 7c0 4-1 9-3 13s-6 9-11 15.1c-4 5-10 9-16.1 13-1 1-2 1-3 2 6-27.1 9-59.2 11-88.3 0-5 1-11 1-16.1 15.1 1 29.1-5 39.1-16.1 6 4 11 8 17.1 13 23.1 17.1 48.2 37.1 73.3 50.2-1 0-3 1-4 1-7 2-14.1 3-21.1 4-7 0-14.1 0-18.1-1-5-1-9-3-12-6-2-2-3-3-4-5s-2-3-2-5v-4c0-1 1-2 2-3 4-2 5-5 6-7 1-3 0-5-2-8-3-3-6-4-9-2-2 1-4 2-6 4-3 3-4 6-5 10s-1 8-1 12c1 4 2 8 5 12 2 4 6 8 10 12 4 3 7 6 11 8 3 2 7 4 10 5l1 1c4 1 9 2 13 3 5 1 10 1 16.1 0 5 0 10-1 15.1-2s11-3 16.1-5 11-4 16.1-7c22.1 7 40.2 11 53.2 13-55.2 97.5-168.7 146.7-277.1 120.6z"/></svg>