<svg xmlns="http://www.w3.org/2000/svg" viewBox="0 0 28.7 32.6"><g fill="#26201A"><path d="M24.8 21c3.3-5.7 4.6-11.8 3.6-16.8-.3-1.6-1.5-2.9-3.1-3.4L23.4.2c-.3-.2-.5-.2-.7-.2-2.6 0-4.1 4.1-4.6 6.2-.6 2.6-.1 4.4 1.2 5l1.3.6c.6 1.6.2 3.9-1 6s-3 3.6-4.7 3.9l-1.2-.7c-.4-.3-.8-.4-1.3-.4-2.4 0-5.9 3.7-6.8 6.1-.7 1.9 0 3 .4 3.4l1.5 1.4c.8.8 1.9 1.2 3.1 1.2.5 0 1-.1 1.4-.2 4.9-1.7 9.5-5.9 12.8-11.5zm-.9-.6c-3 5.1-7.3 9.4-12.1 11-.4.1-.7.2-1.1.2-.9 0-1.7-.3-2.3-.9l-1.5-1.4c-1.9-1.7 3.2-7.6 5.6-7.6.2 0 .5.1.6.2l1.5 1.1c2.3-.2 4.6-2.1 5.9-4.5 1.4-2.4 1.9-5.3.9-7.4l-1.7-.7c-2.1-.9.4-9.2 3-9.2.1 0 .2 0 .4.1l1.9.5c1.2.4 2.1 1.4 2.4 2.6.9 4.9-.6 10.9-3.5 16zM10.5 2.2C7 3.4 4.2 5.8 2.6 9c-1.7 3.3-2 7-.8 10.4.1.3-.1.6-.4.7h-.2c-.2 0-.4-.1-.5-.4C-.5 16-.2 12 1.6 8.5 3.4 5 6.4 2.4 10.2 1.2c.3-.1.6.1.7.4 0 .2-.1.5-.4.6z"/><path d="M12 7c-2.2.7-4 2.2-5 4.3-1 2.1-1.2 4.4-.5 6.6.1.3-.1.6-.4.7h-.2c-.2 0-.4-.1-.5-.4-.8-2.5-.6-5.1.6-7.4 1.2-2.3 3.2-4 5.7-4.9.3-.1.6.1.7.4.1.3-.1.6-.4.7zm1.6 4.7c-1.9.6-3 2.7-2.3 4.6.1.3-.1.6-.4.7h-.2c-.2 0-.4-.1-.5-.4-.8-2.5.6-5.2 3.1-6 .3-.1.6.1.7.4 0 .3-.1.6-.4.7z"/></g></svg>