<svg xmlns="http://www.w3.org/2000/svg" viewBox="0 0 595.3 841.9"><path opacity=".7" fill="#FFF" d="M24.8 430.3C68.2 543.1 179.7 612 297.4 612c31 0 62-6.3 86.7-12.5l86.7 213c6.2 12.5 12.4 18.8 24.8 18.8H508c12.4-6.3 18.6-18.8 12.4-37.6l-86.7-213c62-31.3 111.5-87.7 136.3-150.4 31-75.2 31-156.7 0-225.6-49.6-119.1-154.9-188-272.6-188-43.4 0-80.5 6.3-117.7 25.1C31 104.5-37.2 280 24.8 430.3zM198.3 92c31-12.5 62-18.8 92.9-18.8 99.1 0 185.9 56.4 223 150.4 24.8 62.7 24.8 125.3 0 188-18.6 56.4-62 106.5-123.9 131.6-31 12.5-62 18.8-92.9 18.8-99.1 0-185.9-56.4-223-150.4C18.6 286.2 80.6 142.1 198.3 92z"/></svg>