<?xml version="1.0" standalone="no"?>
<!DOCTYPE svg PUBLIC "-//W3C//DTD SVG 1.1//EN" "http://www.w3.org/Graphics/SVG/1.1/DTD/svg11.dtd" >
<svg>
<metadata>
Created by FontForge 20090622 at Tue Oct 20 10:46:31 2015
 By deploy user
Copyright &#194;&#169; 2015 by Connary Fagen. All rights reserved.
</metadata>
<defs>
<font id="VentiCF-DemiBold" horiz-adv-x="801" >
  <font-face 
    font-family="Venti CF Demi Bold"
    font-weight="600"
    font-stretch="normal"
    units-per-em="1180"
    panose-1="0 0 7 0 0 0 0 0 0 0"
    ascent="944"
    descent="-236"
    x-height="495"
    cap-height="800"
    bbox="-132.03 -429.267 1344.89 1115"
    underline-thickness="50"
    underline-position="-50"
    unicode-range="U+0020-U+FB02"
  />
<missing-glyph horiz-adv-x="500" 
d="M0 0v700h500v-700h-500zM250 395l170 255h-340zM280 350l170 -255v510zM80 50h340l-170 255zM50 605v-510l170 255z" />
    <glyph glyph-name="fi" unicode="fi" horiz-adv-x="636" 
d="M228 495h317q16 0 16 -16v-462q0 -17 -15 -17h-56q-18 0 -28 11t-10 29v354h-224v-377q0 -17 -16 -17h-55q-38 0 -38 41v353h-71q-13 0 -13 11v61q0 29 30 29h54v109q0 98 57.5 149.5t149.5 51.5q71 0 127 -34q14 -8 7 -21l-28 -62q-6 -13 -22 -8q-44 22 -81 22t-69 -23
t-32 -75v-109z" />
    <glyph glyph-name="fl" unicode="fl" horiz-adv-x="655" 
d="M491 800h76q16 0 16 -16v-767q0 -17 -15 -17h-55q-18 0 -28 11t-10 29v616q-66 49 -139 49q-42 0 -75 -25t-33 -80v-105h119q13 0 13 -13v-76q0 -12 -13 -12h-119v-377q0 -17 -16 -17h-55q-38 0 -38 41v353h-71q-13 0 -13 11v61q0 29 30 29h54v105q0 102 58.5 155
t155.5 53q67 0 142 -42v18q0 16 16 16z" />
    <glyph glyph-name="f_f" unicode="ff" horiz-adv-x="778" 
d="M805 771q14 -7 7 -21l-27 -62q-7 -13 -22 -8q-47 22 -82 22q-37 0 -69 -23t-32 -75v-109h120q12 0 12 -13v-76q0 -12 -12 -12h-120v-377q0 -17 -16 -17h-55q-38 0 -38 41v353h-243v-377q0 -17 -16 -17h-55q-38 0 -38 41v353h-71q-13 0 -13 11v61q0 29 30 29h54v105
q0 102 58.5 155t155.5 53q88 0 183 -68q55 65 162 65q71 0 127 -34zM228 495h243v109q0 25 5 52q-68 49 -140 49q-42 0 -75 -25t-33 -80v-105z" />
    <glyph glyph-name="f_f_i" unicode="ffi" horiz-adv-x="988" 
d="M580 495h317q16 0 16 -16v-462q0 -17 -15 -17h-56q-18 0 -28 11t-10 29v354h-224v-377q0 -17 -16 -17h-55q-38 0 -38 41v353h-243v-377q0 -17 -16 -17h-55q-38 0 -38 41v353h-71q-13 0 -13 11v61q0 29 30 29h54v105q0 102 58.5 155t155.5 53q88 0 183 -68q55 65 162 65
q71 0 127 -34q14 -7 7 -21l-27 -62q-5 -9 -15 -9q-5 0 -8 1q-44 22 -81 22t-69 -23t-32 -75v-109zM228 495h243v109q0 25 5 52q-68 49 -140 49q-42 0 -75 -25t-33 -80v-105z" />
    <glyph glyph-name="f_f_l" unicode="ffl" horiz-adv-x="1007" 
d="M843 800h77q16 0 16 -16v-767q0 -17 -16 -17h-54q-18 0 -28.5 11t-10.5 29v616q-66 49 -139 49q-42 0 -75 -25t-33 -80v-105h119q13 0 13 -13v-76q0 -12 -13 -12h-119v-377q0 -17 -16 -17h-55q-38 0 -38 41v353h-243v-377q0 -17 -16 -17h-55q-38 0 -38 41v353h-71
q-13 0 -13 11v61q0 29 30 29h54v105q0 102 58.5 155t155.5 53q90 0 183 -68q56 68 169 68q67 0 142 -42v18q0 16 16 16zM228 495h243v105q0 27 5 55q-65 50 -140 50q-42 0 -75 -25t-33 -80v-105z" />
    <glyph glyph-name="f_b.liga" unicode="fb" horiz-adv-x="1015" 
d="M736 500q92 0 160.5 -69t68.5 -177q0 -112 -64 -186t-168 -74q-76 0 -136 43q-4 -17 -19.5 -27t-32.5 -10h-41q-6 0 -10.5 4.5t-4.5 11.5v629q-72 60 -153 60q-42 0 -75 -25t-33 -80v-105h119q13 0 13 -13v-76q0 -12 -13 -12h-119v-377q0 -17 -16 -17h-55q-38 0 -38 41
v353h-71q-13 0 -13 11v61q0 29 30 29h54v105q0 102 58.5 155t155.5 53q73 0 151 -47l-4 18q-4 21 11 21h68q17 0 28 -10t11 -26v-302q62 38 138 38zM715 95q63 0 103 43t40 116q0 71 -42.5 108t-96.5 37q-60 0 -121 -39v-232q59 -33 117 -33z" />
    <glyph glyph-name="f_f_b.liga" unicode="ffb" horiz-adv-x="1374" 
d="M1095 500q92 0 160.5 -69t68.5 -177q0 -112 -64 -186t-168 -74q-74 0 -136 43q-4 -17 -19.5 -27t-32.5 -10h-41q-6 0 -10.5 4.5t-4.5 11.5v629q-72 60 -153 60q-42 0 -75 -25t-33 -80v-105h120q12 0 12 -13v-76q0 -12 -12 -12h-120v-377q0 -17 -16 -17h-55q-38 0 -38 41
v353h-250v-377q0 -17 -16 -17h-55q-38 0 -38 41v353h-71q-13 0 -13 11v61q0 29 30 29h54v105q0 102 58.5 155t155.5 53q93 0 187 -71q56 71 172 71q73 0 151 -47l-4 18q-4 21 11 21h68q18 0 28.5 -10t10.5 -26v-302q65 38 138 38zM228 495h250v105q0 30 4 51q-69 54 -146 54
q-42 0 -75 -25t-33 -80v-105zM1075 95q62 0 102 43t40 116q0 71 -42.5 108t-96.5 37q-60 0 -121 -39v-232q59 -33 118 -33z" />
    <glyph glyph-name="f_f_h.liga" unicode="ffh" horiz-adv-x="1395" 
d="M1344 21q4 -21 -10 -21h-65q-39 0 -39 40v260q0 49 -31 76.5t-81 27.5q-77 0 -145 -66v-322q0 -16 -16 -16h-78q-15 0 -15 16v617q-83 72 -168 72q-42 0 -75 -25t-33 -80v-105h119q13 0 13 -13v-76q0 -12 -13 -12h-119v-377q0 -17 -16 -17h-55q-38 0 -38 41v353h-251
v-377q0 -17 -16 -17h-55q-38 0 -38 41v353h-71q-13 0 -13 11v61q0 29 30 29h54v105q0 102 58.5 155t155.5 53q93 0 188 -72q57 72 172 72q82 0 169 -58q-1 8 -6 29q-4 21 11 21h68q17 0 27.5 -10t10.5 -26v-322q78 60 160 60q83 0 144 -50.5t61 -139.5v-222q1 -38 6 -69z
M228 495h251v105q0 29 4 50q-68 55 -147 55q-42 0 -75 -25t-33 -80v-105z" />
    <glyph glyph-name="f_h.liga" unicode="fh" horiz-adv-x="1035" 
d="M984 21q4 -21 -11 -21h-65q-18 0 -28.5 11t-10.5 29v260q0 49 -30.5 76.5t-80.5 27.5q-76 0 -146 -67v-321q0 -16 -15 -16h-78q-15 0 -15 16v617q-83 72 -168 72q-42 0 -75 -25t-33 -80v-105h119q13 0 13 -13v-76q0 -12 -13 -12h-119v-377q0 -17 -16 -17h-55
q-38 0 -38 41v353h-71q-13 0 -13 11v61q0 29 30 29h54v105q0 102 58.5 155t155.5 53q83 0 168 -58l-6 29q-4 21 11 21h68q17 0 27.5 -10t10.5 -26v-323q77 61 160 61t144.5 -50.5t61.5 -139.5v-222q1 -38 6 -69z" />
    <glyph glyph-name="f_j.liga" unicode="fj" horiz-adv-x="633" 
d="M228 495h319q16 0 16 -16v-579q0 -135 -112 -190q-15 -6 -22 6l-37 74q-7 13 8 21q54 26 54 89v494h-226v-377q0 -17 -16 -17h-55q-38 0 -38 41v353h-71q-13 0 -13 11v61q0 29 30 29h54v109q0 98 57.5 149.5t149.5 51.5q71 0 127 -34q14 -8 7 -21l-28 -62q-6 -13 -22 -8
q-44 22 -81 22t-69 -23t-32 -75v-109z" />
    <glyph glyph-name=".notdef" horiz-adv-x="500" 
d="M0 0v700h500v-700h-500zM250 395l170 255h-340zM280 350l170 -255v510zM80 50h340l-170 255zM50 605v-510l170 255z" />
    <glyph glyph-name=".null" horiz-adv-x="0" 
 />
    <glyph glyph-name="nonmarkingreturn" horiz-adv-x="393" 
 />
    <glyph glyph-name="space" unicode=" " horiz-adv-x="275" 
 />
    <glyph glyph-name="exclam" unicode="!" horiz-adv-x="260" 
d="M86 800h89q6 0 10.5 -4.5t4.5 -10.5v-11l-16 -441q-2 -16 -15 -16h-56q-14 0 -16 16l-17 441v11q0 15 16 15zM130 -5q-30 0 -52 21.5t-22 51.5t22 51.5t52 21.5t51.5 -21.5t21.5 -51.5t-21.5 -51.5t-51.5 -21.5z" />
    <glyph glyph-name="quotedbl" unicode="&#x22;" horiz-adv-x="356" 
d="M93 510h-47q-6 0 -11 4.5t-5 11.5v238q0 16 16 16h68q8 0 12.5 -4.5t3.5 -11.5l-21 -238q-2 -16 -16 -16zM288 510h-47q-6 0 -11 4.5t-5 11.5v238q0 16 16 16h69q7 0 12 -4.5t4 -11.5l-22 -238q-2 -16 -16 -16z" />
    <glyph glyph-name="numbersign" unicode="#" horiz-adv-x="662" 
d="M503 574h108q15 0 15 -16v-40q0 -16 -15 -16h-118l-26 -185h106q15 0 15 -16v-40q0 -7 -4.5 -11.5t-10.5 -4.5h-116l-33 -229q-4 -16 -16 -16h-41q-7 0 -12 4.5t-4 11.5l33 229h-148l-33 -229q-4 -16 -16 -16h-40q-8 0 -12.5 4.5t-3.5 11.5l33 229h-112q-16 0 -16 15v41
q0 16 16 16h122l26 185h-110q-16 0 -16 15v41q0 16 16 16h120l30 210q2 16 16 16h40q7 0 12 -5t4 -11l-30 -210h149l30 210q2 16 16 16h40q7 0 12 -4.5t4 -11.5zM394 317l27 185h-149l-26 -185h148z" />
    <glyph glyph-name="dollar" unicode="$" horiz-adv-x="637" 
d="M591 214q0 -80 -61.5 -142.5t-159.5 -77.5v-72q0 -15 -14 -15h-81q-15 0 -15 15v73q-24 4 -46.5 11t-41.5 17l-33.5 18t-30 20t-22.5 18t-18 17l-12 11q-16 16 -5 28l44 51q16 18 33 5q3 -2 17 -14.5t23.5 -20t27.5 -19.5t34.5 -19.5t39 -13t44.5 -5.5q73 0 114.5 33
t41.5 84q0 24 -10 43.5t-22.5 32t-40.5 26t-45.5 20.5t-55.5 20q-11 4 -17 6q-47 17 -82.5 35.5t-68 45.5t-50 64.5t-17.5 83.5q0 76 50 139t149 79v72q0 15 15 15h81q14 0 14 -15v-72q63 -10 112 -39t74 -54q17 -17 6 -30l-39 -52q-14 -21 -32 -7q-2 1 -20 15t-30.5 22
t-33 19.5t-43.5 17t-47 5.5q-65 0 -102.5 -33.5t-37.5 -81.5q0 -50 39.5 -77.5t132.5 -60.5q50 -18 86 -35.5t75 -46t60 -69t21 -90.5z" />
    <glyph glyph-name="percent" unicode="%" horiz-adv-x="672" 
d="M62 21l445 757q7 13 20 13h68q23 0 13 -19l-445 -757q-9 -14 -20 -14h-69q-9 0 -12.5 6t0.5 14zM126 609q-34 0 -58.5 24.5t-24.5 58.5t24.5 58t58.5 24t58.5 -24t24.5 -58t-24.5 -58.5t-58.5 -24.5zM547 10q-35 0 -59 24t-24 59q0 34 24.5 58.5t58.5 24.5t58 -24.5
t24 -58.5t-24 -58.5t-58 -24.5z" />
    <glyph glyph-name="ampersand" unicode="&#x26;" horiz-adv-x="674" 
d="M613 345h-38q-33 -97 -69 -168q19 -22 30.5 -33.5t36.5 -26t52 -17.5q20 -2 20 -19v-60q0 -18 -17 -19q-115 -5 -199 85q-56 -56 -111 -72q-49 -15 -99.5 -15.5t-101 19t-83.5 59.5q-42 48 -51 110.5t14 115.5q31 79 138 137q-41 51 -57 73q-36 50 -38 110.5t31 107.5
q32 48 75 68.5t104 21.5q136 2 189 -105q18 -37 20.5 -74.5t-11.5 -76.5t-53 -78t-101 -72l132 -155q25 51 59 161q3 19 23 19h122q8 0 13 -5.5t3 -12.5q-15 -55 -16 -65q-2 -13 -17 -13zM149 639q-6 -55 73 -134q6 -6 0 -15q138 82 129 150q-6 49 -43 71t-85 11
q-30 -7 -50 -30t-24 -53zM252 108q73 9 115 59l-167 199q-69 -30 -94 -89t11 -114q21 -32 58 -46t77 -9z" />
    <glyph glyph-name="quotesingle" unicode="'" horiz-adv-x="161" 
d="M93 510h-47q-6 0 -11 4.5t-5 11.5v238q0 16 16 16h68q8 0 12.5 -4.5t3.5 -11.5l-21 -238q-2 -16 -16 -16z" />
    <glyph glyph-name="parenleft" unicode="(" horiz-adv-x="424" 
d="M384 -22l-3 -77q0 -15 -15 -13q-159 25 -240 153.5t-81 339.5q0 216 81 343t241 152q7 1 10.5 -3t3.5 -11l3 -73q0 -13 -13 -14q-216 -32 -216 -394q0 -359 216 -389q13 -1 13 -14z" />
    <glyph glyph-name="parenright" unicode=")" horiz-adv-x="424" 
d="M33 -99l-3 77q0 13 13 14q216 30 216 389q0 362 -216 394q-13 1 -13 14l3 73q0 7 3.5 11t10.5 3q160 -25 241 -152t81 -343q0 -211 -81 -339.5t-240 -153.5q-15 -2 -15 13z" />
    <glyph glyph-name="asterisk" unicode="*" horiz-adv-x="406" 
d="M256 614l108 -63q14 -8 5 -22l-17 -27q-7 -15 -22 -5l-98 65l3 -118q0 -16 -16 -16h-32q-16 0 -16 16l3 119l-98 -66q-14 -10 -23 5l-17 27q-7 15 6 22l108 63l-108 63q-14 7 -6 21l17 28q10 14 23 5l99 -66l-4 119q0 16 16 16h32q16 0 16 -16l-4 -118l98 65q15 9 23 -5
l17 -28q9 -14 -6 -21z" />
    <glyph glyph-name="plus" unicode="+" horiz-adv-x="629" 
d="M368 421h175q16 0 16 -16v-74q0 -16 -16 -16h-175v-175q0 -16 -17 -16h-73q-16 0 -16 16v175h-176q-16 0 -16 16v74q0 16 16 16h176v176q0 16 16 16h73q17 0 17 -16v-176z" />
    <glyph glyph-name="comma" unicode="," horiz-adv-x="234" 
d="M187 55q8 -55 -8 -118q-19 -71 -80 -116q-11 -7 -17 -1l-14 17q-5 5 -1 11q64 58 62 130l-1 17q-10 -2 -17 -2q-28 0 -47 18.5t-19 47.5q0 30 18.5 49t47.5 19q47 0 65 -40q10 -18 11 -32z" />
    <glyph glyph-name="hyphen" unicode="-" horiz-adv-x="416" 
d="M376 282v-66q0 -16 -16 -16h-303q-17 0 -17 16v66q0 16 17 16h303q16 0 16 -16z" />
    <glyph glyph-name="period" unicode="." horiz-adv-x="234" 
d="M117 -6q-29 0 -50.5 21.5t-21.5 50.5t21.5 51t50.5 22q30 0 51 -21.5t21 -51.5q0 -29 -21 -50.5t-51 -21.5z" />
    <glyph glyph-name="slash" unicode="/" horiz-adv-x="393" 
d="M274 800h73q9 0 13.5 -5t2.5 -12l-226 -765q-5 -18 -18 -18h-73q-8 0 -13 5.5t-4 12.5l226 765q5 17 19 17z" />
    <glyph glyph-name="zero" unicode="0" horiz-adv-x="698" 
d="M349 -12q-103 0 -172 55t-98 141t-29 198q0 113 29 199.5t98 142.5t172 56q77 0 136 -31.5t94 -87.5t52 -126t17 -153t-17 -152.5t-52 -124.5t-94 -86t-136 -31zM350 97q186 0 186 285q0 289 -186 289q-187 0 -187 -289q0 -285 187 -285z" />
    <glyph glyph-name="one" unicode="1" horiz-adv-x="325" 
d="M182 770h71q7 0 12 -4.5t5 -11.5v-737q0 -17 -17 -17h-79q-17 0 -17 17v572l-95 -23q-15 -3 -18 12l-9 57q-1 14 13 18q59 20 118 108l1 2q4 7 15 7z" />
    <glyph glyph-name="two" unicode="2" horiz-adv-x="592" 
d="M238 109h292q15 0 15 -16v-77q0 -6 -10.5 -11t-18.5 -5h-448q-15 0 -17 16v27l295 347q42 47 64 86t22 81q0 51 -41 86t-100 35q-92 0 -172 -95q-4 -6 -11 -6t-12 6l-46 49q-11 13 -1 24q44 64 109.5 97t138.5 33q99 0 173 -65t74 -163q0 -93 -72 -178z" />
    <glyph glyph-name="three" unicode="3" horiz-adv-x="611" 
d="M90 770h437q16 0 16 -16v-79q0 -17 -11 -29l-190 -200q49 0 96 -25q57 -23 92.5 -78.5t35.5 -120.5q0 -96 -75.5 -164t-175.5 -68q-158 0 -265 138q-10 13 1 22l55 52q11 11 22 -2q32 -42 81 -71.5t100 -29.5q67 0 104 41.5t37 93.5q0 49 -32.5 85.5t-85.5 36.5
q-14 0 -28.5 -3.5t-30.5 -9.5t-24 -8q-8 -1 -16 7l-43 57q-8 13 1 23l223 239h-324q-7 0 -12.5 4.5t-5.5 11.5v76q0 17 18 17z" />
    <glyph glyph-name="four" unicode="4" horiz-adv-x="605" 
d="M479 303h65q16 0 16 -17v-75q0 -7 -4.5 -12t-11.5 -5h-65v-178q0 -16 -17 -16h-74q-18 0 -18 16v178h-307q-7 0 -12 4.5t-5 11.5l-1 76q0 10 9 15q139 110 202 272q33 90 35 192q0 15 15 15h86q16 0 16 -16q-5 -167 -70 -296q-45 -88 -128 -165h160v51q0 14 15 18l77 9
q7 1 12 -4t5 -13v-61z" />
    <glyph glyph-name="five" unicode="5" horiz-adv-x="598" 
d="M190 660v-221q62 38 136 38q100 0 163.5 -74t63.5 -172q0 -99 -72.5 -170t-177.5 -71q-72 0 -138.5 34t-114.5 97q-9 12 0 22l54 57q11 10 22 -2q29 -43 75.5 -71t101.5 -28q61 0 96.5 39.5t35.5 94.5q0 56 -38.5 96t-93.5 40q-57 0 -113 -42l-96 19q-17 2 -17 18v389
q0 17 17 17q134 -4 202 -4t198 4q17 0 17 -16v-75q0 -15 -17 -17q-80 -5 -178 -5q-78 0 -126 3z" />
    <glyph glyph-name="six" unicode="6" horiz-adv-x="613" 
d="M314 482q106 0 180 -70.5t74 -174.5q0 -105 -73 -176t-186 -71q-124 0 -194 91t-70 239q0 115 40.5 216.5t125.5 170.5t199 73q18 2 18 -15l2 -74q0 -12 -16 -12q-58 0 -107 -26t-80 -67t-49 -87.5t-22 -91.5q61 75 158 75zM308 90q60 0 105 43.5t45 103.5
q0 61 -42.5 104t-103.5 43t-107.5 -43t-46.5 -98q0 -63 43 -108t107 -45z" />
    <glyph glyph-name="seven" unicode="7" horiz-adv-x="588" 
d="M548 754v-31q0 -8 -5 -20l-353 -695q-4 -8 -21 -8h-86q-7 0 -9.5 6.5t-0.5 12.5l330 642h-351q-7 0 -12 4.5t-5 10.5v77q0 16 17 16h481q15 0 15 -15z" />
    <glyph glyph-name="eight" unicode="8" horiz-adv-x="597" 
d="M185 402l4 -3q-46 -11 -95 -63.5t-49 -125.5q0 -95 68.5 -157.5t184.5 -62.5t185 62.5t69 157.5q0 74 -46 124t-98 65l4 3q48 19 84.5 61.5t36.5 105.5q0 91 -67 151t-168 60q-100 0 -166.5 -60t-66.5 -151q0 -63 36.5 -106t83.5 -61zM431 571q0 -45 -38.5 -80.5
t-94.5 -35.5t-94 35t-38 81q0 48 38.5 82t93.5 34q56 0 94.5 -34t38.5 -82zM298 84q-62 0 -104.5 36t-42.5 92q0 54 40 94t107 40q68 0 107.5 -40t39.5 -94q0 -57 -42 -92.5t-105 -35.5z" />
    <glyph glyph-name="nine" unicode="9" horiz-adv-x="613" 
d="M300 288q-107 0 -181 70.5t-74 174.5q0 105 73 176t186 71q124 0 194 -91t70 -239q0 -85 -24 -165.5t-68.5 -145.5t-115 -105.5t-156.5 -43.5q-18 -2 -18 15l-3 74q0 12 17 12q58 0 106.5 26t79.5 67t49 87.5t22 91.5q-61 -75 -157 -75zM305 680q-60 0 -104.5 -43.5
t-44.5 -103.5q0 -61 42.5 -104t103.5 -43q60 0 106.5 43t46.5 98q0 63 -43 108t-107 45z" />
    <glyph glyph-name="colon" unicode=":" horiz-adv-x="274" 
d="M137 338q-29 0 -50 21t-21 50t21 50.5t50 21.5t50.5 -21.5t21.5 -50.5t-21.5 -50t-50.5 -21zM137 24q-29 0 -50.5 21t-21.5 50t21.5 50.5t50.5 21.5t50.5 -21.5t21.5 -50.5t-21.5 -50t-50.5 -21z" />
    <glyph glyph-name="semicolon" unicode=";" horiz-adv-x="370" 
d="M137 338q-29 0 -50 21t-21 50t21 50.5t50 21.5t50.5 -21.5t21.5 -50.5t-21.5 -50t-50.5 -21zM218 90q8 -60 -9 -124q-21 -75 -84 -121q-10 -9 -18 -1l-15 18q-6 5 -1 11q68 62 66 137l-1 16q-12 -2 -18 -2q-29 0 -49.5 20t-20.5 51t19.5 50.5t50.5 19.5q52 0 68 -42
q9 -15 12 -33z" />
    <glyph glyph-name="less" unicode="&#x3c;" horiz-adv-x="501" 
d="M40 374v-8q0 -10 9 -14l370 -225q7 -5 14.5 -1t7.5 13v71q0 9 -9 14l-253 147l254 150q8 8 8 14v70q0 10 -7.5 14t-14.5 -1l-370 -230q-9 -5 -9 -14z" />
    <glyph glyph-name="equal" unicode="=" horiz-adv-x="600" 
d="M542 538v-66q0 -17 -16 -17h-451q-17 0 -17 16v66q0 17 17 17h451q16 0 16 -16zM542 266v-66q0 -16 -16 -16h-451q-17 0 -17 16v66q0 17 17 17h451q16 0 16 -17z" />
    <glyph glyph-name="greater" unicode="&#x3e;" horiz-adv-x="501" 
d="M461 369v7q0 10 -9 15l-370 227q-8 5 -15 1t-7 -14v-70q0 -6 8 -14l254 -149l-253 -148q-9 -5 -9 -14v-71q0 -9 7 -13t15 1l370 227q9 5 9 15z" />
    <glyph glyph-name="question" unicode="?" horiz-adv-x="465" 
d="M63 638l-42 46q-9 9 0 20q88 109 219 109q49 -2 96 -19q42 -16 71 -53t39 -80t-1.5 -88.5t-44.5 -77.5q-29 -27 -60 -49l-43 -30.5t-20 -28.5t-8 -56q0 -17 -16 -17h-69q-16 0 -16 17l-2 54q0 28 27.5 56.5t60.5 49t61.5 51t29.5 61.5q4 52 -29 83.5t-95 31.5
q-32 0 -62.5 -16t-41.5 -27t-35 -37q-11 -11 -19 0zM217 -5q-30 0 -52 21.5t-22 51.5t22 52t52 22t51.5 -22t21.5 -52t-21.5 -51.5t-51.5 -21.5z" />
    <glyph glyph-name="at" unicode="@" horiz-adv-x="1167" 
d="M600 815q112 0 209.5 -42t161 -108.5t100 -146t36.5 -157.5q0 -51 -6.5 -98t-23.5 -95.5t-44 -84t-72 -58t-103 -22.5q-89 0 -117 84l-8 8q-13 -23 -52 -49q-58 -38 -130 -42q-61 -5 -114.5 20t-66.5 86q-21 97 65 144q58 32 233 65h1h1l1 1h1h1h1h1l1 1h1h1q3 76 -85 81
q-79 7 -167 -36q-18 -9 -24 7l-19 56q-4 13 11 22q92 52 203 49q93 -2 142 -51.5t47 -133.5q-2 -60 -2 -82q1 -44 8 -71.5t20 -39.5t25 -15.5t33 -3.5q48 0 78.5 36t42 90t11.5 126q0 49 -17 99t-51.5 96.5t-82.5 83t-114.5 58t-141.5 21.5q-186 0 -309 -123.5t-123 -306.5
q0 -103 47.5 -197.5t136 -159.5t198.5 -77q13 -2 13 -18v-73q0 -12 -26 -10q-144 14 -253.5 96t-164 197t-54.5 242q0 145 70 267t194.5 193.5t275.5 71.5zM509 94q41 -12 87.5 4t81.5 44q-3 35 -1 99q-9 -2 -32 -6t-36 -6.5t-34 -7.5t-34 -9t-28 -10t-24 -12.5t-13 -14.5
q-15 -20 -6 -46t39 -35z" />
    <glyph glyph-name="A" unicode="A" horiz-adv-x="876" 
d="M458 796l375 -778q9 -18 -9 -18h-91q-12 0 -17 11l-61 130h-432l-61 -130q-6 -11 -17 -11h-92q-8 0 -11 5.5t0 12.5l377 778q4 9 13 9h13q8 0 13 -9zM272 244h334l-167 354z" />
    <glyph glyph-name="B" unicode="B" horiz-adv-x="687" 
d="M499 426q63 -29 99 -83t36 -120q0 -96 -71.5 -159.5t-167.5 -63.5h-323q-17 0 -17 17v767q0 16 16 16h298q92 0 157 -66t65 -145q0 -53 -25 -95t-67 -68zM168 459h179q34 0 61 13t41 33.5t21 45t0.5 49t-20 45t-40.5 33.5t-61 13h-181v-232zM169 109h200q40 0 72 13.5
t48 35t24 47.5t0 52t-24.5 47.5t-48.5 35t-73 13.5h-198v-244z" />
    <glyph glyph-name="C" unicode="C" 
d="M683 195l64 -52q13 -11 -1 -25q-119 -125 -295 -125q-167 0 -286.5 118t-119.5 287q0 170 119.5 289.5t286.5 119.5q177 0 297 -126q14 -14 1 -24l-64 -52q-12 -10 -23 1q-88 92 -207 92q-130 0 -213.5 -91t-83.5 -209t83.5 -207t213.5 -89q117 0 204 89q12 13 24 4z" />
    <glyph glyph-name="D" unicode="D" horiz-adv-x="808" 
d="M76 800h268q96 0 175.5 -35t129.5 -92t77 -126.5t27 -142.5q0 -79 -27 -151.5t-77.5 -129t-129 -90t-174.5 -33.5h-268q-17 0 -17 17v767q0 16 16 16zM173 109h174q133 0 212 88t78 208q0 118 -77.5 202t-212.5 84h-175z" />
    <glyph glyph-name="E" unicode="E" horiz-adv-x="664" 
d="M585 691h-397v-244h230q17 0 17 -17v-75q0 -17 -17 -17h-229v-229h396q17 0 17 -17v-75q0 -17 -17 -17h-493q-17 0 -17 17v767q0 16 16 16h494q17 0 17 -16v-77q0 -16 -17 -16z" />
    <glyph glyph-name="F" unicode="F" horiz-adv-x="598" 
d="M66 800h485q17 0 17 -16v-77q0 -16 -17 -16h-388v-244h221q17 0 17 -17v-75q0 -17 -17 -17h-221v-321q0 -17 -15 -17h-60q-18 0 -28 11t-10 29v744q0 16 16 16z" />
    <glyph glyph-name="G" unicode="G" 
d="M753 339v-204q2 -8 -7 -17q-119 -125 -295 -125q-167 0 -286.5 118t-119.5 287q0 170 119.5 289.5t286.5 119.5q177 0 297 -126q14 -14 1 -24l-64 -52q-12 -10 -23 1q-88 92 -207 92q-130 0 -213.5 -91t-83.5 -209t83.5 -207t213.5 -89q103 0 186 72v74h-183
q-17 0 -17 16v74q0 18 16 18h279q17 0 17 -17z" />
    <glyph glyph-name="H" unicode="H" horiz-adv-x="816" 
d="M644 800h80q17 0 17 -16v-767q0 -17 -15 -17h-59q-18 0 -28.5 11t-10.5 29v296h-440v-319q0 -7 -4.5 -12t-11.5 -5h-80q-17 0 -17 17v767q0 16 16 16h80q17 0 17 -16v-335h440v335q0 16 16 16z" />
    <glyph glyph-name="I" unicode="I" horiz-adv-x="269" 
d="M173 800h-77q-16 0 -16 -16v-767q0 -17 17 -17h77q15 0 15 17v767q0 16 -16 16z" />
    <glyph glyph-name="J" unicode="J" horiz-adv-x="300" 
d="M112 800h69q18 0 28.5 -11t10.5 -29v-849q-1 -72 -36.5 -128.5t-94.5 -88.5q-16 -7 -23 5l-38 73q-8 15 8 21q71 41 71 121v816q0 8 -6 50q-4 20 11 20z" />
    <glyph glyph-name="K" unicode="K" horiz-adv-x="712" 
d="M305 416l364 -379q11 -12 6 -24.5t-21 -12.5h-84q-12 0 -21 9l-374 393v-386q0 -16 -16 -16h-81q-16 0 -16 16v710q-1 27 -6 54q-4 20 11 20h69q18 0 28.5 -9.5t10.5 -26.5v-334l330 361q7 9 20 9h86q15 0 19.5 -12t-4.5 -22z" />
    <glyph glyph-name="L" unicode="L" horiz-adv-x="621" 
d="M178 109h372q16 0 16 -17v-76q0 -16 -16 -16h-472q-13 0 -13 16v768q0 16 16 16h81q16 0 16 -16v-675z" />
    <glyph glyph-name="M" unicode="M" horiz-adv-x="1067" 
d="M909 800h67q16 0 16 -17v-766q0 -17 -16 -17h-79q-17 0 -17 17v551l-326 -533q-8 -12 -18 -12h-5q-11 0 -18 12l-325 533v-551q0 -7 -5 -12t-12 -5h-79q-17 0 -17 17v767q0 16 16 16h68q13 0 20 -11l355 -580l355 580q5 11 20 11z" />
    <glyph glyph-name="N" unicode="N" horiz-adv-x="840" 
d="M668 800h81q7 0 11.5 -4.5t4.5 -10.5v-770q0 -15 -15 -15h-28q-29 0 -71 46l-464 533v-562q0 -16 -16 -16l-79 -1q-17 0 -17 17v767q0 16 16 16h47q11 0 23 -13l492 -574v572q0 15 15 15z" />
    <glyph glyph-name="O" unicode="O" horiz-adv-x="938" 
d="M470 -7q169 0 288.5 118.5t119.5 289.5q0 169 -119.5 287.5t-288.5 118.5q-170 0 -290 -118.5t-120 -287.5q0 -171 119.5 -289.5t290.5 -118.5zM470 102q-122 0 -209.5 88t-87.5 211q0 121 87.5 209t209.5 88q121 0 208.5 -88t87.5 -209q0 -123 -87.5 -211t-208.5 -88z
" />
    <glyph glyph-name="P" unicode="P" horiz-adv-x="686" 
d="M86 800h296q122 0 198 -84t76 -184q0 -104 -75.5 -187t-198.5 -83h-199v-245q0 -17 -16 -17h-81q-16 0 -16 17v767q0 16 16 16zM183 371h190q78 0 124.5 48.5t46.5 112.5t-46.5 111.5t-124.5 47.5h-190v-320z" />
    <glyph glyph-name="Q" unicode="Q" horiz-adv-x="923" 
d="M823 -46q8 -8 7 -16t-8 -12l-60 -37q-16 -10 -31 -6.5t-24 18.5l-76 125q-77 -33 -161 -33q-171 0 -290.5 118.5t-119.5 289.5q0 169 120 287.5t290 118.5q169 0 288.5 -118.5t119.5 -287.5q0 -94 -39.5 -176.5t-108.5 -138.5l38 -63q31 -48 55 -69zM173 401
q0 -109 71.5 -193t176.5 -102l-11 3q-42 30 -42 83q0 51 37.5 86.5t93.5 35.5q81 0 137 -77q18 -25 36 -54q94 91 94 218q0 121 -87.5 209t-208.5 88q-122 0 -209.5 -88t-87.5 -209zM470 102q52 0 103 19l-20 34q-30 48 -77 48q-23 0 -39.5 -17t-16.5 -41q0 -27 25 -42
q8 -1 25 -1z" />
    <glyph glyph-name="R" unicode="R" horiz-adv-x="707" 
d="M480 278l180 -259q5 -7 2 -13t-13 -6h-74q-27 0 -48 32l-156 230h-198v-245q0 -17 -16 -17h-81q-16 0 -16 17v767q0 16 16 16h308q122 0 195.5 -84.5t73.5 -184.5q0 -80 -46 -152t-127 -101zM173 691v-320h198q80 0 124.5 48t44.5 114q0 65 -44.5 111.5t-124.5 46.5h-198
z" />
    <glyph glyph-name="S" unicode="S" horiz-adv-x="629" 
d="M50 137l44 50q16 17 32 5q2 -1 12 -10l16 -14t18.5 -14.5t22.5 -15.5t25 -14t28.5 -12.5t30.5 -7.5t33 -3q74 0 117 32t43 82q0 17 -4.5 31.5t-16.5 26.5l-20 20t-30.5 18l-31 14t-37.5 14.5t-36 13.5q-115 46 -175 97.5t-60 137.5q0 87 65 152.5t190 65.5
q56 0 110.5 -20t81.5 -38.5t45 -36.5q17 -17 6 -31l-39 -51q-14 -19 -32 -6q-2 1 -11.5 8.5l-15 12t-17 12.5t-20.5 13t-23 11t-26 10t-27.5 6.5t-30.5 2.5q-66 0 -104.5 -32t-38.5 -79t37.5 -73.5t122.5 -59.5q46 -18 73.5 -30.5t65.5 -35.5t59 -45.5t36.5 -56t15.5 -73.5
q0 -90 -77 -155.5t-194 -65.5q-50 0 -95 13t-81.5 38.5t-48.5 35.5t-33 30q-16 14 -5 27z" />
    <glyph glyph-name="T" unicode="T" horiz-adv-x="718" 
d="M62 800h595q16 0 16 -16v-77q0 -16 -16 -16h-241v-674q0 -17 -16 -17h-58q-39 0 -39 40v651h-241q-17 0 -17 16v76q0 17 17 17z" />
    <glyph glyph-name="U" unicode="U" horiz-adv-x="771" 
d="M685 801h-81q-16 0 -16 -17v-483q0 -95 -58.5 -147t-146.5 -52q-86 0 -143 51.5t-57 147.5v483q0 17 -16 17h-79q-18 0 -18 -17v-491q0 -129 84.5 -214.5t228.5 -85.5q145 0 231 86t87 214v491q0 17 -16 17z" />
    <glyph glyph-name="V" unicode="V" horiz-adv-x="834" 
d="M693 800h101q8 0 12.5 -6t0.5 -15l-368 -771q-6 -13 -18 -13h-8q-12 0 -18 13l-368 772q-4 8 0.5 14t12.5 6h101q11 0 18 -18l258 -562l258 562q9 18 18 18z" />
    <glyph glyph-name="W" unicode="W" horiz-adv-x="1138" 
d="M996 801h102q8 0 12.5 -6t0.5 -15l-375 -771q-6 -13 -18 -13h-8q-12 0 -19 13l-122 256l-122 -257q-7 -13 -19 -13h-8q-12 0 -18 13l-375 772q-4 8 0.5 14t12.5 6h102q9 0 18 -18l264 -565l82 180l-182 384q-4 8 0.5 14t12.5 6h101q11 0 18 -18l113 -248l113 247
q7 18 18 18h101q8 0 12.5 -6t0.5 -15l-182 -382l82 -180l264 566q9 18 18 18z" />
    <glyph glyph-name="X" unicode="X" horiz-adv-x="742" 
d="M438 400l269 -383q4 -6 2 -11.5t-9 -5.5h-109q-3 0 -5 1t-4 2.5t-3.5 3.5t-4 5t-3.5 5l-201 286l-201 -286q-11 -17 -19 -17h-110q-7 0 -9 5.5t2 11.5l269 383l-270 385q-4 6 -1.5 10.5t8.5 4.5h111q9 0 17 -15l203 -289l203 289q10 15 17 15h111q7 0 9 -4.5t-2 -10.5z
" />
    <glyph glyph-name="Y" unicode="Y" horiz-adv-x="760" 
d="M632 800h102q6 0 9 -5.5t-1 -12.5l-306 -456v-309q0 -17 -16 -17h-58q-18 0 -28.5 11t-10.5 29v286l-306 456q-4 7 -1 12.5t10 5.5h101q8 0 17 -15l235 -346l235 346q11 15 18 15z" />
    <glyph glyph-name="Z" unicode="Z" horiz-adv-x="652" 
d="M213 113h387q17 0 17 -16v-58q0 -18 -11.5 -28.5t-29.5 -10.5h-525q-16 0 -16 16v20l6 9l397 643h-382q-18 0 -18 16v79q0 17 18 17h542q17 0 17 -16v-17l-5 -9z" />
    <glyph glyph-name="bracketleft" unicode="[" horiz-adv-x="358" 
d="M304 794h-166v-884h166q14 0 14 -14v-70q0 -14 -14 -14h-250q-14 0 -14 14v1052q0 14 14 14h250q14 0 14 -14v-71q0 -13 -14 -13z" />
    <glyph glyph-name="backslash" unicode="\" horiz-adv-x="390" 
d="M44 800h74q13 0 18 -17l226 -765q1 -7 -4 -12.5t-12 -5.5h-74q-13 0 -18 18l-226 765q-1 7 3.5 12t12.5 5z" />
    <glyph glyph-name="bracketright" unicode="]" horiz-adv-x="358" 
d="M54 892h250q14 0 14 -14v-1052q0 -14 -14 -14h-250q-14 0 -14 14v70q0 14 14 14h166v884h-166q-14 0 -14 13v71q0 14 14 14z" />
    <glyph glyph-name="asciicircum" unicode="^" horiz-adv-x="604" 
d="M284 837l-256 -366q-6 -8 -1 -16.5t16 -8.5h63q9 0 15 8l181 257l180 -256q7 -9 16 -9h64q11 0 15.5 8.5t-1.5 16.5l-252 366q-4 11 -15 11h-9q-9 0 -16 -11z" />
    <glyph glyph-name="underscore" unicode="_" horiz-adv-x="542" 
d="M502 -16v-44q0 -17 -17 -17h-428q-7 0 -12 4.5t-5 11.5v44q0 17 17 17h428q17 0 17 -16z" />
    <glyph glyph-name="grave" unicode="`" horiz-adv-x="342" 
d="M49 731l210 -120q16 -8 22 5l20 35q8 12 -4 19l-200 136q-16 12 -25 -2l-29 -49q-10 -16 6 -24z" />
    <glyph glyph-name="a" unicode="a" horiz-adv-x="541" 
d="M486 22q-17 125 -10 285q4 90 -44 142t-138 52q-119 0 -212 -51q-17 -9 -11 -23l25 -58q6 -15 24 -7q95 43 167 43q87 0 84 -78q-65 -11 -106 -20t-87.5 -25t-72 -34.5t-43 -48t-17.5 -67.5q0 -65 44 -101t121 -36q58 0 96 14.5t75 43.5q9 -53 34 -53h60q13 0 11 22z
M229 81q-73 0 -73 52q0 17 12 31t29.5 23t46 18t52.5 14.5t58 12.5l15 3q-2 -56 0 -106q-63 -48 -140 -48z" />
    <glyph glyph-name="b" unicode="b" horiz-adv-x="595" 
d="M316 500q92 0 160.5 -69t68.5 -177q0 -112 -64 -186t-168 -74q-71 0 -136 43q-4 -17 -19.5 -27t-32.5 -10h-40q-16 0 -16 16v698q0 17 -8 65q-4 21 11 21h68q17 0 27.5 -10t10.5 -26v-303q63 39 138 39zM296 95q62 0 102 43t40 116q0 71 -42 108t-96 37q-61 0 -122 -39
v-232q59 -33 118 -33z" />
    <glyph glyph-name="c" unicode="c" horiz-adv-x="513" 
d="M431 138l38 -48q9 -13 -1 -23q-78 -74 -172 -74q-104 0 -180 73.5t-76 179.5t76 181t180 75q98 0 168 -70q10 -10 1 -23l-38 -48q-8 -11 -24 -1q-40 40 -104 40q-69 0 -111.5 -45.5t-42.5 -107.5t43 -107.5t112 -45.5q60 0 106 46q14 11 25 -2z" />
    <glyph glyph-name="d" unicode="d" horiz-adv-x="581" 
d="M415 800h68q17 0 27.5 -10t10.5 -26v-748q0 -7 -4.5 -11.5t-10.5 -4.5h-41q-16 0 -32 10.5t-19 27.5q-62 -45 -139 -45q-104 0 -169.5 74.5t-65.5 185.5q0 108 70 177t162 69q79 0 141 -40v255q0 11 -9 65q-4 21 11 21zM147 253q0 -73 41.5 -116t104.5 -43q61 0 120 35
v228q-61 41 -124 41q-54 0 -98 -37.5t-44 -107.5z" />
    <glyph glyph-name="e" unicode="e" horiz-adv-x="562" 
d="M151 207h313q61 0 61 60q0 96 -67.5 165.5t-173.5 69.5q-105 0 -176.5 -73t-71.5 -181q0 -111 73.5 -182t180.5 -71q132 0 202 94q7 10 -2 22l-19 25q-10 13 -26 3q-59 -48 -143 -48q-60 0 -101.5 32.5t-49.5 83.5zM411 292h-260q3 41 38.5 75.5t92.5 34.5t91.5 -34.5
t37.5 -75.5z" />
    <glyph glyph-name="f" unicode="f" horiz-adv-x="426" 
d="M453 771q14 -8 7 -21l-28 -62q-6 -13 -22 -8q-44 22 -81 22t-69 -23t-32 -75v-109h119q13 0 13 -13v-76q0 -12 -13 -12h-119v-377q0 -17 -16 -17h-55q-38 0 -38 41v353h-71q-13 0 -13 11v61q0 29 30 29h54v109q0 98 57.5 149.5t149.5 51.5q71 0 127 -34z" />
    <glyph glyph-name="g" unicode="g" horiz-adv-x="612" 
d="M388 -12q47 -6 79 -14.5t60 -25t41 -45t12 -68.5q-2 -88 -78.5 -138.5t-207.5 -50.5q-106 0 -170.5 43.5t-63.5 121.5q2 93 108 114q-54 9 -94 38.5t-41 74.5q-2 45 32 70.5t91 17.5q-29 15 -53.5 56.5t-25.5 88.5q-2 97 62.5 163t160.5 66q29 0 93 -7.5t135 -5.5
q16 0 16 -15l-4 -51q-8 -7 -63 -12q54 -49 54 -139q0 -96 -65 -156t-157 -57q-46 2 -104 23q-30 7 -48.5 -0.5t-17.5 -26.5q3 -34 90 -45q17 -2 159 -20zM305 397q-51 0 -86.5 -35t-35.5 -86q0 -47 36 -81.5t85 -34.5q54 -1 87 32.5t34 83.5q-1 52 -35.5 86.5t-84.5 34.5z
M305 -254q67 0 112.5 21.5t46.5 62.5q1 23 -16.5 36.5t-56.5 21.5q-58 11 -142 20q-30 4 -54.5 -18t-25.5 -58q-3 -86 136 -86z" />
    <glyph glyph-name="h" unicode="h" horiz-adv-x="601" 
d="M549 21q4 -21 -10 -21h-65q-39 0 -39 40v260q0 49 -31 76.5t-81 27.5q-77 0 -145 -66v-322q0 -16 -16 -16h-78q-15 0 -15 16v699q0 24 -8 64q-4 21 11 21h68q17 0 27.5 -10t10.5 -26v-322q78 60 160 60q83 0 144 -50.5t61 -139.5v-222q1 -38 6 -69z" />
    <glyph glyph-name="i" unicode="i" horiz-adv-x="260" 
d="M130 679q-25 0 -42.5 17.5t-17.5 42.5t17.5 42.5t42.5 17.5t42.5 -17.5t17.5 -42.5t-17.5 -42.5t-42.5 -17.5zM169 495h-77q-16 0 -16 -16v-439q0 -18 10 -29t28 -11h56q15 0 15 17v462q0 16 -16 16z" />
    <glyph glyph-name="j" unicode="j" horiz-adv-x="251" 
d="M122 679q-26 0 -43 17.5t-17 42.5t17.5 42.5t42.5 17.5t42 -17.5t17 -42.5t-17 -42.5t-42 -17.5zM162 495h-76q-16 0 -16 -16v-579q0 -63 -54 -89q-15 -7 -9 -21l38 -74q7 -12 22 -6q112 55 112 190v579q0 16 -17 16z" />
    <glyph glyph-name="k" unicode="k" horiz-adv-x="577" 
d="M294 261l235 -228q10 -11 6 -21.5t-18 -10.5h-81q-12 0 -20 9l-238 238v-232q0 -16 -16 -16h-76q-17 0 -17 16v699q0 24 -8 64q-4 21 11 21h68q17 0 27.5 -10t10.5 -26v-489l201 212q8 8 19 8h80q12 0 17 -11.5t-4 -21.5z" />
    <glyph glyph-name="l" unicode="l" horiz-adv-x="255" 
d="M168 800h-77q-16 0 -16 -16v-744q0 -18 10.5 -29t28.5 -11h54q16 0 16 17v767q0 16 -16 16z" />
    <glyph glyph-name="m" unicode="m" horiz-adv-x="961" 
d="M910 21q2 -8 -0.5 -14.5t-9.5 -6.5h-65q-18 0 -28.5 11t-10.5 29v261q0 48 -31 75.5t-81 27.5q-74 0 -146 -74l1 -19v-221q1 -38 6 -69q4 -21 -10 -21h-65q-39 0 -39 40v261q0 48 -31 75.5t-81 27.5q-74 0 -145 -73v-315q0 -16 -16 -16h-78q-15 0 -15 16v463q0 16 15 16
h54q17 0 28 -14t12 -29v-10q77 59 159 59q53 0 100.5 -22t75.5 -63q94 85 190 85q83 0 144.5 -50.5t61.5 -139.5v-221q0 -19 5 -69z" />
    <glyph glyph-name="n" unicode="n" horiz-adv-x="591" 
d="M540 21q4 -21 -10 -21h-65q-39 0 -39 40v260q0 49 -31 76.5t-81 27.5q-77 0 -145 -66v-322q0 -16 -16 -16h-78q-15 0 -15 16v463q0 16 15 16h54q17 0 28 -14t12 -29v-10q78 60 159 60q83 0 144.5 -50.5t61.5 -139.5v-222q1 -38 6 -69z" />
    <glyph glyph-name="o" unicode="o" horiz-adv-x="592" 
d="M296 -7q106 0 181 73.5t75 180.5q0 108 -75 181.5t-181 73.5t-181 -73.5t-75 -181.5q0 -107 75 -180.5t181 -73.5zM296 95q-63 0 -106.5 45t-43.5 106q0 63 43 108.5t107 45.5t107 -45.5t43 -108.5q0 -61 -43.5 -106t-106.5 -45z" />
    <glyph glyph-name="p" unicode="p" horiz-adv-x="595" 
d="M316 500q92 0 160.5 -69t68.5 -177q0 -112 -64 -186t-168 -74q-75 0 -135 43v-286q0 -20 -17 -32.5t-36 -12.5h-40q-16 0 -16 16v687q0 17 -8 65q-4 21 11 21h68q16 0 26.5 -9.5t11.5 -24.5q63 39 138 39zM296 95q62 0 102 43t40 116q0 71 -42 108t-96 37q-61 0 -122 -39
v-232q59 -33 118 -33z" />
    <glyph glyph-name="q" unicode="q" horiz-adv-x="585" 
d="M535 -273q4 -21 -11 -21h-68q-17 0 -28 10t-11 26v293q-61 -42 -135 -42q-104 0 -168 74t-64 186q0 108 68.5 177t160.5 69q76 0 139 -39q4 16 20 25.5t32 9.5h41q6 0 10.5 -4.5t4.5 -11.5v-687q0 -11 9 -65zM300 94q58 0 117 33v232q-61 39 -121 39q-54 0 -96.5 -37
t-42.5 -108q0 -73 40 -116t103 -43z" />
    <glyph glyph-name="r" unicode="r" horiz-adv-x="442" 
d="M410 470q16 -10 7 -24l-41 -60q-7 -10 -21 -7q-40 19 -72 19q-31 0 -63 -17.5t-50 -59.5v-305q0 -16 -15 -16h-79q-15 0 -15 16v463q0 7 4.5 11.5t10.5 4.5h55q17 0 28 -14t11 -29v-7q59 54 132 54q66 0 108 -29z" />
    <glyph glyph-name="s" unicode="s" horiz-adv-x="479" 
d="M48 72l34 54q10 16 23 9q1 -2 18 -10.5t49 -18t62 -9.5q40 0 59 13.5t19 32.5q0 24 -23.5 36t-80.5 27q-158 42 -158 150q0 60 49 102.5t135 42.5q80 0 163 -48q18 -11 9 -23l-37 -57q-8 -13 -22 -8q-64 32 -113 32q-38 0 -54.5 -14t-16.5 -31q0 -20 23.5 -32t69.5 -25
q178 -48 178 -154q0 -64 -55.5 -106t-144.5 -42q-54 0 -105 20t-76 40q-5 3 -6.5 9t1.5 10z" />
    <glyph glyph-name="t" unicode="t" horiz-adv-x="403" 
d="M349 91l13 -59q3 -9 -10 -18q-29 -19 -91 -19q-79 0 -112.5 43t-33.5 141v211h-59q-16 0 -16 16v17q0 12 8 20q49 40 82.5 83.5t61.5 113.5q5 11 11 11h11q11 0 11 -13v-143h105q7 0 12 -5t5 -12v-72q0 -7 -5 -11.5t-12 -4.5h-87q-13 0 -19 3v-204q0 -48 11 -69.5
t45 -21.5q23 0 47 6q19 5 22 -13z" />
    <glyph glyph-name="u" unicode="u" horiz-adv-x="585" 
d="M437 495h78q15 0 15 -17v-462q0 -16 -14 -16h-62q-12 0 -21.5 14t-10.5 28v12q-75 -60 -160 -60q-83 0 -144.5 50.5t-61.5 139.5v221q0 34 -5 69q-4 21 10 21h65q18 0 28.5 -11t10.5 -29v-261q0 -49 30.5 -76t81.5 -27q72 0 145 73v314q0 17 15 17z" />
    <glyph glyph-name="v" unicode="v" horiz-adv-x="558" 
d="M518 495h-86q-12 0 -16 -15l-136 -299l-137 299q-6 15 -16 15h-90q-16 0 -10 -15l231 -473q5 -12 17 -12h10q12 0 17 12l229 473q4 6 -1 10.5t-12 4.5z" />
    <glyph glyph-name="w" unicode="w" horiz-adv-x="812" 
d="M690 495h83q20 0 12 -18l-187 -466q-4 -11 -16 -11h-12q-11 0 -18 11l-146 302l-146 -302q-6 -11 -17 -11h-13q-10 0 -16 11l-187 466q-7 18 12 18h83q12 0 18 -11l112 -305l127 300q5 11 19 11h17q13 0 18 -11l128 -300l111 305q6 11 18 11z" />
    <glyph glyph-name="x" unicode="x" horiz-adv-x="561" 
d="M346 246l162 -221q5 -8 1 -16.5t-12 -8.5h-85q-9 0 -18 12l-114 163l-113 -163q-9 -12 -19 -12h-83q-8 0 -12 9t1 16l160 221l-161 224q-5 8 -1 16.5t13 8.5h83q12 0 19 -12l113 -165l114 165q9 12 19 12h85q8 0 11.5 -8.5t-1.5 -16.5z" />
    <glyph glyph-name="y" unicode="y" horiz-adv-x="578" 
d="M453 495h85q9 0 12.5 -5.5t-0.5 -13.5l-198 -407q-130 -270 -233 -371q-13 -11 -30 6l-43 43q-15 13 1 32q118 134 191 298l-208 400q-4 7 -0.5 12.5t11.5 5.5h88q12 0 18 -11l147 -300l140 299q6 12 19 12z" />
    <glyph glyph-name="z" unicode="z" horiz-adv-x="499" 
d="M216 109h214q17 0 17 -16v-77q0 -16 -17 -16h-354q-16 0 -23 14.5t0 25.5l16 25l210 321h-208q-16 0 -16 16v77q0 16 16 16h353q13 0 19 -12t1 -23l-13 -22z" />
    <glyph glyph-name="braceleft" unicode="{" horiz-adv-x="461" 
d="M136 237v-130q0 -85 25 -146.5t67 -93.5t86 -47t93 -18q14 0 14 15v52q0 10 -1 12t-7 2q-83 10 -130 67.5t-47 147.5v120q0 55 -32 86.5t-63 39.5v11q6 0 20.5 8.5t32 23t30 40.5t12.5 55v126q0 92 46 145t131 64q8 0 8 14v50q0 11 -3.5 13.5t-10.5 2.5q-38 0 -73.5 -8
t-72.5 -29t-64 -53t-44 -86t-17 -122v-135q0 -32 -33 -54.5t-49 -22.5q-5 0 -9.5 -4.5t-4.5 -10.5v-44q0 -6 4.5 -10.5t9.5 -4.5q15 -6 20.5 -8t20 -10t21.5 -14.5t13.5 -18.5t6.5 -25z" />
    <glyph glyph-name="bar" unicode="|" horiz-adv-x="308" 
d="M100 -183v1181q0 16 16 16h76q16 0 16 -16v-1181q0 -17 -16 -17h-76q-16 0 -16 17z" />
    <glyph glyph-name="braceright" unicode="}" horiz-adv-x="461" 
d="M325 107v130q0 13 6.5 25t13.5 18.5t21.5 14.5t20 10t20.5 8q5 0 9.5 4.5t4.5 10.5v44q0 6 -4.5 10.5t-9.5 4.5q-16 0 -49 22.5t-33 54.5v135q0 68 -17 122t-44 86t-64 53t-72.5 29t-73.5 8q-5 0 -7 -0.5t-4.5 -4.5t-2.5 -11v-50q0 -14 8 -14q85 -11 131 -64t46 -145
v-126q0 -29 12.5 -55t30 -40.5t32 -23t20.5 -8.5v-11q-31 -8 -63 -39.5t-32 -86.5v-120q0 -90 -47 -147.5t-130 -67.5q-6 0 -7 -2t-1 -12v-52q0 -15 14 -15q49 3 93 18t86 47t67 93.5t25 146.5z" />
    <glyph glyph-name="asciitilde" unicode="~" horiz-adv-x="485" 
d="M24 261l11.5 -11t13.5 -13.5l11 -11.5q12 -12 19 3q0 1 4.5 7t6 7.5t6.5 7.5t7.5 8.5t7.5 7t9.5 7t10 5t11.5 3.5t12 1q12 0 23.5 -4.5t18.5 -9t18.5 -13t14.5 -10.5t12 -9.5t13 -10t13.5 -8t16.5 -8t18.5 -4.5t23.5 -2q33 0 67 20.5t51 40.5l17 21q9 11 0 18l-32 35
q-13 11 -21 -1q-35 -54 -82 -54q-13 0 -24.5 4.5t-17.5 9t-16 14t-13 11.5q-19 14 -29 20.5t-30 14t-41 7.5t-42 -9t-36.5 -21t-28 -24.5t-18.5 -21.5l-7 -9q-7 -8 1 -18z" />
    <glyph glyph-name="exclamdown" unicode="&#xa1;" horiz-adv-x="260" 
d="M130 498q30 0 51.5 -21.5t21.5 -51.5t-21.5 -51.5t-51.5 -21.5t-52 21.5t-22 51.5t22 51.5t52 21.5zM175 -307h-89q-16 0 -16 15v11l17 441q2 16 16 16h56q13 0 15 -16l16 -441v-11q0 -6 -4.5 -10.5t-10.5 -4.5z" />
    <glyph glyph-name="cent" unicode="&#xa2;" horiz-adv-x="566" 
d="M464 156l44 -39q10 -9 2 -22q-83 -108 -205 -108q-31 0 -65 8l-24 -69q-5 -15 -20 -10l-27 10q-14 5 -9 19l24 72q-64 34 -102.5 96.5t-38.5 136.5q0 109 77 186t185 77q28 0 48 -4l16 48q5 16 21 9l26 -9q14 -7 9 -20l-16 -46q47 -22 88 -69q10 -13 -2 -23l-46 -44
q-12 -11 -25 4q-22 24 -47 37l-104 -303q22 -5 41 -5q67 0 124 64q12 17 26 4zM150 250q0 -37 18 -73.5t51 -59.5l101 296h-6q-75 0 -119.5 -49.5t-44.5 -113.5z" />
    <glyph glyph-name="sterling" unicode="&#xa3;" horiz-adv-x="589" 
d="M544 713q10 -11 -1 -19l-60 -46q-11 -8 -22 3q-62 59 -134 59q-57 0 -97.5 -37t-39.5 -92q0 -18 4.5 -37t9.5 -31.5t15 -35.5l15 -35q7 -16 19 -52h133q16 0 16 -16v-65q0 -15 -16 -15h-114v-4q0 -37 -11.5 -77t-20.5 -58.5t-31 -57.5h297q16 0 16 -17v-63q0 -17 -16 -17
h-424q-16 0 -16 15v13q46 65 72.5 131.5t23.5 117.5l-1 17h-92q-15 0 -15 15v65q0 16 15 16h70l-2 5l-21 53q-2 7 -9 25t-9.5 24t-7 19.5t-6 21l-3.5 18t-2 19.5q-3 107 69.5 173t169.5 66q144 0 226 -101z" />
    <glyph glyph-name="currency" unicode="&#xa4;" horiz-adv-x="684" 
d="M567 325l72 -72q11 -11 0 -21l-69 -70q-11 -11 -22 0l-71 72q-64 -37 -135 -37t-135 37l-71 -72q-10 -10 -21 0l-70 70q-11 9 1 21l71 71q-38 63 -38 136t38 135l-71 71q-10 10 0 21l69 70q11 11 21 -1l71 -70q63 37 135 37q71 0 135 -37l70 70q11 11 21 1l70 -70
q10 -10 0 -21l-71 -71q38 -62 38 -135t-38 -135zM190 461q0 -65 44 -110t109 -45q63 0 108 45.5t45 109.5q0 63 -45 107t-108 44q-65 0 -109 -43.5t-44 -107.5z" />
    <glyph glyph-name="yen" unicode="&#xa5;" horiz-adv-x="735" 
d="M615 800h100q6 0 9 -5.5t-1 -12.5l-275 -419h116q16 0 16 -15v-65q0 -17 -16 -17h-140v-73h140q16 0 16 -16v-65q0 -16 -16 -16h-140v-79q0 -17 -15 -17h-59q-18 0 -28.5 11t-10.5 29v56h-140q-15 0 -15 15v66q0 16 15 16h140v73h-140q-15 0 -15 17v64q0 16 15 16h116
l-275 419q-4 7 -1 12.5t10 5.5h99q8 0 17 -15l231 -346l230 346q9 15 17 15z" />
    <glyph glyph-name="brokenbar" unicode="&#xa6;" horiz-adv-x="308" 
d="M100 536v462q0 16 16 16h76q16 0 16 -16v-462q0 -16 -16 -16h-76q-16 0 -16 16zM100 -183v462q0 16 16 16h76q16 0 16 -16v-462q0 -17 -16 -17h-76q-16 0 -16 17z" />
    <glyph glyph-name="section" unicode="&#xa7;" horiz-adv-x="628" 
d="M516 66q62 -62 62 -144q0 -90 -74 -158t-188 -68q-43 0 -83.5 11t-65 22t-53 32.5t-34.5 27.5l-22 22q-15 11 -4 27l34 49q13 18 30 5l12 -10q11 -11 21 -20t29 -22t37 -22t42 -15.5t47 -6.5q62 0 109.5 34.5t47.5 90.5q0 25 -11.5 46.5t-27 35.5t-44 28t-50 21.5
l-58.5 19.5q-216 67 -216 230q0 90 63 147q-63 60 -63 145q0 87 67 153.5t192 66.5q110 0 224 -90q17 -11 5 -28l-35 -51q-16 -22 -32 -9l-13 10l-21 17t-26.5 18t-33 17.5t-35.5 12t-39 5.5q-62 0 -101.5 -36.5t-39.5 -84.5q0 -51 38 -77.5t124 -56.5q248 -85 248 -247
q0 -86 -62 -148zM161 303q0 -27 12 -48t38 -37t51.5 -26.5t67.5 -23.5q55 -17 98 -40q42 34 42 85q0 21 -6.5 39t-24.5 33l-29.5 24t-44 22.5t-43 17l-50.5 17.5q-35 12 -63 25q-48 -31 -48 -88z" />
    <glyph glyph-name="dieresis" unicode="&#xa8;" horiz-adv-x="449" 
d="M88 677q-25 0 -42.5 18t-17.5 43t17.5 43t42.5 18q26 0 43.5 -18t17.5 -43t-17.5 -43t-43.5 -18zM361 677q-25 0 -43 18t-18 43t18 43t43 18t42.5 -18t17.5 -43t-17.5 -43t-42.5 -18z" />
    <glyph glyph-name="copyright" unicode="&#xa9;" horiz-adv-x="906" 
d="M453 -10q-171 0 -292 121t-121 292q0 172 121 292.5t292 120.5q172 0 292.5 -120.5t120.5 -292.5q0 -171 -120.5 -292t-292.5 -121zM453 80q134 0 228.5 94.5t94.5 228.5t-94.5 228t-228.5 94t-228.5 -94t-94.5 -228t94.5 -228.5t228.5 -94.5zM573 333l36 -30q8 -6 2 -16
q-64 -82 -154 -82q-82 0 -139.5 58t-57.5 140t57.5 140t139.5 58q87 0 144 -69q6 -10 -2 -18l-37 -33q-10 -10 -19 3q-37 39 -80 39q-54 0 -88 -37t-34 -83q0 -45 34 -82t88 -37q49 0 90 46q9 12 20 3z" />
    <glyph glyph-name="ordfeminine" unicode="&#xaa;" horiz-adv-x="541" 
d="M486 22q-17 125 -10 285q4 90 -44 142t-138 52q-119 0 -212 -51q-17 -9 -11 -23l25 -58q6 -15 24 -7q95 43 167 43q87 0 84 -78q-65 -11 -106 -20t-87.5 -25t-72 -34.5t-43 -48t-17.5 -67.5q0 -65 44 -101t121 -36q58 0 96 14.5t75 43.5q9 -53 34 -53h60q13 0 11 22z
M229 81q-73 0 -73 52q0 17 12 31t29.5 23t46 18t52.5 14.5t58 12.5l15 3q-2 -56 0 -106q-63 -48 -140 -48z" />
    <glyph glyph-name="guillemotleft" unicode="&#xab;" horiz-adv-x="564" 
d="M49 215l140 -197q5 -9 14 -9h63q12 0 16 8.5t-3 19.5l-114 194l117 186q6 12 2 20.5t-15 8.5h-57q-11 0 -18 -11l-145 -191q-9 -16 0 -29zM277 212l143 -192q8 -11 19 -11h57q12 0 16.5 9t-1.5 20l-119 188l116 192q5 10 1.5 19t-15.5 9h-61q-11 0 -17 -8l-139 -197
q-12 -15 0 -29z" />
    <glyph glyph-name="logicalnot" unicode="&#xac;" horiz-adv-x="595" 
d="M56 429h482q15 0 15 -15v-258q0 -7 -4.5 -11.5t-10.5 -4.5h-65q-16 0 -16 16v177h-401q-16 0 -16 16v64q0 16 16 16z" />
    <glyph glyph-name="softhyphen" unicode="&#xad;" horiz-adv-x="416" 
d="M376 282v-66q0 -16 -16 -16h-303q-17 0 -17 16v66q0 16 17 16h303q16 0 16 -16z" />
    <glyph glyph-name="registered" unicode="&#xae;" horiz-adv-x="599" 
d="M300 933q118 0 201 -83t83 -201q0 -119 -83 -202t-201 -83t-201.5 83t-83.5 202q0 118 83.5 201t201.5 83zM300 431q90 0 154 64t64 154q0 91 -64 154.5t-154 63.5q-91 0 -154.5 -63.5t-63.5 -154.5q0 -90 63.5 -154t154.5 -64zM356 622l62 -106q5 -8 -5 -8h-48
q-5 0 -7 3l-59 105h-45v-102q0 -6 -7 -6h-42q-7 0 -7 6v270q0 8 7 8h117q39 0 65 -27t26 -60q0 -27 -15.5 -50t-41.5 -33zM253 737v-70h63q22 0 31 17.5t0.5 35t-31.5 17.5h-63z" />
    <glyph glyph-name="macron" unicode="&#xaf;" horiz-adv-x="512" 
d="M40 693v57q0 12 13 12l405 1q14 0 14 -13v-57q0 -13 -14 -13h-405q-13 0 -13 13z" />
    <glyph glyph-name="degree" unicode="&#xb0;" horiz-adv-x="394" 
d="M197 491q-59 0 -102 43t-43 103q0 59 43 101.5t102 42.5q60 0 102.5 -42.5t42.5 -101.5q0 -60 -42.5 -103t-102.5 -43zM198 566q29 0 50 21t21 50t-21 49.5t-50 20.5t-50 -20.5t-21 -49.5t21 -50t50 -21z" />
    <glyph glyph-name="plusminus" unicode="&#xb1;" horiz-adv-x="595" 
d="M350 508h176q16 0 16 -16v-73q0 -17 -16 -17h-176v-175q0 -16 -16 -16h-73q-17 0 -17 16v175h-175q-16 0 -16 17v73q0 16 16 16h175v176q0 16 17 16h73q16 0 16 -16v-176zM70 99h456q16 0 16 -16v-66q0 -17 -16 -17h-456q-7 0 -12 4.5t-5 11.5v66q0 17 17 17z" />
    <glyph glyph-name="twosuperior" unicode="&#xb2;" horiz-adv-x="592" 
d="M238 109h292q15 0 15 -16v-77q0 -6 -10.5 -11t-18.5 -5h-448q-15 0 -17 16v27l295 347q42 47 64 86t22 81q0 51 -41 86t-100 35q-92 0 -172 -95q-4 -6 -11 -6t-12 6l-46 49q-11 13 -1 24q44 64 109.5 97t138.5 33q99 0 173 -65t74 -163q0 -93 -72 -178z" />
    <glyph glyph-name="threesuperior" unicode="&#xb3;" horiz-adv-x="611" 
d="M90 770h437q16 0 16 -16v-79q0 -17 -11 -29l-190 -200q49 0 96 -25q57 -23 92.5 -78.5t35.5 -120.5q0 -96 -75.5 -164t-175.5 -68q-158 0 -265 138q-10 13 1 22l55 52q11 11 22 -2q32 -42 81 -71.5t100 -29.5q67 0 104 41.5t37 93.5q0 49 -32.5 85.5t-85.5 36.5
q-14 0 -28.5 -3.5t-30.5 -9.5t-24 -8q-8 -1 -16 7l-43 57q-8 13 1 23l223 239h-324q-7 0 -12.5 4.5t-5.5 11.5v76q0 17 18 17z" />
    <glyph glyph-name="acute" unicode="&#xb4;" horiz-adv-x="355" 
d="M84 611l210 120q16 8 6 24l-30 49q-8 15 -24 2l-200 -136q-12 -7 -4 -19l20 -35q6 -13 22 -5z" />
    <glyph glyph-name="paragraph" unicode="&#xb6;" horiz-adv-x="902" 
d="M298 800h542q17 0 17 -17v-71q0 -17 -17 -17h-100v-678q0 -17 -17 -17h-77q-16 0 -16 17l1 678h-131v-678q0 -17 -17 -17h-77q-16 0 -16 17v271h-92q-111 0 -182 79t-71 181q0 94 71.5 173t181.5 79zM390 392l1 303h-81q-48 0 -83.5 -22.5t-51.5 -56t-16 -73t16 -73
t51.5 -56t83.5 -22.5h80z" />
    <glyph glyph-name="periodcentered" unicode="&#xb7;" horiz-adv-x="244" 
d="M122 228q-29 0 -50.5 21.5t-21.5 50.5t21.5 50.5t50.5 21.5q30 0 51 -21.5t21 -50.5t-21 -50.5t-51 -21.5z" />
    <glyph glyph-name="cedilla" unicode="&#xb8;" horiz-adv-x="330" 
d="M149 -64h5q54 0 93.5 -38t39.5 -92q0 -53 -39.5 -92t-94.5 -39q-61 0 -102 48q-4 7 1 13l25 27q7 7 15 -1q29 -25 60 -25q34 0 52.5 20t18.5 49t-18.5 48.5t-50.5 19.5q-34 0 -62 -27q-10 -9 -16 -3l-25 26q-4 5 -2 11l3 5l62 114h69z" />
    <glyph glyph-name="onesuperior" unicode="&#xb9;" horiz-adv-x="325" 
d="M182 770h71q7 0 12 -4.5t5 -11.5v-737q0 -17 -17 -17h-79q-17 0 -17 17v572l-95 -23q-15 -3 -18 12l-9 57q-1 14 13 18q59 20 118 108l1 2q4 7 15 7z" />
    <glyph glyph-name="ordmasculine" unicode="&#xba;" horiz-adv-x="592" 
d="M296 -7q106 0 181 73.5t75 180.5q0 108 -75 181.5t-181 73.5t-181 -73.5t-75 -181.5q0 -107 75 -180.5t181 -73.5zM296 95q-63 0 -106.5 45t-43.5 106q0 63 43 108.5t107 45.5t107 -45.5t43 -108.5q0 -61 -43.5 -106t-106.5 -45z" />
    <glyph glyph-name="guillemotright" unicode="&#xbb;" horiz-adv-x="564" 
d="M140 20l143 192q12 14 0 29l-139 197q-5 8 -16 8h-62q-11 0 -14.5 -9t0.5 -19l117 -192l-119 -188q-6 -11 -2 -20t16 -9h57q11 0 19 11zM371 18l140 197q10 15 0 29l-144 191q-9 11 -18 11h-58q-11 0 -15 -8.5t2 -20.5l117 -186l-114 -194q-7 -11 -3 -19.5t16 -8.5h63
q9 0 14 9z" />
    <glyph glyph-name="onequarter" unicode="&#xbc;" horiz-adv-x="719" 
d="M129 460v221l-66 -11q-12 -2 -12 8l-1 34q0 9 8 12q41 13 76 67l1 4q4 5 10 5h46q11 0 11 -10v-330q0 -11 -11 -11h-50q-12 0 -12 11zM545 800h37q10 0 13.5 -5.5t-0.5 -14.5l-408 -767q-6 -13 -19 -13h-36q-23 0 -13 20l407 767q7 13 19 13zM631 146h30q8 0 8 -8v-45
q0 -8 -8 -8h-30v-78q0 -7 -7 -7h-46q-8 0 -8 7v78h-131q-7 0 -7 8l-1 45q0 2 3 7q65 48 94 121q15 43 15 85q0 8 8 8h48q7 0 7 -8q0 -64 -34 -136q-18 -35 -61 -69h59v16q0 8 7 8l47 5q7 0 7 -8v-21z" />
    <glyph glyph-name="onehalf" unicode="&#xbd;" horiz-adv-x="745" 
d="M129 460v221l-66 -11q-12 -2 -12 8l-1 34q0 9 8 12q41 13 76 67l1 4q4 5 10 5h46q11 0 11 -10v-330q0 -11 -11 -11h-50q-12 0 -12 11zM545 800h37q10 0 13.5 -5.5t-0.5 -14.5l-408 -767q-6 -13 -19 -13h-36q-23 0 -13 20l407 767q7 13 19 13zM574 65h113q7 0 7 -7v-49
q0 -9 -7 -9h-217q-9 0 -9 9v13l36 43l93 108q2 3 8.5 11t9 11.5l7.5 11t7 12.5t4 11.5t2 13.5q0 23 -18 39.5t-44 16.5q-35 0 -72 -42q-5 -7 -10 0l-31 32q-5 6 -1 10q36 51 93.5 61t100.5 -23q38 -28 43 -78t-27 -89z" />
    <glyph glyph-name="threequarters" unicode="&#xbe;" horiz-adv-x="712" 
d="M261 482q-42 -49 -107.5 -45t-110.5 62q-5 5 0 11l29 30q5 5 10 -1q25 -31 59 -41t65 14q14 14 15.5 34t-9 35t-29.5 22.5t-46 -3.5q-3 -5 -9 1l-25 30q-4 6 0 10l88 98h-131q-7 0 -7 7v45q0 9 7 9h206q8 0 8 -9v-45q0 -3 -2 -5l-82 -86q59 -5 83.5 -66.5t-12.5 -106.5z
M551 800h37q22 0 12 -20l-407 -767q-7 -13 -19 -13h-37q-22 0 -12 20l407 767q6 13 19 13zM635 146h29q8 0 8 -8v-45q0 -8 -8 -8h-29v-78q0 -7 -8 -7h-45q-8 0 -8 7v78h-132q-7 0 -7 8v45q0 4 3 7q67 50 93 121q16 42 16 85q0 8 8 8h48q7 0 7 -8q-1 -62 -34 -136
q-18 -35 -61 -69h59v16q0 8 7 8l46 5q8 0 8 -8v-21z" />
    <glyph glyph-name="questiondown" unicode="&#xbf;" horiz-adv-x="464" 
d="M249 520q30 0 52 -21.5t22 -52.5q0 -29 -22 -51t-52 -22q-31 0 -52.5 21.5t-21.5 51.5q0 31 21.5 52.5t52.5 21.5zM404 -125l40 -44q9 -10 1 -20q-62 -76 -147 -99.5t-168 9.5q-43 16 -72 53t-38.5 79.5t2 88t44.5 77.5q29 28 60 49.5l43 30t20 28.5t8 57q0 16 16 16h68
q17 0 17 -16l1 -55q0 -23 -18 -45t-44 -41l-52 -38t-45 -43.5t-20 -50.5q-4 -51 29.5 -83t96.5 -32q32 0 62 15.5t42.5 27.5t34.5 36q11 11 19 0z" />
    <glyph glyph-name="Agrave" unicode="&#xc0;" horiz-adv-x="876" 
d="M527 887l-210 120q-16 8 -6 24l29 49q9 14 25 2l200 -136q12 -7 4 -19l-20 -35q-6 -13 -22 -5zM458 796l375 -778q9 -18 -9 -18h-91q-12 0 -17 11l-61 130h-432l-61 -130q-6 -11 -17 -11h-92q-8 0 -11 5.5t0 12.5l377 778q4 9 13 9h13q8 0 13 -9zM272 244h334l-167 354z
" />
    <glyph glyph-name="Aacute" unicode="&#xc1;" horiz-adv-x="876" 
d="M326 892l-20 35q-8 12 4 19l200 136q16 13 24 -2l30 -49q10 -16 -6 -24l-210 -120q-16 -8 -22 5zM458 796l375 -778q9 -18 -9 -18h-91q-12 0 -17 11l-61 130h-432l-61 -130q-6 -11 -17 -11h-92q-8 0 -11 5.5t0 12.5l377 778q4 9 13 9h13q8 0 13 -9zM272 244h334l-167 354
z" />
    <glyph glyph-name="Acircumflex" unicode="&#xc2;" horiz-adv-x="876" 
d="M439 982l-169 -100q-11 -6 -18.5 -2.5t-7.5 13.5v48q0 10 9 15l173 122q13 9 26 0l174 -122q9 -5 9 -15v-48q0 -10 -7 -13.5t-18 2.5zM458 796l375 -778q9 -18 -9 -18h-91q-12 0 -17 11l-61 130h-432l-61 -130q-6 -11 -17 -11h-92q-8 0 -11 5.5t0 12.5l377 778q4 9 13 9
h13q8 0 13 -9zM272 244h334l-167 354z" />
    <glyph glyph-name="Atilde" unicode="&#xc3;" horiz-adv-x="876" 
d="M253 927l-33 34q-9 9 -1 21q63 79 134 79q41 0 90.5 -33.5t79.5 -33.5q45 0 90 42q11 11 20 0l31 -36q9 -10 0 -19l-4 -5q-4 -4 -8.5 -9t-12.5 -12t-16.5 -13.5t-20 -13.5t-23.5 -12t-26.5 -8t-28.5 -3q-42 0 -87 33t-83 33q-46 0 -81 -43q-11 -11 -20 -1zM458 796
l375 -778q9 -18 -9 -18h-91q-12 0 -17 11l-61 130h-432l-61 -130q-6 -11 -17 -11h-92q-8 0 -11 5.5t0 12.5l377 778q4 9 13 9h13q8 0 13 -9zM272 244h334l-167 354z" />
    <glyph glyph-name="Adieresis" unicode="&#xc4;" horiz-adv-x="876" 
d="M303 953q-25 0 -42.5 18t-17.5 43t17.5 43t42.5 18q26 0 43.5 -18t17.5 -43t-17.5 -43t-43.5 -18zM576 953q-25 0 -43 18t-18 43t18 43t43 18t42.5 -18t17.5 -43t-17.5 -43t-42.5 -18zM458 796l375 -778q9 -18 -9 -18h-91q-12 0 -17 11l-61 130h-432l-61 -130
q-6 -11 -17 -11h-92q-8 0 -11 5.5t0 12.5l377 778q4 9 13 9h13q8 0 13 -9zM272 244h334l-167 354z" />
    <glyph glyph-name="Aring" unicode="&#xc5;" horiz-adv-x="876" 
d="M439 838q-50 0 -86.5 36t-36.5 86q0 51 36.5 87t86.5 36t86.5 -36t36.5 -87q0 -50 -36.5 -86t-86.5 -36zM439 1025q-26 0 -45 -19t-19 -46t19 -46t45 -19q28 0 46.5 19t18.5 46t-18.5 46t-46.5 19zM458 796l375 -778q9 -18 -9 -18h-91q-12 0 -17 11l-61 130h-432
l-61 -130q-6 -11 -17 -11h-92q-8 0 -11 5.5t0 12.5l377 778q4 9 13 9h13q8 0 13 -9zM272 244h334l-167 354z" />
    <glyph glyph-name="AE" unicode="&#xc6;" horiz-adv-x="1159" 
d="M1080 691h-397v-244h230q17 0 17 -17v-75q0 -17 -17 -17h-229v-229h396q17 0 17 -17v-75q0 -17 -17 -17h-493q-17 0 -17 17v95h-340l-64 -101q-8 -11 -18 -11h-94q-8 0 -11.5 5t0.5 13l477 766q12 16 23 16h537q17 0 17 -16v-77q0 -16 -17 -16zM293 213h277v439z" />
    <glyph glyph-name="Ccedilla" unicode="&#xc7;" 
d="M683 195l64 -52q13 -11 -1 -25q-113 -119 -280 -125l-30 -57h5q54 0 93.5 -38t39.5 -92q0 -53 -39.5 -92t-94.5 -39q-61 0 -102 48q-4 7 1 13l25 27q7 7 15 -1q29 -25 60 -25q34 0 52.5 20t18.5 49t-18.5 48.5t-50.5 19.5q-34 0 -62 -27q-9 -9 -16 -3l-25 26q-4 5 -2 11
l3 5l60 110q-150 20 -252 133.5t-102 268.5q0 170 119.5 289.5t286.5 119.5q177 0 297 -126q14 -14 1 -24l-64 -52q-12 -10 -23 1q-88 92 -207 92q-130 0 -213.5 -91t-83.5 -209t83.5 -207t213.5 -89q117 0 204 89q12 13 24 4z" />
    <glyph glyph-name="Egrave" unicode="&#xc8;" horiz-adv-x="664" 
d="M429 873l-210 120q-16 8 -6 24l29 49q9 14 25 2l200 -136q12 -7 4 -19l-20 -35q-6 -13 -22 -5zM585 691h-397v-244h230q17 0 17 -17v-75q0 -17 -17 -17h-229v-229h396q17 0 17 -17v-75q0 -17 -17 -17h-493q-17 0 -17 17v767q0 16 16 16h494q17 0 17 -16v-77
q0 -16 -17 -16z" />
    <glyph glyph-name="Eacute" unicode="&#xc9;" horiz-adv-x="664" 
d="M228 878l-20 35q-8 12 4 19l200 136q16 13 24 -2l30 -49q10 -16 -6 -24l-210 -120q-16 -8 -22 5zM585 691h-397v-244h230q17 0 17 -17v-75q0 -17 -17 -17h-229v-229h396q17 0 17 -17v-75q0 -17 -17 -17h-493q-17 0 -17 17v767q0 16 16 16h494q17 0 17 -16v-77
q0 -16 -17 -16z" />
    <glyph glyph-name="Ecircumflex" unicode="&#xca;" horiz-adv-x="664" 
d="M340 968l-169 -100q-11 -6 -18.5 -2.5t-7.5 13.5v48q0 10 9 15l173 122q13 9 26 0l174 -122q9 -5 9 -15v-48q0 -10 -7 -13.5t-18 2.5zM585 691h-397v-244h230q17 0 17 -17v-75q0 -17 -17 -17h-229v-229h396q17 0 17 -17v-75q0 -17 -17 -17h-493q-17 0 -17 17v767
q0 16 16 16h494q17 0 17 -16v-77q0 -16 -17 -16z" />
    <glyph glyph-name="Edieresis" unicode="&#xcb;" horiz-adv-x="664" 
d="M204 939q-25 0 -42.5 18t-17.5 43t17.5 43t42.5 18q26 0 43.5 -18t17.5 -43t-17.5 -43t-43.5 -18zM477 939q-25 0 -43 18t-18 43t18 43t43 18t42.5 -18t17.5 -43t-17.5 -43t-42.5 -18zM585 691h-397v-244h230q17 0 17 -17v-75q0 -17 -17 -17h-229v-229h396q17 0 17 -17
v-75q0 -17 -17 -17h-493q-17 0 -17 17v767q0 16 16 16h494q17 0 17 -16v-77q0 -16 -17 -16z" />
    <glyph glyph-name="Igrave" unicode="&#xcc;" horiz-adv-x="269" 
d="M14 991l210 -120q16 -8 22 5l20 35q8 12 -4 19l-200 136q-16 12 -25 -2l-29 -49q-10 -16 6 -24zM173 800h-77q-16 0 -16 -16v-767q0 -17 17 -17h77q15 0 15 17v767q0 16 -16 16z" />
    <glyph glyph-name="Iacute" unicode="&#xcd;" horiz-adv-x="269" 
d="M45 871l210 120q16 8 6 24l-30 49q-8 15 -24 2l-200 -136q-12 -7 -4 -19l20 -35q6 -13 22 -5zM173 800h-77q-16 0 -16 -16v-767q0 -17 17 -17h77q15 0 15 17v767q0 16 -16 16z" />
    <glyph glyph-name="Icircumflex" unicode="&#xce;" horiz-adv-x="269" 
d="M123 1062l-173 -122q-9 -5 -9 -15v-48q0 -10 7.5 -13.5t18.5 2.5l169 100l171 -100q11 -6 18 -2.5t7 13.5v48q0 10 -9 15l-174 122q-13 9 -26 0zM173 800h-77q-16 0 -16 -16v-767q0 -17 17 -17h77q15 0 15 17v767q0 16 -16 16z" />
    <glyph glyph-name="Idieresis" unicode="&#xcf;" horiz-adv-x="269" 
d="M-1 937q-25 0 -42.5 18t-17.5 43t17.5 43t42.5 18q26 0 43.5 -18t17.5 -43t-17.5 -43t-43.5 -18zM272 937q-25 0 -43 18t-18 43t18 43t43 18t42.5 -18t17.5 -43t-17.5 -43t-42.5 -18zM173 800h-77q-16 0 -16 -16v-767q0 -17 17 -17h77q15 0 15 17v767q0 16 -16 16z" />
    <glyph glyph-name="Eth" unicode="&#xd0;" horiz-adv-x="818" 
d="M86 800h268q96 0 175.5 -35t129.5 -92t77 -126.5t27 -142.5q0 -79 -27 -151.5t-77.5 -129t-129 -90t-174.5 -33.5h-268q-17 0 -17 17v329h-33q-17 0 -17 16v75q0 18 17 18h33v329q0 16 16 16zM183 109h174q133 0 212 88t78 208q0 118 -77.5 202t-212.5 84h-175v-236h151
q16 0 16 -16v-76q0 -17 -16 -17h-150v-237z" />
    <glyph glyph-name="Ntilde" unicode="&#xd1;" horiz-adv-x="840" 
d="M205 938l33 -34q9 -10 20 1q35 43 81 43q38 0 83 -33t87 -33q14 0 28.5 3t26.5 8t23.5 12t20 13.5t16.5 13.5t12.5 12t8.5 10l4 4q9 9 0 19l-31 36q-9 11 -20 0q-46 -42 -90 -42q-30 0 -79.5 33.5t-90.5 33.5q-71 0 -134 -79q-8 -12 1 -21zM668 800h81q7 0 11.5 -4.5
t4.5 -10.5v-770q0 -15 -15 -15h-28q-29 0 -71 46l-464 533v-562q0 -16 -16 -16l-79 -1q-17 0 -17 17v767q0 16 16 16h47q11 0 23 -13l492 -574v572q0 15 15 15z" />
    <glyph glyph-name="Ograve" unicode="&#xd2;" horiz-adv-x="938" 
d="M348 1000l210 -120q16 -8 22 5l20 35q8 12 -4 19l-200 136q-16 12 -25 -2l-29 -49q-10 -16 6 -24zM470 -7q169 0 288.5 118.5t119.5 289.5q0 169 -119.5 287.5t-288.5 118.5q-170 0 -290 -118.5t-120 -287.5q0 -171 119.5 -289.5t290.5 -118.5zM470 102q-122 0 -209.5 88
t-87.5 211q0 121 87.5 209t209.5 88q121 0 208.5 -88t87.5 -209q0 -123 -87.5 -211t-208.5 -88z" />
    <glyph glyph-name="Oacute" unicode="&#xd3;" horiz-adv-x="938" 
d="M379 880l210 120q16 8 6 24l-30 49q-8 15 -24 2l-200 -136q-12 -7 -4 -19l20 -35q6 -13 22 -5zM470 -7q169 0 288.5 118.5t119.5 289.5q0 169 -119.5 287.5t-288.5 118.5q-170 0 -290 -118.5t-120 -287.5q0 -171 119.5 -289.5t290.5 -118.5zM470 102q-122 0 -209.5 88
t-87.5 211q0 121 87.5 209t209.5 88q121 0 208.5 -88t87.5 -209q0 -123 -87.5 -211t-208.5 -88z" />
    <glyph glyph-name="Ocircumflex" unicode="&#xd4;" horiz-adv-x="938" 
d="M457 1071l-173 -122q-9 -5 -9 -15v-48q0 -10 7.5 -13.5t18.5 2.5l169 100l171 -100q11 -6 18 -2.5t7 13.5v48q0 10 -9 15l-174 122q-13 9 -26 0zM470 -7q169 0 288.5 118.5t119.5 289.5q0 169 -119.5 287.5t-288.5 118.5q-170 0 -290 -118.5t-120 -287.5
q0 -171 119.5 -289.5t290.5 -118.5zM470 102q-122 0 -209.5 88t-87.5 211q0 121 87.5 209t209.5 88q121 0 208.5 -88t87.5 -209q0 -123 -87.5 -211t-208.5 -88z" />
    <glyph glyph-name="Otilde" unicode="&#xd5;" horiz-adv-x="938" 
d="M251 954l33 -34q9 -10 20 1q35 43 81 43q38 0 83 -33t87 -33q14 0 28.5 3t26.5 8t23.5 12t20 13.5t16.5 13.5t12.5 12t8.5 10l4 4q9 9 0 19l-31 36q-9 11 -20 0q-46 -42 -90 -42q-30 0 -79.5 33.5t-90.5 33.5q-71 0 -134 -79q-8 -12 1 -21zM470 -7q169 0 288.5 118.5
t119.5 289.5q0 169 -119.5 287.5t-288.5 118.5q-170 0 -290 -118.5t-120 -287.5q0 -171 119.5 -289.5t290.5 -118.5zM470 102q-122 0 -209.5 88t-87.5 211q0 121 87.5 209t209.5 88q121 0 208.5 -88t87.5 -209q0 -123 -87.5 -211t-208.5 -88z" />
    <glyph glyph-name="Odieresis" unicode="&#xd6;" horiz-adv-x="938" 
d="M334 946q-25 0 -42.5 18t-17.5 43t17.5 43t42.5 18q26 0 43.5 -18t17.5 -43t-17.5 -43t-43.5 -18zM607 946q-25 0 -43 18t-18 43t18 43t43 18t42.5 -18t17.5 -43t-17.5 -43t-42.5 -18zM470 -7q169 0 288.5 118.5t119.5 289.5q0 169 -119.5 287.5t-288.5 118.5
q-170 0 -290 -118.5t-120 -287.5q0 -171 119.5 -289.5t290.5 -118.5zM470 102q-122 0 -209.5 88t-87.5 211q0 121 87.5 209t209.5 88q121 0 208.5 -88t87.5 -209q0 -123 -87.5 -211t-208.5 -88z" />
    <glyph glyph-name="multiply" unicode="&#xd7;" horiz-adv-x="544" 
d="M342 387l136 -136q10 -12 0 -22l-48 -48q-12 -12 -22 0l-136 136l-136 -136q-10 -12 -22 0l-48 48q-12 10 0 22l136 136l-136 135q-12 10 0 22l48 49q11 8 22 0l136 -136l136 136q10 9 22 0l48 -49q10 -12 0 -22z" />
    <glyph glyph-name="Oslash" unicode="&#xd8;" horiz-adv-x="979" 
d="M858 828l58 -58q12 -12 0 -23l-100 -100q84 -108 84 -246q0 -171 -119.5 -289.5t-289.5 -118.5q-137 0 -247 81l-97 -97q-11 -11 -23 0l-58 58q-11 12 0 23l97 97q-82 107 -82 246q0 169 120 287.5t290 118.5q135 0 244 -80l100 100q10 12 23 1zM194 401q0 -89 50 -165
l411 411q-75 51 -164 51q-121 0 -209 -88t-88 -209zM787 401q0 91 -52 165l-411 -412q76 -52 167 -52q121 0 208.5 88t87.5 211z" />
    <glyph glyph-name="Ugrave" unicode="&#xd9;" horiz-adv-x="771" 
d="M263 986l210 -120q16 -8 22 5l20 35q8 12 -4 19l-200 136q-16 12 -25 -2l-29 -49q-10 -16 6 -24zM685 801h-81q-16 0 -16 -17v-483q0 -95 -58.5 -147t-146.5 -52q-86 0 -143 51.5t-57 147.5v483q0 17 -16 17h-79q-18 0 -18 -17v-491q0 -129 84.5 -214.5t228.5 -85.5
q145 0 231 86t87 214v491q0 17 -16 17z" />
    <glyph glyph-name="Uacute" unicode="&#xda;" horiz-adv-x="771" 
d="M294 866l210 120q16 8 6 24l-30 49q-8 15 -24 2l-200 -136q-12 -7 -4 -19l20 -35q6 -13 22 -5zM685 801h-81q-16 0 -16 -17v-483q0 -95 -58.5 -147t-146.5 -52q-86 0 -143 51.5t-57 147.5v483q0 17 -16 17h-79q-18 0 -18 -17v-491q0 -129 84.5 -214.5t228.5 -85.5
q145 0 231 86t87 214v491q0 17 -16 17z" />
    <glyph glyph-name="Ucircumflex" unicode="&#xdb;" horiz-adv-x="771" 
d="M372 1057l-173 -122q-9 -5 -9 -15v-48q0 -10 7.5 -13.5t18.5 2.5l169 100l171 -100q11 -6 18 -2.5t7 13.5v48q0 10 -9 15l-174 122q-13 9 -26 0zM685 801h-81q-16 0 -16 -17v-483q0 -95 -58.5 -147t-146.5 -52q-86 0 -143 51.5t-57 147.5v483q0 17 -16 17h-79
q-18 0 -18 -17v-491q0 -129 84.5 -214.5t228.5 -85.5q145 0 231 86t87 214v491q0 17 -16 17z" />
    <glyph glyph-name="Udieresis" unicode="&#xdc;" horiz-adv-x="771" 
d="M249 932q-25 0 -42.5 18t-17.5 43t17.5 43t42.5 18q26 0 43.5 -18t17.5 -43t-17.5 -43t-43.5 -18zM522 932q-25 0 -43 18t-18 43t18 43t43 18t42.5 -18t17.5 -43t-17.5 -43t-42.5 -18zM685 801h-81q-16 0 -16 -17v-483q0 -95 -58.5 -147t-146.5 -52q-86 0 -143 51.5
t-57 147.5v483q0 17 -16 17h-79q-18 0 -18 -17v-491q0 -129 84.5 -214.5t228.5 -85.5q145 0 231 86t87 214v491q0 17 -16 17z" />
    <glyph glyph-name="Yacute" unicode="&#xdd;" horiz-adv-x="760" 
d="M292 869l210 120q16 8 6 24l-30 49q-8 15 -24 2l-200 -136q-12 -7 -4 -19l20 -35q6 -13 22 -5zM632 800h102q6 0 9 -5.5t-1 -12.5l-306 -456v-309q0 -17 -16 -17h-58q-18 0 -28.5 11t-10.5 29v286l-306 456q-4 7 -1 12.5t10 5.5h101q8 0 17 -15l235 -346l235 346
q11 15 18 15z" />
    <glyph glyph-name="Thorn" unicode="&#xde;" horiz-adv-x="670" 
d="M182 657h202q112 0 184 -79t72 -173q0 -102 -71.5 -181t-184.5 -79h-202v-128q0 -7 -4.5 -12t-11.5 -5h-77q-18 0 -18 17v767q0 16 17 16h77q7 0 12 -4.5t5 -11.5v-127zM182 249h192q42 0 74.5 16.5t49.5 43t25 59t0 64.5t-24.5 59t-49.5 43.5t-75 16.5h-192v-302z" />
    <glyph glyph-name="germandbls" unicode="&#xdf;" horiz-adv-x="644" 
d="M461 422q67 -28 102.5 -83t35.5 -116q0 -94 -72 -158.5t-166 -64.5h-27q-15 0 -15 15v61q0 15 16 17q78 4 120.5 39t42.5 99q0 62 -52 105t-127 43v64q0 15 10 18l30 4q96 17 96 110q0 51 -39 87t-104 36q-71 0 -112 -46.5t-41 -130.5l-1 -505q0 -7 -4.5 -11.5
t-10.5 -4.5h-77q-16 0 -16 16l1 516q0 123 72.5 197t188.5 74q106 0 178.5 -65.5t73.5 -162.5q0 -53 -21.5 -89.5t-81.5 -63.5z" />
    <glyph glyph-name="agrave" unicode="&#xe0;" horiz-adv-x="541" 
d="M158 731l210 -120q16 -8 22 5l20 35q8 12 -4 19l-200 136q-16 12 -25 -2l-29 -49q-10 -16 6 -24zM486 22q-17 125 -10 285q4 90 -44 142t-138 52q-119 0 -212 -51q-17 -9 -11 -23l25 -58q6 -15 24 -7q95 43 167 43q87 0 84 -78q-65 -11 -106 -20t-87.5 -25t-72 -34.5
t-43 -48t-17.5 -67.5q0 -65 44 -101t121 -36q58 0 96 14.5t75 43.5q9 -53 34 -53h60q13 0 11 22zM229 81q-73 0 -73 52q0 17 12 31t29.5 23t46 18t52.5 14.5t58 12.5l15 3q-2 -56 0 -106q-63 -48 -140 -48z" />
    <glyph glyph-name="aacute" unicode="&#xe1;" horiz-adv-x="541" 
d="M189 611l210 120q16 8 6 24l-30 49q-8 15 -24 2l-200 -136q-12 -7 -4 -19l20 -35q6 -13 22 -5zM486 22q-17 125 -10 285q4 90 -44 142t-138 52q-119 0 -212 -51q-17 -9 -11 -23l25 -58q6 -15 24 -7q95 43 167 43q87 0 84 -78q-65 -11 -106 -20t-87.5 -25t-72 -34.5
t-43 -48t-17.5 -67.5q0 -65 44 -101t121 -36q58 0 96 14.5t75 43.5q9 -53 34 -53h60q13 0 11 22zM229 81q-73 0 -73 52q0 17 12 31t29.5 23t46 18t52.5 14.5t58 12.5l15 3q-2 -56 0 -106q-63 -48 -140 -48z" />
    <glyph glyph-name="acircumflex" unicode="&#xe2;" horiz-adv-x="541" 
d="M267 802l-173 -122q-9 -5 -9 -15v-48q0 -10 7.5 -13.5t18.5 2.5l169 100l171 -100q11 -6 18 -2.5t7 13.5v48q0 10 -9 15l-174 122q-13 9 -26 0zM486 22q-17 125 -10 285q4 90 -44 142t-138 52q-119 0 -212 -51q-17 -9 -11 -23l25 -58q6 -15 24 -7q95 43 167 43
q87 0 84 -78q-65 -11 -106 -20t-87.5 -25t-72 -34.5t-43 -48t-17.5 -67.5q0 -65 44 -101t121 -36q58 0 96 14.5t75 43.5q9 -53 34 -53h60q13 0 11 22zM229 81q-73 0 -73 52q0 17 12 31t29.5 23t46 18t52.5 14.5t58 12.5l15 3q-2 -56 0 -106q-63 -48 -140 -48z" />
    <glyph glyph-name="atilde" unicode="&#xe3;" horiz-adv-x="541" 
d="M60 685l33 -34q9 -10 20 1q35 43 81 43q38 0 83 -33t87 -33q14 0 28.5 3t26.5 8t23.5 12t20 13.5t16.5 13.5t12.5 12t8.5 9l4 5q9 9 0 19l-31 36q-9 11 -20 0q-45 -42 -90 -42q-30 0 -79.5 33.5t-90.5 33.5q-71 0 -134 -79q-8 -12 1 -21zM486 22q-17 125 -10 285
q4 90 -44 142t-138 52q-119 0 -212 -51q-17 -9 -11 -23l25 -58q6 -15 24 -7q95 43 167 43q87 0 84 -78q-65 -11 -106 -20t-87.5 -25t-72 -34.5t-43 -48t-17.5 -67.5q0 -65 44 -101t121 -36q58 0 96 14.5t75 43.5q9 -53 34 -53h60q13 0 11 22zM229 81q-73 0 -73 52
q0 17 12 31t29.5 23t46 18t52.5 14.5t58 12.5l15 3q-2 -56 0 -106q-63 -48 -140 -48z" />
    <glyph glyph-name="adieresis" unicode="&#xe4;" horiz-adv-x="541" 
d="M143 677q-25 0 -42.5 18t-17.5 43t17.5 43t42.5 18q26 0 43.5 -18t17.5 -43t-17.5 -43t-43.5 -18zM416 677q-25 0 -43 18t-18 43t18 43t43 18t42.5 -18t17.5 -43t-17.5 -43t-42.5 -18zM486 22q-17 125 -10 285q4 90 -44 142t-138 52q-119 0 -212 -51q-17 -9 -11 -23
l25 -58q6 -15 24 -7q95 43 167 43q87 0 84 -78q-65 -11 -106 -20t-87.5 -25t-72 -34.5t-43 -48t-17.5 -67.5q0 -65 44 -101t121 -36q58 0 96 14.5t75 43.5q9 -53 34 -53h60q13 0 11 22zM229 81q-73 0 -73 52q0 17 12 31t29.5 23t46 18t52.5 14.5t58 12.5l15 3q-2 -56 0 -106
q-63 -48 -140 -48z" />
    <glyph glyph-name="aring" unicode="&#xe5;" horiz-adv-x="541" 
d="M280 562q-50 0 -86.5 36t-36.5 86q0 51 36.5 87t86.5 36t86.5 -36t36.5 -87q0 -50 -36.5 -86t-86.5 -36zM280 619q28 0 46.5 19t18.5 46t-18.5 46t-46.5 19q-26 0 -45 -19t-19 -46t19 -46t45 -19zM486 22q-17 125 -10 285q4 90 -44 142t-138 52q-119 0 -212 -51
q-17 -9 -11 -23l25 -58q6 -15 24 -7q95 43 167 43q87 0 84 -78q-65 -11 -106 -20t-87.5 -25t-72 -34.5t-43 -48t-17.5 -67.5q0 -65 44 -101t121 -36q58 0 96 14.5t75 43.5q9 -53 34 -53h60q13 0 11 22zM229 81q-73 0 -73 52q0 17 12 31t29.5 23t46 18t52.5 14.5t58 12.5
l15 3q-2 -56 0 -106q-63 -48 -140 -48z" />
    <glyph glyph-name="ae" unicode="&#xe6;" horiz-adv-x="892" 
d="M855 267q0 -60 -62 -60h-312q8 -51 49.5 -83.5t101.5 -32.5q84 0 143 48q15 9 25 -3l20 -25q9 -12 2 -22q-70 -94 -202 -94q-74 0 -135 36l1 -9q2 -22 -11 -22h-60q-25 0 -34 53q-37 -29 -75 -43.5t-96 -14.5q-77 0 -121 36t-44 101q0 38 17.5 67.5t43 48t72 34.5
t87.5 25t106 20q3 78 -84 78q-72 0 -167 -43q-18 -8 -24 7l-25 58q-6 14 11 23q93 51 212 51q102 0 149 -66q70 67 171 67q106 0 173.5 -69.5t67.5 -165.5zM481 292h260q-3 41 -37.5 75.5t-91.5 34.5t-92.5 -34.5t-38.5 -75.5zM229 81q77 0 140 48q-1 22 -1 81q0 4 -1 12
t-1 12q-52 -10 -77.5 -16t-62.5 -18.5t-53.5 -29t-16.5 -37.5q0 -52 73 -52z" />
    <glyph glyph-name="ccedilla" unicode="&#xe7;" horiz-adv-x="513" 
d="M468 67q-71 -67 -157 -74l-31 -57h5q54 0 93.5 -38t39.5 -92q0 -53 -39.5 -92t-94.5 -39q-61 0 -102 48q-4 7 1 13l25 27q7 7 15 -1q29 -25 60 -25q34 0 52.5 20t18.5 49t-18.5 48.5t-50.5 19.5q-34 0 -62 -27q-9 -9 -16 -3l-25 26q-4 5 -2 11l3 5l61 112
q-87 18 -145.5 87.5t-58.5 160.5q0 106 76 181t180 75q98 0 168 -70q10 -10 1 -23l-38 -48q-8 -11 -24 -1q-40 40 -104 40q-69 0 -111.5 -45.5t-42.5 -107.5t43 -107.5t112 -45.5q60 0 106 46q14 11 25 -2l38 -48q9 -13 -1 -23z" />
    <glyph glyph-name="egrave" unicode="&#xe8;" horiz-adv-x="562" 
d="M163 731l210 -120q16 -8 22 5l20 35q8 12 -4 19l-200 136q-16 12 -25 -2l-29 -49q-10 -16 6 -24zM151 207h313q61 0 61 60q0 96 -67.5 165.5t-173.5 69.5q-105 0 -176.5 -73t-71.5 -181q0 -111 73.5 -182t180.5 -71q132 0 202 94q7 10 -2 22l-19 25q-10 13 -26 3
q-59 -48 -143 -48q-60 0 -101.5 32.5t-49.5 83.5zM411 292h-260q3 41 38.5 75.5t92.5 34.5t91.5 -34.5t37.5 -75.5z" />
    <glyph glyph-name="eacute" unicode="&#xe9;" horiz-adv-x="562" 
d="M194 611l210 120q16 8 6 24l-30 49q-8 15 -24 2l-200 -136q-12 -7 -4 -19l20 -35q6 -13 22 -5zM151 207h313q61 0 61 60q0 96 -67.5 165.5t-173.5 69.5q-105 0 -176.5 -73t-71.5 -181q0 -111 73.5 -182t180.5 -71q132 0 202 94q7 10 -2 22l-19 25q-10 13 -26 3
q-59 -48 -143 -48q-60 0 -101.5 32.5t-49.5 83.5zM411 292h-260q3 41 38.5 75.5t92.5 34.5t91.5 -34.5t37.5 -75.5z" />
    <glyph glyph-name="ecircumflex" unicode="&#xea;" horiz-adv-x="562" 
d="M272 802l-173 -122q-9 -5 -9 -15v-48q0 -10 7.5 -13.5t18.5 2.5l169 100l171 -100q11 -6 18 -2.5t7 13.5v48q0 10 -9 15l-174 122q-13 9 -26 0zM151 207h313q61 0 61 60q0 96 -67.5 165.5t-173.5 69.5q-105 0 -176.5 -73t-71.5 -181q0 -111 73.5 -182t180.5 -71
q132 0 202 94q7 10 -2 22l-19 25q-10 13 -26 3q-59 -48 -143 -48q-60 0 -101.5 32.5t-49.5 83.5zM411 292h-260q3 41 38.5 75.5t92.5 34.5t91.5 -34.5t37.5 -75.5z" />
    <glyph glyph-name="edieresis" unicode="&#xeb;" horiz-adv-x="562" 
d="M149 677q-25 0 -42.5 18t-17.5 43t17.5 43t42.5 18q26 0 43.5 -18t17.5 -43t-17.5 -43t-43.5 -18zM422 677q-25 0 -43 18t-18 43t18 43t43 18t42.5 -18t17.5 -43t-17.5 -43t-42.5 -18zM151 207h313q61 0 61 60q0 96 -67.5 165.5t-173.5 69.5q-105 0 -176.5 -73
t-71.5 -181q0 -111 73.5 -182t180.5 -71q132 0 202 94q7 10 -2 22l-19 25q-10 13 -26 3q-59 -48 -143 -48q-60 0 -101.5 32.5t-49.5 83.5zM411 292h-260q3 41 38.5 75.5t92.5 34.5t91.5 -34.5t37.5 -75.5z" />
    <glyph glyph-name="igrave" unicode="&#xec;" horiz-adv-x="259" 
d="M9 731l210 -120q16 -8 22 5l20 35q8 12 -4 19l-200 136q-16 12 -25 -2l-29 -49q-10 -16 6 -24zM168 495h-77q-16 0 -16 -16v-439q0 -18 10 -29t28 -11h56q15 0 15 17v462q0 16 -16 16z" />
    <glyph glyph-name="iacute" unicode="&#xed;" horiz-adv-x="259" 
d="M40 611l210 120q16 8 6 24l-30 49q-8 15 -24 2l-200 -136q-12 -7 -4 -19l20 -35q6 -13 22 -5zM168 495h-77q-16 0 -16 -16v-439q0 -18 10 -29t28 -11h56q15 0 15 17v462q0 16 -16 16z" />
    <glyph glyph-name="icircumflex" unicode="&#xee;" horiz-adv-x="259" 
d="M118 802l-173 -122q-9 -5 -9 -15v-48q0 -10 7.5 -13.5t18.5 2.5l169 100l171 -100q11 -6 18 -2.5t7 13.5v48q0 10 -9 15l-174 122q-13 9 -26 0zM168 495h-77q-16 0 -16 -16v-439q0 -18 10 -29t28 -11h56q15 0 15 17v462q0 16 -16 16z" />
    <glyph glyph-name="idieresis" unicode="&#xef;" horiz-adv-x="259" 
d="M-5 677q-25 0 -42.5 18t-17.5 43t17.5 43t42.5 18q26 0 43.5 -18t17.5 -43t-17.5 -43t-43.5 -18zM268 677q-25 0 -43 18t-18 43t18 43t43 18t42.5 -18t17.5 -43t-17.5 -43t-42.5 -18zM168 495h-77q-16 0 -16 -16v-439q0 -18 10 -29t28 -11h56q15 0 15 17v462q0 16 -16 16
z" />
    <glyph glyph-name="eth" unicode="&#xf0;" horiz-adv-x="598" 
d="M456 657l11 -14q94 -120 90 -311q-1 -153 -73.5 -246t-192.5 -93q-105 0 -178 73.5t-73 175.5q0 101 72.5 170.5t175.5 69.5q47 0 89.5 -22.5t70.5 -58.5q-4 125 -82 207l-104 -56q-15 -10 -23 6l-5 9q-7 15 7 23l89 49q-62 45 -142 45q-18 0 -16 16l7 74q1 15 17 15
q128 -4 229 -99l55 30q12 9 22 -5l6 -11q8 -15 -7 -23zM439 236q3 58 -42 103t-106 45q-57 0 -99.5 -43t-42.5 -101q0 -59 44 -102.5t101 -43.5q58 0 100.5 42t44.5 100z" />
    <glyph glyph-name="ntilde" unicode="&#xf1;" horiz-adv-x="591" 
d="M117 651l-33 34q-9 9 -1 21q63 79 134 79q41 0 90.5 -33.5t79.5 -33.5q45 0 90 42q11 11 20 0l31 -36q9 -10 0 -19l-4 -5q-4 -4 -8.5 -9t-12.5 -12t-16.5 -13.5t-20 -13.5t-23.5 -12t-26.5 -8t-28.5 -3q-42 0 -87 33t-83 33q-46 0 -81 -43q-11 -11 -20 -1zM540 21
q4 -21 -10 -21h-65q-39 0 -39 40v260q0 49 -31 76.5t-81 27.5q-77 0 -145 -66v-322q0 -16 -16 -16h-78q-15 0 -15 16v463q0 16 15 16h54q17 0 28 -14t12 -29v-10q78 60 159 60q83 0 144.5 -50.5t61.5 -139.5v-222q1 -38 6 -69z" />
    <glyph glyph-name="ograve" unicode="&#xf2;" horiz-adv-x="592" 
d="M174 731l210 -120q16 -8 22 5l20 35q8 12 -4 19l-200 136q-16 12 -25 -2l-29 -49q-10 -16 6 -24zM296 -7q106 0 181 73.5t75 180.5q0 108 -75 181.5t-181 73.5t-181 -73.5t-75 -181.5q0 -107 75 -180.5t181 -73.5zM296 95q-63 0 -106.5 45t-43.5 106q0 63 43 108.5
t107 45.5t107 -45.5t43 -108.5q0 -61 -43.5 -106t-106.5 -45z" />
    <glyph glyph-name="oacute" unicode="&#xf3;" horiz-adv-x="592" 
d="M205 611l210 120q16 8 6 24l-30 49q-8 15 -24 2l-200 -136q-12 -7 -4 -19l20 -35q6 -13 22 -5zM296 -7q106 0 181 73.5t75 180.5q0 108 -75 181.5t-181 73.5t-181 -73.5t-75 -181.5q0 -107 75 -180.5t181 -73.5zM296 95q-63 0 -106.5 45t-43.5 106q0 63 43 108.5
t107 45.5t107 -45.5t43 -108.5q0 -61 -43.5 -106t-106.5 -45z" />
    <glyph glyph-name="ocircumflex" unicode="&#xf4;" horiz-adv-x="592" 
d="M283 802l-173 -122q-9 -5 -9 -15v-48q0 -10 7.5 -13.5t18.5 2.5l169 100l171 -100q11 -6 18 -2.5t7 13.5v48q0 10 -9 15l-174 122q-13 9 -26 0zM296 -7q106 0 181 73.5t75 180.5q0 108 -75 181.5t-181 73.5t-181 -73.5t-75 -181.5q0 -107 75 -180.5t181 -73.5zM296 95
q-63 0 -106.5 45t-43.5 106q0 63 43 108.5t107 45.5t107 -45.5t43 -108.5q0 -61 -43.5 -106t-106.5 -45z" />
    <glyph glyph-name="otilde" unicode="&#xf5;" horiz-adv-x="592" 
d="M77 685l33 -34q9 -10 20 1q35 43 81 43q38 0 83 -33t87 -33q14 0 28.5 3t26.5 8t23.5 12t20 13.5t16.5 13.5t12.5 12t8.5 9l4 5q9 9 0 19l-31 36q-9 11 -20 0q-46 -42 -90 -42q-30 0 -79.5 33.5t-90.5 33.5q-71 0 -134 -79q-8 -12 1 -21zM296 -7q106 0 181 73.5t75 180.5
q0 108 -75 181.5t-181 73.5t-181 -73.5t-75 -181.5q0 -107 75 -180.5t181 -73.5zM296 95q-63 0 -106.5 45t-43.5 106q0 63 43 108.5t107 45.5t107 -45.5t43 -108.5q0 -61 -43.5 -106t-106.5 -45z" />
    <glyph glyph-name="odieresis" unicode="&#xf6;" horiz-adv-x="592" 
d="M160 677q-25 0 -42.5 18t-17.5 43t17.5 43t42.5 18q26 0 43.5 -18t17.5 -43t-17.5 -43t-43.5 -18zM433 677q-25 0 -43 18t-18 43t18 43t43 18t42.5 -18t17.5 -43t-17.5 -43t-42.5 -18zM296 -7q106 0 181 73.5t75 180.5q0 108 -75 181.5t-181 73.5t-181 -73.5t-75 -181.5
q0 -107 75 -180.5t181 -73.5zM296 95q-63 0 -106.5 45t-43.5 106q0 63 43 108.5t107 45.5t107 -45.5t43 -108.5q0 -61 -43.5 -106t-106.5 -45z" />
    <glyph glyph-name="divide" unicode="&#xf7;" horiz-adv-x="620" 
d="M310 550q-29 0 -49.5 20.5t-20.5 49.5q0 28 21 48.5t49 20.5t48 -20.5t20 -48.5q0 -29 -20 -49.5t-48 -20.5zM570 411v-66q0 -7 -4.5 -12t-11.5 -5h-490q-7 0 -12 4.5t-5 11.5v66q0 17 17 17h490q16 0 16 -16zM310 65q-29 0 -49.5 20.5t-20.5 49.5q0 28 21 48.5t49 20.5
t48 -20.5t20 -48.5q0 -29 -20 -49.5t-48 -20.5z" />
    <glyph glyph-name="oslash" unicode="&#xf8;" horiz-adv-x="659" 
d="M566 523l40 -40q8 -7 -1 -16l-67 -67q50 -68 50 -153q0 -107 -75 -180.5t-181 -73.5q-84 0 -152 49l-70 -70q-9 -9 -15 0l-40 40q-8 7 0 15l70 70q-49 66 -49 150q0 108 75 181.5t181 73.5q83 0 149 -47l68 68q9 8 17 0zM182 246q0 -38 19 -73l206 207q-34 20 -75 20
q-64 0 -107 -45.5t-43 -108.5zM482 246q0 43 -20 78l-207 -207q35 -22 77 -22q63 0 106.5 45t43.5 106z" />
    <glyph glyph-name="ugrave" unicode="&#xf9;" horiz-adv-x="585" 
d="M377 611l-210 120q-16 8 -6 24l29 49q9 14 25 2l200 -136q12 -7 4 -19l-20 -35q-6 -13 -22 -5zM437 495h78q15 0 15 -17v-462q0 -16 -14 -16h-62q-12 0 -21.5 14t-10.5 28v12q-75 -60 -160 -60q-83 0 -144.5 50.5t-61.5 139.5v221q0 34 -5 69q-4 21 10 21h65
q18 0 28.5 -11t10.5 -29v-261q0 -49 30.5 -76t81.5 -27q72 0 145 73v314q0 17 15 17z" />
    <glyph glyph-name="uacute" unicode="&#xfa;" horiz-adv-x="585" 
d="M176 616l-20 35q-8 12 4 19l200 136q16 13 24 -2l30 -49q10 -16 -6 -24l-210 -120q-16 -8 -22 5zM437 495h78q15 0 15 -17v-462q0 -16 -14 -16h-62q-12 0 -21.5 14t-10.5 28v12q-75 -60 -160 -60q-83 0 -144.5 50.5t-61.5 139.5v221q0 34 -5 69q-4 21 10 21h65
q18 0 28.5 -11t10.5 -29v-261q0 -49 30.5 -76t81.5 -27q72 0 145 73v314q0 17 15 17z" />
    <glyph glyph-name="ucircumflex" unicode="&#xfb;" horiz-adv-x="585" 
d="M289 706l-169 -100q-11 -6 -18.5 -2.5t-7.5 13.5v48q0 10 9 15l173 122q13 9 26 0l174 -122q9 -5 9 -15v-48q0 -10 -7 -13.5t-18 2.5zM437 495h78q15 0 15 -17v-462q0 -16 -14 -16h-62q-12 0 -21.5 14t-10.5 28v12q-75 -60 -160 -60q-83 0 -144.5 50.5t-61.5 139.5v221
q0 34 -5 69q-4 21 10 21h65q18 0 28.5 -11t10.5 -29v-261q0 -49 30.5 -76t81.5 -27q72 0 145 73v314q0 17 15 17z" />
    <glyph glyph-name="udieresis" unicode="&#xfc;" horiz-adv-x="585" 
d="M153 677q-25 0 -42.5 18t-17.5 43t17.5 43t42.5 18q26 0 43.5 -18t17.5 -43t-17.5 -43t-43.5 -18zM426 677q-25 0 -43 18t-18 43t18 43t43 18t42.5 -18t17.5 -43t-17.5 -43t-42.5 -18zM437 495h78q15 0 15 -17v-462q0 -16 -14 -16h-62q-12 0 -21.5 14t-10.5 28v12
q-75 -60 -160 -60q-83 0 -144.5 50.5t-61.5 139.5v221q0 34 -5 69q-4 21 10 21h65q18 0 28.5 -11t10.5 -29v-261q0 -49 30.5 -76t81.5 -27q72 0 145 73v314q0 17 15 17z" />
    <glyph glyph-name="yacute" unicode="&#xfd;" horiz-adv-x="578" 
d="M207 611l210 120q16 8 6 24l-30 49q-8 15 -24 2l-200 -136q-12 -7 -4 -19l20 -35q6 -13 22 -5zM453 495h85q9 0 12.5 -5.5t-0.5 -13.5l-198 -407q-130 -270 -233 -371q-13 -11 -30 6l-43 43q-15 13 1 32q118 134 191 298l-208 400q-4 7 -0.5 12.5t11.5 5.5h88
q12 0 18 -11l147 -300l140 299q6 12 19 12z" />
    <glyph glyph-name="thorn" unicode="&#xfe;" horiz-adv-x="586" 
d="M316 499q92 0 160.5 -69t68.5 -177q0 -112 -64 -186t-168 -74q-75 0 -135 43v-285q0 -20 -17 -32.5t-36 -12.5h-40q-16 0 -16 16v992q0 17 -8 65q-4 21 11 21h68q17 0 27.5 -10t10.5 -26v-304q63 39 138 39zM296 94q62 0 102 43t40 116q0 71 -42 108t-96 37
q-61 0 -122 -39v-232q59 -33 118 -33z" />
    <glyph glyph-name="ydieresis" unicode="&#xff;" horiz-adv-x="578" 
d="M162 677q-25 0 -42.5 18t-17.5 43t17.5 43t42.5 18q26 0 43.5 -18t17.5 -43t-17.5 -43t-43.5 -18zM435 677q-25 0 -43 18t-18 43t18 43t43 18t42.5 -18t17.5 -43t-17.5 -43t-42.5 -18zM453 495h85q9 0 12.5 -5.5t-0.5 -13.5l-198 -407q-130 -270 -233 -371q-13 -11 -30 6
l-43 43q-15 13 1 32q118 134 191 298l-208 400q-4 7 -0.5 12.5t11.5 5.5h88q12 0 18 -11l147 -300l140 299q6 12 19 12z" />
    <glyph glyph-name="Amacron" unicode="&#x100;" horiz-adv-x="876" 
d="M641 956h-405q-13 0 -13 13v57q0 12 13 12l405 1q14 0 14 -13v-57q0 -13 -14 -13zM458 796l375 -778q9 -18 -9 -18h-91q-12 0 -17 11l-61 130h-432l-61 -130q-6 -11 -17 -11h-92q-8 0 -11 5.5t0 12.5l377 778q4 9 13 9h13q8 0 13 -9zM272 244h334l-167 354z" />
    <glyph glyph-name="amacron" unicode="&#x101;" horiz-adv-x="541" 
d="M64 693v57q0 12 13 12l405 1q14 0 14 -13v-57q0 -13 -14 -13h-405q-13 0 -13 13zM486 22q-17 125 -10 285q4 90 -44 142t-138 52q-119 0 -212 -51q-17 -9 -11 -23l25 -58q6 -15 24 -7q95 43 167 43q87 0 84 -78q-65 -11 -106 -20t-87.5 -25t-72 -34.5t-43 -48
t-17.5 -67.5q0 -65 44 -101t121 -36q58 0 96 14.5t75 43.5q9 -53 34 -53h60q13 0 11 22zM229 81q-73 0 -73 52q0 17 12 31t29.5 23t46 18t52.5 14.5t58 12.5l15 3q-2 -56 0 -106q-63 -48 -140 -48z" />
    <glyph glyph-name="Abreve" unicode="&#x102;" horiz-adv-x="876" 
d="M440 894q-73 0 -124.5 45t-59.5 114q-3 24 17 24h41q12 0 16 -16q9 -44 40 -68t70 -24q35 0 67 25t41 66q3 17 17 17h42q8 0 13 -7t4 -18q-9 -68 -60.5 -113t-123.5 -45zM458 796l375 -778q9 -18 -9 -18h-91q-12 0 -17 11l-61 130h-432l-61 -130q-6 -11 -17 -11h-92
q-8 0 -11 5.5t0 12.5l377 778q4 9 13 9h13q8 0 13 -9zM272 244h334l-167 354z" />
    <glyph glyph-name="abreve" unicode="&#x103;" horiz-adv-x="541" 
d="M96 777q8 -69 59.5 -114t124.5 -45q72 0 123.5 45t60.5 113q1 11 -4 18t-13 7h-42q-14 0 -17 -17q-9 -41 -41 -66t-67 -25q-39 0 -70 24t-40 68q-4 16 -16 16h-41q-20 0 -17 -24zM486 22q-17 125 -10 285q4 90 -44 142t-138 52q-119 0 -212 -51q-17 -9 -11 -23l25 -58
q6 -15 24 -7q95 43 167 43q87 0 84 -78q-65 -11 -106 -20t-87.5 -25t-72 -34.5t-43 -48t-17.5 -67.5q0 -65 44 -101t121 -36q58 0 96 14.5t75 43.5q9 -53 34 -53h60q13 0 11 22zM229 81q-73 0 -73 52q0 17 12 31t29.5 23t46 18t52.5 14.5t58 12.5l15 3q-2 -56 0 -106
q-63 -48 -140 -48z" />
    <glyph glyph-name="Aogonek" unicode="&#x104;" horiz-adv-x="876" 
d="M823 -178q9 4 16.5 0t7.5 -14v-31q0 -8 -9 -14q-67 -45 -150 -28q-99 20 -99 104q0 49 47 94.5t116 66.5h-19q-12 0 -17 11l-61 130h-432l-61 -130q-6 -11 -17 -11h-92q-8 0 -11 5.5t0 12.5l377 778q4 9 13 9h13q8 0 13 -9l375 -778q9 -18 -9 -18h-15q-144 -67 -144 -136
q0 -29 21.5 -45.5t48.5 -16.5q43 0 88 20zM272 244h334l-167 354z" />
    <glyph glyph-name="aogonek" unicode="&#x105;" horiz-adv-x="541" 
d="M489 -178q9 4 16.5 0t7.5 -14v-31q0 -8 -9 -14q-67 -45 -150 -28q-99 20 -99 104q0 49 47 94.5t116 66.5h-3q-25 0 -34 53q-37 -29 -75 -43.5t-96 -14.5q-77 0 -121 36t-44 101q0 38 17.5 67.5t43 48t72 34.5t87.5 25t106 20q3 78 -84 78q-72 0 -167 -43q-18 -8 -24 7
l-25 58q-6 14 11 23q93 51 212 51q90 0 138 -52t44 -142q-7 -160 10 -285q2 -22 -11 -22q-144 -67 -144 -136q0 -29 21.5 -45.5t48.5 -16.5q43 0 88 20zM369 129q-2 50 0 106q-130 -27 -168 -46q-45 -23 -45 -56q0 -52 73 -52q77 0 140 48z" />
    <glyph glyph-name="Cacute" unicode="&#x106;" 
d="M362 874l210 120q16 8 6 24l-30 49q-8 15 -24 2l-200 -136q-12 -7 -4 -19l20 -35q6 -13 22 -5zM683 195l64 -52q13 -11 -1 -25q-119 -125 -295 -125q-167 0 -286.5 118t-119.5 287q0 170 119.5 289.5t286.5 119.5q177 0 297 -126q14 -14 1 -24l-64 -52q-12 -10 -23 1
q-88 92 -207 92q-130 0 -213.5 -91t-83.5 -209t83.5 -207t213.5 -89q117 0 204 89q12 13 24 4z" />
    <glyph glyph-name="cacute" unicode="&#x107;" horiz-adv-x="513" 
d="M186 611l210 120q16 8 6 24l-30 49q-8 15 -24 2l-200 -136q-12 -7 -4 -19l20 -35q6 -13 22 -5zM431 138l38 -48q9 -13 -1 -23q-78 -74 -172 -74q-104 0 -180 73.5t-76 179.5t76 181t180 75q98 0 168 -70q10 -10 1 -23l-38 -48q-8 -11 -24 -1q-40 40 -104 40
q-69 0 -111.5 -45.5t-42.5 -107.5t43 -107.5t112 -45.5q60 0 106 46q14 11 25 -2z" />
    <glyph glyph-name="Cdotaccent" unicode="&#x10a;" 
d="M453 950q-23 0 -39.5 16t-16.5 39t16.5 40t39.5 17q24 0 40 -16.5t16 -40.5q0 -23 -16 -39t-40 -16zM683 195l64 -52q13 -11 -1 -25q-119 -125 -295 -125q-167 0 -286.5 118t-119.5 287q0 170 119.5 289.5t286.5 119.5q177 0 297 -126q14 -14 1 -24l-64 -52
q-12 -10 -23 1q-88 92 -207 92q-130 0 -213.5 -91t-83.5 -209t83.5 -207t213.5 -89q117 0 204 89q12 13 24 4z" />
    <glyph glyph-name="cdotaccent" unicode="&#x10b;" horiz-adv-x="513" 
d="M277 687q-23 0 -39.5 16t-16.5 39t16.5 40t39.5 17q24 0 40 -16.5t16 -40.5q0 -23 -16 -39t-40 -16zM431 138l38 -48q9 -13 -1 -23q-78 -74 -172 -74q-104 0 -180 73.5t-76 179.5t76 181t180 75q98 0 168 -70q10 -10 1 -23l-38 -48q-8 -11 -24 -1q-40 40 -104 40
q-69 0 -111.5 -45.5t-42.5 -107.5t43 -107.5t112 -45.5q60 0 106 46q14 11 25 -2z" />
    <glyph glyph-name="Ccaron" unicode="&#x10c;" 
d="M465 869l173 122q10 8 10 15v49q0 10 -7.5 13t-18.5 -2l-170 -101l-170 101q-11 5 -18.5 2t-7.5 -13v-49q0 -6 9 -15l174 -122q14 -9 26 0zM683 195l64 -52q13 -11 -1 -25q-119 -125 -295 -125q-167 0 -286.5 118t-119.5 287q0 170 119.5 289.5t286.5 119.5
q177 0 297 -126q14 -14 1 -24l-64 -52q-12 -10 -23 1q-88 92 -207 92q-130 0 -213.5 -91t-83.5 -209t83.5 -207t213.5 -89q117 0 204 89q12 13 24 4z" />
    <glyph glyph-name="ccaron" unicode="&#x10d;" horiz-adv-x="513" 
d="M289 606l173 122q10 8 10 15v49q0 10 -7.5 13t-18.5 -2l-170 -101l-170 101q-11 5 -18.5 2t-7.5 -13v-49q0 -6 9 -15l174 -122q14 -9 26 0zM431 138l38 -48q9 -13 -1 -23q-78 -74 -172 -74q-104 0 -180 73.5t-76 179.5t76 181t180 75q98 0 168 -70q10 -10 1 -23l-38 -48
q-8 -11 -24 -1q-40 40 -104 40q-69 0 -111.5 -45.5t-42.5 -107.5t43 -107.5t112 -45.5q60 0 106 46q14 11 25 -2z" />
    <glyph glyph-name="Dcaron" unicode="&#x10e;" horiz-adv-x="808" 
d="M382 866l173 122q10 8 10 15v49q0 10 -7.5 13t-18.5 -2l-170 -101l-170 101q-11 5 -18.5 2t-7.5 -13v-49q0 -6 9 -15l174 -122q14 -9 26 0zM76 800h268q96 0 175.5 -35t129.5 -92t77 -126.5t27 -142.5q0 -79 -27 -151.5t-77.5 -129t-129 -90t-174.5 -33.5h-268
q-17 0 -17 17v767q0 16 16 16zM173 109h174q133 0 212 88t78 208q0 118 -77.5 202t-212.5 84h-175z" />
    <glyph glyph-name="dcaron" unicode="&#x10f;" horiz-adv-x="755" 
d="M727 733q8 -56 -8 -119q-19 -70 -80 -115q-10 -8 -17 -1l-14 17q-6 5 -1 10q64 60 62 131l-1 16q-10 -2 -16 -2q-28 0 -47.5 19t-19.5 48q0 30 18.5 48.5t48.5 18.5q48 0 64 -39q10 -14 11 -32zM415 800h68q17 0 27.5 -10t10.5 -26v-748q0 -7 -4.5 -11.5t-10.5 -4.5h-41
q-16 0 -32 10.5t-19 27.5q-62 -45 -139 -45q-104 0 -169.5 74.5t-65.5 185.5q0 108 70 177t162 69q79 0 141 -40v255q0 11 -9 65q-4 21 11 21zM147 253q0 -73 41.5 -116t104.5 -43q61 0 120 35v228q-61 41 -124 41q-54 0 -98 -37.5t-44 -107.5z" />
    <glyph glyph-name="Dcroat" unicode="&#x110;" horiz-adv-x="818" 
d="M86 800h268q96 0 175.5 -35t129.5 -92t77 -126.5t27 -142.5q0 -79 -27 -151.5t-77.5 -129t-129 -90t-174.5 -33.5h-268q-17 0 -17 17v329h-33q-17 0 -17 16v75q0 18 17 18h33v329q0 16 16 16zM183 109h174q133 0 212 88t78 208q0 118 -77.5 202t-212.5 84h-175v-236h151
q16 0 16 -16v-76q0 -17 -16 -17h-150v-237z" />
    <glyph glyph-name="dcroat" unicode="&#x111;" horiz-adv-x="629" 
d="M521 700h75q13 0 13 -13v-57q0 -13 -13 -13h-75v-601q0 -7 -4.5 -11.5t-10.5 -4.5h-41q-16 0 -32 10.5t-19 27.5q-62 -45 -139 -45q-104 0 -169.5 74.5t-65.5 185.5q0 108 70 177t162 69q79 0 141 -40v158h-223q-13 0 -13 13v57q0 12 13 12l223 1v14q0 11 -9 65
q-4 21 11 21h68q17 0 27.5 -10t10.5 -26v-64zM147 253q0 -73 41.5 -116t104.5 -43q61 0 120 35v228q-61 41 -124 41q-54 0 -98 -37.5t-44 -107.5z" />
    <glyph glyph-name="Emacron" unicode="&#x112;" horiz-adv-x="664" 
d="M543 942h-405q-13 0 -13 13v57q0 12 13 12l405 1q14 0 14 -13v-57q0 -13 -14 -13zM585 691h-397v-244h230q17 0 17 -17v-75q0 -17 -17 -17h-229v-229h396q17 0 17 -17v-75q0 -17 -17 -17h-493q-17 0 -17 17v767q0 16 16 16h494q17 0 17 -16v-77q0 -16 -17 -16z" />
    <glyph glyph-name="emacron" unicode="&#x113;" horiz-adv-x="562" 
d="M69 693v57q0 12 13 12l405 1q14 0 14 -13v-57q0 -13 -14 -13h-405q-13 0 -13 13zM151 207h313q61 0 61 60q0 96 -67.5 165.5t-173.5 69.5q-105 0 -176.5 -73t-71.5 -181q0 -111 73.5 -182t180.5 -71q132 0 202 94q7 10 -2 22l-19 25q-10 13 -26 3q-59 -48 -143 -48
q-60 0 -101.5 32.5t-49.5 83.5zM411 292h-260q3 41 38.5 75.5t92.5 34.5t91.5 -34.5t37.5 -75.5z" />
    <glyph glyph-name="Edotaccent" unicode="&#x116;" horiz-adv-x="664" 
d="M341 949q-23 0 -39.5 16t-16.5 39t16.5 40t39.5 17q24 0 40 -16.5t16 -40.5q0 -23 -16 -39t-40 -16zM585 691h-397v-244h230q17 0 17 -17v-75q0 -17 -17 -17h-229v-229h396q17 0 17 -17v-75q0 -17 -17 -17h-493q-17 0 -17 17v767q0 16 16 16h494q17 0 17 -16v-77
q0 -16 -17 -16z" />
    <glyph glyph-name="edotaccent" unicode="&#x117;" horiz-adv-x="562" 
d="M285 687q-23 0 -39.5 16t-16.5 39t16.5 40t39.5 17q24 0 40 -16.5t16 -40.5q0 -23 -16 -39t-40 -16zM151 207h313q61 0 61 60q0 96 -67.5 165.5t-173.5 69.5q-105 0 -176.5 -73t-71.5 -181q0 -111 73.5 -182t180.5 -71q132 0 202 94q7 10 -2 22l-19 25q-10 13 -26 3
q-59 -48 -143 -48q-60 0 -101.5 32.5t-49.5 83.5zM411 292h-260q3 41 38.5 75.5t92.5 34.5t91.5 -34.5t37.5 -75.5z" />
    <glyph glyph-name="Eogonek" unicode="&#x118;" horiz-adv-x="664" 
d="M585 691h-397v-244h230q17 0 17 -17v-75q0 -17 -17 -17h-229v-229h396q17 0 17 -17v-75q0 -17 -17 -17h-22q-144 -67 -144 -136q0 -29 21.5 -45.5t48.5 -16.5q43 0 88 20q9 4 16.5 0t7.5 -14v-31q0 -8 -9 -14q-67 -45 -150 -28q-99 20 -99 104q0 49 47 94.5t116 66.5
h-414q-17 0 -17 17v767q0 16 16 16h494q17 0 17 -16v-77q0 -16 -17 -16z" />
    <glyph glyph-name="eogonek" unicode="&#x119;" horiz-adv-x="562" 
d="M525 267q0 -60 -61 -60h-313q8 -51 49.5 -83.5t101.5 -32.5q84 0 143 48q16 10 26 -3l19 -25q9 -12 2 -22q-54 -71 -147 -89h2q-144 -67 -144 -136q0 -29 21.5 -45.5t48.5 -16.5q43 0 88 20q9 4 16.5 0t7.5 -14v-31q0 -8 -9 -14q-67 -45 -150 -28q-99 20 -99 104
q0 46 42.5 90t106.5 66q-102 5 -171 75.5t-69 177.5q0 108 71.5 181t176.5 73q106 0 173.5 -69.5t67.5 -165.5zM151 292h260q-3 41 -37.5 75.5t-91.5 34.5t-92.5 -34.5t-38.5 -75.5z" />
    <glyph glyph-name="Ecaron" unicode="&#x11a;" horiz-adv-x="664" 
d="M327 868l-174 122q-9 9 -9 15v49q0 10 7.5 13t18.5 -2l170 -101l170 101q11 5 18.5 2t7.5 -13v-49q0 -7 -10 -15l-173 -122q-12 -9 -26 0zM585 691h-397v-244h230q17 0 17 -17v-75q0 -17 -17 -17h-229v-229h396q17 0 17 -17v-75q0 -17 -17 -17h-493q-17 0 -17 17v767
q0 16 16 16h494q17 0 17 -16v-77q0 -16 -17 -16z" />
    <glyph glyph-name="ecaron" unicode="&#x11b;" horiz-adv-x="562" 
d="M297 605l173 122q10 8 10 15v49q0 10 -7.5 13t-18.5 -2l-170 -101l-170 101q-11 5 -18.5 2t-7.5 -13v-49q0 -6 9 -15l174 -122q14 -9 26 0zM151 207h313q61 0 61 60q0 96 -67.5 165.5t-173.5 69.5q-105 0 -176.5 -73t-71.5 -181q0 -111 73.5 -182t180.5 -71q132 0 202 94
q7 10 -2 22l-19 25q-10 13 -26 3q-59 -48 -143 -48q-60 0 -101.5 32.5t-49.5 83.5zM411 292h-260q3 41 38.5 75.5t92.5 34.5t91.5 -34.5t37.5 -75.5z" />
    <glyph glyph-name="Gbreve" unicode="&#x11e;" 
d="M435 883q-73 0 -124.5 45t-59.5 114q-3 24 17 24h41q12 0 16 -16q9 -44 40 -68t70 -24q35 0 67 25t41 66q3 17 17 17h42q8 0 13 -7t4 -18q-9 -68 -60.5 -113t-123.5 -45zM753 339v-204q2 -8 -7 -17q-119 -125 -295 -125q-167 0 -286.5 118t-119.5 287q0 170 119.5 289.5
t286.5 119.5q177 0 297 -126q14 -14 1 -24l-64 -52q-12 -10 -23 1q-88 92 -207 92q-130 0 -213.5 -91t-83.5 -209t83.5 -207t213.5 -89q103 0 186 72v74h-183q-17 0 -17 16v74q0 18 16 18h279q17 0 17 -17z" />
    <glyph glyph-name="gbreve" unicode="&#x11f;" horiz-adv-x="612" 
d="M121 777q8 -69 59.5 -114t124.5 -45q72 0 123.5 45t60.5 113q1 11 -4 18t-13 7h-42q-14 0 -17 -17q-9 -41 -41 -66t-67 -25q-39 0 -70 24t-40 68q-4 16 -16 16h-41q-20 0 -17 -24zM388 -12q47 -6 79 -14.5t60 -25t41 -45t12 -68.5q-2 -88 -78.5 -138.5t-207.5 -50.5
q-106 0 -170.5 43.5t-63.5 121.5q2 93 108 114q-54 9 -94 38.5t-41 74.5q-2 45 32 70.5t91 17.5q-29 15 -53.5 56.5t-25.5 88.5q-2 97 62.5 163t160.5 66q29 0 93 -7.5t135 -5.5q16 0 16 -15l-4 -51q-8 -7 -63 -12q54 -49 54 -139q0 -96 -65 -156t-157 -57q-46 2 -104 23
q-30 7 -48.5 -0.5t-17.5 -26.5q3 -34 90 -45q17 -2 159 -20zM305 397q-51 0 -86.5 -35t-35.5 -86q0 -47 36 -81.5t85 -34.5q54 -1 87 32.5t34 83.5q-1 52 -35.5 86.5t-84.5 34.5zM305 -254q67 0 112.5 21.5t46.5 62.5q1 23 -16.5 36.5t-56.5 21.5q-58 11 -142 20
q-30 4 -54.5 -18t-25.5 -58q-3 -86 136 -86z" />
    <glyph glyph-name="Gdotaccent" unicode="&#x120;" 
d="M435 952q-23 0 -39.5 16t-16.5 39t16.5 40t39.5 17q24 0 40 -16.5t16 -40.5q0 -23 -16 -39t-40 -16zM753 339v-204q2 -8 -7 -17q-119 -125 -295 -125q-167 0 -286.5 118t-119.5 287q0 170 119.5 289.5t286.5 119.5q177 0 297 -126q14 -14 1 -24l-64 -52q-12 -10 -23 1
q-88 92 -207 92q-130 0 -213.5 -91t-83.5 -209t83.5 -207t213.5 -89q103 0 186 72v74h-183q-17 0 -17 16v74q0 18 16 18h279q17 0 17 -17z" />
    <glyph glyph-name="gdotaccent" unicode="&#x121;" horiz-adv-x="612" 
d="M304 687q-23 0 -39.5 16t-16.5 39t16.5 40t39.5 17q24 0 40 -16.5t16 -40.5q0 -23 -16 -39t-40 -16zM388 -12q47 -6 79 -14.5t60 -25t41 -45t12 -68.5q-2 -88 -78.5 -138.5t-207.5 -50.5q-106 0 -170.5 43.5t-63.5 121.5q2 93 108 114q-54 9 -94 38.5t-41 74.5
q-2 45 32 70.5t91 17.5q-29 15 -53.5 56.5t-25.5 88.5q-2 97 62.5 163t160.5 66q29 0 93 -7.5t135 -5.5q16 0 16 -15l-4 -51q-8 -7 -63 -12q54 -49 54 -139q0 -96 -65 -156t-157 -57q-46 2 -104 23q-30 7 -48.5 -0.5t-17.5 -26.5q3 -34 90 -45q17 -2 159 -20zM305 397
q-51 0 -86.5 -35t-35.5 -86q0 -47 36 -81.5t85 -34.5q54 -1 87 32.5t34 83.5q-1 52 -35.5 86.5t-84.5 34.5zM305 -254q67 0 112.5 21.5t46.5 62.5q1 23 -16.5 36.5t-56.5 21.5q-58 11 -142 20q-30 4 -54.5 -18t-25.5 -58q-3 -86 136 -86z" />
    <glyph glyph-name="Gcommaaccent" unicode="&#x122;" 
d="M753 339v-204q2 -8 -7 -17q-119 -125 -295 -125q-167 0 -286.5 118t-119.5 287q0 170 119.5 289.5t286.5 119.5q177 0 297 -126q14 -14 1 -24l-64 -52q-12 -10 -23 1q-88 92 -207 92q-130 0 -213.5 -91t-83.5 -209t83.5 -207t213.5 -89q103 0 186 72v74h-183
q-17 0 -17 16v74q0 18 16 18h279q17 0 17 -17zM514 -158q10 -13 13 -32q8 -56 -8 -118q-19 -71 -80 -116q-10 -8 -17 -1l-16 17q-6 4 -1 11q64 58 62 130l-1 16q-10 -2 -16 -2q-28 0 -48 20t-20 47q0 28 20 48t48 20q44 0 64 -40z" />
    <glyph glyph-name="gcommaaccent" unicode="&#x123;" horiz-adv-x="612" 
d="M252 702q-10 14 -11 31q-8 55 8 118q19 71 80 116q11 7 17 1l15 -17q5 -5 1 -11q-65 -59 -62 -130l1 -17q10 2 16 2q28 0 47 -19t19 -48t-18.5 -48t-47.5 -19q-49 0 -65 41zM388 -12q47 -6 79 -14.5t60 -25t41 -45t12 -68.5q-2 -88 -78.5 -138.5t-207.5 -50.5
q-106 0 -170.5 43.5t-63.5 121.5q2 93 108 114q-54 9 -94 38.5t-41 74.5q-2 45 32 70.5t91 17.5q-29 15 -53.5 56.5t-25.5 88.5q-2 97 62.5 163t160.5 66q29 0 93 -7.5t135 -5.5q16 0 16 -15l-4 -51q-8 -7 -63 -12q54 -49 54 -139q0 -96 -65 -156t-157 -57q-46 2 -104 23
q-30 7 -48.5 -0.5t-17.5 -26.5q3 -34 90 -45q17 -2 159 -20zM305 397q-51 0 -86.5 -35t-35.5 -86q0 -47 36 -81.5t85 -34.5q54 -1 87 32.5t34 83.5q-1 52 -35.5 86.5t-84.5 34.5zM464 -170q1 23 -16.5 36.5t-56.5 21.5q-58 11 -142 20q-30 4 -54.5 -18t-25.5 -58
q-3 -86 136 -86q67 0 112.5 21.5t46.5 62.5z" />
    <glyph glyph-name="Hbar" unicode="&#x126;" horiz-adv-x="816" 
d="M644 800h80q17 0 17 -16v-767q0 -17 -15 -17h-59q-18 0 -28.5 11t-10.5 29v296h-440v-319q0 -7 -4.5 -12t-11.5 -5h-80q-17 0 -17 17v767q0 16 16 16h80q17 0 17 -16v-119h440v119q0 16 16 16zM188 449h440v103h-440v-103z" />
    <glyph glyph-name="hbar" unicode="&#x127;" horiz-adv-x="626" 
d="M574 21q4 -21 -10 -21h-65q-39 0 -39 40v260q0 49 -31 76.5t-81 27.5q-77 0 -145 -66v-322q0 -16 -16 -16h-78q-15 0 -15 16v583h-48q-16 0 -16 16v69q0 16 16 16h48v15q0 24 -8 64q-4 21 11 21h68q17 0 27.5 -10t10.5 -26v-64h111q16 0 16 -16l1 -69q0 -16 -17 -16h-111
v-157q78 60 160 60q83 0 144 -50.5t61 -139.5v-222q1 -38 6 -69z" />
    <glyph glyph-name="Imacron" unicode="&#x12a;" horiz-adv-x="269" 
d="M-80 953v57q0 12 13 12l405 1q14 0 14 -13v-57q0 -13 -14 -13h-405q-13 0 -13 13zM173 800h-77q-16 0 -16 -16v-767q0 -17 17 -17h77q15 0 15 17v767q0 16 -16 16z" />
    <glyph glyph-name="imacron" unicode="&#x12b;" horiz-adv-x="259" 
d="M-85 693v57q0 12 13 12l405 1q14 0 14 -13v-57q0 -13 -14 -13h-405q-13 0 -13 13zM168 495h-77q-16 0 -16 -16v-439q0 -18 10 -29t28 -11h56q15 0 15 17v462q0 16 -16 16z" />
    <glyph glyph-name="Iogonek" unicode="&#x12e;" horiz-adv-x="269" 
d="M186 -178q9 4 16.5 0t7.5 -14v-31q0 -8 -9 -14q-67 -45 -150 -28q-99 20 -99 104q0 49 47 94.5t116 66.5h-18q-17 0 -17 17v767q0 16 16 16h77q16 0 16 -16v-767q0 -17 -15 -17h-2q-144 -67 -144 -136q0 -29 21.5 -45.5t48.5 -16.5q43 0 88 20z" />
    <glyph glyph-name="iogonek" unicode="&#x12f;" horiz-adv-x="259" 
d="M131 687q-23 0 -39.5 16t-16.5 39t16.5 40t39.5 17q24 0 40 -16.5t16 -40.5q0 -23 -16 -39t-40 -16zM184 -178q9 4 16.5 0t7.5 -14v-31q0 -8 -9 -14q-67 -45 -150 -28q-99 20 -99 104q0 49 47 94.5t116 66.5q-18 0 -28 11t-10 29v439q0 16 16 16h77q16 0 16 -16v-462
q0 -17 -15 -17h1q-144 -67 -144 -136q0 -29 21.5 -45.5t48.5 -16.5q43 0 88 20z" />
    <glyph glyph-name="Idotaccent" unicode="&#x130;" horiz-adv-x="269" 
d="M136 947q-23 0 -39.5 16t-16.5 39t16.5 40t39.5 17q24 0 40 -16.5t16 -40.5q0 -23 -16 -39t-40 -16zM173 800h-77q-16 0 -16 -16v-767q0 -17 17 -17h77q15 0 15 17v767q0 16 -16 16z" />
    <glyph glyph-name="dotlessi" unicode="&#x131;" horiz-adv-x="259" 
d="M168 495h-77q-16 0 -16 -16v-439q0 -18 10 -29t28 -11h56q15 0 15 17v462q0 16 -16 16z" />
    <glyph glyph-name="IJ" unicode="&#x132;" horiz-adv-x="536" 
d="M173 800h-77q-16 0 -16 -16v-767q0 -17 17 -17h77q15 0 15 17v767q0 16 -16 16zM348 800h69q18 0 28.5 -11t10.5 -29v-849q-1 -72 -36.5 -128.5t-94.5 -88.5q-16 -7 -24 5l-37 73q-8 15 8 21q71 41 71 121v816q0 8 -6 50q-5 20 11 20z" />
    <glyph glyph-name="ij" unicode="&#x133;" horiz-adv-x="511" 
d="M130 679q-25 0 -42.5 17.5t-17.5 42.5t17.5 42.5t42.5 17.5t42.5 -17.5t17.5 -42.5t-17.5 -42.5t-42.5 -17.5zM382 679q-26 0 -43 17.5t-17 42.5t17.5 42.5t42.5 17.5t42 -17.5t17 -42.5t-17 -42.5t-42 -17.5zM169 495h-77q-16 0 -16 -16v-439q0 -18 10 -29t28 -11h56
q15 0 15 17v462q0 16 -16 16zM422 495h-76q-16 0 -16 -16v-579q0 -63 -54 -89q-15 -7 -9 -21l38 -74q7 -12 22 -6q112 55 112 190v579q0 16 -17 16z" />
    <glyph glyph-name="Kcommaaccent" unicode="&#x136;" horiz-adv-x="712" 
d="M305 416l364 -379q11 -12 6 -24.5t-21 -12.5h-84q-12 0 -21 9l-374 393v-386q0 -16 -16 -16h-81q-16 0 -16 16v710q-1 27 -6 54q-4 20 11 20h69q18 0 28.5 -9.5t10.5 -26.5v-334l330 361q7 9 20 9h86q15 0 19.5 -12t-4.5 -22zM396 -158q10 -13 13 -32q8 -56 -8 -118
q-19 -71 -80 -116q-10 -8 -17 -1l-16 17q-6 4 -1 11q64 58 62 130l-1 16q-10 -2 -16 -2q-28 0 -48 20t-20 47q0 28 20 48t48 20q44 0 64 -40z" />
    <glyph glyph-name="kcommaaccent" unicode="&#x137;" horiz-adv-x="577" 
d="M294 261l235 -228q10 -11 6 -21.5t-18 -10.5h-81q-12 0 -20 9l-238 238v-232q0 -16 -16 -16h-76q-17 0 -17 16v699q0 24 -8 64q-4 21 11 21h68q17 0 27.5 -10t10.5 -26v-489l201 212q8 8 19 8h80q12 0 17 -11.5t-4 -21.5zM336 -158q10 -13 13 -32q8 -56 -8 -118
q-19 -71 -80 -116q-10 -8 -17 -1l-16 17q-6 4 -1 11q64 58 62 130l-1 16q-10 -2 -16 -2q-28 0 -48 20t-20 47q0 28 20 48t48 20q44 0 64 -40z" />
    <glyph glyph-name="Lacute" unicode="&#x139;" horiz-adv-x="621" 
d="M133 871l210 120q16 8 6 24l-30 49q-8 15 -24 2l-200 -136q-12 -7 -4 -19l20 -35q6 -13 22 -5zM178 109h372q16 0 16 -17v-76q0 -16 -16 -16h-472q-13 0 -13 16v768q0 16 16 16h81q16 0 16 -16v-675z" />
    <glyph glyph-name="lacute" unicode="&#x13a;" horiz-adv-x="255" 
d="M41 881l210 120q16 8 6 24l-30 49q-8 15 -24 2l-200 -136q-12 -7 -4 -19l20 -35q6 -13 22 -5zM168 800h-77q-16 0 -16 -16v-744q0 -18 10.5 -29t28.5 -11h54q16 0 16 17v767q0 16 -16 16z" />
    <glyph glyph-name="Lcommaaccent" unicode="&#x13b;" horiz-adv-x="621" 
d="M178 109h372q16 0 16 -17v-76q0 -16 -16 -16h-472q-13 0 -13 16v768q0 16 16 16h81q16 0 16 -16v-675zM359 -158q10 -13 13 -32q8 -56 -8 -118q-19 -71 -80 -116q-10 -8 -17 -1l-16 17q-6 4 -1 11q64 58 62 130l-1 16q-10 -2 -16 -2q-28 0 -48 20t-20 47q0 28 20 48
t48 20q44 0 64 -40z" />
    <glyph glyph-name="lcommaaccent" unicode="&#x13c;" horiz-adv-x="255" 
d="M168 0h-54q-18 0 -28.5 11t-10.5 29v744q0 16 16 16h77q16 0 16 -16v-767q0 -17 -16 -17zM205 -190q8 -56 -8 -118q-19 -71 -80 -116q-10 -8 -17 -1l-16 17q-6 4 -1 11q64 58 62 130l-1 16q-10 -2 -16 -2q-28 0 -48 20t-20 47q0 28 20 48t48 20q44 0 64 -40
q10 -13 13 -32z" />
    <glyph glyph-name="Lcaron" unicode="&#x13d;" horiz-adv-x="621" 
d="M431 670q-28 0 -47.5 19t-19.5 48q0 30 18.5 48.5t48.5 18.5q46 0 63 -39q11 -16 12 -32q8 -56 -8 -119q-19 -70 -80 -115q-10 -8 -17 -1l-14 17q-6 5 -1 10q64 60 62 131l-1 16q-10 -2 -16 -2zM178 109h372q16 0 16 -17v-76q0 -16 -16 -16h-472q-13 0 -13 16v768
q0 16 16 16h81q16 0 16 -16v-675z" />
    <glyph glyph-name="lcaron" unicode="&#x13e;" horiz-adv-x="440" 
d="M412 733q8 -56 -8 -119q-19 -71 -79 -115q-10 -7 -18 -1l-14 17q-6 5 -1 10q65 61 62 131l-1 16q-10 -2 -16 -2q-27 0 -46.5 19t-19.5 48q0 30 18.5 48.5t47.5 18.5q48 0 64 -40q10 -14 11 -31zM91 800h77q16 0 16 -16v-767q0 -17 -16 -17h-54q-18 0 -28.5 11t-10.5 29
v744q0 16 16 16z" />
    <glyph glyph-name="Ldot" unicode="&#x13f;" horiz-adv-x="621" 
d="M178 109h372q16 0 16 -17v-76q0 -16 -16 -16h-472q-13 0 -13 16v768q0 16 16 16h81q16 0 16 -16v-675zM451 336q-27 0 -46.5 19t-19.5 46t19.5 46t46.5 19q26 0 45 -19.5t19 -45.5t-19 -45.5t-45 -19.5z" />
    <glyph glyph-name="ldot" unicode="&#x140;" horiz-adv-x="415" 
d="M168 800h-77q-16 0 -16 -16v-744q0 -18 10.5 -29t28.5 -11h54q16 0 16 17v767q0 16 -16 16zM302 336q-27 0 -45.5 18.5t-18.5 44.5t18.5 45t45.5 19q26 0 44.5 -19t18.5 -45q0 -25 -18.5 -44t-44.5 -19z" />
    <glyph glyph-name="Lslash" unicode="&#x141;" horiz-adv-x="666" 
d="M222 109h372q16 0 16 -17v-76q0 -16 -16 -16h-471q-14 0 -14 16v325l-37 -20q-20 -11 -30 9l-14 21q-9 18 10 31l71 39v363q0 16 17 16h80q16 0 16 -16v-301l149 81q19 10 30 -8l14 -22q10 -17 -9 -31l-184 -100v-294z" />
    <glyph glyph-name="lslash" unicode="&#x142;" horiz-adv-x="350" 
d="M333 502l13 -23q11 -17 -7 -30l-104 -57v-375q0 -17 -16 -17h-55q-18 0 -28 11t-10 29v293l-78 -43q-19 -10 -31 9l-14 22q-9 19 10 30l113 62v371q0 16 16 16h76q17 0 17 -16v-311l68 37q20 9 30 -8z" />
    <glyph glyph-name="Nacute" unicode="&#x143;" horiz-adv-x="840" 
d="M333 864l210 120q16 8 6 24l-30 49q-8 15 -24 2l-200 -136q-12 -7 -4 -19l20 -35q6 -13 22 -5zM668 800h81q7 0 11.5 -4.5t4.5 -10.5v-770q0 -15 -15 -15h-28q-29 0 -71 46l-464 533v-562q0 -16 -16 -16l-79 -1q-17 0 -17 17v767q0 16 16 16h47q11 0 23 -13l492 -574v572
q0 15 15 15z" />
    <glyph glyph-name="nacute" unicode="&#x144;" horiz-adv-x="591" 
d="M190 616l-20 35q-8 12 4 19l200 136q16 13 24 -2l30 -49q10 -16 -6 -24l-210 -120q-16 -8 -22 5zM540 21q4 -21 -10 -21h-65q-39 0 -39 40v260q0 49 -31 76.5t-81 27.5q-77 0 -145 -66v-322q0 -16 -16 -16h-78q-15 0 -15 16v463q0 16 15 16h54q17 0 28 -14t12 -29v-10
q78 60 159 60q83 0 144.5 -50.5t61.5 -139.5v-222q1 -38 6 -69z" />
    <glyph glyph-name="Ncommaaccent" unicode="&#x145;" horiz-adv-x="840" 
d="M668 800h81q7 0 11.5 -4.5t4.5 -10.5v-770q0 -15 -15 -15h-28q-29 0 -71 46l-464 533v-562q0 -16 -16 -16l-79 -1q-17 0 -17 17v767q0 16 16 16h47q11 0 23 -13l492 -574v572q0 15 15 15zM484 -158q10 -13 13 -32q8 -56 -8 -118q-19 -71 -80 -116q-10 -8 -17 -1l-16 17
q-6 4 -1 11q64 58 62 130l-1 16q-10 -2 -16 -2q-28 0 -48 20t-20 47q0 28 20 48t48 20q44 0 64 -40z" />
    <glyph glyph-name="ncommaaccent" unicode="&#x146;" horiz-adv-x="591" 
d="M540 21q4 -21 -10 -21h-65q-39 0 -39 40v260q0 49 -31 76.5t-81 27.5q-77 0 -145 -66v-322q0 -16 -16 -16h-78q-15 0 -15 16v463q0 16 15 16h54q17 0 28 -14t12 -29v-10q78 60 159 60q83 0 144.5 -50.5t61.5 -139.5v-222q1 -38 6 -69zM373 -158q10 -13 13 -32
q8 -56 -8 -118q-19 -71 -80 -116q-10 -8 -17 -1l-16 17q-6 4 -1 11q64 58 62 130l-1 16q-10 -2 -16 -2q-28 0 -48 20t-20 47q0 28 20 48t48 20q44 0 64 -40z" />
    <glyph glyph-name="Ncaron" unicode="&#x147;" horiz-adv-x="840" 
d="M436 859l173 122q10 8 10 15v49q0 10 -7.5 13t-18.5 -2l-170 -101l-170 101q-11 5 -18.5 2t-7.5 -13v-49q0 -6 9 -15l174 -122q14 -9 26 0zM668 800h81q7 0 11.5 -4.5t4.5 -10.5v-770q0 -15 -15 -15h-28q-29 0 -71 46l-464 533v-562q0 -16 -16 -16l-79 -1q-17 0 -17 17
v767q0 16 16 16h47q11 0 23 -13l492 -574v572q0 15 15 15z" />
    <glyph glyph-name="ncaron" unicode="&#x148;" horiz-adv-x="591" 
d="M290 606l-174 122q-9 9 -9 15v49q0 10 7.5 13t18.5 -2l170 -101l170 101q11 5 18.5 2t7.5 -13v-49q0 -7 -10 -15l-173 -122q-12 -9 -26 0zM540 21q4 -21 -10 -21h-65q-39 0 -39 40v260q0 49 -31 76.5t-81 27.5q-77 0 -145 -66v-322q0 -16 -16 -16h-78q-15 0 -15 16v463
q0 16 15 16h54q17 0 28 -14t12 -29v-10q78 60 159 60q83 0 144.5 -50.5t61.5 -139.5v-222q1 -38 6 -69z" />
    <glyph glyph-name="Eng" unicode="&#x14a;" horiz-adv-x="840" 
d="M665 800h82q7 0 11.5 -4.5t4.5 -10.5v-874q-1 -72 -36.5 -128.5t-94.5 -88.5q-16 -7 -23 5l-38 73q-8 15 8 21q71 41 71 121v131l-464 530v-558q0 -16 -16 -16l-80 -1q-17 0 -17 17v767q0 16 16 16h49q10 0 19 -11l493 -577v573q0 15 15 15z" />
    <glyph glyph-name="eng" unicode="&#x14b;" horiz-adv-x="605" 
d="M534 295l1 -392q0 -132 -107 -184q-15 -6 -21 6l-39 71q-6 14 8 21q50 24 50 86v391q0 48 -30.5 75t-81.5 27q-77 0 -145 -66v-314q0 -16 -16 -16h-78q-15 0 -15 16v463q0 16 15 16h54q17 0 28 -14t12 -29v-11q77 59 159 59q83 0 144.5 -50t61.5 -139v-16z" />
    <glyph glyph-name="Omacron" unicode="&#x14c;" horiz-adv-x="938" 
d="M254 962v57q0 12 13 12l405 1q14 0 14 -13v-57q0 -13 -14 -13h-405q-13 0 -13 13zM470 -7q169 0 288.5 118.5t119.5 289.5q0 169 -119.5 287.5t-288.5 118.5q-170 0 -290 -118.5t-120 -287.5q0 -171 119.5 -289.5t290.5 -118.5zM470 102q-122 0 -209.5 88t-87.5 211
q0 121 87.5 209t209.5 88q121 0 208.5 -88t87.5 -209q0 -123 -87.5 -211t-208.5 -88z" />
    <glyph glyph-name="omacron" unicode="&#x14d;" horiz-adv-x="592" 
d="M80 693v57q0 12 13 12l405 1q14 0 14 -13v-57q0 -13 -14 -13h-405q-13 0 -13 13zM296 -7q106 0 181 73.5t75 180.5q0 108 -75 181.5t-181 73.5t-181 -73.5t-75 -181.5q0 -107 75 -180.5t181 -73.5zM296 95q-63 0 -106.5 45t-43.5 106q0 63 43 108.5t107 45.5t107 -45.5
t43 -108.5q0 -61 -43.5 -106t-106.5 -45z" />
    <glyph glyph-name="Ohungarumlaut" unicode="&#x150;" horiz-adv-x="938" 
d="M379 929h-47q-6 0 -11 4.5t-5 11.5l12 154q0 16 15 16h69q8 0 12.5 -4.5t3.5 -11.5l-33 -154q-4 -16 -16 -16zM574 929h-47q-6 0 -11 4.5t-5 11.5l12 154q0 16 16 16h68q8 0 12.5 -4.5t3.5 -11.5l-33 -154q-2 -16 -16 -16zM470 -7q169 0 288.5 118.5t119.5 289.5
q0 169 -119.5 287.5t-288.5 118.5q-170 0 -290 -118.5t-120 -287.5q0 -171 119.5 -289.5t290.5 -118.5zM470 102q-122 0 -209.5 88t-87.5 211q0 121 87.5 209t209.5 88q121 0 208.5 -88t87.5 -209q0 -123 -87.5 -211t-208.5 -88z" />
    <glyph glyph-name="ohungarumlaut" unicode="&#x151;" horiz-adv-x="592" 
d="M205 660h-47q-6 0 -11 4.5t-5 11.5l12 154q0 16 15 16h69q8 0 12.5 -4.5t3.5 -11.5l-33 -154q-4 -16 -16 -16zM400 660h-47q-6 0 -11 4.5t-5 11.5l12 154q0 16 16 16h68q8 0 12.5 -4.5t3.5 -11.5l-33 -154q-2 -16 -16 -16zM296 -7q106 0 181 73.5t75 180.5
q0 108 -75 181.5t-181 73.5t-181 -73.5t-75 -181.5q0 -107 75 -180.5t181 -73.5zM296 95q-63 0 -106.5 45t-43.5 106q0 63 43 108.5t107 45.5t107 -45.5t43 -108.5q0 -61 -43.5 -106t-106.5 -45z" />
    <glyph glyph-name="OE" unicode="&#x152;" horiz-adv-x="1386" 
d="M1306 691h-396v-244h229q18 0 18 -17v-75q0 -17 -18 -17h-229v-229h396q18 0 18 -17v-75q0 -17 -18 -17h-493q-16 0 -16 17v139q-56 -76 -142 -119.5t-185 -43.5q-171 0 -290.5 118.5t-119.5 289.5q0 169 120 287.5t290 118.5q99 0 184.5 -43.5t142.5 -119.5v140
q0 16 16 16h493q18 0 18 -16v-77q0 -16 -18 -16zM470 102q121 0 208.5 88t87.5 211q0 121 -87.5 209t-208.5 88q-122 0 -209.5 -88t-87.5 -209q0 -123 87.5 -211t209.5 -88z" />
    <glyph glyph-name="oe" unicode="&#x153;" horiz-adv-x="967" 
d="M930 267q0 -60 -62 -60h-313q8 -51 50 -83.5t102 -32.5q85 0 142 48q16 9 26 -3l19 -25q10 -11 2 -22q-68 -94 -201 -94q-125 0 -200 92q-76 -94 -199 -94q-106 0 -181 73.5t-75 180.5q0 108 75 181.5t181 73.5q124 0 199 -93q73 93 193 93q106 0 174 -69.5t68 -165.5z
M555 292h261q-3 41 -38 75.5t-92 34.5t-92 -34.5t-39 -75.5zM296 95q55 0 95.5 34.5t51.5 85.5q-2 22 -2 33t2 31q-12 52 -52.5 86.5t-94.5 34.5q-64 0 -107 -45.5t-43 -108.5q0 -61 43.5 -106t106.5 -45z" />
    <glyph glyph-name="Racute" unicode="&#x154;" horiz-adv-x="707" 
d="M246 876l-20 35q-8 12 4 19l200 136q16 13 24 -2l30 -49q10 -16 -6 -24l-210 -120q-16 -8 -22 5zM480 278l180 -259q5 -7 2 -13t-13 -6h-74q-27 0 -48 32l-156 230h-198v-245q0 -17 -16 -17h-81q-16 0 -16 17v767q0 16 16 16h308q122 0 195.5 -84.5t73.5 -184.5
q0 -80 -46 -152t-127 -101zM173 691v-320h198q80 0 124.5 48t44.5 114q0 65 -44.5 111.5t-124.5 46.5h-198z" />
    <glyph glyph-name="racute" unicode="&#x155;" horiz-adv-x="442" 
d="M119 616l-20 35q-8 12 4 19l200 136q16 13 24 -2l30 -49q10 -16 -6 -24l-210 -120q-16 -8 -22 5zM410 470q16 -10 7 -24l-41 -60q-7 -10 -21 -7q-40 19 -72 19q-31 0 -63 -17.5t-50 -59.5v-305q0 -16 -15 -16h-79q-15 0 -15 16v463q0 7 4.5 11.5t10.5 4.5h55q17 0 28 -14
t11 -29v-7q59 54 132 54q66 0 108 -29z" />
    <glyph glyph-name="Rcommaaccent" unicode="&#x156;" horiz-adv-x="707" 
d="M480 278l180 -259q5 -7 2 -13t-13 -6h-74q-27 0 -48 32l-156 230h-198v-245q0 -17 -16 -17h-81q-16 0 -16 17v767q0 16 16 16h308q122 0 195.5 -84.5t73.5 -184.5q0 -80 -46 -152t-127 -101zM173 691v-320h198q80 0 124.5 48t44.5 114q0 65 -44.5 111.5t-124.5 46.5h-198
zM417 -158q10 -13 13 -32q8 -56 -8 -118q-19 -71 -80 -116q-10 -8 -17 -1l-16 17q-6 4 -1 11q64 58 62 130l-1 16q-10 -2 -16 -2q-28 0 -48 20t-20 47q0 28 20 48t48 20q44 0 64 -40z" />
    <glyph glyph-name="rcommaaccent" unicode="&#x157;" horiz-adv-x="442" 
d="M410 470q16 -10 7 -24l-41 -60q-7 -10 -21 -7q-40 19 -72 19q-31 0 -63 -17.5t-50 -59.5v-305q0 -16 -15 -16h-79q-15 0 -15 16v463q0 7 4.5 11.5t10.5 4.5h55q17 0 28 -14t11 -29v-7q59 54 132 54q66 0 108 -29zM282 -158q10 -13 13 -32q8 -56 -8 -118q-19 -71 -80 -116
q-10 -8 -17 -1l-16 17q-6 4 -1 11q64 58 62 130l-1 16q-10 -2 -16 -2q-28 0 -48 20t-20 47q0 28 20 48t48 20q44 0 64 -40z" />
    <glyph glyph-name="Rcaron" unicode="&#x158;" horiz-adv-x="707" 
d="M345 866l-174 122q-9 9 -9 15v49q0 10 7.5 13t18.5 -2l170 -101l170 101q11 5 18.5 2t7.5 -13v-49q0 -7 -10 -15l-173 -122q-12 -9 -26 0zM480 278l180 -259q5 -7 2 -13t-13 -6h-74q-27 0 -48 32l-156 230h-198v-245q0 -17 -16 -17h-81q-16 0 -16 17v767q0 16 16 16h308
q122 0 195.5 -84.5t73.5 -184.5q0 -80 -46 -152t-127 -101zM173 691v-320h198q80 0 124.5 48t44.5 114q0 65 -44.5 111.5t-124.5 46.5h-198z" />
    <glyph glyph-name="rcaron" unicode="&#x159;" horiz-adv-x="442" 
d="M231 702l170 101q11 5 18.5 2t7.5 -13v-49q0 -7 -10 -15l-173 -122q-12 -9 -26 0l-174 122q-9 9 -9 15v49q0 10 7.5 13t18.5 -2zM410 470q16 -10 7 -24l-41 -60q-7 -10 -21 -7q-40 19 -72 19q-31 0 -63 -17.5t-50 -59.5v-305q0 -16 -15 -16h-79q-15 0 -15 16v463
q0 7 4.5 11.5t10.5 4.5h55q17 0 28 -14t11 -29v-7q59 54 132 54q66 0 108 -29z" />
    <glyph glyph-name="Sacute" unicode="&#x15a;" horiz-adv-x="629" 
d="M219 875l210 120q16 8 6 24l-30 49q-8 15 -24 2l-200 -136q-12 -7 -4 -19l20 -35q6 -13 22 -5zM50 137l44 50q16 17 32 5q2 -1 12 -10l16 -14t18.5 -14.5t22.5 -15.5t25 -14t28.5 -12.5t30.5 -7.5t33 -3q74 0 117 32t43 82q0 17 -4.5 31.5t-16.5 26.5l-20 20t-30.5 18
l-31 14t-37.5 14.5t-36 13.5q-115 46 -175 97.5t-60 137.5q0 87 65 152.5t190 65.5q56 0 110.5 -20t81.5 -38.5t45 -36.5q17 -17 6 -31l-39 -51q-14 -19 -32 -6q-2 1 -11.5 8.5l-15 12t-17 12.5t-20.5 13t-23 11t-26 10t-27.5 6.5t-30.5 2.5q-66 0 -104.5 -32t-38.5 -79
t37.5 -73.5t122.5 -59.5q46 -18 73.5 -30.5t65.5 -35.5t59 -45.5t36.5 -56t15.5 -73.5q0 -90 -77 -155.5t-194 -65.5q-50 0 -95 13t-81.5 38.5t-48.5 35.5t-33 30q-16 14 -5 27z" />
    <glyph glyph-name="sacute" unicode="&#x15b;" horiz-adv-x="479" 
d="M145 612l210 120q16 8 6 24l-30 49q-8 15 -24 2l-200 -136q-12 -7 -4 -19l20 -35q6 -13 22 -5zM48 72l34 54q10 16 23 9q1 -2 18 -10.5t49 -18t62 -9.5q40 0 59 13.5t19 32.5q0 24 -23.5 36t-80.5 27q-158 42 -158 150q0 60 49 102.5t135 42.5q80 0 163 -48q18 -11 9 -23
l-37 -57q-8 -13 -22 -8q-64 32 -113 32q-38 0 -54.5 -14t-16.5 -31q0 -20 23.5 -32t69.5 -25q178 -48 178 -154q0 -64 -55.5 -106t-144.5 -42q-54 0 -105 20t-76 40q-5 3 -6.5 9t1.5 10z" />
    <glyph glyph-name="Scedilla" unicode="&#x15e;" horiz-adv-x="629" 
d="M584 214q0 -83 -67 -146.5t-172 -73.5l-31 -58h5q54 0 93.5 -38t39.5 -92q0 -53 -39.5 -92t-94.5 -39q-61 0 -102 48q-4 7 1 13l25 27q7 7 15 -1q29 -25 60 -25q34 0 52.5 20t18.5 49t-18.5 48.5t-50.5 19.5q-34 0 -62 -27q-9 -9 -16 -3l-25 26q-4 5 -2 11l3 5l59 109
q-115 13 -221 115q-16 14 -5 27l44 50q16 17 32 5q2 -1 12 -10l16 -14t18.5 -14.5t22.5 -15.5t25 -14t28.5 -12.5t30.5 -7.5t33 -3q74 0 117 32t43 82q0 17 -4.5 31.5t-16.5 26.5l-20 20t-30.5 18l-31 14t-37.5 14.5t-36 13.5q-115 46 -175 97.5t-60 137.5q0 87 65 152.5
t190 65.5q56 0 110.5 -20t81.5 -38.5t45 -36.5q17 -17 6 -31l-39 -51q-14 -19 -32 -6q-2 1 -11.5 8.5l-15 12t-17 12.5t-20.5 13t-23 11t-26 10t-27.5 6.5t-30.5 2.5q-66 0 -104.5 -32t-38.5 -79t37.5 -73.5t122.5 -59.5q46 -18 73.5 -30.5t65.5 -35.5t59 -45.5t36.5 -56
t15.5 -73.5z" />
    <glyph glyph-name="scedilla" unicode="&#x15f;" horiz-adv-x="479" 
d="M434 141q0 -57 -44 -97t-118 -49l-32 -60h5q54 0 93.5 -38t39.5 -92q0 -53 -39.5 -92t-94.5 -39q-61 0 -102 48q-4 7 1 13l25 27q7 7 15 -1q29 -25 60 -25q34 0 52.5 20t18.5 49t-18.5 48.5t-50.5 19.5q-34 0 -62 -27q-9 -10 -16 -3l-25 26q-4 5 -2 11l3 5l60 110
q-46 5 -87 23t-63 35q-5 3 -6.5 9t1.5 10l34 54q10 16 23 9q1 -2 18 -10.5t49 -18t62 -9.5q40 0 59 13.5t19 32.5q0 24 -23.5 36t-80.5 27q-158 42 -158 150q0 60 49 102.5t135 42.5q80 0 163 -48q18 -11 9 -23l-37 -57q-8 -13 -22 -8q-64 32 -113 32q-38 0 -54.5 -14
t-16.5 -31q0 -20 23.5 -32t69.5 -25q178 -48 178 -154z" />
    <glyph glyph-name="Scaron" unicode="&#x160;" horiz-adv-x="629" 
d="M322 870l173 122q10 8 10 15v49q0 10 -7.5 13t-18.5 -2l-170 -101l-170 101q-11 5 -18.5 2t-7.5 -13v-49q0 -6 9 -15l174 -122q14 -9 26 0zM50 137l44 50q16 17 32 5q2 -1 12 -10l16 -14t18.5 -14.5t22.5 -15.5t25 -14t28.5 -12.5t30.5 -7.5t33 -3q74 0 117 32t43 82
q0 17 -4.5 31.5t-16.5 26.5l-20 20t-30.5 18l-31 14t-37.5 14.5t-36 13.5q-115 46 -175 97.5t-60 137.5q0 87 65 152.5t190 65.5q56 0 110.5 -20t81.5 -38.5t45 -36.5q17 -17 6 -31l-39 -51q-14 -19 -32 -6q-2 1 -11.5 8.5l-15 12t-17 12.5t-20.5 13t-23 11t-26 10
t-27.5 6.5t-30.5 2.5q-66 0 -104.5 -32t-38.5 -79t37.5 -73.5t122.5 -59.5q46 -18 73.5 -30.5t65.5 -35.5t59 -45.5t36.5 -56t15.5 -73.5q0 -90 -77 -155.5t-194 -65.5q-50 0 -95 13t-81.5 38.5t-48.5 35.5t-33 30q-16 14 -5 27z" />
    <glyph glyph-name="scaron" unicode="&#x161;" horiz-adv-x="479" 
d="M249 607l173 122q10 8 10 15v49q0 10 -7.5 13t-18.5 -2l-170 -101l-170 101q-11 5 -18.5 2t-7.5 -13v-49q0 -6 9 -15l174 -122q14 -9 26 0zM48 72l34 54q10 16 23 9q1 -2 18 -10.5t49 -18t62 -9.5q40 0 59 13.5t19 32.5q0 24 -23.5 36t-80.5 27q-158 42 -158 150
q0 60 49 102.5t135 42.5q80 0 163 -48q18 -11 9 -23l-37 -57q-8 -13 -22 -8q-64 32 -113 32q-38 0 -54.5 -14t-16.5 -31q0 -20 23.5 -32t69.5 -25q178 -48 178 -154q0 -64 -55.5 -106t-144.5 -42q-54 0 -105 20t-76 40q-5 3 -6.5 9t1.5 10z" />
    <glyph glyph-name="Tcedilla" unicode="&#x162;" horiz-adv-x="718" 
d="M62 800h595q16 0 16 -16v-77q0 -16 -16 -16h-241v-674q0 -17 -16 -17h-2l-33 -63h5q54 0 93.5 -38t39.5 -92q0 -53 -39.5 -92t-94.5 -39q-61 0 -102 48q-4 7 1 13l25 27q7 7 15 -1q29 -25 60 -25q34 0 52.5 20t18.5 49t-18.5 48.5t-50.5 19.5q-34 0 -62 -27
q-10 -10 -16 -3l-25 26q-4 5 -2 11l3 5l62 114h2q-29 6 -29 39v651h-241q-17 0 -17 16v76q0 17 17 17z" />
    <glyph glyph-name="tcedilla" unicode="&#x163;" horiz-adv-x="403" 
d="M256 -63h5q54 0 93.5 -38t39.5 -92q0 -53 -39.5 -92t-94.5 -39q-61 0 -102 48q-4 7 1 13l25 27q7 7 15 -1q29 -25 60 -25q34 0 52.5 20t18.5 49t-18.5 48.5t-50.5 19.5q-34 0 -62 -27q-9 -10 -16 -3l-25 26q-4 5 -2 11l3 5l61 111q-56 10 -80.5 53.5t-24.5 127.5v211h-59
q-16 0 -16 16v17q0 12 8 20q49 40 82.5 83.5t61.5 113.5q5 11 11 11h11q11 0 11 -13v-143h105q7 0 12 -5t5 -12v-72q0 -7 -5 -11.5t-12 -4.5h-87q-13 0 -19 3v-204q0 -48 11 -69.5t45 -21.5q23 0 47 6q19 5 22 -13l13 -59q3 -9 -10 -18q-22 -13 -64 -18z" />
    <glyph glyph-name="Tcaron" unicode="&#x164;" horiz-adv-x="718" 
d="M345 861l-174 122q-9 9 -9 15v49q0 10 7.5 13t18.5 -2l170 -101l170 101q11 5 18.5 2t7.5 -13v-49q0 -7 -10 -15l-173 -122q-12 -9 -26 0zM62 800h595q16 0 16 -16v-77q0 -16 -16 -16h-241v-674q0 -17 -16 -17h-58q-39 0 -39 40v651h-241q-17 0 -17 16v76q0 17 17 17z
" />
    <glyph glyph-name="tcaron" unicode="&#x165;" horiz-adv-x="526" 
d="M518 733q8 -56 -8 -119q-19 -69 -79 -115q-10 -7 -18 -1l-14 17q-6 5 -1 10q64 60 62 131l-1 16q-10 -2 -16 -2q-28 0 -47.5 19t-19.5 48q0 30 19 48.5t48 18.5q48 0 64 -39q10 -14 11 -32zM349 91l13 -59q3 -9 -10 -18q-29 -19 -91 -19q-79 0 -112.5 43t-33.5 141v211
h-59q-16 0 -16 16v17q0 12 8 20q49 40 82.5 83.5t61.5 113.5q5 11 11 11h11q11 0 11 -13v-143h105q7 0 12 -5t5 -12v-72q0 -7 -5 -11.5t-12 -4.5h-87q-13 0 -19 3v-204q0 -48 11 -69.5t45 -21.5q23 0 47 6q19 5 22 -13z" />
    <glyph glyph-name="Tbar" unicode="&#x166;" horiz-adv-x="718" 
d="M656 691h-241v-195h244q14 0 14 -12v-75q0 -12 -14 -12h-244v-380q0 -17 -15 -17h-59q-18 0 -28.5 11t-10.5 29v357h-243q-13 0 -13 12v75q0 12 13 12h243v195h-240q-17 0 -17 16v76q0 17 17 17h594q17 0 17 -16v-77q0 -16 -17 -16z" />
    <glyph glyph-name="tbar" unicode="&#x167;" horiz-adv-x="403" 
d="M349 91l13 -59q3 -9 -10 -18q-29 -19 -91 -19q-79 0 -112.5 43t-33.5 141v65h-59q-16 0 -16 11v57q0 13 16 13h59v65h-59q-16 0 -16 16v17q0 12 8 20q49 40 82.5 83.5t61.5 113.5q5 11 11 11h11q11 0 11 -13v-143h105q7 0 12 -5t5 -12v-72q0 -7 -5 -11.5t-12 -4.5h-87
q-13 0 -19 3v-68h104q17 0 17 -13v-56q0 -12 -17 -12h-104v-55q0 -48 11 -69.5t45 -21.5q23 0 47 6q19 5 22 -13z" />
    <glyph glyph-name="Utilde" unicode="&#x168;" horiz-adv-x="771" 
d="M166 940l33 -34q9 -10 20 1q35 43 81 43q38 0 83 -33t87 -33q14 0 28.5 3t26.5 8t23.5 12t20 13.5t16.5 13.5t12.5 12t8.5 10l4 4q9 9 0 19l-31 36q-9 11 -20 0q-45 -42 -90 -42q-30 0 -79.5 33.5t-90.5 33.5q-71 0 -134 -79q-8 -12 1 -21zM685 801h-81q-16 0 -16 -17
v-483q0 -95 -58.5 -147t-146.5 -52q-86 0 -143 51.5t-57 147.5v483q0 17 -16 17h-79q-18 0 -18 -17v-491q0 -129 84.5 -214.5t228.5 -85.5q145 0 231 86t87 214v491q0 17 -16 17z" />
    <glyph glyph-name="utilde" unicode="&#x169;" horiz-adv-x="585" 
d="M103 651l-33 34q-9 9 -1 21q63 79 134 79q41 0 90.5 -33.5t79.5 -33.5q45 0 90 42q11 11 20 0l31 -36q9 -10 0 -19l-4 -5q-4 -4 -8.5 -9t-12.5 -12t-16.5 -13.5t-20 -13.5t-23.5 -12t-26.5 -8t-28.5 -3q-42 0 -87 33t-83 33q-46 0 -81 -43q-11 -11 -20 -1zM437 495h78
q15 0 15 -17v-462q0 -16 -14 -16h-62q-12 0 -21.5 14t-10.5 28v12q-75 -60 -160 -60q-83 0 -144.5 50.5t-61.5 139.5v221q0 34 -5 69q-4 21 10 21h65q18 0 28.5 -11t10.5 -29v-261q0 -49 30.5 -76t81.5 -27q72 0 145 73v314q0 17 15 17z" />
    <glyph glyph-name="Umacron" unicode="&#x16a;" horiz-adv-x="771" 
d="M169 948v57q0 12 13 12l405 1q14 0 14 -13v-57q0 -13 -14 -13h-405q-13 0 -13 13zM685 801h-81q-16 0 -16 -17v-483q0 -95 -58.5 -147t-146.5 -52q-86 0 -143 51.5t-57 147.5v483q0 17 -16 17h-79q-18 0 -18 -17v-491q0 -129 84.5 -214.5t228.5 -85.5q145 0 231 86
t87 214v491q0 17 -16 17z" />
    <glyph glyph-name="umacron" unicode="&#x16b;" horiz-adv-x="585" 
d="M491 680h-405q-13 0 -13 13v57q0 12 13 12l405 1q14 0 14 -13v-57q0 -13 -14 -13zM437 495h78q15 0 15 -17v-462q0 -16 -14 -16h-62q-12 0 -21.5 14t-10.5 28v12q-75 -60 -160 -60q-83 0 -144.5 50.5t-61.5 139.5v221q0 34 -5 69q-4 21 10 21h65q18 0 28.5 -11t10.5 -29
v-261q0 -49 30.5 -76t81.5 -27q72 0 145 73v314q0 17 15 17z" />
    <glyph glyph-name="Ubreve" unicode="&#x16c;" horiz-adv-x="771" 
d="M202 1032q8 -69 59.5 -114t124.5 -45q72 0 123.5 45t60.5 113q1 11 -4 18t-13 7h-42q-14 0 -17 -17q-9 -41 -41 -66t-67 -25q-39 0 -70 24t-40 68q-4 16 -16 16h-41q-20 0 -17 -24zM685 801h-81q-16 0 -16 -17v-483q0 -95 -58.5 -147t-146.5 -52q-86 0 -143 51.5
t-57 147.5v483q0 17 -16 17h-79q-18 0 -18 -17v-491q0 -129 84.5 -214.5t228.5 -85.5q145 0 231 86t87 214v491q0 17 -16 17z" />
    <glyph glyph-name="ubreve" unicode="&#x16d;" horiz-adv-x="585" 
d="M290 618q-73 0 -124.5 45t-59.5 114q-3 24 17 24h41q12 0 16 -16q9 -44 40 -68t70 -24q35 0 67 25t41 66q3 17 17 17h42q8 0 13 -7t4 -18q-9 -68 -60.5 -113t-123.5 -45zM437 495h78q15 0 15 -17v-462q0 -16 -14 -16h-62q-12 0 -21.5 14t-10.5 28v12q-75 -60 -160 -60
q-83 0 -144.5 50.5t-61.5 139.5v221q0 34 -5 69q-4 21 10 21h65q18 0 28.5 -11t10.5 -29v-261q0 -49 30.5 -76t81.5 -27q72 0 145 73v314q0 17 15 17z" />
    <glyph glyph-name="Uring" unicode="&#x16e;" horiz-adv-x="771" 
d="M385 817q-50 0 -86.5 36t-36.5 86q0 51 36.5 87t86.5 36t86.5 -36t36.5 -87q0 -50 -36.5 -86t-86.5 -36zM385 874q28 0 46.5 19t18.5 46t-18.5 46t-46.5 19q-26 0 -45 -19t-19 -46t19 -46t45 -19zM685 801h-81q-16 0 -16 -17v-483q0 -95 -58.5 -147t-146.5 -52
q-86 0 -143 51.5t-57 147.5v483q0 17 -16 17h-79q-18 0 -18 -17v-491q0 -129 84.5 -214.5t228.5 -85.5q145 0 231 86t87 214v491q0 17 -16 17z" />
    <glyph glyph-name="uring" unicode="&#x16f;" horiz-adv-x="585" 
d="M289 562q-50 0 -86.5 36t-36.5 86q0 51 36.5 87t86.5 36t86.5 -36t36.5 -87q0 -50 -36.5 -86t-86.5 -36zM289 749q-26 0 -45 -19t-19 -46t19 -46t45 -19q28 0 46.5 19t18.5 46t-18.5 46t-46.5 19zM437 495h78q15 0 15 -17v-462q0 -16 -14 -16h-62q-12 0 -21.5 14
t-10.5 28v12q-75 -60 -160 -60q-83 0 -144.5 50.5t-61.5 139.5v221q0 34 -5 69q-4 21 10 21h65q18 0 28.5 -11t10.5 -29v-261q0 -49 30.5 -76t81.5 -27q72 0 145 73v314q0 17 15 17z" />
    <glyph glyph-name="Uhungarumlaut" unicode="&#x170;" horiz-adv-x="771" 
d="M294 915h-47q-6 0 -11 4.5t-5 11.5l12 154q0 16 15 16h69q8 0 12.5 -4.5t3.5 -11.5l-33 -154q-4 -16 -16 -16zM489 915h-47q-6 0 -11 4.5t-5 11.5l12 154q0 16 16 16h68q8 0 12.5 -4.5t3.5 -11.5l-33 -154q-2 -16 -16 -16zM685 801h-81q-16 0 -16 -17v-483
q0 -95 -58.5 -147t-146.5 -52q-86 0 -143 51.5t-57 147.5v483q0 17 -16 17h-79q-18 0 -18 -17v-491q0 -129 84.5 -214.5t228.5 -85.5q145 0 231 86t87 214v491q0 17 -16 17z" />
    <glyph glyph-name="uhungarumlaut" unicode="&#x171;" horiz-adv-x="585" 
d="M198 660h-47q-6 0 -11 4.5t-5 11.5l12 154q0 16 15 16h69q8 0 12.5 -4.5t3.5 -11.5l-33 -154q-4 -16 -16 -16zM393 660h-47q-6 0 -11 4.5t-5 11.5l12 154q0 16 16 16h68q8 0 12.5 -4.5t3.5 -11.5l-33 -154q-2 -16 -16 -16zM437 495h78q15 0 15 -17v-462q0 -16 -14 -16
h-62q-12 0 -21.5 14t-10.5 28v12q-75 -60 -160 -60q-83 0 -144.5 50.5t-61.5 139.5v221q0 34 -5 69q-4 21 10 21h65q18 0 28.5 -11t10.5 -29v-261q0 -49 30.5 -76t81.5 -27q72 0 145 73v314q0 17 15 17z" />
    <glyph glyph-name="Uogonek" unicode="&#x172;" horiz-adv-x="771" 
d="M604 801h81q16 0 16 -17v-491q-1 -110 -66.5 -191t-178.5 -102q-143 -67 -143 -136q0 -29 21.5 -45.5t48.5 -16.5q43 0 88 20q9 4 16.5 0t7.5 -14v-31q0 -8 -9 -14q-67 -45 -150 -28q-99 20 -99 104q0 45 40.5 87.5t101.5 66.5q-142 1 -225.5 86.5t-83.5 213.5v491
q0 17 18 17h79q16 0 16 -17v-483q0 -96 57 -147.5t143 -51.5q88 0 146.5 52t58.5 147v483q0 17 16 17z" />
    <glyph glyph-name="uogonek" unicode="&#x173;" horiz-adv-x="585" 
d="M530 -178q9 4 16.5 0t7.5 -14v-31q0 -8 -9 -14q-67 -45 -150 -28q-99 20 -99 104q0 49 47 94.5t116 66.5h-5q-12 0 -21.5 14t-10.5 28v12q-75 -60 -160 -60q-83 0 -144.5 50.5t-61.5 139.5v221q0 34 -5 69q-4 21 10 21h65q18 0 28.5 -11t10.5 -29v-261q0 -49 30.5 -76
t81.5 -27q72 0 145 73v314q0 17 15 17h78q15 0 15 -17v-462q0 -16 -14 -16q-144 -67 -144 -136q0 -29 21.5 -45.5t48.5 -16.5q43 0 88 20z" />
    <glyph glyph-name="Wcircumflex" unicode="&#x174;" horiz-adv-x="1138" 
d="M569 964l-169 -100q-11 -6 -18.5 -2.5t-7.5 13.5v48q0 10 9 15l173 122q13 9 26 0l174 -122q9 -5 9 -15v-48q0 -10 -7 -13.5t-18 2.5zM996 801h102q8 0 12.5 -6t0.5 -15l-375 -771q-6 -13 -18 -13h-8q-12 0 -19 13l-122 256l-122 -257q-7 -13 -19 -13h-8q-12 0 -18 13
l-375 772q-4 8 0.5 14t12.5 6h102q9 0 18 -18l264 -565l82 180l-182 384q-4 8 0.5 14t12.5 6h101q11 0 18 -18l113 -248l113 247q7 18 18 18h101q8 0 12.5 -6t0.5 -15l-182 -382l82 -180l264 566q9 18 18 18z" />
    <glyph glyph-name="wcircumflex" unicode="&#x175;" horiz-adv-x="812" 
d="M407 706l-169 -100q-11 -6 -18.5 -2.5t-7.5 13.5v48q0 10 9 15l173 122q13 9 26 0l174 -122q9 -5 9 -15v-48q0 -10 -7 -13.5t-18 2.5zM690 495h83q20 0 12 -18l-187 -466q-4 -11 -16 -11h-12q-11 0 -18 11l-146 302l-146 -302q-6 -11 -17 -11h-13q-10 0 -16 11l-187 466
q-7 18 12 18h83q12 0 18 -11l112 -305l127 300q5 11 19 11h17q13 0 18 -11l128 -300l111 305q6 11 18 11z" />
    <glyph glyph-name="Ycircumflex" unicode="&#x176;" horiz-adv-x="760" 
d="M370 1060l-173 -122q-9 -5 -9 -15v-48q0 -10 7.5 -13.5t18.5 2.5l169 100l171 -100q11 -6 18 -2.5t7 13.5v48q0 10 -9 15l-174 122q-13 9 -26 0zM632 800h102q6 0 9 -5.5t-1 -12.5l-306 -456v-309q0 -17 -16 -17h-58q-18 0 -28.5 11t-10.5 29v286l-306 456q-4 7 -1 12.5
t10 5.5h101q8 0 17 -15l235 -346l235 346q11 15 18 15z" />
    <glyph glyph-name="ycircumflex" unicode="&#x177;" horiz-adv-x="578" 
d="M285 802l-173 -122q-9 -5 -9 -15v-48q0 -10 7.5 -13.5t18.5 2.5l169 100l171 -100q11 -6 18 -2.5t7 13.5v48q0 10 -9 15l-174 122q-13 9 -26 0zM453 495h85q9 0 12.5 -5.5t-0.5 -13.5l-198 -407q-130 -270 -233 -371q-13 -11 -30 6l-43 43q-15 13 1 32q118 134 191 298
l-208 400q-4 7 -0.5 12.5t11.5 5.5h88q12 0 18 -11l147 -300l140 299q6 12 19 12z" />
    <glyph glyph-name="Ydieresis" unicode="&#x178;" horiz-adv-x="760" 
d="M247 935q-25 0 -42.5 18t-17.5 43t17.5 43t42.5 18q26 0 43.5 -18t17.5 -43t-17.5 -43t-43.5 -18zM520 935q-25 0 -43 18t-18 43t18 43t43 18t42.5 -18t17.5 -43t-17.5 -43t-42.5 -18zM632 800h102q6 0 9 -5.5t-1 -12.5l-306 -456v-309q0 -17 -16 -17h-58q-18 0 -28.5 11
t-10.5 29v286l-306 456q-4 7 -1 12.5t10 5.5h101q8 0 17 -15l235 -346l235 346q11 15 18 15z" />
    <glyph glyph-name="Zacute" unicode="&#x179;" horiz-adv-x="652" 
d="M212 874l-20 35q-8 12 4 19l200 136q16 13 24 -2l30 -49q10 -16 -6 -24l-210 -120q-16 -8 -22 5zM213 113h387q17 0 17 -16v-58q0 -18 -11.5 -28.5t-29.5 -10.5h-525q-16 0 -16 16v20l6 9l397 643h-382q-18 0 -18 16v79q0 17 18 17h542q17 0 17 -16v-17l-5 -9z" />
    <glyph glyph-name="zacute" unicode="&#x17a;" horiz-adv-x="499" 
d="M163 611l210 120q16 8 6 24l-30 49q-8 15 -24 2l-200 -136q-12 -7 -4 -19l20 -35q6 -13 22 -5zM216 109h214q17 0 17 -16v-77q0 -16 -17 -16h-354q-16 0 -23 14.5t0 25.5l16 25l210 321h-208q-16 0 -16 16v77q0 16 16 16h353q13 0 19 -12t1 -23l-13 -22z" />
    <glyph glyph-name="Zdotaccent" unicode="&#x17b;" horiz-adv-x="652" 
d="M325 945q-23 0 -39.5 16t-16.5 39t16.5 40t39.5 17q24 0 40 -16.5t16 -40.5q0 -23 -16 -39t-40 -16zM213 113h387q17 0 17 -16v-58q0 -18 -11.5 -28.5t-29.5 -10.5h-525q-16 0 -16 16v20l6 9l397 643h-382q-18 0 -18 16v79q0 17 18 17h542q17 0 17 -16v-17l-5 -9z" />
    <glyph glyph-name="zdotaccent" unicode="&#x17c;" horiz-adv-x="499" 
d="M254 687q-23 0 -39.5 16t-16.5 39t16.5 40t39.5 17q24 0 40 -16.5t16 -40.5q0 -23 -16 -39t-40 -16zM216 109h214q17 0 17 -16v-77q0 -16 -17 -16h-354q-16 0 -23 14.5t0 25.5l16 25l210 321h-208q-16 0 -16 16v77q0 16 16 16h353q13 0 19 -12t1 -23l-13 -22z" />
    <glyph glyph-name="Zcaron" unicode="&#x17d;" horiz-adv-x="652" 
d="M311 864l-174 122q-9 9 -9 15v49q0 10 7.5 13t18.5 -2l170 -101l170 101q11 5 18.5 2t7.5 -13v-49q0 -7 -10 -15l-173 -122q-12 -9 -26 0zM213 113h387q17 0 17 -16v-58q0 -18 -11.5 -28.5t-29.5 -10.5h-525q-16 0 -16 16v20l6 9l397 643h-382q-18 0 -18 16v79
q0 17 18 17h542q17 0 17 -16v-17l-5 -9z" />
    <glyph glyph-name="zcaron" unicode="&#x17e;" horiz-adv-x="499" 
d="M266 606l173 122q10 8 10 15v49q0 10 -7.5 13t-18.5 -2l-170 -101l-170 101q-11 5 -18.5 2t-7.5 -13v-49q0 -6 9 -15l174 -122q14 -9 26 0zM216 109h214q17 0 17 -16v-77q0 -16 -17 -16h-354q-16 0 -23 14.5t0 25.5l16 25l210 321h-208q-16 0 -16 16v77q0 16 16 16h353
q13 0 19 -12t1 -23l-13 -22z" />
    <glyph glyph-name="florin" unicode="&#x192;" horiz-adv-x="637" 
d="M589 788q12 -6 7 -21l-26 -56q-6 -14 -22 -8q-32 16 -63 16q-49 0 -80.5 -24t-31.5 -76v-120h92q16 0 16 -17v-57q0 -16 -16 -16h-92l1 -600v-3v-14q-6 -89 -63 -136t-147 -47q-63 0 -116 32q-12 7 -6 20l25 57q7 15 22 8q32 -16 63 -16q100 0 111 82v617h-81
q-17 0 -17 16v57q0 17 17 17h81v121q0 96 58 148t152 52q65 0 116 -32z" />
    <glyph glyph-name="Acaron" unicode="&#x1cd;" horiz-adv-x="876" 
d="M425 881l-174 122q-9 9 -9 15v49q0 10 7.5 13t18.5 -2l170 -101l170 101q11 5 18.5 2t7.5 -13v-49q0 -7 -10 -15l-173 -122q-12 -9 -26 0zM458 796l375 -778q9 -18 -9 -18h-91q-12 0 -17 11l-61 130h-432l-61 -130q-6 -11 -17 -11h-92q-8 0 -11 5.5t0 12.5l377 778
q4 9 13 9h13q8 0 13 -9zM272 244h334l-167 354z" />
    <glyph glyph-name="acaron" unicode="&#x1ce;" horiz-adv-x="541" 
d="M292 606l173 122q10 8 10 15v49q0 10 -7.5 13t-18.5 -2l-170 -101l-170 101q-11 5 -18.5 2t-7.5 -13v-49q0 -6 9 -15l174 -122q14 -9 26 0zM486 22q-17 125 -10 285q4 90 -44 142t-138 52q-119 0 -212 -51q-17 -9 -11 -23l25 -58q6 -15 24 -7q95 43 167 43q87 0 84 -78
q-65 -11 -106 -20t-87.5 -25t-72 -34.5t-43 -48t-17.5 -67.5q0 -65 44 -101t121 -36q58 0 96 14.5t75 43.5q9 -53 34 -53h60q13 0 11 22zM229 81q-73 0 -73 52q0 17 12 31t29.5 23t46 18t52.5 14.5t58 12.5l15 3q-2 -56 0 -106q-63 -48 -140 -48z" />
    <glyph glyph-name="Icaron" unicode="&#x1cf;" horiz-adv-x="269" 
d="M148 865l173 122q10 8 10 15v49q0 10 -7.5 13t-18.5 -2l-170 -101l-170 101q-11 5 -18.5 2t-7.5 -13v-49q0 -6 9 -15l174 -122q14 -9 26 0zM173 800h-77q-16 0 -16 -16v-767q0 -17 17 -17h77q15 0 15 17v767q0 16 -16 16z" />
    <glyph glyph-name="icaron" unicode="&#x1d0;" horiz-adv-x="259" 
d="M144 606l173 122q10 8 10 15v49q0 10 -7.5 13t-18.5 -2l-170 -101l-170 101q-11 5 -18.5 2t-7.5 -13v-49q0 -6 9 -15l174 -122q14 -9 26 0zM168 495h-77q-16 0 -16 -16v-439q0 -18 10 -29t28 -11h56q15 0 15 17v462q0 16 -16 16z" />
    <glyph glyph-name="Ocaron" unicode="&#x1d1;" horiz-adv-x="938" 
d="M482 874l173 122q10 8 10 15v49q0 10 -7.5 13t-18.5 -2l-170 -101l-170 101q-11 5 -18.5 2t-7.5 -13v-49q0 -6 9 -15l174 -122q14 -9 26 0zM470 -7q169 0 288.5 118.5t119.5 289.5q0 169 -119.5 287.5t-288.5 118.5q-170 0 -290 -118.5t-120 -287.5q0 -171 119.5 -289.5
t290.5 -118.5zM470 102q-122 0 -209.5 88t-87.5 211q0 121 87.5 209t209.5 88q121 0 208.5 -88t87.5 -209q0 -123 -87.5 -211t-208.5 -88z" />
    <glyph glyph-name="ocaron" unicode="&#x1d2;" horiz-adv-x="592" 
d="M308 606l173 122q10 8 10 15v49q0 10 -7.5 13t-18.5 -2l-170 -101l-170 101q-11 5 -18.5 2t-7.5 -13v-49q0 -6 9 -15l174 -122q14 -9 26 0zM296 -7q106 0 181 73.5t75 180.5q0 108 -75 181.5t-181 73.5t-181 -73.5t-75 -181.5q0 -107 75 -180.5t181 -73.5zM296 95
q-63 0 -106.5 45t-43.5 106q0 63 43 108.5t107 45.5t107 -45.5t43 -108.5q0 -61 -43.5 -106t-106.5 -45z" />
    <glyph glyph-name="Ucaron" unicode="&#x1d3;" horiz-adv-x="771" 
d="M397 861l173 122q10 8 10 15v49q0 10 -7.5 13t-18.5 -2l-170 -101l-170 101q-11 5 -18.5 2t-7.5 -13v-49q0 -6 9 -15l174 -122q14 -9 26 0zM685 801h-81q-16 0 -16 -17v-483q0 -95 -58.5 -147t-146.5 -52q-86 0 -143 51.5t-57 147.5v483q0 17 -16 17h-79q-18 0 -18 -17
v-491q0 -129 84.5 -214.5t228.5 -85.5q145 0 231 86t87 214v491q0 17 -16 17z" />
    <glyph glyph-name="ucaron" unicode="&#x1d4;" horiz-adv-x="585" 
d="M275 606l-174 122q-9 9 -9 15v49q0 10 7.5 13t18.5 -2l170 -101l170 101q11 5 18.5 2t7.5 -13v-49q0 -7 -10 -15l-173 -122q-12 -9 -26 0zM437 495h78q15 0 15 -17v-462q0 -16 -14 -16h-62q-12 0 -21.5 14t-10.5 28v12q-75 -60 -160 -60q-83 0 -144.5 50.5t-61.5 139.5
v221q0 34 -5 69q-4 21 10 21h65q18 0 28.5 -11t10.5 -29v-261q0 -49 30.5 -76t81.5 -27q72 0 145 73v314q0 17 15 17z" />
    <glyph glyph-name="Gcaron" unicode="&#x1e6;" 
d="M421 871l-174 122q-9 9 -9 15v49q0 10 7.5 13t18.5 -2l170 -101l170 101q11 5 18.5 2t7.5 -13v-49q0 -7 -10 -15l-173 -122q-12 -9 -26 0zM753 339v-204q2 -8 -7 -17q-119 -125 -295 -125q-167 0 -286.5 118t-119.5 287q0 170 119.5 289.5t286.5 119.5q177 0 297 -126
q14 -14 1 -24l-64 -52q-12 -10 -23 1q-88 92 -207 92q-130 0 -213.5 -91t-83.5 -209t83.5 -207t213.5 -89q103 0 186 72v74h-183q-17 0 -17 16v74q0 18 16 18h279q17 0 17 -17z" />
    <glyph glyph-name="gcaron" unicode="&#x1e7;" horiz-adv-x="612" 
d="M316 606l173 122q10 8 10 15v49q0 10 -7.5 13t-18.5 -2l-170 -101l-170 101q-11 5 -18.5 2t-7.5 -13v-49q0 -6 9 -15l174 -122q14 -9 26 0zM388 -12q47 -6 79 -14.5t60 -25t41 -45t12 -68.5q-2 -88 -78.5 -138.5t-207.5 -50.5q-106 0 -170.5 43.5t-63.5 121.5
q2 93 108 114q-54 9 -94 38.5t-41 74.5q-2 45 32 70.5t91 17.5q-29 15 -53.5 56.5t-25.5 88.5q-2 97 62.5 163t160.5 66q29 0 93 -7.5t135 -5.5q16 0 16 -15l-4 -51q-8 -7 -63 -12q54 -49 54 -139q0 -96 -65 -156t-157 -57q-46 2 -104 23q-30 7 -48.5 -0.5t-17.5 -26.5
q3 -34 90 -45q17 -2 159 -20zM305 397q-51 0 -86.5 -35t-35.5 -86q0 -47 36 -81.5t85 -34.5q54 -1 87 32.5t34 83.5q-1 52 -35.5 86.5t-84.5 34.5zM305 -254q67 0 112.5 21.5t46.5 62.5q1 23 -16.5 36.5t-56.5 21.5q-58 11 -142 20q-30 4 -54.5 -18t-25.5 -58
q-3 -86 136 -86z" />
    <glyph glyph-name="Scommaaccent" unicode="&#x218;" horiz-adv-x="629" 
d="M334 455q46 -18 73.5 -30.5t65.5 -35.5t59 -45.5t36.5 -56t15.5 -73.5q0 -90 -77 -155.5t-194 -65.5q-50 0 -95 13t-81.5 38.5t-48.5 35.5t-33 30q-16 14 -5 27l44 50q16 17 32 5q2 -1 12 -10l16 -14t18.5 -14.5t22.5 -15.5t25 -14t28.5 -12.5t30.5 -7.5t33 -3
q74 0 117 32t43 82q0 17 -4.5 31.5t-16.5 26.5l-20 20t-30.5 18l-31 14t-37.5 14.5t-36 13.5q-115 46 -175 97.5t-60 137.5q0 87 65 152.5t190 65.5q56 0 110.5 -20t81.5 -38.5t45 -36.5q17 -17 6 -31l-39 -51q-14 -19 -32 -6q-2 1 -11.5 8.5l-15 12t-17 12.5t-20.5 13
t-23 11t-26 10t-27.5 6.5t-30.5 2.5q-66 0 -104.5 -32t-38.5 -79t37.5 -73.5t122.5 -59.5zM372 -158q10 -13 13 -32q8 -56 -8 -118q-19 -71 -80 -116q-10 -8 -17 -1l-16 17q-6 4 -1 11q64 58 62 130l-1 16q-10 -2 -16 -2q-28 0 -48 20t-20 47q0 28 20 48t48 20q44 0 64 -40z
" />
    <glyph glyph-name="scommaaccent" unicode="&#x219;" horiz-adv-x="479" 
d="M256 295q178 -48 178 -154q0 -64 -55.5 -106t-144.5 -42q-54 0 -105 20t-76 40q-5 3 -6.5 9t1.5 10l34 54q10 16 23 9q1 -2 18 -10.5t49 -18t62 -9.5q40 0 59 13.5t19 32.5q0 24 -23.5 36t-80.5 27q-158 42 -158 150q0 60 49 102.5t135 42.5q80 0 163 -48q18 -11 9 -23
l-37 -57q-8 -13 -22 -8q-64 32 -113 32q-38 0 -54.5 -14t-16.5 -31q0 -20 23.5 -32t69.5 -25zM298 -159q10 -13 13 -32q8 -56 -8 -118q-19 -71 -80 -116q-10 -8 -17 -1l-16 17q-6 4 -1 11q64 58 62 130l-1 16q-10 -2 -16 -2q-28 0 -48 20t-20 47q0 28 20 48t48 20
q44 0 64 -40z" />
    <glyph glyph-name="uni021A" unicode="&#x21a;" horiz-adv-x="718" 
d="M62 800h595q16 0 16 -16v-77q0 -16 -16 -16h-241v-674q0 -17 -16 -17h-58q-39 0 -39 40v651h-241q-17 0 -17 16v76q0 17 17 17zM422 -157q10 -13 13 -32q8 -56 -8 -118q-19 -71 -80 -116q-10 -8 -17 -1l-16 17q-6 4 -1 11q64 58 62 130l-1 16q-10 -2 -16 -2q-28 0 -48 20
t-20 47q0 28 20 48t48 20q44 0 64 -40z" />
    <glyph glyph-name="uni021B" unicode="&#x21b;" horiz-adv-x="403" 
d="M349 91l13 -59q3 -9 -10 -18q-29 -19 -91 -19q-79 0 -112.5 43t-33.5 141v211h-59q-16 0 -16 16v17q0 12 8 20q49 40 82.5 83.5t61.5 113.5q5 11 11 11h11q11 0 11 -13v-143h105q7 0 12 -5t5 -12v-72q0 -7 -5 -11.5t-12 -4.5h-87q-13 0 -19 3v-204q0 -48 11 -69.5
t45 -21.5q23 0 47 6q19 5 22 -13zM314 -157q10 -13 13 -32q8 -56 -8 -118q-19 -71 -80 -116q-10 -8 -17 -1l-16 17q-6 4 -1 11q64 58 62 130l-1 16q-10 -2 -16 -2q-28 0 -48 20t-20 47q0 28 20 48t48 20q44 0 64 -40z" />
    <glyph glyph-name="uni0228" unicode="&#x228;" horiz-adv-x="664" 
d="M585 691h-397v-244h230q17 0 17 -17v-75q0 -17 -17 -17h-229v-229h396q17 0 17 -17v-75q0 -17 -17 -17h-215l-34 -64h5q54 0 93.5 -38t39.5 -92q0 -53 -39.5 -92t-94.5 -39q-61 0 -102 48q-4 7 1 13l25 27q7 7 15 -1q29 -25 60 -25q34 0 52.5 20t18.5 49t-18.5 48.5
t-50.5 19.5q-34 0 -62 -27q-9 -9 -16 -3l-25 26q-4 5 -2 11l3 5l62 114h-209q-17 0 -17 17v767q0 16 16 16h494q17 0 17 -16v-77q0 -16 -17 -16z" />
    <glyph glyph-name="uni0229" unicode="&#x229;" horiz-adv-x="562" 
d="M525 267q0 -60 -61 -60h-313q8 -51 49.5 -83.5t101.5 -32.5q84 0 143 48q16 10 26 -3l19 -25q9 -12 2 -22q-58 -79 -166 -92l2 3h-69l-2 -3q-95 12 -158 81t-63 170q0 108 71.5 181t176.5 73q106 0 173.5 -69.5t67.5 -165.5zM151 292h260q-3 41 -37.5 75.5t-91.5 34.5
t-92.5 -34.5t-38.5 -75.5zM197 -114l60 111q22 -2 33 -2q14 0 36 2l-32 -61h5q54 0 93.5 -38t39.5 -92q0 -53 -39.5 -92t-94.5 -39q-61 0 -102 48q-4 7 1 13l25 27q7 7 15 -1q29 -25 60 -25q34 0 52.5 20t18.5 49t-18.5 48.5t-50.5 19.5q-34 0 -62 -27q-9 -9 -16 -3l-25 26
q-4 5 -2 11z" />
    <glyph glyph-name="dotlessj" unicode="&#x237;" horiz-adv-x="244" 
d="M157 495h-76q-16 0 -16 -16v-579q0 -63 -54 -89q-15 -7 -9 -21l38 -74q7 -12 22 -6q112 55 112 190v579q0 16 -17 16z" />
    <glyph glyph-name="circumflex" unicode="&#x2c6;" horiz-adv-x="479" 
d="M226 809l-173 -122q-9 -5 -9 -15v-48q0 -10 7.5 -13.5t18.5 2.5l169 100l171 -100q11 -6 18 -2.5t7 13.5v48q0 10 -9 15l-174 122q-13 9 -26 0z" />
    <glyph glyph-name="caron" unicode="&#x2c7;" horiz-adv-x="479" 
d="M252 608l173 122q10 8 10 15v49q0 10 -7.5 13t-18.5 -2l-170 -101l-170 101q-11 5 -18.5 2t-7.5 -13v-49q0 -6 9 -15l174 -122q14 -9 26 0z" />
    <glyph glyph-name="breve" unicode="&#x2d8;" horiz-adv-x="447" 
d="M40 777q8 -69 59.5 -114t124.5 -45q72 0 123.5 45t60.5 113q1 11 -4 18t-13 7h-42q-14 0 -17 -17q-9 -41 -41 -66t-67 -25q-39 0 -70 24t-40 68q-4 16 -16 16h-41q-20 0 -17 -24z" />
    <glyph glyph-name="dotaccent" unicode="&#x2d9;" horiz-adv-x="222" 
d="M111 687q-23 0 -39.5 16t-16.5 39t16.5 40t39.5 17q24 0 40 -16.5t16 -40.5q0 -23 -16 -39t-40 -16z" />
    <glyph glyph-name="ring" unicode="&#x2da;" horiz-adv-x="352" 
d="M176 562q-50 0 -86.5 36t-36.5 86q0 51 36.5 87t86.5 36t86.5 -36t36.5 -87q0 -50 -36.5 -86t-86.5 -36zM176 619q28 0 46.5 19t18.5 46t-18.5 46t-46.5 19q-26 0 -45 -19t-19 -46t19 -46t45 -19z" />
    <glyph glyph-name="ogonek" unicode="&#x2db;" horiz-adv-x="338" 
d="M260 0h-57q-69 -21 -116 -66.5t-47 -94.5q0 -84 99 -104q83 -17 150 28q9 6 9 14v31q0 10 -7.5 14t-16.5 0q-45 -20 -88 -20q-27 0 -48.5 16.5t-21.5 45.5q0 69 144 136z" />
    <glyph glyph-name="tilde" unicode="&#x2dc;" horiz-adv-x="532" 
d="M44 685l33 -34q9 -10 20 1q35 43 81 43q38 0 83 -33t87 -33q14 0 28.5 3t26.5 8t23.5 12t20 13.5t16.5 13.5t12.5 12t8.5 9l4 5q9 9 0 19l-31 36q-9 11 -20 0q-45 -42 -90 -42q-30 0 -79.5 33.5t-90.5 33.5q-71 0 -134 -79q-8 -12 1 -21z" />
    <glyph glyph-name="hungarumlaut" unicode="&#x2dd;" horiz-adv-x="388" 
d="M103 660h-47q-6 0 -11 4.5t-5 11.5l12 154q0 16 15 16h69q8 0 12.5 -4.5t3.5 -11.5l-33 -154q-4 -16 -16 -16zM298 660h-47q-6 0 -11 4.5t-5 11.5l12 154q0 16 16 16h68q8 0 12.5 -4.5t3.5 -11.5l-33 -154q-2 -16 -16 -16z" />
    <glyph glyph-name="uni0326" unicode="&#x326;" horiz-adv-x="0" 
d="M215 -190q8 -56 -8 -118q-19 -71 -80 -116q-10 -8 -17 -1l-16 17q-6 4 -1 11q64 58 62 130l-1 16q-10 -2 -16 -2q-28 0 -48 20t-20 47q0 28 20 48t48 20q44 0 64 -40q10 -13 13 -32z" />
    <glyph glyph-name="Delta" unicode="&#x394;" horiz-adv-x="854" 
d="M447 796l368 -780q6 -16 -11 -16h-753q-18 0 -11 17l369 779q3 9 13 9h12q8 0 13 -9zM205 117h445l-222 487z" />
    <glyph glyph-name="Omega" unicode="&#x3a9;" horiz-adv-x="865" 
d="M24 91v-74q0 -17 16 -17h317q16 0 16 17v47q0 11 -3.5 17.5t-5 7.5t-13.5 8q-90 38 -154 122.5t-64 179.5q0 124 87.5 212.5t212.5 88.5q123 0 211 -89t88 -212q0 -95 -64.5 -179.5t-154.5 -122.5q-2 -1 -4.5 -2.5t-4 -2.5t-3.5 -2.5t-3 -2.5t-2 -2.5t-1.5 -3.5
t-1.5 -4.5t-1 -5.5v-7v-47q0 -17 15 -17h319q15 0 15 17v74q0 6 -4.5 11t-10.5 5h-160q69 36 124 120.5t55 181.5q0 170 -120 286.5t-292 116.5q-173 0 -293 -116.5t-120 -286.5q0 -97 54 -181.5t122 -120.5h-156q-7 0 -11.5 -5t-4.5 -11z" />
    <glyph glyph-name="mu" unicode="&#x3bc;" horiz-adv-x="592" 
d="M459 500h77q16 0 16 -16v-266q0 -102 -55.5 -166.5t-154.5 -64.5q-84 -3 -162 54v-225q0 -16 -17 -16h-76q-17 0 -17 16v668q0 16 17 16h76q17 0 17 -16v-316q53 -65 116 -76.5t105 25t42 98.5v269q0 16 16 16z" />
    <glyph glyph-name="pi" unicode="&#x3c0;" horiz-adv-x="720" 
d="M56 501h607q17 0 17 -17v-64q0 -18 -17 -18h-84v-223q0 -62 50 -88q15 -6 8 -20l-36 -71q-7 -13 -22 -6q-106 51 -111 174v7v4l1 223h-207v-385q0 -17 -17 -17h-76q-17 0 -17 17v385h-96q-16 0 -16 17v64q0 18 16 18z" />
    <glyph glyph-name="uni0401" unicode="&#x401;" horiz-adv-x="664" 
d="M204 939q-25 0 -42.5 18t-17.5 43t17.5 43t42.5 18q26 0 43.5 -18t17.5 -43t-17.5 -43t-43.5 -18zM477 939q-25 0 -43 18t-18 43t18 43t43 18t42.5 -18t17.5 -43t-17.5 -43t-42.5 -18zM585 691h-397v-244h230q17 0 17 -17v-75q0 -17 -17 -17h-229v-229h396q17 0 17 -17
v-75q0 -17 -17 -17h-493q-17 0 -17 17v767q0 16 16 16h494q17 0 17 -16v-77q0 -16 -17 -16z" />
    <glyph glyph-name="uni0403" unicode="&#x403;" horiz-adv-x="654" 
d="M215 860l-20 35q-8 12 4 19l200 136q16 13 24 -2l30 -49q10 -16 -6 -24l-210 -120q-16 -8 -22 5zM71 800h493q17 0 26.5 -10.5t9.5 -28.5v-65q0 -15 -20 -11q-27 5 -54 6h-358l1 -674q0 -7 -4.5 -12t-11.5 -5h-81q-17 0 -17 17v767q0 16 16 16z" />
    <glyph glyph-name="uni0404" unicode="&#x404;" 
d="M683 195l64 -52q13 -11 -1 -25q-119 -125 -295 -125q-167 0 -286.5 118t-119.5 287q0 170 119.5 289.5t286.5 119.5q177 0 297 -126q14 -14 1 -24l-64 -52q-12 -10 -23 1q-88 92 -207 92q-113 0 -192 -70.5t-99 -172.5h354q17 0 17 -17v-76q0 -16 -17 -16h-355
q18 -103 97.5 -173.5t194.5 -70.5q117 0 204 89q12 13 24 4z" />
    <glyph glyph-name="uni0406" unicode="&#x406;" horiz-adv-x="269" 
d="M173 800h-77q-16 0 -16 -16v-767q0 -17 17 -17h77q15 0 15 17v767q0 16 -16 16z" />
    <glyph glyph-name="uni0407" unicode="&#x407;" horiz-adv-x="269" 
d="M-1 937q-25 0 -42.5 18t-17.5 43t17.5 43t42.5 18q26 0 43.5 -18t17.5 -43t-17.5 -43t-43.5 -18zM272 937q-25 0 -43 18t-18 43t18 43t43 18t42.5 -18t17.5 -43t-17.5 -43t-42.5 -18zM173 800h-77q-16 0 -16 -16v-767q0 -17 17 -17h77q15 0 15 17v767q0 16 -16 16z" />
    <glyph glyph-name="uni0408" unicode="&#x408;" horiz-adv-x="300" 
d="M112 800h69q18 0 28.5 -11t10.5 -29v-849q-1 -72 -36.5 -128.5t-94.5 -88.5q-16 -7 -23 5l-38 73q-8 15 8 21q71 41 71 121v816q0 8 -6 50q-4 20 11 20z" />
    <glyph glyph-name="uni040C" unicode="&#x40c;" horiz-adv-x="671" 
d="M222 856l-20 35q-8 12 4 19l200 136q16 13 24 -2l30 -49q10 -16 -6 -24l-210 -120q-16 -8 -22 5zM290 420l357 -383q11 -12 6 -24.5t-21 -12.5h-84q-13 0 -21 9l-368 398v-391q0 -16 -16 -16h-80q-16 0 -16 16v710q-1 27 -6 54q-4 20 11 20h68q18 0 28.5 -9.5t10.5 -26.5
v-331l330 358q9 9 21 9h86q15 0 19.5 -12t-4.5 -22z" />
    <glyph glyph-name="uni040D" unicode="&#x40d;" horiz-adv-x="840" 
d="M294 971l210 -120q16 -8 22 5l20 35q8 12 -4 19l-200 136q-16 12 -25 -2l-29 -49q-10 -16 6 -24zM91 800h81q15 0 15 -15v-572l492 574q12 13 23 13h48q6 0 10.5 -4.5t4.5 -11.5v-767q0 -17 -16 -17l-80 1q-16 0 -16 16v562l-464 -533q-42 -46 -71 -46h-27q-16 0 -16 15
v770q0 6 4.5 10.5t11.5 4.5z" />
    <glyph glyph-name="uni040E" unicode="&#x40e;" horiz-adv-x="674" 
d="M154 1017q8 -69 59.5 -114t124.5 -45q72 0 123.5 45t60.5 113q1 11 -4 18t-13 7h-42q-14 0 -17 -17q-9 -41 -41 -66t-67 -25q-39 0 -70 24t-40 68q-4 16 -16 16h-41q-20 0 -17 -24zM558 800h87q9 0 12.5 -5.5t-0.5 -13.5l-257 -494q-88 -168 -223 -300q-12 -12 -26 4
l-44 51q-13 15 2 30q107 109 167 209l-259 500q-4 8 -0.5 13.5t11.5 5.5h89q11 0 18 -12l202 -393l202 392q8 13 19 13z" />
    <glyph glyph-name="uni0410" unicode="&#x410;" horiz-adv-x="876" 
d="M458 796l375 -778q9 -18 -9 -18h-91q-12 0 -17 11l-61 130h-432l-61 -130q-6 -11 -17 -11h-92q-8 0 -11 5.5t0 12.5l377 778q4 9 13 9h13q8 0 13 -9zM272 244h334l-167 354z" />
    <glyph glyph-name="uni0411" unicode="&#x411;" horiz-adv-x="682" 
d="M168 461h199q113 0 187.5 -68.5t74.5 -167.5q0 -97 -70.5 -161t-166.5 -64h-320q-17 0 -17 17v767q0 16 16 16h494q16 0 26 -10.5t10 -28.5v-65q0 -15 -21 -11q-25 5 -54 6h-358v-230zM168 109h198q47 0 81.5 18t50 45t15.5 58.5t-15 58.5t-50 45t-82 18h-198v-243z" />
    <glyph glyph-name="uni0412" unicode="&#x412;" horiz-adv-x="687" 
d="M499 426q63 -29 99 -83t36 -120q0 -96 -71.5 -159.5t-167.5 -63.5h-323q-17 0 -17 17v767q0 16 16 16h298q92 0 157 -66t65 -145q0 -53 -25 -95t-67 -68zM168 459h179q34 0 61 13t41 33.5t21 45t0.5 49t-20 45t-40.5 33.5t-61 13h-181v-232zM169 109h200q40 0 72 13.5
t48 35t24 47.5t0 52t-24.5 47.5t-48.5 35t-73 13.5h-198v-244z" />
    <glyph glyph-name="uni0413" unicode="&#x413;" horiz-adv-x="654" 
d="M71 800h493q17 0 26.5 -10.5t9.5 -28.5v-65q0 -15 -20 -11q-27 5 -54 6h-358l1 -674q0 -7 -4.5 -12t-11.5 -5h-81q-17 0 -17 17v767q0 16 16 16z" />
    <glyph glyph-name="uni0414" unicode="&#x414;" horiz-adv-x="803" 
d="M683 110h63q17 0 17 -17v-171q0 -16 -17 -16h-78q-14 0 -14 16v78h-504v-78q0 -16 -15 -16h-78q-17 0 -17 16v171q0 17 17 17h58q45 118 60 281.5t15 387.5v1q0 20 20 20h453q20 0 20 -20v-670zM574 690h-275q0 -121 -3 -201t-18.5 -190t-45.5 -189h342v580z" />
    <glyph glyph-name="uni0415" unicode="&#x415;" horiz-adv-x="664" 
d="M585 691h-397v-244h230q17 0 17 -17v-75q0 -17 -17 -17h-229v-229h396q17 0 17 -17v-75q0 -17 -17 -17h-493q-17 0 -17 17v767q0 16 16 16h494q17 0 17 -16v-77q0 -16 -17 -16z" />
    <glyph glyph-name="uni0416" unicode="&#x416;" horiz-adv-x="1188" 
d="M781 416l364 -379q11 -12 6 -24.5t-21 -12.5h-85q-12 0 -20 9l-375 394v-387q0 -16 -16 -16h-80q-17 0 -17 16v394l-374 -401q-8 -9 -20 -9h-85q-16 0 -21 12.5t6 24.5l364 387l-321 342q-10 10 -5 22t20 12h86q12 0 21 -9l329 -353v288q0 20 -6 54q-4 20 11 20h69
q18 0 28.5 -9.5t10.5 -26.5v-335l330 362q9 9 20 9h87q14 0 19 -12t-4 -22z" />
    <glyph glyph-name="uni0417" unicode="&#x417;" horiz-adv-x="645" 
d="M451 412q68 -33 108.5 -84.5t40.5 -114.5q0 -94 -82.5 -157.5t-200.5 -63.5q-171 0 -266 134q-11 13 1 23l56 50q13 9 24 -2q62 -95 187 -95q70 0 118 32.5t48 85.5q0 61 -59.5 102.5t-155.5 42.5v95q93 1 147.5 37.5t54.5 89.5q0 49 -44 80t-109 31q-57 0 -103.5 -26.5
t-74.5 -68.5q-11 -12 -24 -2l-56 50q-12 9 -1 23q95 133 257 133q116 0 193.5 -62.5t77.5 -150.5q0 -55 -36 -102.5t-101 -79.5z" />
    <glyph glyph-name="uni0418" unicode="&#x418;" horiz-adv-x="840" 
d="M91 800h81q15 0 15 -15v-572l492 574q12 13 23 13h48q6 0 10.5 -4.5t4.5 -11.5v-767q0 -17 -16 -17l-80 1q-16 0 -16 16v562l-464 -533q-42 -46 -71 -46h-27q-16 0 -16 15v770q0 6 4.5 10.5t11.5 4.5z" />
    <glyph glyph-name="uni0419" unicode="&#x419;" horiz-adv-x="843" 
d="M244 959q8 -69 59.5 -114t124.5 -45q72 0 123.5 45t60.5 113q1 11 -4 18t-13 7h-40q-13 0 -18 -17q-9 -42 -40 -67t-69 -25q-41 0 -72 24.5t-40 68.5q-2 16 -16 16h-39q-20 0 -17 -24zM91 800h81q15 0 15 -15v-572l492 574q12 13 23 13h48q6 0 10.5 -4.5t4.5 -11.5v-767
q0 -17 -16 -17l-80 1q-16 0 -16 16v562l-464 -533q-42 -46 -71 -46h-27q-16 0 -16 15v770q0 6 4.5 10.5t11.5 4.5z" />
    <glyph glyph-name="uni041A" unicode="&#x41a;" horiz-adv-x="671" 
d="M290 420l357 -383q11 -12 6 -24.5t-21 -12.5h-84q-13 0 -21 9l-368 398v-391q0 -16 -16 -16h-80q-16 0 -16 16v710q-1 27 -6 54q-4 20 11 20h68q18 0 28.5 -9.5t10.5 -26.5v-331l330 358q9 9 21 9h86q15 0 19.5 -12t-4.5 -22z" />
    <glyph glyph-name="uni041B" unicode="&#x41b;" horiz-adv-x="765" 
d="M165 800h520q20 0 20 -20v-764q0 -16 -15 -16h-78q-16 0 -16 16v674h-341v-492q0 -106 -55 -155t-127 -49q-28 0 -38 4t-10 15v69q0 22 24 22q47 0 71.5 22.5t24.5 73.5v580q0 20 20 20z" />
    <glyph glyph-name="uni041C" unicode="&#x41c;" horiz-adv-x="1067" 
d="M909 800h67q16 0 16 -17v-766q0 -17 -16 -17h-79q-17 0 -17 17v551l-326 -533q-8 -12 -18 -12h-5q-11 0 -18 12l-325 533v-551q0 -7 -5 -12t-12 -5h-79q-17 0 -17 17v767q0 16 16 16h68q13 0 20 -11l355 -580l355 580q5 11 20 11z" />
    <glyph glyph-name="uni041D" unicode="&#x41d;" horiz-adv-x="816" 
d="M644 800h80q17 0 17 -16v-767q0 -17 -15 -17h-59q-18 0 -28.5 11t-10.5 29v296h-440v-319q0 -7 -4.5 -12t-11.5 -5h-80q-17 0 -17 17v767q0 16 16 16h80q17 0 17 -16v-335h440v335q0 16 16 16z" />
    <glyph glyph-name="uni041E" unicode="&#x41e;" horiz-adv-x="938" 
d="M470 -7q169 0 288.5 118.5t119.5 289.5q0 169 -119.5 287.5t-288.5 118.5q-170 0 -290 -118.5t-120 -287.5q0 -171 119.5 -289.5t290.5 -118.5zM470 102q-122 0 -209.5 88t-87.5 211q0 121 87.5 209t209.5 88q121 0 208.5 -88t87.5 -209q0 -123 -87.5 -211t-208.5 -88z
" />
    <glyph glyph-name="uni041F" unicode="&#x41f;" horiz-adv-x="775" 
d="M704 784l1 -767q0 -7 -4.5 -12t-11.5 -5h-78q-17 0 -17 17v671h-414v-671q0 -17 -16 -17h-77q-17 0 -17 17v767q0 16 16 16h602q16 0 16 -16z" />
    <glyph glyph-name="uni0420" unicode="&#x420;" horiz-adv-x="686" 
d="M86 800h296q122 0 198 -84t76 -184q0 -104 -75.5 -187t-198.5 -83h-199v-245q0 -17 -16 -17h-81q-16 0 -16 17v767q0 16 16 16zM183 371h190q78 0 124.5 48.5t46.5 112.5t-46.5 111.5t-124.5 47.5h-190v-320z" />
    <glyph glyph-name="uni0421" unicode="&#x421;" 
d="M683 195l64 -52q13 -11 -1 -25q-119 -125 -295 -125q-167 0 -286.5 118t-119.5 287q0 170 119.5 289.5t286.5 119.5q177 0 297 -126q14 -14 1 -24l-64 -52q-12 -10 -23 1q-88 92 -207 92q-130 0 -213.5 -91t-83.5 -209t83.5 -207t213.5 -89q117 0 204 89q12 13 24 4z" />
    <glyph glyph-name="uni0422" unicode="&#x422;" horiz-adv-x="718" 
d="M62 800h595q16 0 16 -16v-77q0 -16 -16 -16h-241v-674q0 -17 -16 -17h-58q-39 0 -39 40v651h-241q-17 0 -17 16v76q0 17 17 17z" />
    <glyph glyph-name="uni0423" unicode="&#x423;" horiz-adv-x="674" 
d="M558 800h87q9 0 12.5 -5.5t-0.5 -13.5l-257 -494q-88 -168 -223 -300q-12 -12 -26 4l-44 51q-13 15 2 30q107 109 167 209l-259 500q-4 8 -0.5 13.5t11.5 5.5h89q11 0 18 -12l202 -393l202 392q8 13 19 13z" />
    <glyph glyph-name="uni0424" unicode="&#x424;" horiz-adv-x="877" 
d="M494 700h17q141 0 226 -91t85 -207q0 -79 -35 -146t-107 -110.5t-168 -43.5h-18v-90q0 -5 -3.5 -9t-8.5 -4h-82q-12 0 -12 13v90h-18q-96 0 -168 43.5t-107 110.5t-35 146q0 116 85 207t226 91h17v89q0 12 12 12h82q10 0 12 -12v-89zM369 207h19v388h-19
q-91 0 -142.5 -56.5t-51.5 -134.5q0 -79 52 -138t142 -59zM494 207h19q89 0 141.5 59t52.5 138q0 78 -51.5 134.5t-142.5 56.5h-19v-388z" />
    <glyph glyph-name="uni0425" unicode="&#x425;" horiz-adv-x="742" 
d="M438 400l269 -383q4 -6 2 -11.5t-9 -5.5h-109q-3 0 -5 1t-4 2.5t-3.5 3.5t-4 5t-3.5 5l-201 286l-201 -286q-11 -17 -19 -17h-110q-7 0 -9 5.5t2 11.5l269 383l-270 385q-4 6 -1.5 10.5t8.5 4.5h111q9 0 17 -15l203 -289l203 289q10 15 17 15h111q7 0 9 -4.5t-2 -10.5z
" />
    <glyph glyph-name="uni0426" unicode="&#x426;" horiz-adv-x="763" 
d="M732 -61q4 -20 -11 -20h-68q-18 0 -28.5 9.5t-10.5 25.5v46h-557q-16 0 -16 16l-1 768q0 7 4.5 12t11.5 5h78q16 0 16 -17v-672h394v672q0 7 4.5 12t11.5 5h78q17 0 17 -17v-672h54q17 0 17 -17v-102q1 -29 6 -54z" />
    <glyph glyph-name="uni0427" unicode="&#x427;" horiz-adv-x="638" 
d="M587 22q3 -21 -11 -21h-68q-37 0 -40 36v330q-86 -54 -175 -54q-108 0 -179 56.5t-72 145.5v210q-1 30 -6 55q-4 21 12 21h67q39 0 39 -40v-229q0 -52 41 -84t102 -32q88 0 172 66v303q0 16 16 16h79q17 0 17 -16v-708q0 -11 6 -55z" />
    <glyph glyph-name="uni0428" unicode="&#x428;" horiz-adv-x="1179" 
d="M1035 800h77q17 0 17 -17v-767q0 -16 -16 -16h-1046q-16 0 -16 16l-1 767q0 7 4.5 12t11.5 5h78q16 0 16 -17v-671h375l-1 671q0 7 4.5 12t11.5 5h78q17 0 17 -17v-671h374v671q0 17 16 17z" />
    <glyph glyph-name="uni0429" unicode="&#x429;" horiz-adv-x="1238" 
d="M1207 -61q4 -20 -12 -20h-68q-18 0 -28.5 9.5t-10.5 25.5v46h-1021q-16 0 -16 16l-1 767q0 7 4.5 12t11.5 5h78q16 0 16 -17v-671h375l-1 671q0 7 4.5 12t11.5 5h78q17 0 17 -17v-671h374v672q0 17 16 17h77q17 0 17 -17v-672h54q18 0 18 -17l-1 -102q1 -22 7 -54z" />
    <glyph glyph-name="uni042A" unicode="&#x42a;" horiz-adv-x="802" 
d="M286 461h202q113 0 187.5 -68.5t74.5 -167.5q0 -97 -70.5 -161t-166.5 -64h-320q-16 0 -16 17v671h-88q-19 -1 -54 -7q-20 -4 -20 12v68q0 18 9.5 28.5t26.5 10.5h219q16 0 16 -16v-323zM287 109h200q40 0 72 13.5t48.5 35t24 47.5t0 52t-23.5 47.5t-48 35t-73 13.5h-200
v-244z" />
    <glyph glyph-name="uni042B" unicode="&#x42b;" horiz-adv-x="919" 
d="M160 461h201q113 0 187.5 -68.5t74.5 -167.5q0 -97 -70.5 -161t-166.5 -64h-319q-17 0 -17 17v767q0 16 16 16h77q17 0 17 -16v-323zM838 784l1 -767q0 -7 -4.5 -12t-11.5 -5h-78q-16 0 -16 17v767q0 16 16 16h77q16 0 16 -16zM160 109h200q70 0 109.5 38t40 84t-39.5 84
t-110 38h-200v-244z" />
    <glyph glyph-name="uni042C" unicode="&#x42c;" horiz-adv-x="682" 
d="M167 461h201q113 0 187.5 -68.5t74.5 -167.5q0 -97 -70.5 -161t-166.5 -64h-319q-17 0 -17 17v767q0 16 16 16h77q17 0 17 -16v-323zM167 109h200q70 0 109.5 38t40 84t-39.5 84t-110 38h-200v-244z" />
    <glyph glyph-name="uni042D" unicode="&#x42d;" 
d="M349 807q167 0 286.5 -119.5t119.5 -289.5q0 -169 -119.5 -287t-286.5 -118q-175 0 -294 125q-14 14 -2 25l64 52q12 9 24 -4q87 -89 205 -89q114 0 194 70.5t98 173.5h-356q-7 0 -12 4.5t-5 11.5v76q0 17 17 17h355q-20 102 -99.5 172.5t-191.5 70.5q-62 0 -116.5 -27
t-90.5 -65q-12 -12 -24 -1l-64 52q-13 10 1 24q120 126 297 126z" />
    <glyph glyph-name="uni042E" unicode="&#x42e;" horiz-adv-x="1216" 
d="M748 807q169 0 288.5 -118.5t119.5 -287.5q0 -171 -119.5 -289.5t-288.5 -118.5q-156 0 -271.5 100.5t-135.5 252.5h-152v-329q0 -17 -15 -17h-77q-17 0 -17 17v767q0 16 16 16h77q16 0 16 -16v-329h152q20 151 135.5 251.5t271.5 100.5zM748 102q121 0 208 88t87 211
q0 122 -87 209.5t-208 87.5q-122 0 -210 -88t-88 -209q0 -123 88 -211t210 -88z" />
    <glyph glyph-name="uni042F" unicode="&#x42f;" horiz-adv-x="712" 
d="M324 800h311q17 0 17 -16v-767q0 -17 -16 -17h-82q-16 0 -16 17v245h-197l-156 -230q-21 -32 -49 -32h-73q-10 0 -13 6t2 13l179 259q-80 29 -126 101t-46 152q0 63 29.5 123t92 103t143.5 43zM338 371h200l1 319h-201q-78 0 -121.5 -46.5t-44.5 -110.5q-1 -66 43 -114
t123 -48z" />
    <glyph glyph-name="uni0430" unicode="&#x430;" horiz-adv-x="546" 
d="M486 22q-17 125 -10 285q4 90 -44 142t-138 52q-119 0 -212 -51q-17 -9 -11 -23l25 -58q6 -15 24 -7q95 43 167 43q87 0 84 -78q-65 -11 -106 -20t-87.5 -25t-72 -34.5t-43 -48t-17.5 -67.5q0 -65 44 -101t121 -36q58 0 96 14.5t75 43.5q9 -53 34 -53h60q13 0 11 22z
M229 81q-73 0 -73 52q0 17 12 31t29.5 23t46 18t52.5 14.5t58 12.5l15 3q-2 -56 0 -106q-63 -48 -140 -48z" />
    <glyph glyph-name="uni0431" unicode="&#x431;" horiz-adv-x="621" 
d="M323 502q105 0 180 -73.5t75 -181.5q0 -106 -75 -180t-180 -74q-87 0 -156 51.5t-92 133.5q-30 71 -30 203q0 61 11 119t36 113t62.5 96t95 66t128.5 25h69q5 0 54 6q6 2 13 -1t7 -10v-61q0 -18 -9.5 -28.5t-26.5 -10.5h-106q-55 0 -97 -20t-68.5 -56.5t-42 -81
t-21.5 -100.5q73 65 173 65zM323 95q63 0 106.5 45t43.5 106q0 63 -43 108.5t-107 45.5t-107.5 -45.5t-43.5 -108.5q0 -61 43.5 -106t107.5 -45z" />
    <glyph glyph-name="uni0432" unicode="&#x432;" horiz-adv-x="568" 
d="M398 267q52 -13 84.5 -49t32.5 -82q0 -58 -51 -97t-128 -39h-269q-12 0 -12 12v471q0 12 12 12h249q79 0 125.5 -34t46.5 -87q0 -38 -25.5 -68t-64.5 -39zM164 293h135q36 0 58.5 18t22.5 41q0 22 -21.5 39t-61.5 17h-133v-115zM164 87h144q44 0 68 19t24 44
q0 26 -26.5 46t-67.5 20h-142v-129z" />
    <glyph glyph-name="uni0433" unicode="&#x433;" horiz-adv-x="511" 
d="M70 495h352q17 0 26.5 -10.5t9.5 -28.5v-61q0 -16 -20 -12q-35 6 -54 7h-222l1 -373q0 -7 -4.5 -12t-11.5 -5h-77q-16 0 -16 17v462q0 16 16 16z" />
    <glyph glyph-name="uni0434" unicode="&#x434;" horiz-adv-x="701" 
d="M586 105h62q17 0 17 -17v-156q0 -16 -17 -16h-77q-15 0 -15 16v68h-411v-68q0 -16 -14 -16h-78q-17 0 -17 16v156q0 17 17 17h69q39 66 51.5 157t12.5 212v1q0 20 20 20h360q20 0 20 -20v-370zM477 390h-183q0 -183 -61 -285h244v285z" />
    <glyph glyph-name="uni0435" unicode="&#x435;" horiz-adv-x="562" 
d="M151 207h313q61 0 61 60q0 96 -67.5 165.5t-173.5 69.5q-105 0 -176.5 -73t-71.5 -181q0 -111 73.5 -182t180.5 -71q132 0 202 94q7 10 -2 22l-19 25q-10 13 -26 3q-59 -48 -143 -48q-60 0 -101.5 32.5t-49.5 83.5zM411 292h-260q3 41 38.5 75.5t92.5 34.5t91.5 -34.5
t37.5 -75.5z" />
    <glyph glyph-name="uni0436" unicode="&#x436;" horiz-adv-x="920" 
d="M616 251l262 -222q9 -8 4.5 -18.5t-15.5 -10.5h-92q-8 0 -15 7l-246 221v-212q0 -16 -16 -16h-77q-16 0 -16 16v214l-249 -223q-6 -7 -15 -7h-88q-12 0 -16 10.5t5 18.5l262 222l-240 218q-8 7 -4 16.5t15 9.5h81q17 0 23 -7l226 -214v147q0 3 -6 54q-4 20 11 20h65
q18 0 28.5 -9.5t10.5 -26.5v-184l223 213q6 7 23 7h85q11 0 15 -9.5t-4 -16.5z" />
    <glyph glyph-name="uni0437" unicode="&#x437;" horiz-adv-x="489" 
d="M339 257q50 -14 77.5 -47t27.5 -73q0 -61 -59.5 -101.5t-141.5 -40.5q-61 0 -112 24.5t-83 68.5q-8 8 1 16l45 47q10 8 20 -3q18 -25 53 -41t77 -16q39 0 65.5 17.5t26.5 45.5q0 26 -29.5 45.5t-86.5 21.5v72q56 2 84 19t28 39q0 23 -26.5 40t-61.5 17q-40 0 -73.5 -16
t-52.5 -42q-8 -10 -20 -2l-44 47q-8 8 -2 16q32 44 82 68.5t109 24.5q80 0 138 -39t58 -95q0 -38 -25.5 -68.5t-74.5 -44.5z" />
    <glyph glyph-name="uni0438" unicode="&#x438;" horiz-adv-x="619" 
d="M499 495h43q12 0 12 -13v-470q0 -12 -13 -12l-83 1q-13 0 -13 11v310l-311 -313q-8 -9 -18 -9h-38q-13 0 -13 12v470q0 13 13 13h84q11 0 11 -13v-310l310 313q12 10 16 10z" />
    <glyph glyph-name="uni0439" unicode="&#x439;" horiz-adv-x="619" 
d="M123 772q8 -69 59.5 -114t124.5 -45q72 0 123.5 45t60.5 113q1 11 -4 18t-13 7h-42q-14 0 -17 -17q-9 -41 -41 -66t-67 -25q-39 0 -70 24t-40 68q-4 16 -16 16h-41q-20 0 -17 -24zM499 495h43q12 0 12 -13v-470q0 -12 -13 -12l-83 1q-13 0 -13 11v310l-311 -313
q-8 -9 -18 -9h-38q-13 0 -13 12v470q0 13 13 13h84q11 0 11 -13v-310l310 313q12 10 16 10z" />
    <glyph glyph-name="uni043A" unicode="&#x43a;" horiz-adv-x="567" 
d="M263 251l262 -222q9 -8 4.5 -18.5t-15.5 -10.5h-92q-8 0 -15 7l-246 221v-212q0 -16 -16 -16h-77q-16 0 -16 16v405q0 20 -6 54q-4 20 11 20h65q18 0 28.5 -9.5t10.5 -26.5v-184l223 213q6 7 23 7h85q11 0 15 -9.5t-4 -16.5z" />
    <glyph glyph-name="uni043B" unicode="&#x43b;" horiz-adv-x="603" 
d="M124 495h409q20 0 20 -20v-459q0 -16 -15 -16h-78q-16 0 -16 16v374h-231v-217q0 -79 -44.5 -127.5t-126.5 -49.5q-17 0 -17 15v72q0 15 15 17q64 1 64 76v299q0 20 20 20z" />
    <glyph glyph-name="uni043C" unicode="&#x43c;" horiz-adv-x="792" 
d="M625 495h90q12 0 12 -13v-468q0 -14 -11 -14h-83q-14 0 -14 14v310l-208 -311q-7 -10 -14 -10h-2q-8 0 -15 10l-206 305v-304q0 -14 -13 -14h-82q-14 0 -14 14v468q0 13 12 13h86q9 0 15 -10l218 -319l214 319q6 10 15 10z" />
    <glyph glyph-name="uni043D" unicode="&#x43d;" horiz-adv-x="619" 
d="M458 495h83q13 0 13 -13v-469q0 -13 -13 -13h-84q-12 0 -12 13v182h-272v-182q0 -13 -12 -13h-84q-12 0 -12 13v469q0 13 12 13h83q13 0 13 -13v-181h272v181q0 13 13 13z" />
    <glyph glyph-name="uni043E" unicode="&#x43e;" horiz-adv-x="590" 
d="M296 -7q106 0 181 73.5t75 180.5q0 108 -75 181.5t-181 73.5t-181 -73.5t-75 -181.5q0 -107 75 -180.5t181 -73.5zM296 95q-63 0 -106.5 45t-43.5 106q0 63 43 108.5t107 45.5t107 -45.5t43 -108.5q0 -61 -43.5 -106t-106.5 -45z" />
    <glyph glyph-name="uni043F" unicode="&#x43f;" horiz-adv-x="584" 
d="M524 479v-462q0 -17 -16 -17h-77q-16 0 -16 17v373h-246l1 -373q0 -7 -4.5 -12t-11.5 -5h-77q-17 0 -17 17v462q0 16 16 16h431q17 0 17 -16z" />
    <glyph glyph-name="uni0440" unicode="&#x440;" horiz-adv-x="595" 
d="M316 500q92 0 160.5 -69t68.5 -177q0 -112 -64 -186t-168 -74q-75 0 -135 43v-286q0 -20 -17 -32.5t-36 -12.5h-40q-16 0 -16 16v687q0 17 -8 65q-4 21 11 21h68q16 0 26.5 -9.5t11.5 -24.5q63 39 138 39zM296 95q62 0 102 43t40 116q0 71 -42 108t-96 37q-61 0 -122 -39
v-232q59 -33 118 -33z" />
    <glyph glyph-name="uni0441" unicode="&#x441;" horiz-adv-x="513" 
d="M431 138l38 -48q9 -13 -1 -23q-78 -74 -172 -74q-104 0 -180 73.5t-76 179.5t76 181t180 75q98 0 168 -70q10 -10 1 -23l-38 -48q-8 -11 -24 -1q-40 40 -104 40q-69 0 -111.5 -45.5t-42.5 -107.5t43 -107.5t112 -45.5q60 0 106 46q14 11 25 -2z" />
    <glyph glyph-name="uni0442" unicode="&#x442;" horiz-adv-x="551" 
d="M58 495h435q13 0 13 -12v-81q0 -12 -13 -12h-163v-377q0 -13 -12 -13h-83q-14 0 -14 13v377h-163q-13 0 -13 12v81q0 12 13 12z" />
    <glyph glyph-name="uni0443" unicode="&#x443;" horiz-adv-x="578" 
d="M453 495h85q9 0 12.5 -5.5t-0.5 -13.5l-198 -407q-130 -270 -233 -371q-13 -11 -30 6l-43 43q-15 13 1 32q118 134 191 298l-208 400q-4 7 -0.5 12.5t11.5 5.5h88q12 0 18 -11l147 -300l140 299q6 12 19 12z" />
    <glyph glyph-name="uni0444" unicode="&#x444;" horiz-adv-x="937" 
d="M658 499q92 0 160.5 -69t68.5 -177q0 -112 -64 -186t-168 -74q-75 0 -135 43v-285q0 -20 -17 -32.5t-36 -12.5h-40q-16 0 -16 16v312q-62 -41 -134 -41q-104 0 -168 74t-64 186q0 108 68.5 177t160.5 69q75 0 137 -38v223q0 18 -8 66q-4 21 11 21h68q17 0 27.5 -10
t10.5 -27v-274q63 39 138 39zM295 94q58 0 116 32v234q-59 38 -120 38q-55 0 -97 -37t-42 -108q0 -73 40 -116t103 -43zM638 94q62 0 102 43t40 116q0 71 -42 108t-96 37q-61 0 -122 -39v-232q59 -33 118 -33z" />
    <glyph glyph-name="uni0445" unicode="&#x445;" horiz-adv-x="561" 
d="M346 246l162 -221q5 -8 1 -16.5t-12 -8.5h-85q-9 0 -18 12l-114 163l-113 -163q-9 -12 -19 -12h-83q-8 0 -12 9t1 16l160 221l-161 224q-5 8 -1 16.5t13 8.5h83q12 0 19 -12l113 -165l114 165q9 12 19 12h85q8 0 11.5 -8.5t-1.5 -16.5z" />
    <glyph glyph-name="uni0446" unicode="&#x446;" horiz-adv-x="610" 
d="M578 -61q4 -20 -11 -20h-68q-18 0 -28.5 9.5t-10.5 25.5v46h-403q-16 0 -16 16l-1 462q0 7 4.5 12t11.5 5h76q17 0 17 -17v-373h243v373q0 17 16 17h76q17 0 17 -17v-373h54q17 0 17 -17v-95q1 -29 6 -54z" />
    <glyph glyph-name="uni0447" unicode="&#x447;" horiz-adv-x="604" 
d="M534 22q5 -21 -11 -21h-67q-37 0 -40 36v148q-79 -52 -159 -52q-81 0 -143 56.5t-62 143.5v86q0 23 -6 55q-4 21 12 21h67q18 0 28.5 -11t10.5 -29v-105q0 -48 37.5 -79t83.5 -32q62 0 131 61v179q0 16 17 16h78q17 0 17 -16v-402q0 -11 6 -55z" />
    <glyph glyph-name="uni0448" unicode="&#x448;" horiz-adv-x="912" 
d="M768 495h77q17 0 17 -17v-462q0 -16 -16 -16h-779q-16 0 -16 16l-1 462q0 7 4.5 12t11.5 5h77q17 0 17 -17v-373h242l-1 373q0 7 4.5 12t11.5 5h77q17 0 17 -17v-373h242l-1 373q0 17 16 17z" />
    <glyph glyph-name="uni0449" unicode="&#x449;" horiz-adv-x="981" 
d="M950 -61q4 -20 -11 -20h-69q-18 0 -28 9.5t-10 25.5v46h-755q-16 0 -16 16l-1 462q0 7 4.5 12t11.5 5h77q17 0 17 -17v-373h242l-1 373q0 7 4.5 12t11.5 5h77q17 0 17 -17v-373h242l-1 373q0 17 16 17h77q17 0 17 -17v-373h55q17 0 17 -17v-95q0 -22 6 -54z" />
    <glyph glyph-name="uni044A" unicode="&#x44a;" horiz-adv-x="703" 
d="M279 389h165q84 0 145.5 -56t61.5 -138q0 -84 -61.5 -139.5t-145.5 -55.5h-258q-17 0 -17 17v373h-80q-14 0 -54 -7q-20 -4 -20 12v61q0 18 9.5 28.5t26.5 10.5h211q15 0 17 -16v-90zM279 105h157q47 0 73.5 28t26.5 61.5t-26.5 61.5t-73.5 28h-157v-179z" />
    <glyph glyph-name="uni044B" unicode="&#x44b;" horiz-adv-x="836" 
d="M160 389h165q84 0 145.5 -56t61.5 -138q0 -84 -61.5 -139.5t-145.5 -55.5h-258q-17 0 -17 17v462q0 16 16 16h77q15 0 17 -16v-90zM663 495h76q7 0 12 -4.5t5 -11.5v-462q0 -7 -4.5 -12t-11.5 -5h-76q-17 0 -17 17v462q0 16 16 16zM160 105h157q47 0 73.5 28t26.5 61.5
t-26.5 61.5t-73.5 28h-157v-179z" />
    <glyph glyph-name="uni044C" unicode="&#x44c;" horiz-adv-x="595" 
d="M167 389h165q84 0 145.5 -56t61.5 -138q0 -84 -61.5 -139.5t-145.5 -55.5h-258q-17 0 -17 17v462q0 16 16 16h77q15 0 17 -16v-90zM167 105h157q47 0 73.5 28t26.5 61.5t-26.5 61.5t-73.5 28h-157v-179z" />
    <glyph glyph-name="uni044D" unicode="&#x44d;" horiz-adv-x="524" 
d="M223 502q104 0 180 -75t76 -181t-76 -179.5t-180 -73.5q-94 0 -172 74q-10 10 -1 23l38 48q11 13 25 2q46 -46 106 -46q56 0 95 30.5t53 77.5h-193q-7 0 -12 4.5t-5 11.5v56q0 17 17 17h194q-14 47 -53.5 78t-94.5 31q-64 0 -104 -40q-15 -10 -24 1l-38 48q-9 13 1 23
q70 70 168 70z" />
    <glyph glyph-name="uni044E" unicode="&#x44e;" horiz-adv-x="848" 
d="M538 502q106 0 181 -73.5t75 -181.5q0 -107 -75 -180.5t-181 -73.5q-91 0 -161.5 56.5t-89.5 144.5h-98v-178q0 -17 -15 -17h-56q-18 0 -28 11t-10 29v439q0 16 16 16h77q16 0 16 -16v-178h98q18 89 88.5 145.5t162.5 56.5zM538 95q63 0 106.5 45t43.5 106
q0 63 -43 108.5t-107 45.5t-107 -45.5t-43 -108.5q0 -61 43.5 -106t106.5 -45z" />
    <glyph glyph-name="uni044F" unicode="&#x44f;" horiz-adv-x="562" 
d="M248 495h258q16 0 16 -17v-462q0 -16 -16 -16h-76q-17 0 -17 16v90h-157l-79 -91q-11 -15 -19 -15h-93q-7 0 -10 5t1 10l99 112q-52 24 -83.5 69.5t-31.5 103.5q0 84 61.5 139.5t146.5 55.5zM255 211h158v179h-158q-47 0 -73.5 -28t-26.5 -61.5t26.5 -61.5t73.5 -28z" />
    <glyph glyph-name="uni0451" unicode="&#x451;" horiz-adv-x="562" 
d="M149 677q-25 0 -42.5 17.5t-17.5 42.5t17.5 43t42.5 18q26 0 43.5 -17.5t17.5 -43.5q0 -25 -17.5 -42.5t-43.5 -17.5zM422 677q-25 0 -43 17.5t-18 42.5t18 43t43 18t42.5 -18t17.5 -43t-17.5 -42.5t-42.5 -17.5zM151 207h313q61 0 61 60q0 96 -67.5 165.5t-173.5 69.5
q-105 0 -176.5 -73t-71.5 -181q0 -111 73.5 -182t180.5 -71q132 0 202 94q7 10 -2 22l-19 25q-10 13 -26 3q-59 -48 -143 -48q-60 0 -101.5 32.5t-49.5 83.5zM411 292h-260q3 41 38.5 75.5t92.5 34.5t91.5 -34.5t37.5 -75.5z" />
    <glyph glyph-name="uni0453" unicode="&#x453;" horiz-adv-x="511" 
d="M144 611l-20 35q-8 12 4 19l200 136q16 13 24 -2l30 -49q10 -16 -6 -24l-210 -120q-16 -8 -22 5zM70 495h352q17 0 26.5 -10.5t9.5 -28.5v-61q0 -16 -20 -12q-35 6 -54 7h-222l1 -373q0 -7 -4.5 -12t-11.5 -5h-77q-16 0 -16 17v462q0 16 16 16z" />
    <glyph glyph-name="uni0454" unicode="&#x454;" horiz-adv-x="524" 
d="M436 138l38 -48q9 -13 -1 -23q-78 -74 -172 -74q-104 0 -180 73.5t-76 179.5t76 181t180 75q98 0 168 -70q10 -10 1 -23l-38 -48q-8 -11 -24 -1q-40 40 -104 40q-55 0 -94.5 -31t-53.5 -78h194q17 0 17 -17v-56q0 -7 -5 -11.5t-12 -4.5h-193q14 -47 53 -77.5t95 -30.5
q60 0 106 46q14 11 25 -2z" />
    <glyph glyph-name="uni0456" unicode="&#x456;" horiz-adv-x="260" 
d="M130 679q-25 0 -42.5 17.5t-17.5 42.5t17.5 42.5t42.5 17.5t42.5 -17.5t17.5 -42.5t-17.5 -42.5t-42.5 -17.5zM169 495h-77q-16 0 -16 -16v-439q0 -18 10 -29t28 -11h56q15 0 15 17v462q0 16 -16 16z" />
    <glyph glyph-name="uni0457" unicode="&#x457;" horiz-adv-x="353" 
d="M40 677q-25 0 -42.5 18t-17.5 43t17.5 43t42.5 18q26 0 43.5 -18t17.5 -43t-17.5 -43t-43.5 -18zM312 677q-24 0 -42.5 18t-18.5 43t18.5 43t42.5 18q25 0 43 -18t18 -43t-18 -43t-43 -18zM215 495h-76q-17 0 -17 -16v-439q0 -18 10.5 -29t28.5 -11h55q15 0 15 17v462
q0 16 -16 16z" />
    <glyph glyph-name="uni0458" unicode="&#x458;" horiz-adv-x="251" 
d="M122 679q-26 0 -43 17.5t-17 42.5t17.5 42.5t42.5 17.5t42 -17.5t17 -42.5t-17 -42.5t-42 -17.5zM162 495h-76q-16 0 -16 -16v-579q0 -63 -54 -89q-15 -7 -9 -21l38 -74q7 -12 22 -6q112 55 112 190v579q0 16 -17 16z" />
    <glyph glyph-name="uni045C" unicode="&#x45c;" horiz-adv-x="567" 
d="M163 611l-20 35q-8 12 4 19l200 136q16 13 24 -2l30 -49q10 -16 -6 -24l-210 -120q-16 -8 -22 5zM263 251l262 -222q9 -8 4.5 -18.5t-15.5 -10.5h-92q-8 0 -15 7l-246 221v-212q0 -16 -16 -16h-77q-16 0 -16 16v405q0 20 -6 54q-4 20 11 20h65q18 0 28.5 -9.5t10.5 -26.5
v-184l223 213q6 7 23 7h85q11 0 15 -9.5t-4 -16.5z" />
    <glyph glyph-name="uni045D" unicode="&#x45d;" horiz-adv-x="619" 
d="M184 726l210 -120q16 -8 22 5l20 35q8 12 -4 19l-200 136q-16 12 -25 -2l-29 -49q-10 -16 6 -24zM499 495h43q12 0 12 -13v-470q0 -12 -13 -12l-83 1q-13 0 -13 11v310l-311 -313q-8 -9 -18 -9h-38q-13 0 -13 12v470q0 13 13 13h84q11 0 11 -13v-310l310 313q12 10 16 10
z" />
    <glyph glyph-name="uni045E" unicode="&#x45e;" horiz-adv-x="578" 
d="M115 777q8 -69 59.5 -114t124.5 -45q72 0 123.5 45t60.5 113q1 11 -4 18t-13 7h-42q-14 0 -17 -17q-9 -41 -41 -66t-67 -25q-39 0 -70 24t-40 68q-4 16 -16 16h-41q-20 0 -17 -24zM453 495h85q9 0 12.5 -5.5t-0.5 -13.5l-198 -407q-130 -270 -233 -371q-13 -11 -30 6
l-43 43q-15 13 1 32q118 134 191 298l-208 400q-4 7 -0.5 12.5t11.5 5.5h88q12 0 18 -11l147 -300l140 299q6 12 19 12z" />
    <glyph glyph-name="uni0490" unicode="&#x490;" horiz-adv-x="661" 
d="M526 881h69q15 0 11 -20q-6 -32 -6 -54v-99q0 -17 -17 -17h-415v-674q0 -17 -16 -17h-80q-17 0 -17 17v767q0 16 15 16h418v46q0 16 10 25.5t28 9.5z" />
    <glyph glyph-name="uni0491" unicode="&#x491;" horiz-adv-x="520" 
d="M384 576h69q15 0 11 -20q-6 -32 -6 -54v-95q0 -17 -17 -17h-279l1 -373q0 -7 -4.5 -12t-11.5 -5h-77q-16 0 -16 17v462q0 16 16 16h276v46q0 16 10 25.5t28 9.5z" />
    <glyph glyph-name="uni04C0" unicode="&#x4c0;" horiz-adv-x="269" 
d="M173 800h-77q-16 0 -16 -16v-767q0 -17 17 -17h77q15 0 15 17v767q0 16 -16 16z" />
    <glyph glyph-name="uni04E2" unicode="&#x4e2;" horiz-adv-x="840" 
d="M200 933v57q0 12 13 12l405 1q14 0 14 -13v-57q0 -13 -14 -13h-405q-13 0 -13 13zM91 800h81q15 0 15 -15v-572l492 574q12 13 23 13h48q6 0 10.5 -4.5t4.5 -11.5v-767q0 -17 -16 -17l-80 1q-16 0 -16 16v562l-464 -533q-42 -46 -71 -46h-27q-16 0 -16 15v770
q0 6 4.5 10.5t11.5 4.5z" />
    <glyph glyph-name="uni04E3" unicode="&#x4e3;" horiz-adv-x="619" 
d="M90 688v57q0 12 13 12l405 1q14 0 14 -13v-57q0 -13 -14 -13h-405q-13 0 -13 13zM499 495h43q12 0 12 -13v-470q0 -12 -13 -12l-83 1q-13 0 -13 11v310l-311 -313q-8 -9 -18 -9h-38q-13 0 -13 12v470q0 13 13 13h84q11 0 11 -13v-310l310 313q12 10 16 10z" />
    <glyph glyph-name="uni04EC" unicode="&#x4ec;" 
d="M226 947q-25 0 -42 18t-17 43t17 43t42 18q26 0 44 -18t18 -43t-18 -43t-44 -18zM499 947q-25 0 -43 18t-18 43t18 43t43 18t42.5 -18t17.5 -43t-17.5 -43t-42.5 -18zM349 807q167 0 286.5 -119.5t119.5 -289.5q0 -169 -119.5 -287t-286.5 -118q-175 0 -294 125
q-14 14 -2 25l64 52q12 9 24 -4q87 -89 205 -89q114 0 194 70.5t98 173.5h-356q-7 0 -12 4.5t-5 11.5v76q0 17 17 17h355q-20 102 -99.5 172.5t-191.5 70.5q-62 0 -116.5 -27t-90.5 -65q-12 -12 -24 -1l-64 52q-13 10 1 24q120 126 297 126z" />
    <glyph glyph-name="uni04ED" unicode="&#x4ed;" horiz-adv-x="524" 
d="M125 719q-24 0 -41.5 18t-17.5 43t17.5 43t41.5 18q27 0 44.5 -18t17.5 -43t-17.5 -43t-44.5 -18zM398 719q-25 0 -43 18t-18 43t18 43t43 18t43 -18t18 -43t-18 -43t-43 -18zM223 502q104 0 180 -75t76 -181t-76 -179.5t-180 -73.5q-95 0 -171 74q-11 10 -1 23l37 48
q11 13 25 2q46 -46 106 -46q56 0 95 30.5t53 77.5h-192q-17 0 -17 16v56q0 17 17 17h193q-14 47 -53.5 78t-94.5 31q-62 0 -104 -40q-15 -11 -24 1l-38 48q-9 13 1 23q70 70 168 70z" />
    <glyph glyph-name="uni04EE" unicode="&#x4ee;" horiz-adv-x="674" 
d="M121 933v57q0 12 13 12l405 1q14 0 14 -13v-57q0 -13 -14 -13h-405q-13 0 -13 13zM558 800h87q9 0 12.5 -5.5t-0.5 -13.5l-257 -494q-88 -168 -223 -300q-12 -12 -26 4l-44 51q-13 15 2 30q107 109 167 209l-259 500q-4 8 -0.5 13.5t11.5 5.5h89q11 0 18 -12l202 -393
l202 392q8 13 19 13z" />
    <glyph glyph-name="uni04EF" unicode="&#x4ef;" horiz-adv-x="578" 
d="M83 693v57q0 12 13 12l405 1q14 0 14 -13v-57q0 -13 -14 -13h-405q-13 0 -13 13zM453 495h85q9 0 12.5 -5.5t-0.5 -13.5l-198 -407q-130 -270 -233 -371q-13 -11 -30 6l-43 43q-15 13 1 32q118 134 191 298l-208 400q-4 7 -0.5 12.5t11.5 5.5h88q12 0 18 -11l147 -300
l140 299q6 12 19 12z" />
    <glyph glyph-name="Macute" unicode="&#x1e3e;" horiz-adv-x="1067" 
d="M440 868l210 120q16 8 6 24l-30 49q-8 15 -24 2l-200 -136q-12 -7 -4 -19l20 -35q6 -13 22 -5zM909 800h67q16 0 16 -17v-766q0 -17 -16 -17h-79q-17 0 -17 17v551l-326 -533q-8 -12 -18 -12h-5q-11 0 -18 12l-325 533v-551q0 -7 -5 -12t-12 -5h-79q-17 0 -17 17v767
q0 16 16 16h68q13 0 20 -11l355 -580l355 580q5 11 20 11z" />
    <glyph glyph-name="macute" unicode="&#x1e3f;" horiz-adv-x="961" 
d="M394 616l-20 35q-8 12 4 19l200 136q16 13 24 -2l30 -49q10 -16 -6 -24l-210 -120q-16 -8 -22 5zM910 21q2 -8 -0.5 -14.5t-9.5 -6.5h-65q-18 0 -28.5 11t-10.5 29v261q0 48 -31 75.5t-81 27.5q-74 0 -146 -74l1 -19v-221q1 -38 6 -69q4 -21 -10 -21h-65q-39 0 -39 40
v261q0 48 -31 75.5t-81 27.5q-74 0 -145 -73v-315q0 -16 -16 -16h-78q-15 0 -15 16v463q0 16 15 16h54q17 0 28 -14t12 -29v-10q77 59 159 59q53 0 100.5 -22t75.5 -63q94 85 190 85q83 0 144.5 -50.5t61.5 -139.5v-221q0 -19 5 -69z" />
    <glyph glyph-name="Wgrave" unicode="&#x1e80;" horiz-adv-x="1138" 
d="M657 869l-210 120q-16 8 -6 24l29 49q9 14 25 2l200 -136q12 -7 4 -19l-20 -35q-6 -13 -22 -5zM996 801h102q8 0 12.5 -6t0.5 -15l-375 -771q-6 -13 -18 -13h-8q-12 0 -19 13l-122 256l-122 -257q-7 -13 -19 -13h-8q-12 0 -18 13l-375 772q-4 8 0.5 14t12.5 6h102
q9 0 18 -18l264 -565l82 180l-182 384q-4 8 0.5 14t12.5 6h101q11 0 18 -18l113 -248l113 247q7 18 18 18h101q8 0 12.5 -6t0.5 -15l-182 -382l82 -180l264 566q9 18 18 18z" />
    <glyph glyph-name="wgrave" unicode="&#x1e81;" horiz-adv-x="812" 
d="M495 611l-210 120q-16 8 -6 24l29 49q9 14 25 2l200 -136q12 -7 4 -19l-20 -35q-6 -13 -22 -5zM690 495h83q20 0 12 -18l-187 -466q-4 -11 -16 -11h-12q-11 0 -18 11l-146 302l-146 -302q-6 -11 -17 -11h-13q-10 0 -16 11l-187 466q-7 18 12 18h83q12 0 18 -11l112 -305
l127 300q5 11 19 11h17q13 0 18 -11l128 -300l111 305q6 11 18 11z" />
    <glyph glyph-name="Wacute" unicode="&#x1e82;" horiz-adv-x="1138" 
d="M456 874l-20 35q-8 12 4 19l200 136q16 13 24 -2l30 -49q10 -16 -6 -24l-210 -120q-16 -8 -22 5zM996 801h102q8 0 12.5 -6t0.5 -15l-375 -771q-6 -13 -18 -13h-8q-12 0 -19 13l-122 256l-122 -257q-7 -13 -19 -13h-8q-12 0 -18 13l-375 772q-4 8 0.5 14t12.5 6h102
q9 0 18 -18l264 -565l82 180l-182 384q-4 8 0.5 14t12.5 6h101q11 0 18 -18l113 -248l113 247q7 18 18 18h101q8 0 12.5 -6t0.5 -15l-182 -382l82 -180l264 566q9 18 18 18z" />
    <glyph glyph-name="wacute" unicode="&#x1e83;" horiz-adv-x="812" 
d="M294 616l-20 35q-8 12 4 19l200 136q16 13 24 -2l30 -49q10 -16 -6 -24l-210 -120q-16 -8 -22 5zM690 495h83q20 0 12 -18l-187 -466q-4 -11 -16 -11h-12q-11 0 -18 11l-146 302l-146 -302q-6 -11 -17 -11h-13q-10 0 -16 11l-187 466q-7 18 12 18h83q12 0 18 -11
l112 -305l127 300q5 11 19 11h17q13 0 18 -11l128 -300l111 305q6 11 18 11z" />
    <glyph glyph-name="Wdieresis" unicode="&#x1e84;" horiz-adv-x="1138" 
d="M432 935q-25 0 -42.5 18t-17.5 43t17.5 43t42.5 18q26 0 43.5 -18t17.5 -43t-17.5 -43t-43.5 -18zM705 935q-25 0 -43 18t-18 43t18 43t43 18t42.5 -18t17.5 -43t-17.5 -43t-42.5 -18zM996 801h102q8 0 12.5 -6t0.5 -15l-375 -771q-6 -13 -18 -13h-8q-12 0 -19 13
l-122 256l-122 -257q-7 -13 -19 -13h-8q-12 0 -18 13l-375 772q-4 8 0.5 14t12.5 6h102q9 0 18 -18l264 -565l82 180l-182 384q-4 8 0.5 14t12.5 6h101q11 0 18 -18l113 -248l113 247q7 18 18 18h101q8 0 12.5 -6t0.5 -15l-182 -382l82 -180l264 566q9 18 18 18z" />
    <glyph glyph-name="wdieresis" unicode="&#x1e85;" horiz-adv-x="812" 
d="M270 677q-25 0 -42.5 18t-17.5 43t17.5 43t42.5 18q26 0 43.5 -18t17.5 -43t-17.5 -43t-43.5 -18zM543 677q-25 0 -43 18t-18 43t18 43t43 18t42.5 -18t17.5 -43t-17.5 -43t-42.5 -18zM690 495h83q20 0 12 -18l-187 -466q-4 -11 -16 -11h-12q-11 0 -18 11l-146 302
l-146 -302q-6 -11 -17 -11h-13q-10 0 -16 11l-187 466q-7 18 12 18h83q12 0 18 -11l112 -305l127 300q5 11 19 11h17q13 0 18 -11l128 -300l111 305q6 11 18 11z" />
    <glyph glyph-name="Ygrave" unicode="&#x1ef2;" horiz-adv-x="760" 
d="M261 989l210 -120q16 -8 22 5l20 35q8 12 -4 19l-200 136q-16 12 -25 -2l-29 -49q-10 -16 6 -24zM632 800h102q6 0 9 -5.5t-1 -12.5l-306 -456v-309q0 -17 -16 -17h-58q-18 0 -28.5 11t-10.5 29v286l-306 456q-4 7 -1 12.5t10 5.5h101q8 0 17 -15l235 -346l235 346
q11 15 18 15z" />
    <glyph glyph-name="ygrave" unicode="&#x1ef3;" horiz-adv-x="578" 
d="M176 731l210 -120q16 -8 22 5l20 35q8 12 -4 19l-200 136q-16 12 -25 -2l-29 -49q-10 -16 6 -24zM453 495h85q9 0 12.5 -5.5t-0.5 -13.5l-198 -407q-130 -270 -233 -371q-13 -11 -30 6l-43 43q-15 13 1 32q118 134 191 298l-208 400q-4 7 -0.5 12.5t11.5 5.5h88
q12 0 18 -11l147 -300l140 299q6 12 19 12z" />
    <glyph glyph-name="endash" unicode="&#x2013;" horiz-adv-x="701" 
d="M621 331v-39q0 -17 -16 -17h-508q-17 0 -17 16v39q0 17 17 17h508q16 0 16 -16z" />
    <glyph glyph-name="emdash" unicode="&#x2014;" horiz-adv-x="932" 
d="M872 331v-39q0 -17 -16 -17h-779q-17 0 -17 16v39q0 17 17 17h779q16 0 16 -16z" />
    <glyph glyph-name="quoteleft" unicode="&#x2018;" horiz-adv-x="206" 
d="M108 652q28 0 47 -19t19 -48t-18.5 -48t-47.5 -19q-48 0 -64 40q-11 16 -12 32q-8 55 8 118q20 71 80 116q10 7 17 1l15 -17q5 -5 0 -11q-64 -62 -62 -130l1 -17q10 2 17 2z" />
    <glyph glyph-name="quoteright" unicode="&#x2019;" horiz-adv-x="183" 
d="M151 745q8 -55 -8 -118q-19 -71 -80 -116q-11 -7 -17 -1l-15 17q-5 5 -1 11q65 59 62 130l-1 17q-10 -2 -16 -2q-28 0 -47 18.5t-19 47.5q0 30 18.5 49t47.5 19q48 0 65 -41q9 -13 11 -31z" />
    <glyph glyph-name="quotesinglbase" unicode="&#x201a;" horiz-adv-x="485" 
d="M195 77q11 -16 12 -32q8 -56 -8 -119q-19 -70 -80 -115q-10 -8 -17 -1l-14 17q-6 5 -1 10q64 60 62 131l-1 16q-10 -2 -17 -2q-27 0 -46.5 19t-19.5 48q0 30 18.5 48.5t47.5 18.5q47 0 64 -39zM421 45q8 -56 -8 -119q-19 -71 -79 -115q-10 -7 -18 -1l-14 17q-6 5 -1 10
q65 61 62 131l-1 16q-10 -2 -16 -2q-27 0 -46.5 19t-19.5 48q0 30 18.5 48.5t47.5 18.5q48 0 64 -40q10 -14 11 -31z" />
    <glyph glyph-name="quotedblleft" unicode="&#x201c;" horiz-adv-x="428" 
d="M112 643q28 0 47.5 -19t19.5 -48q0 -30 -18.5 -48.5t-48.5 -18.5q-48 0 -64 40q-9 13 -11 31q-8 56 8 119q19 69 79 115q11 8 18 1l14 -17q6 -5 1 -10q-64 -60 -62 -131l1 -16q10 2 16 2zM327 643q27 0 46.5 -19t19.5 -48q0 -30 -18.5 -48.5t-47.5 -18.5q-47 0 -65 40
q-9 16 -10 31q-8 56 8 119q19 71 79 115q10 7 18 1l14 -17q6 -5 1 -10q-65 -61 -62 -131l1 -16q10 2 16 2z" />
    <glyph glyph-name="quotedblright" unicode="&#x201d;" horiz-adv-x="428" 
d="M167 776q9 -13 11 -31q8 -55 -8 -118q-19 -71 -80 -116q-11 -7 -17 -1l-15 17q-5 5 0 11q64 60 61 130v17q-12 -2 -17 -2q-28 0 -47 18.5t-19 47.5q0 30 18.5 49t47.5 19q48 0 65 -41zM392 745q8 -55 -8 -118q-19 -72 -79 -116q-11 -7 -18 -1l-14 17q-5 5 -1 11
q64 58 62 130l-1 17q-10 -2 -16 -2q-28 0 -47.5 18.5t-19.5 47.5q0 30 19 49t48 19q48 0 64 -41q10 -14 11 -31z" />
    <glyph glyph-name="quotedblbase" unicode="&#x201e;" horiz-adv-x="490" 
d="M195 77q11 -16 12 -32q8 -56 -8 -119q-19 -70 -80 -115q-10 -8 -17 -1l-14 17q-6 5 -1 10q64 60 62 131l-1 16q-10 -2 -17 -2q-27 0 -46.5 19t-19.5 48q0 30 18.5 48.5t47.5 18.5q47 0 64 -39zM421 45q8 -56 -8 -119q-19 -71 -79 -115q-10 -7 -18 -1l-14 17q-6 5 -1 10
q65 61 62 131l-1 16q-10 -2 -16 -2q-27 0 -46.5 19t-19.5 48q0 30 18.5 48.5t47.5 18.5q48 0 64 -40q10 -14 11 -31z" />
    <glyph glyph-name="dagger" unicode="&#x2020;" horiz-adv-x="514" 
d="M309 482h149q16 0 16 -16v-76q0 -16 -16 -16h-150l-4 -559q0 -15 -15 -15h-71q-15 0 -15 15v559h-147q-16 0 -16 16v76q0 16 16 16h147v303q0 15 15 15h78q15 0 15 -15z" />
    <glyph glyph-name="daggerdbl" unicode="&#x2021;" horiz-adv-x="514" 
d="M458 375h-150l-1 -89h151q16 0 16 -16v-76q0 -16 -16 -16h-151l-3 -363q0 -15 -15 -15h-71q-15 0 -15 15v363h-147q-16 0 -16 16v76q0 16 16 16h147v89h-147q-16 0 -16 16v76q0 16 16 16h147v302q0 15 15 15h78q15 0 15 -15l-2 -302h149q16 0 16 -16v-76q0 -16 -16 -16z
" />
    <glyph glyph-name="bullet" unicode="&#x2022;" horiz-adv-x="325" 
d="M164 137q-46 0 -80 33.5t-34 79.5q0 45 34 79t80 34q45 0 78 -34t33 -79q0 -47 -32.5 -80t-78.5 -33z" />
    <glyph glyph-name="ellipsis" unicode="&#x2026;" horiz-adv-x="744" 
d="M115 -5q-27 0 -46 19t-19 45q0 27 19 46.5t46 19.5t45.5 -19.5t18.5 -46.5q0 -26 -18.5 -45t-45.5 -19zM374 -5q-27 0 -46 19t-19 45q0 27 19 46.5t46 19.5t45.5 -19.5t18.5 -46.5q0 -26 -18.5 -45t-45.5 -19zM630 -5q-27 0 -46 19t-19 45q0 27 19 46.5t46 19.5
t45.5 -19.5t18.5 -46.5q0 -26 -18.5 -45t-45.5 -19z" />
    <glyph glyph-name="perthousand" unicode="&#x2030;" horiz-adv-x="855" 
d="M42 21l413 751q7 13 20 13h62q9 0 12.5 -5.5t-0.5 -13.5l-413 -751q-8 -14 -20 -14h-62q-9 0 -12.5 6t0.5 14zM106 609q-34 0 -58.5 24.5t-24.5 58.5t24.5 58t58.5 24t58.5 -24t24.5 -58t-24.5 -58.5t-58.5 -24.5zM484 10q-34 0 -58.5 24.5t-24.5 58.5t24.5 58.5
t58.5 24.5t58.5 -24.5t24.5 -58.5q0 -35 -24.5 -59t-58.5 -24zM750 10q-34 0 -58.5 24t-24.5 59q0 34 24.5 58.5t58.5 24.5t58 -24.5t24 -58.5t-24 -58.5t-58 -24.5z" />
    <glyph glyph-name="guilsinglleft" unicode="&#x2039;" horiz-adv-x="341" 
d="M54 215l140 -197q4 -9 14 -9h63q12 0 15.5 8t-2.5 20l-114 194l117 186q6 12 2 20.5t-15 8.5h-57q-11 0 -18 -11l-145 -191q-9 -16 0 -29z" />
    <glyph glyph-name="guilsinglright" unicode="&#x203a;" horiz-adv-x="341" 
d="M147 18l140 197q10 15 0 29l-144 191q-9 11 -18 11h-57q-11 0 -15.5 -8.5t2.5 -20.5l116 -186l-114 -194q-12 -28 13 -28h63q9 0 14 9z" />
    <glyph glyph-name="fraction" unicode="&#x2044;" horiz-adv-x="219" 
d="M-129 20l407 767q7 13 20 13h36q23 0 13 -20l-407 -767q-7 -13 -19 -13h-37q-23 0 -13 20z" />
    <glyph glyph-name="Euro" unicode="&#x20ac;" horiz-adv-x="802" 
d="M703 183l53 -55q12 -12 -2 -25q-119 -111 -281 -111q-132 0 -237.5 75t-149.5 194h-60q-16 0 -16 15v68q0 7 4.5 12t11.5 5h37q-2 28 -2 42t2 42h-37q-16 0 -16 15v68q0 7 4.5 12t11.5 5h60q44 120 149.5 195t237.5 75q162 0 282 -112q13 -13 2 -25l-53 -55
q-12 -11 -24 1q-85 79 -196 79q-89 0 -159 -43.5t-109 -114.5h248q16 0 16 -16v-68q0 -16 -16 -16h-281q-3 -21 -3 -41q0 -22 3 -43h281q16 0 16 -16v-68q0 -16 -16 -16h-247q38 -71 108 -114.5t160 -43.5q107 0 193 78q14 13 25 2z" />
    <glyph glyph-name="trademark" unicode="&#x2122;" horiz-adv-x="654" 
d="M42 800h200q13 0 13 -12v-29q0 -13 -13 -13h-73v-234q0 -13 -12 -13h-29q-13 0 -13 13v234h-73q-12 0 -12 13v29q0 12 12 12zM579 800h34q11 0 11 -12v-276q0 -13 -12 -13h-29q-12 0 -12 13v170l-100 -172q-5 -9 -13 -9h-2q-8 0 -13 9l-96 172v-170q0 -13 -13 -13h-28
q-13 0 -13 13v276q0 12 12 12h31q10 0 13 -7l108 -197l109 197q3 7 13 7z" />
    <glyph glyph-name="oneeighth" unicode="&#x215b;" horiz-adv-x="749" 
d="M129 460v221l-66 -11q-12 -2 -12 8l-1 34q0 9 8 12q41 13 76 67l1 4q4 5 10 5h46q11 0 11 -10v-330q0 -11 -11 -11h-50q-12 0 -12 11zM547 800h37q23 0 13 -20l-407 -767q-7 -13 -20 -13h-36q-23 0 -13 20l407 767q7 13 19 13zM634 183l-2 -2q24 -8 45.5 -31t21.5 -58
q0 -43 -32 -71t-88 -28q-55 0 -86.5 28t-31.5 71q0 35 22.5 59.5t43.5 29.5l-2 2q-57 24 -57 82q0 44 31 70.5t80 26.5q50 0 81.5 -26.5t31.5 -70.5q0 -55 -58 -82zM579 309q-23 0 -37.5 -12.5t-14.5 -33.5q0 -20 15 -34t37 -14t37.5 14.5t15.5 33.5q0 22 -14.5 34t-38.5 12
zM580 43q26 0 42.5 13t16.5 38q0 22 -16 38.5t-43 16.5q-28 0 -43.5 -16.5t-15.5 -38.5q0 -25 16.5 -38t42.5 -13z" />
    <glyph glyph-name="threeeighths" unicode="&#x215c;" horiz-adv-x="742" 
d="M261 482q-42 -49 -107.5 -45t-110.5 62q-5 5 0 11l29 30q5 5 10 -1q25 -31 59 -41t65 14q14 14 15.5 34t-9 35t-29.5 22.5t-46 -3.5q-3 -5 -9 1l-25 30q-4 6 0 10l88 98h-131q-7 0 -7 7v45q0 9 7 9h206q8 0 8 -9v-45q0 -3 -2 -5l-82 -86q59 -5 83.5 -66.5t-12.5 -106.5z
M551 800h37q22 0 12 -20l-407 -767q-7 -13 -19 -13h-37q-22 0 -12 20l407 767q6 13 19 13zM638 183l-2 -2q24 -8 45 -30.5t21 -58.5q0 -43 -32 -71t-88 -28q-55 0 -86.5 28t-31.5 71q0 35 22.5 59.5t43.5 29.5l-1 2q-58 24 -58 82q0 44 31.5 70.5t79.5 26.5q50 0 81.5 -26.5
t31.5 -70.5q0 -56 -57 -82zM583 309q-24 0 -38.5 -12.5t-14.5 -33.5q0 -20 15.5 -34t37.5 -14t37 14.5t15 33.5q0 21 -14 33.5t-38 12.5zM584 43q26 0 42 13t16 38q0 22 -15.5 38.5t-42.5 16.5q-28 0 -44 -16.5t-16 -38.5q0 -24 17 -37.5t43 -13.5z" />
    <glyph glyph-name="fiveeighths" unicode="&#x215d;" horiz-adv-x="750" 
d="M255 480q-42 -48 -106 -43.5t-106 58.5q-4 6 1 11l29 30q7 5 11 -2q19 -29 54 -38.5t62 12.5q23 22 16 52t-33.5 40t-62.5 -11h-1h-3l-10 1l-39 4q-7 0 -7 10l-2 141v1v46q0 8 8 8h186q8 0 8 -7v-46q0 -7 -8 -7h-133v-93q50 21 86 7t56 -43t19 -66.5t-25 -64.5zM559 800
h37q22 0 12 -20l-407 -767q-7 -13 -19 -13h-37q-10 0 -13.5 5.5t0.5 14.5l407 767q7 13 20 13zM645 183l-2 -2q24 -8 45.5 -31t21.5 -58q0 -43 -32 -71t-88 -28q-55 0 -86.5 28t-31.5 71q0 35 22.5 59.5t43.5 29.5l-2 2q-57 25 -57 82q0 44 31.5 70.5t79.5 26.5
q50 0 81.5 -26.5t31.5 -70.5q0 -55 -58 -82zM591 309q-24 0 -38.5 -12.5t-14.5 -33.5q0 -20 15.5 -34t37.5 -14t37 14.5t15 33.5q0 21 -14 33.5t-38 12.5zM591 43q27 0 43 13t16 38q0 22 -15.5 38.5t-43.5 16.5t-43.5 -16.5t-15.5 -38.5q0 -24 17 -37.5t42 -13.5z" />
    <glyph glyph-name="seveneighths" unicode="&#x215e;" horiz-adv-x="708" 
d="M271 770l-161 -317q-2 -4 -9 -4h-51q-4 0 -5 3.5t1 5.5l141 280h-139q-8 0 -8 8v46q0 8 7 8h220q6 0 6 -8v-13q0 -5 -1 -7zM516 800h37q23 0 13 -20l-407 -767q-7 -13 -20 -13h-36q-23 0 -13 20l407 767q7 13 19 13zM603 183l-2 -2q24 -8 45.5 -31t21.5 -58
q0 -43 -32 -71t-88 -28q-55 0 -86.5 28t-31.5 71q0 35 22.5 59.5t43.5 29.5l-2 2q-57 24 -57 82q0 44 31 70.5t80 26.5q50 0 81.5 -26.5t31.5 -70.5q0 -55 -58 -82zM548 309q-23 0 -37.5 -12.5t-14.5 -33.5q0 -20 15 -34t37 -14t37 14.5t15 33.5q0 22 -14 34t-38 12zM549 43
q27 0 43 13t16 38q0 22 -16 38.5t-43 16.5q-28 0 -44 -16.5t-16 -38.5q0 -24 17 -37.5t43 -13.5z" />
    <glyph glyph-name="partialdiff" unicode="&#x2202;" horiz-adv-x="599" 
d="M469 634q94 -120 90 -311q0 -94 -23 -158q-24 -79 -90.5 -130t-150.5 -51q-106 0 -180.5 74.5t-74.5 178.5t73.5 174.5t178.5 70.5q83 0 158 -58q-16 109 -87 180t-173 71q-18 0 -16 16l8 74q0 15 16 15q88 -3 158.5 -47t112.5 -99zM446 231q3 59 -43 105t-108 46
q-58 0 -101.5 -43.5t-43.5 -103.5t45 -104t103 -44q60 0 103 42.5t45 101.5z" />
    <glyph glyph-name="emptyset" unicode="&#x2205;" horiz-adv-x="942" 
d="M838 828l58 -58q12 -12 0 -23l-95 -95q83 -110 83 -249q0 -171 -120.5 -291.5t-291.5 -120.5q-138 0 -248 83l-97 -97q-11 -11 -23 0l-58 58q-11 12 0 23l97 97q-83 110 -83 248q0 171 120.5 291.5t291.5 120.5q138 0 248 -83l95 95q10 12 23 1zM174 403q0 -91 51 -166
l414 414q-77 51 -166 51q-124 0 -211.5 -88t-87.5 -211zM771 403q0 91 -52 167l-414 -414q76 -52 168 -52q123 0 210.5 87.5t87.5 211.5z" />
    <glyph glyph-name="product" unicode="&#x220f;" horiz-adv-x="769" 
d="M723 785l1 -769q0 -7 -4.5 -11.5t-10.5 -4.5h-80q-16 0 -16 16l1 674h-459l1 -674q0 -7 -4.5 -11.5t-10.5 -4.5h-79q-16 0 -16 16v769q0 15 15 15h647q6 0 10.5 -4.5t4.5 -10.5z" />
    <glyph glyph-name="summation" unicode="&#x2211;" horiz-adv-x="677" 
d="M637 783v-76q0 -18 -17 -18h-411l312 -271q12 -12 12 -20v-2q0 -9 -12 -20l-313 -266h412q17 0 17 -17v-76q0 -17 -17 -17h-564q-16 0 -16 16v81q0 11 11 19l330 281l-330 280q-11 8 -11 20v86q0 7 4.5 12t11.5 5h564q17 0 17 -17z" />
    <glyph glyph-name="minus" unicode="&#x2212;" horiz-adv-x="557" 
d="M517 412v-66q0 -7 -4.5 -12t-11.5 -5h-444q-7 0 -12 5t-5 12v65q0 17 17 17h444q16 0 16 -16z" />
    <glyph glyph-name="radical" unicode="&#x221a;" horiz-adv-x="738" 
d="M307 -13h-8q-11 0 -16 11l-256 484q-4 8 -0.5 13t11.5 5h84q12 0 18 -11l163 -313l295 612q6 12 19 12h82q9 0 12.5 -5t-0.5 -13l-388 -784q-5 -11 -16 -11z" />
    <glyph glyph-name="infinity" unicode="&#x221e;" horiz-adv-x="864" 
d="M429 345l2 4q11 -41 61 -82.5t124 -41.5q97 0 157.5 60.5t60.5 171.5q0 112 -60 172t-158 60q-71 0 -119.5 -37.5t-65.5 -84.5l-3 5q-57 117 -190 117q-92 0 -150 -64.5t-58 -167.5q0 -101 58.5 -166t149.5 -65q74 0 121.5 35.5t69.5 83.5zM741 459q0 -58 -33.5 -96
t-87.5 -38q-49 0 -87.5 35.5t-38.5 98.5t38.5 98t87.5 35q54 0 87.5 -38t33.5 -95zM247 590q51 0 88 -36.5t37 -94.5q0 -57 -37 -94.5t-88 -37.5q-53 0 -88 37t-35 93q0 58 35 95.5t88 37.5z" />
    <glyph glyph-name="integral" unicode="&#x222b;" horiz-adv-x="637" 
d="M589 788q12 -6 7 -21l-26 -56q-6 -14 -22 -8q-32 16 -63 16q-49 0 -80.5 -24t-31.5 -76l1 -810v-3v-14q-6 -89 -63 -136t-147 -47q-63 0 -116 32q-12 7 -6 20l25 57q7 15 22 8q32 -16 63 -16q100 0 111 82v828q0 96 58 148t152 52q65 0 116 -32z" />
    <glyph glyph-name="approxequal" unicode="&#x2248;" horiz-adv-x="610" 
d="M64 423l18 -20t19 -19q13 -13 24 2q42 56 89 55q13 0 26 -5t19 -8.5t19.5 -14.5t14.5 -12t10.5 -8t12 -8.5t11.5 -7.5t13.5 -8l14 -6t16.5 -5.5t17 -3t20 -1.5q36 -1 74 21t58 44l19 23q8 8 0 19l-34 37q-11 12 -23 0q-42 -57 -91 -56q-11 0 -21 3t-20.5 9t-15.5 9.5
t-16 12.5t-12 10q-57 45 -109 46q-36 1 -74.5 -21.5t-59.5 -45.5l-21 -22q-8 -8 2 -19zM57 189l38 -38q11 -15 23 1q41 57 89 55q11 0 20 -2t19 -8l14 -8.5t16 -12.5l11 -9q1 -1 8.5 -6.5t9.5 -6.5t9 -6t10 -6.5t10 -5.5t11.5 -5.5l12 -4t14 -4t14.5 -2.5t16 -1
q23 -1 46.5 8t41.5 22t33 26t23 23l7 9q9 9 -1 19l-33 38q-13 13 -23 -1q-42 -57 -91 -55q-11 0 -21 2.5t-20.5 8.5t-15.5 9.5t-16 12.5t-13 10q-19 15 -30.5 22.5t-33 16t-44.5 8.5q-36 1 -75 -21.5t-60 -44.5l-20 -23q-9 -9 1 -20z" />
    <glyph glyph-name="notequal" unicode="&#x2260;" horiz-adv-x="600" 
d="M526 461h-148l-50 -172h198q16 0 16 -16v-66q0 -17 -16 -17h-227l-50 -174q-7 -17 -18 -17l-74 1q-7 1 -12 6t-3 12l50 172h-117q-7 0 -12 4.5t-5 11.5v66q0 17 17 17h145l50 172h-195q-7 0 -12 4.5t-5 11.5v66q0 17 17 17h224l52 181q5 16 18 15h74q20 -2 15 -17
l-52 -179h120q16 0 16 -16v-66q0 -7 -4.5 -12t-11.5 -5z" />
    <glyph glyph-name="lessequal" unicode="&#x2264;" horiz-adv-x="501" 
d="M40 468v-8q0 -10 9 -14l370 -218q8 -5 15 -1t7 14v70q0 9 -9 14l-246 140l247 143q8 8 8 14v70q0 10 -7 14t-15 -1l-370 -223q-9 -5 -9 -14zM55 17v64q0 17 16 17h353q17 0 17 -17v-65q0 -16 -17 -16h-353q-16 0 -16 17z" />
    <glyph glyph-name="greaterequal" unicode="&#x2265;" horiz-adv-x="501" 
d="M461 460v8q0 9 -9 14l-370 223q-8 5 -15 1t-7 -14v-70q0 -6 8 -14l247 -143l-246 -140q-9 -5 -9 -14v-70q0 -10 7 -14t15 1l370 218q9 4 9 14zM446 81v-64q0 -17 -16 -17h-353q-17 0 -17 16v65q0 17 17 17h353q16 0 16 -17z" />
    <glyph glyph-name="lozenge" unicode="&#x25ca;" horiz-adv-x="869" 
d="M37 404l386 386q12 12 24 0l385 -386q12 -12 0 -24l-385 -386q-12 -12 -24 0l-386 386q-12 12 0 24zM436 650l-259 -257l259 -259l257 259z" />
    <glyph glyph-name="W.ss01" horiz-adv-x="1197" 
d="M39 800h98q13 0 18 -18l179 -544l212 544q7 18 20 18h64q12 0 19 -18l212 -544l178 544q7 18 18 18h98q21 0 13 -21l-277 -771q-4 -13 -18 -13h-8q-12 0 -18 13l-250 630l-249 -630q-6 -13 -18 -13h-9q-14 0 -18 13l-277 771q-7 21 13 21z" />
    <glyph glyph-name="i.loclTRK" horiz-adv-x="259" 
d="M131 687q-23 0 -39.5 16t-16.5 39t16.5 40t39.5 17q24 0 40 -16.5t16 -40.5q0 -23 -16 -39t-40 -16zM168 495h-77q-16 0 -16 -16v-439q0 -18 10 -29t28 -11h56q15 0 15 17v462q0 16 -16 16z" />
    <glyph glyph-name="zero.osf" horiz-adv-x="614" 
d="M307 -13q-109 0 -186 77.5t-77 186.5q0 108 77 185t186 77t186.5 -77t77.5 -185q0 -109 -77.5 -186.5t-186.5 -77.5zM309 89q66 0 113 48t47 114q0 65 -47 112.5t-113 47.5q-67 0 -114 -47t-47 -113t47 -114t114 -48z" />
    <glyph glyph-name="one.osf" horiz-adv-x="322" 
d="M171 499h71q17 0 17 -15v-467q0 -17 -16 -17h-80q-16 0 -16 17v312l-92 -12q-18 -2 -18 12l-2 50q0 15 13 18q60 20 107 92l1 4q6 6 15 6z" />
    <glyph glyph-name="two.osf" horiz-adv-x="593" 
d="M330 102h202q16 0 16 -15v-70q0 -7 -4.5 -12t-11.5 -5h-457q-15 0 -15 13v18q0 12 10 16l252 137q48 26 73 53t25 67q0 41 -31 71.5t-92 30.5q-60 0 -97 -31t-47 -77q-4 -17 -20 -17h-72q-18 0 -16 17q8 94 78 151.5t184 57.5q99 0 162.5 -59t64.5 -138q-1 -72 -52 -115
q-40 -29 -152 -93z" />
    <glyph glyph-name="three.osf" horiz-adv-x="611" 
d="M90 495h437q16 0 16 -16v-79q0 -17 -11 -29l-190 -200q49 0 96 -25q57 -23 92.5 -78.5t35.5 -120.5q0 -96 -75.5 -164t-175.5 -68q-158 0 -265 138q-10 13 1 22l55 52q11 11 22 -2q32 -42 81 -71.5t100 -29.5q67 0 104 41.5t37 93.5q0 49 -32.5 85.5t-85.5 36.5
q-14 0 -28.5 -3.5t-30.5 -9.5t-24 -8q-8 -1 -16 7l-43 57q-8 13 1 23l223 239h-324q-7 0 -12.5 4.5t-5.5 11.5v76q0 17 18 17z" />
    <glyph glyph-name="four.osf" horiz-adv-x="615" 
d="M479 18h65q16 0 16 -17v-75q0 -7 -4.5 -12t-11.5 -5h-65v-178q0 -16 -17 -16h-74q-18 0 -18 16v178h-307q-7 0 -12 4.5t-5 11.5l-1 76q0 10 9 15q139 110 202 272q33 90 35 192q0 15 15 15h86q16 0 16 -16q-5 -167 -70 -296q-45 -88 -128 -165h160v51q0 14 15 18l77 9
q7 1 12 -4t5 -13v-61z" />
    <glyph glyph-name="five.osf" horiz-adv-x="598" 
d="M190 388v-221q62 38 136 38q100 0 163.5 -74t63.5 -172q0 -99 -72.5 -170t-177.5 -71q-72 0 -138.5 34t-114.5 97q-9 12 0 22l54 57q11 10 22 -2q29 -43 75.5 -71t101.5 -28q61 0 96.5 39.5t35.5 94.5q0 56 -38.5 96t-93.5 40q-57 0 -113 -42l-96 19q-17 2 -17 18v389
q0 17 17 17q134 -4 202 -4t198 4q17 0 17 -16v-75q0 -15 -17 -17q-80 -5 -178 -5q-78 0 -126 3z" />
    <glyph glyph-name="six.osf" horiz-adv-x="613" 
d="M314 482q106 0 180 -70.5t74 -174.5q0 -105 -73 -176t-186 -71q-124 0 -194 91t-70 239q0 115 40.5 216.5t125.5 170.5t199 73q18 2 18 -15l2 -74q0 -12 -16 -12q-58 0 -107 -26t-80 -67t-49 -87.5t-22 -91.5q61 75 158 75zM308 90q60 0 105 43.5t45 103.5
q0 61 -42.5 104t-103.5 43t-107.5 -43t-46.5 -98q0 -63 43 -108t107 -45z" />
    <glyph glyph-name="seven.osf" horiz-adv-x="590" 
d="M548 479v-30q0 -8 -5 -20l-353 -695q-4 -8 -21 -8h-86q-7 0 -9.5 6.5t-0.5 12.5l330 641h-351q-7 0 -12 4.5t-5 11.5v77q0 16 17 16h481q15 0 15 -16z" />
    <glyph glyph-name="eight.osf" horiz-adv-x="597" 
d="M185 402l4 -3q-46 -11 -95 -63.5t-49 -125.5q0 -95 68.5 -157.5t184.5 -62.5t185 62.5t69 157.5q0 74 -46 124t-98 65l4 3q48 19 84.5 61.5t36.5 105.5q0 91 -67 151t-168 60q-100 0 -166.5 -60t-66.5 -151q0 -63 36.5 -106t83.5 -61zM431 571q0 -45 -38.5 -80.5
t-94.5 -35.5t-94 35t-38 81q0 48 38.5 82t93.5 34q56 0 94.5 -34t38.5 -82zM298 84q-62 0 -104.5 36t-42.5 92q0 54 40 94t107 40q68 0 107.5 -40t39.5 -94q0 -57 -42 -92.5t-105 -35.5z" />
    <glyph glyph-name="nine.osf" horiz-adv-x="615" 
d="M300 8q-107 0 -181 70.5t-74 174.5q0 105 73 176t186 71q124 0 194 -91t70 -239q0 -85 -24 -165.5t-68.5 -145.5t-115 -105.5t-156.5 -43.5q-18 -2 -18 15l-3 74q0 12 17 12q58 0 106.5 26t79.5 67t49 87.5t22 91.5q-61 -75 -157 -75zM305 400q-60 0 -104.5 -43.5
t-44.5 -103.5q0 -61 42.5 -104t103.5 -43q60 0 106.5 43t46.5 98q0 63 -43 108t-107 45z" />
    <glyph glyph-name="zero.dnom" horiz-adv-x="355" 
d="M177 -7q-69 0 -103 49.5t-34 128.5q0 81 34 131.5t103 50.5q70 0 104 -50.5t34 -131.5q0 -79 -34 -128.5t-104 -49.5zM177 58q77 0 77 113q0 115 -77 115t-77 -115q0 -113 77 -113z" />
    <glyph glyph-name="one.dnom" horiz-adv-x="252" 
d="M145 351h46q11 0 11 -10v-330q0 -11 -11 -11h-50q-12 0 -12 11v221l-66 -10q-12 -2 -12 7l-1 35q0 9 8 11q42 15 76 67l1 5q4 4 10 4z" />
    <glyph glyph-name="two.dnom" horiz-adv-x="325" 
d="M164 65h113q7 0 7 -7v-49q0 -9 -7 -9h-217q-9 0 -9 9v13l36 43l93 108q2 3 8.5 11t9 11.5l7.5 11t7 12.5t4 11.5t2 13.5q0 23 -18 39.5t-44 16.5q-36 0 -71 -42q-6 -6 -11 0l-31 32q-5 6 -1 10q36 51 93.5 61t100.5 -23q38 -28 43 -78t-27 -89z" />
    <glyph glyph-name="three.dnom" horiz-adv-x="321" 
d="M270 296l-82 -86q39 -3 65.5 -34.5t27.5 -68.5t-22 -70q-42 -49 -107 -45t-111 62q-4 6 0 11l30 30q5 5 10 -1q25 -31 58.5 -41t64.5 14q15 14 16.5 34t-9 35t-29.5 22.5t-46 -3.5q-3 -5 -9 1l-25 30q-6 6 0 10l88 98h-131q-8 0 -8 7v45q0 9 8 9h205q8 0 8 -9v-45
q0 -3 -2 -5z" />
    <glyph glyph-name="four.dnom" horiz-adv-x="318" 
d="M240 146h30q8 0 8 -8v-45q0 -8 -8 -8h-30v-78q0 -7 -7 -7h-46q-8 0 -8 7v78h-131q-7 0 -7 8l-1 45q0 2 3 7q65 48 94 121q15 44 15 85q0 8 8 8h48q7 0 7 -8q0 -64 -34 -136q-18 -35 -61 -69h59v16q0 8 7 8l47 5q7 0 7 -8v-21z" />
    <glyph glyph-name="five.dnom" horiz-adv-x="320" 
d="M119 299v-93q50 21 86 7t56 -43t19 -66.5t-25 -64.5q-42 -48 -106 -43.5t-106 58.5q-4 6 1 11l29 30q7 5 11 -2q19 -29 54 -38.5t62 12.5q23 22 16 52t-33.5 40t-62.5 -11h-1h-3l-10 1l-39 4q-7 0 -7 10l-2 141v1v46q0 8 8 8h186q8 0 8 -7v-46q0 -7 -8 -7h-133z" />
    <glyph glyph-name="six.dnom" horiz-adv-x="308" 
d="M159 224q50 0 84.5 -33t34.5 -80q0 -49 -35.5 -83t-85.5 -34q-39 0 -70.5 22t-42.5 58q-13 32 -13 76q-2 87 43 144q21 26 54.5 46.5t74.5 21.5q7 0 8 -7l3 -44q1 -7 -7 -7q-40 0 -69 -27.5t-40 -69.5q28 17 61 17zM156 48q26 0 44.5 17.5t18.5 44.5q0 26 -18 44t-44 18
q-27 0 -45.5 -19t-17.5 -45q2 -27 18.5 -43.5t43.5 -16.5z" />
    <glyph glyph-name="seven.dnom" horiz-adv-x="313" 
d="M273 343v-13q0 -5 -1 -7l-1 -2l-161 -317q-2 -4 -9 -4h-51q-4 0 -5 3.5t1 5.5l141 280h-139q-8 0 -8 8v46q0 8 7 8h220q6 0 6 -8z" />
    <glyph glyph-name="eight.dnom" horiz-adv-x="298" 
d="M94 183l2 -2q-21 -5 -43.5 -29.5t-22.5 -59.5q0 -43 31.5 -71t86.5 -28q56 0 88 28t32 71q0 35 -21.5 58t-45.5 31l2 2q58 27 58 82q0 44 -31.5 70.5t-81.5 26.5q-48 0 -79.5 -26.5t-31.5 -70.5q0 -57 57 -82zM201 263q0 -19 -15 -33.5t-37 -14.5t-37.5 14t-15.5 34
q0 21 14.5 33.5t38.5 12.5t38 -12.5t14 -33.5zM149 43q-25 0 -42 13.5t-17 37.5q0 22 15.5 38.5t43.5 16.5t43.5 -16.5t15.5 -38.5q0 -25 -16 -38t-43 -13z" />
    <glyph glyph-name="nine.dnom" horiz-adv-x="307" 
d="M277 205q2 -86 -43 -143q-21 -26 -54.5 -46.5t-74.5 -21.5q-7 0 -8 7l-4 44q0 7 8 7q40 0 68.5 27t39.5 68q-30 -15 -60 -15q-49 0 -84 32.5t-35 80.5t35.5 82.5t85.5 34.5q38 0 67.5 -20.5t42.5 -54.5q16 -34 16 -82zM151 184q28 0 46 19t16 45q-1 26 -17 42.5t-43 16.5
q-26 0 -45 -17.5t-19 -43.5t18.5 -44t43.5 -18z" />
    <glyph glyph-name="zero.numr" horiz-adv-x="355" 
d="M177 443q-69 0 -103 49.5t-34 128.5q0 81 34 131.5t103 50.5q70 0 104 -50.5t34 -131.5q0 -79 -34 -128.5t-104 -49.5zM177 508q77 0 77 113q0 115 -77 115t-77 -115q0 -113 77 -113z" />
    <glyph glyph-name="one.numr" horiz-adv-x="252" 
d="M145 800h46q11 0 11 -10v-330q0 -11 -11 -11h-50q-12 0 -12 11v221l-66 -10q-12 -2 -12 7l-1 35q0 9 8 11q42 15 76 67l1 5q4 4 10 4z" />
    <glyph glyph-name="two.numr" horiz-adv-x="326" 
d="M164 513h114q7 0 7 -7v-49q0 -9 -7 -9h-218q-8 0 -8 9v13l25 31l4 5l6 7l93 108q2 2 7 8l7 8.5t6 8t6 9l5 9t4.5 9.5t2.5 9t1 10q0 23 -18 39.5t-44 16.5q-35 0 -72 -42q-5 -6 -11 0l-31 32q-5 5 -1 10q36 51 94 61t101 -23q38 -27 43 -77t-27 -90z" />
    <glyph glyph-name="three.numr" horiz-adv-x="322" 
d="M272 741l-82 -86q59 -5 83.5 -66.5t-12.5 -106.5q-42 -49 -107.5 -45t-110.5 62q-5 5 0 11l29 30q5 5 10 -1q25 -31 59 -41t65 14q14 14 15.5 34t-9 35t-29.5 22.5t-46 -3.5q-3 -5 -9 1l-25 30q-4 6 0 10l88 98h-131q-7 0 -7 7v45q0 9 7 9h206q8 0 8 -9v-45q0 -3 -2 -5z
" />
    <glyph glyph-name="four.numr" horiz-adv-x="318" 
d="M240 587h30q8 0 8 -8v-45q0 -8 -8 -8h-30v-78q0 -7 -7 -7h-46q-8 0 -8 7v78h-131q-7 0 -7 8l-1 45q0 3 3 7q65 48 94 121q15 43 15 85q0 8 8 8h48q7 0 7 -8q0 -64 -34 -136q-18 -35 -61 -69h59v16q0 8 7 8l47 5q7 0 7 -8v-21z" />
    <glyph glyph-name="five.numr" horiz-adv-x="320" 
d="M119 740v-93q50 21 86 7t56 -43t19 -66.5t-25 -64.5q-42 -48 -106 -43.5t-106 58.5q-4 6 1 11l29 30q7 5 11 -2q19 -29 54 -38.5t62 12.5q23 22 16 52t-33.5 40t-62.5 -11h-1h-3l-10 1l-39 4q-7 0 -7 10l-2 141v1v46q0 8 8 8h186q8 0 8 -7v-46q0 -7 -8 -7h-133z" />
    <glyph glyph-name="six.numr" horiz-adv-x="308" 
d="M158 673q50 0 85 -33t35 -80q0 -49 -35.5 -83t-85.5 -34q-37 0 -66 19.5t-43 50.5q-18 34 -18 86q-2 86 44 144q20 26 53.5 46.5t75.5 21.5q6 0 7 -7l4 -44q0 -7 -8 -7q-40 0 -69 -27.5t-40 -69.5q28 17 61 17zM155 497q26 0 44.5 17.5t18.5 44.5q0 26 -17.5 44t-43.5 18
q-27 0 -46 -19t-17 -45q1 -26 18 -43t43 -17z" />
    <glyph glyph-name="seven.numr" horiz-adv-x="313" 
d="M273 792v-13q0 -5 -1 -7l-1 -2l-161 -317q-2 -4 -9 -4h-51q-4 0 -5 3.5t1 5.5l141 280h-139q-8 0 -8 8v46q0 8 7 8h220q6 0 6 -8z" />
    <glyph glyph-name="eight.numr" horiz-adv-x="298" 
d="M94 625l2 -2q-21 -5 -43.5 -29.5t-22.5 -59.5q0 -43 31.5 -71t86.5 -28q56 0 88 28t32 71q0 35 -21.5 58t-45.5 31l2 2q58 27 58 82q0 44 -31.5 70.5t-81.5 26.5q-48 0 -79.5 -26.5t-31.5 -70.5q0 -57 57 -82zM201 705q0 -19 -15 -33.5t-37 -14.5t-37.5 14t-15.5 34
q0 21 14.5 33.5t38.5 12.5t38 -12.5t14 -33.5zM149 485q-25 0 -42 13.5t-17 37.5q0 22 15.5 38.5t43.5 16.5t43.5 -16.5t15.5 -38.5q0 -25 -16 -38t-43 -13z" />
    <glyph glyph-name="nine.numr" horiz-adv-x="307" 
d="M277 649q2 -84 -43 -143q-21 -26 -54.5 -46.5t-74.5 -21.5q-7 0 -8 7l-4 44q0 7 8 7q40 0 69 27t39 69q-29 -16 -60 -16q-49 0 -84 32.5t-35 80.5t35.5 82.5t85.5 34.5q38 0 68.5 -21.5t42.5 -55.5q15 -33 15 -80zM151 628q27 0 45.5 19t16.5 45q-1 27 -17 43.5t-43 16.5
q-26 0 -45 -18t-19 -44t18.5 -44t43.5 -18z" />
    <glyph glyph-name="ligaf" horiz-adv-x="514" 
d="M336 705q-42 0 -75 -25t-33 -80v-105h119q13 0 13 -13v-76q0 -12 -13 -12h-119v-377q0 -17 -16 -17h-55q-38 0 -38 41v353h-71q-13 0 -13 11v61q0 29 30 29h54v105q0 102 58.5 155t155.5 53q61 0 120 -30t97 -66l-42 -83q-85 76 -172 76z" />
    <glyph glyph-name="ligafex" horiz-adv-x="514" 
d="M336 705q-42 0 -75 -25t-33 -80v-105h223q12 0 12 -13v-76q0 -12 -12 -12h-223v-377q0 -17 -16 -17h-55q-38 0 -38 41v353h-71q-13 0 -13 11v61q0 29 30 29h54v105q0 102 58.5 155t155.5 53q61 0 120 -30t97 -66l-42 -83q-85 76 -172 76z" />
    </font>
</defs>
</svg>
