<?xml version="1.0" encoding="utf-8"?>
<!-- Generator: Adobe Illustrator 18.0.0, SVG Export Plug-In . SVG Version: 6.00 Build 0)  -->
<!DOCTYPE svg PUBLIC "-//W3C//DTD SVG 1.1//EN" "http://www.w3.org/Graphics/SVG/1.1/DTD/svg11.dtd">
<svg version="1.1" id="Слой_1" xmlns="http://www.w3.org/2000/svg" xmlns:xlink="http://www.w3.org/1999/xlink" x="0px" y="0px"
	 viewBox="0 0 1053.9 159.3" enable-background="new 0 0 1053.9 159.3" xml:space="preserve">
<g>
	<path fill-rule="evenodd" clip-rule="evenodd" fill="#C4B090" d="M1031.1,114.2c-0.9,0.6-1.9,1.1-2.9,1.3l-0.8,3.5l-4,0.1l-1-3.4
		c-1-0.2-2-0.6-3-1.2l-3.1,1.9l-2.9-2.8l1.7-3.1c-0.6-0.9-1.1-1.8-1.3-2.9l-3.5-0.9l-0.1-4l3.4-0.9c0.2-1,0.6-2.1,1.2-3l-1.9-3.1
		l2.8-2.9l3.1,1.7c0.9-0.6,1.9-1,2.9-1.3l0.9-3.5l4-0.1l0.9,3.4c1,0.2,2.1,0.6,3,1.1l3.1-1.9l2.9,2.8l-1.7,3c0.6,1,1,1.9,1.3,2.9
		l3.5,0.8l0.1,4l-3.4,1c-0.2,1-0.5,2-1.1,3l1.9,3.1l-2.8,2.9L1031.1,114.2L1031.1,114.2z M1052.3,38.5l-0.2-27.2l0,0
		c0-0.5-0.1-1-0.2-1.5c0.3-4.3-2.7-11.1-7.5-9.6c-9.7,3-4.9,15.8-9.5,36.7c1.4-0.6,1.2-0.7,4.4-1.1
		C1042.5,35.4,1048.2,36,1052.3,38.5L1052.3,38.5z M929.8,130.3c2.2,0,3.9-1.9,3.9-4c0-2.2-1.9-3.9-4-3.9c-2.2,0-3.9,1.9-3.9,4
		C925.8,128.5,927.6,130.3,929.8,130.3L929.8,130.3z M943.2,130.7c2.7,0,4.8-2.3,4.8-5c0-2.7-2.3-4.8-5-4.8c-2.7,0-4.8,2.3-4.8,5
		C938.2,128.6,940.5,130.7,943.2,130.7L943.2,130.7z M982.6,128.1c3.7-0.1,6.6-3.1,6.6-6.8c-0.1-3.7-3.1-6.6-6.8-6.6
		c-3.7,0.1-6.7,3.1-6.6,6.8C975.8,125.2,978.9,128.2,982.6,128.1L982.6,128.1z M1042.9,68.9c3.7-0.1,6.6-3.1,6.6-6.8
		c-0.1-3.7-3.1-6.7-6.8-6.6c-3.7,0.1-6.7,3.1-6.6,6.8C1036.1,66,1039.1,68.9,1042.9,68.9L1042.9,68.9z M1045.5,13.5
		c2.2,0,3.9-1.8,3.9-4c0-2.2-1.8-3.9-4-3.9c-2.2,0-3.9,1.9-3.9,4C1041.5,11.9,1043.3,13.6,1045.5,13.5L1045.5,13.5z M1044.8,31.5
		c3,0,5.4-2.6,5.4-5.6c0-3-2.5-5.4-5.5-5.4c-3,0-5.4,2.6-5.4,5.5C1039.3,29.1,1041.7,31.6,1044.8,31.5L1044.8,31.5z M1024.9,123
		c10.3-0.2,18.4-8.6,18.2-18.8c-0.2-10.2-8.6-18.3-18.8-18.2c-10.2,0.2-18.3,8.6-18.2,18.8C1006.3,115,1014.7,123.2,1024.9,123
		L1024.9,123z M1015.9,131.6l-50.9,0.7c-3.9-5-3.9-8.9-2.7-17.3c15-2.7,31.6-11.8,34.6-14.7C992.5,109.6,1001.5,129.5,1015.9,131.6
		L1015.9,131.6z M959.5,132.4l-27.2,0.7l0,0c-0.5,0-1,0-1.5-0.1c-4.4,0.4-11.1-2.3-9.9-7.2c2.7-9.9,15.6-5.5,36.3-10.7
		c-0.5,1.4-0.6,1.2-1,4.4C956,122.7,956.9,128.4,959.5,132.4L959.5,132.4z M1053.9,130.7l-0.3-24.3c-1.9,12-11.6,21.8-23.4,24.7
		l6.8-0.1L1053.9,130.7L1053.9,130.7z M1024.3,82.1c12.1-0.2,22.2,9.5,22.4,21.6c0.2,12.2-9.5,22.2-21.6,22.4
		c-12.2,0.2-22.2-9.5-22.4-21.7C1002.4,92.3,1012.1,82.3,1024.3,82.1L1024.3,82.1z M1053.4,94.8l-1-50.9c-5.1-3.8-9-3.7-17.4-2.2
		c-2.2,15-10.8,31.9-13.5,35.1C1030.6,72.2,1050.8,80.6,1053.4,94.8L1053.4,94.8z M1028,109.3c-0.4,0.3-1,0.5-1.5,0.7l-0.4,1.8
		l-2.1,0l-0.4-1.7c-0.5-0.1-1-0.3-1.5-0.6l-1.5,0.9l-1.4-1.4l0.9-1.6c-0.3-0.4-0.5-1-0.7-1.5l-1.8-0.4l0-2l1.7-0.5
		c0.1-0.5,0.3-1,0.6-1.5l-0.9-1.6l1.4-1.4l1.6,0.9c0.4-0.3,1-0.5,1.5-0.7l0.4-1.7l2,0l0.5,1.7c0.5,0.1,1,0.3,1.5,0.6l1.6-1l1.4,1.4
		l-0.9,1.6c0.3,0.4,0.5,1,0.7,1.5l1.7,0.4l0,2.1l-1.7,0.5c-0.1,0.5-0.3,1-0.6,1.5l1,1.5l-1.4,1.4L1028,109.3L1028,109.3z"/>
	<path fill-rule="evenodd" clip-rule="evenodd" fill="#C4B090" d="M22.8,114.2c0.9,0.6,1.9,1.1,2.9,1.3l0.8,3.5l4,0.1l1-3.4
		c1-0.2,2-0.6,3-1.2l3.1,1.9l2.9-2.8l-1.7-3.1c0.6-0.9,1.1-1.8,1.3-2.9l3.5-0.9l0.1-4l-3.4-0.9c-0.2-1-0.6-2.1-1.2-3l1.9-3.1
		l-2.8-2.9l-3.1,1.7c-0.9-0.6-1.9-1-2.9-1.3l-0.9-3.5l-4-0.1l-0.9,3.4c-1,0.2-2.1,0.6-3,1.1l-3.1-1.9l-2.9,2.8l1.7,3
		c-0.6,1-1,1.9-1.3,2.9l-3.5,0.8l-0.1,4l3.4,1c0.2,1,0.5,2,1.1,3l-1.9,3.1l2.8,2.9L22.8,114.2L22.8,114.2z M1.6,38.5l0.2-27.2l0,0
		c0-0.5,0.1-1,0.2-1.5C1.7,5.5,4.7-1.3,9.5,0.2c9.7,3,4.9,15.8,9.5,36.7c-1.4-0.6-1.2-0.7-4.4-1.1C11.4,35.4,5.7,36,1.6,38.5
		L1.6,38.5z M124.1,130.3c-2.2,0-3.9-1.9-3.9-4c0-2.2,1.9-3.9,4-3.9c2.2,0,3.9,1.9,3.9,4C128.1,128.5,126.3,130.3,124.1,130.3
		L124.1,130.3z M110.7,130.7c-2.7,0-4.8-2.3-4.8-5c0-2.7,2.3-4.8,5-4.8c2.7,0,4.8,2.3,4.8,5C115.6,128.6,113.4,130.7,110.7,130.7
		L110.7,130.7z M71.3,128.1c-3.7-0.1-6.6-3.1-6.6-6.8c0.1-3.7,3.1-6.6,6.8-6.6c3.7,0.1,6.7,3.1,6.6,6.8
		C78,125.2,75,128.2,71.3,128.1L71.3,128.1z M11,68.9c-3.7-0.1-6.6-3.1-6.6-6.8c0.1-3.7,3.1-6.7,6.8-6.6c3.7,0.1,6.7,3.1,6.6,6.8
		C17.8,66,14.7,68.9,11,68.9L11,68.9z M8.4,13.5c-2.2,0-3.9-1.8-3.9-4c0-2.2,1.8-3.9,4-3.9c2.2,0,3.9,1.9,3.9,4
		C12.4,11.9,10.6,13.6,8.4,13.5L8.4,13.5z M9.1,31.5c-3,0-5.4-2.6-5.4-5.6c0-3,2.5-5.4,5.5-5.4c3,0,5.4,2.6,5.4,5.5
		C14.6,29.1,12.1,31.6,9.1,31.5L9.1,31.5z M29,123c-10.3-0.2-18.4-8.6-18.2-18.8C10.9,94,19.3,85.8,29.6,86
		c10.2,0.2,18.3,8.6,18.2,18.8C47.6,115,39.2,123.2,29,123L29,123z M38,131.6l50.9,0.7c3.9-5,3.9-8.9,2.7-17.3
		c-15-2.7-31.6-11.8-34.6-14.7C61.4,109.6,52.4,129.5,38,131.6L38,131.6z M94.4,132.4l27.2,0.7l0,0c0.5,0,1,0,1.5-0.1
		c4.4,0.4,11.1-2.3,9.9-7.2c-2.7-9.9-15.6-5.5-36.3-10.7c0.5,1.4,0.6,1.2,1,4.4C97.8,122.7,97,128.4,94.4,132.4L94.4,132.4z
		 M0,130.7l0.3-24.3c1.9,12,11.6,21.8,23.4,24.7l-6.8-0.1L0,130.7L0,130.7z M29.6,82.1c-12.1-0.2-22.2,9.5-22.4,21.6
		C7,115.9,16.8,126,28.9,126.2c12.2,0.2,22.2-9.5,22.4-21.7C51.5,92.3,41.8,82.3,29.6,82.1L29.6,82.1z M0.5,94.8l1-50.9
		c5.1-3.8,9-3.7,17.4-2.2c2.2,15,10.8,31.9,13.5,35.1C23.3,72.2,3.1,80.6,0.5,94.8L0.5,94.8z M25.9,109.3c0.4,0.3,1,0.5,1.5,0.7
		l0.4,1.8l2.1,0l0.4-1.7c0.5-0.1,1-0.3,1.5-0.6l1.5,0.9l1.4-1.4l-0.9-1.6c0.3-0.4,0.5-1,0.7-1.5l1.8-0.4l0-2l-1.7-0.5
		c-0.1-0.5-0.3-1-0.6-1.5l0.9-1.6l-1.4-1.4l-1.6,0.9c-0.4-0.3-1-0.5-1.5-0.7l-0.4-1.7l-2,0l-0.5,1.7c-0.5,0.1-1,0.3-1.5,0.6l-1.6-1
		l-1.4,1.4l0.9,1.6c-0.3,0.4-0.5,1-0.7,1.5l-1.7,0.4l0,2.1l1.7,0.5c0.1,0.5,0.3,1,0.6,1.5l-1,1.5l1.4,1.4L25.9,109.3L25.9,109.3z"/>
	<path fill-rule="evenodd" clip-rule="evenodd" fill="#C4B090" d="M476.3,120.8c0.4,0.3,0.7,0.6,1,0.9c28.2,25,74.9,25.4,103.6,1.2
		c0.3-0.3,0.7-0.7,1.1-0.9c4-3.5,11.3-4.5,15.5-0.2c6,6.1,0.2,14.1-5,17.8c-33,26.9-94.6,26.3-127-1.4c-5.2-3.9-10.8-11.9-4.6-17.9
		C465.1,116,472.3,117.2,476.3,120.8L476.3,120.8z M579.1,142.1c1.9-1.8,1.9-4.9,0.1-6.7c-1.8-1.9-4.9-2-6.8-0.1
		c-1.9,1.8-1.9,4.9-0.1,6.8C574.1,144,577.2,144,579.1,142.1L579.1,142.1z M478.6,141.1c-1.8-1.9-1.8-4.9,0.1-6.8
		c1.9-1.8,4.9-1.8,6.8,0.1c1.8,1.9,1.8,4.9-0.1,6.8C483.4,143.1,480.4,143.1,478.6,141.1L478.6,141.1z M465.1,131.2
		c-1.8-1.9-1.8-4.9,0.1-6.8c1.9-1.8,4.9-1.8,6.8,0.1c1.8,1.9,1.8,4.9-0.1,6.8C470,133.1,466.9,133.1,465.1,131.2L465.1,131.2z
		 M511.1,152.5c-1.8-1.9-1.8-4.9,0.1-6.7c1.9-1.9,4.9-1.8,6.8,0.1c1.8,1.9,1.8,4.9-0.1,6.8C515.9,154.4,512.9,154.4,511.1,152.5
		L511.1,152.5z M495.1,148.7c-1.8-1.9-1.8-4.9,0.1-6.8c1.9-1.8,4.9-1.8,6.8,0.1c1.8,1.9,1.8,4.9-0.1,6.8
		C500,150.6,497,150.6,495.1,148.7L495.1,148.7z M524.7,153.6c-2.1-2.1-2.1-5.5,0.1-7.6c2.1-2.1,5.5-2,7.6,0.1
		c2.1,2.1,2,5.5-0.1,7.6C530.2,155.8,526.8,155.7,524.7,153.6L524.7,153.6z M592.8,132.5c1.9-1.8,1.9-4.9,0.1-6.8
		c-1.8-1.9-4.9-1.9-6.8-0.1c-1.9,1.8-1.9,4.9-0.1,6.8C587.8,134.4,590.9,134.4,592.8,132.5L592.8,132.5z M546.3,152.8
		c1.9-1.8,1.9-4.9,0.1-6.8c-1.8-1.9-4.9-1.9-6.8-0.1c-1.9,1.8-2,4.9-0.1,6.8C541.4,154.6,544.4,154.6,546.3,152.8L546.3,152.8z
		 M562.4,149.3c1.9-1.8,1.9-4.9,0.1-6.8c-1.8-1.9-4.9-1.9-6.8-0.1c-1.9,1.8-2,4.9-0.1,6.8C557.4,151.2,560.5,151.2,562.4,149.3
		L562.4,149.3z"/>
	<line fill="none" stroke="#C4B090" stroke-miterlimit="10" x1="462.4" y1="125.8" x2="132.9" y2="125.8"/>
	<line fill="none" stroke="#C4B090" stroke-miterlimit="10" x1="920.8" y1="125.8" x2="595.7" y2="125.8"/>
</g>
</svg>
