<?xml version="1.0" encoding="utf-8"?>
<!-- Generator: Adobe Illustrator 18.0.0, SVG Export Plug-In . SVG Version: 6.00 Build 0)  -->
<!DOCTYPE svg PUBLIC "-//W3C//DTD SVG 1.1//EN" "http://www.w3.org/Graphics/SVG/1.1/DTD/svg11.dtd">
<svg version="1.1" id="Слой_1" xmlns="http://www.w3.org/2000/svg" xmlns:xlink="http://www.w3.org/1999/xlink" x="0px" y="0px"
	 viewBox="0 0 1053.9 159.3" enable-background="new 0 0 1053.9 159.3" xml:space="preserve">
<g>
	<path fill-rule="evenodd" clip-rule="evenodd" fill="#C4B090" d="M22.8,45.1c0.9-0.6,1.9-1.1,2.9-1.3l0.8-3.5l4-0.1l1,3.4
		c1,0.2,2,0.6,3,1.2l3.1-1.9l2.9,2.8l-1.7,3.1c0.6,0.9,1.1,1.8,1.3,2.9l3.5,0.9l0.1,4l-3.4,0.9c-0.2,1-0.6,2.1-1.2,3l1.9,3.1
		l-2.8,2.9l-3.1-1.7c-0.9,0.6-1.9,1-2.9,1.3l-0.9,3.5l-4,0.1l-0.9-3.4c-1-0.2-2.1-0.6-3-1.1L20.3,67l-2.9-2.8l1.7-3
		c-0.6-1-1-1.9-1.3-2.9l-3.5-0.8l-0.1-4l3.4-1c0.2-1,0.5-2,1.1-3l-1.9-3.1l2.8-2.9L22.8,45.1L22.8,45.1z M1.6,120.8L1.8,148l0,0
		c0,0.5,0.1,1,0.2,1.5c-0.3,4.3,2.7,11.1,7.5,9.6c9.7-3,4.9-15.8,9.5-36.7c-1.4,0.6-1.2,0.7-4.4,1.1C11.4,123.9,5.7,123.3,1.6,120.8
		L1.6,120.8z M124.1,29c-2.2,0-3.9,1.9-3.9,4c0,2.2,1.9,3.9,4,3.9c2.2,0,3.9-1.9,3.9-4C128.1,30.8,126.3,29,124.1,29L124.1,29z
		 M110.7,28.6c-2.7,0-4.8,2.3-4.8,5c0,2.7,2.3,4.8,5,4.8c2.7,0,4.8-2.3,4.8-5C115.6,30.7,113.4,28.6,110.7,28.6L110.7,28.6z
		 M71.3,31.2c-3.7,0.1-6.6,3.1-6.6,6.8c0.1,3.7,3.1,6.6,6.8,6.6c3.7-0.1,6.7-3.1,6.6-6.8C78,34.1,75,31.1,71.3,31.2L71.3,31.2z
		 M11,90.4c-3.7,0.1-6.6,3.1-6.6,6.8c0.1,3.7,3.1,6.7,6.8,6.6c3.7-0.1,6.7-3.1,6.6-6.8C17.8,93.3,14.7,90.4,11,90.4L11,90.4z
		 M8.4,145.8c-2.2,0-3.9,1.8-3.9,4c0,2.2,1.8,3.9,4,3.9c2.2,0,3.9-1.9,3.9-4C12.4,147.4,10.6,145.7,8.4,145.8L8.4,145.8z M9.1,127.8
		c-3,0-5.4,2.6-5.4,5.6c0,3,2.5,5.4,5.5,5.4c3,0,5.4-2.6,5.4-5.5C14.6,130.2,12.1,127.7,9.1,127.8L9.1,127.8z M29,36.3
		c-10.3,0.2-18.4,8.6-18.2,18.8c0.2,10.2,8.6,18.3,18.8,18.2c10.2-0.2,18.3-8.6,18.2-18.8C47.6,44.3,39.2,36.1,29,36.3L29,36.3z
		 M38,27.7L89,27c3.9,5,3.9,8.9,2.7,17.3C76.6,47,60.1,56.1,57,59C61.4,49.8,52.4,29.8,38,27.7L38,27.7z M94.4,26.9l27.2-0.7l0,0
		c0.5,0,1,0,1.5,0.1c4.4-0.4,11.1,2.3,9.9,7.2c-2.7,9.9-15.6,5.5-36.3,10.7c0.5-1.4,0.6-1.2,1-4.4C97.8,36.6,97,30.9,94.4,26.9
		L94.4,26.9z M0,28.6l0.3,24.3c1.9-12,11.6-21.8,23.4-24.7l-6.8,0.1L0,28.6L0,28.6z M29.6,77.2C17.5,77.4,7.4,67.8,7.2,55.6
		C7,43.4,16.8,33.4,28.9,33.2c12.2-0.2,22.2,9.5,22.4,21.7C51.5,67,41.8,77,29.6,77.2L29.6,77.2z M0.5,64.5l1,50.9
		c5.1,3.8,9,3.7,17.4,2.2c2.2-15,10.8-31.9,13.5-35.1C23.3,87.1,3.1,78.7,0.5,64.5L0.5,64.5z M25.9,50c0.4-0.3,1-0.5,1.5-0.7
		l0.4-1.8l2.1,0l0.4,1.7c0.5,0.1,1,0.3,1.5,0.6l1.5-0.9l1.4,1.4l-0.9,1.6c0.3,0.4,0.5,1,0.7,1.5l1.8,0.4l0,2l-1.7,0.5
		c-0.1,0.5-0.3,1-0.6,1.5l0.9,1.6l-1.4,1.4l-1.6-0.9c-0.4,0.3-1,0.5-1.5,0.7l-0.4,1.7l-2,0l-0.5-1.7c-0.5-0.1-1-0.3-1.5-0.6l-1.6,1
		l-1.4-1.4l0.9-1.6c-0.3-0.4-0.5-1-0.7-1.5l-1.7-0.4l0-2.1l1.7-0.5c0.1-0.5,0.3-1,0.6-1.5l-1-1.5l1.4-1.4L25.9,50L25.9,50z"/>
	<path fill-rule="evenodd" clip-rule="evenodd" fill="#C4B090" d="M1031.1,45.1c-0.9-0.6-1.9-1.1-2.9-1.3l-0.8-3.5l-4-0.1l-1,3.4
		c-1,0.2-2,0.6-3,1.2l-3.1-1.9l-2.9,2.8l1.7,3.1c-0.6,0.9-1.1,1.8-1.3,2.9l-3.5,0.9l-0.1,4l3.4,0.9c0.2,1,0.6,2.1,1.2,3l-1.9,3.1
		l2.8,2.9l3.1-1.7c0.9,0.6,1.9,1,2.9,1.3l0.9,3.5l4,0.1l0.9-3.4c1-0.2,2.1-0.6,3-1.1l3.1,1.9l2.9-2.8l-1.7-3c0.6-1,1-1.9,1.3-2.9
		l3.5-0.8l0.1-4l-3.4-1c-0.2-1-0.5-2-1.1-3l1.9-3.1l-2.8-2.9L1031.1,45.1L1031.1,45.1z M1052.3,120.8l-0.2,27.2l0,0
		c0,0.5-0.1,1-0.2,1.5c0.3,4.3-2.7,11.1-7.5,9.6c-9.7-3-4.9-15.8-9.5-36.7c1.4,0.6,1.2,0.7,4.4,1.1
		C1042.5,123.9,1048.2,123.3,1052.3,120.8L1052.3,120.8z M929.8,29c2.2,0,3.9,1.9,3.9,4c0,2.2-1.9,3.9-4,3.9c-2.2,0-3.9-1.9-3.9-4
		C925.8,30.8,927.6,29,929.8,29L929.8,29z M943.2,28.6c2.7,0,4.8,2.3,4.8,5c0,2.7-2.3,4.8-5,4.8s-4.8-2.3-4.8-5
		C938.2,30.7,940.5,28.6,943.2,28.6L943.2,28.6z M982.6,31.2c3.7,0.1,6.6,3.1,6.6,6.8c-0.1,3.7-3.1,6.6-6.8,6.6
		c-3.7-0.1-6.7-3.1-6.6-6.8C975.8,34.1,978.9,31.1,982.6,31.2L982.6,31.2z M1042.9,90.4c3.7,0.1,6.6,3.1,6.6,6.8
		c-0.1,3.7-3.1,6.7-6.8,6.6c-3.7-0.1-6.7-3.1-6.6-6.8C1036.1,93.3,1039.1,90.4,1042.9,90.4L1042.9,90.4z M1045.5,145.8
		c2.2,0,3.9,1.8,3.9,4c0,2.2-1.8,3.9-4,3.9c-2.2,0-3.9-1.9-3.9-4C1041.5,147.4,1043.3,145.7,1045.5,145.8L1045.5,145.8z
		 M1044.8,127.8c3,0,5.4,2.6,5.4,5.6c0,3-2.5,5.4-5.5,5.4c-3,0-5.4-2.6-5.4-5.5C1039.3,130.2,1041.7,127.7,1044.8,127.8
		L1044.8,127.8z M1024.9,36.3c10.3,0.2,18.4,8.6,18.2,18.8c-0.2,10.2-8.6,18.3-18.8,18.2c-10.2-0.2-18.3-8.6-18.2-18.8
		C1006.3,44.3,1014.7,36.1,1024.9,36.3L1024.9,36.3z M1015.9,27.7L964.9,27c-3.9,5-3.9,8.9-2.7,17.3c15,2.7,31.6,11.8,34.6,14.7
		C992.5,49.8,1001.5,29.8,1015.9,27.7L1015.9,27.7z M959.5,26.9l-27.2-0.7l0,0c-0.5,0-1,0-1.5,0.1c-4.4-0.4-11.1,2.3-9.9,7.2
		c2.7,9.9,15.6,5.5,36.3,10.7c-0.5-1.4-0.6-1.2-1-4.4C956,36.6,956.9,30.9,959.5,26.9L959.5,26.9z M1053.9,28.6l-0.3,24.3
		c-1.9-12-11.6-21.8-23.4-24.7l6.8,0.1L1053.9,28.6L1053.9,28.6z M1024.3,77.2c12.1,0.2,22.2-9.5,22.4-21.6
		c0.2-12.2-9.5-22.2-21.6-22.4c-12.2-0.2-22.2,9.5-22.4,21.7C1002.4,67,1012.1,77,1024.3,77.2L1024.3,77.2z M1053.4,64.5l-1,50.9
		c-5.1,3.8-9,3.7-17.4,2.2c-2.2-15-10.8-31.9-13.5-35.1C1030.6,87.1,1050.8,78.7,1053.4,64.5L1053.4,64.5z M1028,50
		c-0.4-0.3-1-0.5-1.5-0.7l-0.4-1.8l-2.1,0l-0.4,1.7c-0.5,0.1-1,0.3-1.5,0.6l-1.5-0.9l-1.4,1.4l0.9,1.6c-0.3,0.4-0.5,1-0.7,1.5
		l-1.8,0.4l0,2l1.7,0.5c0.1,0.5,0.3,1,0.6,1.5l-0.9,1.6l1.4,1.4l1.6-0.9c0.4,0.3,1,0.5,1.5,0.7l0.4,1.7l2,0l0.5-1.7
		c0.5-0.1,1-0.3,1.5-0.6l1.6,1l1.4-1.4l-0.9-1.6c0.3-0.4,0.5-1,0.7-1.5l1.7-0.4l0-2.1l-1.7-0.5c-0.1-0.5-0.3-1-0.6-1.5l1-1.5
		l-1.4-1.4L1028,50L1028,50z"/>
	<path fill-rule="evenodd" clip-rule="evenodd" fill="#C4B090" d="M577.6,38.5c-0.4-0.3-0.7-0.6-1-0.9c-28.2-25-74.9-25.4-103.6-1.2
		c-0.3,0.3-0.7,0.7-1.1,0.9c-4,3.5-11.3,4.5-15.5,0.2c-6-6.1-0.2-14.1,5-17.8c33-26.9,94.6-26.3,127,1.4c5.2,3.9,10.8,11.9,4.6,17.9
		C588.8,43.3,581.6,42.1,577.6,38.5L577.6,38.5z M474.8,17.2c-1.9,1.8-1.9,4.9-0.1,6.7c1.8,1.9,4.9,2,6.8,0.1
		c1.9-1.8,1.9-4.9,0.1-6.8C479.7,15.3,476.7,15.3,474.8,17.2L474.8,17.2z M575.3,18.2c1.8,1.9,1.8,4.9-0.1,6.8
		c-1.9,1.8-4.9,1.8-6.8-0.1c-1.8-1.9-1.8-4.9,0.1-6.8C570.5,16.2,573.5,16.3,575.3,18.2L575.3,18.2z M588.8,28.1
		c1.8,1.9,1.8,4.9-0.1,6.8c-1.9,1.8-4.9,1.8-6.8-0.1c-1.8-1.9-1.8-4.9,0.1-6.8C583.9,26.2,586.9,26.2,588.8,28.1L588.8,28.1z
		 M542.8,6.8c1.8,1.9,1.8,4.9-0.1,6.7c-1.9,1.9-4.9,1.8-6.8-0.1c-1.8-1.9-1.8-4.9,0.1-6.8C537.9,4.9,541,4.9,542.8,6.8L542.8,6.8z
		 M558.8,10.6c1.8,1.9,1.8,4.9-0.1,6.8c-1.9,1.8-4.9,1.8-6.8-0.1c-1.8-1.9-1.8-4.9,0.1-6.8C553.9,8.7,556.9,8.7,558.8,10.6
		L558.8,10.6z M529.2,5.7c2.1,2.1,2.1,5.5-0.1,7.6c-2.1,2.1-5.5,2-7.6-0.1c-2.1-2.1-2-5.5,0.1-7.6C523.7,3.5,527.1,3.6,529.2,5.7
		L529.2,5.7z M461.1,26.8c-1.9,1.8-1.9,4.9-0.1,6.8c1.8,1.9,4.9,1.9,6.8,0.1c1.9-1.8,1.9-4.9,0.1-6.8
		C466.1,24.9,463,24.9,461.1,26.8L461.1,26.8z M507.6,6.5c-1.9,1.8-1.9,4.9-0.1,6.8c1.8,1.9,4.9,1.9,6.8,0.1c1.9-1.8,2-4.9,0.1-6.8
		C512.5,4.7,509.5,4.7,507.6,6.5L507.6,6.5z M491.5,10c-1.9,1.8-1.9,4.9-0.1,6.8c1.8,1.9,4.9,1.9,6.8,0.1c1.9-1.8,1.9-4.9,0.1-6.8
		C496.5,8.1,493.4,8.1,491.5,10L491.5,10z"/>
	<line fill="none" stroke="#C4B090" stroke-miterlimit="10" x1="591.5" y1="33.5" x2="921" y2="33.5"/>
	<line fill="none" stroke="#C4B090" stroke-miterlimit="10" x1="133.1" y1="33.5" x2="458.2" y2="33.5"/>
</g>
</svg>
