<?xml version="1.0" encoding="utf-8"?>
<!-- Generator: Adobe Illustrator 18.0.0, SVG Export Plug-In . SVG Version: 6.00 Build 0)  -->
<!DOCTYPE svg PUBLIC "-//W3C//DTD SVG 1.1//EN" "http://www.w3.org/Graphics/SVG/1.1/DTD/svg11.dtd">
<svg version="1.1" id="Слой_1" xmlns="http://www.w3.org/2000/svg" xmlns:xlink="http://www.w3.org/1999/xlink" x="0px" y="0px"
	 viewBox="0 0 1054.7 786.5" enable-background="new 0 0 1054.7 786.5" xml:space="preserve">
<g>
	<path fill-rule="evenodd" clip-rule="evenodd" fill="#C4B090" d="M23.6,45.1c0.9-0.6,1.9-1.1,2.9-1.3l0.8-3.5l4-0.1l1,3.4
		c1,0.2,2,0.6,3,1.2l3.1-1.9l2.9,2.8l-1.7,3.1c0.6,0.9,1.1,1.8,1.3,2.9l3.5,0.9l0.1,4l-3.4,0.9c-0.2,1-0.6,2.1-1.2,3l1.9,3.1
		l-2.8,2.9L36,64.7c-0.9,0.6-1.9,1-2.9,1.3l-0.9,3.5l-4,0.1l-0.9-3.4c-1-0.2-2.1-0.6-3-1.1L21.1,67l-2.9-2.8l1.7-3
		c-0.6-1-1-1.9-1.3-2.9l-3.5-0.8l-0.1-4l3.4-1c0.2-1,0.5-2,1.1-3l-1.9-3.1l2.8-2.9L23.6,45.1L23.6,45.1z M2.4,120.8L2.6,148l0,0
		c0,0.5,0.1,1,0.2,1.5c-0.3,4.3,2.7,11.1,7.5,9.6c9.7-3,4.9-15.8,9.5-36.7c-1.4,0.6-1.2,0.7-4.4,1.1C12.2,123.9,6.5,123.3,2.4,120.8
		L2.4,120.8z M124.9,29c-2.2,0-3.9,1.9-3.9,4c0,2.2,1.9,3.9,4,3.9c2.2,0,3.9-1.9,3.9-4C128.9,30.8,127.1,29,124.9,29L124.9,29z
		 M111.5,28.6c-2.7,0-4.8,2.3-4.8,5c0,2.7,2.3,4.8,5,4.8c2.7,0,4.8-2.3,4.8-5C116.4,30.7,114.2,28.6,111.5,28.6L111.5,28.6z
		 M72.1,31.2c-3.7,0.1-6.6,3.1-6.6,6.8c0.1,3.7,3.1,6.6,6.8,6.6c3.7-0.1,6.7-3.1,6.6-6.8C78.8,34.1,75.8,31.1,72.1,31.2L72.1,31.2z
		 M11.8,90.4c-3.7,0.1-6.6,3.1-6.6,6.8c0.1,3.7,3.1,6.7,6.8,6.6c3.7-0.1,6.7-3.1,6.6-6.8C18.6,93.3,15.5,90.4,11.8,90.4L11.8,90.4z
		 M9.2,145.8c-2.2,0-3.9,1.8-3.9,4c0,2.2,1.8,3.9,4,3.9c2.2,0,3.9-1.9,3.9-4C13.2,147.4,11.4,145.7,9.2,145.8L9.2,145.8z M9.9,127.8
		c-3,0-5.4,2.6-5.4,5.6c0,3,2.5,5.4,5.5,5.4c3,0,5.4-2.6,5.4-5.5C15.4,130.2,12.9,127.7,9.9,127.8L9.9,127.8z M29.8,36.3
		c-10.3,0.2-18.4,8.6-18.2,18.8c0.2,10.2,8.6,18.3,18.8,18.2c10.2-0.2,18.3-8.6,18.2-18.8C48.4,44.3,40,36.1,29.8,36.3L29.8,36.3z
		 M38.8,27.7L89.8,27c3.9,5,3.9,8.9,2.7,17.3C77.4,47,60.8,56.1,57.8,59C62.2,49.8,53.2,29.8,38.8,27.7L38.8,27.7z M95.1,26.9
		l27.2-0.7l0,0c0.5,0,1,0,1.5,0.1c4.4-0.4,11.1,2.3,9.9,7.2c-2.7,9.9-15.6,5.5-36.3,10.7c0.5-1.4,0.6-1.2,1-4.4
		C98.6,36.6,97.8,30.9,95.1,26.9L95.1,26.9z M0.8,28.6l0.3,24.3c1.9-12,11.6-21.8,23.4-24.7l-6.8,0.1L0.8,28.6L0.8,28.6z M30.4,77.2
		C18.3,77.4,8.2,67.8,8,55.6c-0.2-12.2,9.5-22.2,21.6-22.4c12.2-0.2,22.2,9.5,22.4,21.7C52.3,67,42.6,77,30.4,77.2L30.4,77.2z
		 M1.3,64.5l1,50.9c5.1,3.8,9,3.7,17.4,2.2c2.2-15,10.8-31.9,13.5-35.1C24.1,87.1,3.9,78.7,1.3,64.5L1.3,64.5z M26.7,50
		c0.4-0.3,1-0.5,1.5-0.7l0.4-1.8l2.1,0l0.4,1.7c0.5,0.1,1,0.3,1.5,0.6l1.5-0.9l1.4,1.4l-0.9,1.6c0.3,0.4,0.5,1,0.7,1.5l1.8,0.4l0,2
		l-1.7,0.5c-0.1,0.5-0.3,1-0.6,1.5l0.9,1.6l-1.4,1.4l-1.6-0.9c-0.4,0.3-1,0.5-1.5,0.7L31,62.2l-2,0l-0.5-1.7c-0.5-0.1-1-0.3-1.5-0.6
		l-1.6,1L24,59.6l0.9-1.6c-0.3-0.4-0.5-1-0.7-1.5l-1.7-0.4l0-2.1l1.7-0.5c0.1-0.5,0.3-1,0.6-1.5l-1-1.5l1.4-1.4L26.7,50L26.7,50z"/>
	<path fill-rule="evenodd" clip-rule="evenodd" fill="#C4B090" d="M24.4,746.2c0.9,0.6,1.9,1,3,1.2l1,3.5l4-0.1l0.8-3.4
		c1-0.3,2-0.7,2.9-1.3l3.2,1.8l2.8-2.9l-1.8-3c0.6-0.9,1-1.9,1.2-3l3.5-1l-0.1-4l-3.4-0.8c-0.3-1-0.7-2-1.3-2.9l1.8-3.2l-2.9-2.8
		l-3,1.8c-0.9-0.6-1.9-1-2.9-1.2l-1-3.5l-4,0.1l-0.8,3.4c-1,0.3-2,0.7-3,1.3l-3.2-1.8l-2.8,2.9l1.8,3c-0.6,0.9-0.9,1.9-1.2,3l-3.5,1
		l0.1,4l3.5,0.8c0.2,1,0.6,2,1.2,2.9l-1.8,3.2l2.9,2.8L24.4,746.2L24.4,746.2z M0.7,671.3L0,644.1l0,0c0-0.5,0-1,0.1-1.5
		c-0.4-4.3,2.4-11.1,7.2-9.8c9.8,2.7,5.5,15.6,10.7,36.3c-1.4-0.6-1.2-0.7-4.4-1C10.4,667.8,4.7,668.7,0.7,671.3L0.7,671.3z
		 M126.2,759c-2.2,0-4-1.7-4-3.9c0-2.2,1.7-4,3.9-4c2.2,0,4,1.7,4,3.9C130.1,757.2,128.3,759,126.2,759L126.2,759z M112.8,759.9
		c-2.7,0-4.9-2.1-5-4.8c0-2.7,2.1-5,4.8-5c2.7,0,4.9,2.2,5,4.9C117.7,757.6,115.5,759.8,112.8,759.9L112.8,759.9z M73.3,758.6
		c-3.7,0.1-6.7-2.9-6.8-6.6c-0.1-3.7,2.9-6.7,6.6-6.8c3.7-0.1,6.8,2.8,6.8,6.6C80,755.5,77,758.5,73.3,758.6L73.3,758.6z
		 M11.1,701.3c-3.7,0.1-6.7-2.8-6.8-6.6c-0.1-3.7,2.9-6.8,6.6-6.8c3.7-0.1,6.8,2.9,6.8,6.6C17.8,698.2,14.9,701.2,11.1,701.3
		L11.1,701.3z M6.7,646.1c-2.2,0-4-1.7-4-3.9c0-2.2,1.7-4,3.9-4c2.2,0,4,1.7,4,3.9C10.7,644.3,8.9,646.1,6.7,646.1L6.7,646.1z
		 M8,664c-3,0-5.5-2.3-5.5-5.4c0-3,2.3-5.5,5.4-5.5c3,0,5.5,2.3,5.5,5.4C13.4,661.5,11,664,8,664L8,664z M30.9,754.9
		c-10.3,0.2-18.7-8-18.8-18.2c-0.2-10.2,8-18.7,18.2-18.8c10.2-0.2,18.6,8,18.8,18.2C49.2,746.2,41.1,754.7,30.9,754.9L30.9,754.9z
		 M40.2,763.1l50.9-1c3.7-5.1,3.6-9,2.1-17.4c-15-2.2-31.9-10.8-35.1-13.5C62.8,740.3,54.5,760.5,40.2,763.1L40.2,763.1z
		 M96.5,762.1l27.2-0.2l0,0c0.5,0,1-0.1,1.5-0.2c4.4,0.2,11.1-2.7,9.6-7.5c-3-9.7-15.8-4.9-36.7-9.5c0.5,1.4,0.7,1.2,1.1,4.4
		C99.7,752.3,99,758,96.5,762.1L96.5,762.1z M2.1,763.5l-0.5-24.4c2.3,12,12.3,21.5,24.2,24l-6.8,0.1L2.1,763.5L2.1,763.5z
		 M30.1,713.9C18,714.1,8.3,724.1,8.5,736.3c0.2,12.2,10.2,21.8,22.4,21.6c12.2-0.2,21.9-10.2,21.7-22.4
		C52.4,723.4,42.3,713.7,30.1,713.9L30.1,713.9z M1.5,727.6l-0.7-50.9c5-3.9,8.9-4,17.3-2.7c2.7,15,11.8,31.6,14.7,34.6
		C23.5,704.3,3.6,713.3,1.5,727.6L1.5,727.6z M27.3,741.3c0.5,0.3,1,0.5,1.5,0.6l0.5,1.8l2.1,0l0.4-1.7c0.5-0.1,1-0.3,1.5-0.6
		l1.6,0.9l1.4-1.4l-0.9-1.5c0.3-0.5,0.5-1,0.6-1.5l1.8-0.5l0-2l-1.7-0.4c-0.1-0.5-0.3-1-0.6-1.5l0.9-1.6l-1.4-1.4l-1.5,0.9
		c-0.5-0.2-1-0.5-1.5-0.6l-0.5-1.7l-2,0l-0.4,1.7c-0.5,0.1-1,0.3-1.5,0.6l-1.6-0.9l-1.4,1.4l0.9,1.5c-0.2,0.5-0.5,1-0.6,1.5
		l-1.7,0.5l0,2l1.7,0.4c0.1,0.5,0.3,1,0.7,1.5l-0.9,1.6l1.4,1.4L27.3,741.3L27.3,741.3z"/>
	<path fill-rule="evenodd" clip-rule="evenodd" fill="#C4B090" d="M1031.9,45.1c-0.9-0.6-1.9-1.1-2.9-1.3l-0.8-3.5l-4-0.1l-1,3.4
		c-1,0.2-2,0.6-3,1.2l-3.1-1.9l-2.9,2.8l1.7,3.1c-0.6,0.9-1.1,1.8-1.3,2.9l-3.5,0.9l-0.1,4l3.4,0.9c0.2,1,0.6,2.1,1.2,3l-1.9,3.1
		l2.8,2.9l3.1-1.7c0.9,0.6,1.9,1,2.9,1.3l0.9,3.5l4,0.1l0.9-3.4c1-0.2,2.1-0.6,3-1.1l3.1,1.9l2.9-2.8l-1.7-3c0.6-1,1-1.9,1.3-2.9
		l3.5-0.8l0.1-4l-3.4-1c-0.2-1-0.5-2-1.1-3l1.9-3.1l-2.8-2.9L1031.9,45.1L1031.9,45.1z M1053.1,120.8l-0.2,27.2l0,0
		c0,0.5-0.1,1-0.2,1.5c0.3,4.3-2.7,11.1-7.5,9.6c-9.7-3-4.9-15.8-9.5-36.7c1.4,0.6,1.2,0.7,4.4,1.1
		C1043.3,123.9,1049,123.3,1053.1,120.8L1053.1,120.8z M930.6,29c2.2,0,3.9,1.9,3.9,4c0,2.2-1.9,3.9-4,3.9c-2.2,0-3.9-1.9-3.9-4
		C926.6,30.8,928.4,29,930.6,29L930.6,29z M943.9,28.6c2.7,0,4.8,2.3,4.8,5c0,2.7-2.3,4.8-5,4.8c-2.7,0-4.8-2.3-4.8-5
		C939,30.7,941.3,28.6,943.9,28.6L943.9,28.6z M983.4,31.2c3.7,0.1,6.6,3.1,6.6,6.8c-0.1,3.7-3.1,6.6-6.8,6.6
		c-3.7-0.1-6.7-3.1-6.6-6.8C976.6,34.1,979.7,31.1,983.4,31.2L983.4,31.2z M1043.7,90.4c3.7,0.1,6.6,3.1,6.6,6.8
		c-0.1,3.7-3.1,6.7-6.8,6.6c-3.7-0.1-6.7-3.1-6.6-6.8C1036.9,93.3,1039.9,90.4,1043.7,90.4L1043.7,90.4z M1046.3,145.8
		c2.2,0,3.9,1.8,3.9,4c0,2.2-1.8,3.9-4,3.9c-2.2,0-3.9-1.9-3.9-4C1042.3,147.4,1044.1,145.7,1046.3,145.8L1046.3,145.8z
		 M1045.5,127.8c3,0,5.4,2.6,5.4,5.6c0,3-2.5,5.4-5.5,5.4c-3,0-5.4-2.6-5.4-5.5C1040.1,130.2,1042.5,127.7,1045.5,127.8
		L1045.5,127.8z M1025.7,36.3c10.3,0.2,18.4,8.6,18.2,18.8c-0.2,10.2-8.6,18.3-18.8,18.2c-10.2-0.2-18.3-8.6-18.2-18.8
		C1007.1,44.3,1015.5,36.1,1025.7,36.3L1025.7,36.3z M1016.6,27.7L965.7,27c-3.9,5-3.9,8.9-2.7,17.3c15,2.7,31.6,11.8,34.6,14.7
		C993.3,49.8,1002.3,29.8,1016.6,27.7L1016.6,27.7z M960.3,26.9l-27.2-0.7l0,0c-0.5,0-1,0-1.5,0.1c-4.4-0.4-11.1,2.3-9.9,7.2
		c2.7,9.9,15.6,5.5,36.3,10.7c-0.5-1.4-0.6-1.2-1-4.4C956.8,36.6,957.7,30.9,960.3,26.9L960.3,26.9z M1054.7,28.6l-0.3,24.3
		c-1.9-12-11.6-21.8-23.4-24.7l6.8,0.1L1054.7,28.6L1054.7,28.6z M1025.1,77.2c12.1,0.2,22.2-9.5,22.4-21.6
		c0.2-12.2-9.5-22.2-21.6-22.4c-12.2-0.2-22.2,9.5-22.4,21.7C1003.2,67,1012.9,77,1025.1,77.2L1025.1,77.2z M1054.2,64.5l-1,50.9
		c-5.1,3.8-9,3.7-17.4,2.2c-2.2-15-10.8-31.9-13.5-35.1C1031.4,87.1,1051.6,78.7,1054.2,64.5L1054.2,64.5z M1028.8,50
		c-0.4-0.3-1-0.5-1.5-0.7l-0.4-1.8l-2.1,0l-0.4,1.7c-0.5,0.1-1,0.3-1.5,0.6l-1.5-0.9l-1.4,1.4l0.9,1.6c-0.3,0.4-0.5,1-0.7,1.5
		l-1.8,0.4l0,2l1.7,0.5c0.1,0.5,0.3,1,0.6,1.5l-0.9,1.6l1.4,1.4l1.6-0.9c0.4,0.3,1,0.5,1.5,0.7l0.4,1.7l2,0l0.5-1.7
		c0.5-0.1,1-0.3,1.5-0.6l1.6,1l1.4-1.4l-0.9-1.6c0.3-0.4,0.5-1,0.7-1.5l1.7-0.4l0-2.1l-1.7-0.5c-0.1-0.5-0.3-1-0.6-1.5l1-1.5
		l-1.4-1.4L1028.8,50L1028.8,50z"/>
	<path fill-rule="evenodd" clip-rule="evenodd" fill="#C4B090" d="M1029.5,746.3c-0.9,0.6-1.9,1-3,1.2l-1,3.5l-4-0.1l-0.8-3.4
		c-1-0.3-2-0.7-2.9-1.3l-3.2,1.8l-2.8-2.9l1.8-3c-0.6-0.9-1-1.9-1.2-3l-3.5-1l0.1-4l3.4-0.8c0.3-1,0.7-2,1.3-2.9l-1.8-3.2l2.9-2.8
		l3,1.8c0.9-0.6,1.9-1,2.9-1.2l1-3.5l4,0.1l0.8,3.4c1,0.3,2,0.7,3,1.3l3.2-1.8l2.8,2.9l-1.8,3c0.6,0.9,0.9,1.9,1.2,3l3.5,1l-0.1,4
		l-3.5,0.8c-0.2,1-0.6,2-1.2,2.9l1.8,3.2l-2.9,2.8L1029.5,746.3L1029.5,746.3z M1053.1,671.4l0.7-27.2l0,0c0-0.5,0-1-0.1-1.5
		c0.4-4.3-2.4-11.1-7.2-9.8c-9.8,2.7-5.5,15.6-10.7,36.3c1.4-0.6,1.2-0.7,4.4-1C1043.4,667.9,1049.1,668.8,1053.1,671.4
		L1053.1,671.4z M927.7,759.1c2.2,0,4-1.7,4-3.9c0-2.2-1.7-4-3.9-4c-2.2,0-4,1.7-4,3.9C923.7,757.2,925.5,759.1,927.7,759.1
		L927.7,759.1z M941,760c2.7,0,4.9-2.1,5-4.8c0-2.7-2.1-5-4.8-5c-2.7,0-4.9,2.2-5,4.9C936.2,757.7,938.3,759.9,941,760L941,760z
		 M980.6,758.7c3.7,0.1,6.7-2.9,6.8-6.6c0.1-3.7-2.9-6.7-6.6-6.8c-3.7-0.1-6.8,2.8-6.8,6.6C973.9,755.6,976.8,758.6,980.6,758.7
		L980.6,758.7z M1042.7,701.4c3.7,0.1,6.7-2.8,6.8-6.6c0.1-3.7-2.9-6.8-6.6-6.8c-3.7-0.1-6.8,2.9-6.8,6.6
		C1036,698.3,1039,701.3,1042.7,701.4L1042.7,701.4z M1047.1,646.2c2.2,0,4-1.7,4-3.9c0-2.2-1.7-4-3.9-4c-2.2,0-4,1.7-4,3.9
		C1043.2,644.3,1045,646.2,1047.1,646.2L1047.1,646.2z M1045.8,664.1c3,0,5.5-2.3,5.5-5.4c0-3-2.3-5.5-5.4-5.5c-3,0-5.5,2.3-5.5,5.4
		C1040.4,661.6,1042.8,664,1045.8,664.1L1045.8,664.1z M1023,754.9c10.3,0.2,18.7-8,18.8-18.2c0.2-10.2-8-18.7-18.2-18.8
		c-10.2-0.2-18.6,8-18.8,18.2C1004.6,746.3,1012.8,754.8,1023,754.9L1023,754.9z M1013.7,763.2l-50.9-1c-3.7-5.1-3.6-9-2.1-17.4
		c15-2.2,31.9-10.8,35.1-13.5C991.1,740.4,999.4,760.6,1013.7,763.2L1013.7,763.2z M957.3,762.1l-27.2-0.2l0,0c-0.5,0-1-0.1-1.5-0.2
		c-4.4,0.2-11.1-2.7-9.6-7.5c3-9.7,15.8-4.9,36.7-9.5c-0.5,1.4-0.7,1.2-1.1,4.4C954.2,752.3,954.8,758.1,957.3,762.1L957.3,762.1z
		 M1051.7,763.6l0.5-24.4c-2.3,12-12.3,21.5-24.2,24l6.8,0.1L1051.7,763.6L1051.7,763.6z M1023.7,714c12.1,0.2,21.8,10.2,21.6,22.4
		c-0.2,12.2-10.2,21.8-22.4,21.6c-12.2-0.2-21.9-10.2-21.7-22.4C1001.5,723.5,1011.5,713.8,1023.7,714L1023.7,714z M1052.3,727.7
		l0.7-50.9c-5-3.9-8.9-4-17.3-2.7c-2.7,15-11.8,31.6-14.7,34.6C1030.3,704.4,1050.2,713.4,1052.3,727.7L1052.3,727.7z M1026.5,741.3
		c-0.5,0.3-1,0.5-1.5,0.6l-0.5,1.8l-2.1,0l-0.4-1.7c-0.5-0.1-1-0.3-1.5-0.6l-1.6,0.9l-1.4-1.4l0.9-1.5c-0.3-0.5-0.5-1-0.6-1.5
		l-1.8-0.5l0-2l1.7-0.4c0.1-0.5,0.3-1,0.6-1.5l-0.9-1.6l1.4-1.4l1.5,0.9c0.5-0.2,1-0.5,1.5-0.6l0.5-1.7l2,0l0.4,1.7
		c0.5,0.1,1,0.3,1.5,0.6l1.6-0.9l1.4,1.4l-0.9,1.5c0.2,0.5,0.5,1,0.6,1.5l1.7,0.5l0,2l-1.7,0.4c-0.1,0.5-0.3,1-0.7,1.5l0.9,1.6
		l-1.4,1.4L1026.5,741.3L1026.5,741.3z"/>
	<path fill-rule="evenodd" clip-rule="evenodd" fill="#C4B090" d="M578.4,38.5c-0.4-0.3-0.7-0.6-1-0.9c-28.2-25-74.9-25.4-103.6-1.2
		c-0.3,0.3-0.7,0.7-1.1,0.9c-4,3.5-11.3,4.5-15.5,0.2c-6-6.1-0.2-14.1,5-17.8c33-26.9,94.6-26.3,127,1.4c5.2,3.9,10.8,11.9,4.6,17.9
		C589.6,43.3,582.3,42.1,578.4,38.5L578.4,38.5z M475.6,17.2c-1.9,1.8-1.9,4.9-0.1,6.7c1.8,1.9,4.9,2,6.8,0.1
		c1.9-1.8,1.9-4.9,0.1-6.8C480.5,15.3,477.5,15.3,475.6,17.2L475.6,17.2z M576.1,18.2c1.8,1.9,1.8,4.9-0.1,6.8
		c-1.9,1.8-4.9,1.8-6.8-0.1c-1.8-1.9-1.8-4.9,0.1-6.8C571.3,16.2,574.3,16.3,576.1,18.2L576.1,18.2z M589.6,28.1
		c1.8,1.9,1.8,4.9-0.1,6.8c-1.9,1.8-4.9,1.8-6.8-0.1c-1.8-1.9-1.8-4.9,0.1-6.8C584.7,26.2,587.7,26.2,589.6,28.1L589.6,28.1z
		 M543.6,6.8c1.8,1.9,1.8,4.9-0.1,6.7c-1.9,1.9-4.9,1.8-6.8-0.1c-1.8-1.9-1.8-4.9,0.1-6.8C538.7,4.9,541.8,4.9,543.6,6.8L543.6,6.8z
		 M559.6,10.6c1.8,1.9,1.8,4.9-0.1,6.8c-1.9,1.8-4.9,1.8-6.8-0.1c-1.8-1.9-1.8-4.9,0.1-6.8C554.7,8.7,557.7,8.7,559.6,10.6
		L559.6,10.6z M529.9,5.7c2.1,2.1,2.1,5.5-0.1,7.6c-2.1,2.1-5.5,2-7.6-0.1c-2.1-2.1-2-5.5,0.1-7.6C524.5,3.5,527.9,3.6,529.9,5.7
		L529.9,5.7z M461.9,26.8c-1.9,1.8-1.9,4.9-0.1,6.8c1.8,1.9,4.9,1.9,6.8,0.1c1.9-1.8,1.9-4.9,0.1-6.8
		C466.9,24.9,463.8,24.9,461.9,26.8L461.9,26.8z M508.4,6.5c-1.9,1.8-1.9,4.9-0.1,6.8c1.8,1.9,4.9,1.9,6.8,0.1
		c1.9-1.8,2-4.9,0.1-6.8C513.3,4.7,510.3,4.7,508.4,6.5L508.4,6.5z M492.3,10c-1.9,1.8-1.9,4.9-0.1,6.8c1.8,1.9,4.9,1.9,6.8,0.1
		c1.9-1.8,1.9-4.9,0.1-6.8C497.2,8.1,494.2,8.1,492.3,10L492.3,10z"/>
	<path fill="none" stroke="#C4B090" stroke-miterlimit="10" d="M596.2,755.3c107.4,0.1,215.4,0.1,322.7,0"/>
	<path fill="none" stroke="#C4B090" stroke-miterlimit="10" d="M133.8,755.3c107.2,0.1,213.3,0.1,320.5,0"/>
	<polygon fill-rule="evenodd" clip-rule="evenodd" fill="#C4B090" points="11.7,176 6.4,176 6.4,617.1 11.7,617.1 11.7,176 	"/>
	<line fill="none" stroke="#C4B090" stroke-miterlimit="10" x1="592.3" y1="33.5" x2="921.8" y2="33.5"/>
	<line fill="none" stroke="#C4B090" stroke-miterlimit="10" x1="133.9" y1="33.5" x2="459" y2="33.5"/>
	<polygon fill-rule="evenodd" clip-rule="evenodd" fill="#C4B090" points="1050.1,174.9 1044.8,174.9 1044.8,616 1050.1,616 
		1050.1,174.9 	"/>
	<path fill-rule="evenodd" clip-rule="evenodd" fill="#C4B090" d="M578,748c-0.4,0.3-0.7,0.6-1,0.9c-28.2,25-74.9,25.4-103.6,1.2
		c-0.3-0.3-0.7-0.7-1.1-0.9c-4-3.5-11.3-4.5-15.5-0.2c-6,6.1-0.2,14.1,5,17.8c33,26.9,94.6,26.3,127-1.4c5.2-3.9,10.8-11.9,4.6-17.9
		C589.2,743.2,582,744.4,578,748L578,748z M475.2,769.3c-1.9-1.8-1.9-4.9-0.1-6.7c1.8-1.9,4.9-2,6.8-0.1c1.9,1.8,1.9,4.9,0.1,6.8
		C480.2,771.2,477.1,771.2,475.2,769.3L475.2,769.3z M575.7,768.4c1.8-1.9,1.8-4.9-0.1-6.8c-1.9-1.8-4.9-1.8-6.8,0.1
		c-1.8,1.9-1.8,4.9,0.1,6.8C570.9,770.3,573.9,770.3,575.7,768.4L575.7,768.4z M589.2,758.5c1.8-1.9,1.8-4.9-0.1-6.8
		c-1.9-1.8-4.9-1.8-6.8,0.1c-1.8,1.9-1.8,4.9,0.1,6.8C584.3,760.4,587.4,760.4,589.2,758.5L589.2,758.5z M543.2,779.7
		c1.8-1.9,1.8-4.9-0.1-6.7c-1.9-1.9-4.9-1.8-6.8,0.1c-1.8,1.9-1.8,4.9,0.1,6.8C538.4,781.6,541.4,781.6,543.2,779.7L543.2,779.7z
		 M559.2,775.9c1.8-1.9,1.8-4.9-0.1-6.8c-1.9-1.8-4.9-1.8-6.8,0.1c-1.8,1.9-1.8,4.9,0.1,6.8C554.3,777.8,557.3,777.8,559.2,775.9
		L559.2,775.9z M529.6,780.8c2.1-2.1,2.1-5.5-0.1-7.6c-2.1-2.1-5.5-2-7.6,0.1c-2.1,2.1-2,5.5,0.1,7.6
		C524.1,783,527.5,782.9,529.6,780.8L529.6,780.8z M461.5,759.7c-1.9-1.8-1.9-4.9-0.1-6.8c1.8-1.9,4.9-1.9,6.8-0.1
		c1.9,1.8,2,4.9,0.1,6.8C466.5,761.6,463.4,761.6,461.5,759.7L461.5,759.7z M508,780c-1.9-1.8-1.9-4.9-0.1-6.8
		c1.8-1.9,4.9-1.9,6.8-0.1c1.9,1.8,2,4.9,0.1,6.8C512.9,781.8,509.9,781.8,508,780L508,780z M491.9,776.5c-1.9-1.8-1.9-4.9-0.1-6.8
		c1.8-1.9,4.9-1.9,6.8-0.1c1.9,1.8,1.9,4.9,0.1,6.8C496.9,778.4,493.8,778.4,491.9,776.5L491.9,776.5z"/>
</g>
</svg>
