<?xml version="1.0" encoding="utf-8"?>
<!-- Generator: Adobe Illustrator 18.0.0, SVG Export Plug-In . SVG Version: 6.00 Build 0)  -->
<!DOCTYPE svg PUBLIC "-//W3C//DTD SVG 1.1//EN" "http://www.w3.org/Graphics/SVG/1.1/DTD/svg11.dtd">
<svg version="1.1" id="Слой_1" xmlns="http://www.w3.org/2000/svg" xmlns:xlink="http://www.w3.org/1999/xlink" x="0px" y="0px"
	 viewBox="0 0 51.3 52.6" enable-background="new 0 0 51.3 52.6" xml:space="preserve">
<g>
	<g>
		<path fill="#443323" d="M45.2,14.2c-1.2-1-3.6-0.1-4.8,0.3c-1.8,0.7-3.7,1.9-4.5,3.7c-0.8-0.7-1.7-1.4-2.7-1.9
			c-0.9-0.5-1.9-0.9-2.9-1.1c0.7-0.8,1.4-1.7,1.7-2.7c0.4-1.2-0.1-2.6-0.8-3.6c-1.3-2-4.3-2.8-6.5-2.5c-2.5,0.3-5.1,1.4-6,3.9
			c-0.6,1.8-0.2,4.2,1.6,5.1c-0.7,0.2-1.3,0.4-1.9,0.6c-1.6,0.6-3,1.5-4.3,2.5c-0.5-1.7-2.4-2.7-3.8-3.4c-1.3-0.7-3.2-1.4-4.6-0.7
			c-1.3,0.6-1.6,1.8-0.3,2.7c0.3,0.2,0.6,0.3,0.9,0.5C6,18,6,18.8,6.2,19.4c0.2,0.4,0.5,0.6,0.9,0.8c-0.4,0.2-0.7,1-0.7,1.4
			c0,0.6,0.4,1,0.8,1.3c0.4,0.3,0.9,0.4,1.3,0.6c0.2,0.1,0.4,0.2,0.5,0.4c-0.5,0.1-0.7,0.6-0.7,1.2c0,0.5,0.4,1.5,0.9,1.6
			c-0.1,0.4-0.2,0.8-0.2,1.2c0,0,0,0,0,0c0,0.1,0,0.2,0,0.3C9,29,9,29.8,9.1,30.5c0,0.3,0,0.6,0,0.8c0,1.1,0.2,2.1,0.4,3
			c0,0.1,0,0.1,0,0.2c0.5,2,1.5,3.8,3,5.4c0.7,0.8,1.4,1.4,2.2,2.1c-0.7,0.6-2.3,2.9-1.3,3.7c0.5,0.4,1.5-0.4,1.8-0.7
			c0.5-0.4,1.3-1,1.6-1.6c1.1,0.6,2.3,1,3.5,1.4c2.9,0.9,6.1,0.6,9.1-0.2c1.7-0.4,3.2-1.1,4.5-2c0.3,1.2,2.7,2.8,3.6,1.5
			c0.5-0.7-1-2.9-1.6-3c2.3-2.2,3.9-5.2,4.3-8.7c0.2-2.1,0.2-4.3-0.3-6.3c0.5,0.1,0.9-1,1-1.3c0.2-0.4,0.2-1.1-0.3-1.2
			c1.4-1.3,3.2-3.1,1.2-3.5c0.1-0.1,0.2-0.1,0.2-0.2c0.7-0.5,1.3-0.9,1.5-1.6c0.2-0.6,0.1-1.3-0.3-1.6c0.3,0,0.6-0.1,0.9-0.1
			C45.6,16.5,46.3,15.1,45.2,14.2z M19.7,9.7c1.1-1.9,3.4-2.6,5.5-2.8c2-0.2,4.2,0.6,5.6,2.1c2,2.2,0.7,4.3-0.8,6.2
			c-0.4-0.1-0.9-0.2-1.3-0.3c1.2-0.6,1.7-2,1.6-3.3c-0.1-1.9-1.6-2.9-3.4-3.3c-2-0.5-4.5-0.3-6.1,1.3c-1.9,1.9-0.2,4.2,1.4,5.5
			c-0.4,0.1-0.7,0.1-1.1,0.2c0,0-0.1-0.1-0.1-0.1C18.7,14.4,18.7,11.5,19.7,9.7z M26.6,11.1c0.4,0.1,0.7,0.1,1.1,0.2
			c-0.2,0.4-0.2,1-0.3,1.4c-0.1,0.7-0.2,1.3-0.3,2c-0.2,0-0.4,0-0.5,0c0.1-0.5,0.1-1.1,0.1-1.6C26.8,12.4,26.8,11.8,26.6,11.1z
			 M27.8,12.8c0.1-0.4,0.2-0.9,0.2-1.4c0.2,0.1,0.5,0.2,0.7,0.3c0,0,0,0,0,0c-0.1,1-0.5,2-0.7,3.1c-0.2,0-0.4,0-0.5-0.1
			C27.6,14.1,27.7,13.5,27.8,12.8z M28.9,11.5c0-0.1-0.2-0.2-0.2-0.1c-1.9-1-5.1-0.8-7,0.1c0,0,0,0,0,0c0,0-0.1,0-0.1,0
			c-0.1,0.1,0,0.2,0.1,0.2c0,0.4,0.2,0.9,0.3,1.4c0.1,0.5,0.2,1,0.4,1.5c-1.7-1.5-2.7-3.9-0.2-5.4c1.4-0.8,3.3-0.8,4.8-0.5
			c1.5,0.3,2.6,1,3.1,2.5c0.5,1.5-0.2,2.9-1.5,3.7C28.6,13.7,29,12.6,28.9,11.5z M26.4,14.7c-0.3,0-0.6,0-0.9,0c0,0,0,0,0,0
			c0.1-0.6-0.1-1.2-0.1-1.8c0-0.6,0-1.2,0-1.9c0.3,0,0.7,0,1,0.1c0.1,0.7,0.1,1.3,0,2C26.4,13.6,26.2,14.2,26.4,14.7z M24.2,13.3
			c0-0.7,0-1.4-0.1-2.2c0,0,0,0,0,0c0.3,0,0.7-0.1,1.1-0.1c0,0.7-0.1,1.4-0.1,2.1c0,0.5-0.1,1.2,0.2,1.6c-0.4,0-0.7,0-1.1,0.1
			C24.3,14.3,24.2,13.8,24.2,13.3z M22.9,11.3c0.3-0.1,0.6-0.1,1-0.2c0,0.6,0,1.3,0,1.9c0,0.5-0.1,1.2,0.1,1.7c-0.2,0-0.4,0-0.6,0.1
			c-0.1-0.6-0.2-1.1-0.2-1.7C23.1,12.6,23.1,11.9,22.9,11.3z M23.1,14.9c-0.1,0-0.2,0-0.3,0c0,0,0,0,0,0c0,0,0,0,0,0
			c-0.3-0.6-0.4-1.3-0.5-1.9c-0.1-0.4-0.1-1-0.3-1.4c0.3-0.1,0.6-0.2,0.9-0.3c0.1,0.8,0.1,1.5,0.1,2.3
			C22.9,14.1,22.9,14.5,23.1,14.9z M5.6,16.9c-1.4-0.7-0.3-1.8,0.6-2.1c1.4-0.5,3.1,0.3,4.3,0.9c1.4,0.6,2.9,1.6,3.5,3.1
			c0,0,0,0,0,0c-0.5,0.5-1,1-1.5,1.5c-1.1-1-2.5-1.9-3.9-2.4c-0.6-0.2-1.2-0.4-1.9-0.6C6.4,17.2,6,17.1,5.6,16.9z M6.7,19.3
			c-0.2-0.2-0.6-1.4,0.1-1.6c0.5,0.2,1.1,0.3,1.6,0.4c1.4,0.5,2.9,1.5,4,2.5c-0.4,0.5-0.7,1-1.1,1.5c-0.7-0.7-1.6-1.2-2.6-1.6
			c-0.4-0.2-0.8-0.4-1.2-0.7C7.1,19.8,6.9,19.6,6.7,19.3z M8.1,22.9c-0.6-0.3-1.2-0.5-1.3-1.3c-0.1-0.7,0.3-1,0.9-1.1
			c0.1,0,0.2,0.1,0.2,0.1c1,0.6,2.1,1,3,1.9c0,0,0,0,0,0c0,0,0,0,0,0c0,0,0,0,0,0c-0.4,0.6-0.6,1.2-0.9,1.8
			C9.5,23.7,8.9,23.2,8.1,22.9z M8.9,25.4c-0.1-0.5-0.2-1.1,0.5-1.2c0,0,0,0,0,0c0.2,0.2,0.4,0.4,0.5,0.6c-0.2,0.5-0.3,1-0.4,1.6
			C9.2,26.1,9,25.8,8.9,25.4z M15.6,44.4c-0.5,0.4-1.1,1-1.8,1.1c-0.7,0,0.2-1.7,0.3-1.9c0.3-0.5,0.6-0.9,0.9-1.4
			c0.4,0.3,0.7,0.6,1.1,0.8c0.2,0.1,0.3,0.2,0.5,0.3C16.3,43.7,16,44.1,15.6,44.4z M37.4,44.1c-0.7,0.9-2.8-0.8-3.1-1.6
			c0.5-0.4,1.1-0.8,1.5-1.2c0,0,0,0.1,0.1,0.1C36.7,41.6,37.9,43.5,37.4,44.1z M40.1,29C40.1,29,40.1,29,40.1,29
			c-0.5,0.1-0.9,0.2-1.3,0.1c-0.2,0-0.2,0.2-0.1,0.3c0.1,0,0.2,0.1,0.3,0.1s0.3,0,0.4,0c0.2,0,0.4-0.1,0.6-0.1c0,0.4,0,0.8,0,1.2
			c0,0-0.1,0-0.2,0c-0.4,0.2-0.6,0.2-1,0c-0.1-0.1-0.2,0.1-0.2,0.2c0.2,0.5,0.9,0.4,1.3,0.2c0,0.4,0,0.8-0.1,1.1
			c-0.1,0-0.3,0.1-0.4,0.1c-0.3,0.1-0.5,0-0.8-0.1c-0.1,0-0.2,0.2-0.1,0.2c0.3,0.2,0.5,0.2,0.8,0.2c0.1,0,0.3,0,0.4-0.1
			c-0.3,2.1-0.9,4.2-2,6c-1.7,2.8-4.7,4.7-7.8,5.7c-3.4,1.1-6.9,1.2-10.3,0.2c-3.6-1.1-6.7-3.7-8.8-6.9c-0.5-0.9-0.9-1.8-1.2-2.8
			c0.4,0,1.1,0,1.1-0.5c0-0.1-0.1-0.1-0.1-0.1c-0.2,0-0.3,0.2-0.5,0.2c-0.2,0.1-0.4,0.1-0.6,0.1c-0.1-0.6-0.2-1.1-0.3-1.7
			c0.4,0.1,0.8,0.1,1.2-0.1c0.1,0,0.1-0.1,0.1-0.2c0-0.2-0.2-0.2-0.4-0.1c-0.3,0.1-0.6,0.1-0.9,0.1c-0.1-0.6-0.1-1.2-0.1-1.8
			c0.4,0.1,1.1,0.2,1.2-0.2c0,0,0-0.1-0.1-0.1c-0.2,0-0.4,0.1-0.6,0.1c-0.2,0-0.4,0-0.6,0c0-0.1,0-0.1,0-0.2c0-0.1,0-0.2,0-0.2
			c0.1-1,0.1-2.1,0.3-3.1c0.1-0.6,0.3-1.3,0.5-1.9c0.1,0,0.2-0.2,0.1-0.3c0.1-0.2,0.2-0.5,0.3-0.7c0,0,0,0,0,0
			c0.5-1.1,1.3-2.2,2.1-3.2c0,0,0.1,0,0.1-0.1c0.9-1,1.9-1.8,2.8-2.5c1.6-1.1,3.5-1.9,5.5-2.4c0.1,0,0.1,0,0.2,0
			c0.5-0.1,1-0.2,1.4-0.3c0.1,0,0.2,0,0.2,0c0.8-0.1,1.7-0.2,2.5-0.3c1.5-0.1,3.1,0.1,4.6,0.5c0.1,0.1,0.2,0.1,0.3,0.1
			c1.6,0.4,3.1,1.1,4.5,2c1.2,0.8,2.1,1.8,2.8,2.9c0,0,0,0,0,0c-0.1,0.1,0,0.3,0.2,0.3c0.7,1.2,1.3,2.5,1.7,3.8c0,0,0,0-0.1,0.1
			c-0.1,0.1,0,0.3,0.2,0.3c0.2,0.6,0.3,1.2,0.4,1.8C40,27.5,40.1,28.3,40.1,29z M40,25.9c-0.1-0.4-0.2-0.8-0.3-1.2
			c0.2-0.2,0.5-0.4,0.8-0.7c0,0,0,0,0.1,0C41.3,24.2,40.3,25.3,40,25.9z M42.4,21.6c-0.3,0.5-0.7,0.9-1.1,1.2
			c-0.5,0.5-1.2,0.9-1.7,1.4c-0.2-0.5-0.4-1-0.6-1.5c0,0,0,0,0,0c0.8-1,1.8-1.7,2.9-2.4c0,0,0,0,0,0C42.5,20.7,42.8,21,42.4,21.6z
			 M43.5,18.4c-0.2,0.8-1.1,1.2-1.7,1.6c-1.1,0.7-2.1,1.4-3,2.4c-0.3-0.6-0.6-1.2-1-1.8c0.9-1.4,2.1-2.4,3.6-3.2
			c0.5-0.2,1-0.4,1.5-0.4C43.5,17.1,43.7,17.7,43.5,18.4z M41.6,16.9c-1.6,0.7-3,1.9-4,3.3c-0.5-0.6-1-1.2-1.5-1.8
			c0.8-2,2.8-3,4.7-3.7c1-0.4,5-1.4,4.6,0.8C45.2,16.6,42.4,16.6,41.6,16.9z"/>
		<path fill="#443323" d="M35.6,29.5c0-0.4,0-0.7-0.1-1.1c0.3,0,0.5-0.2,0.7-0.3c0.2-0.2,0.2-0.4,0.2-0.7c0-0.2-0.2-0.4-0.4-0.5
			c-0.2-0.1-0.5,0-0.7,0.1c-0.1-0.3-0.1-0.5-0.2-0.8c0.5-0.2,0.9-0.7,0.7-1.3c-0.1-0.2-0.3-0.4-0.6-0.4c-0.3,0-0.5,0.1-0.7,0.3
			c-0.2-0.3-0.3-0.6-0.5-0.8c0.5-0.3,0.7-1.1,0.4-1.5c-0.2-0.3-0.7-0.4-1-0.3c-0.2,0.1-0.5,0.2-0.6,0.4c-0.3-0.3-0.6-0.5-0.9-0.8
			c0.3-0.3,0.5-0.6,0.5-1c-0.1-0.4-0.4-0.6-0.7-0.7c-0.3-0.1-0.7-0.1-1,0.1c-0.2,0.1-0.4,0.4-0.4,0.6c-0.3-0.2-0.7-0.3-1-0.5
			c0.2-0.6,0-1.3-0.6-1.5c-0.6-0.2-1,0.4-1.2,0.9c-0.2-0.1-0.5-0.1-0.7-0.1c0,0,0-0.1,0-0.1c-0.1-0.6-0.4-1.8-1.3-1.5
			c-0.4,0.1-0.5,0.6-0.6,0.9c0,0.1-0.1,0.4,0,0.5c-0.3,0-0.6,0-0.9,0c-0.1,0-0.2,0-0.3,0c-0.1-0.4-0.3-0.8-0.7-1
			c-0.3-0.1-0.6-0.1-0.8,0.1c-0.3,0.3-0.4,0.9-0.1,1.2c-0.6,0.2-1.1,0.4-1.6,0.7c-0.3-0.5-1-1.1-1.5-0.6c-0.2,0.2-0.3,0.5-0.3,0.7
			c0,0.2,0.2,0.5,0.4,0.7c-0.3,0.2-0.7,0.5-1,0.8c-0.2-0.3-0.6-0.7-1-0.7c-0.3,0-0.5,0.2-0.6,0.4c-0.2,0.5,0,1.2,0.6,1.4
			c-0.2,0.2-0.4,0.5-0.6,0.7c0,0,0-0.1-0.1-0.1c-0.3-0.3-0.8-0.5-1.2-0.5c-0.4,0-0.7,0.4-0.8,0.7c-0.2,0.6,0.4,1.4,1.1,1.5
			c-0.1,0.3-0.3,0.6-0.4,0.9c0,0,0,0,0,0c-0.8-0.3-1.9,0.1-1.7,1.1c0.1,0.5,0.8,1,1.3,0.9c-0.1,0.4-0.1,0.9,0,1.3c0,0,0,0-0.1,0
			c-0.7,0-1.4,0.5-1.2,1.3c0.1,0.6,0.8,0.9,1.4,0.7c0,0.4,0.1,0.7,0.2,1c-0.6,0.3-1,0.9-0.7,1.5c0.1,0.3,0.4,0.4,0.7,0.4
			c0.2,0,0.4-0.1,0.5-0.2c0.2,0.4,0.4,0.7,0.6,1.1c-0.1,0.1-0.3,0.3-0.3,0.4c-0.2,0.3-0.3,0.6-0.3,0.9c0,0.4,0.3,0.4,0.6,0.5
			c0.4,0,0.7,0,1-0.3c0,0,0,0,0,0c0.3,0.4,0.6,0.7,1,1c0,0,0,0,0,0c-0.4,0.5-0.6,1.2,0.1,1.5c0.2,0.1,0.5,0.1,0.8,0
			c0.2-0.1,0.5-0.3,0.5-0.6c0.5,0.3,0.9,0.5,1.4,0.7c-0.2,0.5,0,1.1,0.5,1.3c0.7,0.3,1.2-0.3,1.3-0.9c0.5,0.1,1,0.1,1.6,0.2
			c-0.1,0.2,0,0.4,0,0.5c0.1,0.2,0.3,0.4,0.5,0.5c0.7,0.3,1.2-0.6,1.4-1.1c0.5-0.1,1-0.2,1.5-0.4c0,0.2,0.2,0.5,0.3,0.6
			c0.2,0.2,0.6,0.3,0.9,0.2c0.6-0.2,0.8-1,0.7-1.5c0.4-0.2,0.7-0.4,1-0.6c0.1,0.2,0.4,0.4,0.6,0.5c0.3,0.1,0.6,0.1,0.9-0.1
			c0.2-0.1,0.4-0.4,0.4-0.7c0-0.2,0-0.7-0.3-0.8c0.3-0.2,0.5-0.5,0.8-0.8c0.2,0.2,0.4,0.4,0.8,0.4c0.3,0,0.4-0.2,0.5-0.4
			c0.1-0.2,0.1-0.5,0-0.7c0-0.1-0.1-0.2-0.2-0.3c0,0-0.1-0.1-0.2-0.1c0.3-0.4,0.5-0.8,0.7-1.3c0.2,0.1,0.5,0.2,0.7,0.1
			c0.3-0.1,0.4-0.4,0.5-0.7c0.1-0.3,0-0.6-0.1-0.8c-0.1-0.2-0.3-0.4-0.6-0.4c0.1-0.4,0.2-0.9,0.2-1.3c0,0,0.1,0,0.1,0
			c0.6,0,1-0.4,0.8-1C36.3,29.8,36,29.4,35.6,29.5z M35.5,25.1c0.1,0.3-0.2,0.5-0.5,0.7c-0.1-0.2-0.2-0.4-0.3-0.7
			C34.9,25,35.3,24.8,35.5,25.1z M33.6,22.6c0.2,0,0.5,0,0.6,0.3c0,0.2-0.1,0.4-0.2,0.6c-0.1,0.1-0.1,0.2-0.2,0.2
			c-0.2-0.3-0.4-0.5-0.7-0.8C33.2,22.8,33.4,22.7,33.6,22.6z M31.6,20.7c0.2,0.1,0.3,0.2,0.4,0.4c0,0.1,0,0.2-0.1,0.3
			c-0.1,0.1-0.2,0.3-0.3,0.4c-0.3-0.2-0.6-0.4-0.9-0.6C30.7,20.6,31.2,20.5,31.6,20.7z M28.6,19.4c0.4,0.1,0.4,0.6,0.3,1
			c-0.3-0.1-0.7-0.2-1-0.3C28,19.6,28.2,19.3,28.6,19.4z M25.3,19.1c0.1-0.3,0.2-0.6,0.4-0.6c0.5-0.1,0.6,0.9,0.6,1.2
			c-0.4,0-0.7-0.1-1.1-0.1c0,0,0-0.1,0-0.2C25.3,19.4,25.3,19.3,25.3,19.1z M22.7,19.1c0.4-0.3,0.7,0.3,0.8,0.6
			c-0.2,0-0.5,0.1-0.7,0.2c-0.1-0.1-0.2-0.2-0.2-0.4C22.5,19.3,22.5,19.2,22.7,19.1z M19.2,20.8c0-0.2,0-0.3,0.1-0.5
			c0.3-0.3,0.7,0.2,0.9,0.5c-0.2,0.1-0.5,0.3-0.7,0.4c0-0.1-0.1-0.1-0.2-0.2C19.3,21,19.3,20.9,19.2,20.8z M17,22.1
			c0,0,0.1-0.1,0.1-0.1c0.1,0,0.1-0.1,0.2-0.1c0.3,0,0.5,0.4,0.7,0.6c-0.2,0.2-0.4,0.4-0.5,0.5C17,23,16.9,22.5,17,22.1z M15,24.3
			c0.1-0.3,0.4-0.5,0.7-0.4c0.3,0.1,0.5,0.3,0.8,0.4c0,0,0,0,0,0c-0.2,0.3-0.5,0.7-0.7,1.1c0,0-0.1-0.1-0.1-0.1
			C15.3,25.2,14.9,24.7,15,24.3z M14.9,30.4c0,0.3,0,0.6,0,0.8c-0.4,0.1-0.8,0.2-1-0.3c-0.2-0.6,0.4-0.9,0.9-0.9c0,0,0.1,0,0.1,0
			C14.8,30.1,14.8,30.2,14.9,30.4C14.9,30.3,14.9,30.4,14.9,30.4z M14.9,27.9c-0.2,0.1-0.4,0.2-0.6,0c-0.2-0.1-0.3-0.3-0.4-0.5
			c-0.1-0.2,0-0.4,0.2-0.5c0.3-0.2,0.7-0.1,1.1-0.2C15.1,27.1,15,27.5,14.9,27.9z M15.1,34.2c-0.2,0-0.3-0.1-0.4-0.2
			c-0.2-0.4,0-0.8,0.4-1c0.1,0.4,0.2,0.7,0.4,1.1C15.4,34.1,15.3,34.1,15.1,34.2z M16.9,36.8c-0.3,0.1-0.6,0.1-0.9,0
			c0-0.3,0.1-0.5,0.2-0.8c0.1-0.1,0.2-0.2,0.2-0.3c0.2,0.3,0.4,0.7,0.7,1C17,36.7,16.9,36.8,16.9,36.8z M18.5,39.2
			c-0.4-0.2-0.2-0.7,0-0.9c0.2,0.2,0.5,0.4,0.8,0.5C19.1,39,18.9,39.3,18.5,39.2z M21.8,40.6c-0.4-0.1-0.5-0.5-0.5-0.9
			c0.4,0.1,0.8,0.2,1.2,0.3C22.4,40.4,22.2,40.8,21.8,40.6z M25.2,40.9c-0.2,0-0.3-0.1-0.3-0.3c-0.1-0.1,0-0.2,0-0.4
			c0.4,0,0.7,0,1.1-0.1C25.7,40.6,25.5,41,25.2,40.9z M29,40.2c-0.3,0.2-0.6,0-0.7-0.2c0,0-0.1-0.2-0.1-0.3c0.4-0.1,0.9-0.3,1.3-0.5
			C29.5,39.6,29.4,40,29,40.2z M32.2,38.5c-0.2,0.1-0.4,0.1-0.5,0c-0.1-0.1-0.2-0.2-0.3-0.3c0.4-0.2,0.7-0.5,1-0.7
			c0,0.2,0.1,0.3,0.1,0.5C32.4,38.2,32.3,38.4,32.2,38.5z M34.2,35.9c0,0.2,0,0.3,0,0.5c0,0.1,0,0.1-0.1,0.1c0,0,0,0,0,0
			c0,0,0,0,0,0c0,0,0,0,0,0c0,0,0,0,0,0c0,0,0,0-0.1,0c0,0-0.1,0-0.1-0.1c-0.1-0.1-0.2-0.2-0.3-0.3c0.1-0.1,0.2-0.3,0.3-0.4
			c0-0.1,0.1-0.1,0.1-0.2c0,0,0,0.1,0.1,0.1C34.2,35.8,34.2,35.9,34.2,35.9z M34,34.9c-1.4,2.6-4.5,4.1-7.3,4.7
			c-2.6,0.5-5.5-0.1-7.6-1.5c-1.5-1-2.5-2.4-3.1-4.1c0,0,0-0.1,0-0.1c0-0.1,0-0.1-0.1-0.1c-0.3-0.9-0.6-1.8-0.7-2.7c0,0,0-0.1,0-0.1
			c-1.1-5.5,3.9-10.6,9.2-11c3.4-0.2,7,1.4,9,4.1c0,0.1,0.1,0.1,0.1,0.1c0.4,0.6,0.8,1.2,1,1.8c0,0.1,0,0.2,0.1,0.2
			c0.1,0.3,0.2,0.5,0.3,0.8C35.7,29.6,35.3,32.7,34,34.9z M35.6,32.9c0.1,0.2,0.1,0.4,0.1,0.5c0,0.1-0.1,0.3-0.2,0.4
			c-0.2,0.1-0.4,0-0.5-0.1c0.1-0.3,0.2-0.7,0.3-1.1C35.4,32.7,35.5,32.8,35.6,32.9z M35.4,27.3c0.1-0.1,0.3-0.1,0.5-0.1
			c0.1,0,0.1,0.1,0.1,0.2c0,0.1,0,0.2-0.1,0.3c-0.1,0.1-0.3,0.1-0.4,0.2C35.5,27.7,35.5,27.5,35.4,27.3z M35.7,30.7
			C35.7,30.7,35.6,30.7,35.7,30.7c0-0.3,0-0.6,0-0.9c0.2,0.1,0.3,0.3,0.4,0.4C36.2,30.5,36,30.6,35.7,30.7z"/>
		<path fill="#443323" d="M37.2,28.8c0.1-0.1,0.2-0.1,0.3-0.2c0,0,0,0,0,0c0,0,0,0,0,0c0.6-0.3,0.6-1.2,0.2-1.7
			c-0.1-0.3-0.4-0.6-0.8-0.7c1-0.9-0.2-2.7-1.2-2.5c0.3-0.6,0.1-1.3-0.5-1.8c-0.4-0.4-0.9-0.5-1.4-0.5c-0.1,0-0.1,0-0.2,0
			c0.1-0.1,0.1-0.3,0.2-0.5c0.3-1.5-2.5-2.6-3.3-1.3c0-0.2-0.1-0.4-0.2-0.6c-0.2-0.4-0.7-0.9-1.1-1.1c-0.6-0.2-1-0.2-1.5,0.1
			c-0.1,0.1-0.3,0.3-0.3,0.3c0-0.3-0.1-0.5-0.2-0.7c-0.6-1.1-3-0.5-3,0.7c-1-0.9-3-0.5-3.2,0.8c-1-1-3.2-0.3-3.2,1.1
			c-1.2-0.6-2.8,0.9-2.5,2.3c-1.7-0.4-2.7,1.9-1.6,3.3c-2,0.2-2.4,2.3-0.9,3.5c-1.4,1-1.4,3.3,0.4,3.5c-1.1,1.4-0.1,2.6,1.6,2.9
			c-1.7,1.3,0.4,4.2,2.1,3.3c-0.1,0.6,0.3,1.3,0.7,1.6c0.7,0.6,1.7,0.5,2.4,0c-0.2,2,2.5,2.4,3.7,1.1c0,0.8,0.6,1.3,1.5,1.2
			c0.9-0.1,1.8-0.7,2.2-1.6c0.6,0.7,1.6,1,2.5,0.6c0.6-0.3,1.3-1.2,1.1-2c1.5,0.5,3.7-0.4,2.9-1.9c1.5,0.3,2.7-1,1.8-2.5
			c1.6-0.2,2.6-2.4,1.4-3.3C38.3,31.7,38.4,29.4,37.2,28.8z M36.5,31.8c-0.2,0-0.2,0.3,0,0.4c1.9,0.5,0.5,3-1,3
			c-0.2,0-0.2,0.3,0,0.3c0.9,1.4-0.3,2.7-1.8,2c-0.2-0.1-0.3,0.1-0.2,0.3c1.4,1.6-1.3,2.2-2.5,1.6c-0.2-0.1-0.3,0.1-0.3,0.2
			c-0.1,0.3,0,0.6,0,1c-0.1,0.4-0.4,0.7-0.7,0.9c-0.8,0.4-1.7,0.1-2.3-0.5c0-0.2-0.3-0.3-0.4-0.1c-0.2,0.7-0.9,1.2-1.6,1.4
			c-0.9,0.3-1.4-0.1-1.5-1.1c0-0.1-0.1-0.1-0.1-0.1c-0.1-0.1-0.2-0.1-0.3,0c-1,1.2-3.6,1-3.2-1c0-0.1-0.1-0.2-0.1-0.1
			c-0.1-0.1-0.2-0.1-0.3,0c-0.6,0.5-1.3,0.5-1.9,0.1c-0.3-0.2-0.5-0.5-0.6-0.8c-0.1-0.3,0-0.5,0-0.7c0,0,0.1-0.1,0.1-0.1
			c0.2-0.2-0.1-0.5-0.3-0.3c-0.7,0.6-1.5,0.4-2.1-0.3c-0.6-0.8-0.5-1.8,0.2-2.4c0.1-0.1,0.1-0.2,0-0.2c0-0.1,0-0.1-0.1-0.2
			c-1.4-0.3-2.8-1.2-1.4-2.6c0.1-0.1,0-0.4-0.2-0.4c-2,0-1.6-2.2-0.3-2.9c0.1-0.1,0.1-0.3,0-0.4c-1.8-0.9-1.3-2.8,0.6-3.1
			c0,0,0,0,0.1,0c0.2,0,0.3-0.2,0.2-0.3c-0.8-1.1-0.4-3.5,1.4-2.5c0.2,0.1,0.5-0.1,0.3-0.3c-0.8-1.3,1.2-3.2,2.1-1.8
			c0.2,0.3,0.6,0,0.4-0.2c-1-1.5,1.8-2.3,2.7-1c0,0,0,0,0,0c0.1,0.2,0.4,0.1,0.3-0.1c-0.2-0.7,0.2-1.2,0.9-1.4
			c0.7-0.1,1.3,0.1,1.8,0.6c0.1,0.1,0.3,0,0.4-0.1c0,0,0.1-0.1,0-0.1c-0.4-1.2,2.5-2,2.7,0c0,0.1,0.1,0.2,0.2,0.1
			c1-1.1,3.1-0.4,3.1,1.2c0,0.1,0.1,0.1,0.2,0c0.4-1.2,1.9-0.5,2.5,0c0.5,0.4,0.5,1,0.1,1.5c0,0.1,0,0.1,0,0.2
			c0,0.1,0.1,0.2,0.2,0.1c1.4-0.6,2.9,0.9,1.9,2.3c-0.1,0.1,0.1,0.3,0.2,0.2c0,0,0,0,0,0c0.1,0,0.1,0,0.1,0c0.7-0.6,2.3,1.4,0.8,2.1
			c-0.2,0.1-0.1,0.3,0.1,0.3c0.4,0,0.6,0.1,0.9,0.3c0.1,0.2,0.2,0.4,0.3,0.7c0,0.1,0,0.2,0,0.2c-0.2,0.2-0.2,0.4-0.3,0.6
			c-0.1,0.3-0.4,0.4-0.7,0.4c-0.2,0-0.2,0.2,0,0.3c0,0,0,0,0.1,0.1C38,29.3,38.1,32,36.5,31.8z"/>
		<path fill="#443323" d="M26.3,34.7c-0.1,1.1,0.9,2.2,2,1.8c0.7-0.2,1.1-0.9,1.2-1.6c0-0.1,0.1-0.2,0-0.2c0-0.1,0-0.2,0-0.3
			c-0.1-0.4-0.4-0.8-0.8-1c-0.1-0.1-0.3-0.1-0.5-0.1C27.2,32.5,26.4,33.9,26.3,34.7z M28.2,36.1C28.2,36.1,28.1,36.1,28.2,36.1
			c-0.1-0.3-0.1-0.6-0.1-0.9c0.1,0,0.1-0.1,0.2-0.2c0.3,0,0.6,0,0.9,0C29,35.5,28.7,35.9,28.2,36.1z M29.2,34.5
			C29.2,34.5,29.2,34.5,29.2,34.5c-0.3,0-0.6,0-0.9,0c0-0.1-0.1-0.1-0.1-0.2c0,0-0.1-0.1-0.2-0.1c0-0.3-0.1-0.5-0.1-0.8
			C28.5,33.5,29.1,33.8,29.2,34.5z M27.8,36.2c-0.6,0-1.1-0.5-1.2-1.2c0.3,0,0.6,0,1,0c0,0,0,0,0,0c0.1,0.1,0.1,0.1,0.2,0.1
			C27.8,35.5,27.8,35.9,27.8,36.2z M27.7,34.3c0,0-0.1,0.1-0.1,0.1c-0.1,0.1-0.1,0.2-0.1,0.2c0,0,0,0,0,0c-0.3,0-0.6,0.1-0.9,0.1
			c0-0.4,0.2-0.8,0.4-1.1c0,0,0.1,0,0.1,0c0.2-0.1,0.4-0.2,0.6-0.2C27.7,33.8,27.7,34,27.7,34.3z"/>
		<path fill="#443323" d="M34.1,29.5C34.1,29.5,34.1,29.5,34.1,29.5c-0.6-0.2-1-0.7-1.6-1c-0.1,0-0.3-0.1-0.4-0.1
			c0.5-2.4-0.7-4.9-3-6.1c-0.8-0.4-1.9-0.6-3-0.4c-0.4-0.4-0.8-0.7-0.8-1.2c0-0.2-0.2-0.2-0.3,0c0,0-0.1,0-0.1,0.1
			c-0.2,0.7-1.4,1.2-1.5,1.9c-0.6,0.4-1,0.8-1.3,1.4c-1.5,2.4-1.2,5.7,1,7.3c-1.5-1.1-3.9-0.8-5.1,0.5c-0.7,0.7-1.2,2.9-0.5,3.8
			c0.9,1.9,3.4,3,5.4,2c1.2-0.6,1.8-1.5,1.9-2.5c0,0.1,0,0.2,0,0.2c0.4,1.6,2.1,2.4,3.6,2.1c1.7-0.4,2.5-2.2,2.2-3.8
			c-0.2-1-1-1.5-2-1.6c1-0.3,1.9-0.9,2.6-1.9c0.1,0,0.2,0,0.3,0c0.1,0,0.3,0,0.5,0c-0.3,0.4-0.6,1-0.2,1.2c0.4,0.2,0.9-0.1,1.1-0.3
			c0.5-0.4,0.8-0.9,1.3-1.3C34.6,29.7,34.4,29.4,34.1,29.5z M25.3,28.4c0.5,0.4,1.1,0.5,1.7,0.5c1.1-0.1,1.7-1.2,1.7-2.2
			c0-1-1.1-2.1-2.2-1.8c-0.1,0-0.1,0.1-0.1,0.1c-0.4,0.1-0.8,0.3-1.1,0.6c0-0.8,0-1.5-0.1-2.3c0.2,0.2,0.5,0.2,0.8,0.1
			c0,0,0,0.1,0,0.1c0.2,0.3,0.3,0.4,0.6,0.4c0.1,0,0.3-0.2,0.4-0.3c0.5-0.5,0.9-0.3,1.4,0.4c0,0.2,0,0.4-0.1,0.6
			c0,0.3,0.2,0.4,0.4,0.5c0.2,0.1,0.4,0,0.6-0.1c0.7-0.3,0.7,1.1,0.2,1.5c0,0,0,0.1,0,0.1c0,0.3,0.3,0.5,0.5,0.7
			c0.8,0.7,0.1,1.4-0.6,1.2c-0.4-0.1-0.7,0.3-0.6,0.6c0.1,0.3,0,0.5-0.1,0.7c-0.5,0-0.9,0-1.4,0.1c0,0,0,0,0-0.1
			c-0.1-0.2-0.2-0.5-0.5-0.6c-0.5-0.2-0.8,0.3-1,0.7c0,0,0,0,0,0c0,0,0,0,0-0.1c0,0,0,0,0,0c0,0,0,0,0-0.1c-0.1-0.2-0.2-0.5-0.5-0.6
			c-0.1,0-0.1,0-0.2,0C25.2,29,25.2,28.7,25.3,28.4z M26.2,26.3c0,0,0,0.1,0,0.1c0,0,0,0,0,0c-0.1,0.1-0.1,0.2-0.1,0.3c0,0,0,0,0,0
			c-0.3,0.1-0.5,0.1-0.7,0.2c0-0.2,0-0.4,0-0.6c0.2-0.4,0.6-0.7,0.9-0.9C26.2,25.7,26.2,26,26.2,26.3z M26.1,27.1
			C26.1,27.1,26.1,27.1,26.1,27.1c0.1,0.3,0.3,0.5,0.5,0.5c0,0.1,0,0.2,0,0.2c0,0.2,0,0.3,0,0.5c0,0,0,0,0,0c-0.5,0-1-0.3-1.3-0.7
			c0-0.2,0-0.3,0-0.5C25.6,27.2,25.8,27.2,26.1,27.1z M27.4,26.7c0-0.1-0.1-0.2-0.2-0.3c-0.1-0.2-0.4-0.3-0.7-0.3c0-0.3,0-0.5,0-0.8
			c0,0,0.1,0,0.1,0c0.4,0.1,0.7,0.1,1.1,0.3c0.3,0.2,0.5,0.6,0.5,1c0,0,0,0,0,0C27.9,26.6,27.7,26.6,27.4,26.7z M28.2,27
			c-0.1,0.6-0.6,1.2-1.2,1.4c0,0-0.1,0-0.1,0c0-0.2,0-0.3,0-0.5c0-0.1,0-0.2,0-0.3c0.1,0,0.2-0.1,0.3-0.1c0.2-0.1,0.3-0.3,0.3-0.5
			C27.7,27,28,27,28.2,27z M26.6,26.5c0.1,0,0.2,0,0.3,0.1c0.2,0.1,0.3,0.4,0.1,0.6c-0.2,0.2-0.5,0.1-0.7-0.1
			c-0.1-0.1-0.1-0.2,0-0.4c0,0,0-0.1,0-0.1C26.5,26.6,26.6,26.6,26.6,26.5z M27.1,30c-0.1,0-0.1,0-0.2,0c-0.1,0-0.2,0-0.3,0
			C26.7,29.8,26.9,29.6,27.1,30z M24.5,23.7c0.2,0,0.4-0.1,0.5-0.3c0,0.9,0,1.8,0,2.6c-0.2,0.2-0.3,0.5-0.3,0.8
			c-0.1,0.4,0.1,0.8,0.3,1.1c0,0.4,0,0.9,0,1.3c-0.1,0-0.2,0-0.4,0.1c0,0,0,0,0,0c-0.1-0.2-0.3-0.5-0.6-0.5c-0.1,0-0.2,0.1-0.3,0.1
			c0,0,0,0,0,0c0,0,0,0,0,0c-0.1,0-0.1,0-0.2,0c-0.2-0.1-0.4-0.4-0.2-0.7c0.1-0.1,0.2-0.2,0.3-0.2c0,0,0,0,0,0c0,0,0,0,0,0
			c0,0,0.1-0.1,0.1-0.1c0,0,0,0,0.1,0c0,0,0,0,0.1-0.1c0-0.1,0.1-0.1,0.1-0.2c0.1-0.2,0-0.5-0.1-0.6c-0.3-0.3-0.7-0.9-0.1-1.1
			c0.2-0.1,0.5-0.1,0.7-0.3C25,24.9,24.2,24.3,24.5,23.7z M22.5,37.5c-1.7,0.7-3.2-0.2-4.2-1.5c0,0,0-0.1,0-0.1
			c-0.1,0-0.1-0.1-0.1-0.1c-0.1-0.1-0.2-0.3-0.3-0.4c0,0-0.1-0.1-0.1-0.1c-0.5-1,0-2.5,0.7-3.3c1.2-1.2,3.6-1,4.8,0.1
			C25.2,33.8,25,36.5,22.5,37.5z M24.9,34.3c-0.1-0.9-0.6-1.8-1.3-2.6c-0.1-0.1-0.2-0.2-0.3-0.3c0.4,0.3,0.9,0.5,1.5,0.7
			c0.5,0.1,1,0.2,1.6,0.2C25.6,32.8,25.1,33.5,24.9,34.3z M30.2,33.4c0.8,1.3-0.2,3-1.3,3.6c-1.3,0.7-2.7,0.1-3.4-1.1
			c-0.8-1.4,0-2.6,1.2-3.2h0C27.9,32.4,29.5,32.2,30.2,33.4z M25.9,31.9c-4.1-0.2-5.1-4.5-3.5-7.7c0,0,0-0.1,0-0.1
			c0.2-0.4,0.6-0.8,1-1c0.1,0.4,0.4,0.7,0.7,0.7c-0.1,0.1-0.1,0.3-0.1,0.5c0.1,0.4,0.7,0.6-0.1,1.1c-0.2,0.1-0.4,0.1-0.7,0.2
			c-0.6,0.3-0.7,0.8-0.3,1.4c0.2,0.3,0.6,0.5,0.1,0.8c-0.2,0.2-0.4,0.5-0.3,0.8c0.1,0.3,0.3,0.7,0.6,0.8c0.3,0.1,0.5-0.2,0.8,0.2
			c0,0,0,0,0,0c-0.2,0.2-0.3,0.4-0.4,0.6c-0.2,0.7,0.5,1.2,1.2,1.1c0,0,0,0,0,0c0.4,0,0.7-0.3,0.8-0.7c0.1,0,0.1,0,0.2,0
			c0,0,0.1-0.1,0.1-0.2c0.2,0,0.4,0,0.6,0c0.1,0,0.2,0,0.3,0c0.1,0.2,0.2,0.4,0.4,0.5c0.5,0.1,1.2-0.1,1.5-0.5c0.1,0,0.2,0,0.3,0
			c0.5,0,1,0,1.5,0C29.8,31.7,27.9,32,25.9,31.9z M31.2,29.8c-0.6,0-1.2,0-1.8,0.1c0,0,0,0-0.1,0c0-0.2-0.1-1.2,0.4-1
			c0.2,0.1,0.4,0.3,0.6,0.1c0.5-0.3,0.7-1.1,0.5-1.7c-0.1-0.2-1.1-0.5-0.6-0.9c0.2-0.1,0.3-0.4,0.4-0.6c0-0.3-0.3-1.5-0.8-1.2
			c-1.4,0.6-0.6-0.9-1.2-1.3c-0.3-0.2-0.6-0.3-0.9-0.2c-0.3,0.1-1.1,0.9-1.4,0.4c0,0-0.1-0.1-0.1-0.1c0.1-0.1,0.2-0.2,0.3-0.3
			c0.2-0.4,0.1-0.6-0.1-0.9c0.9-0.1,1.7,0,2.4,0.2c2.5,0.8,3.6,3.6,3,6c-0.2,0-0.4,0.1-0.4,0.2c-0.1,0.2-0.1,0.5,0.1,0.7
			C31.4,29.5,31.3,29.6,31.2,29.8z M31.8,29.8c-0.1,0-0.1,0-0.2,0c0-0.1,0.1-0.1,0.1-0.2c0.1,0.1,0.2,0.1,0.2,0.2
			C31.9,29.8,31.9,29.8,31.8,29.8z"/>
		<path fill="#443323" d="M22.4,32.1c-0.5-0.3-1.5-0.5-2-0.1c0,0,0,0,0,0.1c-0.7,0.3-1.2,1.1-1.3,1.9c-0.2,1.4,0.9,2.5,2.3,2.4
			c1.2-0.1,2.5-1.2,2.3-2.5C23.5,33,23.1,32.4,22.4,32.1z M22.9,33.1c-0.4,0.2-0.8,0.4-1.2,0.6c0-0.1,0-0.2-0.1-0.3
			c0,0,0-0.1-0.1-0.1c0.3-0.2,0.5-0.5,0.7-0.8C22.5,32.6,22.7,32.8,22.9,33.1z M21.7,32.2c0.1,0,0.2,0,0.2,0.1
			c-0.2,0.2-0.3,0.4-0.5,0.6c0-0.2-0.1-0.5-0.1-0.7C21.4,32.2,21.5,32.2,21.7,32.2z M21.2,33.4C21.2,33.4,21.2,33.4,21.2,33.4
			c0.1,0,0.1,0,0.2,0c0,0,0,0,0,0c0.1,0.2,0.1,0.4,0,0.5c0,0,0,0,0,0c-0.1,0-0.1,0.1-0.1,0.2c0,0,0,0,0,0c0,0-0.1,0-0.1,0
			c0-0.1-0.1-0.2-0.2-0.1c0,0,0-0.1,0-0.1c0,0,0,0,0,0c0.2,0,0.2-0.3,0.1-0.3c0,0,0,0,0,0C21,33.6,21.1,33.5,21.2,33.4z M20.8,32.2
			c0.1,0,0.1,0,0.2,0c0,0.3,0,0.6,0,0.9c-0.2,0-0.3,0-0.4,0.2c0,0,0,0.1,0,0.1c0,0,0,0,0.1,0c0,0-0.1,0.1-0.1,0.1
			c-0.1-0.1-0.3-0.2-0.4-0.4c-0.1-0.1-0.2-0.3-0.3-0.4C20.2,32.5,20.5,32.3,20.8,32.2z M19.8,32.9c0.1,0.3,0.4,0.5,0.6,0.7
			c-0.2,0-0.4-0.1-0.5-0.1c-0.1,0-0.2,0-0.4,0C19.6,33.3,19.7,33.1,19.8,32.9z M19.5,35.1c-0.2-0.4-0.2-0.9-0.1-1.3
			c0.2,0,0.3,0.1,0.5,0.1c0.2,0.1,0.4,0.1,0.6,0.2c0,0.1,0,0.2,0.1,0.3c-0.1,0.1-0.3,0.2-0.4,0.3C19.9,34.7,19.7,34.9,19.5,35.1z
			 M19.7,35.3c0.2-0.2,0.5-0.4,0.7-0.5c0.1-0.1,0.2-0.1,0.2-0.2c-0.1,0.4-0.3,0.8-0.4,1.1C20,35.6,19.8,35.5,19.7,35.3z M21.3,35.9
			c-0.3,0-0.6,0-0.9-0.1c0.2-0.4,0.4-0.9,0.5-1.3c0.1,0,0.2,0,0.3,0c0,0.5,0.2,0.9,0.4,1.3C21.5,35.9,21.4,35.9,21.3,35.9z
			 M21.9,35.8c-0.1-0.2-0.2-0.4-0.3-0.6c-0.1-0.2-0.1-0.4-0.1-0.5c0.1,0.1,0.3,0.2,0.4,0.3c0.2,0.1,0.4,0.3,0.6,0.4
			C22.4,35.5,22.2,35.7,21.9,35.8z M22.7,35.3c-0.1-0.2-0.3-0.3-0.4-0.4c-0.2-0.2-0.5-0.5-0.7-0.7c0,0,0-0.1,0-0.1
			c0.2,0,0.5,0.1,0.7,0.1c0.3,0,0.5,0.2,0.8,0.2C23.1,34.7,23,35,22.7,35.3z M23.2,33.6c0.1,0.1,0.1,0.3,0.1,0.4
			c-0.2-0.1-0.4-0.1-0.6-0.2c-0.1,0-0.2,0-0.3,0c0.3-0.1,0.6-0.3,0.7-0.5C23.1,33.4,23.1,33.5,23.2,33.6z"/>
	</g>
	<path fill="#443323" d="M50.8,26.7c0-4.3,0-8.7,0-13c0-3.4,0.2-6.9,0-10.3c-0.1-1.9-0.4-3.3-2.5-3.5c-1.6-0.1-3.2,0.1-4.8,0.1
		C41.7,0,39.8,0,38,0.1c-3.5,0.2-7,0.2-10.5,0.1c-3.5-0.1-7,0.1-10.4,0c-3.5-0.1-7,0.2-10.6,0.1c-1.9-0.1-5-0.6-6.3,1.3
		c-0.5,0.8-0.6,1.9-0.5,2.9c-0.1,3.6,0.2,7.2,0,10.8c-0.1,3.9,0,7.7,0.2,11.6c0.3,7.3-0.7,14.6-0.2,21.9c0,0,0,0.1,0,0.1
		c0.1,1.1,0.1,2.1,0.8,2.9c0.9,1,3,0.3,4.1,0.3c4.2-0.1,8.4-0.3,12.6-0.4c4.3-0.1,8.5,0,12.8,0c4.2,0,8.4-0.3,12.6-0.4
		c1.9,0,3.7,0.2,5.6,0.1c0.9,0,1.6-0.3,2-1.2c0.6-1.3,0.2-3.2,0.2-4.5c-0.1-2.2-0.1-4.3,0-6.5C50.6,35.1,50.9,30.9,50.8,26.7z
		 M50,42.9c0,2.3,0.4,4.8,0,7.1c-0.2,1.2-1.5,1.2-2.5,1.2c-1.3,0-2.6-0.1-3.9-0.1c-5-0.1-10.1,0.4-15.1,0.4
		c-5.1,0-10.2-0.1-15.4,0.1c-2.5,0.1-5,0.2-7.5,0.2c-1.1,0-2.1,0.1-3.2,0.2c-1.6,0.2-2.1-0.8-2.3-2c0,0,0-0.1,0-0.1
		c-0.1-3.7-0.3-7.3-0.1-11c0.2-3.8,0.4-7.6,0.3-11.3c-0.1-3.9-0.4-7.7-0.2-11.6C0.2,12.9,0.1,10,0,7c0,0,0.1,0,0.1-0.1
		C0.1,5.8,0,4.6,0,3.4C0.1,1,1.8,0.6,3.9,0.6C6,0.5,8,0.7,10.1,0.7c2.2-0.1,4.3-0.2,6.5-0.2c4.1,0.1,8.3,0,12.5,0.1
		c4.2,0.1,8.3-0.1,12.5-0.3c2-0.1,4-0.1,6-0.1c0.9,0,1.9,0,2.5,0.8c0.7,0.9,0.5,2.4,0.5,3.4c0.1,4.3-0.1,8.6-0.1,12.9
		c0,4.3,0,8.7,0.1,13C50.6,34.5,49.9,38.7,50,42.9z"/>
	<path fill="#443323" d="M48.7,20.1c-0.1-2.2-0.4-4.3-0.3-6.4c0-3.6,2.5-10.8-3.1-11.3c-1-0.1-2,0.1-3,0.1c-1.4,0.1-2.8,0-4.1,0
		c-3.6-0.1-7.1-0.2-10.7-0.2C20.7,2.4,14,3,7.4,2.3C5.7,2.1,2.8,1.9,1.9,3.7c0,0,0,0-0.1,0C1.3,4.6,1.4,5.6,1.5,6.6
		c-0.1,1.7-0.1,3.4,0,5.1c0,0.4,0,0.8,0,1.2c-0.1,3.8,0.2,7.6,0.1,11.4c0,3.9-0.1,7.8,0,11.8c0.1,3.5,0,7,0.1,10.5c0,0,0,0.1,0,0.1
		c0,0.2,0,0.5,0.1,0.8c0,0.2,0,0.3,0,0.5c0,0.1,0.1,0.1,0.1,0.2c0.1,0.3,0.3,0.6,0.6,0.8c1.3,0.7,3,0.8,4.5,0.9
		c4.3,0.4,8.6,0.2,12.9,0.3c4.2,0.1,8.3,0.1,12.5-0.2c3.2-0.3,6.4,0.1,9.7,0c1.6,0,4.4-0.1,5.4-1.7c0.6-1,0.6-2.5,0.6-3.6
		c0.1-2-0.1-4.1,0.1-6.1c0.2-2,0.5-4,0.6-5.9c0.1-2.2,0-4.3,0-6.5C48.8,24.1,48.8,22.1,48.7,20.1z M48.4,33.6c-0.1,2-0.5,4-0.6,5.9
		c-0.2,2,0,4-0.1,6c-0.1,2-0.5,3-2.5,3.6c-1.4,0.4-2.8,0.4-4.2,0.4c-1.7,0-3.4,0-5.1-0.1c-2.3-0.1-4.6,0.2-6.8,0.3
		c-4.7,0.3-9.5,0-14.2-0.1c-2.4,0-4.9-0.2-7.3-0.3c-1.2,0-2.4-0.3-3.6-0.5c-1.1-0.2-1.5-0.8-1.7-1.7c0.1-3.5-0.1-7.1-0.2-10.7
		C1.9,32.8,2,29.1,2,25.3c0-3.7-0.1-7.3-0.2-11c0-1.8,0.1-3.6,0.1-5.5c0-0.3,0-0.5,0-0.8c0,0,0.1-0.1,0.1-0.1c0-0.9,0-1.8,0-2.8
		c0,0,0,0,0-0.1c0-0.1,0-0.3,0-0.4C2,2.1,5.6,2.4,7.4,2.6c3.9,0.4,7.8,0.4,11.7,0.3c4.3-0.1,8.6-0.3,12.9-0.2
		c3.7,0.1,7.4,0.4,11.1,0.1c1.3-0.1,2.7-0.2,3.8,0.4c1.9,1,1.7,4.1,1.5,5.8c-0.2,1.9-0.5,3.7-0.5,5.6c0,2.2,0.3,4.3,0.4,6.4
		C48.5,25.2,48.7,29.5,48.4,33.6z"/>
	<path fill="#443323" d="M7.8,4.7C7.3,3.8,5.7,3,5,4.2C4.2,4.8,3.8,5.9,4,6.9c0.3,1.6,2.1,1.8,3.3,1.1C8.5,7.4,8.5,5.7,7.8,4.7z
		 M7.2,7.6c-1,0.8-2.6,0.5-3-0.8C4,5.6,4.8,4.3,6.1,4.1c0,0,0.1,0,0.1-0.1c0.1,0,0.2,0,0.3,0c0.5,0.1,0.8,0.5,1.1,0.8
		C8.1,5.7,8.1,7,7.2,7.6z"/>
	<path fill="#443323" d="M6.7,5.4c-0.3-0.5-1.1-0.5-1.3,0c0,0,0,0,0,0C5.1,5.6,5,5.9,5,6.2C5.1,6.8,5.7,7,6.2,6.8
		C6.7,6.5,7,5.9,6.7,5.4z M6,6.4C5.7,6.6,5.3,6.4,5.4,6C5.4,5.7,5.7,5.6,6,5.4c0.2,0,0.3,0.1,0.4,0.2C6.6,6,6.3,6.3,6,6.4z"/>
	<path fill="#443323" d="M47.2,5.6c-0.4-1.2-1.9-2-3-1.5c-2.1,0.5-1.8,4.5,0.8,4.4C46.5,8.5,47.6,7.1,47.2,5.6z M44.8,8.1
		c-1.9,0.1-2.2-2.6-0.9-3.5c1.2-0.2,2.2-0.2,2.8,1C47.4,6.9,46.1,8,44.8,8.1z"/>
	<path fill="#443323" d="M46.1,5.4C45.8,5,45.4,5,45,5.1c-0.4,0.2-0.7,0.5-1,0.9c0,0.1,0,0.1,0.1,0.1c0,0,0.1-0.1,0.1-0.1
		c0,0.1-0.1,0.3,0,0.4c0.1,0.7,0.8,1.1,1.4,0.8C46.3,7,46.6,6,46.1,5.4z M45.5,6.9c-0.4,0.3-0.8-0.1-0.9-0.5c-0.1-0.3,0-0.5,0.2-0.7
		c0,0,0,0,0,0c0.3-0.2,0.5-0.4,0.8-0.2C46.2,5.8,45.9,6.7,45.5,6.9z"/>
	<path fill="#443323" d="M46,43.9c-0.5-1-2.4-2.2-3.2-1c0,0,0,0.1,0,0.1c-1,0.7-1.5,1.8-1.2,3c0.4,1.6,2.5,2.1,3.8,1.3
		C46.6,46.7,46.5,45,46,43.9z M45.3,46.8c-1,0.9-3,0.3-3.4-0.8c-0.5-1.2,0.5-2.5,1.6-3.1C45.4,42.4,46.7,45.5,45.3,46.8z"/>
	<path fill="#443323" d="M44.4,44.2c-0.3-0.4-1.3-0.4-1.4,0.2c0,0,0,0,0,0c0,0,0,0.1-0.1,0.1c-0.3,0.4-0.3,0.9,0,1.3
		c0.4,0.5,1.3,0.7,1.6,0C44.9,45.4,44.8,44.6,44.4,44.2z M44.4,45.5C44.3,46,44,46,43.6,45.8c-0.4-0.2-0.6-0.5-0.5-0.9
		c0.1-0.3,0.3-0.6,0.6-0.7c0.1,0,0.2,0,0.3,0.2C44.4,44.7,44.4,45.2,44.4,45.5z"/>
	<path fill="#443323" d="M8.8,44.7c-0.2-1.2-1.6-2.6-2.8-2c-2.1,0.2-2.6,4.9,0.3,5C7.9,47.8,9,46.4,8.8,44.7z M6.2,47.3
		c-2.2,0-2.1-3.3-0.7-4.1c0,0,0,0,0,0c0.6,0,1.1-0.2,1.7,0.1c0.6,0.3,0.9,0.9,1,1.4C8.7,46.2,7.7,47.3,6.2,47.3z"/>
	<path fill="#443323" d="M7.3,44.6c-0.1-0.2-0.3-0.4-0.6-0.5c-0.2,0-0.5,0-0.7,0.1c-0.4,0.2-0.6,0.7-0.5,1.1c0.1,0.7,0.7,1,1.3,0.7
		C7.4,45.8,7.5,45.1,7.3,44.6z M6.7,45.6c-0.3,0.3-0.8,0-0.8-0.3c0-0.2,0-0.4,0.1-0.5c0-0.1,0.1-0.1,0.2-0.2c0.3,0,0.5-0.2,0.7,0.1
		C7,45,6.9,45.4,6.7,45.6z"/>
</g>
<g>
	<g>
		<path fill="#443323" d="M45.2,14.2c-1.2-1-3.6-0.1-4.8,0.3c-1.8,0.7-3.7,1.9-4.5,3.7c-0.8-0.7-1.7-1.4-2.7-1.9
			c-0.9-0.5-1.9-0.9-2.9-1.1c0.7-0.8,1.4-1.7,1.7-2.7c0.4-1.2-0.1-2.6-0.8-3.6c-1.3-2-4.3-2.8-6.5-2.5c-2.5,0.3-5.1,1.4-6,3.9
			c-0.6,1.8-0.2,4.2,1.6,5.1c-0.7,0.2-1.3,0.4-1.9,0.6c-1.6,0.6-3,1.5-4.3,2.5c-0.5-1.7-2.4-2.7-3.8-3.4c-1.3-0.7-3.2-1.4-4.6-0.7
			c-1.3,0.6-1.6,1.8-0.3,2.7c0.3,0.2,0.6,0.3,0.9,0.5C6,18,6,18.8,6.2,19.4c0.2,0.4,0.5,0.6,0.9,0.8c-0.4,0.2-0.7,1-0.7,1.4
			c0,0.6,0.4,1,0.8,1.3c0.4,0.3,0.9,0.4,1.3,0.6c0.2,0.1,0.4,0.2,0.5,0.4c-0.5,0.1-0.7,0.6-0.7,1.2c0,0.5,0.4,1.5,0.9,1.6
			c-0.1,0.4-0.2,0.8-0.2,1.2c0,0,0,0,0,0c0,0.1,0,0.2,0,0.3C9,29,9,29.8,9.1,30.5c0,0.3,0,0.6,0,0.8c0,1.1,0.2,2.1,0.4,3
			c0,0.1,0,0.1,0,0.2c0.5,2,1.5,3.8,3,5.4c0.7,0.8,1.4,1.4,2.2,2.1c-0.7,0.6-2.3,2.9-1.3,3.7c0.5,0.4,1.5-0.4,1.8-0.7
			c0.5-0.4,1.3-1,1.6-1.6c1.1,0.6,2.3,1,3.5,1.4c2.9,0.9,6.1,0.6,9.1-0.2c1.7-0.4,3.2-1.1,4.5-2c0.3,1.2,2.7,2.8,3.6,1.5
			c0.5-0.7-1-2.9-1.6-3c2.3-2.2,3.9-5.2,4.3-8.7c0.2-2.1,0.2-4.3-0.3-6.3c0.5,0.1,0.9-1,1-1.3c0.2-0.4,0.2-1.1-0.3-1.2
			c1.4-1.3,3.2-3.1,1.2-3.5c0.1-0.1,0.2-0.1,0.2-0.2c0.7-0.5,1.3-0.9,1.5-1.6c0.2-0.6,0.1-1.3-0.3-1.6c0.3,0,0.6-0.1,0.9-0.1
			C45.6,16.5,46.3,15.1,45.2,14.2z M19.7,9.7c1.1-1.9,3.4-2.6,5.5-2.8c2-0.2,4.2,0.6,5.6,2.1c2,2.2,0.7,4.3-0.8,6.2
			c-0.4-0.1-0.9-0.2-1.3-0.3c1.2-0.6,1.7-2,1.6-3.3c-0.1-1.9-1.6-2.9-3.4-3.3c-2-0.5-4.5-0.3-6.1,1.3c-1.9,1.9-0.2,4.2,1.4,5.5
			c-0.4,0.1-0.7,0.1-1.1,0.2c0,0-0.1-0.1-0.1-0.1C18.7,14.4,18.7,11.5,19.7,9.7z M26.6,11.1c0.4,0.1,0.7,0.1,1.1,0.2
			c-0.2,0.4-0.2,1-0.3,1.4c-0.1,0.7-0.2,1.3-0.3,2c-0.2,0-0.4,0-0.5,0c0.1-0.5,0.1-1.1,0.1-1.6C26.8,12.4,26.8,11.8,26.6,11.1z
			 M27.8,12.8c0.1-0.4,0.2-0.9,0.2-1.4c0.2,0.1,0.5,0.2,0.7,0.3c0,0,0,0,0,0c-0.1,1-0.5,2-0.7,3.1c-0.2,0-0.4,0-0.5-0.1
			C27.6,14.1,27.7,13.5,27.8,12.8z M28.9,11.5c0-0.1-0.2-0.2-0.2-0.1c-1.9-1-5.1-0.8-7,0.1c0,0,0,0,0,0c0,0-0.1,0-0.1,0
			c-0.1,0.1,0,0.2,0.1,0.2c0,0.4,0.2,0.9,0.3,1.4c0.1,0.5,0.2,1,0.4,1.5c-1.7-1.5-2.7-3.9-0.2-5.4c1.4-0.8,3.3-0.8,4.8-0.5
			c1.5,0.3,2.6,1,3.1,2.5c0.5,1.5-0.2,2.9-1.5,3.7C28.6,13.7,29,12.6,28.9,11.5z M26.4,14.7c-0.3,0-0.6,0-0.9,0c0,0,0,0,0,0
			c0.1-0.6-0.1-1.2-0.1-1.8c0-0.6,0-1.2,0-1.9c0.3,0,0.7,0,1,0.1c0.1,0.7,0.1,1.3,0,2C26.4,13.6,26.2,14.2,26.4,14.7z M24.2,13.3
			c0-0.7,0-1.4-0.1-2.2c0,0,0,0,0,0c0.3,0,0.7-0.1,1.1-0.1c0,0.7-0.1,1.4-0.1,2.1c0,0.5-0.1,1.2,0.2,1.6c-0.4,0-0.7,0-1.1,0.1
			C24.3,14.3,24.2,13.8,24.2,13.3z M22.9,11.3c0.3-0.1,0.6-0.1,1-0.2c0,0.6,0,1.3,0,1.9c0,0.5-0.1,1.2,0.1,1.7c-0.2,0-0.4,0-0.6,0.1
			c-0.1-0.6-0.2-1.1-0.2-1.7C23.1,12.6,23.1,11.9,22.9,11.3z M23.1,14.9c-0.1,0-0.2,0-0.3,0c0,0,0,0,0,0c0,0,0,0,0,0
			c-0.3-0.6-0.4-1.3-0.5-1.9c-0.1-0.4-0.1-1-0.3-1.4c0.3-0.1,0.6-0.2,0.9-0.3c0.1,0.8,0.1,1.5,0.1,2.3
			C22.9,14.1,22.9,14.5,23.1,14.9z M5.6,16.9c-1.4-0.7-0.3-1.8,0.6-2.1c1.4-0.5,3.1,0.3,4.3,0.9c1.4,0.6,2.9,1.6,3.5,3.1
			c0,0,0,0,0,0c-0.5,0.5-1,1-1.5,1.5c-1.1-1-2.5-1.9-3.9-2.4c-0.6-0.2-1.2-0.4-1.9-0.6C6.4,17.2,6,17.1,5.6,16.9z M6.7,19.3
			c-0.2-0.2-0.6-1.4,0.1-1.6c0.5,0.2,1.1,0.3,1.6,0.4c1.4,0.5,2.9,1.5,4,2.5c-0.4,0.5-0.7,1-1.1,1.5c-0.7-0.7-1.6-1.2-2.6-1.6
			c-0.4-0.2-0.8-0.4-1.2-0.7C7.1,19.8,6.9,19.6,6.7,19.3z M8.1,22.9c-0.6-0.3-1.2-0.5-1.3-1.3c-0.1-0.7,0.3-1,0.9-1.1
			c0.1,0,0.2,0.1,0.2,0.1c1,0.6,2.1,1,3,1.9c0,0,0,0,0,0c0,0,0,0,0,0c0,0,0,0,0,0c-0.4,0.6-0.6,1.2-0.9,1.8
			C9.5,23.7,8.9,23.2,8.1,22.9z M8.9,25.4c-0.1-0.5-0.2-1.1,0.5-1.2c0,0,0,0,0,0c0.2,0.2,0.4,0.4,0.5,0.6c-0.2,0.5-0.3,1-0.4,1.6
			C9.2,26.1,9,25.8,8.9,25.4z M15.6,44.4c-0.5,0.4-1.1,1-1.8,1.1c-0.7,0,0.2-1.7,0.3-1.9c0.3-0.5,0.6-0.9,0.9-1.4
			c0.4,0.3,0.7,0.6,1.1,0.8c0.2,0.1,0.3,0.2,0.5,0.3C16.3,43.7,16,44.1,15.6,44.4z M37.4,44.1c-0.7,0.9-2.8-0.8-3.1-1.6
			c0.5-0.4,1.1-0.8,1.5-1.2c0,0,0,0.1,0.1,0.1C36.7,41.6,37.9,43.5,37.4,44.1z M40.1,29C40.1,29,40.1,29,40.1,29
			c-0.5,0.1-0.9,0.2-1.3,0.1c-0.2,0-0.2,0.2-0.1,0.3c0.1,0,0.2,0.1,0.3,0.1s0.3,0,0.4,0c0.2,0,0.4-0.1,0.6-0.1c0,0.4,0,0.8,0,1.2
			c0,0-0.1,0-0.2,0c-0.4,0.2-0.6,0.2-1,0c-0.1-0.1-0.2,0.1-0.2,0.2c0.2,0.5,0.9,0.4,1.3,0.2c0,0.4,0,0.8-0.1,1.1
			c-0.1,0-0.3,0.1-0.4,0.1c-0.3,0.1-0.5,0-0.8-0.1c-0.1,0-0.2,0.2-0.1,0.2c0.3,0.2,0.5,0.2,0.8,0.2c0.1,0,0.3,0,0.4-0.1
			c-0.3,2.1-0.9,4.2-2,6c-1.7,2.8-4.7,4.7-7.8,5.7c-3.4,1.1-6.9,1.2-10.3,0.2c-3.6-1.1-6.7-3.7-8.8-6.9c-0.5-0.9-0.9-1.8-1.2-2.8
			c0.4,0,1.1,0,1.1-0.5c0-0.1-0.1-0.1-0.1-0.1c-0.2,0-0.3,0.2-0.5,0.2c-0.2,0.1-0.4,0.1-0.6,0.1c-0.1-0.6-0.2-1.1-0.3-1.7
			c0.4,0.1,0.8,0.1,1.2-0.1c0.1,0,0.1-0.1,0.1-0.2c0-0.2-0.2-0.2-0.4-0.1c-0.3,0.1-0.6,0.1-0.9,0.1c-0.1-0.6-0.1-1.2-0.1-1.8
			c0.4,0.1,1.1,0.2,1.2-0.2c0,0,0-0.1-0.1-0.1c-0.2,0-0.4,0.1-0.6,0.1c-0.2,0-0.4,0-0.6,0c0-0.1,0-0.1,0-0.2c0-0.1,0-0.2,0-0.2
			c0.1-1,0.1-2.1,0.3-3.1c0.1-0.6,0.3-1.3,0.5-1.9c0.1,0,0.2-0.2,0.1-0.3c0.1-0.2,0.2-0.5,0.3-0.7c0,0,0,0,0,0
			c0.5-1.1,1.3-2.2,2.1-3.2c0,0,0.1,0,0.1-0.1c0.9-1,1.9-1.8,2.8-2.5c1.6-1.1,3.5-1.9,5.5-2.4c0.1,0,0.1,0,0.2,0
			c0.5-0.1,1-0.2,1.4-0.3c0.1,0,0.2,0,0.2,0c0.8-0.1,1.7-0.2,2.5-0.3c1.5-0.1,3.1,0.1,4.6,0.5c0.1,0.1,0.2,0.1,0.3,0.1
			c1.6,0.4,3.1,1.1,4.5,2c1.2,0.8,2.1,1.8,2.8,2.9c0,0,0,0,0,0c-0.1,0.1,0,0.3,0.2,0.3c0.7,1.2,1.3,2.5,1.7,3.8c0,0,0,0-0.1,0.1
			c-0.1,0.1,0,0.3,0.2,0.3c0.2,0.6,0.3,1.2,0.4,1.8C40,27.5,40.1,28.3,40.1,29z M40,25.9c-0.1-0.4-0.2-0.8-0.3-1.2
			c0.2-0.2,0.5-0.4,0.8-0.7c0,0,0,0,0.1,0C41.3,24.2,40.3,25.3,40,25.9z M42.4,21.6c-0.3,0.5-0.7,0.9-1.1,1.2
			c-0.5,0.5-1.2,0.9-1.7,1.4c-0.2-0.5-0.4-1-0.6-1.5c0,0,0,0,0,0c0.8-1,1.8-1.7,2.9-2.4c0,0,0,0,0,0C42.5,20.7,42.8,21,42.4,21.6z
			 M43.5,18.4c-0.2,0.8-1.1,1.2-1.7,1.6c-1.1,0.7-2.1,1.4-3,2.4c-0.3-0.6-0.6-1.2-1-1.8c0.9-1.4,2.1-2.4,3.6-3.2
			c0.5-0.2,1-0.4,1.5-0.4C43.5,17.1,43.7,17.7,43.5,18.4z M41.6,16.9c-1.6,0.7-3,1.9-4,3.3c-0.5-0.6-1-1.2-1.5-1.8
			c0.8-2,2.8-3,4.7-3.7c1-0.4,5-1.4,4.6,0.8C45.2,16.6,42.4,16.6,41.6,16.9z"/>
		<path fill="#443323" d="M35.6,29.5c0-0.4,0-0.7-0.1-1.1c0.3,0,0.5-0.2,0.7-0.3c0.2-0.2,0.2-0.4,0.2-0.7c0-0.2-0.2-0.4-0.4-0.5
			c-0.2-0.1-0.5,0-0.7,0.1c-0.1-0.3-0.1-0.5-0.2-0.8c0.5-0.2,0.9-0.7,0.7-1.3c-0.1-0.2-0.3-0.4-0.6-0.4c-0.3,0-0.5,0.1-0.7,0.3
			c-0.2-0.3-0.3-0.6-0.5-0.8c0.5-0.3,0.7-1.1,0.4-1.5c-0.2-0.3-0.7-0.4-1-0.3c-0.2,0.1-0.5,0.2-0.6,0.4c-0.3-0.3-0.6-0.5-0.9-0.8
			c0.3-0.3,0.5-0.6,0.5-1c-0.1-0.4-0.4-0.6-0.7-0.7c-0.3-0.1-0.7-0.1-1,0.1c-0.2,0.1-0.4,0.4-0.4,0.6c-0.3-0.2-0.7-0.3-1-0.5
			c0.2-0.6,0-1.3-0.6-1.5c-0.6-0.2-1,0.4-1.2,0.9c-0.2-0.1-0.5-0.1-0.7-0.1c0,0,0-0.1,0-0.1c-0.1-0.6-0.4-1.8-1.3-1.5
			c-0.4,0.1-0.5,0.6-0.6,0.9c0,0.1-0.1,0.4,0,0.5c-0.3,0-0.6,0-0.9,0c-0.1,0-0.2,0-0.3,0c-0.1-0.4-0.3-0.8-0.7-1
			c-0.3-0.1-0.6-0.1-0.8,0.1c-0.3,0.3-0.4,0.9-0.1,1.2c-0.6,0.2-1.1,0.4-1.6,0.7c-0.3-0.5-1-1.1-1.5-0.6c-0.2,0.2-0.3,0.5-0.3,0.7
			c0,0.2,0.2,0.5,0.4,0.7c-0.3,0.2-0.7,0.5-1,0.8c-0.2-0.3-0.6-0.7-1-0.7c-0.3,0-0.5,0.2-0.6,0.4c-0.2,0.5,0,1.2,0.6,1.4
			c-0.2,0.2-0.4,0.5-0.6,0.7c0,0,0-0.1-0.1-0.1c-0.3-0.3-0.8-0.5-1.2-0.5c-0.4,0-0.7,0.4-0.8,0.7c-0.2,0.6,0.4,1.4,1.1,1.5
			c-0.1,0.3-0.3,0.6-0.4,0.9c0,0,0,0,0,0c-0.8-0.3-1.9,0.1-1.7,1.1c0.1,0.5,0.8,1,1.3,0.9c-0.1,0.4-0.1,0.9,0,1.3c0,0,0,0-0.1,0
			c-0.7,0-1.4,0.5-1.2,1.3c0.1,0.6,0.8,0.9,1.4,0.7c0,0.4,0.1,0.7,0.2,1c-0.6,0.3-1,0.9-0.7,1.5c0.1,0.3,0.4,0.4,0.7,0.4
			c0.2,0,0.4-0.1,0.5-0.2c0.2,0.4,0.4,0.7,0.6,1.1c-0.1,0.1-0.3,0.3-0.3,0.4c-0.2,0.3-0.3,0.6-0.3,0.9c0,0.4,0.3,0.4,0.6,0.5
			c0.4,0,0.7,0,1-0.3c0,0,0,0,0,0c0.3,0.4,0.6,0.7,1,1c0,0,0,0,0,0c-0.4,0.5-0.6,1.2,0.1,1.5c0.2,0.1,0.5,0.1,0.8,0
			c0.2-0.1,0.5-0.3,0.5-0.6c0.5,0.3,0.9,0.5,1.4,0.7c-0.2,0.5,0,1.1,0.5,1.3c0.7,0.3,1.2-0.3,1.3-0.9c0.5,0.1,1,0.1,1.6,0.2
			c-0.1,0.2,0,0.4,0,0.5c0.1,0.2,0.3,0.4,0.5,0.5c0.7,0.3,1.2-0.6,1.4-1.1c0.5-0.1,1-0.2,1.5-0.4c0,0.2,0.2,0.5,0.3,0.6
			c0.2,0.2,0.6,0.3,0.9,0.2c0.6-0.2,0.8-1,0.7-1.5c0.4-0.2,0.7-0.4,1-0.6c0.1,0.2,0.4,0.4,0.6,0.5c0.3,0.1,0.6,0.1,0.9-0.1
			c0.2-0.1,0.4-0.4,0.4-0.7c0-0.2,0-0.7-0.3-0.8c0.3-0.2,0.5-0.5,0.8-0.8c0.2,0.2,0.4,0.4,0.8,0.4c0.3,0,0.4-0.2,0.5-0.4
			c0.1-0.2,0.1-0.5,0-0.7c0-0.1-0.1-0.2-0.2-0.3c0,0-0.1-0.1-0.2-0.1c0.3-0.4,0.5-0.8,0.7-1.3c0.2,0.1,0.5,0.2,0.7,0.1
			c0.3-0.1,0.4-0.4,0.5-0.7c0.1-0.3,0-0.6-0.1-0.8c-0.1-0.2-0.3-0.4-0.6-0.4c0.1-0.4,0.2-0.9,0.2-1.3c0,0,0.1,0,0.1,0
			c0.6,0,1-0.4,0.8-1C36.3,29.8,36,29.4,35.6,29.5z M35.5,25.1c0.1,0.3-0.2,0.5-0.5,0.7c-0.1-0.2-0.2-0.4-0.3-0.7
			C34.9,25,35.3,24.8,35.5,25.1z M33.6,22.6c0.2,0,0.5,0,0.6,0.3c0,0.2-0.1,0.4-0.2,0.6c-0.1,0.1-0.1,0.2-0.2,0.2
			c-0.2-0.3-0.4-0.5-0.7-0.8C33.2,22.8,33.4,22.7,33.6,22.6z M31.6,20.7c0.2,0.1,0.3,0.2,0.4,0.4c0,0.1,0,0.2-0.1,0.3
			c-0.1,0.1-0.2,0.3-0.3,0.4c-0.3-0.2-0.6-0.4-0.9-0.6C30.7,20.6,31.2,20.5,31.6,20.7z M28.6,19.4c0.4,0.1,0.4,0.6,0.3,1
			c-0.3-0.1-0.7-0.2-1-0.3C28,19.6,28.2,19.3,28.6,19.4z M25.3,19.1c0.1-0.3,0.2-0.6,0.4-0.6c0.5-0.1,0.6,0.9,0.6,1.2
			c-0.4,0-0.7-0.1-1.1-0.1c0,0,0-0.1,0-0.2C25.3,19.4,25.3,19.3,25.3,19.1z M22.7,19.1c0.4-0.3,0.7,0.3,0.8,0.6
			c-0.2,0-0.5,0.1-0.7,0.2c-0.1-0.1-0.2-0.2-0.2-0.4C22.5,19.3,22.5,19.2,22.7,19.1z M19.2,20.8c0-0.2,0-0.3,0.1-0.5
			c0.3-0.3,0.7,0.2,0.9,0.5c-0.2,0.1-0.5,0.3-0.7,0.4c0-0.1-0.1-0.1-0.2-0.2C19.3,21,19.3,20.9,19.2,20.8z M17,22.1
			c0,0,0.1-0.1,0.1-0.1c0.1,0,0.1-0.1,0.2-0.1c0.3,0,0.5,0.4,0.7,0.6c-0.2,0.2-0.4,0.4-0.5,0.5C17,23,16.9,22.5,17,22.1z M15,24.3
			c0.1-0.3,0.4-0.5,0.7-0.4c0.3,0.1,0.5,0.3,0.8,0.4c0,0,0,0,0,0c-0.2,0.3-0.5,0.7-0.7,1.1c0,0-0.1-0.1-0.1-0.1
			C15.3,25.2,14.9,24.7,15,24.3z M14.9,30.4c0,0.3,0,0.6,0,0.8c-0.4,0.1-0.8,0.2-1-0.3c-0.2-0.6,0.4-0.9,0.9-0.9c0,0,0.1,0,0.1,0
			C14.8,30.1,14.8,30.2,14.9,30.4C14.9,30.3,14.9,30.4,14.9,30.4z M14.9,27.9c-0.2,0.1-0.4,0.2-0.6,0c-0.2-0.1-0.3-0.3-0.4-0.5
			c-0.1-0.2,0-0.4,0.2-0.5c0.3-0.2,0.7-0.1,1.1-0.2C15.1,27.1,15,27.5,14.9,27.9z M15.1,34.2c-0.2,0-0.3-0.1-0.4-0.2
			c-0.2-0.4,0-0.8,0.4-1c0.1,0.4,0.2,0.7,0.4,1.1C15.4,34.1,15.3,34.1,15.1,34.2z M16.9,36.8c-0.3,0.1-0.6,0.1-0.9,0
			c0-0.3,0.1-0.5,0.2-0.8c0.1-0.1,0.2-0.2,0.2-0.3c0.2,0.3,0.4,0.7,0.7,1C17,36.7,16.9,36.8,16.9,36.8z M18.5,39.2
			c-0.4-0.2-0.2-0.7,0-0.9c0.2,0.2,0.5,0.4,0.8,0.5C19.1,39,18.9,39.3,18.5,39.2z M21.8,40.6c-0.4-0.1-0.5-0.5-0.5-0.9
			c0.4,0.1,0.8,0.2,1.2,0.3C22.4,40.4,22.2,40.8,21.8,40.6z M25.2,40.9c-0.2,0-0.3-0.1-0.3-0.3c-0.1-0.1,0-0.2,0-0.4
			c0.4,0,0.7,0,1.1-0.1C25.7,40.6,25.5,41,25.2,40.9z M29,40.2c-0.3,0.2-0.6,0-0.7-0.2c0,0-0.1-0.2-0.1-0.3c0.4-0.1,0.9-0.3,1.3-0.5
			C29.5,39.6,29.4,40,29,40.2z M32.2,38.5c-0.2,0.1-0.4,0.1-0.5,0c-0.1-0.1-0.2-0.2-0.3-0.3c0.4-0.2,0.7-0.5,1-0.7
			c0,0.2,0.1,0.3,0.1,0.5C32.4,38.2,32.3,38.4,32.2,38.5z M34.2,35.9c0,0.2,0,0.3,0,0.5c0,0.1,0,0.1-0.1,0.1c0,0,0,0,0,0
			c0,0,0,0,0,0c0,0,0,0,0,0c0,0,0,0,0,0c0,0,0,0-0.1,0c0,0-0.1,0-0.1-0.1c-0.1-0.1-0.2-0.2-0.3-0.3c0.1-0.1,0.2-0.3,0.3-0.4
			c0-0.1,0.1-0.1,0.1-0.2c0,0,0,0.1,0.1,0.1C34.2,35.8,34.2,35.9,34.2,35.9z M34,34.9c-1.4,2.6-4.5,4.1-7.3,4.7
			c-2.6,0.5-5.5-0.1-7.6-1.5c-1.5-1-2.5-2.4-3.1-4.1c0,0,0-0.1,0-0.1c0-0.1,0-0.1-0.1-0.1c-0.3-0.9-0.6-1.8-0.7-2.7c0,0,0-0.1,0-0.1
			c-1.1-5.5,3.9-10.6,9.2-11c3.4-0.2,7,1.4,9,4.1c0,0.1,0.1,0.1,0.1,0.1c0.4,0.6,0.8,1.2,1,1.8c0,0.1,0,0.2,0.1,0.2
			c0.1,0.3,0.2,0.5,0.3,0.8C35.7,29.6,35.3,32.7,34,34.9z M35.6,32.9c0.1,0.2,0.1,0.4,0.1,0.5c0,0.1-0.1,0.3-0.2,0.4
			c-0.2,0.1-0.4,0-0.5-0.1c0.1-0.3,0.2-0.7,0.3-1.1C35.4,32.7,35.5,32.8,35.6,32.9z M35.4,27.3c0.1-0.1,0.3-0.1,0.5-0.1
			c0.1,0,0.1,0.1,0.1,0.2c0,0.1,0,0.2-0.1,0.3c-0.1,0.1-0.3,0.1-0.4,0.2C35.5,27.7,35.5,27.5,35.4,27.3z M35.7,30.7
			C35.7,30.7,35.6,30.7,35.7,30.7c0-0.3,0-0.6,0-0.9c0.2,0.1,0.3,0.3,0.4,0.4C36.2,30.5,36,30.6,35.7,30.7z"/>
		<path fill="#443323" d="M37.2,28.8c0.1-0.1,0.2-0.1,0.3-0.2c0,0,0,0,0,0c0,0,0,0,0,0c0.6-0.3,0.6-1.2,0.2-1.7
			c-0.1-0.3-0.4-0.6-0.8-0.7c1-0.9-0.2-2.7-1.2-2.5c0.3-0.6,0.1-1.3-0.5-1.8c-0.4-0.4-0.9-0.5-1.4-0.5c-0.1,0-0.1,0-0.2,0
			c0.1-0.1,0.1-0.3,0.2-0.5c0.3-1.5-2.5-2.6-3.3-1.3c0-0.2-0.1-0.4-0.2-0.6c-0.2-0.4-0.7-0.9-1.1-1.1c-0.6-0.2-1-0.2-1.5,0.1
			c-0.1,0.1-0.3,0.3-0.3,0.3c0-0.3-0.1-0.5-0.2-0.7c-0.6-1.1-3-0.5-3,0.7c-1-0.9-3-0.5-3.2,0.8c-1-1-3.2-0.3-3.2,1.1
			c-1.2-0.6-2.8,0.9-2.5,2.3c-1.7-0.4-2.7,1.9-1.6,3.3c-2,0.2-2.4,2.3-0.9,3.5c-1.4,1-1.4,3.3,0.4,3.5c-1.1,1.4-0.1,2.6,1.6,2.9
			c-1.7,1.3,0.4,4.2,2.1,3.3c-0.1,0.6,0.3,1.3,0.7,1.6c0.7,0.6,1.7,0.5,2.4,0c-0.2,2,2.5,2.4,3.7,1.1c0,0.8,0.6,1.3,1.5,1.2
			c0.9-0.1,1.8-0.7,2.2-1.6c0.6,0.7,1.6,1,2.5,0.6c0.6-0.3,1.3-1.2,1.1-2c1.5,0.5,3.7-0.4,2.9-1.9c1.5,0.3,2.7-1,1.8-2.5
			c1.6-0.2,2.6-2.4,1.4-3.3C38.3,31.7,38.4,29.4,37.2,28.8z M36.5,31.8c-0.2,0-0.2,0.3,0,0.4c1.9,0.5,0.5,3-1,3
			c-0.2,0-0.2,0.3,0,0.3c0.9,1.4-0.3,2.7-1.8,2c-0.2-0.1-0.3,0.1-0.2,0.3c1.4,1.6-1.3,2.2-2.5,1.6c-0.2-0.1-0.3,0.1-0.3,0.2
			c-0.1,0.3,0,0.6,0,1c-0.1,0.4-0.4,0.7-0.7,0.9c-0.8,0.4-1.7,0.1-2.3-0.5c0-0.2-0.3-0.3-0.4-0.1c-0.2,0.7-0.9,1.2-1.6,1.4
			c-0.9,0.3-1.4-0.1-1.5-1.1c0-0.1-0.1-0.1-0.1-0.1c-0.1-0.1-0.2-0.1-0.3,0c-1,1.2-3.6,1-3.2-1c0-0.1-0.1-0.2-0.1-0.1
			c-0.1-0.1-0.2-0.1-0.3,0c-0.6,0.5-1.3,0.5-1.9,0.1c-0.3-0.2-0.5-0.5-0.6-0.8c-0.1-0.3,0-0.5,0-0.7c0,0,0.1-0.1,0.1-0.1
			c0.2-0.2-0.1-0.5-0.3-0.3c-0.7,0.6-1.5,0.4-2.1-0.3c-0.6-0.8-0.5-1.8,0.2-2.4c0.1-0.1,0.1-0.2,0-0.2c0-0.1,0-0.1-0.1-0.2
			c-1.4-0.3-2.8-1.2-1.4-2.6c0.1-0.1,0-0.4-0.2-0.4c-2,0-1.6-2.2-0.3-2.9c0.1-0.1,0.1-0.3,0-0.4c-1.8-0.9-1.3-2.8,0.6-3.1
			c0,0,0,0,0.1,0c0.2,0,0.3-0.2,0.2-0.3c-0.8-1.1-0.4-3.5,1.4-2.5c0.2,0.1,0.5-0.1,0.3-0.3c-0.8-1.3,1.2-3.2,2.1-1.8
			c0.2,0.3,0.6,0,0.4-0.2c-1-1.5,1.8-2.3,2.7-1c0,0,0,0,0,0c0.1,0.2,0.4,0.1,0.3-0.1c-0.2-0.7,0.2-1.2,0.9-1.4
			c0.7-0.1,1.3,0.1,1.8,0.6c0.1,0.1,0.3,0,0.4-0.1c0,0,0.1-0.1,0-0.1c-0.4-1.2,2.5-2,2.7,0c0,0.1,0.1,0.2,0.2,0.1
			c1-1.1,3.1-0.4,3.1,1.2c0,0.1,0.1,0.1,0.2,0c0.4-1.2,1.9-0.5,2.5,0c0.5,0.4,0.5,1,0.1,1.5c0,0.1,0,0.1,0,0.2
			c0,0.1,0.1,0.2,0.2,0.1c1.4-0.6,2.9,0.9,1.9,2.3c-0.1,0.1,0.1,0.3,0.2,0.2c0,0,0,0,0,0c0.1,0,0.1,0,0.1,0c0.7-0.6,2.3,1.4,0.8,2.1
			c-0.2,0.1-0.1,0.3,0.1,0.3c0.4,0,0.6,0.1,0.9,0.3c0.1,0.2,0.2,0.4,0.3,0.7c0,0.1,0,0.2,0,0.2c-0.2,0.2-0.2,0.4-0.3,0.6
			c-0.1,0.3-0.4,0.4-0.7,0.4c-0.2,0-0.2,0.2,0,0.3c0,0,0,0,0.1,0.1C38,29.3,38.1,32,36.5,31.8z"/>
		<path fill="#443323" d="M26.3,34.7c-0.1,1.1,0.9,2.2,2,1.8c0.7-0.2,1.1-0.9,1.2-1.6c0-0.1,0.1-0.2,0-0.2c0-0.1,0-0.2,0-0.3
			c-0.1-0.4-0.4-0.8-0.8-1c-0.1-0.1-0.3-0.1-0.5-0.1C27.2,32.5,26.4,33.9,26.3,34.7z M28.2,36.1C28.2,36.1,28.1,36.1,28.2,36.1
			c-0.1-0.3-0.1-0.6-0.1-0.9c0.1,0,0.1-0.1,0.2-0.2c0.3,0,0.6,0,0.9,0C29,35.5,28.7,35.9,28.2,36.1z M29.2,34.5
			C29.2,34.5,29.2,34.5,29.2,34.5c-0.3,0-0.6,0-0.9,0c0-0.1-0.1-0.1-0.1-0.2c0,0-0.1-0.1-0.2-0.1c0-0.3-0.1-0.5-0.1-0.8
			C28.5,33.5,29.1,33.8,29.2,34.5z M27.8,36.2c-0.6,0-1.1-0.5-1.2-1.2c0.3,0,0.6,0,1,0c0,0,0,0,0,0c0.1,0.1,0.1,0.1,0.2,0.1
			C27.8,35.5,27.8,35.9,27.8,36.2z M27.7,34.3c0,0-0.1,0.1-0.1,0.1c-0.1,0.1-0.1,0.2-0.1,0.2c0,0,0,0,0,0c-0.3,0-0.6,0.1-0.9,0.1
			c0-0.4,0.2-0.8,0.4-1.1c0,0,0.1,0,0.1,0c0.2-0.1,0.4-0.2,0.6-0.2C27.7,33.8,27.7,34,27.7,34.3z"/>
		<path fill="#443323" d="M34.1,29.5C34.1,29.5,34.1,29.5,34.1,29.5c-0.6-0.2-1-0.7-1.6-1c-0.1,0-0.3-0.1-0.4-0.1
			c0.5-2.4-0.7-4.9-3-6.1c-0.8-0.4-1.9-0.6-3-0.4c-0.4-0.4-0.8-0.7-0.8-1.2c0-0.2-0.2-0.2-0.3,0c0,0-0.1,0-0.1,0.1
			c-0.2,0.7-1.4,1.2-1.5,1.9c-0.6,0.4-1,0.8-1.3,1.4c-1.5,2.4-1.2,5.7,1,7.3c-1.5-1.1-3.9-0.8-5.1,0.5c-0.7,0.7-1.2,2.9-0.5,3.8
			c0.9,1.9,3.4,3,5.4,2c1.2-0.6,1.8-1.5,1.9-2.5c0,0.1,0,0.2,0,0.2c0.4,1.6,2.1,2.4,3.6,2.1c1.7-0.4,2.5-2.2,2.2-3.8
			c-0.2-1-1-1.5-2-1.6c1-0.3,1.9-0.9,2.6-1.9c0.1,0,0.2,0,0.3,0c0.1,0,0.3,0,0.5,0c-0.3,0.4-0.6,1-0.2,1.2c0.4,0.2,0.9-0.1,1.1-0.3
			c0.5-0.4,0.8-0.9,1.3-1.3C34.6,29.7,34.4,29.4,34.1,29.5z M25.3,28.4c0.5,0.4,1.1,0.5,1.7,0.5c1.1-0.1,1.7-1.2,1.7-2.2
			c0-1-1.1-2.1-2.2-1.8c-0.1,0-0.1,0.1-0.1,0.1c-0.4,0.1-0.8,0.3-1.1,0.6c0-0.8,0-1.5-0.1-2.3c0.2,0.2,0.5,0.2,0.8,0.1
			c0,0,0,0.1,0,0.1c0.2,0.3,0.3,0.4,0.6,0.4c0.1,0,0.3-0.2,0.4-0.3c0.5-0.5,0.9-0.3,1.4,0.4c0,0.2,0,0.4-0.1,0.6
			c0,0.3,0.2,0.4,0.4,0.5c0.2,0.1,0.4,0,0.6-0.1c0.7-0.3,0.7,1.1,0.2,1.5c0,0,0,0.1,0,0.1c0,0.3,0.3,0.5,0.5,0.7
			c0.8,0.7,0.1,1.4-0.6,1.2c-0.4-0.1-0.7,0.3-0.6,0.6c0.1,0.3,0,0.5-0.1,0.7c-0.5,0-0.9,0-1.4,0.1c0,0,0,0,0-0.1
			c-0.1-0.2-0.2-0.5-0.5-0.6c-0.5-0.2-0.8,0.3-1,0.7c0,0,0,0,0,0c0,0,0,0,0-0.1c0,0,0,0,0,0c0,0,0,0,0-0.1c-0.1-0.2-0.2-0.5-0.5-0.6
			c-0.1,0-0.1,0-0.2,0C25.2,29,25.2,28.7,25.3,28.4z M26.2,26.3c0,0,0,0.1,0,0.1c0,0,0,0,0,0c-0.1,0.1-0.1,0.2-0.1,0.3c0,0,0,0,0,0
			c-0.3,0.1-0.5,0.1-0.7,0.2c0-0.2,0-0.4,0-0.6c0.2-0.4,0.6-0.7,0.9-0.9C26.2,25.7,26.2,26,26.2,26.3z M26.1,27.1
			C26.1,27.1,26.1,27.1,26.1,27.1c0.1,0.3,0.3,0.5,0.5,0.5c0,0.1,0,0.2,0,0.2c0,0.2,0,0.3,0,0.5c0,0,0,0,0,0c-0.5,0-1-0.3-1.3-0.7
			c0-0.2,0-0.3,0-0.5C25.6,27.2,25.8,27.2,26.1,27.1z M27.4,26.7c0-0.1-0.1-0.2-0.2-0.3c-0.1-0.2-0.4-0.3-0.7-0.3c0-0.3,0-0.5,0-0.8
			c0,0,0.1,0,0.1,0c0.4,0.1,0.7,0.1,1.1,0.3c0.3,0.2,0.5,0.6,0.5,1c0,0,0,0,0,0C27.9,26.6,27.7,26.6,27.4,26.7z M28.2,27
			c-0.1,0.6-0.6,1.2-1.2,1.4c0,0-0.1,0-0.1,0c0-0.2,0-0.3,0-0.5c0-0.1,0-0.2,0-0.3c0.1,0,0.2-0.1,0.3-0.1c0.2-0.1,0.3-0.3,0.3-0.5
			C27.7,27,28,27,28.2,27z M26.6,26.5c0.1,0,0.2,0,0.3,0.1c0.2,0.1,0.3,0.4,0.1,0.6c-0.2,0.2-0.5,0.1-0.7-0.1
			c-0.1-0.1-0.1-0.2,0-0.4c0,0,0-0.1,0-0.1C26.5,26.6,26.6,26.6,26.6,26.5z M27.1,30c-0.1,0-0.1,0-0.2,0c-0.1,0-0.2,0-0.3,0
			C26.7,29.8,26.9,29.6,27.1,30z M24.5,23.7c0.2,0,0.4-0.1,0.5-0.3c0,0.9,0,1.8,0,2.6c-0.2,0.2-0.3,0.5-0.3,0.8
			c-0.1,0.4,0.1,0.8,0.3,1.1c0,0.4,0,0.9,0,1.3c-0.1,0-0.2,0-0.4,0.1c0,0,0,0,0,0c-0.1-0.2-0.3-0.5-0.6-0.5c-0.1,0-0.2,0.1-0.3,0.1
			c0,0,0,0,0,0c0,0,0,0,0,0c-0.1,0-0.1,0-0.2,0c-0.2-0.1-0.4-0.4-0.2-0.7c0.1-0.1,0.2-0.2,0.3-0.2c0,0,0,0,0,0c0,0,0,0,0,0
			c0,0,0.1-0.1,0.1-0.1c0,0,0,0,0.1,0c0,0,0,0,0.1-0.1c0-0.1,0.1-0.1,0.1-0.2c0.1-0.2,0-0.5-0.1-0.6c-0.3-0.3-0.7-0.9-0.1-1.1
			c0.2-0.1,0.5-0.1,0.7-0.3C25,24.9,24.2,24.3,24.5,23.7z M22.5,37.5c-1.7,0.7-3.2-0.2-4.2-1.5c0,0,0-0.1,0-0.1
			c-0.1,0-0.1-0.1-0.1-0.1c-0.1-0.1-0.2-0.3-0.3-0.4c0,0-0.1-0.1-0.1-0.1c-0.5-1,0-2.5,0.7-3.3c1.2-1.2,3.6-1,4.8,0.1
			C25.2,33.8,25,36.5,22.5,37.5z M24.9,34.3c-0.1-0.9-0.6-1.8-1.3-2.6c-0.1-0.1-0.2-0.2-0.3-0.3c0.4,0.3,0.9,0.5,1.5,0.7
			c0.5,0.1,1,0.2,1.6,0.2C25.6,32.8,25.1,33.5,24.9,34.3z M30.2,33.4c0.8,1.3-0.2,3-1.3,3.6c-1.3,0.7-2.7,0.1-3.4-1.1
			c-0.8-1.4,0-2.6,1.2-3.2h0C27.9,32.4,29.5,32.2,30.2,33.4z M25.9,31.9c-4.1-0.2-5.1-4.5-3.5-7.7c0,0,0-0.1,0-0.1
			c0.2-0.4,0.6-0.8,1-1c0.1,0.4,0.4,0.7,0.7,0.7c-0.1,0.1-0.1,0.3-0.1,0.5c0.1,0.4,0.7,0.6-0.1,1.1c-0.2,0.1-0.4,0.1-0.7,0.2
			c-0.6,0.3-0.7,0.8-0.3,1.4c0.2,0.3,0.6,0.5,0.1,0.8c-0.2,0.2-0.4,0.5-0.3,0.8c0.1,0.3,0.3,0.7,0.6,0.8c0.3,0.1,0.5-0.2,0.8,0.2
			c0,0,0,0,0,0c-0.2,0.2-0.3,0.4-0.4,0.6c-0.2,0.7,0.5,1.2,1.2,1.1c0,0,0,0,0,0c0.4,0,0.7-0.3,0.8-0.7c0.1,0,0.1,0,0.2,0
			c0,0,0.1-0.1,0.1-0.2c0.2,0,0.4,0,0.6,0c0.1,0,0.2,0,0.3,0c0.1,0.2,0.2,0.4,0.4,0.5c0.5,0.1,1.2-0.1,1.5-0.5c0.1,0,0.2,0,0.3,0
			c0.5,0,1,0,1.5,0C29.8,31.7,27.9,32,25.9,31.9z M31.2,29.8c-0.6,0-1.2,0-1.8,0.1c0,0,0,0-0.1,0c0-0.2-0.1-1.2,0.4-1
			c0.2,0.1,0.4,0.3,0.6,0.1c0.5-0.3,0.7-1.1,0.5-1.7c-0.1-0.2-1.1-0.5-0.6-0.9c0.2-0.1,0.3-0.4,0.4-0.6c0-0.3-0.3-1.5-0.8-1.2
			c-1.4,0.6-0.6-0.9-1.2-1.3c-0.3-0.2-0.6-0.3-0.9-0.2c-0.3,0.1-1.1,0.9-1.4,0.4c0,0-0.1-0.1-0.1-0.1c0.1-0.1,0.2-0.2,0.3-0.3
			c0.2-0.4,0.1-0.6-0.1-0.9c0.9-0.1,1.7,0,2.4,0.2c2.5,0.8,3.6,3.6,3,6c-0.2,0-0.4,0.1-0.4,0.2c-0.1,0.2-0.1,0.5,0.1,0.7
			C31.4,29.5,31.3,29.6,31.2,29.8z M31.8,29.8c-0.1,0-0.1,0-0.2,0c0-0.1,0.1-0.1,0.1-0.2c0.1,0.1,0.2,0.1,0.2,0.2
			C31.9,29.8,31.9,29.8,31.8,29.8z"/>
		<path fill="#443323" d="M22.4,32.1c-0.5-0.3-1.5-0.5-2-0.1c0,0,0,0,0,0.1c-0.7,0.3-1.2,1.1-1.3,1.9c-0.2,1.4,0.9,2.5,2.3,2.4
			c1.2-0.1,2.5-1.2,2.3-2.5C23.5,33,23.1,32.4,22.4,32.1z M22.9,33.1c-0.4,0.2-0.8,0.4-1.2,0.6c0-0.1,0-0.2-0.1-0.3
			c0,0,0-0.1-0.1-0.1c0.3-0.2,0.5-0.5,0.7-0.8C22.5,32.6,22.7,32.8,22.9,33.1z M21.7,32.2c0.1,0,0.2,0,0.2,0.1
			c-0.2,0.2-0.3,0.4-0.5,0.6c0-0.2-0.1-0.5-0.1-0.7C21.4,32.2,21.5,32.2,21.7,32.2z M21.2,33.4C21.2,33.4,21.2,33.4,21.2,33.4
			c0.1,0,0.1,0,0.2,0c0,0,0,0,0,0c0.1,0.2,0.1,0.4,0,0.5c0,0,0,0,0,0c-0.1,0-0.1,0.1-0.1,0.2c0,0,0,0,0,0c0,0-0.1,0-0.1,0
			c0-0.1-0.1-0.2-0.2-0.1c0,0,0-0.1,0-0.1c0,0,0,0,0,0c0.2,0,0.2-0.3,0.1-0.3c0,0,0,0,0,0C21,33.6,21.1,33.5,21.2,33.4z M20.8,32.2
			c0.1,0,0.1,0,0.2,0c0,0.3,0,0.6,0,0.9c-0.2,0-0.3,0-0.4,0.2c0,0,0,0.1,0,0.1c0,0,0,0,0.1,0c0,0-0.1,0.1-0.1,0.1
			c-0.1-0.1-0.3-0.2-0.4-0.4c-0.1-0.1-0.2-0.3-0.3-0.4C20.2,32.5,20.5,32.3,20.8,32.2z M19.8,32.9c0.1,0.3,0.4,0.5,0.6,0.7
			c-0.2,0-0.4-0.1-0.5-0.1c-0.1,0-0.2,0-0.4,0C19.6,33.3,19.7,33.1,19.8,32.9z M19.5,35.1c-0.2-0.4-0.2-0.9-0.1-1.3
			c0.2,0,0.3,0.1,0.5,0.1c0.2,0.1,0.4,0.1,0.6,0.2c0,0.1,0,0.2,0.1,0.3c-0.1,0.1-0.3,0.2-0.4,0.3C19.9,34.7,19.7,34.9,19.5,35.1z
			 M19.7,35.3c0.2-0.2,0.5-0.4,0.7-0.5c0.1-0.1,0.2-0.1,0.2-0.2c-0.1,0.4-0.3,0.8-0.4,1.1C20,35.6,19.8,35.5,19.7,35.3z M21.3,35.9
			c-0.3,0-0.6,0-0.9-0.1c0.2-0.4,0.4-0.9,0.5-1.3c0.1,0,0.2,0,0.3,0c0,0.5,0.2,0.9,0.4,1.3C21.5,35.9,21.4,35.9,21.3,35.9z
			 M21.9,35.8c-0.1-0.2-0.2-0.4-0.3-0.6c-0.1-0.2-0.1-0.4-0.1-0.5c0.1,0.1,0.3,0.2,0.4,0.3c0.2,0.1,0.4,0.3,0.6,0.4
			C22.4,35.5,22.2,35.7,21.9,35.8z M22.7,35.3c-0.1-0.2-0.3-0.3-0.4-0.4c-0.2-0.2-0.5-0.5-0.7-0.7c0,0,0-0.1,0-0.1
			c0.2,0,0.5,0.1,0.7,0.1c0.3,0,0.5,0.2,0.8,0.2C23.1,34.7,23,35,22.7,35.3z M23.2,33.6c0.1,0.1,0.1,0.3,0.1,0.4
			c-0.2-0.1-0.4-0.1-0.6-0.2c-0.1,0-0.2,0-0.3,0c0.3-0.1,0.6-0.3,0.7-0.5C23.1,33.4,23.1,33.5,23.2,33.6z"/>
	</g>
	<path fill="#443323" d="M50.8,26.7c0-4.3,0-8.7,0-13c0-3.4,0.2-6.9,0-10.3c-0.1-1.9-0.4-3.3-2.5-3.5c-1.6-0.1-3.2,0.1-4.8,0.1
		C41.7,0,39.8,0,38,0.1c-3.5,0.2-7,0.2-10.5,0.1c-3.5-0.1-7,0.1-10.4,0c-3.5-0.1-7,0.2-10.6,0.1c-1.9-0.1-5-0.6-6.3,1.3
		c-0.5,0.8-0.6,1.9-0.5,2.9c-0.1,3.6,0.2,7.2,0,10.8c-0.1,3.9,0,7.7,0.2,11.6c0.3,7.3-0.7,14.6-0.2,21.9c0,0,0,0.1,0,0.1
		c0.1,1.1,0.1,2.1,0.8,2.9c0.9,1,3,0.3,4.1,0.3c4.2-0.1,8.4-0.3,12.6-0.4c4.3-0.1,8.5,0,12.8,0c4.2,0,8.4-0.3,12.6-0.4
		c1.9,0,3.7,0.2,5.6,0.1c0.9,0,1.6-0.3,2-1.2c0.6-1.3,0.2-3.2,0.2-4.5c-0.1-2.2-0.1-4.3,0-6.5C50.6,35.1,50.9,30.9,50.8,26.7z
		 M50,42.9c0,2.3,0.4,4.8,0,7.1c-0.2,1.2-1.5,1.2-2.5,1.2c-1.3,0-2.6-0.1-3.9-0.1c-5-0.1-10.1,0.4-15.1,0.4
		c-5.1,0-10.2-0.1-15.4,0.1c-2.5,0.1-5,0.2-7.5,0.2c-1.1,0-2.1,0.1-3.2,0.2c-1.6,0.2-2.1-0.8-2.3-2c0,0,0-0.1,0-0.1
		c-0.1-3.7-0.3-7.3-0.1-11c0.2-3.8,0.4-7.6,0.3-11.3c-0.1-3.9-0.4-7.7-0.2-11.6C0.2,12.9,0.1,10,0,7c0,0,0.1,0,0.1-0.1
		C0.1,5.8,0,4.6,0,3.4C0.1,1,1.8,0.6,3.9,0.6C6,0.5,8,0.7,10.1,0.7c2.2-0.1,4.3-0.2,6.5-0.2c4.1,0.1,8.3,0,12.5,0.1
		c4.2,0.1,8.3-0.1,12.5-0.3c2-0.1,4-0.1,6-0.1c0.9,0,1.9,0,2.5,0.8c0.7,0.9,0.5,2.4,0.5,3.4c0.1,4.3-0.1,8.6-0.1,12.9
		c0,4.3,0,8.7,0.1,13C50.6,34.5,49.9,38.7,50,42.9z"/>
	<path fill="#443323" d="M48.7,20.1c-0.1-2.2-0.4-4.3-0.3-6.4c0-3.6,2.5-10.8-3.1-11.3c-1-0.1-2,0.1-3,0.1c-1.4,0.1-2.8,0-4.1,0
		c-3.6-0.1-7.1-0.2-10.7-0.2C20.7,2.4,14,3,7.4,2.3C5.7,2.1,2.8,1.9,1.9,3.7c0,0,0,0-0.1,0C1.3,4.6,1.4,5.6,1.5,6.6
		c-0.1,1.7-0.1,3.4,0,5.1c0,0.4,0,0.8,0,1.2c-0.1,3.8,0.2,7.6,0.1,11.4c0,3.9-0.1,7.8,0,11.8c0.1,3.5,0,7,0.1,10.5c0,0,0,0.1,0,0.1
		c0,0.2,0,0.5,0.1,0.8c0,0.2,0,0.3,0,0.5c0,0.1,0.1,0.1,0.1,0.2c0.1,0.3,0.3,0.6,0.6,0.8c1.3,0.7,3,0.8,4.5,0.9
		c4.3,0.4,8.6,0.2,12.9,0.3c4.2,0.1,8.3,0.1,12.5-0.2c3.2-0.3,6.4,0.1,9.7,0c1.6,0,4.4-0.1,5.4-1.7c0.6-1,0.6-2.5,0.6-3.6
		c0.1-2-0.1-4.1,0.1-6.1c0.2-2,0.5-4,0.6-5.9c0.1-2.2,0-4.3,0-6.5C48.8,24.1,48.8,22.1,48.7,20.1z M48.4,33.6c-0.1,2-0.5,4-0.6,5.9
		c-0.2,2,0,4-0.1,6c-0.1,2-0.5,3-2.5,3.6c-1.4,0.4-2.8,0.4-4.2,0.4c-1.7,0-3.4,0-5.1-0.1c-2.3-0.1-4.6,0.2-6.8,0.3
		c-4.7,0.3-9.5,0-14.2-0.1c-2.4,0-4.9-0.2-7.3-0.3c-1.2,0-2.4-0.3-3.6-0.5c-1.1-0.2-1.5-0.8-1.7-1.7c0.1-3.5-0.1-7.1-0.2-10.7
		C1.9,32.8,2,29.1,2,25.3c0-3.7-0.1-7.3-0.2-11c0-1.8,0.1-3.6,0.1-5.5c0-0.3,0-0.5,0-0.8c0,0,0.1-0.1,0.1-0.1c0-0.9,0-1.8,0-2.8
		c0,0,0,0,0-0.1c0-0.1,0-0.3,0-0.4C2,2.1,5.6,2.4,7.4,2.6c3.9,0.4,7.8,0.4,11.7,0.3c4.3-0.1,8.6-0.3,12.9-0.2
		c3.7,0.1,7.4,0.4,11.1,0.1c1.3-0.1,2.7-0.2,3.8,0.4c1.9,1,1.7,4.1,1.5,5.8c-0.2,1.9-0.5,3.7-0.5,5.6c0,2.2,0.3,4.3,0.4,6.4
		C48.5,25.2,48.7,29.5,48.4,33.6z"/>
	<path fill="#443323" d="M7.8,4.7C7.3,3.8,5.7,3,5,4.2C4.2,4.8,3.8,5.9,4,6.9c0.3,1.6,2.1,1.8,3.3,1.1C8.5,7.4,8.5,5.7,7.8,4.7z
		 M7.2,7.6c-1,0.8-2.6,0.5-3-0.8C4,5.6,4.8,4.3,6.1,4.1c0,0,0.1,0,0.1-0.1c0.1,0,0.2,0,0.3,0c0.5,0.1,0.8,0.5,1.1,0.8
		C8.1,5.7,8.1,7,7.2,7.6z"/>
	<path fill="#443323" d="M6.7,5.4c-0.3-0.5-1.1-0.5-1.3,0c0,0,0,0,0,0C5.1,5.6,5,5.9,5,6.2C5.1,6.8,5.7,7,6.2,6.8
		C6.7,6.5,7,5.9,6.7,5.4z M6,6.4C5.7,6.6,5.3,6.4,5.4,6C5.4,5.7,5.7,5.6,6,5.4c0.2,0,0.3,0.1,0.4,0.2C6.6,6,6.3,6.3,6,6.4z"/>
	<path fill="#443323" d="M47.2,5.6c-0.4-1.2-1.9-2-3-1.5c-2.1,0.5-1.8,4.5,0.8,4.4C46.5,8.5,47.6,7.1,47.2,5.6z M44.8,8.1
		c-1.9,0.1-2.2-2.6-0.9-3.5c1.2-0.2,2.2-0.2,2.8,1C47.4,6.9,46.1,8,44.8,8.1z"/>
	<path fill="#443323" d="M46.1,5.4C45.8,5,45.4,5,45,5.1c-0.4,0.2-0.7,0.5-1,0.9c0,0.1,0,0.1,0.1,0.1c0,0,0.1-0.1,0.1-0.1
		c0,0.1-0.1,0.3,0,0.4c0.1,0.7,0.8,1.1,1.4,0.8C46.3,7,46.6,6,46.1,5.4z M45.5,6.9c-0.4,0.3-0.8-0.1-0.9-0.5c-0.1-0.3,0-0.5,0.2-0.7
		c0,0,0,0,0,0c0.3-0.2,0.5-0.4,0.8-0.2C46.2,5.8,45.9,6.7,45.5,6.9z"/>
	<path fill="#443323" d="M46,43.9c-0.5-1-2.4-2.2-3.2-1c0,0,0,0.1,0,0.1c-1,0.7-1.5,1.8-1.2,3c0.4,1.6,2.5,2.1,3.8,1.3
		C46.6,46.7,46.5,45,46,43.9z M45.3,46.8c-1,0.9-3,0.3-3.4-0.8c-0.5-1.2,0.5-2.5,1.6-3.1C45.4,42.4,46.7,45.5,45.3,46.8z"/>
	<path fill="#443323" d="M44.4,44.2c-0.3-0.4-1.3-0.4-1.4,0.2c0,0,0,0,0,0c0,0,0,0.1-0.1,0.1c-0.3,0.4-0.3,0.9,0,1.3
		c0.4,0.5,1.3,0.7,1.6,0C44.9,45.4,44.8,44.6,44.4,44.2z M44.4,45.5C44.3,46,44,46,43.6,45.8c-0.4-0.2-0.6-0.5-0.5-0.9
		c0.1-0.3,0.3-0.6,0.6-0.7c0.1,0,0.2,0,0.3,0.2C44.4,44.7,44.4,45.2,44.4,45.5z"/>
	<path fill="#443323" d="M8.8,44.7c-0.2-1.2-1.6-2.6-2.8-2c-2.1,0.2-2.6,4.9,0.3,5C7.9,47.8,9,46.4,8.8,44.7z M6.2,47.3
		c-2.2,0-2.1-3.3-0.7-4.1c0,0,0,0,0,0c0.6,0,1.1-0.2,1.7,0.1c0.6,0.3,0.9,0.9,1,1.4C8.7,46.2,7.7,47.3,6.2,47.3z"/>
	<path fill="#443323" d="M7.3,44.6c-0.1-0.2-0.3-0.4-0.6-0.5c-0.2,0-0.5,0-0.7,0.1c-0.4,0.2-0.6,0.7-0.5,1.1c0.1,0.7,0.7,1,1.3,0.7
		C7.4,45.8,7.5,45.1,7.3,44.6z M6.7,45.6c-0.3,0.3-0.8,0-0.8-0.3c0-0.2,0-0.4,0.1-0.5c0-0.1,0.1-0.1,0.2-0.2c0.3,0,0.5-0.2,0.7,0.1
		C7,45,6.9,45.4,6.7,45.6z"/>
</g>
<g>
	<g>
		<path fill="#443323" d="M45.7,14.4c-1.2-1-3.6-0.1-4.8,0.3c-1.8,0.7-3.7,1.9-4.5,3.7c-0.8-0.7-1.7-1.4-2.7-1.9
			c-0.9-0.5-1.9-0.9-2.9-1.1c0.7-0.8,1.4-1.7,1.7-2.7c0.4-1.2-0.1-2.6-0.8-3.6c-1.3-2-4.3-2.8-6.5-2.5c-2.5,0.3-5.1,1.4-6,3.9
			c-0.6,1.8-0.2,4.2,1.6,5.1c-0.7,0.2-1.3,0.4-1.9,0.6c-1.6,0.6-3,1.5-4.3,2.5c-0.5-1.7-2.4-2.7-3.8-3.4c-1.3-0.7-3.2-1.4-4.6-0.7
			c-1.3,0.6-1.6,1.8-0.3,2.7c0.3,0.2,0.6,0.3,0.9,0.5c-0.4,0.3-0.4,1.2-0.1,1.7c0.2,0.4,0.5,0.6,0.9,0.8c-0.4,0.2-0.7,1-0.7,1.4
			c0,0.6,0.4,1,0.8,1.3c0.4,0.3,0.9,0.4,1.3,0.6c0.2,0.1,0.4,0.2,0.5,0.4c-0.5,0.1-0.7,0.6-0.7,1.2c0,0.5,0.4,1.5,0.9,1.6
			c-0.1,0.4-0.2,0.8-0.2,1.2c0,0,0,0,0,0c0,0.1,0,0.2,0,0.3c-0.1,0.8-0.1,1.6,0,2.3c0,0.3,0,0.6,0,0.8c0,1.1,0.2,2.1,0.4,3
			c0,0.1,0,0.1,0,0.2c0.5,2,1.5,3.8,3,5.4c0.7,0.8,1.4,1.4,2.2,2.1c-0.7,0.6-2.3,2.9-1.3,3.7c0.5,0.4,1.5-0.4,1.8-0.7
			c0.5-0.4,1.3-1,1.6-1.6c1.1,0.6,2.3,1,3.5,1.4c2.9,0.9,6.1,0.6,9.1-0.2c1.7-0.4,3.2-1.1,4.5-2c0.3,1.2,2.7,2.8,3.6,1.5
			c0.5-0.7-1-2.9-1.6-3c2.3-2.2,3.9-5.2,4.3-8.7c0.2-2.1,0.2-4.3-0.3-6.3c0.5,0.1,0.9-1,1-1.3c0.2-0.4,0.2-1.1-0.3-1.2
			c1.4-1.3,3.2-3.1,1.2-3.5c0.1-0.1,0.2-0.1,0.2-0.2c0.7-0.5,1.3-0.9,1.5-1.6c0.2-0.6,0.1-1.3-0.3-1.6c0.3,0,0.6-0.1,0.9-0.1
			C46.1,16.6,46.8,15.3,45.7,14.4z M20.2,9.8c1.1-1.9,3.4-2.6,5.5-2.8c2-0.2,4.2,0.6,5.6,2.1c2,2.2,0.7,4.3-0.8,6.2
			c-0.4-0.1-0.9-0.2-1.3-0.3c1.2-0.6,1.7-2,1.6-3.3c-0.1-1.9-1.6-2.9-3.4-3.3c-2-0.5-4.5-0.3-6.1,1.3c-1.9,1.9-0.2,4.2,1.4,5.5
			c-0.4,0.1-0.7,0.1-1.1,0.2c0,0-0.1-0.1-0.1-0.1C19.1,14.6,19.1,11.6,20.2,9.8z M27.1,11.3c0.4,0.1,0.7,0.1,1.1,0.2
			c-0.2,0.4-0.2,1-0.3,1.4c-0.1,0.7-0.2,1.3-0.3,2c-0.2,0-0.4,0-0.5,0c0.1-0.5,0.1-1.1,0.1-1.6C27.2,12.6,27.3,11.9,27.1,11.3z
			 M28.2,13c0.1-0.4,0.2-0.9,0.2-1.4c0.2,0.1,0.5,0.2,0.7,0.3c0,0,0,0,0,0c-0.1,1-0.5,2-0.7,3.1c-0.2,0-0.4,0-0.5-0.1
			C28,14.3,28.1,13.6,28.2,13z M29.4,11.6c0-0.1-0.2-0.2-0.2-0.1c-1.9-1-5.1-0.8-7,0.1c0,0,0,0,0,0c0,0-0.1,0-0.1,0
			c-0.1,0.1,0,0.2,0.1,0.2c0,0.4,0.2,0.9,0.3,1.4c0.1,0.5,0.2,1,0.4,1.5c-1.7-1.5-2.7-3.9-0.2-5.4c1.4-0.8,3.3-0.8,4.8-0.5
			c1.5,0.3,2.6,1,3.1,2.5c0.5,1.5-0.2,2.9-1.5,3.7C29,13.8,29.4,12.8,29.4,11.6z M26.8,14.9c-0.3,0-0.6,0-0.9,0c0,0,0,0,0,0
			c0.1-0.6-0.1-1.2-0.1-1.8c0-0.6,0-1.2,0-1.9c0.3,0,0.7,0,1,0.1c0.1,0.7,0.1,1.3,0,2C26.8,13.7,26.7,14.4,26.8,14.9z M24.6,13.5
			c0-0.7,0-1.4-0.1-2.2c0,0,0,0,0,0c0.3,0,0.7-0.1,1.1-0.1c0,0.7-0.1,1.4-0.1,2.1c0,0.5-0.1,1.2,0.2,1.6c-0.4,0-0.7,0-1.1,0.1
			C24.7,14.5,24.6,13.9,24.6,13.5z M23.4,11.5c0.3-0.1,0.6-0.1,1-0.2c0,0.6,0,1.3,0,1.9c0,0.5-0.1,1.2,0.1,1.7c-0.2,0-0.4,0-0.6,0.1
			c-0.1-0.6-0.2-1.1-0.2-1.7C23.5,12.7,23.5,12.1,23.4,11.5z M23.5,15.1c-0.1,0-0.2,0-0.3,0c0,0,0,0,0,0c0,0,0,0,0,0
			c-0.3-0.6-0.4-1.3-0.5-1.9c-0.1-0.4-0.1-1-0.3-1.4c0.3-0.1,0.6-0.2,0.9-0.3c0.1,0.8,0.1,1.5,0.1,2.3
			C23.3,14.2,23.3,14.7,23.5,15.1z M6.1,17c-1.4-0.7-0.3-1.8,0.6-2.1c1.4-0.5,3.1,0.3,4.3,0.9c1.4,0.6,2.9,1.6,3.5,3.1c0,0,0,0,0,0
			c-0.5,0.5-1,1-1.5,1.5c-1.1-1-2.5-1.9-3.9-2.4c-0.6-0.2-1.2-0.4-1.9-0.6C6.8,17.4,6.5,17.2,6.1,17z M7.1,19.5
			c-0.2-0.2-0.6-1.4,0.1-1.6c0.5,0.2,1.1,0.3,1.6,0.4c1.4,0.5,2.9,1.5,4,2.5c-0.4,0.5-0.7,1-1.1,1.5c-0.7-0.7-1.6-1.2-2.6-1.6
			c-0.4-0.2-0.8-0.4-1.2-0.7C7.6,19.9,7.3,19.7,7.1,19.5z M8.6,23c-0.6-0.3-1.2-0.5-1.3-1.3c-0.1-0.7,0.3-1,0.9-1.1
			c0.1,0,0.2,0.1,0.2,0.1c1,0.6,2.1,1,3,1.9c0,0,0,0,0,0c0,0,0,0,0,0c0,0,0,0,0,0c-0.4,0.6-0.6,1.2-0.9,1.8
			C9.9,23.9,9.4,23.4,8.6,23z M9.3,25.6c-0.1-0.5-0.2-1.1,0.5-1.2c0,0,0,0,0,0c0.2,0.2,0.4,0.4,0.5,0.6c-0.2,0.5-0.3,1-0.4,1.6
			C9.6,26.2,9.4,26,9.3,25.6z M16.1,44.6c-0.5,0.4-1.1,1-1.8,1.1c-0.7,0,0.2-1.7,0.3-1.9c0.3-0.5,0.6-0.9,0.9-1.4
			c0.4,0.3,0.7,0.6,1.1,0.8c0.2,0.1,0.3,0.2,0.5,0.3C16.7,43.9,16.4,44.3,16.1,44.6z M37.8,44.3c-0.7,0.9-2.8-0.8-3.1-1.6
			c0.5-0.4,1.1-0.8,1.5-1.2c0,0,0,0.1,0.1,0.1C37.1,41.7,38.3,43.6,37.8,44.3z M40.6,29.2C40.6,29.2,40.5,29.2,40.6,29.2
			c-0.5,0.1-0.9,0.2-1.3,0.1c-0.2,0-0.2,0.2-0.1,0.3c0.1,0,0.2,0.1,0.3,0.1s0.3,0,0.4,0c0.2,0,0.4-0.1,0.6-0.1c0,0.4,0,0.8,0,1.2
			c0,0-0.1,0-0.2,0c-0.4,0.2-0.6,0.2-1,0c-0.1-0.1-0.2,0.1-0.2,0.2c0.2,0.5,0.9,0.4,1.3,0.2c0,0.4,0,0.8-0.1,1.1
			c-0.1,0-0.3,0.1-0.4,0.1c-0.3,0.1-0.5,0-0.8-0.1c-0.1,0-0.2,0.2-0.1,0.2c0.3,0.2,0.5,0.2,0.8,0.2c0.1,0,0.3,0,0.4-0.1
			c-0.3,2.1-0.9,4.2-2,6c-1.7,2.8-4.7,4.7-7.8,5.7c-3.4,1.1-6.9,1.2-10.3,0.2c-3.6-1.1-6.7-3.7-8.8-6.9c-0.5-0.9-0.9-1.8-1.2-2.8
			c0.4,0,1.1,0,1.1-0.5c0-0.1-0.1-0.1-0.1-0.1c-0.2,0-0.3,0.2-0.5,0.2c-0.2,0.1-0.4,0.1-0.6,0.1c-0.1-0.6-0.2-1.1-0.3-1.7
			c0.4,0.1,0.8,0.1,1.2-0.1c0.1,0,0.1-0.1,0.1-0.2c0-0.2-0.2-0.2-0.4-0.1c-0.3,0.1-0.6,0.1-0.9,0.1c-0.1-0.6-0.1-1.2-0.1-1.8
			c0.4,0.1,1.1,0.2,1.2-0.2c0,0,0-0.1-0.1-0.1c-0.2,0-0.4,0.1-0.6,0.1c-0.2,0-0.4,0-0.6,0c0-0.1,0-0.1,0-0.2c0-0.1,0-0.2,0-0.2
			c0.1-1,0.1-2.1,0.3-3.1c0.1-0.6,0.3-1.3,0.5-1.9c0.1,0,0.2-0.2,0.1-0.3c0.1-0.2,0.2-0.5,0.3-0.7c0,0,0,0,0,0
			c0.5-1.1,1.3-2.2,2.1-3.2c0,0,0.1,0,0.1-0.1c0.9-1,1.9-1.8,2.8-2.5c1.6-1.1,3.5-1.9,5.5-2.4c0.1,0,0.1,0,0.2,0
			c0.5-0.1,1-0.2,1.4-0.3c0.1,0,0.2,0,0.2,0c0.8-0.1,1.7-0.2,2.5-0.3c1.5-0.1,3.1,0.1,4.6,0.5c0.1,0.1,0.2,0.1,0.3,0.1
			c1.6,0.4,3.1,1.1,4.5,2c1.2,0.8,2.1,1.8,2.8,2.9c0,0,0,0,0,0c-0.1,0.1,0,0.3,0.2,0.3c0.7,1.2,1.3,2.5,1.7,3.8c0,0,0,0-0.1,0.1
			c-0.1,0.1,0,0.3,0.2,0.3c0.2,0.6,0.3,1.2,0.4,1.8C40.4,27.6,40.5,28.4,40.6,29.2z M40.4,26c-0.1-0.4-0.2-0.8-0.3-1.2
			c0.2-0.2,0.5-0.4,0.8-0.7c0,0,0,0,0.1,0C41.8,24.4,40.7,25.5,40.4,26z M42.8,21.8c-0.3,0.5-0.7,0.9-1.1,1.2
			c-0.5,0.5-1.2,0.9-1.7,1.4c-0.2-0.5-0.4-1-0.6-1.5c0,0,0,0,0,0c0.8-1,1.8-1.7,2.9-2.4c0,0,0,0,0,0C43,20.8,43.2,21.2,42.8,21.8z
			 M43.9,18.5c-0.2,0.8-1.1,1.2-1.7,1.6c-1.1,0.7-2.1,1.4-3,2.4c-0.3-0.6-0.6-1.2-1-1.8c0.9-1.4,2.1-2.4,3.6-3.2
			c0.5-0.2,1-0.4,1.5-0.4C44,17.2,44.1,17.8,43.9,18.5z M42.1,17.1c-1.6,0.7-3,1.9-4,3.3c-0.5-0.6-1-1.2-1.5-1.8
			c0.8-2,2.8-3,4.7-3.7c1-0.4,5-1.4,4.6,0.8C45.7,16.8,42.9,16.7,42.1,17.1z"/>
		<path fill="#443323" d="M36.1,29.6c0-0.4,0-0.7-0.1-1.1c0.3,0,0.5-0.2,0.7-0.3c0.2-0.2,0.2-0.4,0.2-0.7c0-0.2-0.2-0.4-0.4-0.5
			c-0.2-0.1-0.5,0-0.7,0.1c-0.1-0.3-0.1-0.5-0.2-0.8c0.5-0.2,0.9-0.7,0.7-1.3c-0.1-0.2-0.3-0.4-0.6-0.4c-0.3,0-0.5,0.1-0.7,0.3
			c-0.2-0.3-0.3-0.6-0.5-0.8c0.5-0.3,0.7-1.1,0.4-1.5c-0.2-0.3-0.7-0.4-1-0.3c-0.2,0.1-0.5,0.2-0.6,0.4c-0.3-0.3-0.6-0.5-0.9-0.8
			c0.3-0.3,0.5-0.6,0.5-1c-0.1-0.4-0.4-0.6-0.7-0.7c-0.3-0.1-0.7-0.1-1,0.1c-0.2,0.1-0.4,0.4-0.4,0.6c-0.3-0.2-0.7-0.3-1-0.5
			c0.2-0.6,0-1.3-0.6-1.5c-0.6-0.2-1,0.4-1.2,0.9c-0.2-0.1-0.5-0.1-0.7-0.1c0,0,0-0.1,0-0.1c-0.1-0.6-0.4-1.8-1.3-1.5
			c-0.4,0.1-0.5,0.6-0.6,0.9c0,0.1-0.1,0.4,0,0.5c-0.3,0-0.6,0-0.9,0c-0.1,0-0.2,0-0.3,0c-0.1-0.4-0.3-0.8-0.7-1
			c-0.3-0.1-0.6-0.1-0.8,0.1c-0.3,0.3-0.4,0.9-0.1,1.2c-0.6,0.2-1.1,0.4-1.6,0.7c-0.3-0.5-1-1.1-1.5-0.6c-0.2,0.2-0.3,0.5-0.3,0.7
			c0,0.2,0.2,0.5,0.4,0.7c-0.3,0.2-0.7,0.5-1,0.8c-0.2-0.3-0.6-0.7-1-0.7c-0.3,0-0.5,0.2-0.6,0.4c-0.2,0.5,0,1.2,0.6,1.4
			c-0.2,0.2-0.4,0.5-0.6,0.7c0,0,0-0.1-0.1-0.1c-0.3-0.3-0.8-0.5-1.2-0.5c-0.4,0-0.7,0.4-0.8,0.7c-0.2,0.6,0.4,1.4,1.1,1.5
			c-0.1,0.3-0.3,0.6-0.4,0.9c0,0,0,0,0,0c-0.8-0.3-1.9,0.1-1.7,1.1c0.1,0.5,0.8,1,1.3,0.9c-0.1,0.4-0.1,0.9,0,1.3c0,0,0,0-0.1,0
			c-0.7,0-1.4,0.5-1.2,1.3c0.1,0.6,0.8,0.9,1.4,0.7c0,0.4,0.1,0.7,0.2,1c-0.6,0.3-1,0.9-0.7,1.5c0.1,0.3,0.4,0.4,0.7,0.4
			c0.2,0,0.4-0.1,0.5-0.2c0.2,0.4,0.4,0.7,0.6,1.1c-0.1,0.1-0.3,0.3-0.3,0.4C16.1,36.3,16,36.6,16,37c0,0.4,0.3,0.4,0.6,0.5
			c0.4,0,0.7,0,1-0.3c0,0,0,0,0,0c0.3,0.4,0.6,0.7,1,1c0,0,0,0,0,0c-0.4,0.5-0.6,1.2,0.1,1.5c0.2,0.1,0.5,0.1,0.8,0
			c0.2-0.1,0.5-0.3,0.5-0.6c0.5,0.3,0.9,0.5,1.4,0.7c-0.2,0.5,0,1.1,0.5,1.3c0.7,0.3,1.2-0.3,1.3-0.9c0.5,0.1,1,0.1,1.6,0.2
			c-0.1,0.2,0,0.4,0,0.5c0.1,0.2,0.3,0.4,0.5,0.5c0.7,0.3,1.2-0.6,1.4-1.1c0.5-0.1,1-0.2,1.5-0.4c0,0.2,0.2,0.5,0.3,0.6
			c0.2,0.2,0.6,0.3,0.9,0.2c0.6-0.2,0.8-1,0.7-1.5c0.4-0.2,0.7-0.4,1-0.6c0.1,0.2,0.4,0.4,0.6,0.5c0.3,0.1,0.6,0.1,0.9-0.1
			c0.2-0.1,0.4-0.4,0.4-0.7c0-0.2,0-0.7-0.3-0.8c0.3-0.2,0.5-0.5,0.8-0.8c0.2,0.2,0.4,0.4,0.8,0.4c0.3,0,0.4-0.2,0.5-0.4
			c0.1-0.2,0.1-0.5,0-0.7c0-0.1-0.1-0.2-0.2-0.3c0,0-0.1-0.1-0.2-0.1c0.3-0.4,0.5-0.8,0.7-1.3c0.2,0.1,0.5,0.2,0.7,0.1
			c0.3-0.1,0.4-0.4,0.5-0.7c0.1-0.3,0-0.6-0.1-0.8c-0.1-0.2-0.3-0.4-0.6-0.4c0.1-0.4,0.2-0.9,0.2-1.3c0,0,0.1,0,0.1,0
			c0.6,0,1-0.4,0.8-1C36.8,30,36.4,29.6,36.1,29.6z M35.9,25.3c0.1,0.3-0.2,0.5-0.5,0.7c-0.1-0.2-0.2-0.4-0.3-0.7
			C35.3,25.2,35.8,25,35.9,25.3z M34.1,22.8c0.2,0,0.5,0,0.6,0.3c0,0.2-0.1,0.4-0.2,0.6c-0.1,0.1-0.1,0.2-0.2,0.2
			c-0.2-0.3-0.4-0.5-0.7-0.8C33.7,22.9,33.8,22.8,34.1,22.8z M32,20.8c0.2,0.1,0.3,0.2,0.4,0.4c0,0.1,0,0.2-0.1,0.3
			c-0.1,0.1-0.2,0.3-0.3,0.4c-0.3-0.2-0.6-0.4-0.9-0.6C31.1,20.8,31.6,20.7,32,20.8z M29.1,19.5c0.4,0.1,0.4,0.6,0.3,1
			c-0.3-0.1-0.7-0.2-1-0.3C28.4,19.8,28.6,19.4,29.1,19.5z M25.8,19.3c0.1-0.3,0.2-0.6,0.4-0.6c0.5-0.1,0.6,0.9,0.6,1.2
			c-0.4,0-0.7-0.1-1.1-0.1c0,0,0-0.1,0-0.2C25.7,19.5,25.7,19.4,25.8,19.3z M23.1,19.3c0.4-0.3,0.7,0.3,0.8,0.6
			c-0.2,0-0.5,0.1-0.7,0.2c-0.1-0.1-0.2-0.2-0.2-0.4C22.9,19.5,23,19.4,23.1,19.3z M19.7,21c0-0.2,0-0.3,0.1-0.5
			c0.3-0.3,0.7,0.2,0.9,0.5c-0.2,0.1-0.5,0.3-0.7,0.4c0-0.1-0.1-0.1-0.2-0.2C19.8,21.2,19.7,21.1,19.7,21z M17.5,22.3
			c0,0,0.1-0.1,0.1-0.1c0.1,0,0.1-0.1,0.2-0.1c0.3,0,0.5,0.4,0.7,0.6c-0.2,0.2-0.4,0.4-0.5,0.5C17.5,23.1,17.3,22.7,17.5,22.3z
			 M15.4,24.4c0.1-0.3,0.4-0.5,0.7-0.4c0.3,0.1,0.5,0.3,0.8,0.4c0,0,0,0,0,0c-0.2,0.3-0.5,0.7-0.7,1.1c0,0-0.1-0.1-0.1-0.1
			C15.8,25.3,15.4,24.8,15.4,24.4z M15.3,30.5c0,0.3,0,0.6,0,0.8c-0.4,0.1-0.8,0.2-1-0.3c-0.2-0.6,0.4-0.9,0.9-0.9c0,0,0.1,0,0.1,0
			C15.3,30.2,15.3,30.4,15.3,30.5C15.3,30.5,15.3,30.5,15.3,30.5z M15.4,28c-0.2,0.1-0.4,0.2-0.6,0c-0.2-0.1-0.3-0.3-0.4-0.5
			c-0.1-0.2,0-0.4,0.2-0.5c0.3-0.2,0.7-0.1,1.1-0.2C15.5,27.3,15.4,27.6,15.4,28z M15.6,34.3c-0.2,0-0.3-0.1-0.4-0.2
			c-0.2-0.4,0-0.8,0.4-1c0.1,0.4,0.2,0.7,0.4,1.1C15.8,34.2,15.7,34.3,15.6,34.3z M17.3,37c-0.3,0.1-0.6,0.1-0.9,0
			c0-0.3,0.1-0.5,0.2-0.8c0.1-0.1,0.2-0.2,0.2-0.3c0.2,0.3,0.4,0.7,0.7,1C17.4,36.9,17.4,36.9,17.3,37z M19,39.3
			c-0.4-0.2-0.2-0.7,0-0.9c0.2,0.2,0.5,0.4,0.8,0.5C19.5,39.1,19.3,39.5,19,39.3z M22.2,40.8c-0.4-0.1-0.5-0.5-0.5-0.9
			c0.4,0.1,0.8,0.2,1.2,0.3C22.9,40.6,22.6,40.9,22.2,40.8z M25.6,41.1c-0.2,0-0.3-0.1-0.3-0.3c-0.1-0.1,0-0.2,0-0.4
			c0.4,0,0.7,0,1.1-0.1C26.2,40.7,26,41.1,25.6,41.1z M29.5,40.4c-0.3,0.2-0.6,0-0.7-0.2c0,0-0.1-0.2-0.1-0.3
			c0.4-0.1,0.9-0.3,1.3-0.5C30,39.8,29.8,40.2,29.5,40.4z M32.6,38.7c-0.2,0.1-0.4,0.1-0.5,0c-0.1-0.1-0.2-0.2-0.3-0.3
			c0.4-0.2,0.7-0.5,1-0.7c0,0.2,0.1,0.3,0.1,0.5C32.9,38.4,32.8,38.6,32.6,38.7z M34.6,36.1c0,0.2,0,0.3,0,0.5c0,0.1,0,0.1-0.1,0.1
			c0,0,0,0,0,0c0,0,0,0,0,0c0,0,0,0,0,0c0,0,0,0,0,0c0,0,0,0-0.1,0c0,0-0.1,0-0.1-0.1c-0.1-0.1-0.2-0.2-0.3-0.3
			c0.1-0.1,0.2-0.3,0.3-0.4c0-0.1,0.1-0.1,0.1-0.2c0,0,0,0.1,0.1,0.1C34.6,35.9,34.6,36,34.6,36.1z M34.5,35.1
			c-1.4,2.6-4.5,4.1-7.3,4.7c-2.6,0.5-5.5-0.1-7.6-1.5c-1.5-1-2.5-2.4-3.1-4.1c0,0,0-0.1,0-0.1c0-0.1,0-0.1-0.1-0.1
			c-0.3-0.9-0.6-1.8-0.7-2.7c0,0,0-0.1,0-0.1c-1.1-5.5,3.9-10.6,9.2-11c3.4-0.2,7,1.4,9,4.1c0,0.1,0.1,0.1,0.1,0.1
			c0.4,0.6,0.8,1.2,1,1.8c0,0.1,0,0.2,0.1,0.2c0.1,0.3,0.2,0.5,0.3,0.8C36.1,29.7,35.7,32.8,34.5,35.1z M36.1,33.1
			c0.1,0.2,0.1,0.4,0.1,0.5c0,0.1-0.1,0.3-0.2,0.4c-0.2,0.1-0.4,0-0.5-0.1c0.1-0.3,0.2-0.7,0.3-1.1C35.9,32.9,36,32.9,36.1,33.1z
			 M35.9,27.5c0.1-0.1,0.3-0.1,0.5-0.1c0.1,0,0.1,0.1,0.1,0.2c0,0.1,0,0.2-0.1,0.3c-0.1,0.1-0.3,0.1-0.4,0.2
			C35.9,27.9,35.9,27.7,35.9,27.5z M36.1,30.8C36.1,30.8,36.1,30.8,36.1,30.8c0-0.3,0-0.6,0-0.9c0.2,0.1,0.3,0.3,0.4,0.4
			C36.6,30.6,36.4,30.8,36.1,30.8z"/>
		<path fill="#443323" d="M37.6,29c0.1-0.1,0.2-0.1,0.3-0.2c0,0,0,0,0,0c0,0,0,0,0,0c0.6-0.3,0.6-1.2,0.2-1.7
			c-0.1-0.3-0.4-0.6-0.8-0.7c1-0.9-0.2-2.7-1.2-2.5c0.3-0.6,0.1-1.3-0.5-1.8c-0.4-0.4-0.9-0.5-1.4-0.5c-0.1,0-0.1,0-0.2,0
			c0.1-0.1,0.1-0.3,0.2-0.5c0.3-1.5-2.5-2.6-3.3-1.3c0-0.2-0.1-0.4-0.2-0.6c-0.2-0.4-0.7-0.9-1.1-1.1c-0.6-0.2-1-0.2-1.5,0.1
			c-0.1,0.1-0.3,0.3-0.3,0.3c0-0.3-0.1-0.5-0.2-0.7c-0.6-1.1-3-0.5-3,0.7c-1-0.9-3-0.5-3.2,0.8c-1-1-3.2-0.3-3.2,1.1
			c-1.2-0.6-2.8,0.9-2.5,2.3C14,22,13,24.3,14.1,25.7c-2,0.2-2.4,2.3-0.9,3.5c-1.4,1-1.4,3.3,0.4,3.5c-1.1,1.4-0.1,2.6,1.6,2.9
			c-1.7,1.3,0.4,4.2,2.1,3.3c-0.1,0.6,0.3,1.3,0.7,1.6c0.7,0.6,1.7,0.5,2.4,0c-0.2,2,2.5,2.4,3.7,1.1c0,0.8,0.6,1.3,1.5,1.2
			c0.9-0.1,1.8-0.7,2.2-1.6c0.6,0.7,1.6,1,2.5,0.6c0.6-0.3,1.3-1.2,1.1-2c1.5,0.5,3.7-0.4,2.9-1.9c1.5,0.3,2.7-1,1.8-2.5
			c1.6-0.2,2.6-2.4,1.4-3.3C38.7,31.8,38.8,29.6,37.6,29z M36.9,31.9c-0.2,0-0.2,0.3,0,0.4c1.9,0.5,0.5,3-1,3c-0.2,0-0.2,0.3,0,0.3
			c0.9,1.4-0.3,2.7-1.8,2c-0.2-0.1-0.3,0.1-0.2,0.3c1.4,1.6-1.3,2.2-2.5,1.6c-0.2-0.1-0.3,0.1-0.3,0.2c-0.1,0.3,0,0.6,0,1
			c-0.1,0.4-0.4,0.7-0.7,0.9c-0.8,0.4-1.7,0.1-2.3-0.5c0-0.2-0.3-0.3-0.4-0.1c-0.2,0.7-0.9,1.2-1.6,1.4c-0.9,0.3-1.4-0.1-1.5-1.1
			c0-0.1-0.1-0.1-0.1-0.1c-0.1-0.1-0.2-0.1-0.3,0c-1,1.2-3.6,1-3.2-1c0-0.1-0.1-0.2-0.1-0.1c-0.1-0.1-0.2-0.1-0.3,0
			c-0.6,0.5-1.3,0.5-1.9,0.1c-0.3-0.2-0.5-0.5-0.6-0.8c-0.1-0.3,0-0.5,0-0.7c0,0,0.1-0.1,0.1-0.1c0.2-0.2-0.1-0.5-0.3-0.3
			c-0.7,0.6-1.5,0.4-2.1-0.3c-0.6-0.8-0.5-1.8,0.2-2.4c0.1-0.1,0.1-0.2,0-0.2c0-0.1,0-0.1-0.1-0.2c-1.4-0.3-2.8-1.2-1.4-2.6
			c0.1-0.1,0-0.4-0.2-0.4c-2,0-1.6-2.2-0.3-2.9c0.1-0.1,0.1-0.3,0-0.4c-1.8-0.9-1.3-2.8,0.6-3.1c0,0,0,0,0.1,0
			c0.2,0,0.3-0.2,0.2-0.3c-0.8-1.1-0.4-3.5,1.4-2.5c0.2,0.1,0.5-0.1,0.3-0.3c-0.8-1.3,1.2-3.2,2.1-1.8c0.2,0.3,0.6,0,0.4-0.2
			c-1-1.5,1.8-2.3,2.7-1c0,0,0,0,0,0c0.1,0.2,0.4,0.1,0.3-0.1c-0.2-0.7,0.2-1.2,0.9-1.4c0.7-0.1,1.3,0.1,1.8,0.6
			c0.1,0.1,0.3,0,0.4-0.1c0,0,0.1-0.1,0-0.1c-0.4-1.2,2.5-2,2.7,0c0,0.1,0.1,0.2,0.2,0.1c1-1.1,3.1-0.4,3.1,1.2c0,0.1,0.1,0.1,0.2,0
			c0.4-1.2,1.9-0.5,2.5,0c0.5,0.4,0.5,1,0.1,1.5c0,0.1,0,0.1,0,0.2c0,0.1,0.1,0.2,0.2,0.1c1.4-0.6,2.9,0.9,1.9,2.3
			c-0.1,0.1,0.1,0.3,0.2,0.2c0,0,0,0,0,0c0.1,0,0.1,0,0.1,0c0.7-0.6,2.3,1.4,0.8,2.1c-0.2,0.1-0.1,0.3,0.1,0.3
			c0.4,0,0.6,0.1,0.9,0.3c0.1,0.2,0.2,0.4,0.3,0.7c0,0.1,0,0.2,0,0.2c-0.2,0.2-0.2,0.4-0.3,0.6c-0.1,0.3-0.4,0.4-0.7,0.4
			c-0.2,0-0.2,0.2,0,0.3c0,0,0,0,0.1,0.1C38.4,29.4,38.5,32.1,36.9,31.9z"/>
		<path fill="#443323" d="M26.7,34.9c-0.1,1.1,0.9,2.2,2,1.8c0.7-0.2,1.1-0.9,1.2-1.6c0-0.1,0.1-0.2,0-0.2c0-0.1,0-0.2,0-0.3
			c-0.1-0.4-0.4-0.8-0.8-1c-0.1-0.1-0.3-0.1-0.5-0.1C27.7,32.7,26.8,34,26.7,34.9z M28.6,36.3C28.6,36.3,28.6,36.3,28.6,36.3
			c-0.1-0.3-0.1-0.6-0.1-0.9c0.1,0,0.1-0.1,0.2-0.2c0.3,0,0.6,0,0.9,0C29.5,35.6,29.1,36.1,28.6,36.3z M29.6,34.7
			C29.6,34.7,29.6,34.7,29.6,34.7c-0.3,0-0.6,0-0.9,0c0-0.1-0.1-0.1-0.1-0.2c0,0-0.1-0.1-0.2-0.1c0-0.3-0.1-0.5-0.1-0.8
			C28.9,33.7,29.6,34,29.6,34.7z M28.3,36.3c-0.6,0-1.1-0.5-1.2-1.2c0.3,0,0.6,0,1,0c0,0,0,0,0,0c0.1,0.1,0.1,0.1,0.2,0.1
			C28.3,35.7,28.3,36,28.3,36.3z M28.2,34.4c0,0-0.1,0.1-0.1,0.1c-0.1,0.1-0.1,0.2-0.1,0.2c0,0,0,0,0,0c-0.3,0-0.6,0.1-0.9,0.1
			c0-0.4,0.2-0.8,0.4-1.1c0,0,0.1,0,0.1,0c0.2-0.1,0.4-0.2,0.6-0.2C28.1,33.9,28.2,34.2,28.2,34.4z"/>
		<path fill="#443323" d="M34.6,29.7C34.6,29.7,34.6,29.7,34.6,29.7c-0.6-0.2-1-0.7-1.6-1c-0.1,0-0.3-0.1-0.4-0.1
			c0.5-2.4-0.7-4.9-3-6.1c-0.8-0.4-1.9-0.6-3-0.4c-0.4-0.4-0.8-0.7-0.8-1.2c0-0.2-0.2-0.2-0.3,0c0,0-0.1,0-0.1,0.1
			c-0.2,0.7-1.4,1.2-1.5,1.9c-0.6,0.4-1,0.8-1.3,1.4c-1.5,2.4-1.2,5.7,1,7.3c-1.5-1.1-3.9-0.8-5.1,0.5c-0.7,0.7-1.2,2.9-0.5,3.8
			c0.9,1.9,3.4,3,5.4,2c1.2-0.6,1.8-1.5,1.9-2.5c0,0.1,0,0.2,0,0.2c0.4,1.6,2.1,2.4,3.6,2.1c1.7-0.4,2.5-2.2,2.2-3.8
			c-0.2-1-1-1.5-2-1.6c1-0.3,1.9-0.9,2.6-1.9c0.1,0,0.2,0,0.3,0c0.1,0,0.3,0,0.5,0c-0.3,0.4-0.6,1-0.2,1.2c0.4,0.2,0.9-0.1,1.1-0.3
			c0.5-0.4,0.8-0.9,1.3-1.3C35,29.9,34.8,29.5,34.6,29.7z M25.7,28.5c0.5,0.4,1.1,0.5,1.7,0.5c1.1-0.1,1.7-1.2,1.7-2.2
			c0-1-1.1-2.1-2.2-1.8c-0.1,0-0.1,0.1-0.1,0.1c-0.4,0.1-0.8,0.3-1.1,0.6c0-0.8,0-1.5-0.1-2.3c0.2,0.2,0.5,0.2,0.8,0.1
			c0,0,0,0.1,0,0.1c0.2,0.3,0.3,0.4,0.6,0.4c0.1,0,0.3-0.2,0.4-0.3c0.5-0.5,0.9-0.3,1.4,0.4c0,0.2,0,0.4-0.1,0.6
			c0,0.3,0.2,0.4,0.4,0.5c0.2,0.1,0.4,0,0.6-0.1c0.7-0.3,0.7,1.1,0.2,1.5c0,0,0,0.1,0,0.1c0,0.3,0.3,0.5,0.5,0.7
			c0.8,0.7,0.1,1.4-0.6,1.2c-0.4-0.1-0.7,0.3-0.6,0.6c0.1,0.3,0,0.5-0.1,0.7c-0.5,0-0.9,0-1.4,0.1c0,0,0,0,0-0.1
			c-0.1-0.2-0.2-0.5-0.5-0.6c-0.5-0.2-0.8,0.3-1,0.7c0,0,0,0,0,0c0,0,0,0,0-0.1c0,0,0,0,0,0c0,0,0,0,0-0.1c-0.1-0.2-0.2-0.5-0.5-0.6
			c-0.1,0-0.1,0-0.2,0C25.7,29.2,25.7,28.8,25.7,28.5z M26.7,26.5c0,0,0,0.1,0,0.1c0,0,0,0,0,0c-0.1,0.1-0.1,0.2-0.1,0.3
			c0,0,0,0,0,0C26.2,27,26,27,25.8,27.1c0-0.2,0-0.4,0-0.6c0.2-0.4,0.6-0.7,0.9-0.9C26.7,25.9,26.6,26.2,26.7,26.5z M26.5,27.3
			C26.5,27.3,26.5,27.3,26.5,27.3c0.1,0.3,0.3,0.5,0.5,0.5c0,0.1,0,0.2,0,0.2c0,0.2,0,0.3,0,0.5c0,0,0,0,0,0c-0.5,0-1-0.3-1.3-0.7
			c0-0.2,0-0.3,0-0.5C26,27.4,26.3,27.3,26.5,27.3z M27.9,26.9c0-0.1-0.1-0.2-0.2-0.3c-0.1-0.2-0.4-0.3-0.7-0.3c0-0.3,0-0.5,0-0.8
			c0,0,0.1,0,0.1,0c0.4,0.1,0.7,0.1,1.1,0.3c0.3,0.2,0.5,0.6,0.5,1c0,0,0,0,0,0C28.4,26.8,28.1,26.8,27.9,26.9z M28.6,27.1
			c-0.1,0.6-0.6,1.2-1.2,1.4c0,0-0.1,0-0.1,0c0-0.2,0-0.3,0-0.5c0-0.1,0-0.2,0-0.3c0.1,0,0.2-0.1,0.3-0.1c0.2-0.1,0.3-0.3,0.3-0.5
			C28.2,27.1,28.4,27.2,28.6,27.1z M27.1,26.7c0.1,0,0.2,0,0.3,0.1c0.2,0.1,0.3,0.4,0.1,0.6c-0.2,0.2-0.5,0.1-0.7-0.1
			c-0.1-0.1-0.1-0.2,0-0.4c0,0,0-0.1,0-0.1C26.9,26.8,27,26.7,27.1,26.7z M27.5,30.2c-0.1,0-0.1,0-0.2,0c-0.1,0-0.2,0-0.3,0
			C27.1,29.9,27.3,29.8,27.5,30.2z M24.9,23.9c0.2,0,0.4-0.1,0.5-0.3c0,0.9,0,1.8,0,2.6c-0.2,0.2-0.3,0.5-0.3,0.8
			c-0.1,0.4,0.1,0.8,0.3,1.1c0,0.4,0,0.9,0,1.3c-0.1,0-0.2,0-0.4,0.1c0,0,0,0,0,0c-0.1-0.2-0.3-0.5-0.6-0.5c-0.1,0-0.2,0.1-0.3,0.1
			c0,0,0,0,0,0c0,0,0,0,0,0c-0.1,0-0.1,0-0.2,0c-0.2-0.1-0.4-0.4-0.2-0.7c0.1-0.1,0.2-0.2,0.3-0.2c0,0,0,0,0,0c0,0,0,0,0,0
			c0,0,0.1-0.1,0.1-0.1c0,0,0,0,0.1,0c0,0,0,0,0.1-0.1c0-0.1,0.1-0.1,0.1-0.2c0.1-0.2,0-0.5-0.1-0.6c-0.3-0.3-0.7-0.9-0.1-1.1
			c0.2-0.1,0.5-0.1,0.7-0.3C25.5,25.1,24.6,24.5,24.9,23.9z M23,37.6c-1.7,0.7-3.2-0.2-4.2-1.5c0,0,0-0.1,0-0.1
			c-0.1,0-0.1-0.1-0.1-0.1c-0.1-0.1-0.2-0.3-0.3-0.4c0,0-0.1-0.1-0.1-0.1c-0.5-1,0-2.5,0.7-3.3c1.2-1.2,3.6-1,4.8,0.1
			C25.6,33.9,25.4,36.6,23,37.6z M25.4,34.5c-0.1-0.9-0.6-1.8-1.3-2.6c-0.1-0.1-0.2-0.2-0.3-0.3c0.4,0.3,0.9,0.5,1.5,0.7
			c0.5,0.1,1,0.2,1.6,0.2C26.1,32.9,25.5,33.7,25.4,34.5z M30.7,33.6c0.8,1.3-0.2,3-1.3,3.6c-1.3,0.7-2.7,0.1-3.4-1.1
			c-0.8-1.4,0-2.6,1.2-3.2h0C28.3,32.6,30,32.3,30.7,33.6z M26.4,32.1c-4.1-0.2-5.1-4.5-3.5-7.7c0,0,0-0.1,0-0.1
			c0.2-0.4,0.6-0.8,1-1c0.1,0.4,0.4,0.7,0.7,0.7c-0.1,0.1-0.1,0.3-0.1,0.5c0.1,0.4,0.7,0.6-0.1,1.1c-0.2,0.1-0.4,0.1-0.7,0.2
			c-0.6,0.3-0.7,0.8-0.3,1.4c0.2,0.3,0.6,0.5,0.1,0.8c-0.2,0.2-0.4,0.5-0.3,0.8c0.1,0.3,0.3,0.7,0.6,0.8c0.3,0.1,0.5-0.2,0.8,0.2
			c0,0,0,0,0,0c-0.2,0.2-0.3,0.4-0.4,0.6c-0.2,0.7,0.5,1.2,1.2,1.1c0,0,0,0,0,0c0.4,0,0.7-0.3,0.8-0.7c0.1,0,0.1,0,0.2,0
			c0,0,0.1-0.1,0.1-0.2c0.2,0,0.4,0,0.6,0c0.1,0,0.2,0,0.3,0c0.1,0.2,0.2,0.4,0.4,0.5c0.5,0.1,1.2-0.1,1.5-0.5c0.1,0,0.2,0,0.3,0
			c0.5,0,1,0,1.5,0C30.2,31.9,28.4,32.2,26.4,32.1z M31.7,29.9c-0.6,0-1.2,0-1.8,0.1c0,0,0,0-0.1,0c0-0.2-0.1-1.2,0.4-1
			c0.2,0.1,0.4,0.3,0.6,0.1c0.5-0.3,0.7-1.1,0.5-1.7c-0.1-0.2-1.1-0.5-0.6-0.9c0.2-0.1,0.3-0.4,0.4-0.6c0-0.3-0.3-1.5-0.8-1.2
			c-1.4,0.6-0.6-0.9-1.2-1.3c-0.3-0.2-0.6-0.3-0.9-0.2c-0.3,0.1-1.1,0.9-1.4,0.4c0,0-0.1-0.1-0.1-0.1c0.1-0.1,0.2-0.2,0.3-0.3
			c0.2-0.4,0.1-0.6-0.1-0.9c0.9-0.1,1.7,0,2.4,0.2c2.5,0.8,3.6,3.6,3,6c-0.2,0-0.4,0.1-0.4,0.2c-0.1,0.2-0.1,0.5,0.1,0.7
			C31.8,29.6,31.7,29.8,31.7,29.9z M32.3,29.9c-0.1,0-0.1,0-0.2,0c0-0.1,0.1-0.1,0.1-0.2c0.1,0.1,0.2,0.1,0.2,0.2
			C32.3,29.9,32.3,29.9,32.3,29.9z"/>
		<path fill="#443323" d="M22.8,32.2c-0.5-0.3-1.5-0.5-2-0.1c0,0,0,0,0,0.1c-0.7,0.3-1.2,1.1-1.3,1.9c-0.2,1.4,0.9,2.5,2.3,2.4
			c1.2-0.1,2.5-1.2,2.3-2.5C23.9,33.2,23.5,32.6,22.8,32.2z M23.4,33.2c-0.4,0.2-0.8,0.4-1.2,0.6c0-0.1,0-0.2-0.1-0.3
			c0,0,0-0.1-0.1-0.1c0.3-0.2,0.5-0.5,0.7-0.8C22.9,32.8,23.2,33,23.4,33.2z M22.1,32.4c0.1,0,0.2,0,0.2,0.1
			c-0.2,0.2-0.3,0.4-0.5,0.6c0-0.2-0.1-0.5-0.1-0.7C21.8,32.4,22,32.4,22.1,32.4z M21.6,33.6C21.6,33.6,21.6,33.6,21.6,33.6
			c0.1,0,0.1,0,0.2,0c0,0,0,0,0,0c0.1,0.2,0.1,0.4,0,0.5c0,0,0,0,0,0c-0.1,0-0.1,0.1-0.1,0.2c0,0,0,0,0,0c0,0-0.1,0-0.1,0
			c0-0.1-0.1-0.2-0.2-0.1c0,0,0-0.1,0-0.1c0,0,0,0,0,0c0.2,0,0.2-0.3,0.1-0.3c0,0,0,0,0,0C21.4,33.7,21.5,33.6,21.6,33.6z
			 M21.3,32.3c0.1,0,0.1,0,0.2,0c0,0.3,0,0.6,0,0.9c-0.2,0-0.3,0-0.4,0.2c0,0,0,0.1,0,0.1c0,0,0,0,0.1,0c0,0-0.1,0.1-0.1,0.1
			c-0.1-0.1-0.3-0.2-0.4-0.4c-0.1-0.1-0.2-0.3-0.3-0.4C20.7,32.6,20.9,32.4,21.3,32.3z M20.2,33.1c0.1,0.3,0.4,0.5,0.6,0.7
			c-0.2,0-0.4-0.1-0.5-0.1c-0.1,0-0.2,0-0.4,0C20,33.4,20.1,33.3,20.2,33.1z M20,35.2c-0.2-0.4-0.2-0.9-0.1-1.3
			c0.2,0,0.3,0.1,0.5,0.1c0.2,0.1,0.4,0.1,0.6,0.2c0,0.1,0,0.2,0.1,0.3c-0.1,0.1-0.3,0.2-0.4,0.3C20.4,34.9,20.2,35,20,35.2z
			 M20.1,35.5c0.2-0.2,0.5-0.4,0.7-0.5c0.1-0.1,0.2-0.1,0.2-0.2c-0.1,0.4-0.3,0.8-0.4,1.1C20.4,35.8,20.3,35.6,20.1,35.5z
			 M21.8,36.1c-0.3,0-0.6,0-0.9-0.1c0.2-0.4,0.4-0.9,0.5-1.3c0.1,0,0.2,0,0.3,0c0,0.5,0.2,0.9,0.4,1.3C22,36,21.9,36.1,21.8,36.1z
			 M22.4,35.9c-0.1-0.2-0.2-0.4-0.3-0.6c-0.1-0.2-0.1-0.4-0.1-0.5c0.1,0.1,0.3,0.2,0.4,0.3c0.2,0.1,0.4,0.3,0.6,0.4
			C22.9,35.7,22.6,35.8,22.4,35.9z M23.2,35.4c-0.1-0.2-0.3-0.3-0.4-0.4c-0.2-0.2-0.5-0.5-0.7-0.7c0,0,0-0.1,0-0.1
			c0.2,0,0.5,0.1,0.7,0.1c0.3,0,0.5,0.2,0.8,0.2C23.6,34.9,23.4,35.2,23.2,35.4z M23.6,33.7c0.1,0.1,0.1,0.3,0.1,0.4
			c-0.2-0.1-0.4-0.1-0.6-0.2c-0.1,0-0.2,0-0.3,0c0.3-0.1,0.6-0.3,0.7-0.5C23.5,33.5,23.6,33.6,23.6,33.7z"/>
	</g>
	<path fill="#443323" d="M51.3,26.8c0-4.3,0-8.7,0-13c0-3.4,0.2-6.9,0-10.3c-0.1-1.9-0.4-3.3-2.5-3.5c-1.6-0.1-3.2,0.1-4.8,0.1
		c-1.8,0-3.7,0.1-5.5,0.2c-3.5,0.2-7,0.2-10.5,0.1c-3.5-0.1-7,0.1-10.4,0c-3.5-0.1-7,0.2-10.6,0.1C5,0.4,1.9-0.1,0.7,1.8
		C0.2,2.6,0.1,3.7,0.2,4.7c-0.1,3.6,0.2,7.2,0,10.8c-0.1,3.9,0,7.7,0.2,11.6C0.6,34.4-0.4,41.7,0.1,49c0,0,0,0.1,0,0.1
		c0.1,1.1,0.1,2.1,0.8,2.9c0.9,1,3,0.3,4.1,0.3c4.2-0.1,8.4-0.3,12.6-0.4c4.3-0.1,8.5,0,12.8,0c4.2,0,8.4-0.3,12.6-0.4
		c1.9,0,3.7,0.2,5.6,0.1c0.9,0,1.6-0.3,2-1.2c0.6-1.3,0.2-3.2,0.2-4.5c-0.1-2.2-0.1-4.3,0-6.5C51,35.3,51.3,31.1,51.3,26.8z
		 M50.4,43c0,2.3,0.4,4.8,0,7.1c-0.2,1.2-1.5,1.2-2.5,1.2c-1.3,0-2.6-0.1-3.9-0.1c-5-0.1-10.1,0.4-15.1,0.4
		c-5.1,0-10.2-0.1-15.4,0.1c-2.5,0.1-5,0.2-7.5,0.2c-1.1,0-2.1,0.1-3.2,0.2c-1.6,0.2-2.1-0.8-2.3-2c0,0,0-0.1,0-0.1
		c-0.1-3.7-0.3-7.3-0.1-11c0.2-3.8,0.4-7.6,0.3-11.3C0.7,23.8,0.4,19.9,0.5,16c0.1-3,0.1-5.9-0.1-8.9c0,0,0.1,0,0.1-0.1
		c0-1.2-0.1-2.3-0.1-3.5c0.1-2.4,1.8-2.8,3.9-2.9c2.1-0.1,4.1,0.1,6.2,0.1c2.2-0.1,4.3-0.2,6.5-0.2c4.1,0.1,8.3,0,12.5,0.1
		c4.2,0.1,8.3-0.1,12.5-0.3c2-0.1,4-0.1,6-0.1c0.9,0,1.9,0,2.5,0.8C51.1,2,50.9,3.5,51,4.6c0.1,4.3-0.1,8.6-0.1,12.9
		c0,4.3,0,8.7,0.1,13C51,34.7,50.4,38.8,50.4,43z"/>
	<path fill="#443323" d="M49.1,20.3c-0.1-2.2-0.4-4.3-0.3-6.4c0-3.6,2.5-10.8-3.1-11.3c-1-0.1-2,0.1-3,0.1c-1.4,0.1-2.8,0-4.1,0
		c-3.6-0.1-7.1-0.2-10.7-0.2c-6.7,0.1-13.3,0.7-20-0.1C6.1,2.2,3.3,2,2.3,3.8c0,0,0,0-0.1,0C1.8,4.8,1.9,5.8,2,6.8
		c-0.1,1.7-0.1,3.4,0,5.1c0,0.4,0,0.8,0,1.2c-0.1,3.8,0.2,7.6,0.1,11.4c0,3.9-0.1,7.8,0,11.8c0.1,3.5,0,7,0.1,10.5c0,0,0,0.1,0,0.1
		c0,0.2,0,0.5,0.1,0.8c0,0.2,0,0.3,0,0.5c0,0.1,0.1,0.1,0.1,0.2c0.1,0.3,0.3,0.6,0.6,0.8c1.3,0.7,3,0.8,4.5,0.9
		c4.3,0.4,8.6,0.2,12.9,0.3c4.2,0.1,8.3,0.1,12.5-0.2c3.2-0.3,6.4,0.1,9.7,0c1.6,0,4.4-0.1,5.4-1.7c0.6-1,0.6-2.5,0.6-3.6
		c0.1-2-0.1-4.1,0.1-6.1c0.2-2,0.5-4,0.6-5.9c0.1-2.2,0-4.3,0-6.5C49.2,24.3,49.2,22.3,49.1,20.3z M48.8,33.8c-0.1,2-0.5,4-0.6,5.9
		c-0.2,2,0,4-0.1,6c-0.1,2-0.5,3-2.5,3.6c-1.4,0.4-2.8,0.4-4.2,0.4c-1.7,0-3.4,0-5.1-0.1c-2.3-0.1-4.6,0.2-6.8,0.3
		c-4.7,0.3-9.5,0-14.2-0.1c-2.4,0-4.9-0.2-7.3-0.3c-1.2,0-2.4-0.3-3.6-0.5c-1.1-0.2-1.5-0.8-1.7-1.7c0.1-3.5-0.1-7.1-0.2-10.7
		c-0.1-3.8-0.1-7.5,0-11.3c0-3.7-0.1-7.3-0.2-11c0-1.8,0.1-3.6,0.1-5.5c0-0.3,0-0.5,0-0.8c0,0,0.1-0.1,0.1-0.1c0-0.9,0-1.8,0-2.8
		c0,0,0,0,0-0.1c0-0.1,0-0.3,0-0.4C2.4,2.3,6,2.6,7.8,2.8c3.9,0.4,7.8,0.4,11.7,0.3c4.3-0.1,8.6-0.3,12.9-0.2
		C36.1,3,39.9,3.3,43.5,3c1.3-0.1,2.7-0.2,3.8,0.4c1.9,1,1.7,4.1,1.5,5.8c-0.2,1.9-0.5,3.7-0.5,5.6c0,2.2,0.3,4.3,0.4,6.4
		C49,25.4,49.1,29.7,48.8,33.8z"/>
	<path fill="#443323" d="M8.3,4.8C7.7,3.9,6.1,3.2,5.5,4.4C4.6,4.9,4.2,6,4.4,7.1c0.3,1.6,2.1,1.8,3.3,1.1C9,7.5,8.9,5.9,8.3,4.8z
		 M7.7,7.8C6.6,8.6,5,8.4,4.7,7C4.4,5.8,5.3,4.4,6.5,4.2c0,0,0.1,0,0.1-0.1c0.1,0,0.2,0,0.3,0C7.3,4.2,7.7,4.6,7.9,5
		C8.5,5.9,8.5,7.1,7.7,7.8z"/>
	<path fill="#443323" d="M7.1,5.6C6.8,5.1,6,5,5.8,5.6c0,0,0,0,0,0C5.6,5.8,5.4,6.1,5.5,6.3c0.1,0.6,0.7,0.8,1.2,0.6
		C7.2,6.7,7.4,6.1,7.1,5.6z M6.5,6.6C6.2,6.8,5.7,6.5,5.8,6.2c0.1-0.3,0.4-0.4,0.6-0.6c0.2,0,0.3,0.1,0.4,0.2C7,6.1,6.8,6.5,6.5,6.6
		z"/>
	<path fill="#443323" d="M47.6,5.8c-0.4-1.2-1.9-2-3-1.5c-2.1,0.5-1.8,4.5,0.8,4.4C46.9,8.6,48.1,7.3,47.6,5.8z M45.3,8.3
		c-1.9,0.1-2.2-2.6-0.9-3.5c1.2-0.2,2.2-0.2,2.8,1C47.8,7.1,46.6,8.2,45.3,8.3z"/>
	<path fill="#443323" d="M46.5,5.5c-0.3-0.3-0.7-0.4-1.1-0.3c-0.4,0.2-0.7,0.5-1,0.9c0,0.1,0,0.1,0.1,0.1c0,0,0.1-0.1,0.1-0.1
		c0,0.1-0.1,0.3,0,0.4c0.1,0.7,0.8,1.1,1.4,0.8C46.7,7.1,47.1,6.1,46.5,5.5z M45.9,7.1C45.5,7.3,45.1,7,45,6.6
		c-0.1-0.3,0-0.5,0.2-0.7c0,0,0,0,0,0c0.3-0.2,0.5-0.4,0.8-0.2C46.6,6,46.3,6.8,45.9,7.1z"/>
	<path fill="#443323" d="M46.5,44c-0.5-1-2.4-2.2-3.2-1c0,0,0,0.1,0,0.1c-1,0.7-1.5,1.8-1.2,3c0.4,1.6,2.5,2.1,3.8,1.3
		C47,46.8,47,45.1,46.5,44z M45.7,47c-1,0.9-3,0.3-3.4-0.8c-0.5-1.2,0.5-2.5,1.6-3.1C45.8,42.5,47.1,45.6,45.7,47z"/>
	<path fill="#443323" d="M44.9,44.4c-0.3-0.4-1.3-0.4-1.4,0.2c0,0,0,0,0,0c0,0,0,0.1-0.1,0.1c-0.3,0.4-0.3,0.9,0,1.3
		c0.4,0.5,1.3,0.7,1.6,0C45.3,45.5,45.2,44.8,44.9,44.4z M44.8,45.7c-0.1,0.4-0.4,0.5-0.8,0.3c-0.4-0.2-0.6-0.5-0.5-0.9
		c0.1-0.3,0.3-0.6,0.6-0.7c0.1,0,0.2,0,0.3,0.2C44.8,44.9,44.9,45.3,44.8,45.7z"/>
	<path fill="#443323" d="M9.2,44.9c-0.2-1.2-1.6-2.6-2.8-2c-2.1,0.2-2.6,4.9,0.3,5C8.4,48,9.4,46.5,9.2,44.9z M6.7,47.5
		c-2.2,0-2.1-3.3-0.7-4.1c0,0,0,0,0,0c0.6,0,1.1-0.2,1.7,0.1c0.6,0.3,0.9,0.9,1,1.4C9.2,46.3,8.1,47.5,6.7,47.5z"/>
	<path fill="#443323" d="M7.7,44.7c-0.1-0.2-0.3-0.4-0.6-0.5c-0.2,0-0.5,0-0.7,0.1c-0.4,0.2-0.6,0.7-0.5,1.1c0.1,0.7,0.7,1,1.3,0.7
		C7.8,45.9,7.9,45.2,7.7,44.7z M7.2,45.7c-0.3,0.3-0.8,0-0.8-0.3c0-0.2,0-0.4,0.1-0.5c0-0.1,0.1-0.1,0.2-0.2c0.3,0,0.5-0.2,0.7,0.1
		C7.5,45.1,7.4,45.5,7.2,45.7z"/>
</g>
</svg>
