<?xml version="1.0" encoding="utf-8"?>
<!-- Generator: Adobe Illustrator 18.0.0, SVG Export Plug-In . SVG Version: 6.00 Build 0)  -->
<!DOCTYPE svg PUBLIC "-//W3C//DTD SVG 1.1//EN" "http://www.w3.org/Graphics/SVG/1.1/DTD/svg11.dtd">
<svg version="1.1" id="Слой_1" xmlns="http://www.w3.org/2000/svg" xmlns:xlink="http://www.w3.org/1999/xlink" x="0px" y="0px"
	 viewBox="0 0 52.7 53.3" enable-background="new 0 0 52.7 53.3" xml:space="preserve">
<g>
	<path fill="#443323" d="M53.3,9.1c0.1-2.6,0.5-6.2-2-7.9c-2.2-1.4-5.7-0.9-8.1-0.9c-4.4,0.1-8.7,0.2-13.1,0.4
		c-3.7,0.1-7.4-0.1-11.1,0c-3.4,0.1-6.8,0.3-10.2,0.2C6.4,0.8,3.5,0.7,1.9,2.7c-1,1.2-1.3,2.9-1.2,4.5c0,0.2,0,0.5,0,0.7
		c0.1,2,0.2,4,0.2,6c0.1,4.2,0.2,8.5,0.3,12.7c0,4.2-0.2,8.4-0.3,12.6C0.8,42.5,0.4,46.4,2,49.5c2.2,4.5,8.6,4.1,12.8,3.8
		c7.5-0.4,15,0.3,22.5-0.5c0.3,0,0.5-0.1,0.8-0.1c0,0,0.1,0,0.1,0c3.4,0.1,6.8,0.3,10-0.9c2.7-1,4.3-3.6,4.8-6.3
		c0.3-1.7,0.1-3.4,0.1-5.1c0-2.2-0.1-4.5-0.2-6.7c-0.1-4.3,0.1-8.5,0.2-12.8c0-1.9,0.2-3.9,0.2-5.8C53.4,13.2,53.2,11.1,53.3,9.1z
		 M52.8,9.1c-0.1,2,0.1,4.1,0,6.1c0,1.9-0.2,3.9-0.2,5.8c-0.1,2.2,0.1,4.4-0.1,6.6c-0.3,4.3-0.1,8.6,0,12.9
		c0.1,3.9,0.2,8.1-3.5,10.4c-2.7,1.7-6.4,1.6-9.6,1.5c0,0-0.1,0-0.1-0.1c-1.3-0.4-2.9,0.1-4.3,0.1c-2,0.1-4.1,0.1-6.1,0.1
		c-3.9,0-7.8-0.1-11.7,0.1C12.7,52.9,6,54.2,2.8,50c-2.2-2.9-1.5-7.5-1.5-10.9c0.1-4,0.3-8.1,0.3-12.1c0-4.1-0.1-8.1-0.2-12.2
		c0-1.9-0.1-3.8-0.2-5.7c0-0.3,0-0.6-0.1-0.9c0,0,0-0.1,0-0.1c0-0.1,0-0.3-0.1-0.4C1,7,1,6.3,1.1,5.7C1.1,5,1.3,4.3,1.7,3.6
		c0.9-1.9,2.9-2.3,4.9-2.4c1.8-0.1,3.5,0.1,5.3,0.1c2.1,0,4.1-0.2,6.1-0.3c4.2-0.2,8.4,0.1,12.6,0C35,1,39.3,0.8,43.7,0.7
		c2.8,0,7.4-0.7,8.7,2.5C53.1,5,52.9,7.2,52.8,9.1z"/>
	<path fill="#443323" d="M46.1,43.6c-0.1,0-0.1,0.1-0.1,0.2c-0.7,0.4-1.1,1.3-1.1,2.1c0.1,1.5,1.7,2,2.9,1.6
		C50.4,46.6,48.6,41.8,46.1,43.6z M48,47.1c-1.1,0.7-2.7-0.1-2.7-1.3c-0.1-1.2,0.9-1.9,1.9-2.1c0.6,0,1.1,0.2,1.5,0.9
		C49,45.4,48.8,46.6,48,47.1z"/>
	<path fill="#443323" d="M47.8,45.3c-0.1-0.2-0.2-0.5-0.5-0.6c-0.2-0.1-0.6-0.1-0.8,0.1c-0.2,0.1-0.4,0.4-0.4,0.7
		c-0.1,0.6,0.4,1,0.9,1C47.6,46.4,47.9,45.8,47.8,45.3z M47.1,46.1c-0.7,0.1-0.8-0.9-0.2-1.1c0.1,0,0.1,0,0.2,0
		c0.2,0,0.3,0.2,0.3,0.4C47.5,45.6,47.4,46,47.1,46.1z"/>
	<path fill="#443323" d="M47.5,6.1c-0.1-0.4-0.8-0.8-1.1-0.4c0,0,0,0,0,0C46.2,5.9,46,6.1,46,6.3c0,0.5,0.4,0.9,0.9,0.8
		C47.4,7.1,47.7,6.6,47.5,6.1z M46.9,6.7c-0.5,0.1-0.7-0.6-0.3-0.8c0.2,0,0.4,0,0.5,0.2C47.2,6.4,47.1,6.7,46.9,6.7z"/>
	<path fill="#443323" d="M9.1,6.3c-0.3-1.2-1.5-2-2.6-1.6C4.7,5,4.7,8.8,6.9,9C8.5,9.2,9.4,7.6,9.1,6.3z M6.7,8.6
		C5.3,8.4,5.2,6.2,6.1,5.3c0,0,0,0,0.1,0c0.5-0.2,1-0.4,1.5-0.2c0.6,0.2,0.9,0.7,1.1,1.3C9.3,7.7,8,8.8,6.7,8.6z"/>
	<path fill="#443323" d="M7.8,6.3C7.7,6.1,7.6,5.9,7.3,5.9C7.1,5.9,6.8,6,6.7,6.2C6.5,6.4,6.4,6.8,6.4,7.1c0,0.6,0.8,0.9,1.3,0.5
		C8.1,7.4,8,6.7,7.8,6.3z M7.5,7.3C7.3,7.6,6.8,7.4,6.8,7c0-0.4,0.2-0.7,0.6-0.8c0,0,0,0,0.1,0c0.1,0,0.1,0.1,0.2,0.1
		C7.7,6.7,7.8,7.1,7.5,7.3z"/>
	<path fill="#443323" d="M10.8,45.2c-0.3-1-1.3-1.9-2.3-1.3c-0.9,0.3-1.5,1.1-1.5,2c-0.1,1.3,1,2,2.2,1.9
		C10.5,47.6,11.1,46.5,10.8,45.2z M8.9,47.4c-1,0.1-1.7-0.7-1.6-1.7c0.1-0.6,0.5-1.1,0.9-1.4c0.9-0.3,1.9-0.2,2.3,0.9
		C10.9,46.5,10,47.3,8.9,47.4z"/>
	<path fill="#443323" d="M9.9,45.8c-0.1-0.3-0.3-0.5-0.5-0.7c-0.2-0.1-0.7-0.4-0.9,0c0,0,0,0,0,0c-0.5,0.3-0.4,1.4,0.3,1.7
		C9.3,46.9,10,46.4,9.9,45.8z M8.8,46.4c-0.5-0.1-0.5-1-0.1-1.2c0.1,0,0.2,0,0.3,0.1c0.2,0.1,0.3,0.2,0.4,0.4
		C9.6,46.2,9.2,46.5,8.8,46.4z"/>
	<g>
		<path fill="#443323" d="M46.2,4.4c-1,0.2-1.7,1.2-1.5,2.3c0.2,1.5,1.7,2.3,3.1,1.9C50.5,7.7,48.3,2.9,46.2,4.4z M47.8,8.1
			C46.7,8.7,45.3,8,45,6.9c-0.3-1,0.2-1.9,1.1-2.2c0,0,0,0,0.1,0c1.1-0.2,1.9-0.1,2.4,1C48.8,6.6,48.7,7.6,47.8,8.1z"/>
		<path fill="#443323" d="M19.6,34.8c-1.8,0.6-2.4,5.1-1,6.3c0,0,0,0.1,0,0.1c0.1,0.2,0.4,0.1,0.3-0.1c-0.8-2,0.9-3.6,1.6-5.3
			C21,35,20.5,34.5,19.6,34.8z M20.3,36.2c-0.8,1.5-2.1,2.9-1.7,4.6c-0.7-0.8-0.5-2.3-0.3-3.3c0.1-0.5,0.3-1,0.5-1.5
			c0.1-0.3,0.3-0.5,0.5-0.7c0,0,0,0,0.1,0c0.2-0.2,0.5-0.4,0.9-0.3c0.1,0,0.2,0.1,0.3,0.2C20.6,35.5,20.5,35.9,20.3,36.2
			C20.3,36.1,20.3,36.2,20.3,36.2z"/>
		<path fill="#443323" d="M20.6,23.9c-0.6-0.6-1.8,0.3-2.2,0.6c-1.1,0.7-1.9,1.9-2.6,3c-1.5,2.4-2.6,5.5-2,8.4
			c0,0.2,0.1,0.4,0.1,0.5c0,0.1,0.1,0.2,0.1,0.3c0.1,0.2,0.4,0.1,0.3-0.1c-0.1-0.4-0.2-0.8-0.3-1.2c0.1-0.8,0.3-1.9,0.3-2.1
			c0.2-1.4,0.8-2.6,1.5-3.8c1-1.6,2.3-2.7,3.8-3.9C19.9,25.2,21.1,24.4,20.6,23.9z M20.4,24.5c-0.1,0.1-0.3,0.2-0.4,0.3
			c0,0.1-0.1,0.1-0.2,0.2c0,0-0.1,0-0.1,0.1c0,0,0,0-0.1,0c-0.3,0.2-0.6,0.5-0.9,0.7c-0.7,0.5-1.3,1.1-1.9,1.7
			c-1.4,1.6-2.5,3.5-2.8,5.7c0,0.1-0.1,0.4-0.1,0.7c0.1-2.3,1.1-4.6,2.3-6.5c0.9-1.4,2.1-2.6,3.6-3.2c0,0,0,0,0,0
			c0.1,0,0.2-0.1,0.3-0.1C20.4,23.9,20.6,24.3,20.4,24.5z"/>
		<path fill="#443323" d="M51.2,40.4c-0.1-2.3,0-4.7-0.1-7c0-0.5,0-1.1,0-1.6c0-0.1,0-0.2,0-0.3c0,0,0,0,0,0c0,0,0-0.1,0-0.1
			c0-0.1,0-0.2,0-0.3c0-1.9,0-3.8,0-5.7c-0.1-3.5-0.2-7.1-0.3-10.6c-0.1-1.9-0.2-3.7-0.3-5.6c-0.1-1.3,0.2-2.7-0.1-4
			C49.9,3,47.2,3,45.4,3C41.7,2.9,38,3.1,34.4,3.1c-6.9-0.1-13.8,0-20.7,0.2c-1.9-0.1-3.8,0.1-5.7,0C6.6,3.2,5.2,3.1,4.1,3.8
			c-0.9,0.6-1,1.9-1,2.8c-0.1,2,0.1,4,0,6C2.9,16.8,3.3,21,3.3,25.2c0,2,0.1,4.1,0.1,6.1c0,2.1-0.3,4.2-0.4,6.4
			c-0.2,3.3-0.5,7,1.2,10c1.3,2.4,3.6,3.2,6.2,3.4c8.3,0.6,16.6-0.3,24.8-0.4c4.9,0,14.2,1.5,15.6-5c0,0,0,0,0,0
			C51.5,44.2,51.2,41.9,51.2,40.4z M27.4,3.5c0,0.9,0,1.7,0,2.6c-0.4,0-0.7,0.1-1,0.1c-0.1,0-0.3,0-0.4,0c0-0.9,0-1.8,0-2.7
			C26.4,3.5,26.9,3.5,27.4,3.5z M27.2,11.1c-0.4,0-0.7,0-1.1,0c0-1.2,0-2.4-0.1-3.6c0.5,0,0.9,0,1.4,0c0,1.2,0,2.4,0,3.5
			C27.3,11.1,27.2,11.1,27.2,11.1z M27.3,11.7c0,1.5,0,2.9,0,4.4c-0.4,0-0.8,0-1.2,0c0-1.5,0-2.9,0-4.4
			C26.5,11.7,26.9,11.7,27.3,11.7z M26,7.3c0-0.3,0-0.5,0-0.8c0.2,0,0.3,0,0.4,0c0.3,0,0.6-0.1,1-0.1c0,0.3,0,0.6,0,0.8
			C26.9,7.2,26.5,7.2,26,7.3z M26,16.5c0.5,0,0.9,0,1.4,0c0,0,0.1,0,0.1,0c1.1,0,2.1-0.1,3.1-0.2c-0.1,0.3-0.1,0.7,0,1.1
			c-2.5,0.3-5.2,0.1-7.7,0.1c0-0.3,0-0.7,0-1c0.4,0,0.8,0,1.2,0C24.7,16.5,25.3,16.5,26,16.5C25.9,16.5,26,16.5,26,16.5z M33.5,13.8
			c-0.7-0.6-1.3-0.4-2,0.2c-0.1,0.1-0.5-0.4-0.7-0.4c-0.4-0.1-0.6,0-0.9,0.1c-0.2,0.1-0.3,0.3-0.3,0.4c-0.1-0.3-0.5-0.4-0.8-0.5
			c-0.5-0.1-0.9,0.1-1.2,0.4c0-0.7,0-1.5,0.1-2.2c0.6,0,1.2,0,1.9,0c2.3,0.2,7.6,0.7,7.1,1.8c-0.6,1.1-2.8,1.6-3.9,1.9
			c-1.7,0.5-3.4,0.7-5.1,0.7c0-0.5,0-1.1,0-1.6c0.2-0.9,1.4-1,1.9-0.1c0.1,0.1,0.2,0.1,0.3,0c0.7-0.7,1.3-0.7,1.6,0
			c0.1,0.1,0.2,0.1,0.3,0c0.4-0.7,1-0.8,1.7-0.4C33.4,14.1,33.7,13.9,33.5,13.8z M27.8,9.9c0.3-0.6,1.6-1.2,1.9-0.1
			c0,0.1,0.2,0.1,0.3,0c0.4-1.2,1.6-0.8,2,0c0,0.1,0.2,0.1,0.2,0c0.5-0.6,1.1-0.7,1.9-0.4c0.2,0.1,0.3-0.2,0.2-0.3
			c-0.3-0.2-0.7-0.3-1.1-0.2c-0.2,0-1.1,0.5-1.1,0.4c-0.5-0.5-1.4-0.9-2-0.3c-0.2,0.2-0.3,0.4-0.3,0.4c-0.2-0.3-0.4-0.4-0.7-0.5
			c-0.5-0.1-1,0.1-1.3,0.5c0-0.6,0-1.2,0-1.8c0.2,0,0.4,0,0.6,0c0.3,0,0.7,0,1,0.1c0.3,0,0.7,0,1,0c0.1,0,0.1,0,0.2,0
			c0.1,0,0.3,0,0.4,0.1h0.2c0,0,0,0,0.1,0c0,0,0,0,0,0c0.2,0,0.3,0,0.4,0C32.8,7.8,34,8,35.1,8.1c0.5,0.1,1,0.1,1.5,0.3
			c1.5,0.7-1,1.6-1.2,1.6c-2.4,0.8-5.2,1-7.7,1C27.7,10.7,27.8,10.3,27.8,9.9z M27.7,6.3c0.9-0.1,1.9,0,2.1,0.9c-0.7,0-1.4,0-2.1,0
			C27.8,6.9,27.8,6.6,27.7,6.3z M25.5,23.8c-1.7,0.3-3.6,0.9-3.8,2.8c-0.5,0-1-0.1-1.5,0c-0.1,0-0.1,0-0.1,0.1c0,1.8,0,3.6,0.1,5.4
			c0,0,0,0.1,0,0.1c-0.6,0.7-1.2,1.2-1.7,1.9c-0.6,0.8-0.9,1.6-1.3,2.5c-0.6,1.4-0.5,3.5,0.1,4.9c1.7,4,6,5.3,10.1,5.2
			c3.6-0.1,7.2-1.8,8.9-5.1c1.7-3.3,0-7.4-2.4-9.9c-0.1-1.1-0.2-2.1-0.1-3.2c0-0.5,0.2-1.2,0-1.7l0-0.6c0-0.1-0.1-0.1-0.2-0.1
			c0,0,0,0-0.1,0c-0.4,0-0.8,0.1-1.2,0.1c-0.5-1.7-1.7-2.4-3.2-2.6c0.8-0.3,1.4-0.8,1.7-1.7c0.9,0,1.7,0,2.6,0c0.3,0,0.5,0,0.8,0
			c0,0,0,0.1,0.1,0.1c2.6,1.2,4.7,2.8,6.3,5.3c1.7,2.8,2.1,6.3,1.5,9.5c-1.3,6.6-7.9,10.5-14.2,10.7c-3.2,0.1-7.2-0.8-10-2.4
			c-2.7-1.6-4.7-4.8-5.7-7.7c-1.8-5.7,1.5-13.1,7.1-15.4c0,0,0.1,0,0.1-0.1c0.5,0.1,1,0,1.5,0c0.8,0,1.7,0,2.6,0.1
			C23.3,23.3,24.4,23.7,25.5,23.8z M33.4,31.5c-0.2,0-0.4,0-0.6,0c-0.1,0-0.3,0-0.3,0c0,0-0.1,0-0.1,0c0,0,0,0-0.1,0c0,0,0,0-0.1,0
			c-0.6,0-1.2,0-1.8,0.1c0,0-0.1,0-0.1,0c-1.2,0.1-2.5,0.1-3.8,0c-1.1,0-2.3,0.1-3.4,0.1c-0.9,0-1.8,0-2.6,0.2
			c-0.3-1.7-0.1-3.4-0.1-5.1c1.1,0,2.2,0.2,3.3,0.1c1.4,0,2.8-0.1,4.2-0.2c1.2-0.1,2.5-0.1,3.7-0.1c0.5,0,1.1,0,1.6,0
			c0.2,0,0.2,0.6,0.2,0.7c0,0,0,0,0,0C33.2,28.8,33.2,30.3,33.4,31.5z M26.6,34.3c0,0.2,0,0.4,0,0.6c0,0.2,0,0.4,0,0.6
			c-0.1,0-0.2,0-0.3,0c-0.4,0-0.9,0.1-1.3,0.3c-0.3-0.1-0.5-0.2-0.7-0.3c-0.2-0.1-0.3-0.2-0.3-0.3c-0.1-0.1-0.3-0.2-0.3-0.3
			c0-0.2,0-0.4,0.1-0.5c0.1-0.2,0.4-0.4,0.6-0.4c0.1-0.1,0.1-0.1,0.2-0.2C25.1,34,25.9,34.2,26.6,34.3z M24.9,33.7
			c0.5-0.2,1.1-0.2,1.7-0.2c0,0.2,0,0.4,0,0.7C26.4,34,26.2,34,26,34c-0.3-0.1-0.6-0.1-0.9-0.2C25,33.7,25,33.7,24.9,33.7z
			 M26.7,35.7c0,0.2,0,0.4,0,0.6c-0.5-0.1-0.9-0.2-1.4-0.4C25.7,35.7,26.2,35.7,26.7,35.7z M26.6,36.5
			C26.6,36.5,26.6,36.5,26.6,36.5c0.1,0.3,0.1,0.6,0.1,0.9c-0.6,0-1.3,0.1-1.8,0.3c-0.7-0.4-1.3-0.9-0.3-1.6
			c0.1-0.1,0.3-0.1,0.4-0.2C25.6,36.3,26.3,36.4,26.6,36.5z M26.7,37.7c0,0.2,0,0.4,0,0.5c-0.3,0-0.6-0.1-0.9-0.2
			c-0.1,0-0.2-0.1-0.4-0.1c0.1,0,0.2-0.1,0.3-0.1C26,37.8,26.3,37.8,26.7,37.7z M25.1,38.1c0.4,0.2,1,0.3,1.6,0.4c0,0.3,0,0.6,0,0.9
			c-0.6,0.1-1.1,0.3-1.5,0.5c-0.1,0-0.2,0.1-0.2,0.1c-0.2-0.1-0.4-0.2-0.6-0.3C23.2,39.1,24.3,38.4,25.1,38.1z M26.7,39.7
			c0,0.2,0,0.4,0,0.7c-0.3,0-0.6-0.1-0.8-0.1c-0.2,0-0.3-0.1-0.5-0.1c0.3-0.1,0.6-0.3,0.7-0.3C26.2,39.8,26.5,39.7,26.7,39.7z
			 M25,40.3c0.5,0.1,1.1,0.2,1.7,0.3c0,0.1,0,0.2,0,0.3c0,0.2,0,0.4,0,0.6c-0.1,0-0.1,0-0.2,0.1c-0.1,0-0.3,0.1-0.5,0.2
			c-0.3-0.1-0.5-0.2-0.8-0.3C24.1,41.1,24.5,40.6,25,40.3z M26.7,41.7c0,0.1,0,0.2,0,0.4c-0.2,0-0.4-0.1-0.5-0.2
			C26.4,41.8,26.5,41.7,26.7,41.7z M26.8,42.3c0,0.1,0,0.3,0,0.4c0,1.5-2.2,0.6-1.4-0.3c0.1-0.1,0.3-0.2,0.5-0.3
			C26.2,42.1,26.5,42.2,26.8,42.3z M26.6,33.1c-0.6,0-1.2,0.1-1.8,0.3c0,0-0.1,0-0.1,0c0,0,0,0-0.1,0c0,0,0,0,0,0c0,0-0.1,0-0.1,0
			c-0.1-0.1-0.3-0.2-0.4-0.3c-0.1-0.1-0.1-0.3,0-0.4c0.1-0.1,0.1-0.1,0.2-0.2c0.1-0.2,0.3-0.3,0.4-0.4c0.1-0.1,0.2-0.2,0.3-0.2
			c0.6,0,1.2,0,1.7,0C26.7,32.4,26.6,32.7,26.6,33.1z M24.3,33.6c0,0-0.1,0-0.1,0.1c-1.5,0.8-0.5,1.6,0.6,2.2
			c-0.8,0.3-1.4,0.9-0.6,1.8c0.1,0.1,0.2,0.1,0.4,0.2c-0.3,0.1-0.5,0.3-0.7,0.5c-0.7,0.9-0.2,1.4,0.8,1.8c-0.7,0.5-0.6,1.1,0.5,1.6
			c0.2,0.1,0.4,0.1,0.6,0.2c-0.7,0.5-1.2,1.2-0.2,1.7c1.2,0.6,1.5-0.3,1.5-1.3c0.7,0.1,1.4,0.2,2,0.1c0.3,0,0.5-0.1,0.8-0.2
			c0.1,0,0.2-0.1,0.2-0.2c0,0,0.1,0,0.1-0.1c0.1,0,0.1-0.1,0-0.2c0-0.1-0.1-0.1-0.1-0.2c0-0.1-0.1-0.1-0.1-0.1c-0.7-0.7-2-0.5-3-0.2
			c0-0.2,0-0.4,0-0.5c0-0.1,0-0.2,0-0.3c0.9,0.1,1.6,0.1,1.9,0c0.6,0,1.7-0.5,0.8-1.1c-0.7-0.4-1.7-0.4-2.7-0.2c0-0.3,0-0.5,0-0.8
			c1.7,0.3,3.5,0.4,3.5-0.4c0-0.8-2.2-0.8-2.7-0.8c-0.2,0-0.5,0-0.8,0c0-0.3,0-0.6,0-0.9c1,0.1,4,0.4,3.8-0.7
			c-0.2-0.9-2.6-0.6-3.8-0.4c0,0,0-0.1,0-0.1c0-0.3,0-0.6,0-1c2.1,0.3,4.5,0.1,4-0.8c-0.4-0.6-2.2-0.5-2.7-0.5c-0.4,0-0.8,0-1.3,0
			c0-0.4,0-0.8,0.1-1.1c0,0,0,0,0,0c1.1-0.1,2.3,0,3.4-0.1c1.9,0.6,1.6,2.4,1.6,4c0,2,0.5,4.3-0.2,6.2C30.8,43.9,29.2,45,27,45
			c-1.9,0-4-1.2-4.7-3c-0.6-1.7-0.4-3.7-0.4-5.4c0-1.5-0.3-3.7,1.4-4.5c0,0,0,0,0,0c0.4,0,0.7,0,1.1,0
			C23.4,32.6,23.5,33.2,24.3,33.6z M29.5,34.1c-0.3,0-0.7,0.1-1,0.1c-0.6,0-1.1,0-1.7-0.1c0-0.2,0-0.5,0-0.7c0.3,0,0.5,0,0.8,0
			c0.9,0,1.7,0,2.6,0.2C31,33.8,29.3,34.1,29.5,34.1z M26.9,37.7c0.8-0.1,1.6,0,2.4,0.1c0.1,0,0.2,0.1,0.2,0.1c0.3,0,0.3,0.5,0,0.5
			h-1.3c0,0,0,0-0.1,0c-0.4,0-0.8-0.1-1.1-0.1c0,0-0.1,0-0.1,0C26.9,38.1,26.9,37.9,26.9,37.7z M26.9,39.6c0.3,0,0.5-0.1,0.8-0.1
			c0.3,0,0.5,0,0.8,0c0.2,0,0.4,0,0.7,0.1c0.1,0,0.2,0,0.2,0.1c0.1,0,0.2,0,0.2,0.1c0.1,0.1,0,0.3-0.1,0.4c0,0,0,0-0.1,0.1
			c0,0,0,0.1-0.1,0.1c-0.1,0.1-0.3,0.1-0.4,0.1c0,0,0,0,0,0c-0.6,0-1.3,0-1.9-0.1C26.9,40.1,26.9,39.9,26.9,39.6z M27,41.6
			c0.4-0.1,0.8-0.2,1.1-0.2c0.2,0,1,0.1,1.5,0.2c0.2,0.1,0.4,0.3,0,0.4c-0.3,0.1-0.6,0.2-0.9,0.2c-0.5,0-1.1-0.2-1.6-0.2
			C27,41.9,27,41.7,27,41.6z M26.9,36.3c0-0.2,0-0.4,0-0.6c0.2,0,0.3,0,0.5,0c0.5,0,1-0.1,1.5,0c0.3,0,0.6,0,0.8,0.1
			c0.4,0.1,0.6,0.5,0.1,0.6C28.9,36.5,27.9,36.4,26.9,36.3z M21.5,35.9c0,2.3-0.3,5,0.8,7.1c2,3.5,8.9,2.8,9.8-1.2
			c0.7-2.1,0.2-4.8,0.1-6.8c-0.1-1.4-0.2-2.6-1.4-3.1c0.8,0,1.7,0.2,2.5,0.1c2.6,2.6,4.1,6.5,2.3,9.9c-1.6,3-5.2,4.4-8.4,4.6
			c-3.8,0.2-8-1.1-9.7-4.7c-0.8-1.6-0.8-3.7-0.1-5.3c0.6-1.6,1.7-2.8,2.7-4.1c0.1,0,0.2,0,0.2-0.1c0,0,0,0,0,0
			C21.2,32,22,32,22.8,32C21.5,32.7,21.5,34.5,21.5,35.9z M26.8,26.5c-1.2,0.1-2.4,0.2-3.6,0.2c-0.4,0-0.9,0-1.3-0.1
			c0.6-2,2.6-2.4,4.4-2.6c2.2-0.2,4.8-0.2,5.5,2.3C30.2,26.5,28.5,26.4,26.8,26.5z M26.8,23.6c-1.2,0-2.9-0.1-3.2-1.5
			c0.4,0,0.8,0,1.3,0c1.8-0.1,3.6-0.1,5.4-0.2C29.8,23.6,28.3,23.7,26.8,23.6z M34.6,21.5c-0.1,0-0.3,0.1-0.4,0.1
			c-0.2,0-0.4,0-0.6,0.1c0,0,0,0,0,0c0,0,0,0,0,0s0,0,0,0c-0.1,0-0.2,0-0.2,0c-1,0-2,0-3.1,0c-1.8,0-3.6,0.1-5.4,0.2
			c-1.5,0.1-3.1-0.2-4.6-0.1c-0.6,0-2.2,0-1.7-1.1c0.2-0.5,1.2-0.5,1.6-0.6c0.8-0.1,1.6,0,2.4,0.1c1.5,0.1,2.9-0.1,4.4-0.1
			c0,0,0,0,0.1,0c1.1,0,2.3,0.1,3.4,0.1c0.1,0,0.3,0,0.4,0c0,0,0.1,0,0.1,0c1.3-0.1,2.6-0.2,3.9,0c0,0,0,0,0,0c0,0,0,0,0,0
			c0.1,0,0.2,0,0.2,0c0.3,0.1,0.6,0.4,0.5,0.8C35.4,21.2,35,21.3,34.6,21.5C34.7,21.5,34.6,21.5,34.6,21.5z M22.8,18.1
			c0-0.2,0-0.3,0-0.5c2.6,0.1,5.2,0.3,7.8,0c0,0,0,0,0,0c0,0.3,0,0.5,0,0.8c-1-0.3-2.5,0-3.4,0c-1.4,0.1-2.9-0.1-4.4,0.1
			C22.8,18.5,22.8,18.3,22.8,18.1z M30.7,19.7c-0.6,0-1.2,0-1.8,0c-1.2,0-2.5-0.2-3.7,0c0,0-0.1,0-0.1,0c-0.7,0-1.4,0-2.1,0
			c0-0.3-0.1-0.6-0.1-0.9c1.4-0.2,2.9,0,4.3,0c1,0,2.4-0.3,3.4,0c0,0,0,0,0,0C30.7,19.1,30.7,19.4,30.7,19.7z M22.5,18.3
			c0,0.4-0.1,1,0.1,1.4c-0.4,0-0.7,0-1.1,0c-0.7,0-1.9-0.1-2.7,0.2c1-1.4,2.5-2.4,3.8-3.5C22.6,17,22.6,17.7,22.5,18.3z M32.8,19.7
			c-0.6,0-1.3,0-1.9,0c0-0.7,0-1.3-0.1-2c0,0,0-0.1,0-0.1c0,0,0-0.1,0-0.1c0-0.4,0-0.7-0.1-1.1c0.9,0.7,1.5,1.6,2.4,2.3
			c0.4,0.3,0.9,0.5,1.3,0.8c0.1,0.1,0.2,0.2,0.3,0.2C34.2,19.5,33.3,19.7,32.8,19.7z M25.8,16.2c-0.4,0-0.8,0-1.2,0
			c-1.3,0-2.6,0-4-0.2c-0.4-0.1-4.5-0.9-3.8-1.8c0.4-0.5,1.1-0.8,1.9-1.1c0.6-0.2,1.2-0.4,1.4-0.4c1.6-0.4,3.1-0.7,4.7-0.8
			c0.3,0,0.7,0,1,0c0,0.7,0,1.4,0,2.1c-0.1-0.1-0.3-0.2-0.6-0.1c-0.3,0.1-0.5,0.3-0.7,0.5c0.1-0.1-0.6-0.5-0.7-0.5
			c-0.3-0.1-0.7-0.2-1.1,0c-0.4,0.2-0.4,0.5-0.7,0.1c-0.6-0.6-1.6-0.2-2,0.4c-0.1,0.1,0.1,0.3,0.2,0.1c0.6-0.7,1.2-0.7,1.8,0
			c0.1,0.1,0.2,0.1,0.2,0c0.7-0.9,1.6-0.4,2.1,0.2c0.1,0.1,0.2,0,0.2-0.1c0.4-0.7,0.8-0.8,1.1-0.1C25.8,15.1,25.8,15.6,25.8,16.2z
			 M23.3,7.9c0.8-0.1,1.6-0.2,2.4-0.3c0,0.6,0,1.2,0,1.8c-0.5-0.6-1.5-0.6-1.9,0.1C23.4,9,22.5,8.9,22,9.5c-0.5,0.5-0.1,0.2-0.9,0
			c-0.6-0.1-1-0.1-1.5,0.3c-0.1,0.1,0.1,0.3,0.2,0.2c0.7-0.4,1.3-0.3,1.8,0.2c0.1,0.1,0.2,0,0.3-0.1c0.2-0.6,1.4-1.2,1.8-0.2
			c0,0.1,0.2,0.1,0.3,0c0.3-1,1.4-0.8,1.8,0c0,0.4,0,0.8,0,1.2c-2.1,0.1-4.3,0.1-6.4,0.1c-0.4,0-2.9-0.4-3.6-1
			c-0.6-1.4,3.6-1.9,4.2-1.9c0.2,0,0.4,0,0.6-0.1c0.1,0,0.1,0,0.2,0C21.6,7.9,22.5,7.9,23.3,7.9z M23.3,7.4c0.2-0.8,1.5-0.9,2.5-0.9
			c0,0.3,0,0.5,0,0.8c-0.3,0-0.7,0-1,0.1c-0.2,0-0.5,0-0.7,0C23.8,7.3,23.5,7.3,23.3,7.4z M50.2,46.4c-1.3,3.4-5.7,4-9.1,4
			c-4.1,0-8.2-0.1-12.4,0c-4.3,0.1-8.6,0.4-12.9,0.4c-1.8,0-3.6-0.1-5.4-0.2C8.6,50.5,7,50.2,5.7,49c-3-2.7-2.5-7.7-2.3-11.3
			c0.1-1.9,0.3-3.9,0.4-5.8c0.1-2.2,0-4.4-0.1-6.6C3.6,21,3.3,16.8,3.5,12.6c0.1-1.9,0.1-3.8,0-5.6c0-1.1,0.1-2.4,1.1-3.1
			c0.8-0.6,2.1-0.4,3-0.3c1.7,0.1,3.5,0,5.2,0c4.3,0.1,8.7,0,13-0.1c0,0.9,0,1.8,0,2.7c-1.1,0-2.7,0.1-2.7,1.2c-0.1,0-0.2,0-0.3,0
			c-1,0.1-2,0.3-3,0.5c-1.4,0.2-3.6,0.5-4.5,1.7c0,0,0,0.1,0.1,0.1c0,0,0,0,0,0.1c0,0.3,0.1,0.6,0.5,0.8c0,0,0,0,0,0
			c0,0,0.1,0,0.1,0.1c0,0,0,0,0,0c0,0,0,0,0,0c0.8,0.4,2.1,0.6,2.5,0.7c1.1,0.2,2.2,0.1,3.3,0.1c1.2,0,2.3,0,3.5,0c0,0,0,0,0,0
			c-0.2,0-0.4,0-0.6,0c-1.5,0.1-3,0.4-4.4,0.8c-0.3,0.1-0.6,0.2-1,0.2c-0.5,0.1-3.8,1-3.1,2.1c0,0,0.1,0.1,0.1,0.1
			c0,0.1,0.1,0.1,0.2,0c0.4,0.6,1.9,0.9,2.4,1c1.2,0.3,2.3,0.5,3.5,0.5c-0.9,0.6-1.6,1.4-2.4,2.1c-0.6,0.5-1.5,1.2-1.7,2
			c-0.3,0.5-0.2,1.3,0.4,1.5c0.1,0,0.1,0,0.2,0.1c-5.5,2.2-8.4,9.2-7.3,14.8c0.7,3.2,2.9,6.2,5.4,8.2c2.6,2,6.7,2.8,9.8,2.9
			c6.5,0.3,13.5-3.5,15.2-10c1.7-6.4-1.1-12.7-6.9-15.8c-0.1-0.1-0.3-0.1-0.4-0.2c0.6-0.1,1.1-0.5,1.1-1.4c0-0.3-0.1-0.4-0.3-0.6
			c-0.4-0.6-1.3-1-1.8-1.3c-1.1-0.6-1.7-1.8-2.8-2.4c1-0.2,1.9-0.4,2.9-0.7c0.8-0.3,3.6-1.1,3.2-2.4c-0.3-0.8-1.8-1-2.4-1.1
			c-1.7-0.4-3.5-0.5-5.3-0.5c1-0.1,2.1-0.2,3.1-0.3c1.4-0.2,2.8-0.4,4.1-1c0.6-0.3,0.9-0.8,0.6-1.4C37,7.9,36,7.8,35.4,7.8
			c-1.6-0.2-3.2-0.4-4.8-0.5c-0.2,0-0.3,0-0.5,0C29.9,6,28.8,6,27.7,6c0-0.9-0.1-1.7-0.2-2.6c1.6,0,3.2,0,4.8,0
			c3.4,0.1,6.8,0,10.3-0.1c1.5,0,2.9,0,4.4,0.1c0.9,0.1,2.1,0.3,2.7,1.1C50,5.1,50,5.9,50,6.5c0,3.1,0.3,6.2,0.3,9.3
			c0.1,3.4,0.2,6.8,0.3,10.1c0,1.8,0.1,3.6,0,5.4c0,0,0,0,0,0c-0.1,0.8-0.1,1.6,0,2.4c0,0.1,0,0.1,0,0.1c0,0.2,0,0.3,0,0.5
			c-0.1,1.7,0,3.5,0.1,5.2c0,1.1,0.1,2.3,0.1,3.4C50.8,44.2,50.5,45.3,50.2,46.4z"/>
		<path fill="#443323" d="M43.6,14.2c-0.1,0-0.2,0.1-0.3,0.2c-0.2,0.2-0.4,0.4-0.5,0.5c-0.2,0.2-0.5,0.4-0.7,0.5
			c-0.2,0.1-0.3,0.2-0.4,0.3c0,0.1,0,0.1,0.1,0.1c0.4,0,0.8-0.5,1.1-0.7C43.1,15,43.6,14.6,43.6,14.2C43.6,14.2,43.6,14.2,43.6,14.2
			z"/>
		<path fill="#443323" d="M44.6,17.3c-0.9,0.1-1.6,0.8-2.5,1c-0.2,0.1-0.1,0.3,0.1,0.3c0.9-0.2,1.6-0.9,2.5-1.1
			C44.8,17.5,44.7,17.3,44.6,17.3z"/>
		<path fill="#443323" d="M45.1,22c-0.4-0.2-0.8-0.4-1.2-0.6c-0.4-0.2-0.8-0.4-1.2-0.4c-0.1,0-0.2,0.2-0.1,0.2
			c0.8,0.2,1.5,0.7,2.3,1C45.1,22.4,45.2,22.2,45.1,22z"/>
		<path fill="#443323" d="M13.6,17.1c-0.4-0.4-0.7-0.7-1.1-1c-0.3-0.3-0.7-0.6-1.1-0.8c-0.1,0-0.1,0-0.1,0.1
			c0.2,0.4,0.6,0.6,0.9,0.9c0.4,0.3,0.7,0.7,1.1,1C13.6,17.4,13.8,17.2,13.6,17.1z"/>
		<path fill="#443323" d="M12.4,19.6c-0.3-0.2-0.7-0.2-1.1-0.2c-0.5,0-1-0.1-1.4,0.1c0,0,0,0.1,0,0.1c0.4,0.1,0.8,0.1,1.2,0.1
			c0.4,0,0.8,0.2,1.2,0.1C12.5,19.7,12.5,19.6,12.4,19.6z"/>
		<path fill="#443323" d="M11.7,22.8C10.8,23,10,23.6,9.2,24c-0.1,0.1,0,0.2,0.1,0.2c0.8-0.4,1.5-1,2.4-1.2
			C11.9,23,11.9,22.7,11.7,22.8z"/>
	</g>
</g>
<g>
	<path fill="#443323" d="M53.2,9.4c0.1-2.6,0.5-6.2-2-7.9c-2.2-1.4-5.7-0.9-8.1-0.9C38.7,0.7,34.4,0.9,30,1c-3.7,0.1-7.4-0.1-11.1,0
		c-3.4,0.1-6.8,0.3-10.2,0.2C6.3,1.2,3.5,1.1,1.8,3c-1,1.2-1.3,2.9-1.2,4.5c0,0.2,0,0.5,0,0.7c0.1,2,0.2,4,0.2,6
		c0.1,4.2,0.2,8.5,0.3,12.7c0,4.2-0.2,8.4-0.3,12.6c-0.1,3.4-0.5,7.2,1.1,10.3c2.2,4.5,8.6,4.1,12.8,3.8c7.5-0.4,15,0.3,22.5-0.5
		c0.3,0,0.5-0.1,0.8-0.1c0,0,0.1,0,0.1,0c3.4,0.1,6.8,0.3,10-0.9c2.7-1,4.3-3.6,4.8-6.3c0.3-1.7,0.1-3.4,0.1-5.1
		c0-2.2-0.1-4.5-0.2-6.7c-0.1-4.3,0.1-8.5,0.2-12.8c0-1.9,0.2-3.9,0.2-5.8C53.3,13.5,53.2,11.5,53.2,9.4z M52.8,9.4
		c-0.1,2,0.1,4.1,0,6.1c0,1.9-0.2,3.9-0.2,5.8c-0.1,2.2,0.1,4.4-0.1,6.6c-0.3,4.3-0.1,8.6,0,12.9c0.1,3.9,0.2,8.1-3.5,10.4
		c-2.7,1.7-6.4,1.6-9.6,1.5c0,0-0.1,0-0.1-0.1c-1.3-0.4-2.9,0.1-4.3,0.1C33,53,30.9,53,28.9,53c-3.9,0-7.8-0.1-11.7,0.1
		c-4.6,0.2-11.3,1.5-14.5-2.7c-2.2-2.9-1.5-7.5-1.5-10.9c0.1-4,0.3-8.1,0.3-12.1c0-4.1-0.1-8.1-0.2-12.2c0-1.9-0.1-3.8-0.2-5.7
		c0-0.3,0-0.6-0.1-0.9c0,0,0-0.1,0-0.1C1,8.3,1,8.1,1,8c0-0.6-0.1-1.3,0-1.9C1.1,5.4,1.2,4.7,1.6,4C2.5,2,4.5,1.7,6.5,1.6
		c1.8-0.1,3.5,0.1,5.3,0.1c2.1,0,4.1-0.2,6.1-0.3c4.2-0.2,8.4,0.1,12.6,0c4.4-0.1,8.7-0.3,13.1-0.4c2.8,0,7.4-0.7,8.7,2.5
		C53,5.4,52.8,7.6,52.8,9.4z"/>
	<path fill="#443323" d="M46,43.9c-0.1,0-0.1,0.1-0.1,0.2c-0.7,0.4-1.1,1.3-1.1,2.1c0.1,1.5,1.7,2,2.9,1.6
		C50.3,46.9,48.5,42.2,46,43.9z M47.9,47.5c-1.1,0.7-2.7-0.1-2.7-1.3C45.1,44.9,46,44.2,47,44c0.6,0,1.1,0.2,1.5,0.9
		C48.9,45.7,48.7,46.9,47.9,47.5z"/>
	<path fill="#443323" d="M47.7,45.7c-0.1-0.2-0.2-0.5-0.5-0.6c-0.2-0.1-0.6-0.1-0.8,0.1c-0.2,0.1-0.4,0.4-0.4,0.7
		c-0.1,0.6,0.4,1,0.9,1C47.6,46.8,47.8,46.2,47.7,45.7z M47,46.4c-0.7,0.1-0.8-0.9-0.2-1.1c0.1,0,0.1,0,0.2,0c0.2,0,0.3,0.2,0.3,0.4
		C47.4,46,47.3,46.4,47,46.4z"/>
	<path fill="#443323" d="M47.4,6.5c-0.1-0.4-0.8-0.8-1.1-0.4c0,0,0,0,0,0c-0.2,0.1-0.3,0.3-0.3,0.5c0,0.5,0.4,0.9,0.9,0.8
		C47.3,7.4,47.6,7,47.4,6.5z M46.8,7.1c-0.5,0.1-0.7-0.6-0.3-0.8c0.2,0,0.4,0,0.5,0.2C47.1,6.8,47,7,46.8,7.1z"/>
	<path fill="#443323" d="M9,6.6c-0.3-1.2-1.5-2-2.6-1.6C4.6,5.4,4.6,9.2,6.8,9.4C8.4,9.5,9.3,8,9,6.6z M6.7,9
		C5.2,8.7,5.1,6.6,6.1,5.7c0,0,0,0,0.1,0c0.5-0.2,1-0.4,1.5-0.2c0.6,0.2,0.9,0.7,1.1,1.3C9.2,8,8,9.2,6.7,9z"/>
	<path fill="#443323" d="M7.7,6.7C7.6,6.5,7.5,6.3,7.2,6.3C7,6.2,6.7,6.3,6.7,6.6C6.4,6.8,6.3,7.2,6.3,7.5C6.3,8.1,7,8.3,7.5,8
		C8,7.7,7.9,7.1,7.7,6.7z M7.4,7.7C7.2,8,6.7,7.8,6.7,7.4c0-0.4,0.2-0.7,0.6-0.8c0,0,0,0,0.1,0c0.1,0,0.1,0.1,0.2,0.1
		C7.7,7,7.7,7.4,7.4,7.7z"/>
	<path fill="#443323" d="M10.7,45.6c-0.3-1-1.3-1.9-2.3-1.3c-0.9,0.3-1.5,1.1-1.5,2c-0.1,1.3,1,2,2.2,1.9C10.4,48,11,46.9,10.7,45.6
		z M8.9,47.8c-1,0.1-1.7-0.7-1.6-1.7c0.1-0.6,0.5-1.1,0.9-1.4c0.9-0.3,1.9-0.2,2.3,0.9C10.9,46.8,9.9,47.7,8.9,47.8z"/>
	<path fill="#443323" d="M9.8,46.2c-0.1-0.3-0.3-0.5-0.5-0.7c-0.2-0.1-0.7-0.4-0.9,0c0,0,0,0,0,0c-0.5,0.3-0.4,1.4,0.3,1.7
		C9.2,47.3,9.9,46.7,9.8,46.2z M8.7,46.8c-0.5-0.1-0.5-1-0.1-1.2c0.1,0,0.2,0,0.3,0.1c0.2,0.1,0.3,0.2,0.4,0.4
		C9.6,46.6,9.1,46.9,8.7,46.8z"/>
	<g>
		<path fill="#443323" d="M46.1,4.7c-1,0.2-1.7,1.2-1.5,2.3c0.2,1.5,1.7,2.3,3.1,1.9C50.4,8.1,48.2,3.3,46.1,4.7z M47.7,8.5
			c-1.1,0.6-2.5-0.1-2.9-1.3c-0.3-1,0.2-1.9,1.1-2.2c0,0,0,0,0.1,0c1.1-0.2,1.9-0.1,2.4,1C48.7,6.9,48.6,8,47.7,8.5z"/>
		<path fill="#443323" d="M19.6,35.2c-1.8,0.6-2.4,5.1-1,6.3c0,0,0,0.1,0,0.1c0.1,0.2,0.4,0.1,0.3-0.1c-0.8-2,0.9-3.6,1.6-5.3
			C21,35.3,20.4,34.9,19.6,35.2z M20.2,36.5c-0.8,1.5-2.1,2.9-1.7,4.6c-0.7-0.8-0.5-2.3-0.3-3.3c0.1-0.5,0.3-1,0.5-1.5
			c0.1-0.3,0.3-0.5,0.5-0.7c0,0,0,0,0.1,0c0.2-0.2,0.5-0.4,0.9-0.3c0.1,0,0.2,0.1,0.3,0.2C20.5,35.9,20.4,36.2,20.2,36.5
			C20.2,36.5,20.2,36.5,20.2,36.5z"/>
		<path fill="#443323" d="M20.5,24.3c-0.6-0.6-1.8,0.3-2.2,0.6c-1.1,0.7-1.9,1.9-2.6,3c-1.5,2.4-2.6,5.5-2,8.4
			c0,0.2,0.1,0.4,0.1,0.5c0,0.1,0.1,0.2,0.1,0.3c0.1,0.2,0.4,0.1,0.3-0.1c-0.1-0.4-0.2-0.8-0.3-1.2c0.1-0.8,0.3-1.9,0.3-2.1
			c0.2-1.4,0.8-2.6,1.5-3.8c1-1.6,2.3-2.7,3.8-3.9C19.8,25.6,21,24.8,20.5,24.3z M20.3,24.8c-0.1,0.1-0.3,0.2-0.4,0.3
			c0,0.1-0.1,0.1-0.2,0.2c0,0-0.1,0-0.1,0.1c0,0,0,0-0.1,0c-0.3,0.2-0.6,0.5-0.9,0.7c-0.7,0.5-1.3,1.1-1.9,1.7
			c-1.4,1.6-2.5,3.5-2.8,5.7c0,0.1-0.1,0.4-0.1,0.7c0.1-2.3,1.1-4.6,2.3-6.5c0.9-1.4,2.1-2.6,3.6-3.2c0,0,0,0,0,0
			c0.1,0,0.2-0.1,0.3-0.1C20.3,24.3,20.5,24.7,20.3,24.8z"/>
		<path fill="#443323" d="M51.1,40.8c-0.1-2.3,0-4.7-0.1-7c0-0.5,0-1.1,0-1.6c0-0.1,0-0.2,0-0.3c0,0,0,0,0,0c0,0,0-0.1,0-0.1
			c0-0.1,0-0.2,0-0.3c0-1.9,0-3.8,0-5.7c-0.1-3.5-0.2-7.1-0.3-10.6c-0.1-1.9-0.2-3.7-0.3-5.6c-0.1-1.3,0.2-2.7-0.1-4
			c-0.5-2.2-3.1-2.2-4.9-2.2c-3.7-0.1-7.4,0.1-11.1,0.1c-6.9-0.1-13.8,0-20.7,0.2c-1.9-0.1-3.8,0.1-5.7,0C6.5,3.6,5.2,3.4,4,4.2
			C3.2,4.8,3,6.1,3,7C2.9,9,3,11,3,13c-0.1,4.2,0.2,8.4,0.3,12.6c0,2,0.1,4.1,0.1,6.1c0,2.1-0.3,4.2-0.4,6.4c-0.2,3.3-0.5,7,1.2,10
			c1.3,2.4,3.6,3.2,6.2,3.4c8.3,0.6,16.6-0.3,24.8-0.4c4.9,0,14.2,1.5,15.6-5c0,0,0,0,0,0C51.4,44.6,51.1,42.3,51.1,40.8z M27.3,3.8
			c0,0.9,0,1.7,0,2.6c-0.4,0-0.7,0.1-1,0.1c-0.1,0-0.3,0-0.4,0c0-0.9,0-1.8,0-2.7C26.4,3.9,26.8,3.9,27.3,3.8z M27.1,11.5
			c-0.4,0-0.7,0-1.1,0c0-1.2,0-2.4-0.1-3.6c0.5,0,0.9,0,1.4,0c0,1.2,0,2.4,0,3.5C27.2,11.5,27.1,11.5,27.1,11.5z M27.2,12.1
			c0,1.5,0,2.9,0,4.4c-0.4,0-0.8,0-1.2,0c0-1.5,0-2.9,0-4.4C26.4,12.1,26.8,12.1,27.2,12.1z M25.9,7.6c0-0.3,0-0.5,0-0.8
			c0.2,0,0.3,0,0.4,0c0.3,0,0.6-0.1,1-0.1c0,0.3,0,0.6,0,0.8C26.8,7.6,26.4,7.6,25.9,7.6z M25.9,16.9c0.5,0,0.9,0,1.4,0
			c0,0,0.1,0,0.1,0c1.1,0,2.1-0.1,3.1-0.2c-0.1,0.3-0.1,0.7,0,1.1c-2.5,0.3-5.2,0.1-7.7,0.1c0-0.3,0-0.7,0-1c0.4,0,0.8,0,1.2,0
			C24.6,16.8,25.2,16.8,25.9,16.9C25.9,16.9,25.9,16.9,25.9,16.9z M33.4,14.1c-0.7-0.6-1.3-0.4-2,0.2c-0.1,0.1-0.5-0.4-0.7-0.4
			c-0.4-0.1-0.6,0-0.9,0.1c-0.2,0.1-0.3,0.3-0.3,0.4c-0.1-0.3-0.5-0.4-0.8-0.5c-0.5-0.1-0.9,0.1-1.2,0.4c0-0.7,0-1.5,0.1-2.2
			c0.6,0,1.2,0,1.9,0c2.3,0.2,7.6,0.7,7.1,1.8c-0.6,1.1-2.8,1.6-3.9,1.9c-1.7,0.5-3.4,0.7-5.1,0.7c0-0.5,0-1.1,0-1.6
			c0.2-0.9,1.4-1,1.9-0.1c0.1,0.1,0.2,0.1,0.3,0c0.7-0.7,1.3-0.7,1.6,0c0.1,0.1,0.2,0.1,0.3,0c0.4-0.7,1-0.8,1.7-0.4
			C33.4,14.5,33.6,14.3,33.4,14.1z M27.7,10.2c0.3-0.6,1.6-1.2,1.9-0.1c0,0.1,0.2,0.1,0.3,0c0.4-1.2,1.6-0.8,2,0
			c0,0.1,0.2,0.1,0.2,0c0.5-0.6,1.1-0.7,1.9-0.4c0.2,0.1,0.3-0.2,0.2-0.3c-0.3-0.2-0.7-0.3-1.1-0.2c-0.2,0-1.1,0.5-1.1,0.4
			c-0.5-0.5-1.4-0.9-2-0.3c-0.2,0.2-0.3,0.4-0.3,0.4c-0.2-0.3-0.4-0.4-0.7-0.5c-0.5-0.1-1,0.1-1.3,0.5c0-0.6,0-1.2,0-1.8
			c0.2,0,0.4,0,0.6,0c0.3,0,0.7,0,1,0.1c0.3,0,0.7,0,1,0c0.1,0,0.1,0,0.2,0c0.1,0,0.3,0,0.4,0.1H31c0,0,0,0,0.1,0c0,0,0,0,0,0
			c0.2,0,0.3,0,0.4,0c1.2,0.1,2.3,0.3,3.5,0.5c0.5,0.1,1,0.1,1.5,0.3c1.5,0.7-1,1.6-1.2,1.6c-2.4,0.8-5.2,1-7.7,1
			C27.7,11.1,27.7,10.6,27.7,10.2z M27.7,6.7c0.9-0.1,1.9,0,2.1,0.9c-0.7,0-1.4,0-2.1,0C27.7,7.3,27.7,7,27.7,6.7z M25.4,24.2
			c-1.7,0.3-3.6,0.9-3.8,2.8c-0.5,0-1-0.1-1.5,0c-0.1,0-0.1,0-0.1,0.1c0,1.8,0,3.6,0.1,5.4c0,0,0,0.1,0,0.1
			c-0.6,0.7-1.2,1.2-1.7,1.9c-0.6,0.8-0.9,1.6-1.3,2.5c-0.6,1.4-0.5,3.5,0.1,4.9c1.7,4,6,5.3,10.1,5.2c3.6-0.1,7.2-1.8,8.9-5.1
			c1.7-3.3,0-7.4-2.4-9.9c-0.1-1.1-0.2-2.1-0.1-3.2c0-0.5,0.2-1.2,0-1.7l0-0.6c0-0.1-0.1-0.1-0.2-0.1c0,0,0,0-0.1,0
			c-0.4,0-0.8,0.1-1.2,0.1c-0.5-1.7-1.7-2.4-3.2-2.6c0.8-0.3,1.4-0.8,1.7-1.7c0.9,0,1.7,0,2.6,0c0.3,0,0.5,0,0.8,0
			c0,0,0,0.1,0.1,0.1c2.6,1.2,4.7,2.8,6.3,5.3c1.7,2.8,2.1,6.3,1.5,9.5C40.6,43.8,34,47.8,27.7,48c-3.2,0.1-7.2-0.8-10-2.4
			C15.1,44,13,40.8,12,37.9c-1.8-5.7,1.5-13.1,7.1-15.4c0,0,0.1,0,0.1-0.1c0.5,0.1,1,0,1.5,0c0.8,0,1.7,0,2.6,0.1
			C23.2,23.7,24.3,24.1,25.4,24.2z M33.3,31.9c-0.2,0-0.4,0-0.6,0c-0.1,0-0.3,0-0.3,0c0,0-0.1,0-0.1,0c0,0,0,0-0.1,0c0,0,0,0-0.1,0
			c-0.6,0-1.2,0-1.8,0.1c0,0-0.1,0-0.1,0c-1.2,0.1-2.5,0.1-3.8,0c-1.1,0-2.3,0.1-3.4,0.1c-0.9,0-1.8,0-2.6,0.2
			c-0.3-1.7-0.1-3.4-0.1-5.1c1.1,0,2.2,0.2,3.3,0.1c1.4,0,2.8-0.1,4.2-0.2c1.2-0.1,2.5-0.1,3.7-0.1c0.5,0,1.1,0,1.6,0
			c0.2,0,0.2,0.6,0.2,0.7c0,0,0,0,0,0C33.1,29.2,33.1,30.6,33.3,31.9z M26.5,34.7c0,0.2,0,0.4,0,0.6c0,0.2,0,0.4,0,0.6
			c-0.1,0-0.2,0-0.3,0c-0.4,0-0.9,0.1-1.3,0.3c-0.3-0.1-0.5-0.2-0.7-0.3c-0.2-0.1-0.3-0.2-0.3-0.3c-0.1-0.1-0.3-0.2-0.3-0.3
			c0-0.2,0-0.4,0.1-0.5c0.1-0.2,0.4-0.4,0.6-0.4c0.1-0.1,0.1-0.1,0.2-0.2C25,34.4,25.8,34.6,26.5,34.7z M24.8,34
			c0.5-0.2,1.1-0.2,1.7-0.2c0,0.2,0,0.4,0,0.7c-0.2,0-0.4-0.1-0.6-0.1c-0.3-0.1-0.6-0.1-0.9-0.2C24.9,34.1,24.9,34.1,24.8,34z
			 M26.6,36c0,0.2,0,0.4,0,0.6c-0.5-0.1-0.9-0.2-1.4-0.4C25.7,36.1,26.1,36.1,26.6,36z M26.5,36.9C26.5,36.9,26.6,36.9,26.5,36.9
			c0.1,0.3,0.1,0.6,0.1,0.9c-0.6,0-1.3,0.1-1.8,0.3c-0.7-0.4-1.3-0.9-0.3-1.6c0.1-0.1,0.3-0.1,0.4-0.2
			C25.6,36.6,26.2,36.8,26.5,36.9z M26.6,38.1c0,0.2,0,0.4,0,0.5c-0.3,0-0.6-0.1-0.9-0.2c-0.1,0-0.2-0.1-0.4-0.1
			c0.1,0,0.2-0.1,0.3-0.1C25.9,38.2,26.2,38.1,26.6,38.1z M25,38.5c0.4,0.2,1,0.3,1.6,0.4c0,0.3,0,0.6,0,0.9
			c-0.6,0.1-1.1,0.3-1.5,0.5c-0.1,0-0.2,0.1-0.2,0.1c-0.2-0.1-0.4-0.2-0.6-0.3C23.1,39.5,24.2,38.8,25,38.5z M26.6,40
			c0,0.2,0,0.4,0,0.7c-0.3,0-0.6-0.1-0.8-0.1c-0.2,0-0.3-0.1-0.5-0.1c0.3-0.1,0.6-0.3,0.7-0.3C26.2,40.1,26.4,40.1,26.6,40z
			 M24.9,40.6c0.5,0.1,1.1,0.2,1.7,0.3c0,0.1,0,0.2,0,0.3c0,0.2,0,0.4,0,0.6c-0.1,0-0.1,0-0.2,0.1c-0.1,0-0.3,0.1-0.5,0.2
			c-0.3-0.1-0.5-0.2-0.8-0.3C24,41.4,24.4,41,24.9,40.6z M26.6,42c0,0.1,0,0.2,0,0.4c-0.2,0-0.4-0.1-0.5-0.2
			C26.3,42.2,26.5,42.1,26.6,42z M26.7,42.6c0,0.1,0,0.3,0,0.4c0,1.5-2.2,0.6-1.4-0.3c0.1-0.1,0.3-0.2,0.5-0.3
			C26.1,42.5,26.4,42.6,26.7,42.6z M26.5,33.5c-0.6,0-1.2,0.1-1.8,0.3c0,0-0.1,0-0.1,0c0,0,0,0-0.1,0c0,0,0,0,0,0c0,0-0.1,0-0.1,0
			c-0.1-0.1-0.3-0.2-0.4-0.3c-0.1-0.1-0.1-0.3,0-0.4c0.1-0.1,0.1-0.1,0.2-0.2c0.1-0.2,0.3-0.3,0.4-0.4c0.1-0.1,0.2-0.2,0.3-0.2
			c0.6,0,1.2,0,1.7,0C26.6,32.7,26.6,33.1,26.5,33.5z M24.2,34c0,0-0.1,0-0.1,0.1c-1.5,0.8-0.5,1.6,0.6,2.2
			c-0.8,0.3-1.4,0.9-0.6,1.8c0.1,0.1,0.2,0.1,0.4,0.2c-0.3,0.1-0.5,0.3-0.7,0.5c-0.7,0.9-0.2,1.4,0.8,1.8c-0.7,0.5-0.6,1.1,0.5,1.6
			c0.2,0.1,0.4,0.1,0.6,0.2c-0.7,0.5-1.2,1.2-0.2,1.7c1.2,0.6,1.5-0.3,1.5-1.3c0.7,0.1,1.4,0.2,2,0.1c0.3,0,0.5-0.1,0.8-0.2
			c0.1,0,0.2-0.1,0.2-0.2c0,0,0.1,0,0.1-0.1c0.1,0,0.1-0.1,0-0.2c0-0.1-0.1-0.1-0.1-0.2c0-0.1-0.1-0.1-0.1-0.1c-0.7-0.7-2-0.5-3-0.2
			c0-0.2,0-0.4,0-0.5c0-0.1,0-0.2,0-0.3c0.9,0.1,1.6,0.1,1.9,0c0.6,0,1.7-0.5,0.8-1.1c-0.7-0.4-1.7-0.4-2.7-0.2c0-0.3,0-0.5,0-0.8
			c1.7,0.3,3.5,0.4,3.5-0.4c0-0.8-2.2-0.8-2.7-0.8c-0.2,0-0.5,0-0.8,0c0-0.3,0-0.6,0-0.9c1,0.1,4,0.4,3.8-0.7
			c-0.2-0.9-2.6-0.6-3.8-0.4c0,0,0-0.1,0-0.1c0-0.3,0-0.6,0-1c2.1,0.3,4.5,0.1,4-0.8c-0.4-0.6-2.2-0.5-2.7-0.5c-0.4,0-0.8,0-1.3,0
			c0-0.4,0-0.8,0.1-1.1c0,0,0,0,0,0c1.1-0.1,2.3,0,3.4-0.1c1.9,0.6,1.6,2.4,1.6,4c0,2,0.5,4.3-0.2,6.2c-0.9,1.8-2.5,2.9-4.8,2.9
			c-1.9,0-4-1.2-4.7-3c-0.6-1.7-0.4-3.7-0.4-5.4c0-1.5-0.3-3.7,1.4-4.5c0,0,0,0,0,0c0.4,0,0.7,0,1.1,0C23.3,33,23.4,33.6,24.2,34z
			 M29.5,34.4c-0.3,0-0.7,0.1-1,0.1c-0.6,0-1.1,0-1.7-0.1c0-0.2,0-0.5,0-0.7c0.3,0,0.5,0,0.8,0c0.9,0,1.7,0,2.6,0.2
			C30.9,34.1,29.2,34.5,29.5,34.4z M26.8,38.1c0.8-0.1,1.6,0,2.4,0.1c0.1,0,0.2,0.1,0.2,0.1c0.3,0,0.3,0.5,0,0.5h-1.3c0,0,0,0-0.1,0
			c-0.4,0-0.8-0.1-1.1-0.1c0,0-0.1,0-0.1,0C26.8,38.5,26.8,38.3,26.8,38.1z M26.8,40c0.3,0,0.5-0.1,0.8-0.1c0.3,0,0.5,0,0.8,0
			c0.2,0,0.4,0,0.7,0.1c0.1,0,0.2,0,0.2,0.1c0.1,0,0.2,0,0.2,0.1c0.1,0.1,0,0.3-0.1,0.4c0,0,0,0-0.1,0.1c0,0,0,0.1-0.1,0.1
			c-0.1,0.1-0.3,0.1-0.4,0.1c0,0,0,0,0,0c-0.6,0-1.3,0-1.9-0.1C26.8,40.5,26.8,40.2,26.8,40z M26.9,42c0.4-0.1,0.8-0.2,1.1-0.2
			c0.2,0,1,0.1,1.5,0.2c0.2,0.1,0.4,0.3,0,0.4c-0.3,0.1-0.6,0.2-0.9,0.2c-0.5,0-1.1-0.2-1.6-0.2C26.9,42.2,26.9,42.1,26.9,42z
			 M26.8,36.6c0-0.2,0-0.4,0-0.6c0.2,0,0.3,0,0.5,0c0.5,0,1-0.1,1.5,0c0.3,0,0.6,0,0.8,0.1c0.4,0.1,0.6,0.5,0.1,0.6
			C28.9,36.9,27.8,36.8,26.8,36.6z M21.5,36.3c0,2.3-0.3,5,0.8,7.1c2,3.5,8.9,2.8,9.8-1.2c0.7-2.1,0.2-4.8,0.1-6.8
			c-0.1-1.4-0.2-2.6-1.4-3.1c0.8,0,1.7,0.2,2.5,0.1c2.6,2.6,4.1,6.5,2.3,9.9c-1.6,3-5.2,4.4-8.4,4.6c-3.8,0.2-8-1.1-9.7-4.7
			c-0.8-1.6-0.8-3.7-0.1-5.3c0.6-1.6,1.7-2.8,2.7-4.1c0.1,0,0.2,0,0.2-0.1c0,0,0,0,0,0c0.8-0.2,1.6-0.2,2.4-0.3
			C21.4,33.1,21.5,34.9,21.5,36.3z M26.7,26.9c-1.2,0.1-2.4,0.2-3.6,0.2c-0.4,0-0.9,0-1.3-0.1c0.6-2,2.6-2.4,4.4-2.6
			c2.2-0.2,4.8-0.2,5.5,2.3C30.1,26.8,28.4,26.8,26.7,26.9z M26.7,24c-1.2,0-2.9-0.1-3.2-1.5c0.4,0,0.8,0,1.3,0
			c1.8-0.1,3.6-0.1,5.4-0.2C29.8,24,28.2,24,26.7,24z M34.5,21.9c-0.1,0-0.3,0.1-0.4,0.1c-0.2,0-0.4,0-0.6,0.1l0,0l0,0c0,0,0,0,0,0
			c-0.1,0-0.2,0-0.2,0c-1,0-2,0-3.1,0c-1.8,0-3.6,0.1-5.4,0.2c-1.5,0.1-3.1-0.2-4.6-0.1c-0.6,0-2.2,0-1.7-1.1
			c0.2-0.5,1.2-0.5,1.6-0.6c0.8-0.1,1.6,0,2.4,0.1c1.5,0.1,2.9-0.1,4.4-0.1c0,0,0,0,0.1,0c1.1,0,2.3,0.1,3.4,0.1c0.1,0,0.3,0,0.4,0
			c0,0,0.1,0,0.1,0c1.3-0.1,2.6-0.2,3.9,0c0,0,0,0,0,0c0,0,0,0,0,0c0.1,0,0.2,0,0.2,0c0.3,0.1,0.6,0.4,0.5,0.8
			C35.3,21.5,35,21.7,34.5,21.9C34.6,21.8,34.5,21.8,34.5,21.9z M22.7,18.5c0-0.2,0-0.3,0-0.5c2.6,0.1,5.2,0.3,7.8,0c0,0,0,0,0,0
			c0,0.3,0,0.5,0,0.8c-1-0.3-2.5,0-3.4,0c-1.4,0.1-2.9-0.1-4.4,0.1C22.8,18.9,22.7,18.7,22.7,18.5z M30.6,20c-0.6,0-1.2,0-1.8,0
			c-1.2,0-2.5-0.2-3.7,0c0,0-0.1,0-0.1,0c-0.7,0-1.4,0-2.1,0c0-0.3-0.1-0.6-0.1-0.9c1.4-0.2,2.9,0,4.3,0c1,0,2.4-0.3,3.4,0
			c0,0,0,0,0,0C30.6,19.5,30.6,19.8,30.6,20z M22.4,18.7c0,0.4-0.1,1,0.1,1.4c-0.4,0-0.7,0-1.1,0c-0.7,0-1.9-0.1-2.7,0.2
			c1-1.4,2.5-2.4,3.8-3.5C22.5,17.4,22.5,18.1,22.4,18.7z M32.8,20c-0.6,0-1.3,0-1.9,0c0-0.7,0-1.3-0.1-2c0,0,0-0.1,0-0.1
			c0,0,0-0.1,0-0.1c0-0.4,0-0.7-0.1-1.1c0.9,0.7,1.5,1.6,2.4,2.3c0.4,0.3,0.9,0.5,1.3,0.8c0.1,0.1,0.2,0.2,0.3,0.2
			C34.1,19.9,33.2,20,32.8,20z M25.7,16.5c-0.4,0-0.8,0-1.2,0c-1.3,0-2.6,0-4-0.2c-0.4-0.1-4.5-0.9-3.8-1.8c0.4-0.5,1.1-0.8,1.9-1.1
			c0.6-0.2,1.2-0.4,1.4-0.4c1.6-0.4,3.1-0.7,4.7-0.8c0.3,0,0.7,0,1,0c0,0.7,0,1.4,0,2.1c-0.1-0.1-0.3-0.2-0.6-0.1
			c-0.3,0.1-0.5,0.3-0.7,0.5c0.1-0.1-0.6-0.5-0.7-0.5c-0.3-0.1-0.7-0.2-1.1,0c-0.4,0.2-0.4,0.5-0.7,0.1c-0.6-0.6-1.6-0.2-2,0.4
			c-0.1,0.1,0.1,0.3,0.2,0.1c0.6-0.7,1.2-0.7,1.8,0c0.1,0.1,0.2,0.1,0.2,0c0.7-0.9,1.6-0.4,2.1,0.2c0.1,0.1,0.2,0,0.2-0.1
			c0.4-0.7,0.8-0.8,1.1-0.1C25.7,15.4,25.7,16,25.7,16.5z M23.2,8.2C24,8.2,24.9,8.1,25.7,8c0,0.6,0,1.2,0,1.8
			c-0.5-0.6-1.5-0.6-1.9,0.1c-0.4-0.6-1.3-0.7-1.8-0.1c-0.5,0.5-0.1,0.2-0.9,0c-0.6-0.1-1-0.1-1.5,0.3c-0.1,0.1,0.1,0.3,0.2,0.2
			c0.7-0.4,1.3-0.3,1.8,0.2c0.1,0.1,0.2,0,0.3-0.1c0.2-0.6,1.4-1.2,1.8-0.2c0,0.1,0.2,0.1,0.3,0c0.3-1,1.4-0.8,1.8,0
			c0,0.4,0,0.8,0,1.2c-2.1,0.1-4.3,0.1-6.4,0.1c-0.4,0-2.9-0.4-3.6-1c-0.6-1.4,3.6-1.9,4.2-1.9c0.2,0,0.4,0,0.6-0.1
			c0.1,0,0.1,0,0.2,0C21.5,8.3,22.4,8.3,23.2,8.2z M23.2,7.7c0.2-0.8,1.5-0.9,2.5-0.9c0,0.3,0,0.5,0,0.8c-0.3,0-0.7,0-1,0.1
			c-0.2,0-0.5,0-0.7,0C23.7,7.7,23.4,7.7,23.2,7.7z M50.1,46.8c-1.3,3.4-5.7,4-9.1,4c-4.1,0-8.2-0.1-12.4,0
			c-4.3,0.1-8.6,0.4-12.9,0.4c-1.8,0-3.6-0.1-5.4-0.2c-1.7-0.1-3.3-0.5-4.7-1.7c-3-2.7-2.5-7.7-2.3-11.3c0.1-1.9,0.3-3.9,0.4-5.8
			c0.1-2.2,0-4.4-0.1-6.6C3.6,21.4,3.2,17.2,3.4,13c0.1-1.9,0.1-3.8,0-5.6c0-1.1,0.1-2.4,1.1-3.1c0.8-0.6,2.1-0.4,3-0.3
			c1.7,0.1,3.5,0,5.2,0c4.3,0.1,8.7,0,13-0.1c0,0.9,0,1.8,0,2.7c-1.1,0-2.7,0.1-2.7,1.2c-0.1,0-0.2,0-0.3,0c-1,0.1-2,0.3-3,0.5
			c-1.4,0.2-3.6,0.5-4.5,1.7c0,0,0,0.1,0.1,0.1c0,0,0,0,0,0.1c0,0.3,0.1,0.6,0.5,0.8c0,0,0,0,0,0c0,0,0.1,0,0.1,0.1c0,0,0,0,0,0
			c0,0,0,0,0,0c0.8,0.4,2.1,0.6,2.5,0.7c1.1,0.2,2.2,0.1,3.3,0.1c1.2,0,2.3,0,3.5,0c0,0,0,0,0,0c-0.2,0-0.4,0-0.6,0
			c-1.5,0.1-3,0.4-4.4,0.8c-0.3,0.1-0.6,0.2-1,0.2c-0.5,0.1-3.8,1-3.1,2.1c0,0,0.1,0.1,0.1,0.1c0,0.1,0.1,0.1,0.2,0
			c0.4,0.6,1.9,0.9,2.4,1c1.2,0.3,2.3,0.5,3.5,0.5c-0.9,0.6-1.6,1.4-2.4,2.1c-0.6,0.5-1.5,1.2-1.7,2c-0.3,0.5-0.2,1.3,0.4,1.5
			c0.1,0,0.1,0,0.2,0.1c-5.5,2.2-8.4,9.2-7.3,14.8c0.7,3.2,2.9,6.2,5.4,8.2c2.6,2,6.7,2.8,9.8,2.9c6.5,0.3,13.5-3.5,15.2-10
			c1.7-6.4-1.1-12.7-6.9-15.8c-0.1-0.1-0.3-0.1-0.4-0.2c0.6-0.1,1.1-0.5,1.1-1.4c0-0.3-0.1-0.4-0.3-0.6c-0.4-0.6-1.3-1-1.8-1.3
			c-1.1-0.6-1.7-1.8-2.8-2.4c1-0.2,1.9-0.4,2.9-0.7c0.8-0.3,3.6-1.1,3.2-2.4c-0.3-0.8-1.8-1-2.4-1.1c-1.7-0.4-3.5-0.5-5.3-0.5
			c1-0.1,2.1-0.2,3.1-0.3c1.4-0.2,2.8-0.4,4.1-1c0.6-0.3,0.9-0.8,0.6-1.4c-0.3-0.6-1.3-0.7-1.9-0.8c-1.6-0.2-3.2-0.4-4.8-0.5
			c-0.2,0-0.3,0-0.5,0c-0.2-1.2-1.3-1.3-2.4-1.2c0-0.9-0.1-1.7-0.2-2.6c1.6,0,3.2,0,4.8,0c3.4,0.1,6.8,0,10.3-0.1
			c1.5,0,2.9,0,4.4,0.1C47.8,4,49,4.2,49.6,5c0.4,0.5,0.3,1.3,0.3,1.9c0,3.1,0.3,6.2,0.3,9.3c0.1,3.4,0.2,6.8,0.3,10.1
			c0,1.8,0.1,3.6,0,5.4c0,0,0,0,0,0c-0.1,0.8-0.1,1.6,0,2.4c0,0.1,0,0.1,0,0.1c0,0.2,0,0.3,0,0.5c-0.1,1.7,0,3.5,0.1,5.2
			c0,1.1,0.1,2.3,0.1,3.4C50.7,44.6,50.4,45.6,50.1,46.8z"/>
		<path fill="#443323" d="M43.5,14.6c-0.1,0-0.2,0.1-0.3,0.2c-0.2,0.2-0.4,0.4-0.5,0.5c-0.2,0.2-0.5,0.4-0.7,0.5
			c-0.2,0.1-0.3,0.2-0.4,0.3c0,0.1,0,0.1,0.1,0.1c0.4,0,0.8-0.5,1.1-0.7C43,15.3,43.5,14.9,43.5,14.6C43.5,14.6,43.5,14.6,43.5,14.6
			z"/>
		<path fill="#443323" d="M44.5,17.7c-0.9,0.1-1.6,0.8-2.5,1c-0.2,0.1-0.1,0.3,0.1,0.3c0.9-0.2,1.6-0.9,2.5-1.1
			C44.7,17.9,44.7,17.7,44.5,17.7z"/>
		<path fill="#443323" d="M45,22.4c-0.4-0.2-0.8-0.4-1.2-0.6c-0.4-0.2-0.8-0.4-1.2-0.4c-0.1,0-0.2,0.2-0.1,0.2
			c0.8,0.2,1.5,0.7,2.3,1C45,22.8,45.2,22.5,45,22.4z"/>
		<path fill="#443323" d="M13.6,17.4c-0.4-0.4-0.7-0.7-1.1-1c-0.3-0.3-0.7-0.6-1.1-0.8c-0.1,0-0.1,0-0.1,0.1
			c0.2,0.4,0.6,0.6,0.9,0.9c0.4,0.3,0.7,0.7,1.1,1C13.5,17.8,13.7,17.6,13.6,17.4z"/>
		<path fill="#443323" d="M12.3,19.9c-0.3-0.2-0.7-0.2-1.1-0.2c-0.5,0-1-0.1-1.4,0.1c0,0,0,0.1,0,0.1c0.4,0.1,0.8,0.1,1.2,0.1
			c0.4,0,0.8,0.2,1.2,0.1C12.4,20.1,12.4,20,12.3,19.9z"/>
		<path fill="#443323" d="M11.6,23.1c-0.9,0.2-1.7,0.8-2.5,1.3c-0.1,0.1,0,0.2,0.1,0.2c0.8-0.4,1.5-1,2.4-1.2
			C11.8,23.4,11.8,23.1,11.6,23.1z"/>
	</g>
</g>
<g>
	<path fill="#443323" d="M52.6,8.9c0.1-2.6,0.5-6.2-2-7.9c-2.2-1.4-5.7-0.9-8.1-0.9c-4.4,0.1-8.7,0.2-13.1,0.4
		c-3.7,0.1-7.4-0.1-11.1,0c-3.4,0.1-6.8,0.3-10.2,0.2C5.7,0.6,2.8,0.5,1.2,2.5C0.2,3.7-0.1,5.4,0,6.9c0,0.2,0,0.5,0,0.7
		c0.1,2,0.2,4,0.2,6c0.1,4.2,0.2,8.5,0.3,12.7c0,4.2-0.2,8.4-0.3,12.6c-0.1,3.4-0.5,7.2,1.1,10.3c2.2,4.5,8.6,4.1,12.8,3.8
		c7.5-0.4,15,0.3,22.5-0.5c0.3,0,0.5-0.1,0.8-0.1c0,0,0.1,0,0.1,0c3.4,0.1,6.8,0.3,10-0.9c2.7-1,4.3-3.6,4.8-6.3
		c0.3-1.7,0.1-3.4,0.1-5.1c0-2.2-0.1-4.5-0.2-6.7c-0.1-4.3,0.1-8.5,0.2-12.8c0-1.9,0.2-3.9,0.2-5.8C52.7,13,52.5,11,52.6,8.9z
		 M52.1,8.9c-0.1,2,0.1,4.1,0,6.1c0,1.9-0.2,3.9-0.2,5.8c-0.1,2.2,0.1,4.4-0.1,6.6c-0.3,4.3-0.1,8.6,0,12.9
		c0.1,3.9,0.2,8.1-3.5,10.4c-2.7,1.7-6.4,1.6-9.6,1.5c0,0-0.1,0-0.1-0.1c-1.3-0.4-2.9,0.1-4.3,0.1c-2,0.1-4.1,0.1-6.1,0.1
		c-3.9,0-7.8-0.1-11.7,0.1C12,52.8,5.3,54.1,2.1,49.9C-0.1,47,0.5,42.4,0.6,39c0.1-4,0.3-8.1,0.3-12.1c0-4.1-0.1-8.1-0.2-12.2
		c0-1.9-0.1-3.8-0.2-5.7c0-0.3,0-0.6-0.1-0.9c0,0,0-0.1,0-0.1c0-0.1,0-0.3-0.1-0.4c0-0.6-0.1-1.3,0-1.9C0.4,4.8,0.6,4.1,1,3.5
		c0.9-1.9,2.9-2.3,4.9-2.4C7.6,1,9.4,1.1,11.1,1.2c2.1,0,4.1-0.2,6.1-0.3c4.2-0.2,8.4,0.1,12.6,0c4.4-0.1,8.7-0.3,13.1-0.4
		c2.8,0,7.4-0.7,8.7,2.5C52.4,4.8,52.2,7.1,52.1,8.9z"/>
	<path fill="#443323" d="M45.4,43.4c-0.1,0-0.1,0.1-0.1,0.2c-0.7,0.4-1.1,1.3-1.1,2.1c0.1,1.5,1.7,2,2.9,1.6
		C49.7,46.4,47.9,41.6,45.4,43.4z M47.3,46.9c-1.1,0.7-2.7-0.1-2.7-1.3c-0.1-1.2,0.9-1.9,1.9-2.1c0.6,0,1.1,0.2,1.5,0.9
		C48.3,45.2,48.1,46.4,47.3,46.9z"/>
	<path fill="#443323" d="M47.1,45.1c-0.1-0.2-0.2-0.5-0.5-0.6c-0.2-0.1-0.6-0.1-0.8,0.1c-0.2,0.1-0.4,0.4-0.4,0.7
		c-0.1,0.6,0.4,1,0.9,1C46.9,46.3,47.2,45.7,47.1,45.1z M46.4,45.9c-0.7,0.1-0.8-0.9-0.2-1.1c0.1,0,0.1,0,0.2,0
		c0.2,0,0.3,0.2,0.3,0.4C46.8,45.5,46.7,45.9,46.4,45.9z"/>
	<path fill="#443323" d="M46.8,6c-0.1-0.4-0.8-0.8-1.1-0.4c0,0,0,0,0,0c-0.2,0.1-0.3,0.3-0.3,0.5c0,0.5,0.4,0.9,0.9,0.8
		C46.7,6.9,47,6.4,46.8,6z M46.2,6.6c-0.5,0.1-0.7-0.6-0.3-0.8c0.2,0,0.4,0,0.5,0.2C46.5,6.3,46.4,6.5,46.2,6.6z"/>
	<path fill="#443323" d="M8.4,6.1c-0.3-1.2-1.5-2-2.6-1.6C4,4.8,4,8.7,6.2,8.9C7.8,9,8.7,7.5,8.4,6.1z M6,8.4
		C4.6,8.2,4.5,6.1,5.4,5.2c0,0,0,0,0.1,0c0.5-0.2,1-0.4,1.5-0.2C7.6,5.1,8,5.6,8.2,6.2C8.6,7.5,7.3,8.7,6,8.4z"/>
	<path fill="#443323" d="M7.1,6.1C7,5.9,6.9,5.8,6.6,5.7C6.4,5.7,6.1,5.8,6,6C5.8,6.2,5.7,6.6,5.7,6.9c0,0.6,0.8,0.9,1.3,0.5
		C7.4,7.2,7.3,6.6,7.1,6.1z M6.8,7.2C6.6,7.4,6.1,7.3,6.1,6.9c0-0.4,0.2-0.7,0.6-0.8c0,0,0,0,0.1,0c0.1,0,0.1,0.1,0.2,0.1
		C7,6.5,7.1,6.9,6.8,7.2z"/>
	<path fill="#443323" d="M10.1,45.1c-0.3-1-1.3-1.9-2.3-1.3c-0.9,0.3-1.5,1.1-1.5,2c-0.1,1.3,1,2,2.2,1.9
		C9.8,47.4,10.4,46.4,10.1,45.1z M8.2,47.3c-1,0.1-1.7-0.7-1.6-1.7c0.1-0.6,0.5-1.1,0.9-1.4c0.9-0.3,1.9-0.2,2.3,0.9
		C10.2,46.3,9.3,47.2,8.2,47.3z"/>
	<path fill="#443323" d="M9.2,45.6c-0.1-0.3-0.3-0.5-0.5-0.7c-0.2-0.1-0.7-0.4-0.9,0c0,0,0,0,0,0c-0.5,0.3-0.4,1.4,0.3,1.7
		C8.6,46.8,9.3,46.2,9.2,45.6z M8.1,46.3c-0.5-0.1-0.5-1-0.1-1.2c0.1,0,0.2,0,0.3,0.1c0.2,0.1,0.3,0.2,0.4,0.4
		C8.9,46,8.5,46.4,8.1,46.3z"/>
	<g>
		<path fill="#443323" d="M45.5,4.2c-1,0.2-1.7,1.2-1.5,2.3c0.2,1.5,1.7,2.3,3.1,1.9C49.8,7.6,47.6,2.8,45.5,4.2z M47.1,7.9
			c-1.1,0.6-2.5-0.1-2.9-1.3c-0.3-1,0.2-1.9,1.1-2.2c0,0,0,0,0.1,0c1.1-0.2,1.9-0.1,2.4,1C48.1,6.4,48,7.5,47.1,7.9z"/>
		<path fill="#443323" d="M18.9,34.7c-1.8,0.6-2.4,5.1-1,6.3c0,0,0,0.1,0,0.1c0.1,0.2,0.4,0.1,0.3-0.1c-0.8-2,0.9-3.6,1.6-5.3
			C20.3,34.8,19.8,34.4,18.9,34.7z M19.6,36c-0.8,1.5-2.1,2.9-1.7,4.6c-0.7-0.8-0.5-2.3-0.3-3.3c0.1-0.5,0.3-1,0.5-1.5
			c0.1-0.3,0.3-0.5,0.5-0.7c0,0,0,0,0.1,0c0.2-0.2,0.5-0.4,0.9-0.3c0.1,0,0.2,0.1,0.3,0.2C19.9,35.4,19.8,35.7,19.6,36
			C19.6,36,19.6,36,19.6,36z"/>
		<path fill="#443323" d="M19.9,23.7c-0.6-0.6-1.8,0.3-2.2,0.6c-1.1,0.7-1.9,1.9-2.6,3c-1.5,2.4-2.6,5.5-2,8.4
			c0,0.2,0.1,0.4,0.1,0.5c0,0.1,0.1,0.2,0.1,0.3c0.1,0.2,0.4,0.1,0.3-0.1c-0.1-0.4-0.2-0.8-0.3-1.2c0.1-0.8,0.3-1.9,0.3-2.1
			c0.2-1.4,0.8-2.6,1.5-3.8c1-1.6,2.3-2.7,3.8-3.9C19.2,25.1,20.4,24.2,19.9,23.7z M19.7,24.3c-0.1,0.1-0.3,0.2-0.4,0.3
			c0,0.1-0.1,0.1-0.2,0.2c0,0-0.1,0-0.1,0.1c0,0,0,0-0.1,0c-0.3,0.2-0.6,0.5-0.9,0.7c-0.7,0.5-1.3,1.1-1.9,1.7
			c-1.4,1.6-2.5,3.5-2.8,5.7c0,0.1-0.1,0.4-0.1,0.7c0.1-2.3,1.1-4.6,2.3-6.5c0.9-1.4,2.1-2.6,3.6-3.2c0,0,0,0,0,0
			c0.1,0,0.2-0.1,0.3-0.1C19.7,23.8,19.9,24.1,19.7,24.3z"/>
		<path fill="#443323" d="M50.5,40.3c-0.1-2.3,0-4.7-0.1-7c0-0.5,0-1.1,0-1.6c0-0.1,0-0.2,0-0.3c0,0,0,0,0,0c0,0,0-0.1,0-0.1
			c0-0.1,0-0.2,0-0.3c0-1.9,0-3.8,0-5.7c-0.1-3.5-0.2-7.1-0.3-10.6c-0.1-1.9-0.2-3.7-0.3-5.6c-0.1-1.3,0.2-2.7-0.1-4
			c-0.5-2.2-3.1-2.2-4.9-2.2C41,2.7,37.3,3,33.7,2.9c-6.9-0.1-13.8,0-20.7,0.2C11,3,9.1,3.2,7.2,3.1C5.9,3,4.5,2.9,3.4,3.7
			c-0.9,0.6-1,1.9-1,2.8c-0.1,2,0.1,4,0,6c-0.1,4.2,0.2,8.4,0.3,12.6c0,2,0.1,4.1,0.1,6.1c0,2.1-0.3,4.2-0.4,6.4
			c-0.2,3.3-0.5,7,1.2,10c1.3,2.4,3.6,3.2,6.2,3.4c8.3,0.6,16.6-0.3,24.8-0.4c4.9,0,14.2,1.5,15.6-5c0,0,0,0,0,0
			C50.8,44,50.5,41.7,50.5,40.3z M26.7,3.3c0,0.9,0,1.7,0,2.6C26.3,6,26,6,25.7,6c-0.1,0-0.3,0-0.4,0c0-0.9,0-1.8,0-2.7
			C25.7,3.3,26.2,3.3,26.7,3.3z M26.5,11c-0.4,0-0.7,0-1.1,0c0-1.2,0-2.4-0.1-3.6c0.5,0,0.9,0,1.4,0c0,1.2,0,2.4,0,3.5
			C26.6,11,26.5,11,26.5,11z M26.6,11.6c0,1.5,0,2.9,0,4.4c-0.4,0-0.8,0-1.2,0c0-1.5,0-2.9,0-4.4C25.8,11.6,26.2,11.6,26.6,11.6z
			 M25.3,7.1c0-0.3,0-0.5,0-0.8c0.2,0,0.3,0,0.4,0c0.3,0,0.6-0.1,1-0.1c0,0.3,0,0.6,0,0.8C26.2,7.1,25.8,7.1,25.3,7.1z M25.3,16.3
			c0.5,0,0.9,0,1.4,0c0,0,0.1,0,0.1,0c1.1,0,2.1-0.1,3.1-0.2c-0.1,0.3-0.1,0.7,0,1.1c-2.5,0.3-5.2,0.1-7.7,0.1c0-0.3,0-0.7,0-1
			c0.4,0,0.8,0,1.2,0C24,16.3,24.6,16.3,25.3,16.3C25.2,16.3,25.3,16.3,25.3,16.3z M32.8,13.6c-0.7-0.6-1.3-0.4-2,0.2
			c-0.1,0.1-0.5-0.4-0.7-0.4c-0.4-0.1-0.6,0-0.9,0.1c-0.2,0.1-0.3,0.3-0.3,0.4c-0.1-0.3-0.5-0.4-0.8-0.5c-0.5-0.1-0.9,0.1-1.2,0.4
			c0-0.7,0-1.5,0.1-2.2c0.6,0,1.2,0,1.9,0c2.3,0.2,7.6,0.7,7.1,1.8c-0.6,1.1-2.8,1.6-3.9,1.9c-1.7,0.5-3.4,0.7-5.1,0.7
			c0-0.5,0-1.1,0-1.6c0.2-0.9,1.4-1,1.9-0.1c0.1,0.1,0.2,0.1,0.3,0c0.7-0.7,1.3-0.7,1.6,0c0.1,0.1,0.2,0.1,0.3,0
			c0.4-0.7,1-0.8,1.7-0.4C32.7,14,33,13.7,32.8,13.6z M27.1,9.7c0.3-0.6,1.6-1.2,1.9-0.1c0,0.1,0.2,0.1,0.3,0c0.4-1.2,1.6-0.8,2,0
			c0,0.1,0.2,0.1,0.2,0c0.5-0.6,1.1-0.7,1.9-0.4c0.2,0.1,0.3-0.2,0.2-0.3c-0.3-0.2-0.7-0.3-1.1-0.2c-0.2,0-1.1,0.5-1.1,0.4
			c-0.5-0.5-1.4-0.9-2-0.3c-0.2,0.2-0.3,0.4-0.3,0.4c-0.2-0.3-0.4-0.4-0.7-0.5c-0.5-0.1-1,0.1-1.3,0.5c0-0.6,0-1.2,0-1.8
			c0.2,0,0.4,0,0.6,0c0.3,0,0.7,0,1,0.1c0.3,0,0.7,0,1,0c0.1,0,0.1,0,0.2,0c0.1,0,0.3,0,0.4,0.1h0.2c0,0,0,0,0.1,0c0,0,0,0,0,0
			c0.2,0,0.3,0,0.4,0c1.2,0.1,2.3,0.3,3.5,0.5c0.5,0.1,1,0.1,1.5,0.3c1.5,0.7-1,1.6-1.2,1.6c-2.4,0.8-5.2,1-7.7,1
			C27,10.5,27.1,10.1,27.1,9.7z M27,6.2c0.9-0.1,1.9,0,2.1,0.9c-0.7,0-1.4,0-2.1,0C27.1,6.8,27.1,6.5,27,6.2z M24.8,23.7
			c-1.7,0.3-3.6,0.9-3.8,2.8c-0.5,0-1-0.1-1.5,0c-0.1,0-0.1,0-0.1,0.1c0,1.8,0,3.6,0.1,5.4c0,0,0,0.1,0,0.1
			c-0.6,0.7-1.2,1.2-1.7,1.9c-0.6,0.8-0.9,1.6-1.3,2.5c-0.6,1.4-0.5,3.5,0.1,4.9c1.7,4,6,5.3,10.1,5.2c3.6-0.1,7.2-1.8,8.9-5.1
			c1.7-3.3,0-7.4-2.4-9.9c-0.1-1.1-0.2-2.1-0.1-3.2c0-0.5,0.2-1.2,0-1.7l0-0.6c0-0.1-0.1-0.1-0.2-0.1c0,0,0,0-0.1,0
			c-0.4,0-0.8,0.1-1.2,0.1c-0.5-1.7-1.7-2.4-3.2-2.6c0.8-0.3,1.4-0.8,1.7-1.7c0.9,0,1.7,0,2.6,0c0.3,0,0.5,0,0.8,0
			c0,0,0,0.1,0.1,0.1c2.6,1.2,4.7,2.8,6.3,5.3c1.7,2.8,2.1,6.3,1.5,9.5c-1.3,6.6-7.9,10.5-14.2,10.7c-3.2,0.1-7.2-0.8-10-2.4
			c-2.7-1.6-4.7-4.8-5.7-7.7C9.6,31.7,13,24.3,18.5,22c0,0,0.1,0,0.1-0.1c0.5,0.1,1,0,1.5,0c0.8,0,1.7,0,2.6,0.1
			C22.6,23.2,23.7,23.5,24.8,23.7z M32.7,31.4c-0.2,0-0.4,0-0.6,0c-0.1,0-0.3,0-0.3,0c0,0-0.1,0-0.1,0c0,0,0,0-0.1,0c0,0,0,0-0.1,0
			c-0.6,0-1.2,0-1.8,0.1c0,0-0.1,0-0.1,0c-1.2,0.1-2.5,0.1-3.8,0c-1.1,0-2.3,0.1-3.4,0.1c-0.9,0-1.8,0-2.6,0.2
			c-0.3-1.7-0.1-3.4-0.1-5.1c1.1,0,2.2,0.2,3.3,0.1c1.4,0,2.8-0.1,4.2-0.2c1.2-0.1,2.5-0.1,3.7-0.1c0.5,0,1.1,0,1.6,0
			c0.2,0,0.2,0.6,0.2,0.7c0,0,0,0,0,0C32.5,28.6,32.5,30.1,32.7,31.4z M25.9,34.2c0,0.2,0,0.4,0,0.6c0,0.2,0,0.4,0,0.6
			c-0.1,0-0.2,0-0.3,0c-0.4,0-0.9,0.1-1.3,0.3c-0.3-0.1-0.5-0.2-0.7-0.3c-0.2-0.1-0.3-0.2-0.3-0.3C23.1,35,23,34.9,23,34.7
			c0-0.2,0-0.4,0.1-0.5c0.1-0.2,0.4-0.4,0.6-0.4c0.1-0.1,0.1-0.1,0.2-0.2C24.4,33.9,25.2,34,25.9,34.2z M24.2,33.5
			c0.5-0.2,1.1-0.2,1.7-0.2c0,0.2,0,0.4,0,0.7c-0.2,0-0.4-0.1-0.6-0.1c-0.3-0.1-0.6-0.1-0.9-0.2C24.3,33.6,24.3,33.5,24.2,33.5z
			 M26,35.5c0,0.2,0,0.4,0,0.6c-0.5-0.1-0.9-0.2-1.4-0.4C25,35.6,25.5,35.5,26,35.5z M25.9,36.3C25.9,36.3,26,36.4,25.9,36.3
			C26,36.7,26,37,26,37.3c-0.6,0-1.3,0.1-1.8,0.3c-0.7-0.4-1.3-0.9-0.3-1.6c0.1-0.1,0.3-0.1,0.4-0.2C24.9,36.1,25.6,36.3,25.9,36.3z
			 M26,37.6c0,0.2,0,0.4,0,0.5c-0.3,0-0.6-0.1-0.9-0.2c-0.1,0-0.2-0.1-0.4-0.1c0.1,0,0.2-0.1,0.3-0.1C25.3,37.7,25.6,37.6,26,37.6z
			 M24.4,37.9c0.4,0.2,1,0.3,1.6,0.4c0,0.3,0,0.6,0,0.9c-0.6,0.1-1.1,0.3-1.5,0.5c-0.1,0-0.2,0.1-0.2,0.1c-0.2-0.1-0.4-0.2-0.6-0.3
			C22.5,38.9,23.6,38.3,24.4,37.9z M26,39.5c0,0.2,0,0.4,0,0.7c-0.3,0-0.6-0.1-0.8-0.1C25,40,24.8,40,24.6,40
			c0.3-0.1,0.6-0.3,0.7-0.3C25.5,39.6,25.8,39.6,26,39.5z M24.3,40.1c0.5,0.1,1.1,0.2,1.7,0.3c0,0.1,0,0.2,0,0.3c0,0.2,0,0.4,0,0.6
			c-0.1,0-0.1,0-0.2,0.1c-0.1,0-0.3,0.1-0.5,0.2c-0.3-0.1-0.5-0.2-0.8-0.3C23.4,40.9,23.8,40.4,24.3,40.1z M26,41.5
			c0,0.1,0,0.2,0,0.4c-0.2,0-0.4-0.1-0.5-0.2C25.7,41.6,25.8,41.6,26,41.5z M26.1,42.1c0,0.1,0,0.3,0,0.4c0,1.5-2.2,0.6-1.4-0.3
			c0.1-0.1,0.3-0.2,0.5-0.3C25.5,42,25.8,42,26.1,42.1z M25.9,33c-0.6,0-1.2,0.1-1.8,0.3c0,0-0.1,0-0.1,0c0,0,0,0-0.1,0c0,0,0,0,0,0
			c0,0-0.1,0-0.1,0c-0.1-0.1-0.3-0.2-0.4-0.3c-0.1-0.1-0.1-0.3,0-0.4c0.1-0.1,0.1-0.1,0.2-0.2c0.1-0.2,0.3-0.3,0.4-0.4
			c0.1-0.1,0.2-0.2,0.3-0.2c0.6,0,1.2,0,1.7,0C26,32.2,25.9,32.6,25.9,33z M23.6,33.5c0,0-0.1,0-0.1,0.1c-1.5,0.8-0.5,1.6,0.6,2.2
			c-0.8,0.3-1.4,0.9-0.6,1.8c0.1,0.1,0.2,0.1,0.4,0.2c-0.3,0.1-0.5,0.3-0.7,0.5C22.5,39.1,23,39.7,24,40c-0.7,0.5-0.6,1.1,0.5,1.6
			c0.2,0.1,0.4,0.1,0.6,0.2c-0.7,0.5-1.2,1.2-0.2,1.7c1.2,0.6,1.5-0.3,1.5-1.3c0.7,0.1,1.4,0.2,2,0.1c0.3,0,0.5-0.1,0.8-0.2
			c0.1,0,0.2-0.1,0.2-0.2c0,0,0.1,0,0.1-0.1c0.1,0,0.1-0.1,0-0.2c0-0.1-0.1-0.1-0.1-0.2c0-0.1-0.1-0.1-0.1-0.1c-0.7-0.7-2-0.5-3-0.2
			c0-0.2,0-0.4,0-0.5c0-0.1,0-0.2,0-0.3c0.9,0.1,1.6,0.1,1.9,0c0.6,0,1.7-0.5,0.8-1.1c-0.7-0.4-1.7-0.4-2.7-0.2c0-0.3,0-0.5,0-0.8
			c1.7,0.3,3.5,0.4,3.5-0.4c0-0.8-2.2-0.8-2.7-0.8c-0.2,0-0.5,0-0.8,0c0-0.3,0-0.6,0-0.9c1,0.1,4,0.4,3.8-0.7
			c-0.2-0.9-2.6-0.6-3.8-0.4c0,0,0-0.1,0-0.1c0-0.3,0-0.6,0-1c2.1,0.3,4.5,0.1,4-0.8c-0.4-0.6-2.2-0.5-2.7-0.5c-0.4,0-0.8,0-1.3,0
			c0-0.4,0-0.8,0.1-1.1c0,0,0,0,0,0c1.1-0.1,2.3,0,3.4-0.1c1.9,0.6,1.6,2.4,1.6,4c0,2,0.5,4.3-0.2,6.2c-0.9,1.8-2.5,2.9-4.8,2.9
			c-1.9,0-4-1.2-4.7-3c-0.6-1.7-0.4-3.7-0.4-5.4c0-1.5-0.3-3.7,1.4-4.5c0,0,0,0,0,0c0.4,0,0.7,0,1.1,0
			C22.7,32.5,22.8,33.1,23.6,33.5z M28.9,33.9c-0.3,0-0.7,0.1-1,0.1c-0.6,0-1.1,0-1.7-0.1c0-0.2,0-0.5,0-0.7c0.3,0,0.5,0,0.8,0
			c0.9,0,1.7,0,2.6,0.2C30.3,33.6,28.6,33.9,28.9,33.9z M26.2,37.6c0.8-0.1,1.6,0,2.4,0.1c0.1,0,0.2,0.1,0.2,0.1
			c0.3,0,0.3,0.5,0,0.5h-1.3c0,0,0,0-0.1,0c-0.4,0-0.8-0.1-1.1-0.1c0,0-0.1,0-0.1,0C26.2,37.9,26.2,37.8,26.2,37.6z M26.2,39.5
			c0.3,0,0.5-0.1,0.8-0.1c0.3,0,0.5,0,0.8,0c0.2,0,0.4,0,0.7,0.1c0.1,0,0.2,0,0.2,0.1c0.1,0,0.2,0,0.2,0.1c0.1,0.1,0,0.3-0.1,0.4
			c0,0,0,0-0.1,0.1c0,0,0,0.1-0.1,0.1c-0.1,0.1-0.3,0.1-0.4,0.1c0,0,0,0,0,0c-0.6,0-1.3,0-1.9-0.1C26.2,40,26.2,39.7,26.2,39.5z
			 M26.3,41.4c0.4-0.1,0.8-0.2,1.1-0.2c0.2,0,1,0.1,1.5,0.2c0.2,0.1,0.4,0.3,0,0.4C28.6,42,28.2,42,27.9,42c-0.5,0-1.1-0.2-1.6-0.2
			C26.3,41.7,26.3,41.6,26.3,41.4z M26.2,36.1c0-0.2,0-0.4,0-0.6c0.2,0,0.3,0,0.5,0c0.5,0,1-0.1,1.5,0c0.3,0,0.6,0,0.8,0.1
			c0.4,0.1,0.6,0.5,0.1,0.6C28.2,36.3,27.2,36.3,26.2,36.1z M20.8,35.8c0,2.3-0.3,5,0.8,7.1c2,3.5,8.9,2.8,9.8-1.2
			c0.7-2.1,0.2-4.8,0.1-6.8c-0.1-1.4-0.2-2.6-1.4-3.1c0.8,0,1.7,0.2,2.5,0.1c2.6,2.6,4.1,6.5,2.3,9.9c-1.6,3-5.2,4.4-8.4,4.6
			c-3.8,0.2-8-1.1-9.7-4.7c-0.8-1.6-0.8-3.7-0.1-5.3c0.6-1.6,1.7-2.8,2.7-4.1c0.1,0,0.2,0,0.2-0.1c0,0,0,0,0,0
			c0.8-0.2,1.6-0.2,2.4-0.3C20.8,32.6,20.8,34.4,20.8,35.8z M26.1,26.4c-1.2,0.1-2.4,0.2-3.6,0.2c-0.4,0-0.9,0-1.3-0.1
			c0.6-2,2.6-2.4,4.4-2.6c2.2-0.2,4.8-0.2,5.5,2.3C29.5,26.3,27.8,26.3,26.1,26.4z M26.1,23.5c-1.2,0-2.9-0.1-3.2-1.5
			c0.4,0,0.8,0,1.3,0c1.8-0.1,3.6-0.1,5.4-0.2C29.2,23.4,27.6,23.5,26.1,23.5z M33.9,21.3c-0.1,0-0.3,0.1-0.4,0.1
			c-0.2,0-0.4,0-0.6,0.1l0,0c0,0,0,0,0,0c0,0,0,0,0,0c-0.1,0-0.2,0-0.2,0c-1,0-2,0-3.1,0c-1.8,0-3.6,0.1-5.4,0.2
			c-1.5,0.1-3.1-0.2-4.6-0.1c-0.6,0-2.2,0-1.7-1.1C18,20,19,20,19.4,19.9c0.8-0.1,1.6,0,2.4,0.1c1.5,0.1,2.9-0.1,4.4-0.1
			c0,0,0,0,0.1,0c1.1,0,2.3,0.1,3.4,0.1c0.1,0,0.3,0,0.4,0c0,0,0.1,0,0.1,0c1.3-0.1,2.6-0.2,3.9,0c0,0,0,0,0,0c0,0,0,0,0,0
			c0.1,0,0.2,0,0.2,0c0.3,0.1,0.6,0.4,0.5,0.8C34.7,21,34.3,21.2,33.9,21.3C34,21.3,33.9,21.3,33.9,21.3z M22.1,18
			c0-0.2,0-0.3,0-0.5c2.6,0.1,5.2,0.3,7.8,0c0,0,0,0,0,0c0,0.3,0,0.5,0,0.8c-1-0.3-2.5,0-3.4,0c-1.4,0.1-2.9-0.1-4.4,0.1
			C22.1,18.3,22.1,18.2,22.1,18z M30,19.5c-0.6,0-1.2,0-1.8,0c-1.2,0-2.5-0.2-3.7,0c0,0-0.1,0-0.1,0c-0.7,0-1.4,0-2.1,0
			c0-0.3-0.1-0.6-0.1-0.9c1.4-0.2,2.9,0,4.3,0c1,0,2.4-0.3,3.4,0c0,0,0,0,0,0C30,19,30,19.2,30,19.5z M21.8,18.2
			c0,0.4-0.1,1,0.1,1.4c-0.4,0-0.7,0-1.1,0c-0.7,0-1.9-0.1-2.7,0.2c1-1.4,2.5-2.4,3.8-3.5C21.9,16.9,21.9,17.5,21.8,18.2z
			 M32.2,19.5c-0.6,0-1.3,0-1.9,0c0-0.7,0-1.3-0.1-2c0,0,0-0.1,0-0.1c0,0,0-0.1,0-0.1c0-0.4,0-0.7-0.1-1.1c0.9,0.7,1.5,1.6,2.4,2.3
			c0.4,0.3,0.9,0.5,1.3,0.8c0.1,0.1,0.2,0.2,0.3,0.2C33.5,19.4,32.6,19.5,32.2,19.5z M25.1,16c-0.4,0-0.8,0-1.2,0
			c-1.3,0-2.6,0-4-0.2c-0.4-0.1-4.5-0.9-3.8-1.8c0.4-0.5,1.1-0.8,1.9-1.1c0.6-0.2,1.2-0.4,1.4-0.4c1.6-0.4,3.1-0.7,4.7-0.8
			c0.3,0,0.7,0,1,0c0,0.7,0,1.4,0,2.1c-0.1-0.1-0.3-0.2-0.6-0.1c-0.3,0.1-0.5,0.3-0.7,0.5c0.1-0.1-0.6-0.5-0.7-0.5
			c-0.3-0.1-0.7-0.2-1.1,0c-0.4,0.2-0.4,0.5-0.7,0.1c-0.6-0.6-1.6-0.2-2,0.4c-0.1,0.1,0.1,0.3,0.2,0.1c0.6-0.7,1.2-0.7,1.8,0
			c0.1,0.1,0.2,0.1,0.2,0c0.7-0.9,1.6-0.4,2.1,0.2c0.1,0.1,0.2,0,0.2-0.1c0.4-0.7,0.8-0.8,1.1-0.1C25.1,14.9,25.1,15.4,25.1,16z
			 M22.6,7.7c0.8-0.1,1.6-0.2,2.4-0.3c0,0.6,0,1.2,0,1.8c-0.5-0.6-1.5-0.6-1.9,0.1c-0.4-0.6-1.3-0.7-1.8-0.1c-0.5,0.5-0.1,0.2-0.9,0
			c-0.6-0.1-1-0.1-1.5,0.3c-0.1,0.1,0.1,0.3,0.2,0.2c0.7-0.4,1.3-0.3,1.8,0.2c0.1,0.1,0.2,0,0.3-0.1c0.2-0.6,1.4-1.2,1.8-0.2
			c0,0.1,0.2,0.1,0.3,0c0.3-1,1.4-0.8,1.8,0c0,0.4,0,0.8,0,1.2c-2.1,0.1-4.3,0.1-6.4,0.1c-0.4,0-2.9-0.4-3.6-1
			c-0.6-1.4,3.6-1.9,4.2-1.9c0.2,0,0.4,0,0.6-0.1C20,8,20,8,20.1,8C20.9,7.8,21.8,7.8,22.6,7.7z M22.6,7.2c0.2-0.8,1.5-0.9,2.5-0.9
			c0,0.3,0,0.5,0,0.8c-0.3,0-0.7,0-1,0.1c-0.2,0-0.5,0-0.7,0C23.1,7.2,22.8,7.2,22.6,7.2z M49.5,46.2c-1.3,3.4-5.7,4-9.1,4
			c-4.1,0-8.2-0.1-12.4,0c-4.3,0.1-8.6,0.4-12.9,0.4c-1.8,0-3.6-0.1-5.4-0.2C7.9,50.4,6.3,50,5,48.8c-3-2.7-2.5-7.7-2.3-11.3
			c0.1-1.9,0.3-3.9,0.4-5.8c0.1-2.2,0-4.4-0.1-6.6c-0.1-4.2-0.4-8.4-0.3-12.6c0.1-1.9,0.1-3.8,0-5.6c0-1.1,0.1-2.4,1.1-3.1
			c0.8-0.6,2.1-0.4,3-0.3c1.7,0.1,3.5,0,5.2,0c4.3,0.1,8.7,0,13-0.1c0,0.9,0,1.8,0,2.7c-1.1,0-2.7,0.1-2.7,1.2c-0.1,0-0.2,0-0.3,0
			c-1,0.1-2,0.3-3,0.5c-1.4,0.2-3.6,0.5-4.5,1.7c0,0,0,0.1,0.1,0.1c0,0,0,0,0,0.1c0,0.3,0.1,0.6,0.5,0.8c0,0,0,0,0,0
			c0,0,0.1,0,0.1,0.1c0,0,0,0,0,0c0,0,0,0,0,0c0.8,0.4,2.1,0.6,2.5,0.7c1.1,0.2,2.2,0.1,3.3,0.1c1.2,0,2.3,0,3.5,0c0,0,0,0,0,0
			c-0.2,0-0.4,0-0.6,0c-1.5,0.1-3,0.4-4.4,0.8c-0.3,0.1-0.6,0.2-1,0.2c-0.5,0.1-3.8,1-3.1,2.1c0,0,0.1,0.1,0.1,0.1
			c0,0.1,0.1,0.1,0.2,0c0.4,0.6,1.9,0.9,2.4,1c1.2,0.3,2.3,0.5,3.5,0.5c-0.9,0.6-1.6,1.4-2.4,2.1c-0.6,0.5-1.5,1.2-1.7,2
			c-0.3,0.5-0.2,1.3,0.4,1.5c0.1,0,0.1,0,0.2,0.1c-5.5,2.2-8.4,9.2-7.3,14.8c0.7,3.2,2.9,6.2,5.4,8.2c2.6,2,6.7,2.8,9.8,2.9
			c6.5,0.3,13.5-3.5,15.2-10c1.7-6.4-1.1-12.7-6.9-15.8c-0.1-0.1-0.3-0.1-0.4-0.2c0.6-0.1,1.1-0.5,1.1-1.4c0-0.3-0.1-0.4-0.3-0.6
			c-0.4-0.6-1.3-1-1.8-1.3c-1.1-0.6-1.7-1.8-2.8-2.4c1-0.2,1.9-0.4,2.9-0.7c0.8-0.3,3.6-1.1,3.2-2.4c-0.3-0.8-1.8-1-2.4-1.1
			c-1.7-0.4-3.5-0.5-5.3-0.5c1-0.1,2.1-0.2,3.1-0.3c1.4-0.2,2.8-0.4,4.1-1c0.6-0.3,0.9-0.8,0.6-1.4c-0.3-0.6-1.3-0.7-1.9-0.8
			c-1.6-0.2-3.2-0.4-4.8-0.5c-0.2,0-0.3,0-0.5,0c-0.2-1.2-1.3-1.3-2.4-1.2c0-0.9-0.1-1.7-0.2-2.6c1.6,0,3.2,0,4.8,0
			c3.4,0.1,6.8,0,10.3-0.1c1.5,0,2.9,0,4.4,0.1c0.9,0.1,2.1,0.3,2.7,1.1c0.4,0.5,0.3,1.3,0.3,1.9c0,3.1,0.3,6.2,0.3,9.3
			c0.1,3.4,0.2,6.8,0.3,10.1c0,1.8,0.1,3.6,0,5.4c0,0,0,0,0,0c-0.1,0.8-0.1,1.6,0,2.4c0,0.1,0,0.1,0,0.1c0,0.2,0,0.3,0,0.5
			c-0.1,1.7,0,3.5,0.1,5.2c0,1.1,0.1,2.3,0.1,3.4C50.1,44.1,49.8,45.1,49.5,46.2z"/>
		<path fill="#443323" d="M42.9,14c-0.1,0-0.2,0.1-0.3,0.2c-0.2,0.2-0.4,0.4-0.5,0.5c-0.2,0.2-0.5,0.4-0.7,0.5
			c-0.2,0.1-0.3,0.2-0.4,0.3c0,0.1,0,0.1,0.1,0.1c0.4,0,0.8-0.5,1.1-0.7C42.4,14.8,42.9,14.4,42.9,14C42.9,14,42.9,14,42.9,14z"/>
		<path fill="#443323" d="M43.9,17.2c-0.9,0.1-1.6,0.8-2.5,1c-0.2,0.1-0.1,0.3,0.1,0.3c0.9-0.2,1.6-0.9,2.5-1.1
			C44.1,17.4,44.1,17.2,43.9,17.2z"/>
		<path fill="#443323" d="M44.4,21.9c-0.4-0.2-0.8-0.4-1.2-0.6c-0.4-0.2-0.8-0.4-1.2-0.4c-0.1,0-0.2,0.2-0.1,0.2
			c0.8,0.2,1.5,0.7,2.3,1C44.4,22.2,44.5,22,44.4,21.9z"/>
		<path fill="#443323" d="M13,16.9c-0.4-0.4-0.7-0.7-1.1-1c-0.3-0.3-0.7-0.6-1.1-0.8c-0.1,0-0.1,0-0.1,0.1c0.2,0.4,0.6,0.6,0.9,0.9
			c0.4,0.3,0.7,0.7,1.1,1C12.9,17.3,13.1,17,13,16.9z"/>
		<path fill="#443323" d="M11.7,19.4c-0.3-0.2-0.7-0.2-1.1-0.2c-0.5,0-1-0.1-1.4,0.1c0,0,0,0.1,0,0.1c0.4,0.1,0.8,0.1,1.2,0.1
			c0.4,0,0.8,0.2,1.2,0.1C11.8,19.5,11.8,19.4,11.7,19.4z"/>
		<path fill="#443323" d="M11,22.6c-0.9,0.2-1.7,0.8-2.5,1.3c-0.1,0.1,0,0.2,0.1,0.2c0.8-0.4,1.5-1,2.4-1.2
			C11.2,22.8,11.2,22.6,11,22.6z"/>
	</g>
</g>
</svg>
