<?xml version="1.0" encoding="utf-8"?>
<!-- Generator: Adobe Illustrator 18.0.0, SVG Export Plug-In . SVG Version: 6.00 Build 0)  -->
<!DOCTYPE svg PUBLIC "-//W3C//DTD SVG 1.1//EN" "http://www.w3.org/Graphics/SVG/1.1/DTD/svg11.dtd">
<svg version="1.1" id="Слой_1" xmlns="http://www.w3.org/2000/svg" xmlns:xlink="http://www.w3.org/1999/xlink" x="0px" y="0px"
	 viewBox="0 0 51.3 52.6" enable-background="new 0 0 51.3 52.6" xml:space="preserve">
<g>
	<g>
		<path fill="#443323" d="M51,26.5c0-4.3,0-8.7,0-13c0-3.4,0.2-6.9,0-10.3c-0.1-1.9-0.4-3.3-2.5-3.5c-1.6-0.1-3.2,0.1-4.8,0.1
			c-1.8,0-3.7,0.1-5.5,0.2c-3.5,0.2-7,0.2-10.5,0.1c-3.5-0.1-7,0.1-10.4,0c-3.5-0.1-7,0.2-10.6,0.1c-1.9-0.1-5-0.6-6.3,1.3
			c-0.5,0.8-0.6,1.9-0.5,2.9c-0.1,3.6,0.2,7.2,0,10.8c-0.1,3.9,0,7.7,0.2,11.6c0.3,7.3-0.7,14.6-0.2,21.9c0,0,0,0.1,0,0.1
			c0.1,1.1,0.1,2.1,0.8,2.9c0.9,1,3,0.3,4.1,0.3c4.2-0.1,8.4-0.3,12.6-0.4c4.3-0.1,8.5,0,12.8,0c4.2,0,8.4-0.3,12.6-0.4
			c1.9,0,3.7,0.2,5.6,0.1c0.9,0,1.6-0.3,2-1.2c0.6-1.3,0.2-3.2,0.2-4.5c-0.1-2.2-0.1-4.3,0-6.5C50.7,35,51,30.8,51,26.5z M50.1,42.7
			c0,2.3,0.4,4.8,0,7.1c-0.2,1.2-1.5,1.2-2.5,1.2c-1.3,0-2.6-0.1-3.9-0.1c-5-0.1-10.1,0.4-15.1,0.4c-5.1,0-10.2-0.1-15.4,0.1
			c-2.5,0.1-5,0.2-7.5,0.2c-1.1,0-2.1,0.1-3.2,0.2c-1.6,0.2-2.1-0.8-2.3-2c0,0,0-0.1,0-0.1C0.2,46,0,42.4,0.1,38.7
			c0.2-3.8,0.4-7.6,0.3-11.3c-0.1-3.9-0.4-7.7-0.2-11.6c0.1-3,0.1-5.9-0.1-8.9c0,0,0.1,0,0.1-0.1c0-1.2-0.1-2.3-0.1-3.5
			C0.3,0.9,2,0.5,4.1,0.4c2.1-0.1,4.1,0.1,6.2,0.1c2.2-0.1,4.3-0.2,6.5-0.2c4.1,0.1,8.3,0,12.5,0.1c4.2,0.1,8.3-0.1,12.5-0.3
			c2-0.1,4-0.1,6-0.1c0.9,0,1.9,0,2.5,0.8c0.7,0.9,0.5,2.4,0.5,3.4c0.1,4.3-0.1,8.6-0.1,12.9c0,4.3,0,8.7,0.1,13
			C50.7,34.4,50.1,38.5,50.1,42.7z"/>
		<path fill="none" stroke="#443323" stroke-width="0.5" stroke-miterlimit="10" d="M48.8,20c-0.1-2.2-0.4-4.3-0.3-6.4
			c0-3.6,2.5-10.8-3.1-11.3c-1-0.1-2,0.1-3,0.1c-1.4,0.1-2.8,0-4.1,0c-3.6-0.1-7.1-0.2-10.7-0.2c-6.7,0.1-13.3,0.7-20-0.1
			C5.8,2,3,1.7,2,3.5c0,0,0,0-0.1,0C1.5,4.5,1.6,5.5,1.7,6.5c-0.1,1.7-0.1,3.4,0,5.1c0,0.4,0,0.8,0,1.2c-0.1,3.8,0.2,7.6,0.1,11.4
			c0,3.9-0.1,7.8,0,11.8c0.1,3.5,0,7,0.1,10.5c0,0,0,0.1,0,0.1c0,0.2,0,0.5,0.1,0.8c0,0.2,0,0.3,0,0.5c0,0.1,0.1,0.1,0.1,0.2
			c0.1,0.3,0.3,0.6,0.6,0.8c1.3,0.7,3,0.8,4.5,0.9c4.3,0.4,8.6,0.2,12.9,0.3c4.2,0.1,8.3,0.1,12.5-0.2c3.2-0.3,6.4,0.1,9.7,0
			c1.6,0,4.4-0.1,5.4-1.7c0.6-1,0.6-2.5,0.6-3.6c0.1-2-0.1-4.1,0.1-6.1c0.2-2,0.5-4,0.6-5.9c0.1-2.2,0-4.3,0-6.5
			C48.9,24,49,22,48.8,20z M15,49.5 M41.1,49.4c-1.7,0-3.4,0-5.1-0.1 M47.9,39.4c-0.2,2,0,4-0.1,6 M48.6,8.9
			c-0.2,1.9-0.5,3.7-0.5,5.6c0,2.2,0.3,4.3,0.4,6.4 M43.3,2.7 M19.3,2.8 M2.1,5c0-0.1,0-0.3,0-0.4 M2.1,8.7c0-0.3,0-0.5,0-0.8
			c0,0,0.1-0.1,0.1-0.1 M2.2,36.4 M4.1,48.7"/>
		<path fill="#443323" d="M8,4.5C7.4,3.6,5.8,2.9,5.2,4.1C4.3,4.6,3.9,5.7,4.1,6.8c0.3,1.6,2.1,1.8,3.3,1.1C8.7,7.2,8.6,5.6,8,4.5z
			 M7.4,7.5c-1,0.8-2.6,0.5-3-0.8C4.1,5.5,5,4.1,6.2,3.9c0,0,0.1,0,0.1-0.1c0.1,0,0.2,0,0.3,0C7,3.9,7.4,4.3,7.6,4.7
			C8.2,5.6,8.3,6.8,7.4,7.5z"/>
		<path fill="#443323" d="M6.8,5.3c-0.3-0.5-1.1-0.5-1.3,0c0,0,0,0,0,0C5.3,5.5,5.1,5.8,5.2,6c0.1,0.6,0.7,0.8,1.2,0.6
			C6.9,6.4,7.2,5.8,6.8,5.3z M6.2,6.3C5.9,6.5,5.4,6.2,5.5,5.9c0.1-0.3,0.4-0.4,0.6-0.6c0.2,0,0.3,0.1,0.4,0.2
			C6.7,5.8,6.5,6.2,6.2,6.3z"/>
		<path fill="#443323" d="M47.3,5.5c-0.4-1.2-1.9-2-3-1.5c-2.1,0.5-1.8,4.5,0.8,4.4C46.7,8.3,47.8,7,47.3,5.5z M45,8
			c-1.9,0.1-2.2-2.6-0.9-3.5c1.2-0.2,2.2-0.2,2.8,1C47.5,6.8,46.3,7.9,45,8z"/>
		<path fill="#443323" d="M46.2,5.2c-0.3-0.3-0.7-0.4-1.1-0.3c-0.4,0.2-0.7,0.5-1,0.9c0,0.1,0,0.1,0.1,0.1c0,0,0.1-0.1,0.1-0.1
			c0,0.1-0.1,0.3,0,0.4c0.1,0.7,0.8,1.1,1.4,0.8C46.4,6.8,46.8,5.8,46.2,5.2z M45.6,6.8c-0.4,0.3-0.8-0.1-0.9-0.5
			c-0.1-0.3,0-0.5,0.2-0.7c0,0,0,0,0,0c0.3-0.2,0.5-0.4,0.8-0.2C46.3,5.7,46,6.5,45.6,6.8z"/>
		<path fill="#443323" d="M46.2,43.7c-0.5-1-2.4-2.2-3.2-1c0,0,0,0.1,0,0.1c-1,0.7-1.5,1.8-1.2,3c0.4,1.6,2.5,2.1,3.8,1.3
			C46.7,46.5,46.7,44.8,46.2,43.7z M45.4,46.7c-1,0.9-3,0.3-3.4-0.8c-0.5-1.2,0.5-2.5,1.6-3.1C45.5,42.2,46.8,45.3,45.4,46.7z"/>
		<path fill="#443323" d="M44.6,44.1c-0.3-0.4-1.3-0.4-1.4,0.2c0,0,0,0,0,0c0,0,0,0.1-0.1,0.1c-0.3,0.4-0.3,0.9,0,1.3
			c0.4,0.5,1.3,0.7,1.6,0C45.1,45.2,44.9,44.5,44.6,44.1z M44.5,45.4c-0.1,0.4-0.4,0.5-0.8,0.3c-0.4-0.2-0.6-0.5-0.5-0.9
			c0.1-0.3,0.3-0.6,0.6-0.7c0.1,0,0.2,0,0.3,0.2C44.5,44.6,44.6,45,44.5,45.4z"/>
		<path fill="#443323" d="M8.9,44.6c-0.2-1.2-1.6-2.6-2.8-2c-2.1,0.2-2.6,4.9,0.3,5C8.1,47.7,9.1,46.2,8.9,44.6z M6.4,47.2
			c-2.2,0-2.1-3.3-0.7-4.1c0,0,0,0,0,0c0.6,0,1.1-0.2,1.7,0.1c0.6,0.3,0.9,0.9,1,1.4C8.9,46,7.8,47.2,6.4,47.2z"/>
		<path fill="#443323" d="M7.4,44.4c-0.1-0.2-0.3-0.4-0.6-0.5c-0.2,0-0.5,0-0.7,0.1c-0.4,0.2-0.6,0.7-0.5,1.1c0.1,0.7,0.7,1,1.3,0.7
			C7.5,45.6,7.6,44.9,7.4,44.4z M6.9,45.4c-0.3,0.3-0.8,0-0.8-0.3c0-0.2,0-0.4,0.1-0.5c0-0.1,0.1-0.1,0.2-0.2c0.3,0,0.5-0.2,0.7,0.1
			C7.2,44.8,7.1,45.2,6.9,45.4z"/>
	</g>
	<g>
		<path fill-rule="evenodd" clip-rule="evenodd" fill="#443323" d="M25,30.2c0.2-0.5,0.3-1,0.4-1.5c0-0.1,0-0.3,0-0.4
			c-0.2-1.2-0.3-2.4-0.7-3.6c-0.5-1.7-1.4-3.2-2.4-4.6c-0.9-1.1-1.9-2.1-3.2-2.8c-0.2-0.1-0.4-0.2-0.5-0.1c-0.7,0-1.3,0.2-1.8,0.8
			c-0.2,0.2-0.3,0.4-0.3,0.6c0,0.2-0.1,0.5,0,0.7c0.1,1,0.3,2,1.1,2.6c0.3,0.3,0.6,0.6,0.9,0.8c0.4,0.3,0.7,0.8,0.9,1.2
			c0.4,1,0.6,2,0.6,3c0,0.7,0.1,1.3,0.2,1.9c0.2,0.9,0.7,1.6,1.6,2c0.5,0.2,1,0.3,1.5,0.1c0.4-0.2,0.8-0.3,1.2-0.5
			C24.7,30.5,24.9,30.4,25,30.2z M23.9,30.3c-0.1,0-0.2,0.1-0.3,0.1c-1,0.6-1.8,0.2-2.4-0.7c-0.2-0.3-0.3-0.7-0.4-1
			c-0.1-0.4-0.2-0.8-0.1-1.1c0.1-0.9-0.2-1.8-0.3-2.6c-0.2-1-0.6-1.9-1.5-2.5c-0.2-0.2-0.4-0.4-0.6-0.6c-0.8-0.5-1-1.3-1.1-2.2
			c0-0.2,0-0.5,0-0.7c0.1-0.6,0.4-0.9,1-1c0.4-0.1,0.8,0,1.2,0.3c0.8,0.5,1.3,1,2.1,2c0,0.4-0.4,0.5-0.5,0.8
			c-0.2,0.3-0.5,0.5-0.7,0.7c0,0,0,0.2,0,0.2c0.1,0.1,0.2,0.1,0.2,0.1c0.2-0.2,0.5-0.3,0.7-0.5c0.2-0.2,0.3-0.4,0.4-0.5
			c0.1-0.1,0.3-0.1,0.4-0.1c0.2,0.1,0.2,0.3,0.1,0.5c-0.2,0.4-0.4,0.7-0.8,0.9c-0.1,0.1-0.2,0.1-0.3,0.3c0,0,0,0.2,0.1,0.2
			c0,0,0.1,0.1,0.1,0c0.3-0.2,0.6-0.3,0.8-0.5c0.2-0.1,0.3-0.3,0.5-0.5c0.6,0.2,0.7,0.7,0.8,1.2c0,0,0.1,0,0.1,0.1
			c0.1,0.2,0.2,0.5,0.3,0.7c-0.4,0.6-1,0.9-1.7,0.8c0,0-0.1,0.1-0.1,0.1c0,0.1,0.1,0.2,0.1,0.2c0.2,0.1,0.3,0.2,0.5,0.1
			c0.3-0.1,0.5-0.2,0.8-0.3c0.2-0.1,0.3-0.1,0.6-0.2c0.5,1.2,0.7,2.4,0.8,3.6c0,0.4-0.1,0.7-0.1,1.1C24.5,29.7,24.3,30.1,23.9,30.3z
			"/>
		<path fill-rule="evenodd" clip-rule="evenodd" fill="#443323" d="M36.9,20.8c-0.3-0.6-0.7-1-1.3-1.3c-0.4-0.2-0.8-0.4-1.3-0.6
			c-0.1-0.1-0.3-0.1-0.4-0.1c-0.7,0-1.4-0.3-2.1,0c-0.3,0.1-0.6,0.1-0.8,0.1c-0.3,0.3-0.6,0.5-0.9,0.7c-0.2,0.2-0.5,0.4-0.7,0.7
			c-0.5,0.8-1,1.7-1.1,2.7c-0.1,0.8,0,1.6,0.2,2.4c0.2,0.5,0.4,0.8,0.8,1.2c0.4,0.3,0.8,0.6,1.3,0.8c1.2,0.4,2.4,0.3,3.6,0.2
			c0.2,0,0.5-0.1,0.7-0.2c1.8-0.8,2.8-2.3,2.6-4.4C37.7,22.1,37.3,21.5,36.9,20.8z M36.5,25.6c-0.1,0.2-0.2,0.3-0.4,0.4
			c-0.1,0.1-0.3,0.2-0.5,0.3c-0.8,0.5-1.6,0.8-2.5,0.7c-1,0.1-2-0.2-2.9-0.6c-0.4-0.2-0.7-0.6-0.9-1c-0.5-1.1-0.4-2.2,0-3.3
			c0.2-0.5,0.4-0.9,0.7-1.4c0.5-0.9,1.3-1.3,2.3-1.4c1.3-0.2,2.3,0.3,3.3,0.9c0.2,0.1,0.4,0.3,0.5,0.5c0.4,0.6,0.7,1.2,0.9,1.9
			C37.3,23.7,37.1,24.7,36.5,25.6z"/>
		<path fill-rule="evenodd" clip-rule="evenodd" fill="#443323" d="M14.7,22.9c0.1-0.1,0.2-0.3,0.3-0.5c0.4-1.1-0.2-1.9-1.3-1.9
			c0,0-0.1,0-0.2,0c-0.4-0.1-0.8,0-1.2,0.3c-0.1,0.1-0.2,0.3-0.3,0.4c-0.1,0.1-0.1,0.3-0.1,0.4c-0.1,0.6,0.2,1.1,0.6,1.4
			C13.1,23.5,14.3,23.3,14.7,22.9z M12.5,22.2c-0.1-0.3,0-0.6,0.1-0.8c0-0.1,0.1-0.1,0.2-0.2c0.3-0.1,0.5-0.2,0.8-0.2
			c0.4-0.1,0.7,0.2,0.8,0.6c0.1,0.6-0.2,1-0.8,1.1c-0.1,0-0.3,0-0.4,0C13,22.8,12.6,22.5,12.5,22.2z"/>
		<path fill-rule="evenodd" clip-rule="evenodd" fill="#443323" d="M25.5,35.8c-0.5,0-0.9,0.4-1,0.9c0,0.2,0,0.4-0.1,0.6
			c0,0.2,0.1,0.3,0.1,0.5c0.2,0.6,1.1,0.9,1.7,0.6c0.4-0.3,0.9-0.6,1.1-1c0.1-0.3,0.1-0.6-0.1-0.8C26.7,36,26.2,35.7,25.5,35.8z
			 M25.7,37.8c-0.1,0-0.3,0-0.4-0.1c-0.1,0-0.1-0.1-0.2-0.2c-0.3-0.5,0.1-1.2,0.7-1.3c0.3,0,0.8,0.3,0.9,0.6c0,0,0,0.1,0,0.2
			C26.5,37.4,26.2,37.7,25.7,37.8z"/>
		<path fill-rule="evenodd" clip-rule="evenodd" fill="#443323" d="M15.5,27.2c0.3-0.2,0.5-0.6,0.4-1.2c0-0.1,0-0.4-0.2-0.6
			c-0.4-0.6-1.1-0.7-1.8-0.6c0,0-0.1,0-0.1,0c-0.9,0.4-1.2,1.4-0.7,2.1c0.1,0.1,0.2,0.2,0.3,0.3c0.4,0.5,1,0.6,1.5,0.4
			C15.2,27.4,15.4,27.3,15.5,27.2z M14.2,27.1c-0.1,0-0.3-0.1-0.4-0.2c-0.3-0.4-0.3-0.9,0-1.3c0.3-0.3,0.6-0.3,0.9-0.2
			c0.3,0.1,0.5,0.2,0.6,0.6c0.1,0.3,0.1,0.7-0.3,0.9C14.8,26.9,14.6,27.1,14.2,27.1z"/>
		<path fill-rule="evenodd" clip-rule="evenodd" fill="#443323" d="M18.7,30.7c-0.3-0.2-0.7-0.2-1,0.1c-0.1,0.1-0.2,0.3-0.4,0.4
			c-0.4,0.4-0.5,0.9-0.3,1.4c0.3,0.7,1,1,1.6,0.6c0.3-0.2,0.6-0.4,0.9-0.7c0.1-0.1,0.2-0.3,0.2-0.5c-0.1-0.2-0.1-0.4-0.2-0.6
			C19.3,31.2,19,30.9,18.7,30.7z M18.9,32.4c-0.2,0.1-0.4,0.3-0.6,0.4c-0.2,0.1-0.5,0-0.6-0.2c-0.1-0.2-0.1-0.4-0.1-0.5
			c0-0.2,0.1-0.4,0.3-0.5c0.2-0.1,0.5-0.2,0.8-0.3c0.1,0.1,0.2,0.2,0.3,0.3C19.1,32,19.1,32.2,18.9,32.4z"/>
		<path fill-rule="evenodd" clip-rule="evenodd" fill="#443323" d="M30.5,32.8c-0.2-0.1-0.4-0.1-0.4-0.1c-1,0-1.6,0.4-1.9,1.3
			c0,0.2,0,0.4,0,0.5c0.4,0.6,1,1,1.8,0.7c0.6-0.2,0.9-0.6,1-1.2c0-0.1,0-0.2,0-0.3C31,33.2,30.9,32.9,30.5,32.8z M29.6,34.7
			c-0.2,0-0.5,0-0.6-0.2c-0.1-0.2-0.2-0.3-0.1-0.5c0.1-0.3,0.3-0.6,0.7-0.6c0.2,0,0.4-0.1,0.6-0.1c0.1,0.1,0.2,0.2,0.2,0.3
			C30.4,34.1,30.1,34.5,29.6,34.7z"/>
		<path fill-rule="evenodd" clip-rule="evenodd" fill="#443323" d="M16.7,28.8c-0.2-0.1-0.4-0.2-0.6-0.3c-0.8-0.4-1-0.4-1.4,0.5
			c-0.1,0.3-0.2,0.5-0.2,0.8c0,0.4,0.3,0.8,0.7,1c0.2,0.1,0.4,0.1,0.5,0.1c0.3-0.1,0.5-0.1,0.7-0.2c0.4-0.2,0.6-0.4,0.7-0.8
			C17.2,29.4,17.1,29,16.7,28.8z M15.8,30.1c-0.3,0-0.6-0.2-0.6-0.4c-0.1-0.4,0.2-0.8,0.5-0.8c0.4,0,0.8,0.3,0.8,0.6
			C16.6,29.9,16.3,30.1,15.8,30.1z"/>
		<path fill-rule="evenodd" clip-rule="evenodd" fill="#443323" d="M33.9,30.2c-0.1-0.1-0.3-0.2-0.4-0.3C33,30,32.6,30,32.2,30.1
			c-0.2,0-0.3,0.2-0.4,0.4c-0.3,1.1-0.3,1.4,0.8,1.8c0.3,0.1,0.5,0.1,0.8,0c0.1-0.1,0.2-0.1,0.4-0.2c0.4-0.2,0.6-0.9,0.5-1.2
			C34.2,30.6,34.1,30.4,33.9,30.2z M32.9,31.8c-0.3,0-0.4-0.2-0.5-0.4c-0.1-0.3,0-0.6,0.3-0.7c0.1-0.1,0.2-0.1,0.4-0.2
			c0.4-0.2,0.8,0,0.8,0.5C33.8,31.5,33.4,31.9,32.9,31.8z"/>
		<path fill-rule="evenodd" clip-rule="evenodd" fill="#443323" d="M21.7,33.8c-0.4-0.2-0.8-0.2-1.2,0.2c-0.1,0.1-0.2,0.2-0.3,0.3
			c-0.5,0.5-0.2,1.5,0.4,1.6c0.2,0.1,0.4,0.1,0.5,0.2c0.4,0.1,0.7-0.1,0.9-0.5c0.1-0.2,0.1-0.4,0.1-0.5c0-0.3,0-0.5,0-0.6
			C22.2,34.2,22,33.9,21.7,33.8z M21.6,35.2c-0.1,0.2-0.3,0.3-0.6,0.3c-0.3-0.1-0.4-0.3-0.3-0.5c0.1-0.2,0.1-0.3,0.2-0.5
			c0-0.1,0.2-0.1,0.3-0.1c0.1,0.1,0.2,0.1,0.3,0.2C21.7,34.7,21.7,35,21.6,35.2z"/>
		<path fill-rule="evenodd" clip-rule="evenodd" fill="#443323" d="M42,20.3c-0.1-0.2-0.1-0.5-0.1-0.7c0-0.2,0-0.4-0.1-0.5
			c-0.2-0.6-0.5-1.1-0.8-1.7c-0.1-0.2-0.3-0.4-0.4-0.5c-1.7-1.3-3.6-2.1-5.7-2c-0.3,0-0.7,0.1-1,0c-0.6,0-1.1,0.1-1.7,0.1
			c-0.9,0.1-1.7,0.5-2.5,0.8c-1.2,0.5-2.2,1.2-3,2.2c-0.3,0.4-0.6,0.8-0.9,1.3c-0.1,0.1-0.1,0.2-0.2,0.3c-0.1,0.1-0.2,0.1-0.2,0.1
			c-0.1,0-0.2-0.1-0.2-0.2c-0.5-1.6-1.6-2.9-2.7-4.1c-0.2-0.2-0.4-0.3-0.6-0.4c-0.6-0.3-1.2-0.5-1.8-0.7c-0.5-0.2-1-0.2-1.5-0.3
			c-0.2,0-0.4,0-0.6,0c-0.2,0-0.5,0.1-0.7,0.2c-0.7,0.1-1.3,0.3-1.9,0.5c-0.6,0.2-1.2,0.4-1.8,0.8c-0.1,0.1-0.3,0.1-0.4,0.2
			c-1,0.6-1.9,1.1-2.6,2.1c-0.7,0.9-1.4,1.8-1.5,3c-0.4,1-0.5,2.1-0.4,3.4c-0.1,0.6,0.1,1.5,0.3,2.3c0.1,0.4,0.2,0.7,0.4,1
			c0.4,0.6,0.8,1.2,1.3,1.8c0.2,0.3,0.5,0.6,0.6,0.9c0.2,0.4,0.4,0.8,0.8,1.1c0.5,0.4,1,0.8,1.5,1.2c0.2,0.2,0.5,0.3,0.6,0.5
			c0.7,0.8,1.5,1.4,2.3,2.1c0.5,0.4,1.1,0.8,1.5,1.2c0.5,0.5,1,1,1.4,1.6c0.1,0.1,0.3,0.3,0.4,0.4c0.4,0.5,1,0.9,1.6,1.1
			c1,0.4,2,0.7,3,1.3c0,0,0.1,0,0.1,0.1c0.3,0.2,0.7,0.1,0.9-0.1c0.5-0.4,1.1-0.8,1.5-1.3c1.5-1.4,3.1-2.6,4.7-3.8
			c1.3-1,2.7-1.9,3.9-3c1.2-1,2.4-2.1,3.7-3.1c0.6-0.5,1.1-1.1,1.4-1.7c0.4-0.8,0.7-1.6,1-2.5c0.4-1.1,0.4-2.3,0.5-3.5
			C42.2,21.4,42.2,20.8,42,20.3z M41.1,22.2c0.2,0,0.3,0.2,0.3,0.4c0,0,0,0.1,0,0.1c0,0.1,0,0.2,0,0.3c0,0.4-0.2,0.6-0.6,0.6
			c-0.4,0-0.8,0-1.1,0c0,0-0.1,0.1-0.1,0.1c0,0,0.1,0.1,0.1,0.1c0.1,0,0.3,0,0.4,0c0.2,0,0.5,0,0.7,0c0.4,0,0.6,0.3,0.5,0.7
			c-0.1,0.2-0.1,0.5-0.2,0.7c-0.2,0.6-0.4,0.7-0.9,0.4c-0.2-0.1-0.5-0.3-0.7-0.4c0,0-0.1,0-0.1,0c0,0.1-0.1,0.2,0,0.2
			c0.1,0.1,0.2,0.2,0.3,0.3c0.2,0.2,0.5,0.3,0.7,0.4c0.1,0.1,0.2,0.4,0.1,0.5c-0.1,0.2-0.2,0.3-0.2,0.5c-0.1,0.3-0.4,0.3-0.7,0.2
			c-0.2-0.1-0.3-0.2-0.5-0.3c-0.1-0.1-0.2-0.2-0.3-0.3c-0.1,0-0.2,0-0.2,0c0,0-0.1,0.2-0.1,0.2c0.1,0.2,0.3,0.4,0.5,0.5
			c0.3,0.2,0.6,0.3,0.8,0.5c-0.1,0.5-0.5,0.8-0.8,1.2c-0.2,0.2-0.4,0.2-0.6,0c-0.2-0.2-0.5-0.4-0.7-0.7c0,0-0.2,0-0.2,0.1
			c0,0,0,0.1,0,0.1c0.1,0.4,0.5,0.6,0.7,0.8c0.1,0.2,0.1,0.4,0,0.5c-0.3,0.2-0.5,0.4-0.8,0.6c-0.2,0.1-0.4,0.1-0.5,0
			c-0.2-0.2-0.4-0.4-0.6-0.6c-0.2-0.1-0.4-0.2-0.3,0c0,0.1,0,0.2,0.1,0.2c0.3,0.3,0.6,0.6,0.9,0.9c-0.2,0.2-0.4,0.4-0.6,0.6
			c-0.7,0.6-1.4,1.1-2.1,1.7c-0.6,0.4-1.1,0.9-1.7,1.3c-1.3,0.9-2.5,1.9-3.7,2.8c-1,0.7-1.9,1.6-2.8,2.4c-0.2,0.2-0.5,0.4-0.8,0.6
			c-0.4-0.2-0.8-0.4-1.1-0.6c-0.3-0.1-0.7-0.2-1.1-0.3c-0.5-0.2-0.9-0.4-1.4-0.6c-0.4-0.2-0.7-0.4-1-0.7c-0.6-0.6-1.2-1.3-1.9-1.9
			c-0.2-0.2-0.5-0.5-0.7-0.6c-1-0.6-1.9-1.4-2.7-2.2c-0.6-0.5-1.2-1.1-1.8-1.6c-0.2-0.1-0.3-0.2-0.4-0.4c-0.1-0.1-0.1-0.2,0-0.4
			c0.2-0.4,0.2-0.4-0.3-0.4c0,0-0.1,0-0.1,0c-0.3,0-0.5,0-0.6-0.3c-0.2-0.3-0.4-0.6-0.4-1.1c0.2-0.2,0.4-0.5,0.6-0.7
			c-0.4-0.2-0.7,0.3-1.3,0.1c-0.3-0.4-0.8-0.9-1.1-1.5c-0.1-0.2,0-0.4,0.2-0.5c0.3-0.2,0.7-0.3,1-0.5c-0.4-0.2-0.7,0-1,0
			c-0.3,0-0.5-0.2-0.6-0.5c-0.1-0.3-0.1-0.6-0.1-1c0-0.4,0.1-0.6,0.5-0.6c0.3,0,0.7,0.1,0.9-0.2c-0.3-0.2-0.6-0.1-1-0.2
			c-0.4-0.1-0.6-0.3-0.5-0.7c0-0.5,0.1-0.9,0.2-1.4c0-0.3,0.2-0.4,0.6-0.4c0.2,0,0.5,0,0.7,0c0-0.2-0.1-0.3-0.2-0.3
			c-0.1,0-0.2-0.1-0.3-0.1c-0.4-0.2-0.5-0.4-0.4-0.9c0.1-0.4,0.3-0.8,0.6-1.1c0.1-0.1,0.4-0.2,0.5-0.1c0.3,0.2,0.7,0.4,1,0.5
			c0.1,0,0.2,0,0.3-0.1c-0.3-0.3-0.6-0.5-0.9-0.8c-0.1-0.1-0.2-0.4-0.1-0.5c0.2-0.3,0.5-0.6,0.7-0.9c0.2-0.2,0.5-0.2,0.7,0
			c0.3,0.3,0.5,0.6,0.8,0.8c0,0,0.1,0,0.1,0c0.1,0,0.1-0.1,0.1-0.2c-0.2-0.3-0.4-0.6-0.6-1c-0.1-0.2,0-0.4,0.1-0.5
			c0.1-0.1,0.2-0.2,0.4-0.2c0.9-0.5,0.9-0.5,1.4,0.4c0,0.1,0.1,0.1,0.2,0.2c0,0,0.1,0,0.1,0c0,0,0.1-0.1,0.1-0.1
			c-0.1-0.3-0.1-0.6-0.2-1c0.1-0.1,0.2-0.3,0.4-0.3c0.8-0.4,1.7-0.4,2.6-0.6c0.2,0,0.4,0,0.6,0.1c0.6,0.2,1.3,0.2,1.9,0.6
			c0.1,0.1,0.3,0.1,0.4,0.1c0.4,0,0.6,0.2,0.9,0.4c0.3,0.3,0.7,0.6,1,1c0.7,1,1.5,2,1.7,3.2c0,0.3,0.1,0.6,0.3,0.8
			c0.1,0.1,0.4,0.2,0.5,0c0.3-0.4,0.6-0.9,0.9-1.3c0.7-1,1.5-2,2.5-2.6c0.4-0.3,0.6-0.2,1,0.2c0.1,0.1,0.2,0.3,0.3,0.4
			c0,0,0.1,0,0.1,0c0.1,0,0.2-0.1,0.2-0.2c0-0.1-0.1-0.3-0.1-0.4c-0.1-0.2-0.2-0.3-0.3-0.5c0,0,0-0.1,0-0.2c0.2-0.1,0.4-0.2,0.6-0.3
			c0.6-0.2,1-0.2,1,0.6c0,0.1,0,0.2,0,0.3c0,0.1,0.1,0.3,0.3,0.3c0.1,0,0.2-0.1,0.2-0.3c0-0.3-0.1-0.6-0.1-0.8
			c0-0.4,0.2-0.6,0.6-0.6c0.1,0,0.2,0,0.3,0c0.2,0,0.4,0.2,0.4,0.4c0,0.3,0,0.6,0,0.8c0,0.1,0,0.3,0.1,0.5c0.1-0.1,0.3-0.1,0.3-0.2
			c0.1-0.2,0.1-0.4,0.1-0.6c0.1-0.9,0.1-0.9,1.1-0.9c0.4,0,0.7,0.3,0.6,0.7c0,0.3-0.1,0.5-0.2,0.8c0,0,0.1,0.1,0.1,0.1
			c0.1,0,0.2,0,0.2-0.1c0.2-0.4,0.3-0.8,0.4-1.2c0.1-0.2,0.3-0.3,0.6-0.3c0.7,0.1,1,0.6,0.8,1.2c-0.1,0.3-0.3,0.7-0.4,1
			c0,0,0,0.1,0.1,0.1c0,0,0.1,0,0.1,0c0.1-0.1,0.3-0.3,0.3-0.4c0.2-0.4,0.3-0.8,0.5-1.2c0-0.1,0.2-0.1,0.2-0.1
			c0.2,0,0.4,0.1,0.5,0.2c0.4,0.2,0.6,0.5,0.4,0.9c-0.1,0.4-0.3,0.9-0.5,1.3c0,0.1,0,0.2,0.1,0.2c0.1,0,0.2,0,0.3,0
			c0.1,0,0.1-0.1,0.2-0.2c0.2-0.3,0.3-0.7,0.5-1c0-0.1,0.1-0.2,0.1-0.2c0.1-0.1,0.3-0.1,0.4,0c0.5,0.5,0.6,1.1,0.9,1.7
			c0,0.3-0.2,0.6-0.4,0.8c-0.2,0.1-0.4,0.2-0.6,0.3c-0.3,0.1-0.6,0.2-1,0.4c-0.2,0-0.2,0.3,0,0.3c0.3,0,0.6-0.1,0.8-0.2
			c0.2-0.1,0.4-0.2,0.5-0.3c0.2-0.1,0.3-0.1,0.5-0.2c0,0,0.1,0,0.1,0c0.1,0,0.2,0.1,0.3,0.2c0.1,0.1,0.1,0.3,0.1,0.4
			c0.2,0.9,0.1,1.3-1.1,1.3c-0.3,0-0.6-0.1-0.8,0.2C40.1,22.2,40.6,22.1,41.1,22.2z"/>
		<path fill-rule="evenodd" clip-rule="evenodd" fill="#443323" d="M21.8,26.9c-0.1,0.1-0.1,0.2-0.1,0.2c0,0.2,0,0.4,0,0.5
			c0,0.3,0,0.5,0.1,0.8c0.1,0.3,0.6,0.6,0.9,0.6c0.3-0.1,0.6-0.2,0.9-0.4c0.1-0.1,0.3-0.3,0.3-0.4c0.1-0.5,0-0.9-0.4-1.3
			C23,26.5,22.2,26.5,21.8,26.9z M22.6,28.4c-0.1,0-0.2-0.1-0.2-0.1c-0.1-0.2-0.1-0.3-0.1-0.5c0.1-0.3,0.3-0.5,0.6-0.6
			c0.2,0.1,0.3,0.3,0.3,0.6C23.2,28,22.9,28.3,22.6,28.4z"/>
		<path fill-rule="evenodd" clip-rule="evenodd" fill="#443323" d="M19.2,19.1C19.2,19.1,19.2,19.1,19.2,19.1
			C19.2,19.1,19.2,19.1,19.2,19.1z"/>
		<path fill-rule="evenodd" clip-rule="evenodd" fill="#443323" d="M19.3,19.1c-0.1,0-0.1,0-0.1,0c-0.3,0-0.4,0-0.6,0
			c-0.5,0-0.8,0.5-0.6,1c0,0.1,0.1,0.3,0.2,0.4c0.2,0.3,0.6,0.5,1,0.4c0.4-0.1,0.8-0.3,0.9-0.8C20.2,19.7,20,19,19.3,19.1z
			 M19.3,20.2c-0.2,0.1-0.4,0-0.5-0.1c0-0.2,0.3-0.4,0.5-0.4c0.1,0,0.2,0.1,0.2,0.2C19.5,20,19.4,20.1,19.3,20.2z"/>
		<path fill-rule="evenodd" clip-rule="evenodd" fill="#443323" d="M23.3,23.1C23.3,23.1,23.4,23.1,23.3,23.1
			C23.4,23.1,23.4,23.1,23.3,23.1C23.4,23.1,23.4,23.1,23.3,23.1C23.3,23.1,23.3,23.1,23.3,23.1z"/>
		<path fill-rule="evenodd" clip-rule="evenodd" fill="#443323" d="M22.6,23c-0.3,0.3-0.8,0.2-1.1,0.5c0,0-0.1,0.1,0,0.1
			c0,0.1,0.1,0.2,0.1,0.2c0.1,0,0.3,0,0.4,0c0.5-0.2,0.9-0.5,1.3-0.7C23.1,23,22.9,22.8,22.6,23z"/>
		<path fill-rule="evenodd" clip-rule="evenodd" fill="#443323" d="M22.9,26c0.4,0.2,0.7,0.1,1-0.2c0,0,0.1-0.1,0.1-0.1
			c-0.1-0.1-0.1-0.1-0.2-0.1C23.4,25.6,23.1,25.7,22.9,26z"/>
		<path fill-rule="evenodd" clip-rule="evenodd" fill="#443323" d="M33.4,21.9c0,0-0.1,0-0.1,0c-0.6,0-1.4,0.8-1.4,1.4
			c0,0.4,0.2,0.7,0.5,1c0.3,0.2,0.6,0.3,0.9,0.4c0.1,0,0.3,0,0.4,0c0.7-0.2,0.9-0.8,1-1.4c0-0.1,0-0.3-0.1-0.4
			C34.2,22.4,33.8,22.1,33.4,21.9z M33.9,23.5c-0.1,0.3-0.3,0.5-0.6,0.6c-0.2-0.1-0.4-0.2-0.6-0.3c-0.2-0.1-0.2-0.3-0.2-0.5
			c0-0.2,0.1-0.4,0.3-0.4c0.2-0.1,0.5-0.1,0.7-0.1C33.9,22.8,34.1,23.2,33.9,23.5z"/>
		<path fill-rule="evenodd" clip-rule="evenodd" fill="#443323" d="M35.4,21.4c0,0-0.1,0-0.1,0c0,0-0.1,0.1-0.1,0.1
			c0.1,0.3,0.3,0.7,0.4,1c0.1,0.3,0.2,0.5,0.2,0.7c0,0.8-0.2,1.3-0.6,2c0,0-0.1,0.1-0.1,0.1c-0.1,0.1,0,0.4,0.1,0.3
			c0.1,0,0.2,0,0.2-0.1c0.9-0.9,1.1-2.7,0.2-4C35.6,21.5,35.5,21.5,35.4,21.4z"/>
		<path fill-rule="evenodd" clip-rule="evenodd" fill="#443323" d="M33.1,26c-0.4,0.1-0.9,0.2-1.3,0.1c0-0.1-0.1-0.1-0.1-0.1
			c-0.5-0.1-0.8-0.3-1.1-0.6c0,0,0,0,0,0c-0.1-0.4-0.3-0.7-0.4-1c-0.1-0.2-0.1-0.5-0.1-0.7c0.3-0.8,0.5-1.6,1.2-2.2
			c0.1-0.1,0.2-0.2,0.3-0.3c0,0,0-0.1,0-0.1c-0.1,0-0.2-0.1-0.3-0.1c-0.1,0-0.2,0.1-0.2,0.1c-0.6,0.5-0.9,1-1,1.8
			c-0.4,0.8-0.2,1.5,0.1,2.3c0.1,0.1,0.1,0.3,0.2,0.4c0.1,0.2,0.3,0.4,0.4,0.5c0,0.1,0.1,0.1,0.1,0.1c0.7,0.5,1.5,0.6,2.4,0.3
			c0,0,0.1-0.1,0.1-0.1C33.2,26,33.1,26,33.1,26z"/>
		<path fill-rule="evenodd" clip-rule="evenodd" fill="#443323" d="M34.2,20.9c0,0,0.2-0.1,0.2-0.2c0-0.1-0.1-0.2-0.1-0.2
			c-0.3-0.1-0.7-0.2-1-0.3c-0.1,0-0.2,0-0.2,0.1c0,0-0.1,0.1-0.1,0.1c0,0.1,0,0.2,0,0.2C33.4,20.7,33.8,20.8,34.2,20.9z"/>
	</g>
</g>
<g>
	<g>
		<path fill="#443323" d="M50.8,26.7c0-4.3,0-8.7,0-13c0-3.4,0.2-6.9,0-10.3c-0.1-1.9-0.4-3.3-2.5-3.5C46.7-0.2,45.1,0,43.5,0
			C41.7,0,39.8,0,38,0.1c-3.5,0.2-7,0.2-10.5,0.1c-3.5-0.1-7,0.1-10.4,0c-3.5-0.1-7,0.2-10.6,0.1c-1.9-0.1-5-0.6-6.3,1.3
			c-0.5,0.8-0.6,1.9-0.5,2.9c-0.1,3.6,0.2,7.2,0,10.8c-0.1,3.9,0,7.7,0.2,11.6c0.3,7.3-0.7,14.6-0.2,21.9c0,0,0,0.1,0,0.1
			c0.1,1.1,0.1,2.1,0.8,2.9c0.9,1,3,0.3,4.1,0.3c4.2-0.1,8.4-0.3,12.6-0.4c4.3-0.1,8.5,0,12.8,0c4.2,0,8.4-0.3,12.6-0.4
			c1.9,0,3.7,0.2,5.6,0.1c0.9,0,1.6-0.3,2-1.2c0.6-1.3,0.2-3.2,0.2-4.5c-0.1-2.2-0.1-4.3,0-6.5C50.6,35.1,50.8,30.9,50.8,26.7z
			 M50,42.9c0,2.3,0.4,4.8,0,7.1c-0.2,1.2-1.5,1.2-2.5,1.2c-1.3,0-2.6-0.1-3.9-0.1c-5-0.1-10.1,0.4-15.1,0.4
			c-5.1,0-10.2-0.1-15.4,0.1c-2.5,0.1-5,0.2-7.5,0.2c-1.1,0-2.1,0.1-3.2,0.2c-1.6,0.2-2.1-0.8-2.3-2c0,0,0-0.1,0-0.1
			C0,46.2-0.2,42.5,0,38.8c0.2-3.8,0.4-7.6,0.3-11.3c-0.1-3.9-0.4-7.7-0.2-11.6C0.2,12.9,0.1,10,0,7c0,0,0.1,0,0.1-0.1
			C0.1,5.8,0,4.6,0,3.5C0.1,1,1.8,0.6,3.9,0.6C6,0.5,8,0.7,10.1,0.7c2.2-0.1,4.3-0.2,6.5-0.2c4.1,0.1,8.3,0,12.5,0.1
			c4.2,0.1,8.3-0.1,12.5-0.3c2-0.1,4-0.1,6-0.1c0.9,0,1.9,0,2.5,0.8c0.7,0.9,0.5,2.4,0.5,3.4c0.1,4.3-0.1,8.6-0.1,12.9
			c0,4.3,0,8.7,0.1,13C50.5,34.5,49.9,38.7,50,42.9z"/>
		<path fill="none" stroke="#443323" stroke-width="0.5" stroke-miterlimit="10" d="M48.7,20.1c-0.1-2.2-0.4-4.3-0.3-6.4
			c0-3.6,2.5-10.8-3.1-11.3c-1-0.1-2,0.1-3,0.1c-1.4,0.1-2.8,0-4.1,0c-3.6-0.1-7.1-0.2-10.7-0.2C20.7,2.4,14,3,7.4,2.3
			C5.7,2.1,2.8,1.9,1.8,3.7c0,0,0,0-0.1,0C1.3,4.6,1.4,5.6,1.5,6.6c-0.1,1.7-0.1,3.4,0,5.1c0,0.4,0,0.8,0,1.2
			c-0.1,3.8,0.2,7.6,0.1,11.4c0,3.9-0.1,7.8,0,11.8c0.1,3.5,0,7,0.1,10.5c0,0,0,0.1,0,0.1c0,0.2,0,0.5,0.1,0.8c0,0.2,0,0.3,0,0.5
			c0,0.1,0.1,0.1,0.1,0.2c0.1,0.3,0.3,0.6,0.6,0.8c1.3,0.7,3,0.8,4.5,0.9c4.3,0.4,8.6,0.2,12.9,0.3c4.2,0.1,8.3,0.1,12.5-0.2
			c3.2-0.3,6.4,0.1,9.7,0c1.6,0,4.4-0.1,5.4-1.7c0.6-1,0.6-2.5,0.6-3.6c0.1-2-0.1-4.1,0.1-6.1c0.2-2,0.5-4,0.6-5.9
			c0.1-2.2,0-4.3,0-6.5C48.7,24.1,48.8,22.1,48.7,20.1z M14.8,49.7 M40.9,49.5c-1.7,0-3.4,0-5.1-0.1 M47.7,39.6c-0.2,2,0,4-0.1,6
			 M48.4,9c-0.2,1.9-0.5,3.7-0.5,5.6c0,2.2,0.3,4.3,0.4,6.4 M43.1,2.8 M19.1,2.9 M1.9,5.2c0-0.1,0-0.3,0-0.4 M1.9,8.9
			c0-0.3,0-0.5,0-0.8c0,0,0.1-0.1,0.1-0.1 M2,36.6 M3.9,48.9"/>
		<path fill="#443323" d="M7.8,4.7C7.3,3.8,5.7,3,5,4.2C4.2,4.8,3.8,5.9,3.9,6.9C4.2,8.6,6,8.8,7.3,8.1C8.5,7.4,8.4,5.7,7.8,4.7z
			 M7.2,7.7c-1,0.8-2.6,0.5-3-0.8C3.9,5.6,4.8,4.3,6,4.1c0,0,0.1,0,0.1-0.1c0.1,0,0.2,0,0.3,0c0.5,0.1,0.8,0.5,1.1,0.8
			C8.1,5.7,8.1,7,7.2,7.7z"/>
		<path fill="#443323" d="M6.6,5.4c-0.3-0.5-1.1-0.5-1.3,0c0,0,0,0,0,0C5.1,5.6,5,5.9,5,6.2C5.1,6.8,5.7,7,6.2,6.8
			C6.7,6.5,7,5.9,6.6,5.4z M6,6.5C5.7,6.6,5.3,6.4,5.3,6c0.1-0.3,0.4-0.4,0.6-0.6c0.2,0,0.3,0.1,0.4,0.2C6.5,6,6.3,6.3,6,6.5z"/>
		<path fill="#443323" d="M47.2,5.6c-0.4-1.2-1.9-2-3-1.5c-2.1,0.5-1.8,4.5,0.8,4.4C46.5,8.5,47.6,7.1,47.2,5.6z M44.8,8.1
			c-1.9,0.1-2.2-2.6-0.9-3.5c1.2-0.2,2.2-0.2,2.8,1C47.3,6.9,46.1,8.1,44.8,8.1z"/>
		<path fill="#443323" d="M46.1,5.4C45.8,5.1,45.4,5,45,5.1c-0.4,0.2-0.7,0.5-1,0.9c0,0.1,0,0.1,0.1,0.1c0,0,0.1-0.1,0.1-0.1
			c0,0.1-0.1,0.3,0,0.4c0.1,0.7,0.8,1.1,1.4,0.8C46.3,7,46.6,6,46.1,5.4z M45.4,6.9c-0.4,0.3-0.8-0.1-0.9-0.5
			c-0.1-0.3,0-0.5,0.2-0.7c0,0,0,0,0,0c0.3-0.2,0.5-0.4,0.8-0.2C46.1,5.8,45.8,6.7,45.4,6.9z"/>
		<path fill="#443323" d="M46,43.9c-0.5-1-2.4-2.2-3.2-1c0,0,0,0.1,0,0.1c-1,0.7-1.5,1.8-1.2,3c0.4,1.6,2.5,2.1,3.8,1.3
			C46.5,46.7,46.5,45,46,43.9z M45.3,46.8c-1,0.9-3,0.3-3.4-0.8c-0.5-1.2,0.5-2.5,1.6-3.1C45.3,42.4,46.7,45.5,45.3,46.8z"/>
		<path fill="#443323" d="M44.4,44.2c-0.3-0.4-1.3-0.4-1.4,0.2c0,0,0,0,0,0c0,0,0,0.1-0.1,0.1c-0.3,0.4-0.3,0.9,0,1.3
			c0.4,0.5,1.3,0.7,1.6,0C44.9,45.4,44.8,44.6,44.4,44.2z M44.4,45.5C44.3,46,44,46,43.6,45.8c-0.4-0.2-0.6-0.5-0.5-0.9
			c0.1-0.3,0.3-0.6,0.6-0.7c0.1,0,0.2,0,0.3,0.2C44.4,44.7,44.4,45.2,44.4,45.5z"/>
		<path fill="#443323" d="M8.7,44.8c-0.2-1.2-1.6-2.6-2.8-2c-2.1,0.2-2.6,4.9,0.3,5C7.9,47.8,9,46.4,8.7,44.8z M6.2,47.3
			c-2.2,0-2.1-3.3-0.7-4.1c0,0,0,0,0,0c0.6,0,1.1-0.2,1.7,0.1c0.6,0.3,0.9,0.9,1,1.4C8.7,46.2,7.6,47.3,6.2,47.3z"/>
		<path fill="#443323" d="M7.3,44.6c-0.1-0.2-0.3-0.4-0.6-0.5c-0.2,0-0.5,0-0.7,0.1c-0.4,0.2-0.6,0.7-0.5,1.1c0.1,0.7,0.7,1,1.3,0.7
			C7.3,45.8,7.5,45.1,7.3,44.6z M6.7,45.6c-0.3,0.3-0.8,0-0.8-0.3c0-0.2,0-0.4,0.1-0.5c0-0.1,0.1-0.1,0.2-0.2c0.3,0,0.5-0.2,0.7,0.1
			C7,45,6.9,45.4,6.7,45.6z"/>
	</g>
	<g>
		<path fill-rule="evenodd" clip-rule="evenodd" fill="#443323" d="M24.8,30.4c0.2-0.5,0.3-1,0.4-1.5c0-0.1,0-0.3,0-0.4
			c-0.2-1.2-0.3-2.4-0.7-3.6c-0.5-1.7-1.4-3.2-2.4-4.6c-0.9-1.1-1.9-2.1-3.2-2.8c-0.2-0.1-0.4-0.2-0.5-0.1c-0.7,0-1.3,0.2-1.8,0.8
			c-0.2,0.2-0.3,0.4-0.3,0.6c0,0.2-0.1,0.5,0,0.7c0.1,1,0.3,2,1.1,2.6c0.3,0.3,0.6,0.6,0.9,0.8c0.4,0.3,0.7,0.8,0.9,1.2
			c0.4,1,0.6,2,0.6,3c0,0.7,0.1,1.3,0.2,1.9c0.2,0.9,0.7,1.6,1.6,2c0.5,0.2,1,0.3,1.5,0.1c0.4-0.2,0.8-0.3,1.2-0.5
			C24.6,30.7,24.7,30.5,24.8,30.4z M23.7,30.4c-0.1,0-0.2,0.1-0.3,0.1c-1,0.6-1.8,0.2-2.4-0.7c-0.2-0.3-0.3-0.7-0.4-1
			c-0.1-0.4-0.2-0.8-0.1-1.1c0.1-0.9-0.2-1.8-0.3-2.6c-0.2-1-0.6-1.9-1.5-2.5c-0.2-0.2-0.4-0.4-0.6-0.6c-0.8-0.5-1-1.3-1.1-2.2
			c0-0.2,0-0.5,0-0.7c0.1-0.6,0.4-0.9,1-1c0.4-0.1,0.8,0,1.2,0.3c0.8,0.5,1.3,1,2.1,2c0,0.4-0.4,0.5-0.5,0.8
			c-0.2,0.3-0.5,0.5-0.7,0.7c0,0,0,0.2,0,0.2c0.1,0.1,0.2,0.1,0.2,0.1c0.2-0.2,0.5-0.3,0.7-0.5c0.2-0.2,0.3-0.4,0.4-0.5
			c0.1-0.1,0.3-0.1,0.4-0.1c0.2,0.1,0.2,0.3,0.1,0.5c-0.2,0.4-0.4,0.7-0.8,0.9c-0.1,0.1-0.2,0.1-0.3,0.3c0,0,0,0.2,0.1,0.2
			c0,0,0.1,0.1,0.1,0c0.3-0.2,0.6-0.3,0.8-0.5c0.2-0.1,0.3-0.3,0.5-0.5c0.6,0.2,0.7,0.7,0.8,1.2c0,0,0.1,0,0.1,0.1
			c0.1,0.2,0.2,0.5,0.3,0.7c-0.4,0.6-1,0.9-1.7,0.8c0,0-0.1,0.1-0.1,0.1c0,0.1,0.1,0.2,0.1,0.2c0.2,0.1,0.3,0.2,0.5,0.1
			c0.3-0.1,0.5-0.2,0.8-0.3c0.2-0.1,0.3-0.1,0.6-0.2c0.5,1.2,0.7,2.4,0.8,3.6c0,0.4-0.1,0.7-0.1,1.1C24.4,29.9,24.1,30.2,23.7,30.4z
			"/>
		<path fill-rule="evenodd" clip-rule="evenodd" fill="#443323" d="M36.8,21c-0.3-0.6-0.7-1-1.3-1.3c-0.4-0.2-0.8-0.4-1.3-0.6
			c-0.1-0.1-0.3-0.1-0.4-0.1c-0.7,0-1.4-0.3-2.1,0C31.5,19,31.2,19,30.9,19c-0.3,0.3-0.6,0.5-0.9,0.7c-0.2,0.2-0.5,0.4-0.7,0.7
			c-0.5,0.8-1,1.7-1.1,2.7c-0.1,0.8,0,1.6,0.2,2.4c0.2,0.5,0.4,0.8,0.8,1.2c0.4,0.3,0.8,0.6,1.3,0.8c1.2,0.4,2.4,0.3,3.6,0.2
			c0.2,0,0.5-0.1,0.7-0.2c1.8-0.8,2.8-2.3,2.6-4.4C37.5,22.3,37.1,21.6,36.8,21z M36.3,25.8c-0.1,0.2-0.2,0.3-0.4,0.4
			c-0.1,0.1-0.3,0.2-0.5,0.3c-0.8,0.5-1.6,0.8-2.5,0.7c-1,0.1-2-0.2-2.9-0.6c-0.4-0.2-0.7-0.6-0.9-1c-0.5-1.1-0.4-2.2,0-3.3
			c0.2-0.5,0.4-0.9,0.7-1.4c0.5-0.9,1.3-1.3,2.3-1.4c1.3-0.2,2.3,0.3,3.3,0.9c0.2,0.1,0.4,0.3,0.5,0.5c0.4,0.6,0.7,1.2,0.9,1.9
			C37.2,23.9,36.9,24.8,36.3,25.8z"/>
		<path fill-rule="evenodd" clip-rule="evenodd" fill="#443323" d="M14.5,23.1c0.1-0.1,0.2-0.3,0.3-0.5c0.4-1.1-0.2-1.9-1.3-1.9
			c0,0-0.1,0-0.2,0c-0.4-0.1-0.8,0-1.2,0.3c-0.1,0.1-0.2,0.3-0.3,0.4c-0.1,0.1-0.1,0.3-0.1,0.4c-0.1,0.6,0.2,1.1,0.6,1.4
			C12.9,23.6,14.2,23.5,14.5,23.1z M12.3,22.4c-0.1-0.3,0-0.6,0.1-0.8c0-0.1,0.1-0.1,0.2-0.2c0.3-0.1,0.5-0.2,0.8-0.2
			c0.4-0.1,0.7,0.2,0.8,0.6c0.1,0.6-0.2,1-0.8,1.1c-0.1,0-0.3,0-0.4,0C12.8,22.9,12.4,22.7,12.3,22.4z"/>
		<path fill-rule="evenodd" clip-rule="evenodd" fill="#443323" d="M25.3,35.9c-0.5,0-0.9,0.4-1,0.9c0,0.2,0,0.4-0.1,0.6
			c0,0.2,0.1,0.3,0.1,0.5c0.2,0.6,1.1,0.9,1.7,0.6c0.4-0.3,0.9-0.6,1.1-1c0.1-0.3,0.1-0.6-0.1-0.8C26.6,36.1,26,35.9,25.3,35.9z
			 M25.5,38c-0.1,0-0.3,0-0.4-0.1c-0.1,0-0.1-0.1-0.2-0.2c-0.3-0.5,0.1-1.2,0.7-1.3c0.3,0,0.8,0.3,0.9,0.6c0,0,0,0.1,0,0.2
			C26.3,37.5,26,37.9,25.5,38z"/>
		<path fill-rule="evenodd" clip-rule="evenodd" fill="#443323" d="M15.4,27.3c0.3-0.2,0.5-0.6,0.4-1.2c0-0.1,0-0.4-0.2-0.6
			c-0.4-0.6-1.1-0.7-1.8-0.6c0,0-0.1,0-0.1,0c-0.9,0.4-1.2,1.4-0.7,2.1c0.1,0.1,0.2,0.2,0.3,0.3c0.4,0.5,1,0.6,1.5,0.4
			C15,27.6,15.2,27.4,15.4,27.3z M14,27.2c-0.1,0-0.3-0.1-0.4-0.2c-0.3-0.4-0.3-0.9,0-1.3c0.3-0.3,0.6-0.3,0.9-0.2
			c0.3,0.1,0.5,0.2,0.6,0.6c0.1,0.3,0.1,0.7-0.3,0.9C14.7,27.1,14.4,27.2,14,27.2z"/>
		<path fill-rule="evenodd" clip-rule="evenodd" fill="#443323" d="M18.5,30.8c-0.3-0.2-0.7-0.2-1,0.1c-0.1,0.1-0.2,0.3-0.4,0.4
			c-0.4,0.4-0.5,0.9-0.3,1.4c0.3,0.7,1,1,1.6,0.6c0.3-0.2,0.6-0.4,0.9-0.7c0.1-0.1,0.2-0.3,0.2-0.5c-0.1-0.2-0.1-0.4-0.2-0.6
			C19.2,31.4,18.9,31.1,18.5,30.8z M18.7,32.6c-0.2,0.1-0.4,0.3-0.6,0.4c-0.2,0.1-0.5,0-0.6-0.2c-0.1-0.2-0.1-0.4-0.1-0.5
			c0-0.2,0.1-0.4,0.3-0.5c0.2-0.1,0.5-0.2,0.8-0.3c0.1,0.1,0.2,0.2,0.3,0.3C18.9,32.1,18.9,32.4,18.7,32.6z"/>
		<path fill-rule="evenodd" clip-rule="evenodd" fill="#443323" d="M30.3,32.9c-0.2-0.1-0.4-0.1-0.4-0.1c-1,0-1.6,0.4-1.9,1.3
			c0,0.2,0,0.4,0,0.5c0.4,0.6,1,1,1.8,0.7c0.6-0.2,0.9-0.6,1-1.2c0-0.1,0-0.2,0-0.3C30.9,33.4,30.7,33.1,30.3,32.9z M29.4,34.8
			c-0.2,0-0.5,0-0.6-0.2c-0.1-0.2-0.2-0.3-0.1-0.5c0.1-0.3,0.3-0.6,0.7-0.6c0.2,0,0.4-0.1,0.6-0.1c0.1,0.1,0.2,0.2,0.2,0.3
			C30.2,34.3,29.9,34.7,29.4,34.8z"/>
		<path fill-rule="evenodd" clip-rule="evenodd" fill="#443323" d="M16.6,28.9c-0.2-0.1-0.4-0.2-0.6-0.3c-0.8-0.4-1-0.4-1.4,0.5
			c-0.1,0.3-0.2,0.5-0.2,0.8c0,0.4,0.3,0.8,0.7,1c0.2,0.1,0.4,0.1,0.5,0.1c0.3-0.1,0.5-0.1,0.7-0.2c0.4-0.2,0.6-0.4,0.7-0.8
			C17,29.5,16.9,29.2,16.6,28.9z M15.6,30.3c-0.3,0-0.6-0.2-0.6-0.4C15,29.4,15.2,29,15.6,29c0.4,0,0.8,0.3,0.8,0.6
			C16.4,30,16.1,30.3,15.6,30.3z"/>
		<path fill-rule="evenodd" clip-rule="evenodd" fill="#443323" d="M33.8,30.3c-0.1-0.1-0.3-0.2-0.4-0.3c-0.5,0.1-0.9,0.1-1.3,0.3
			c-0.2,0-0.3,0.2-0.4,0.4c-0.3,1.1-0.3,1.4,0.8,1.8c0.3,0.1,0.5,0.1,0.8,0c0.1-0.1,0.2-0.1,0.4-0.2c0.4-0.2,0.6-0.9,0.5-1.2
			C34.1,30.8,33.9,30.5,33.8,30.3z M32.7,32c-0.3,0-0.4-0.2-0.5-0.4c-0.1-0.3,0-0.6,0.3-0.7c0.1-0.1,0.2-0.1,0.4-0.2
			c0.4-0.2,0.8,0,0.8,0.5C33.6,31.6,33.2,32,32.7,32z"/>
		<path fill-rule="evenodd" clip-rule="evenodd" fill="#443323" d="M21.5,33.9c-0.4-0.2-0.8-0.2-1.2,0.2c-0.1,0.1-0.2,0.2-0.3,0.3
			c-0.5,0.5-0.2,1.5,0.4,1.6c0.2,0.1,0.4,0.1,0.5,0.2c0.4,0.1,0.7-0.1,0.9-0.5c0.1-0.2,0.1-0.4,0.1-0.5c0-0.3,0-0.5,0-0.6
			C22,34.3,21.8,34.1,21.5,33.9z M21.4,35.3c-0.1,0.2-0.3,0.3-0.6,0.3c-0.3-0.1-0.4-0.3-0.3-0.5c0.1-0.2,0.1-0.3,0.2-0.5
			c0-0.1,0.2-0.1,0.3-0.1c0.1,0.1,0.2,0.1,0.3,0.2C21.5,34.9,21.5,35.1,21.4,35.3z"/>
		<path fill-rule="evenodd" clip-rule="evenodd" fill="#443323" d="M41.8,20.4c-0.1-0.2-0.1-0.5-0.1-0.7c0-0.2,0-0.4-0.1-0.5
			c-0.2-0.6-0.5-1.1-0.8-1.7c-0.1-0.2-0.3-0.4-0.4-0.5c-1.7-1.3-3.6-2.1-5.7-2c-0.3,0-0.7,0.1-1,0c-0.6,0-1.1,0.1-1.7,0.1
			c-0.9,0.1-1.7,0.5-2.5,0.8c-1.2,0.5-2.2,1.2-3,2.2c-0.3,0.4-0.6,0.8-0.9,1.3c-0.1,0.1-0.1,0.2-0.2,0.3c-0.1,0.1-0.2,0.1-0.2,0.1
			c-0.1,0-0.2-0.1-0.2-0.2c-0.5-1.6-1.6-2.9-2.7-4.1c-0.2-0.2-0.4-0.3-0.6-0.4c-0.6-0.3-1.2-0.5-1.8-0.7c-0.5-0.2-1-0.2-1.5-0.3
			c-0.2,0-0.4,0-0.6,0c-0.2,0-0.5,0.1-0.7,0.2c-0.7,0.1-1.3,0.3-1.9,0.5c-0.6,0.2-1.2,0.4-1.8,0.8c-0.1,0.1-0.3,0.1-0.4,0.2
			c-1,0.6-1.9,1.1-2.6,2.1c-0.7,0.9-1.4,1.8-1.5,3c-0.4,1-0.5,2.1-0.4,3.4c-0.1,0.6,0.1,1.5,0.3,2.3c0.1,0.4,0.2,0.7,0.4,1
			c0.4,0.6,0.8,1.2,1.3,1.8c0.2,0.3,0.5,0.6,0.6,0.9c0.2,0.4,0.4,0.8,0.8,1.1c0.5,0.4,1,0.8,1.5,1.2c0.2,0.2,0.5,0.3,0.6,0.5
			c0.7,0.8,1.5,1.4,2.3,2.1c0.5,0.4,1.1,0.8,1.5,1.2c0.5,0.5,1,1,1.4,1.6c0.1,0.1,0.3,0.3,0.4,0.4c0.4,0.5,1,0.9,1.6,1.1
			c1,0.4,2,0.7,3,1.3c0,0,0.1,0,0.1,0.1c0.3,0.2,0.7,0.1,0.9-0.1c0.5-0.4,1.1-0.8,1.5-1.3c1.5-1.4,3.1-2.6,4.7-3.8
			c1.3-1,2.7-1.9,3.9-3c1.2-1,2.4-2.1,3.7-3.1c0.6-0.5,1.1-1.1,1.4-1.7c0.4-0.8,0.7-1.6,1-2.5c0.4-1.1,0.4-2.3,0.5-3.5
			C42,21.6,42,21,41.8,20.4z M41,22.3c0.2,0,0.3,0.2,0.3,0.4c0,0,0,0.1,0,0.1c0,0.1,0,0.2,0,0.3c0,0.4-0.2,0.6-0.6,0.6
			c-0.4,0-0.8,0-1.1,0c0,0-0.1,0.1-0.1,0.1c0,0,0.1,0.1,0.1,0.1c0.1,0,0.3,0,0.4,0c0.2,0,0.5,0,0.7,0c0.4,0,0.6,0.3,0.5,0.7
			c-0.1,0.2-0.1,0.5-0.2,0.7c-0.2,0.6-0.4,0.7-0.9,0.4c-0.2-0.1-0.5-0.3-0.7-0.4c0,0-0.1,0-0.1,0c0,0.1-0.1,0.2,0,0.2
			c0.1,0.1,0.2,0.2,0.3,0.3c0.2,0.2,0.5,0.3,0.7,0.4c0.1,0.1,0.2,0.4,0.1,0.5c-0.1,0.2-0.2,0.3-0.2,0.5c-0.1,0.3-0.4,0.3-0.7,0.2
			c-0.2-0.1-0.3-0.2-0.5-0.3c-0.1-0.1-0.2-0.2-0.3-0.3c-0.1,0-0.2,0-0.2,0c0,0-0.1,0.2-0.1,0.2c0.1,0.2,0.3,0.4,0.5,0.5
			c0.3,0.2,0.6,0.3,0.8,0.5c-0.1,0.5-0.5,0.8-0.8,1.2c-0.2,0.2-0.4,0.2-0.6,0c-0.2-0.2-0.5-0.4-0.7-0.7c0,0-0.2,0-0.2,0.1
			c0,0,0,0.1,0,0.1c0.1,0.4,0.5,0.6,0.7,0.8c0.1,0.2,0.1,0.4,0,0.5c-0.3,0.2-0.5,0.4-0.8,0.6c-0.2,0.1-0.4,0.1-0.5,0
			c-0.2-0.2-0.4-0.4-0.6-0.6c-0.2-0.1-0.4-0.2-0.3,0c0,0.1,0,0.2,0.1,0.2c0.3,0.3,0.6,0.6,0.9,0.9c-0.2,0.2-0.4,0.4-0.6,0.6
			c-0.7,0.6-1.4,1.1-2.1,1.7c-0.6,0.4-1.1,0.9-1.7,1.3c-1.3,0.9-2.5,1.9-3.7,2.8c-1,0.7-1.9,1.6-2.8,2.4c-0.2,0.2-0.5,0.4-0.8,0.6
			c-0.4-0.2-0.8-0.4-1.1-0.6c-0.3-0.1-0.7-0.2-1.1-0.3c-0.5-0.2-0.9-0.4-1.4-0.6c-0.4-0.2-0.7-0.4-1-0.7c-0.6-0.6-1.2-1.3-1.9-1.9
			c-0.2-0.2-0.5-0.5-0.7-0.6c-1-0.6-1.9-1.4-2.7-2.2c-0.6-0.5-1.2-1.1-1.8-1.6c-0.2-0.1-0.3-0.2-0.4-0.4c-0.1-0.1-0.1-0.2,0-0.4
			c0.2-0.4,0.2-0.4-0.3-0.4c0,0-0.1,0-0.1,0c-0.3,0-0.5,0-0.6-0.3c-0.2-0.3-0.4-0.6-0.4-1.1c0.2-0.2,0.4-0.5,0.6-0.7
			c-0.4-0.2-0.7,0.3-1.3,0.1c-0.3-0.4-0.8-0.9-1.1-1.5c-0.1-0.2,0-0.4,0.2-0.5c0.3-0.2,0.7-0.3,1-0.5c-0.4-0.2-0.7,0-1,0
			c-0.3,0-0.5-0.2-0.6-0.5C9.1,25.7,9,25.3,9,25c0-0.4,0.1-0.6,0.5-0.6c0.3,0,0.7,0.1,0.9-0.2c-0.3-0.2-0.6-0.1-1-0.2
			C9.1,23.9,9,23.7,9,23.3c0-0.5,0.1-0.9,0.2-1.4c0-0.3,0.2-0.4,0.6-0.4c0.2,0,0.5,0,0.7,0c0-0.2-0.1-0.3-0.2-0.3
			c-0.1,0-0.2-0.1-0.3-0.1c-0.4-0.2-0.5-0.4-0.4-0.9c0.1-0.4,0.3-0.8,0.6-1.1c0.1-0.1,0.4-0.2,0.5-0.1c0.3,0.2,0.7,0.4,1,0.5
			c0.1,0,0.2,0,0.3-0.1c-0.3-0.3-0.6-0.5-0.9-0.8c-0.1-0.1-0.2-0.4-0.1-0.5c0.2-0.3,0.5-0.6,0.7-0.9c0.2-0.2,0.5-0.2,0.7,0
			c0.3,0.3,0.5,0.6,0.8,0.8c0,0,0.1,0,0.1,0c0.1,0,0.1-0.1,0.1-0.2c-0.2-0.3-0.4-0.6-0.6-1c-0.1-0.2,0-0.4,0.1-0.5
			c0.1-0.1,0.2-0.2,0.4-0.2c0.9-0.5,0.9-0.5,1.4,0.4c0,0.1,0.1,0.1,0.2,0.2c0,0,0.1,0,0.1,0c0,0,0.1-0.1,0.1-0.1
			c-0.1-0.3-0.1-0.6-0.2-1c0.1-0.1,0.2-0.3,0.4-0.3c0.8-0.4,1.7-0.4,2.6-0.6c0.2,0,0.4,0,0.6,0.1c0.6,0.2,1.3,0.2,1.9,0.6
			c0.1,0.1,0.3,0.1,0.4,0.1c0.4,0,0.6,0.2,0.9,0.4c0.3,0.3,0.7,0.6,1,1c0.7,1,1.5,2,1.7,3.2c0,0.3,0.1,0.6,0.3,0.8
			c0.1,0.1,0.4,0.2,0.5,0c0.3-0.4,0.6-0.9,0.9-1.3c0.7-1,1.5-2,2.5-2.6c0.4-0.3,0.6-0.2,1,0.2c0.1,0.1,0.2,0.3,0.3,0.4
			c0,0,0.1,0,0.1,0c0.1,0,0.2-0.1,0.2-0.2c0-0.1-0.1-0.3-0.1-0.4c-0.1-0.2-0.2-0.3-0.3-0.5c0,0,0-0.1,0-0.2c0.2-0.1,0.4-0.2,0.6-0.3
			c0.6-0.2,1-0.2,1,0.6c0,0.1,0,0.2,0,0.3c0,0.1,0.1,0.3,0.3,0.3c0.1,0,0.2-0.1,0.2-0.3c0-0.3-0.1-0.6-0.1-0.8
			c0-0.4,0.2-0.6,0.6-0.6c0.1,0,0.2,0,0.3,0c0.2,0,0.4,0.2,0.4,0.4c0,0.3,0,0.6,0,0.8c0,0.1,0,0.3,0.1,0.5c0.1-0.1,0.3-0.1,0.3-0.2
			c0.1-0.2,0.1-0.4,0.1-0.6c0.1-0.9,0.1-0.9,1.1-0.9c0.4,0,0.7,0.3,0.6,0.7c0,0.3-0.1,0.5-0.2,0.8c0,0,0.1,0.1,0.1,0.1
			c0.1,0,0.2,0,0.2-0.1c0.2-0.4,0.3-0.8,0.4-1.2c0.1-0.2,0.3-0.3,0.6-0.3c0.7,0.1,1,0.6,0.8,1.2c-0.1,0.3-0.3,0.7-0.4,1
			c0,0,0,0.1,0.1,0.1c0,0,0.1,0,0.1,0c0.1-0.1,0.3-0.3,0.3-0.4c0.2-0.4,0.3-0.8,0.5-1.2c0-0.1,0.2-0.1,0.2-0.1
			c0.2,0,0.4,0.1,0.5,0.2c0.4,0.2,0.6,0.5,0.4,0.9c-0.1,0.4-0.3,0.9-0.5,1.3c0,0.1,0,0.2,0.1,0.2c0.1,0,0.2,0,0.3,0
			c0.1,0,0.1-0.1,0.2-0.2c0.2-0.3,0.3-0.7,0.5-1c0-0.1,0.1-0.2,0.1-0.2c0.1-0.1,0.3-0.1,0.4,0c0.5,0.5,0.6,1.1,0.9,1.7
			c0,0.3-0.2,0.6-0.4,0.8c-0.2,0.1-0.4,0.2-0.6,0.3c-0.3,0.1-0.6,0.2-1,0.4c-0.2,0-0.2,0.3,0,0.3c0.3,0,0.6-0.1,0.8-0.2
			c0.2-0.1,0.4-0.2,0.5-0.3c0.2-0.1,0.3-0.1,0.5-0.2c0,0,0.1,0,0.1,0c0.1,0,0.2,0.1,0.3,0.2c0.1,0.1,0.1,0.3,0.1,0.4
			c0.2,0.9,0.1,1.3-1.1,1.3c-0.3,0-0.6-0.1-0.8,0.2C39.9,22.4,40.5,22.2,41,22.3z"/>
		<path fill-rule="evenodd" clip-rule="evenodd" fill="#443323" d="M21.6,27.1c-0.1,0.1-0.1,0.2-0.1,0.2c0,0.2,0,0.4,0,0.5
			c0,0.3,0,0.5,0.1,0.8c0.1,0.3,0.6,0.6,0.9,0.6c0.3-0.1,0.6-0.2,0.9-0.4c0.1-0.1,0.3-0.3,0.3-0.4c0.1-0.5,0-0.9-0.4-1.3
			C22.8,26.6,22,26.6,21.6,27.1z M22.4,28.5c-0.1,0-0.2-0.1-0.2-0.1C22,28.2,22,28,22.1,27.8c0.1-0.3,0.3-0.5,0.6-0.6
			c0.2,0.1,0.3,0.3,0.3,0.6C23,28.1,22.7,28.5,22.4,28.5z"/>
		<path fill-rule="evenodd" clip-rule="evenodd" fill="#443323" d="M19,19.2C19.1,19.2,19.1,19.2,19,19.2C19,19.2,19,19.2,19,19.2z"
			/>
		<path fill-rule="evenodd" clip-rule="evenodd" fill="#443323" d="M19.2,19.2c-0.1,0-0.1,0-0.1,0c-0.3,0-0.4,0-0.6,0
			c-0.5,0-0.8,0.5-0.6,1c0,0.1,0.1,0.3,0.2,0.4c0.2,0.3,0.6,0.5,1,0.4c0.4-0.1,0.8-0.3,0.9-0.8C20.1,19.9,19.8,19.2,19.2,19.2z
			 M19.1,20.3c-0.2,0.1-0.4,0-0.5-0.1c0-0.2,0.3-0.4,0.5-0.4c0.1,0,0.2,0.1,0.2,0.2C19.4,20.2,19.2,20.3,19.1,20.3z"/>
		<path fill-rule="evenodd" clip-rule="evenodd" fill="#443323" d="M23.2,23.2C23.2,23.3,23.2,23.3,23.2,23.2
			C23.2,23.3,23.2,23.3,23.2,23.2C23.2,23.2,23.2,23.2,23.2,23.2C23.2,23.2,23.2,23.2,23.2,23.2z"/>
		<path fill-rule="evenodd" clip-rule="evenodd" fill="#443323" d="M22.4,23.2c-0.3,0.3-0.8,0.2-1.1,0.5c0,0-0.1,0.1,0,0.1
			c0,0.1,0.1,0.2,0.1,0.2c0.1,0,0.3,0,0.4,0c0.5-0.2,0.9-0.5,1.3-0.7C22.9,23.1,22.7,23,22.4,23.2z"/>
		<path fill-rule="evenodd" clip-rule="evenodd" fill="#443323" d="M22.7,26.2c0.4,0.2,0.7,0.1,1-0.2c0,0,0.1-0.1,0.1-0.1
			c-0.1-0.1-0.1-0.1-0.2-0.1C23.2,25.8,22.9,25.9,22.7,26.2z"/>
		<path fill-rule="evenodd" clip-rule="evenodd" fill="#443323" d="M33.2,22.1c0,0-0.1,0-0.1,0c-0.6,0-1.4,0.8-1.4,1.4
			c0,0.4,0.2,0.7,0.5,1c0.3,0.2,0.6,0.3,0.9,0.4c0.1,0,0.3,0,0.4,0c0.7-0.2,0.9-0.8,1-1.4c0-0.1,0-0.3-0.1-0.4
			C34,22.6,33.6,22.3,33.2,22.1z M33.7,23.6c-0.1,0.3-0.3,0.5-0.6,0.6c-0.2-0.1-0.4-0.2-0.6-0.3c-0.2-0.1-0.2-0.3-0.2-0.5
			c0-0.2,0.1-0.4,0.3-0.4c0.2-0.1,0.5-0.1,0.7-0.1C33.7,22.9,33.9,23.3,33.7,23.6z"/>
		<path fill-rule="evenodd" clip-rule="evenodd" fill="#443323" d="M35.2,21.6c0,0-0.1,0-0.1,0c0,0-0.1,0.1-0.1,0.1
			c0.1,0.3,0.3,0.7,0.4,1c0.1,0.3,0.2,0.5,0.2,0.7c0,0.8-0.2,1.3-0.6,2c0,0-0.1,0.1-0.1,0.1c-0.1,0.1,0,0.4,0.1,0.3
			c0.1,0,0.2,0,0.2-0.1c0.9-0.9,1.1-2.7,0.2-4C35.4,21.7,35.3,21.6,35.2,21.6z"/>
		<path fill-rule="evenodd" clip-rule="evenodd" fill="#443323" d="M32.9,26.1c-0.4,0.1-0.9,0.2-1.3,0.1c0-0.1-0.1-0.1-0.1-0.1
			c-0.5-0.1-0.8-0.3-1.1-0.6c0,0,0,0,0,0c-0.1-0.4-0.3-0.7-0.4-1c-0.1-0.2-0.1-0.5-0.1-0.7c0.3-0.8,0.5-1.6,1.2-2.2
			c0.1-0.1,0.2-0.2,0.3-0.3c0,0,0-0.1,0-0.1c-0.1,0-0.2-0.1-0.3-0.1c-0.1,0-0.2,0.1-0.2,0.1c-0.6,0.5-0.9,1-1,1.8
			c-0.4,0.8-0.2,1.5,0.1,2.3c0.1,0.1,0.1,0.3,0.2,0.4c0.1,0.2,0.3,0.4,0.4,0.5c0,0.1,0.1,0.1,0.1,0.1c0.7,0.5,1.5,0.6,2.4,0.3
			c0,0,0.1-0.1,0.1-0.1C33,26.2,33,26.1,32.9,26.1z"/>
		<path fill-rule="evenodd" clip-rule="evenodd" fill="#443323" d="M34,21.1c0,0,0.2-0.1,0.2-0.2c0-0.1-0.1-0.2-0.1-0.2
			c-0.3-0.1-0.7-0.2-1-0.3c-0.1,0-0.2,0-0.2,0.1c0,0-0.1,0.1-0.1,0.1c0,0.1,0,0.2,0,0.2C33.2,20.9,33.6,21,34,21.1z"/>
	</g>
</g>
<g>
	<g>
		<path fill="#443323" d="M51,26.5c0-4.3,0-8.7,0-13c0-3.4,0.2-6.9,0-10.3c-0.1-1.9-0.4-3.3-2.5-3.5c-1.6-0.1-3.2,0.1-4.8,0.1
			c-1.8,0-3.7,0.1-5.5,0.2c-3.5,0.2-7,0.2-10.5,0.1c-3.5-0.1-7,0.1-10.4,0c-3.5-0.1-7,0.2-10.6,0.1c-1.9-0.1-5-0.6-6.3,1.3
			c-0.5,0.8-0.6,1.9-0.5,2.9c-0.1,3.6,0.2,7.2,0,10.8c-0.1,3.9,0,7.7,0.2,11.6c0.3,7.3-0.7,14.6-0.2,21.9c0,0,0,0.1,0,0.1
			c0.1,1.1,0.1,2.1,0.8,2.9c0.9,1,3,0.3,4.1,0.3c4.2-0.1,8.4-0.3,12.6-0.4c4.3-0.1,8.5,0,12.8,0c4.2,0,8.4-0.3,12.6-0.4
			c1.9,0,3.7,0.2,5.6,0.1c0.9,0,1.6-0.3,2-1.2c0.6-1.3,0.2-3.2,0.2-4.5c-0.1-2.2-0.1-4.3,0-6.5C50.7,35,51,30.8,51,26.5z M50.1,42.7
			c0,2.3,0.4,4.8,0,7.1c-0.2,1.2-1.5,1.2-2.5,1.2c-1.3,0-2.6-0.1-3.9-0.1c-5-0.1-10.1,0.4-15.1,0.4c-5.1,0-10.2-0.1-15.4,0.1
			c-2.5,0.1-5,0.2-7.5,0.2c-1.1,0-2.1,0.1-3.2,0.2c-1.6,0.2-2.1-0.8-2.3-2c0,0,0-0.1,0-0.1C0.2,46,0,42.4,0.1,38.7
			c0.2-3.8,0.4-7.6,0.3-11.3c-0.1-3.9-0.4-7.7-0.2-11.6c0.1-3,0.1-5.9-0.1-8.9c0,0,0.1,0,0.1-0.1c0-1.2-0.1-2.3-0.1-3.5
			C0.3,0.9,2,0.5,4.1,0.4c2.1-0.1,4.1,0.1,6.2,0.1c2.2-0.1,4.3-0.2,6.5-0.2c4.1,0.1,8.3,0,12.5,0.1c4.2,0.1,8.3-0.1,12.5-0.3
			c2-0.1,4-0.1,6-0.1c0.9,0,1.9,0,2.5,0.8c0.7,0.9,0.5,2.4,0.5,3.4c0.1,4.3-0.1,8.6-0.1,12.9c0,4.3,0,8.7,0.1,13
			C50.7,34.4,50.1,38.5,50.1,42.7z"/>
		<path fill="none" stroke="#443323" stroke-width="0.5" stroke-miterlimit="10" d="M48.8,20c-0.1-2.2-0.4-4.3-0.3-6.4
			c0-3.6,2.5-10.8-3.1-11.3c-1-0.1-2,0.1-3,0.1c-1.4,0.1-2.8,0-4.1,0c-3.6-0.1-7.1-0.2-10.7-0.2c-6.7,0.1-13.3,0.7-20-0.1
			C5.8,2,3,1.7,2,3.5c0,0,0,0-0.1,0C1.5,4.5,1.6,5.5,1.7,6.5c-0.1,1.7-0.1,3.4,0,5.1c0,0.4,0,0.8,0,1.2c-0.1,3.8,0.2,7.6,0.1,11.4
			c0,3.9-0.1,7.8,0,11.8c0.1,3.5,0,7,0.1,10.5c0,0,0,0.1,0,0.1c0,0.2,0,0.5,0.1,0.8c0,0.2,0,0.3,0,0.5c0,0.1,0.1,0.1,0.1,0.2
			c0.1,0.3,0.3,0.6,0.6,0.8c1.3,0.7,3,0.8,4.5,0.9c4.3,0.4,8.6,0.2,12.9,0.3c4.2,0.1,8.3,0.1,12.5-0.2c3.2-0.3,6.4,0.1,9.7,0
			c1.6,0,4.4-0.1,5.4-1.7c0.6-1,0.6-2.5,0.6-3.6c0.1-2-0.1-4.1,0.1-6.1c0.2-2,0.5-4,0.6-5.9c0.1-2.2,0-4.3,0-6.5
			C48.9,24,49,22,48.8,20z M15,49.5 M41.1,49.4c-1.7,0-3.4,0-5.1-0.1 M47.9,39.4c-0.2,2,0,4-0.1,6 M48.6,8.9
			c-0.2,1.9-0.5,3.7-0.5,5.6c0,2.2,0.3,4.3,0.4,6.4 M43.3,2.7 M19.3,2.8 M2.1,5c0-0.1,0-0.3,0-0.4 M2.1,8.7c0-0.3,0-0.5,0-0.8
			c0,0,0.1-0.1,0.1-0.1 M2.2,36.4 M4.1,48.7"/>
		<path fill="#443323" d="M8,4.5C7.4,3.6,5.8,2.9,5.2,4.1C4.3,4.6,3.9,5.7,4.1,6.8c0.3,1.6,2.1,1.8,3.3,1.1C8.7,7.2,8.6,5.6,8,4.5z
			 M7.4,7.5c-1,0.8-2.6,0.5-3-0.8C4.1,5.5,5,4.1,6.2,3.9c0,0,0.1,0,0.1-0.1c0.1,0,0.2,0,0.3,0C7,3.9,7.4,4.3,7.6,4.7
			C8.2,5.6,8.3,6.8,7.4,7.5z"/>
		<path fill="#443323" d="M6.8,5.3c-0.3-0.5-1.1-0.5-1.3,0c0,0,0,0,0,0C5.3,5.5,5.1,5.8,5.2,6c0.1,0.6,0.7,0.8,1.2,0.6
			C6.9,6.4,7.2,5.8,6.8,5.3z M6.2,6.3C5.9,6.5,5.4,6.2,5.5,5.9c0.1-0.3,0.4-0.4,0.6-0.6c0.2,0,0.3,0.1,0.4,0.2
			C6.7,5.8,6.5,6.2,6.2,6.3z"/>
		<path fill="#443323" d="M47.3,5.5c-0.4-1.2-1.9-2-3-1.5c-2.1,0.5-1.8,4.5,0.8,4.4C46.7,8.3,47.8,7,47.3,5.5z M45,8
			c-1.9,0.1-2.2-2.6-0.9-3.5c1.2-0.2,2.2-0.2,2.8,1C47.5,6.8,46.3,7.9,45,8z"/>
		<path fill="#443323" d="M46.2,5.2c-0.3-0.3-0.7-0.4-1.1-0.3c-0.4,0.2-0.7,0.5-1,0.9c0,0.1,0,0.1,0.1,0.1c0,0,0.1-0.1,0.1-0.1
			c0,0.1-0.1,0.3,0,0.4c0.1,0.7,0.8,1.1,1.4,0.8C46.4,6.8,46.8,5.8,46.2,5.2z M45.6,6.8c-0.4,0.3-0.8-0.1-0.9-0.5
			c-0.1-0.3,0-0.5,0.2-0.7c0,0,0,0,0,0c0.3-0.2,0.5-0.4,0.8-0.2C46.3,5.7,46,6.5,45.6,6.8z"/>
		<path fill="#443323" d="M46.2,43.7c-0.5-1-2.4-2.2-3.2-1c0,0,0,0.1,0,0.1c-1,0.7-1.5,1.8-1.2,3c0.4,1.6,2.5,2.1,3.8,1.3
			C46.7,46.5,46.7,44.8,46.2,43.7z M45.4,46.7c-1,0.9-3,0.3-3.4-0.8c-0.5-1.2,0.5-2.5,1.6-3.1C45.5,42.2,46.8,45.3,45.4,46.7z"/>
		<path fill="#443323" d="M44.6,44.1c-0.3-0.4-1.3-0.4-1.4,0.2c0,0,0,0,0,0c0,0,0,0.1-0.1,0.1c-0.3,0.4-0.3,0.9,0,1.3
			c0.4,0.5,1.3,0.7,1.6,0C45.1,45.2,44.9,44.5,44.6,44.1z M44.5,45.4c-0.1,0.4-0.4,0.5-0.8,0.3c-0.4-0.2-0.6-0.5-0.5-0.9
			c0.1-0.3,0.3-0.6,0.6-0.7c0.1,0,0.2,0,0.3,0.2C44.5,44.6,44.6,45,44.5,45.4z"/>
		<path fill="#443323" d="M8.9,44.6c-0.2-1.2-1.6-2.6-2.8-2c-2.1,0.2-2.6,4.9,0.3,5C8.1,47.7,9.1,46.2,8.9,44.6z M6.4,47.2
			c-2.2,0-2.1-3.3-0.7-4.1c0,0,0,0,0,0c0.6,0,1.1-0.2,1.7,0.1c0.6,0.3,0.9,0.9,1,1.4C8.9,46,7.8,47.2,6.4,47.2z"/>
		<path fill="#443323" d="M7.4,44.4c-0.1-0.2-0.3-0.4-0.6-0.5c-0.2,0-0.5,0-0.7,0.1c-0.4,0.2-0.6,0.7-0.5,1.1c0.1,0.7,0.7,1,1.3,0.7
			C7.5,45.6,7.6,44.9,7.4,44.4z M6.9,45.4c-0.3,0.3-0.8,0-0.8-0.3c0-0.2,0-0.4,0.1-0.5c0-0.1,0.1-0.1,0.2-0.2c0.3,0,0.5-0.2,0.7,0.1
			C7.2,44.8,7.1,45.2,6.9,45.4z"/>
	</g>
	<g>
		<path fill-rule="evenodd" clip-rule="evenodd" fill="#443323" d="M25,30.2c0.2-0.5,0.3-1,0.4-1.5c0-0.1,0-0.3,0-0.4
			c-0.2-1.2-0.3-2.4-0.7-3.6c-0.5-1.7-1.4-3.2-2.4-4.6c-0.9-1.1-1.9-2.1-3.2-2.8c-0.2-0.1-0.4-0.2-0.5-0.1c-0.7,0-1.3,0.2-1.8,0.8
			c-0.2,0.2-0.3,0.4-0.3,0.6c0,0.2-0.1,0.5,0,0.7c0.1,1,0.3,2,1.1,2.6c0.3,0.3,0.6,0.6,0.9,0.8c0.4,0.3,0.7,0.8,0.9,1.2
			c0.4,1,0.6,2,0.6,3c0,0.7,0.1,1.3,0.2,1.9c0.2,0.9,0.7,1.6,1.6,2c0.5,0.2,1,0.3,1.5,0.1c0.4-0.2,0.8-0.3,1.2-0.5
			C24.7,30.5,24.9,30.4,25,30.2z M23.9,30.3c-0.1,0-0.2,0.1-0.3,0.1c-1,0.6-1.8,0.2-2.4-0.7c-0.2-0.3-0.3-0.7-0.4-1
			c-0.1-0.4-0.2-0.8-0.1-1.1c0.1-0.9-0.2-1.8-0.3-2.6c-0.2-1-0.6-1.9-1.5-2.5c-0.2-0.2-0.4-0.4-0.6-0.6c-0.8-0.5-1-1.3-1.1-2.2
			c0-0.2,0-0.5,0-0.7c0.1-0.6,0.4-0.9,1-1c0.4-0.1,0.8,0,1.2,0.3c0.8,0.5,1.3,1,2.1,2c0,0.4-0.4,0.5-0.5,0.8
			c-0.2,0.3-0.5,0.5-0.7,0.7c0,0,0,0.2,0,0.2c0.1,0.1,0.2,0.1,0.2,0.1c0.2-0.2,0.5-0.3,0.7-0.5c0.2-0.2,0.3-0.4,0.4-0.5
			c0.1-0.1,0.3-0.1,0.4-0.1c0.2,0.1,0.2,0.3,0.1,0.5c-0.2,0.4-0.4,0.7-0.8,0.9c-0.1,0.1-0.2,0.1-0.3,0.3c0,0,0,0.2,0.1,0.2
			c0,0,0.1,0.1,0.1,0c0.3-0.2,0.6-0.3,0.8-0.5c0.2-0.1,0.3-0.3,0.5-0.5c0.6,0.2,0.7,0.7,0.8,1.2c0,0,0.1,0,0.1,0.1
			c0.1,0.2,0.2,0.5,0.3,0.7c-0.4,0.6-1,0.9-1.7,0.8c0,0-0.1,0.1-0.1,0.1c0,0.1,0.1,0.2,0.1,0.2c0.2,0.1,0.3,0.2,0.5,0.1
			c0.3-0.1,0.5-0.2,0.8-0.3c0.2-0.1,0.3-0.1,0.6-0.2c0.5,1.2,0.7,2.4,0.8,3.6c0,0.4-0.1,0.7-0.1,1.1C24.5,29.7,24.3,30.1,23.9,30.3z
			"/>
		<path fill-rule="evenodd" clip-rule="evenodd" fill="#443323" d="M36.9,20.8c-0.3-0.6-0.7-1-1.3-1.3c-0.4-0.2-0.8-0.4-1.3-0.6
			c-0.1-0.1-0.3-0.1-0.4-0.1c-0.7,0-1.4-0.3-2.1,0c-0.3,0.1-0.6,0.1-0.8,0.1c-0.3,0.3-0.6,0.5-0.9,0.7c-0.2,0.2-0.5,0.4-0.7,0.7
			c-0.5,0.8-1,1.7-1.1,2.7c-0.1,0.8,0,1.6,0.2,2.4c0.2,0.5,0.4,0.8,0.8,1.2c0.4,0.3,0.8,0.6,1.3,0.8c1.2,0.4,2.4,0.3,3.6,0.2
			c0.2,0,0.5-0.1,0.7-0.2c1.8-0.8,2.8-2.3,2.6-4.4C37.7,22.1,37.3,21.5,36.9,20.8z M36.5,25.6c-0.1,0.2-0.2,0.3-0.4,0.4
			c-0.1,0.1-0.3,0.2-0.5,0.3c-0.8,0.5-1.6,0.8-2.5,0.7c-1,0.1-2-0.2-2.9-0.6c-0.4-0.2-0.7-0.6-0.9-1c-0.5-1.1-0.4-2.2,0-3.3
			c0.2-0.5,0.4-0.9,0.7-1.4c0.5-0.9,1.3-1.3,2.3-1.4c1.3-0.2,2.3,0.3,3.3,0.9c0.2,0.1,0.4,0.3,0.5,0.5c0.4,0.6,0.7,1.2,0.9,1.9
			C37.3,23.7,37.1,24.7,36.5,25.6z"/>
		<path fill-rule="evenodd" clip-rule="evenodd" fill="#443323" d="M14.7,22.9c0.1-0.1,0.2-0.3,0.3-0.5c0.4-1.1-0.2-1.9-1.3-1.9
			c0,0-0.1,0-0.2,0c-0.4-0.1-0.8,0-1.2,0.3c-0.1,0.1-0.2,0.3-0.3,0.4c-0.1,0.1-0.1,0.3-0.1,0.4c-0.1,0.6,0.2,1.1,0.6,1.4
			C13.1,23.5,14.3,23.3,14.7,22.9z M12.5,22.2c-0.1-0.3,0-0.6,0.1-0.8c0-0.1,0.1-0.1,0.2-0.2c0.3-0.1,0.5-0.2,0.8-0.2
			c0.4-0.1,0.7,0.2,0.8,0.6c0.1,0.6-0.2,1-0.8,1.1c-0.1,0-0.3,0-0.4,0C13,22.8,12.6,22.5,12.5,22.2z"/>
		<path fill-rule="evenodd" clip-rule="evenodd" fill="#443323" d="M25.5,35.8c-0.5,0-0.9,0.4-1,0.9c0,0.2,0,0.4-0.1,0.6
			c0,0.2,0.1,0.3,0.1,0.5c0.2,0.6,1.1,0.9,1.7,0.6c0.4-0.3,0.9-0.6,1.1-1c0.1-0.3,0.1-0.6-0.1-0.8C26.7,36,26.2,35.7,25.5,35.8z
			 M25.7,37.8c-0.1,0-0.3,0-0.4-0.1c-0.1,0-0.1-0.1-0.2-0.2c-0.3-0.5,0.1-1.2,0.7-1.3c0.3,0,0.8,0.3,0.9,0.6c0,0,0,0.1,0,0.2
			C26.5,37.4,26.2,37.7,25.7,37.8z"/>
		<path fill-rule="evenodd" clip-rule="evenodd" fill="#443323" d="M15.5,27.2c0.3-0.2,0.5-0.6,0.4-1.2c0-0.1,0-0.4-0.2-0.6
			c-0.4-0.6-1.1-0.7-1.8-0.6c0,0-0.1,0-0.1,0c-0.9,0.4-1.2,1.4-0.7,2.1c0.1,0.1,0.2,0.2,0.3,0.3c0.4,0.5,1,0.6,1.5,0.4
			C15.2,27.4,15.4,27.3,15.5,27.2z M14.2,27.1c-0.1,0-0.3-0.1-0.4-0.2c-0.3-0.4-0.3-0.9,0-1.3c0.3-0.3,0.6-0.3,0.9-0.2
			c0.3,0.1,0.5,0.2,0.6,0.6c0.1,0.3,0.1,0.7-0.3,0.9C14.8,26.9,14.6,27.1,14.2,27.1z"/>
		<path fill-rule="evenodd" clip-rule="evenodd" fill="#443323" d="M18.7,30.7c-0.3-0.2-0.7-0.2-1,0.1c-0.1,0.1-0.2,0.3-0.4,0.4
			c-0.4,0.4-0.5,0.9-0.3,1.4c0.3,0.7,1,1,1.6,0.6c0.3-0.2,0.6-0.4,0.9-0.7c0.1-0.1,0.2-0.3,0.2-0.5c-0.1-0.2-0.1-0.4-0.2-0.6
			C19.3,31.2,19,30.9,18.7,30.7z M18.9,32.4c-0.2,0.1-0.4,0.3-0.6,0.4c-0.2,0.1-0.5,0-0.6-0.2c-0.1-0.2-0.1-0.4-0.1-0.5
			c0-0.2,0.1-0.4,0.3-0.5c0.2-0.1,0.5-0.2,0.8-0.3c0.1,0.1,0.2,0.2,0.3,0.3C19.1,32,19.1,32.2,18.9,32.4z"/>
		<path fill-rule="evenodd" clip-rule="evenodd" fill="#443323" d="M30.5,32.8c-0.2-0.1-0.4-0.1-0.4-0.1c-1,0-1.6,0.4-1.9,1.3
			c0,0.2,0,0.4,0,0.5c0.4,0.6,1,1,1.8,0.7c0.6-0.2,0.9-0.6,1-1.2c0-0.1,0-0.2,0-0.3C31,33.2,30.9,32.9,30.5,32.8z M29.6,34.7
			c-0.2,0-0.5,0-0.6-0.2c-0.1-0.2-0.2-0.3-0.1-0.5c0.1-0.3,0.3-0.6,0.7-0.6c0.2,0,0.4-0.1,0.6-0.1c0.1,0.1,0.2,0.2,0.2,0.3
			C30.4,34.1,30.1,34.5,29.6,34.7z"/>
		<path fill-rule="evenodd" clip-rule="evenodd" fill="#443323" d="M16.7,28.8c-0.2-0.1-0.4-0.2-0.6-0.3c-0.8-0.4-1-0.4-1.4,0.5
			c-0.1,0.3-0.2,0.5-0.2,0.8c0,0.4,0.3,0.8,0.7,1c0.2,0.1,0.4,0.1,0.5,0.1c0.3-0.1,0.5-0.1,0.7-0.2c0.4-0.2,0.6-0.4,0.7-0.8
			C17.2,29.4,17.1,29,16.7,28.8z M15.8,30.1c-0.3,0-0.6-0.2-0.6-0.4c-0.1-0.4,0.2-0.8,0.5-0.8c0.4,0,0.8,0.3,0.8,0.6
			C16.6,29.9,16.3,30.1,15.8,30.1z"/>
		<path fill-rule="evenodd" clip-rule="evenodd" fill="#443323" d="M33.9,30.2c-0.1-0.1-0.3-0.2-0.4-0.3C33,30,32.6,30,32.2,30.1
			c-0.2,0-0.3,0.2-0.4,0.4c-0.3,1.1-0.3,1.4,0.8,1.8c0.3,0.1,0.5,0.1,0.8,0c0.1-0.1,0.2-0.1,0.4-0.2c0.4-0.2,0.6-0.9,0.5-1.2
			C34.2,30.6,34.1,30.4,33.9,30.2z M32.9,31.8c-0.3,0-0.4-0.2-0.5-0.4c-0.1-0.3,0-0.6,0.3-0.7c0.1-0.1,0.2-0.1,0.4-0.2
			c0.4-0.2,0.8,0,0.8,0.5C33.8,31.5,33.4,31.9,32.9,31.8z"/>
		<path fill-rule="evenodd" clip-rule="evenodd" fill="#443323" d="M21.7,33.8c-0.4-0.2-0.8-0.2-1.2,0.2c-0.1,0.1-0.2,0.2-0.3,0.3
			c-0.5,0.5-0.2,1.5,0.4,1.6c0.2,0.1,0.4,0.1,0.5,0.2c0.4,0.1,0.7-0.1,0.9-0.5c0.1-0.2,0.1-0.4,0.1-0.5c0-0.3,0-0.5,0-0.6
			C22.2,34.2,22,33.9,21.7,33.8z M21.6,35.2c-0.1,0.2-0.3,0.3-0.6,0.3c-0.3-0.1-0.4-0.3-0.3-0.5c0.1-0.2,0.1-0.3,0.2-0.5
			c0-0.1,0.2-0.1,0.3-0.1c0.1,0.1,0.2,0.1,0.3,0.2C21.7,34.7,21.7,35,21.6,35.2z"/>
		<path fill-rule="evenodd" clip-rule="evenodd" fill="#443323" d="M42,20.3c-0.1-0.2-0.1-0.5-0.1-0.7c0-0.2,0-0.4-0.1-0.5
			c-0.2-0.6-0.5-1.1-0.8-1.7c-0.1-0.2-0.3-0.4-0.4-0.5c-1.7-1.3-3.6-2.1-5.7-2c-0.3,0-0.7,0.1-1,0c-0.6,0-1.1,0.1-1.7,0.1
			c-0.9,0.1-1.7,0.5-2.5,0.8c-1.2,0.5-2.2,1.2-3,2.2c-0.3,0.4-0.6,0.8-0.9,1.3c-0.1,0.1-0.1,0.2-0.2,0.3c-0.1,0.1-0.2,0.1-0.2,0.1
			c-0.1,0-0.2-0.1-0.2-0.2c-0.5-1.6-1.6-2.9-2.7-4.1c-0.2-0.2-0.4-0.3-0.6-0.4c-0.6-0.3-1.2-0.5-1.8-0.7c-0.5-0.2-1-0.2-1.5-0.3
			c-0.2,0-0.4,0-0.6,0c-0.2,0-0.5,0.1-0.7,0.2c-0.7,0.1-1.3,0.3-1.9,0.5c-0.6,0.2-1.2,0.4-1.8,0.8c-0.1,0.1-0.3,0.1-0.4,0.2
			c-1,0.6-1.9,1.1-2.6,2.1c-0.7,0.9-1.4,1.8-1.5,3c-0.4,1-0.5,2.1-0.4,3.4c-0.1,0.6,0.1,1.5,0.3,2.3c0.1,0.4,0.2,0.7,0.4,1
			c0.4,0.6,0.8,1.2,1.3,1.8c0.2,0.3,0.5,0.6,0.6,0.9c0.2,0.4,0.4,0.8,0.8,1.1c0.5,0.4,1,0.8,1.5,1.2c0.2,0.2,0.5,0.3,0.6,0.5
			c0.7,0.8,1.5,1.4,2.3,2.1c0.5,0.4,1.1,0.8,1.5,1.2c0.5,0.5,1,1,1.4,1.6c0.1,0.1,0.3,0.3,0.4,0.4c0.4,0.5,1,0.9,1.6,1.1
			c1,0.4,2,0.7,3,1.3c0,0,0.1,0,0.1,0.1c0.3,0.2,0.7,0.1,0.9-0.1c0.5-0.4,1.1-0.8,1.5-1.3c1.5-1.4,3.1-2.6,4.7-3.8
			c1.3-1,2.7-1.9,3.9-3c1.2-1,2.4-2.1,3.7-3.1c0.6-0.5,1.1-1.1,1.4-1.7c0.4-0.8,0.7-1.6,1-2.5c0.4-1.1,0.4-2.3,0.5-3.5
			C42.2,21.4,42.2,20.8,42,20.3z M41.1,22.2c0.2,0,0.3,0.2,0.3,0.4c0,0,0,0.1,0,0.1c0,0.1,0,0.2,0,0.3c0,0.4-0.2,0.6-0.6,0.6
			c-0.4,0-0.8,0-1.1,0c0,0-0.1,0.1-0.1,0.1c0,0,0.1,0.1,0.1,0.1c0.1,0,0.3,0,0.4,0c0.2,0,0.5,0,0.7,0c0.4,0,0.6,0.3,0.5,0.7
			c-0.1,0.2-0.1,0.5-0.2,0.7c-0.2,0.6-0.4,0.7-0.9,0.4c-0.2-0.1-0.5-0.3-0.7-0.4c0,0-0.1,0-0.1,0c0,0.1-0.1,0.2,0,0.2
			c0.1,0.1,0.2,0.2,0.3,0.3c0.2,0.2,0.5,0.3,0.7,0.4c0.1,0.1,0.2,0.4,0.1,0.5c-0.1,0.2-0.2,0.3-0.2,0.5c-0.1,0.3-0.4,0.3-0.7,0.2
			c-0.2-0.1-0.3-0.2-0.5-0.3c-0.1-0.1-0.2-0.2-0.3-0.3c-0.1,0-0.2,0-0.2,0c0,0-0.1,0.2-0.1,0.2c0.1,0.2,0.3,0.4,0.5,0.5
			c0.3,0.2,0.6,0.3,0.8,0.5c-0.1,0.5-0.5,0.8-0.8,1.2c-0.2,0.2-0.4,0.2-0.6,0c-0.2-0.2-0.5-0.4-0.7-0.7c0,0-0.2,0-0.2,0.1
			c0,0,0,0.1,0,0.1c0.1,0.4,0.5,0.6,0.7,0.8c0.1,0.2,0.1,0.4,0,0.5c-0.3,0.2-0.5,0.4-0.8,0.6c-0.2,0.1-0.4,0.1-0.5,0
			c-0.2-0.2-0.4-0.4-0.6-0.6c-0.2-0.1-0.4-0.2-0.3,0c0,0.1,0,0.2,0.1,0.2c0.3,0.3,0.6,0.6,0.9,0.9c-0.2,0.2-0.4,0.4-0.6,0.6
			c-0.7,0.6-1.4,1.1-2.1,1.7c-0.6,0.4-1.1,0.9-1.7,1.3c-1.3,0.9-2.5,1.9-3.7,2.8c-1,0.7-1.9,1.6-2.8,2.4c-0.2,0.2-0.5,0.4-0.8,0.6
			c-0.4-0.2-0.8-0.4-1.1-0.6c-0.3-0.1-0.7-0.2-1.1-0.3c-0.5-0.2-0.9-0.4-1.4-0.6c-0.4-0.2-0.7-0.4-1-0.7c-0.6-0.6-1.2-1.3-1.9-1.9
			c-0.2-0.2-0.5-0.5-0.7-0.6c-1-0.6-1.9-1.4-2.7-2.2c-0.6-0.5-1.2-1.1-1.8-1.6c-0.2-0.1-0.3-0.2-0.4-0.4c-0.1-0.1-0.1-0.2,0-0.4
			c0.2-0.4,0.2-0.4-0.3-0.4c0,0-0.1,0-0.1,0c-0.3,0-0.5,0-0.6-0.3c-0.2-0.3-0.4-0.6-0.4-1.1c0.2-0.2,0.4-0.5,0.6-0.7
			c-0.4-0.2-0.7,0.3-1.3,0.1c-0.3-0.4-0.8-0.9-1.1-1.5c-0.1-0.2,0-0.4,0.2-0.5c0.3-0.2,0.7-0.3,1-0.5c-0.4-0.2-0.7,0-1,0
			c-0.3,0-0.5-0.2-0.6-0.5c-0.1-0.3-0.1-0.6-0.1-1c0-0.4,0.1-0.6,0.5-0.6c0.3,0,0.7,0.1,0.9-0.2c-0.3-0.2-0.6-0.1-1-0.2
			c-0.4-0.1-0.6-0.3-0.5-0.7c0-0.5,0.1-0.9,0.2-1.4c0-0.3,0.2-0.4,0.6-0.4c0.2,0,0.5,0,0.7,0c0-0.2-0.1-0.3-0.2-0.3
			c-0.1,0-0.2-0.1-0.3-0.1c-0.4-0.2-0.5-0.4-0.4-0.9c0.1-0.4,0.3-0.8,0.6-1.1c0.1-0.1,0.4-0.2,0.5-0.1c0.3,0.2,0.7,0.4,1,0.5
			c0.1,0,0.2,0,0.3-0.1c-0.3-0.3-0.6-0.5-0.9-0.8c-0.1-0.1-0.2-0.4-0.1-0.5c0.2-0.3,0.5-0.6,0.7-0.9c0.2-0.2,0.5-0.2,0.7,0
			c0.3,0.3,0.5,0.6,0.8,0.8c0,0,0.1,0,0.1,0c0.1,0,0.1-0.1,0.1-0.2c-0.2-0.3-0.4-0.6-0.6-1c-0.1-0.2,0-0.4,0.1-0.5
			c0.1-0.1,0.2-0.2,0.4-0.2c0.9-0.5,0.9-0.5,1.4,0.4c0,0.1,0.1,0.1,0.2,0.2c0,0,0.1,0,0.1,0c0,0,0.1-0.1,0.1-0.1
			c-0.1-0.3-0.1-0.6-0.2-1c0.1-0.1,0.2-0.3,0.4-0.3c0.8-0.4,1.7-0.4,2.6-0.6c0.2,0,0.4,0,0.6,0.1c0.6,0.2,1.3,0.2,1.9,0.6
			c0.1,0.1,0.3,0.1,0.4,0.1c0.4,0,0.6,0.2,0.9,0.4c0.3,0.3,0.7,0.6,1,1c0.7,1,1.5,2,1.7,3.2c0,0.3,0.1,0.6,0.3,0.8
			c0.1,0.1,0.4,0.2,0.5,0c0.3-0.4,0.6-0.9,0.9-1.3c0.7-1,1.5-2,2.5-2.6c0.4-0.3,0.6-0.2,1,0.2c0.1,0.1,0.2,0.3,0.3,0.4
			c0,0,0.1,0,0.1,0c0.1,0,0.2-0.1,0.2-0.2c0-0.1-0.1-0.3-0.1-0.4c-0.1-0.2-0.2-0.3-0.3-0.5c0,0,0-0.1,0-0.2c0.2-0.1,0.4-0.2,0.6-0.3
			c0.6-0.2,1-0.2,1,0.6c0,0.1,0,0.2,0,0.3c0,0.1,0.1,0.3,0.3,0.3c0.1,0,0.2-0.1,0.2-0.3c0-0.3-0.1-0.6-0.1-0.8
			c0-0.4,0.2-0.6,0.6-0.6c0.1,0,0.2,0,0.3,0c0.2,0,0.4,0.2,0.4,0.4c0,0.3,0,0.6,0,0.8c0,0.1,0,0.3,0.1,0.5c0.1-0.1,0.3-0.1,0.3-0.2
			c0.1-0.2,0.1-0.4,0.1-0.6c0.1-0.9,0.1-0.9,1.1-0.9c0.4,0,0.7,0.3,0.6,0.7c0,0.3-0.1,0.5-0.2,0.8c0,0,0.1,0.1,0.1,0.1
			c0.1,0,0.2,0,0.2-0.1c0.2-0.4,0.3-0.8,0.4-1.2c0.1-0.2,0.3-0.3,0.6-0.3c0.7,0.1,1,0.6,0.8,1.2c-0.1,0.3-0.3,0.7-0.4,1
			c0,0,0,0.1,0.1,0.1c0,0,0.1,0,0.1,0c0.1-0.1,0.3-0.3,0.3-0.4c0.2-0.4,0.3-0.8,0.5-1.2c0-0.1,0.2-0.1,0.2-0.1
			c0.2,0,0.4,0.1,0.5,0.2c0.4,0.2,0.6,0.5,0.4,0.9c-0.1,0.4-0.3,0.9-0.5,1.3c0,0.1,0,0.2,0.1,0.2c0.1,0,0.2,0,0.3,0
			c0.1,0,0.1-0.1,0.2-0.2c0.2-0.3,0.3-0.7,0.5-1c0-0.1,0.1-0.2,0.1-0.2c0.1-0.1,0.3-0.1,0.4,0c0.5,0.5,0.6,1.1,0.9,1.7
			c0,0.3-0.2,0.6-0.4,0.8c-0.2,0.1-0.4,0.2-0.6,0.3c-0.3,0.1-0.6,0.2-1,0.4c-0.2,0-0.2,0.3,0,0.3c0.3,0,0.6-0.1,0.8-0.2
			c0.2-0.1,0.4-0.2,0.5-0.3c0.2-0.1,0.3-0.1,0.5-0.2c0,0,0.1,0,0.1,0c0.1,0,0.2,0.1,0.3,0.2c0.1,0.1,0.1,0.3,0.1,0.4
			c0.2,0.9,0.1,1.3-1.1,1.3c-0.3,0-0.6-0.1-0.8,0.2C40.1,22.2,40.6,22.1,41.1,22.2z"/>
		<path fill-rule="evenodd" clip-rule="evenodd" fill="#443323" d="M21.8,26.9c-0.1,0.1-0.1,0.2-0.1,0.2c0,0.2,0,0.4,0,0.5
			c0,0.3,0,0.5,0.1,0.8c0.1,0.3,0.6,0.6,0.9,0.6c0.3-0.1,0.6-0.2,0.9-0.4c0.1-0.1,0.3-0.3,0.3-0.4c0.1-0.5,0-0.9-0.4-1.3
			C23,26.5,22.2,26.5,21.8,26.9z M22.6,28.4c-0.1,0-0.2-0.1-0.2-0.1c-0.1-0.2-0.1-0.3-0.1-0.5c0.1-0.3,0.3-0.5,0.6-0.6
			c0.2,0.1,0.3,0.3,0.3,0.6C23.2,28,22.9,28.3,22.6,28.4z"/>
		<path fill-rule="evenodd" clip-rule="evenodd" fill="#443323" d="M19.2,19.1C19.2,19.1,19.2,19.1,19.2,19.1
			C19.2,19.1,19.2,19.1,19.2,19.1z"/>
		<path fill-rule="evenodd" clip-rule="evenodd" fill="#443323" d="M19.3,19.1c-0.1,0-0.1,0-0.1,0c-0.3,0-0.4,0-0.6,0
			c-0.5,0-0.8,0.5-0.6,1c0,0.1,0.1,0.3,0.2,0.4c0.2,0.3,0.6,0.5,1,0.4c0.4-0.1,0.8-0.3,0.9-0.8C20.2,19.7,20,19,19.3,19.1z
			 M19.3,20.2c-0.2,0.1-0.4,0-0.5-0.1c0-0.2,0.3-0.4,0.5-0.4c0.1,0,0.2,0.1,0.2,0.2C19.5,20,19.4,20.1,19.3,20.2z"/>
		<path fill-rule="evenodd" clip-rule="evenodd" fill="#443323" d="M23.3,23.1C23.3,23.1,23.4,23.1,23.3,23.1
			C23.4,23.1,23.4,23.1,23.3,23.1C23.4,23.1,23.4,23.1,23.3,23.1C23.3,23.1,23.3,23.1,23.3,23.1z"/>
		<path fill-rule="evenodd" clip-rule="evenodd" fill="#443323" d="M22.6,23c-0.3,0.3-0.8,0.2-1.1,0.5c0,0-0.1,0.1,0,0.1
			c0,0.1,0.1,0.2,0.1,0.2c0.1,0,0.3,0,0.4,0c0.5-0.2,0.9-0.5,1.3-0.7C23.1,23,22.9,22.8,22.6,23z"/>
		<path fill-rule="evenodd" clip-rule="evenodd" fill="#443323" d="M22.9,26c0.4,0.2,0.7,0.1,1-0.2c0,0,0.1-0.1,0.1-0.1
			c-0.1-0.1-0.1-0.1-0.2-0.1C23.4,25.6,23.1,25.7,22.9,26z"/>
		<path fill-rule="evenodd" clip-rule="evenodd" fill="#443323" d="M33.4,21.9c0,0-0.1,0-0.1,0c-0.6,0-1.4,0.8-1.4,1.4
			c0,0.4,0.2,0.7,0.5,1c0.3,0.2,0.6,0.3,0.9,0.4c0.1,0,0.3,0,0.4,0c0.7-0.2,0.9-0.8,1-1.4c0-0.1,0-0.3-0.1-0.4
			C34.2,22.4,33.8,22.1,33.4,21.9z M33.9,23.5c-0.1,0.3-0.3,0.5-0.6,0.6c-0.2-0.1-0.4-0.2-0.6-0.3c-0.2-0.1-0.2-0.3-0.2-0.5
			c0-0.2,0.1-0.4,0.3-0.4c0.2-0.1,0.5-0.1,0.7-0.1C33.9,22.8,34.1,23.2,33.9,23.5z"/>
		<path fill-rule="evenodd" clip-rule="evenodd" fill="#443323" d="M35.4,21.4c0,0-0.1,0-0.1,0c0,0-0.1,0.1-0.1,0.1
			c0.1,0.3,0.3,0.7,0.4,1c0.1,0.3,0.2,0.5,0.2,0.7c0,0.8-0.2,1.3-0.6,2c0,0-0.1,0.1-0.1,0.1c-0.1,0.1,0,0.4,0.1,0.3
			c0.1,0,0.2,0,0.2-0.1c0.9-0.9,1.1-2.7,0.2-4C35.6,21.5,35.5,21.5,35.4,21.4z"/>
		<path fill-rule="evenodd" clip-rule="evenodd" fill="#443323" d="M33.1,26c-0.4,0.1-0.9,0.2-1.3,0.1c0-0.1-0.1-0.1-0.1-0.1
			c-0.5-0.1-0.8-0.3-1.1-0.6c0,0,0,0,0,0c-0.1-0.4-0.3-0.7-0.4-1c-0.1-0.2-0.1-0.5-0.1-0.7c0.3-0.8,0.5-1.6,1.2-2.2
			c0.1-0.1,0.2-0.2,0.3-0.3c0,0,0-0.1,0-0.1c-0.1,0-0.2-0.1-0.3-0.1c-0.1,0-0.2,0.1-0.2,0.1c-0.6,0.5-0.9,1-1,1.8
			c-0.4,0.8-0.2,1.5,0.1,2.3c0.1,0.1,0.1,0.3,0.2,0.4c0.1,0.2,0.3,0.4,0.4,0.5c0,0.1,0.1,0.1,0.1,0.1c0.7,0.5,1.5,0.6,2.4,0.3
			c0,0,0.1-0.1,0.1-0.1C33.2,26,33.1,26,33.1,26z"/>
		<path fill-rule="evenodd" clip-rule="evenodd" fill="#443323" d="M34.2,20.9c0,0,0.2-0.1,0.2-0.2c0-0.1-0.1-0.2-0.1-0.2
			c-0.3-0.1-0.7-0.2-1-0.3c-0.1,0-0.2,0-0.2,0.1c0,0-0.1,0.1-0.1,0.1c0,0.1,0,0.2,0,0.2C33.4,20.7,33.8,20.8,34.2,20.9z"/>
	</g>
</g>
<g>
	<g>
		<path fill="#443323" d="M51,26.5c0-4.3,0-8.7,0-13c0-3.4,0.2-6.9,0-10.3c-0.1-1.9-0.4-3.3-2.5-3.5c-1.6-0.1-3.2,0.1-4.8,0.1
			c-1.8,0-3.7,0.1-5.5,0.2c-3.5,0.2-7,0.2-10.5,0.1c-3.5-0.1-7,0.1-10.4,0c-3.5-0.1-7,0.2-10.6,0.1c-1.9-0.1-5-0.6-6.3,1.3
			c-0.5,0.8-0.6,1.9-0.5,2.9c-0.1,3.6,0.2,7.2,0,10.8c-0.1,3.9,0,7.7,0.2,11.6c0.3,7.3-0.7,14.6-0.2,21.9c0,0,0,0.1,0,0.1
			c0.1,1.1,0.1,2.1,0.8,2.9c0.9,1,3,0.3,4.1,0.3c4.2-0.1,8.4-0.3,12.6-0.4c4.3-0.1,8.5,0,12.8,0c4.2,0,8.4-0.3,12.6-0.4
			c1.9,0,3.7,0.2,5.6,0.1c0.9,0,1.6-0.3,2-1.2c0.6-1.3,0.2-3.2,0.2-4.5c-0.1-2.2-0.1-4.3,0-6.5C50.7,35,51,30.8,51,26.5z M50.1,42.7
			c0,2.3,0.4,4.8,0,7.1c-0.2,1.2-1.5,1.2-2.5,1.2c-1.3,0-2.6-0.1-3.9-0.1c-5-0.1-10.1,0.4-15.1,0.4c-5.1,0-10.2-0.1-15.4,0.1
			c-2.5,0.1-5,0.2-7.5,0.2c-1.1,0-2.1,0.1-3.2,0.2c-1.6,0.2-2.1-0.8-2.3-2c0,0,0-0.1,0-0.1C0.2,46,0,42.4,0.1,38.7
			c0.2-3.8,0.4-7.6,0.3-11.3c-0.1-3.9-0.4-7.7-0.2-11.6c0.1-3,0.1-5.9-0.1-8.9c0,0,0.1,0,0.1-0.1c0-1.2-0.1-2.3-0.1-3.5
			C0.3,0.9,2,0.5,4.1,0.4c2.1-0.1,4.1,0.1,6.2,0.1c2.2-0.1,4.3-0.2,6.5-0.2c4.1,0.1,8.3,0,12.5,0.1c4.2,0.1,8.3-0.1,12.5-0.3
			c2-0.1,4-0.1,6-0.1c0.9,0,1.9,0,2.5,0.8c0.7,0.9,0.5,2.4,0.5,3.4c0.1,4.3-0.1,8.6-0.1,12.9c0,4.3,0,8.7,0.1,13
			C50.7,34.4,50.1,38.5,50.1,42.7z"/>
		<path fill="none" stroke="#443323" stroke-width="0.5" stroke-miterlimit="10" d="M48.8,20c-0.1-2.2-0.4-4.3-0.3-6.4
			c0-3.6,2.5-10.8-3.1-11.3c-1-0.1-2,0.1-3,0.1c-1.4,0.1-2.8,0-4.1,0c-3.6-0.1-7.1-0.2-10.7-0.2c-6.7,0.1-13.3,0.7-20-0.1
			C5.8,2,3,1.7,2,3.5c0,0,0,0-0.1,0C1.5,4.5,1.6,5.5,1.7,6.5c-0.1,1.7-0.1,3.4,0,5.1c0,0.4,0,0.8,0,1.2c-0.1,3.8,0.2,7.6,0.1,11.4
			c0,3.9-0.1,7.8,0,11.8c0.1,3.5,0,7,0.1,10.5c0,0,0,0.1,0,0.1c0,0.2,0,0.5,0.1,0.8c0,0.2,0,0.3,0,0.5c0,0.1,0.1,0.1,0.1,0.2
			c0.1,0.3,0.3,0.6,0.6,0.8c1.3,0.7,3,0.8,4.5,0.9c4.3,0.4,8.6,0.2,12.9,0.3c4.2,0.1,8.3,0.1,12.5-0.2c3.2-0.3,6.4,0.1,9.7,0
			c1.6,0,4.4-0.1,5.4-1.7c0.6-1,0.6-2.5,0.6-3.6c0.1-2-0.1-4.1,0.1-6.1c0.2-2,0.5-4,0.6-5.9c0.1-2.2,0-4.3,0-6.5
			C48.9,24,49,22,48.8,20z M15,49.5 M41.1,49.4c-1.7,0-3.4,0-5.1-0.1 M47.9,39.4c-0.2,2,0,4-0.1,6 M48.6,8.9
			c-0.2,1.9-0.5,3.7-0.5,5.6c0,2.2,0.3,4.3,0.4,6.4 M43.3,2.7 M19.3,2.8 M2.1,5c0-0.1,0-0.3,0-0.4 M2.1,8.7c0-0.3,0-0.5,0-0.8
			c0,0,0.1-0.1,0.1-0.1 M2.2,36.4 M4.1,48.7"/>
		<path fill="#443323" d="M8,4.5C7.4,3.6,5.8,2.9,5.2,4.1C4.3,4.6,3.9,5.7,4.1,6.8c0.3,1.6,2.1,1.8,3.3,1.1C8.7,7.2,8.6,5.6,8,4.5z
			 M7.4,7.5c-1,0.8-2.6,0.5-3-0.8C4.1,5.5,5,4.1,6.2,3.9c0,0,0.1,0,0.1-0.1c0.1,0,0.2,0,0.3,0C7,3.9,7.4,4.3,7.6,4.7
			C8.2,5.6,8.3,6.8,7.4,7.5z"/>
		<path fill="#443323" d="M6.8,5.3c-0.3-0.5-1.1-0.5-1.3,0c0,0,0,0,0,0C5.3,5.5,5.1,5.8,5.2,6c0.1,0.6,0.7,0.8,1.2,0.6
			C6.9,6.4,7.2,5.8,6.8,5.3z M6.2,6.3C5.9,6.5,5.4,6.2,5.5,5.9c0.1-0.3,0.4-0.4,0.6-0.6c0.2,0,0.3,0.1,0.4,0.2
			C6.7,5.8,6.5,6.2,6.2,6.3z"/>
		<path fill="#443323" d="M47.3,5.5c-0.4-1.2-1.9-2-3-1.5c-2.1,0.5-1.8,4.5,0.8,4.4C46.7,8.3,47.8,7,47.3,5.5z M45,8
			c-1.9,0.1-2.2-2.6-0.9-3.5c1.2-0.2,2.2-0.2,2.8,1C47.5,6.8,46.3,7.9,45,8z"/>
		<path fill="#443323" d="M46.2,5.2c-0.3-0.3-0.7-0.4-1.1-0.3c-0.4,0.2-0.7,0.5-1,0.9c0,0.1,0,0.1,0.1,0.1c0,0,0.1-0.1,0.1-0.1
			c0,0.1-0.1,0.3,0,0.4c0.1,0.7,0.8,1.1,1.4,0.8C46.4,6.8,46.8,5.8,46.2,5.2z M45.6,6.8c-0.4,0.3-0.8-0.1-0.9-0.5
			c-0.1-0.3,0-0.5,0.2-0.7c0,0,0,0,0,0c0.3-0.2,0.5-0.4,0.8-0.2C46.3,5.7,46,6.5,45.6,6.8z"/>
		<path fill="#443323" d="M46.2,43.7c-0.5-1-2.4-2.2-3.2-1c0,0,0,0.1,0,0.1c-1,0.7-1.5,1.8-1.2,3c0.4,1.6,2.5,2.1,3.8,1.3
			C46.7,46.5,46.7,44.8,46.2,43.7z M45.4,46.7c-1,0.9-3,0.3-3.4-0.8c-0.5-1.2,0.5-2.5,1.6-3.1C45.5,42.2,46.8,45.3,45.4,46.7z"/>
		<path fill="#443323" d="M44.6,44.1c-0.3-0.4-1.3-0.4-1.4,0.2c0,0,0,0,0,0c0,0,0,0.1-0.1,0.1c-0.3,0.4-0.3,0.9,0,1.3
			c0.4,0.5,1.3,0.7,1.6,0C45.1,45.2,44.9,44.5,44.6,44.1z M44.5,45.4c-0.1,0.4-0.4,0.5-0.8,0.3c-0.4-0.2-0.6-0.5-0.5-0.9
			c0.1-0.3,0.3-0.6,0.6-0.7c0.1,0,0.2,0,0.3,0.2C44.5,44.6,44.6,45,44.5,45.4z"/>
		<path fill="#443323" d="M8.9,44.6c-0.2-1.2-1.6-2.6-2.8-2c-2.1,0.2-2.6,4.9,0.3,5C8.1,47.7,9.1,46.2,8.9,44.6z M6.4,47.2
			c-2.2,0-2.1-3.3-0.7-4.1c0,0,0,0,0,0c0.6,0,1.1-0.2,1.7,0.1c0.6,0.3,0.9,0.9,1,1.4C8.9,46,7.8,47.2,6.4,47.2z"/>
		<path fill="#443323" d="M7.4,44.4c-0.1-0.2-0.3-0.4-0.6-0.5c-0.2,0-0.5,0-0.7,0.1c-0.4,0.2-0.6,0.7-0.5,1.1c0.1,0.7,0.7,1,1.3,0.7
			C7.5,45.6,7.6,44.9,7.4,44.4z M6.9,45.4c-0.3,0.3-0.8,0-0.8-0.3c0-0.2,0-0.4,0.1-0.5c0-0.1,0.1-0.1,0.2-0.2c0.3,0,0.5-0.2,0.7,0.1
			C7.2,44.8,7.1,45.2,6.9,45.4z"/>
	</g>
	<g>
		<path fill-rule="evenodd" clip-rule="evenodd" fill="#443323" d="M25,30.2c0.2-0.5,0.3-1,0.4-1.5c0-0.1,0-0.3,0-0.4
			c-0.2-1.2-0.3-2.4-0.7-3.6c-0.5-1.7-1.4-3.2-2.4-4.6c-0.9-1.1-1.9-2.1-3.2-2.8c-0.2-0.1-0.4-0.2-0.5-0.1c-0.7,0-1.3,0.2-1.8,0.8
			c-0.2,0.2-0.3,0.4-0.3,0.6c0,0.2-0.1,0.5,0,0.7c0.1,1,0.3,2,1.1,2.6c0.3,0.3,0.6,0.6,0.9,0.8c0.4,0.3,0.7,0.8,0.9,1.2
			c0.4,1,0.6,2,0.6,3c0,0.7,0.1,1.3,0.2,1.9c0.2,0.9,0.7,1.6,1.6,2c0.5,0.2,1,0.3,1.5,0.1c0.4-0.2,0.8-0.3,1.2-0.5
			C24.7,30.5,24.9,30.4,25,30.2z M23.9,30.3c-0.1,0-0.2,0.1-0.3,0.1c-1,0.6-1.8,0.2-2.4-0.7c-0.2-0.3-0.3-0.7-0.4-1
			c-0.1-0.4-0.2-0.8-0.1-1.1c0.1-0.9-0.2-1.8-0.3-2.6c-0.2-1-0.6-1.9-1.5-2.5c-0.2-0.2-0.4-0.4-0.6-0.6c-0.8-0.5-1-1.3-1.1-2.2
			c0-0.2,0-0.5,0-0.7c0.1-0.6,0.4-0.9,1-1c0.4-0.1,0.8,0,1.2,0.3c0.8,0.5,1.3,1,2.1,2c0,0.4-0.4,0.5-0.5,0.8
			c-0.2,0.3-0.5,0.5-0.7,0.7c0,0,0,0.2,0,0.2c0.1,0.1,0.2,0.1,0.2,0.1c0.2-0.2,0.5-0.3,0.7-0.5c0.2-0.2,0.3-0.4,0.4-0.5
			c0.1-0.1,0.3-0.1,0.4-0.1c0.2,0.1,0.2,0.3,0.1,0.5c-0.2,0.4-0.4,0.7-0.8,0.9c-0.1,0.1-0.2,0.1-0.3,0.3c0,0,0,0.2,0.1,0.2
			c0,0,0.1,0.1,0.1,0c0.3-0.2,0.6-0.3,0.8-0.5c0.2-0.1,0.3-0.3,0.5-0.5c0.6,0.2,0.7,0.7,0.8,1.2c0,0,0.1,0,0.1,0.1
			c0.1,0.2,0.2,0.5,0.3,0.7c-0.4,0.6-1,0.9-1.7,0.8c0,0-0.1,0.1-0.1,0.1c0,0.1,0.1,0.2,0.1,0.2c0.2,0.1,0.3,0.2,0.5,0.1
			c0.3-0.1,0.5-0.2,0.8-0.3c0.2-0.1,0.3-0.1,0.6-0.2c0.5,1.2,0.7,2.4,0.8,3.6c0,0.4-0.1,0.7-0.1,1.1C24.5,29.7,24.3,30.1,23.9,30.3z
			"/>
		<path fill-rule="evenodd" clip-rule="evenodd" fill="#443323" d="M36.9,20.8c-0.3-0.6-0.7-1-1.3-1.3c-0.4-0.2-0.8-0.4-1.3-0.6
			c-0.1-0.1-0.3-0.1-0.4-0.1c-0.7,0-1.4-0.3-2.1,0c-0.3,0.1-0.6,0.1-0.8,0.1c-0.3,0.3-0.6,0.5-0.9,0.7c-0.2,0.2-0.5,0.4-0.7,0.7
			c-0.5,0.8-1,1.7-1.1,2.7c-0.1,0.8,0,1.6,0.2,2.4c0.2,0.5,0.4,0.8,0.8,1.2c0.4,0.3,0.8,0.6,1.3,0.8c1.2,0.4,2.4,0.3,3.6,0.2
			c0.2,0,0.5-0.1,0.7-0.2c1.8-0.8,2.8-2.3,2.6-4.4C37.7,22.1,37.3,21.5,36.9,20.8z M36.5,25.6c-0.1,0.2-0.2,0.3-0.4,0.4
			c-0.1,0.1-0.3,0.2-0.5,0.3c-0.8,0.5-1.6,0.8-2.5,0.7c-1,0.1-2-0.2-2.9-0.6c-0.4-0.2-0.7-0.6-0.9-1c-0.5-1.1-0.4-2.2,0-3.3
			c0.2-0.5,0.4-0.9,0.7-1.4c0.5-0.9,1.3-1.3,2.3-1.4c1.3-0.2,2.3,0.3,3.3,0.9c0.2,0.1,0.4,0.3,0.5,0.5c0.4,0.6,0.7,1.2,0.9,1.9
			C37.3,23.7,37.1,24.7,36.5,25.6z"/>
		<path fill-rule="evenodd" clip-rule="evenodd" fill="#443323" d="M14.7,22.9c0.1-0.1,0.2-0.3,0.3-0.5c0.4-1.1-0.2-1.9-1.3-1.9
			c0,0-0.1,0-0.2,0c-0.4-0.1-0.8,0-1.2,0.3c-0.1,0.1-0.2,0.3-0.3,0.4c-0.1,0.1-0.1,0.3-0.1,0.4c-0.1,0.6,0.2,1.1,0.6,1.4
			C13.1,23.5,14.3,23.3,14.7,22.9z M12.5,22.2c-0.1-0.3,0-0.6,0.1-0.8c0-0.1,0.1-0.1,0.2-0.2c0.3-0.1,0.5-0.2,0.8-0.2
			c0.4-0.1,0.7,0.2,0.8,0.6c0.1,0.6-0.2,1-0.8,1.1c-0.1,0-0.3,0-0.4,0C13,22.8,12.6,22.5,12.5,22.2z"/>
		<path fill-rule="evenodd" clip-rule="evenodd" fill="#443323" d="M25.5,35.8c-0.5,0-0.9,0.4-1,0.9c0,0.2,0,0.4-0.1,0.6
			c0,0.2,0.1,0.3,0.1,0.5c0.2,0.6,1.1,0.9,1.7,0.6c0.4-0.3,0.9-0.6,1.1-1c0.1-0.3,0.1-0.6-0.1-0.8C26.7,36,26.2,35.7,25.5,35.8z
			 M25.7,37.8c-0.1,0-0.3,0-0.4-0.1c-0.1,0-0.1-0.1-0.2-0.2c-0.3-0.5,0.1-1.2,0.7-1.3c0.3,0,0.8,0.3,0.9,0.6c0,0,0,0.1,0,0.2
			C26.5,37.4,26.2,37.7,25.7,37.8z"/>
		<path fill-rule="evenodd" clip-rule="evenodd" fill="#443323" d="M15.5,27.2c0.3-0.2,0.5-0.6,0.4-1.2c0-0.1,0-0.4-0.2-0.6
			c-0.4-0.6-1.1-0.7-1.8-0.6c0,0-0.1,0-0.1,0c-0.9,0.4-1.2,1.4-0.7,2.1c0.1,0.1,0.2,0.2,0.3,0.3c0.4,0.5,1,0.6,1.5,0.4
			C15.2,27.4,15.4,27.3,15.5,27.2z M14.2,27.1c-0.1,0-0.3-0.1-0.4-0.2c-0.3-0.4-0.3-0.9,0-1.3c0.3-0.3,0.6-0.3,0.9-0.2
			c0.3,0.1,0.5,0.2,0.6,0.6c0.1,0.3,0.1,0.7-0.3,0.9C14.8,26.9,14.6,27.1,14.2,27.1z"/>
		<path fill-rule="evenodd" clip-rule="evenodd" fill="#443323" d="M18.7,30.7c-0.3-0.2-0.7-0.2-1,0.1c-0.1,0.1-0.2,0.3-0.4,0.4
			c-0.4,0.4-0.5,0.9-0.3,1.4c0.3,0.7,1,1,1.6,0.6c0.3-0.2,0.6-0.4,0.9-0.7c0.1-0.1,0.2-0.3,0.2-0.5c-0.1-0.2-0.1-0.4-0.2-0.6
			C19.3,31.2,19,30.9,18.7,30.7z M18.9,32.4c-0.2,0.1-0.4,0.3-0.6,0.4c-0.2,0.1-0.5,0-0.6-0.2c-0.1-0.2-0.1-0.4-0.1-0.5
			c0-0.2,0.1-0.4,0.3-0.5c0.2-0.1,0.5-0.2,0.8-0.3c0.1,0.1,0.2,0.2,0.3,0.3C19.1,32,19.1,32.2,18.9,32.4z"/>
		<path fill-rule="evenodd" clip-rule="evenodd" fill="#443323" d="M30.5,32.8c-0.2-0.1-0.4-0.1-0.4-0.1c-1,0-1.6,0.4-1.9,1.3
			c0,0.2,0,0.4,0,0.5c0.4,0.6,1,1,1.8,0.7c0.6-0.2,0.9-0.6,1-1.2c0-0.1,0-0.2,0-0.3C31,33.2,30.9,32.9,30.5,32.8z M29.6,34.7
			c-0.2,0-0.5,0-0.6-0.2c-0.1-0.2-0.2-0.3-0.1-0.5c0.1-0.3,0.3-0.6,0.7-0.6c0.2,0,0.4-0.1,0.6-0.1c0.1,0.1,0.2,0.2,0.2,0.3
			C30.4,34.1,30.1,34.5,29.6,34.7z"/>
		<path fill-rule="evenodd" clip-rule="evenodd" fill="#443323" d="M16.7,28.8c-0.2-0.1-0.4-0.2-0.6-0.3c-0.8-0.4-1-0.4-1.4,0.5
			c-0.1,0.3-0.2,0.5-0.2,0.8c0,0.4,0.3,0.8,0.7,1c0.2,0.1,0.4,0.1,0.5,0.1c0.3-0.1,0.5-0.1,0.7-0.2c0.4-0.2,0.6-0.4,0.7-0.8
			C17.2,29.4,17.1,29,16.7,28.8z M15.8,30.1c-0.3,0-0.6-0.2-0.6-0.4c-0.1-0.4,0.2-0.8,0.5-0.8c0.4,0,0.8,0.3,0.8,0.6
			C16.6,29.9,16.3,30.1,15.8,30.1z"/>
		<path fill-rule="evenodd" clip-rule="evenodd" fill="#443323" d="M33.9,30.2c-0.1-0.1-0.3-0.2-0.4-0.3C33,30,32.6,30,32.2,30.1
			c-0.2,0-0.3,0.2-0.4,0.4c-0.3,1.1-0.3,1.4,0.8,1.8c0.3,0.1,0.5,0.1,0.8,0c0.1-0.1,0.2-0.1,0.4-0.2c0.4-0.2,0.6-0.9,0.5-1.2
			C34.2,30.6,34.1,30.4,33.9,30.2z M32.9,31.8c-0.3,0-0.4-0.2-0.5-0.4c-0.1-0.3,0-0.6,0.3-0.7c0.1-0.1,0.2-0.1,0.4-0.2
			c0.4-0.2,0.8,0,0.8,0.5C33.8,31.5,33.4,31.9,32.9,31.8z"/>
		<path fill-rule="evenodd" clip-rule="evenodd" fill="#443323" d="M21.7,33.8c-0.4-0.2-0.8-0.2-1.2,0.2c-0.1,0.1-0.2,0.2-0.3,0.3
			c-0.5,0.5-0.2,1.5,0.4,1.6c0.2,0.1,0.4,0.1,0.5,0.2c0.4,0.1,0.7-0.1,0.9-0.5c0.1-0.2,0.1-0.4,0.1-0.5c0-0.3,0-0.5,0-0.6
			C22.2,34.2,22,33.9,21.7,33.8z M21.6,35.2c-0.1,0.2-0.3,0.3-0.6,0.3c-0.3-0.1-0.4-0.3-0.3-0.5c0.1-0.2,0.1-0.3,0.2-0.5
			c0-0.1,0.2-0.1,0.3-0.1c0.1,0.1,0.2,0.1,0.3,0.2C21.7,34.7,21.7,35,21.6,35.2z"/>
		<path fill-rule="evenodd" clip-rule="evenodd" fill="#443323" d="M42,20.3c-0.1-0.2-0.1-0.5-0.1-0.7c0-0.2,0-0.4-0.1-0.5
			c-0.2-0.6-0.5-1.1-0.8-1.7c-0.1-0.2-0.3-0.4-0.4-0.5c-1.7-1.3-3.6-2.1-5.7-2c-0.3,0-0.7,0.1-1,0c-0.6,0-1.1,0.1-1.7,0.1
			c-0.9,0.1-1.7,0.5-2.5,0.8c-1.2,0.5-2.2,1.2-3,2.2c-0.3,0.4-0.6,0.8-0.9,1.3c-0.1,0.1-0.1,0.2-0.2,0.3c-0.1,0.1-0.2,0.1-0.2,0.1
			c-0.1,0-0.2-0.1-0.2-0.2c-0.5-1.6-1.6-2.9-2.7-4.1c-0.2-0.2-0.4-0.3-0.6-0.4c-0.6-0.3-1.2-0.5-1.8-0.7c-0.5-0.2-1-0.2-1.5-0.3
			c-0.2,0-0.4,0-0.6,0c-0.2,0-0.5,0.1-0.7,0.2c-0.7,0.1-1.3,0.3-1.9,0.5c-0.6,0.2-1.2,0.4-1.8,0.8c-0.1,0.1-0.3,0.1-0.4,0.2
			c-1,0.6-1.9,1.1-2.6,2.1c-0.7,0.9-1.4,1.8-1.5,3c-0.4,1-0.5,2.1-0.4,3.4c-0.1,0.6,0.1,1.5,0.3,2.3c0.1,0.4,0.2,0.7,0.4,1
			c0.4,0.6,0.8,1.2,1.3,1.8c0.2,0.3,0.5,0.6,0.6,0.9c0.2,0.4,0.4,0.8,0.8,1.1c0.5,0.4,1,0.8,1.5,1.2c0.2,0.2,0.5,0.3,0.6,0.5
			c0.7,0.8,1.5,1.4,2.3,2.1c0.5,0.4,1.1,0.8,1.5,1.2c0.5,0.5,1,1,1.4,1.6c0.1,0.1,0.3,0.3,0.4,0.4c0.4,0.5,1,0.9,1.6,1.1
			c1,0.4,2,0.7,3,1.3c0,0,0.1,0,0.1,0.1c0.3,0.2,0.7,0.1,0.9-0.1c0.5-0.4,1.1-0.8,1.5-1.3c1.5-1.4,3.1-2.6,4.7-3.8
			c1.3-1,2.7-1.9,3.9-3c1.2-1,2.4-2.1,3.7-3.1c0.6-0.5,1.1-1.1,1.4-1.7c0.4-0.8,0.7-1.6,1-2.5c0.4-1.1,0.4-2.3,0.5-3.5
			C42.2,21.4,42.2,20.8,42,20.3z M41.1,22.2c0.2,0,0.3,0.2,0.3,0.4c0,0,0,0.1,0,0.1c0,0.1,0,0.2,0,0.3c0,0.4-0.2,0.6-0.6,0.6
			c-0.4,0-0.8,0-1.1,0c0,0-0.1,0.1-0.1,0.1c0,0,0.1,0.1,0.1,0.1c0.1,0,0.3,0,0.4,0c0.2,0,0.5,0,0.7,0c0.4,0,0.6,0.3,0.5,0.7
			c-0.1,0.2-0.1,0.5-0.2,0.7c-0.2,0.6-0.4,0.7-0.9,0.4c-0.2-0.1-0.5-0.3-0.7-0.4c0,0-0.1,0-0.1,0c0,0.1-0.1,0.2,0,0.2
			c0.1,0.1,0.2,0.2,0.3,0.3c0.2,0.2,0.5,0.3,0.7,0.4c0.1,0.1,0.2,0.4,0.1,0.5c-0.1,0.2-0.2,0.3-0.2,0.5c-0.1,0.3-0.4,0.3-0.7,0.2
			c-0.2-0.1-0.3-0.2-0.5-0.3c-0.1-0.1-0.2-0.2-0.3-0.3c-0.1,0-0.2,0-0.2,0c0,0-0.1,0.2-0.1,0.2c0.1,0.2,0.3,0.4,0.5,0.5
			c0.3,0.2,0.6,0.3,0.8,0.5c-0.1,0.5-0.5,0.8-0.8,1.2c-0.2,0.2-0.4,0.2-0.6,0c-0.2-0.2-0.5-0.4-0.7-0.7c0,0-0.2,0-0.2,0.1
			c0,0,0,0.1,0,0.1c0.1,0.4,0.5,0.6,0.7,0.8c0.1,0.2,0.1,0.4,0,0.5c-0.3,0.2-0.5,0.4-0.8,0.6c-0.2,0.1-0.4,0.1-0.5,0
			c-0.2-0.2-0.4-0.4-0.6-0.6c-0.2-0.1-0.4-0.2-0.3,0c0,0.1,0,0.2,0.1,0.2c0.3,0.3,0.6,0.6,0.9,0.9c-0.2,0.2-0.4,0.4-0.6,0.6
			c-0.7,0.6-1.4,1.1-2.1,1.7c-0.6,0.4-1.1,0.9-1.7,1.3c-1.3,0.9-2.5,1.9-3.7,2.8c-1,0.7-1.9,1.6-2.8,2.4c-0.2,0.2-0.5,0.4-0.8,0.6
			c-0.4-0.2-0.8-0.4-1.1-0.6c-0.3-0.1-0.7-0.2-1.1-0.3c-0.5-0.2-0.9-0.4-1.4-0.6c-0.4-0.2-0.7-0.4-1-0.7c-0.6-0.6-1.2-1.3-1.9-1.9
			c-0.2-0.2-0.5-0.5-0.7-0.6c-1-0.6-1.9-1.4-2.7-2.2c-0.6-0.5-1.2-1.1-1.8-1.6c-0.2-0.1-0.3-0.2-0.4-0.4c-0.1-0.1-0.1-0.2,0-0.4
			c0.2-0.4,0.2-0.4-0.3-0.4c0,0-0.1,0-0.1,0c-0.3,0-0.5,0-0.6-0.3c-0.2-0.3-0.4-0.6-0.4-1.1c0.2-0.2,0.4-0.5,0.6-0.7
			c-0.4-0.2-0.7,0.3-1.3,0.1c-0.3-0.4-0.8-0.9-1.1-1.5c-0.1-0.2,0-0.4,0.2-0.5c0.3-0.2,0.7-0.3,1-0.5c-0.4-0.2-0.7,0-1,0
			c-0.3,0-0.5-0.2-0.6-0.5c-0.1-0.3-0.1-0.6-0.1-1c0-0.4,0.1-0.6,0.5-0.6c0.3,0,0.7,0.1,0.9-0.2c-0.3-0.2-0.6-0.1-1-0.2
			c-0.4-0.1-0.6-0.3-0.5-0.7c0-0.5,0.1-0.9,0.2-1.4c0-0.3,0.2-0.4,0.6-0.4c0.2,0,0.5,0,0.7,0c0-0.2-0.1-0.3-0.2-0.3
			c-0.1,0-0.2-0.1-0.3-0.1c-0.4-0.2-0.5-0.4-0.4-0.9c0.1-0.4,0.3-0.8,0.6-1.1c0.1-0.1,0.4-0.2,0.5-0.1c0.3,0.2,0.7,0.4,1,0.5
			c0.1,0,0.2,0,0.3-0.1c-0.3-0.3-0.6-0.5-0.9-0.8c-0.1-0.1-0.2-0.4-0.1-0.5c0.2-0.3,0.5-0.6,0.7-0.9c0.2-0.2,0.5-0.2,0.7,0
			c0.3,0.3,0.5,0.6,0.8,0.8c0,0,0.1,0,0.1,0c0.1,0,0.1-0.1,0.1-0.2c-0.2-0.3-0.4-0.6-0.6-1c-0.1-0.2,0-0.4,0.1-0.5
			c0.1-0.1,0.2-0.2,0.4-0.2c0.9-0.5,0.9-0.5,1.4,0.4c0,0.1,0.1,0.1,0.2,0.2c0,0,0.1,0,0.1,0c0,0,0.1-0.1,0.1-0.1
			c-0.1-0.3-0.1-0.6-0.2-1c0.1-0.1,0.2-0.3,0.4-0.3c0.8-0.4,1.7-0.4,2.6-0.6c0.2,0,0.4,0,0.6,0.1c0.6,0.2,1.3,0.2,1.9,0.6
			c0.1,0.1,0.3,0.1,0.4,0.1c0.4,0,0.6,0.2,0.9,0.4c0.3,0.3,0.7,0.6,1,1c0.7,1,1.5,2,1.7,3.2c0,0.3,0.1,0.6,0.3,0.8
			c0.1,0.1,0.4,0.2,0.5,0c0.3-0.4,0.6-0.9,0.9-1.3c0.7-1,1.5-2,2.5-2.6c0.4-0.3,0.6-0.2,1,0.2c0.1,0.1,0.2,0.3,0.3,0.4
			c0,0,0.1,0,0.1,0c0.1,0,0.2-0.1,0.2-0.2c0-0.1-0.1-0.3-0.1-0.4c-0.1-0.2-0.2-0.3-0.3-0.5c0,0,0-0.1,0-0.2c0.2-0.1,0.4-0.2,0.6-0.3
			c0.6-0.2,1-0.2,1,0.6c0,0.1,0,0.2,0,0.3c0,0.1,0.1,0.3,0.3,0.3c0.1,0,0.2-0.1,0.2-0.3c0-0.3-0.1-0.6-0.1-0.8
			c0-0.4,0.2-0.6,0.6-0.6c0.1,0,0.2,0,0.3,0c0.2,0,0.4,0.2,0.4,0.4c0,0.3,0,0.6,0,0.8c0,0.1,0,0.3,0.1,0.5c0.1-0.1,0.3-0.1,0.3-0.2
			c0.1-0.2,0.1-0.4,0.1-0.6c0.1-0.9,0.1-0.9,1.1-0.9c0.4,0,0.7,0.3,0.6,0.7c0,0.3-0.1,0.5-0.2,0.8c0,0,0.1,0.1,0.1,0.1
			c0.1,0,0.2,0,0.2-0.1c0.2-0.4,0.3-0.8,0.4-1.2c0.1-0.2,0.3-0.3,0.6-0.3c0.7,0.1,1,0.6,0.8,1.2c-0.1,0.3-0.3,0.7-0.4,1
			c0,0,0,0.1,0.1,0.1c0,0,0.1,0,0.1,0c0.1-0.1,0.3-0.3,0.3-0.4c0.2-0.4,0.3-0.8,0.5-1.2c0-0.1,0.2-0.1,0.2-0.1
			c0.2,0,0.4,0.1,0.5,0.2c0.4,0.2,0.6,0.5,0.4,0.9c-0.1,0.4-0.3,0.9-0.5,1.3c0,0.1,0,0.2,0.1,0.2c0.1,0,0.2,0,0.3,0
			c0.1,0,0.1-0.1,0.2-0.2c0.2-0.3,0.3-0.7,0.5-1c0-0.1,0.1-0.2,0.1-0.2c0.1-0.1,0.3-0.1,0.4,0c0.5,0.5,0.6,1.1,0.9,1.7
			c0,0.3-0.2,0.6-0.4,0.8c-0.2,0.1-0.4,0.2-0.6,0.3c-0.3,0.1-0.6,0.2-1,0.4c-0.2,0-0.2,0.3,0,0.3c0.3,0,0.6-0.1,0.8-0.2
			c0.2-0.1,0.4-0.2,0.5-0.3c0.2-0.1,0.3-0.1,0.5-0.2c0,0,0.1,0,0.1,0c0.1,0,0.2,0.1,0.3,0.2c0.1,0.1,0.1,0.3,0.1,0.4
			c0.2,0.9,0.1,1.3-1.1,1.3c-0.3,0-0.6-0.1-0.8,0.2C40.1,22.2,40.6,22.1,41.1,22.2z"/>
		<path fill-rule="evenodd" clip-rule="evenodd" fill="#443323" d="M21.8,26.9c-0.1,0.1-0.1,0.2-0.1,0.2c0,0.2,0,0.4,0,0.5
			c0,0.3,0,0.5,0.1,0.8c0.1,0.3,0.6,0.6,0.9,0.6c0.3-0.1,0.6-0.2,0.9-0.4c0.1-0.1,0.3-0.3,0.3-0.4c0.1-0.5,0-0.9-0.4-1.3
			C23,26.5,22.2,26.5,21.8,26.9z M22.6,28.4c-0.1,0-0.2-0.1-0.2-0.1c-0.1-0.2-0.1-0.3-0.1-0.5c0.1-0.3,0.3-0.5,0.6-0.6
			c0.2,0.1,0.3,0.3,0.3,0.6C23.2,28,22.9,28.3,22.6,28.4z"/>
		<path fill-rule="evenodd" clip-rule="evenodd" fill="#443323" d="M19.2,19.1C19.2,19.1,19.2,19.1,19.2,19.1
			C19.2,19.1,19.2,19.1,19.2,19.1z"/>
		<path fill-rule="evenodd" clip-rule="evenodd" fill="#443323" d="M19.3,19.1c-0.1,0-0.1,0-0.1,0c-0.3,0-0.4,0-0.6,0
			c-0.5,0-0.8,0.5-0.6,1c0,0.1,0.1,0.3,0.2,0.4c0.2,0.3,0.6,0.5,1,0.4c0.4-0.1,0.8-0.3,0.9-0.8C20.2,19.7,20,19,19.3,19.1z
			 M19.3,20.2c-0.2,0.1-0.4,0-0.5-0.1c0-0.2,0.3-0.4,0.5-0.4c0.1,0,0.2,0.1,0.2,0.2C19.5,20,19.4,20.1,19.3,20.2z"/>
		<path fill-rule="evenodd" clip-rule="evenodd" fill="#443323" d="M23.3,23.1C23.3,23.1,23.4,23.1,23.3,23.1
			C23.4,23.1,23.4,23.1,23.3,23.1C23.4,23.1,23.4,23.1,23.3,23.1C23.3,23.1,23.3,23.1,23.3,23.1z"/>
		<path fill-rule="evenodd" clip-rule="evenodd" fill="#443323" d="M22.6,23c-0.3,0.3-0.8,0.2-1.1,0.5c0,0-0.1,0.1,0,0.1
			c0,0.1,0.1,0.2,0.1,0.2c0.1,0,0.3,0,0.4,0c0.5-0.2,0.9-0.5,1.3-0.7C23.1,23,22.9,22.8,22.6,23z"/>
		<path fill-rule="evenodd" clip-rule="evenodd" fill="#443323" d="M22.9,26c0.4,0.2,0.7,0.1,1-0.2c0,0,0.1-0.1,0.1-0.1
			c-0.1-0.1-0.1-0.1-0.2-0.1C23.4,25.6,23.1,25.7,22.9,26z"/>
		<path fill-rule="evenodd" clip-rule="evenodd" fill="#443323" d="M33.4,21.9c0,0-0.1,0-0.1,0c-0.6,0-1.4,0.8-1.4,1.4
			c0,0.4,0.2,0.7,0.5,1c0.3,0.2,0.6,0.3,0.9,0.4c0.1,0,0.3,0,0.4,0c0.7-0.2,0.9-0.8,1-1.4c0-0.1,0-0.3-0.1-0.4
			C34.2,22.4,33.8,22.1,33.4,21.9z M33.9,23.5c-0.1,0.3-0.3,0.5-0.6,0.6c-0.2-0.1-0.4-0.2-0.6-0.3c-0.2-0.1-0.2-0.3-0.2-0.5
			c0-0.2,0.1-0.4,0.3-0.4c0.2-0.1,0.5-0.1,0.7-0.1C33.9,22.8,34.1,23.2,33.9,23.5z"/>
		<path fill-rule="evenodd" clip-rule="evenodd" fill="#443323" d="M35.4,21.4c0,0-0.1,0-0.1,0c0,0-0.1,0.1-0.1,0.1
			c0.1,0.3,0.3,0.7,0.4,1c0.1,0.3,0.2,0.5,0.2,0.7c0,0.8-0.2,1.3-0.6,2c0,0-0.1,0.1-0.1,0.1c-0.1,0.1,0,0.4,0.1,0.3
			c0.1,0,0.2,0,0.2-0.1c0.9-0.9,1.1-2.7,0.2-4C35.6,21.5,35.5,21.5,35.4,21.4z"/>
		<path fill-rule="evenodd" clip-rule="evenodd" fill="#443323" d="M33.1,26c-0.4,0.1-0.9,0.2-1.3,0.1c0-0.1-0.1-0.1-0.1-0.1
			c-0.5-0.1-0.8-0.3-1.1-0.6c0,0,0,0,0,0c-0.1-0.4-0.3-0.7-0.4-1c-0.1-0.2-0.1-0.5-0.1-0.7c0.3-0.8,0.5-1.6,1.2-2.2
			c0.1-0.1,0.2-0.2,0.3-0.3c0,0,0-0.1,0-0.1c-0.1,0-0.2-0.1-0.3-0.1c-0.1,0-0.2,0.1-0.2,0.1c-0.6,0.5-0.9,1-1,1.8
			c-0.4,0.8-0.2,1.5,0.1,2.3c0.1,0.1,0.1,0.3,0.2,0.4c0.1,0.2,0.3,0.4,0.4,0.5c0,0.1,0.1,0.1,0.1,0.1c0.7,0.5,1.5,0.6,2.4,0.3
			c0,0,0.1-0.1,0.1-0.1C33.2,26,33.1,26,33.1,26z"/>
		<path fill-rule="evenodd" clip-rule="evenodd" fill="#443323" d="M34.2,20.9c0,0,0.2-0.1,0.2-0.2c0-0.1-0.1-0.2-0.1-0.2
			c-0.3-0.1-0.7-0.2-1-0.3c-0.1,0-0.2,0-0.2,0.1c0,0-0.1,0.1-0.1,0.1c0,0.1,0,0.2,0,0.2C33.4,20.7,33.8,20.8,34.2,20.9z"/>
	</g>
</g>
<g>
	<g>
		<path fill="#443323" d="M51.3,26.8c0-4.3,0-8.7,0-13c0-3.4,0.2-6.9,0-10.3c-0.1-1.9-0.4-3.3-2.5-3.5c-1.6-0.1-3.2,0.1-4.8,0.1
			c-1.8,0-3.7,0.1-5.5,0.2c-3.5,0.2-7,0.2-10.5,0.1c-3.5-0.1-7,0.1-10.4,0c-3.5-0.1-7,0.2-10.6,0.1C5,0.4,1.9-0.1,0.7,1.8
			C0.2,2.6,0.1,3.7,0.2,4.7c-0.1,3.6,0.2,7.2,0,10.8c-0.1,3.9,0,7.7,0.2,11.6C0.6,34.4-0.4,41.7,0.1,49c0,0,0,0.1,0,0.1
			c0.1,1.1,0.1,2.1,0.8,2.9c0.9,1,3,0.3,4.1,0.3c4.2-0.1,8.4-0.3,12.6-0.4c4.3-0.1,8.5,0,12.8,0c4.2,0,8.4-0.3,12.6-0.4
			c1.9,0,3.7,0.2,5.6,0.1c0.9,0,1.6-0.3,2-1.2c0.6-1.3,0.2-3.2,0.2-4.5c-0.1-2.2-0.1-4.3,0-6.5C51,35.3,51.3,31.1,51.3,26.8z
			 M50.4,43c0,2.3,0.4,4.8,0,7.1c-0.2,1.2-1.5,1.2-2.5,1.2c-1.3,0-2.6-0.1-3.9-0.1c-5-0.1-10.1,0.4-15.1,0.4
			c-5.1,0-10.2-0.1-15.4,0.1c-2.5,0.1-5,0.2-7.5,0.2c-1.1,0-2.1,0.1-3.2,0.2c-1.6,0.2-2.1-0.8-2.3-2c0,0,0-0.1,0-0.1
			c-0.1-3.7-0.3-7.3-0.1-11c0.2-3.8,0.4-7.6,0.3-11.3C0.7,23.8,0.4,19.9,0.5,16c0.1-3,0.1-5.9-0.1-8.9c0,0,0.1,0,0.1-0.1
			c0-1.2-0.1-2.3-0.1-3.5c0.1-2.4,1.8-2.8,3.9-2.9c2.1-0.1,4.1,0.1,6.2,0.1c2.2-0.1,4.3-0.2,6.5-0.2c4.1,0.1,8.3,0,12.5,0.1
			c4.2,0.1,8.3-0.1,12.5-0.3c2-0.1,4-0.1,6-0.1c0.9,0,1.9,0,2.5,0.8C51.1,2,50.9,3.5,51,4.6c0.1,4.3-0.1,8.6-0.1,12.9
			c0,4.3,0,8.7,0.1,13C51,34.7,50.4,38.8,50.4,43z"/>
		<path fill="none" stroke="#443323" stroke-width="0.5" stroke-miterlimit="10" d="M49.1,20.3c-0.1-2.2-0.4-4.3-0.3-6.4
			c0-3.6,2.5-10.8-3.1-11.3c-1-0.1-2,0.1-3,0.1c-1.4,0.1-2.8,0-4.1,0c-3.6-0.1-7.1-0.2-10.7-0.2c-6.7,0.1-13.3,0.7-20-0.1
			C6.1,2.2,3.3,2,2.3,3.8c0,0,0,0-0.1,0C1.8,4.8,1.9,5.8,2,6.8c-0.1,1.7-0.1,3.4,0,5.1c0,0.4,0,0.8,0,1.2c-0.1,3.8,0.2,7.6,0.1,11.4
			c0,3.9-0.1,7.8,0,11.8c0.1,3.5,0,7,0.1,10.5c0,0,0,0.1,0,0.1c0,0.2,0,0.5,0.1,0.8c0,0.2,0,0.3,0,0.5c0,0.1,0.1,0.1,0.1,0.2
			c0.1,0.3,0.3,0.6,0.6,0.8c1.3,0.7,3,0.8,4.5,0.9c4.3,0.4,8.6,0.2,12.9,0.3c4.2,0.1,8.3,0.1,12.5-0.2c3.2-0.3,6.4,0.1,9.7,0
			c1.6,0,4.4-0.1,5.4-1.7c0.6-1,0.6-2.5,0.6-3.6c0.1-2-0.1-4.1,0.1-6.1c0.2-2,0.5-4,0.6-5.9c0.1-2.2,0-4.3,0-6.5
			C49.2,24.3,49.2,22.3,49.1,20.3z M15.3,49.8 M41.4,49.7c-1.7,0-3.4,0-5.1-0.1 M48.2,39.7c-0.2,2,0,4-0.1,6 M48.9,9.2
			c-0.2,1.9-0.5,3.7-0.5,5.6c0,2.2,0.3,4.3,0.4,6.4 M43.5,3 M19.6,3.1 M2.4,5.3c0-0.1,0-0.3,0-0.4 M2.4,9c0-0.3,0-0.5,0-0.8
			c0,0,0.1-0.1,0.1-0.1 M2.5,36.7 M4.3,49"/>
		<path fill="#443323" d="M8.3,4.8C7.7,3.9,6.1,3.2,5.5,4.4C4.6,4.9,4.2,6,4.4,7.1c0.3,1.6,2.1,1.8,3.3,1.1C9,7.5,8.9,5.9,8.3,4.8z
			 M7.7,7.8C6.6,8.6,5,8.4,4.7,7C4.4,5.8,5.3,4.4,6.5,4.2c0,0,0.1,0,0.1-0.1c0.1,0,0.2,0,0.3,0C7.3,4.2,7.7,4.6,7.9,5
			C8.5,5.9,8.5,7.1,7.7,7.8z"/>
		<path fill="#443323" d="M7.1,5.6C6.8,5.1,6,5,5.8,5.6c0,0,0,0,0,0C5.6,5.8,5.4,6.1,5.5,6.3c0.1,0.6,0.7,0.8,1.2,0.6
			C7.2,6.7,7.4,6.1,7.1,5.6z M6.5,6.6C6.2,6.8,5.7,6.5,5.8,6.2c0.1-0.3,0.4-0.4,0.6-0.6c0.2,0,0.3,0.1,0.4,0.2
			C7,6.1,6.8,6.5,6.5,6.6z"/>
		<path fill="#443323" d="M47.6,5.8c-0.4-1.2-1.9-2-3-1.5c-2.1,0.5-1.8,4.5,0.8,4.4C46.9,8.6,48.1,7.3,47.6,5.8z M45.3,8.3
			c-1.9,0.1-2.2-2.6-0.9-3.5c1.2-0.2,2.2-0.2,2.8,1C47.8,7.1,46.6,8.2,45.3,8.3z"/>
		<path fill="#443323" d="M46.5,5.5c-0.3-0.3-0.7-0.4-1.1-0.3c-0.4,0.2-0.7,0.5-1,0.9c0,0.1,0,0.1,0.1,0.1c0,0,0.1-0.1,0.1-0.1
			c0,0.1-0.1,0.3,0,0.4c0.1,0.7,0.8,1.1,1.4,0.8C46.7,7.1,47.1,6.1,46.5,5.5z M45.9,7.1C45.5,7.3,45.1,7,45,6.6
			c-0.1-0.3,0-0.5,0.2-0.7c0,0,0,0,0,0c0.3-0.2,0.5-0.4,0.8-0.2C46.6,6,46.3,6.8,45.9,7.1z"/>
		<path fill="#443323" d="M46.5,44c-0.5-1-2.4-2.2-3.2-1c0,0,0,0.1,0,0.1c-1,0.7-1.5,1.8-1.2,3c0.4,1.6,2.5,2.1,3.8,1.3
			C47,46.8,47,45.1,46.5,44z M45.7,47c-1,0.9-3,0.3-3.4-0.8c-0.5-1.2,0.5-2.5,1.6-3.1C45.8,42.5,47.1,45.6,45.7,47z"/>
		<path fill="#443323" d="M44.9,44.4c-0.3-0.4-1.3-0.4-1.4,0.2c0,0,0,0,0,0c0,0,0,0.1-0.1,0.1c-0.3,0.4-0.3,0.9,0,1.3
			c0.4,0.5,1.3,0.7,1.6,0C45.3,45.5,45.2,44.8,44.9,44.4z M44.8,45.7c-0.1,0.4-0.4,0.5-0.8,0.3c-0.4-0.2-0.6-0.5-0.5-0.9
			c0.1-0.3,0.3-0.6,0.6-0.7c0.1,0,0.2,0,0.3,0.2C44.8,44.9,44.9,45.3,44.8,45.7z"/>
		<path fill="#443323" d="M9.2,44.9c-0.2-1.2-1.6-2.6-2.8-2c-2.1,0.2-2.6,4.9,0.3,5C8.4,48,9.4,46.5,9.2,44.9z M6.7,47.5
			c-2.2,0-2.1-3.3-0.7-4.1c0,0,0,0,0,0c0.6,0,1.1-0.2,1.7,0.1c0.6,0.3,0.9,0.9,1,1.4C9.2,46.3,8.1,47.5,6.7,47.5z"/>
		<path fill="#443323" d="M7.7,44.7c-0.1-0.2-0.3-0.4-0.6-0.5c-0.2,0-0.5,0-0.7,0.1c-0.4,0.2-0.6,0.7-0.5,1.1c0.1,0.7,0.7,1,1.3,0.7
			C7.8,45.9,7.9,45.2,7.7,44.7z M7.2,45.7c-0.3,0.3-0.8,0-0.8-0.3c0-0.2,0-0.4,0.1-0.5c0-0.1,0.1-0.1,0.2-0.2c0.3,0,0.5-0.2,0.7,0.1
			C7.5,45.1,7.4,45.5,7.2,45.7z"/>
	</g>
	<g>
		<path fill-rule="evenodd" clip-rule="evenodd" fill="#443323" d="M25.3,30.5c0.2-0.5,0.3-1,0.4-1.5c0-0.1,0-0.3,0-0.4
			c-0.2-1.2-0.3-2.4-0.7-3.6c-0.5-1.7-1.4-3.2-2.4-4.6c-0.9-1.1-1.9-2.1-3.2-2.8c-0.2-0.1-0.4-0.2-0.5-0.1c-0.7,0-1.3,0.2-1.8,0.8
			c-0.2,0.2-0.3,0.4-0.3,0.6c0,0.2-0.1,0.5,0,0.7c0.1,1,0.3,2,1.1,2.6c0.3,0.3,0.6,0.6,0.9,0.8c0.4,0.3,0.7,0.8,0.9,1.2
			c0.4,1,0.6,2,0.6,3c0,0.7,0.1,1.3,0.2,1.9c0.2,0.9,0.7,1.6,1.6,2c0.5,0.2,1,0.3,1.5,0.1c0.4-0.2,0.8-0.3,1.2-0.5
			C25,30.8,25.2,30.7,25.3,30.5z M24.2,30.6c-0.1,0-0.2,0.1-0.3,0.1c-1,0.6-1.8,0.2-2.4-0.7c-0.2-0.3-0.3-0.7-0.4-1
			c-0.1-0.4-0.2-0.8-0.1-1.1c0.1-0.9-0.2-1.8-0.3-2.6c-0.2-1-0.6-1.9-1.5-2.5c-0.2-0.2-0.4-0.4-0.6-0.6c-0.8-0.5-1-1.3-1.1-2.2
			c0-0.2,0-0.5,0-0.7c0.1-0.6,0.4-0.9,1-1c0.4-0.1,0.8,0,1.2,0.3c0.8,0.5,1.3,1,2.1,2c0,0.4-0.4,0.5-0.5,0.8
			c-0.2,0.3-0.5,0.5-0.7,0.7c0,0,0,0.2,0,0.2c0.1,0.1,0.2,0.1,0.2,0.1c0.2-0.2,0.5-0.3,0.7-0.5c0.2-0.2,0.3-0.4,0.4-0.5
			c0.1-0.1,0.3-0.1,0.4-0.1c0.2,0.1,0.2,0.3,0.1,0.5c-0.2,0.4-0.4,0.7-0.8,0.9c-0.1,0.1-0.2,0.1-0.3,0.3c0,0,0,0.2,0.1,0.2
			c0,0,0.1,0.1,0.1,0c0.3-0.2,0.6-0.3,0.8-0.5c0.2-0.1,0.3-0.3,0.5-0.5c0.6,0.2,0.7,0.7,0.8,1.2c0,0,0.1,0,0.1,0.1
			c0.1,0.2,0.2,0.5,0.3,0.7c-0.4,0.6-1,0.9-1.7,0.8c0,0-0.1,0.1-0.1,0.1c0,0.1,0.1,0.2,0.1,0.2c0.2,0.1,0.3,0.2,0.5,0.1
			c0.3-0.1,0.5-0.2,0.8-0.3c0.2-0.1,0.3-0.1,0.6-0.2c0.5,1.2,0.7,2.4,0.8,3.6c0,0.4-0.1,0.7-0.1,1.1C24.8,30,24.6,30.4,24.2,30.6z"
			/>
		<path fill-rule="evenodd" clip-rule="evenodd" fill="#443323" d="M37.2,21.1c-0.3-0.6-0.7-1-1.3-1.3c-0.4-0.2-0.8-0.4-1.3-0.6
			c-0.1-0.1-0.3-0.1-0.4-0.1c-0.7,0-1.4-0.3-2.1,0c-0.3,0.1-0.6,0.1-0.8,0.1c-0.3,0.3-0.6,0.5-0.9,0.7c-0.2,0.2-0.5,0.4-0.7,0.7
			c-0.5,0.8-1,1.7-1.1,2.7c-0.1,0.8,0,1.6,0.2,2.4c0.2,0.5,0.4,0.8,0.8,1.2c0.4,0.3,0.8,0.6,1.3,0.8c1.2,0.4,2.4,0.3,3.6,0.2
			c0.2,0,0.5-0.1,0.7-0.2c1.8-0.8,2.8-2.3,2.6-4.4C37.9,22.4,37.6,21.8,37.2,21.1z M36.8,25.9c-0.1,0.2-0.2,0.3-0.4,0.4
			c-0.1,0.1-0.3,0.2-0.5,0.3c-0.8,0.5-1.6,0.8-2.5,0.7c-1,0.1-2-0.2-2.9-0.6c-0.4-0.2-0.7-0.6-0.9-1c-0.5-1.1-0.4-2.2,0-3.3
			c0.2-0.5,0.4-0.9,0.7-1.4c0.5-0.9,1.3-1.3,2.3-1.4c1.3-0.2,2.3,0.3,3.3,0.9c0.2,0.1,0.4,0.3,0.5,0.5c0.4,0.6,0.7,1.2,0.9,1.9
			C37.6,24,37.4,25,36.8,25.9z"/>
		<path fill-rule="evenodd" clip-rule="evenodd" fill="#443323" d="M15,23.2c0.1-0.1,0.2-0.3,0.3-0.5c0.4-1.1-0.2-1.9-1.3-1.9
			c0,0-0.1,0-0.2,0c-0.4-0.1-0.8,0-1.2,0.3c-0.1,0.1-0.2,0.3-0.3,0.4c-0.1,0.1-0.1,0.3-0.1,0.4c-0.1,0.6,0.2,1.1,0.6,1.4
			C13.3,23.8,14.6,23.6,15,23.2z M12.8,22.5c-0.1-0.3,0-0.6,0.1-0.8c0-0.1,0.1-0.1,0.2-0.2c0.3-0.1,0.5-0.2,0.8-0.2
			c0.4-0.1,0.7,0.2,0.8,0.6c0.1,0.6-0.2,1-0.8,1.1c-0.1,0-0.3,0-0.4,0C13.3,23.1,12.9,22.8,12.8,22.5z"/>
		<path fill-rule="evenodd" clip-rule="evenodd" fill="#443323" d="M25.7,36.1c-0.5,0-0.9,0.4-1,0.9c0,0.2,0,0.4-0.1,0.6
			c0,0.2,0.1,0.3,0.1,0.5c0.2,0.6,1.1,0.9,1.7,0.6c0.4-0.3,0.9-0.6,1.1-1c0.1-0.3,0.1-0.6-0.1-0.8C27,36.3,26.4,36,25.7,36.1z
			 M26,38.1c-0.1,0-0.3,0-0.4-0.1c-0.1,0-0.1-0.1-0.2-0.2c-0.3-0.5,0.1-1.2,0.7-1.3c0.3,0,0.8,0.3,0.9,0.6c0,0,0,0.1,0,0.2
			C26.8,37.7,26.5,38,26,38.1z"/>
		<path fill-rule="evenodd" clip-rule="evenodd" fill="#443323" d="M15.8,27.4c0.3-0.2,0.5-0.6,0.4-1.2c0-0.1,0-0.4-0.2-0.6
			C15.6,25.1,15,25,14.3,25c0,0-0.1,0-0.1,0c-0.9,0.4-1.2,1.4-0.7,2.1c0.1,0.1,0.2,0.2,0.3,0.3c0.4,0.5,1,0.6,1.5,0.4
			C15.5,27.7,15.6,27.6,15.8,27.4z M14.5,27.4c-0.1,0-0.3-0.1-0.4-0.2c-0.3-0.4-0.3-0.9,0-1.3c0.3-0.3,0.6-0.3,0.9-0.2
			c0.3,0.1,0.5,0.2,0.6,0.6c0.1,0.3,0.1,0.7-0.3,0.9C15.1,27.2,14.9,27.4,14.5,27.4z"/>
		<path fill-rule="evenodd" clip-rule="evenodd" fill="#443323" d="M19,31c-0.3-0.2-0.7-0.2-1,0.1c-0.1,0.1-0.2,0.3-0.4,0.4
			c-0.4,0.4-0.5,0.9-0.3,1.4c0.3,0.7,1,1,1.6,0.6c0.3-0.2,0.6-0.4,0.9-0.7c0.1-0.1,0.2-0.3,0.2-0.5c-0.1-0.2-0.1-0.4-0.2-0.6
			C19.6,31.5,19.3,31.2,19,31z M19.1,32.7c-0.2,0.1-0.4,0.3-0.6,0.4c-0.2,0.1-0.5,0-0.6-0.2c-0.1-0.2-0.1-0.4-0.1-0.5
			c0-0.2,0.1-0.4,0.3-0.5c0.2-0.1,0.5-0.2,0.8-0.3c0.1,0.1,0.2,0.2,0.3,0.3C19.4,32.3,19.4,32.5,19.1,32.7z"/>
		<path fill-rule="evenodd" clip-rule="evenodd" fill="#443323" d="M30.7,33.1C30.6,33,30.4,33,30.3,33c-1,0-1.6,0.4-1.9,1.3
			c0,0.2,0,0.4,0,0.5c0.4,0.6,1,1,1.8,0.7c0.6-0.2,0.9-0.6,1-1.2c0-0.1,0-0.2,0-0.3C31.3,33.5,31.1,33.2,30.7,33.1z M29.8,35
			c-0.2,0-0.5,0-0.6-0.2c-0.1-0.2-0.2-0.3-0.1-0.5c0.1-0.3,0.3-0.6,0.7-0.6c0.2,0,0.4-0.1,0.6-0.1c0.1,0.1,0.2,0.2,0.2,0.3
			C30.7,34.4,30.4,34.8,29.8,35z"/>
		<path fill-rule="evenodd" clip-rule="evenodd" fill="#443323" d="M17,29.1c-0.2-0.1-0.4-0.2-0.6-0.3c-0.8-0.4-1-0.4-1.4,0.5
			c-0.1,0.3-0.2,0.5-0.2,0.8c0,0.4,0.3,0.8,0.7,1c0.2,0.1,0.4,0.1,0.5,0.1c0.3-0.1,0.5-0.1,0.7-0.2c0.4-0.2,0.6-0.4,0.7-0.8
			C17.5,29.7,17.4,29.3,17,29.1z M16.1,30.4c-0.3,0-0.6-0.2-0.6-0.4c-0.1-0.4,0.2-0.8,0.5-0.8c0.4,0,0.8,0.3,0.8,0.6
			C16.8,30.2,16.6,30.4,16.1,30.4z"/>
		<path fill-rule="evenodd" clip-rule="evenodd" fill="#443323" d="M34.2,30.5c-0.1-0.1-0.3-0.2-0.4-0.3c-0.5,0.1-0.9,0.1-1.3,0.3
			c-0.2,0-0.3,0.2-0.4,0.4c-0.3,1.1-0.3,1.4,0.8,1.8c0.3,0.1,0.5,0.1,0.8,0c0.1-0.1,0.2-0.1,0.4-0.2c0.4-0.2,0.6-0.9,0.5-1.2
			C34.5,30.9,34.4,30.7,34.2,30.5z M33.1,32.1c-0.3,0-0.4-0.2-0.5-0.4c-0.1-0.3,0-0.6,0.3-0.7c0.1-0.1,0.2-0.1,0.4-0.2
			c0.4-0.2,0.8,0,0.8,0.5C34.1,31.8,33.6,32.2,33.1,32.1z"/>
		<path fill-rule="evenodd" clip-rule="evenodd" fill="#443323" d="M22,34.1c-0.4-0.2-0.8-0.2-1.2,0.2c-0.1,0.1-0.2,0.2-0.3,0.3
			c-0.5,0.5-0.2,1.5,0.4,1.6c0.2,0.1,0.4,0.1,0.5,0.2c0.4,0.1,0.7-0.1,0.9-0.5c0.1-0.2,0.1-0.4,0.1-0.5c0-0.3,0-0.5,0-0.6
			C22.5,34.5,22.3,34.2,22,34.1z M21.9,35.5c-0.1,0.2-0.3,0.3-0.6,0.3c-0.3-0.1-0.4-0.3-0.3-0.5c0.1-0.2,0.1-0.3,0.2-0.5
			c0-0.1,0.2-0.1,0.3-0.1c0.1,0.1,0.2,0.1,0.3,0.2C22,35,22,35.3,21.9,35.5z"/>
		<path fill-rule="evenodd" clip-rule="evenodd" fill="#443323" d="M42.3,20.6c-0.1-0.2-0.1-0.5-0.1-0.7c0-0.2,0-0.4-0.1-0.5
			c-0.2-0.6-0.5-1.1-0.8-1.7c-0.1-0.2-0.3-0.4-0.4-0.5c-1.7-1.3-3.6-2.1-5.7-2c-0.3,0-0.7,0.1-1,0c-0.6,0-1.1,0.1-1.7,0.1
			c-0.9,0.1-1.7,0.5-2.5,0.8c-1.2,0.5-2.2,1.2-3,2.2c-0.3,0.4-0.6,0.8-0.9,1.3c-0.1,0.1-0.1,0.2-0.2,0.3c-0.1,0.1-0.2,0.1-0.2,0.1
			c-0.1,0-0.2-0.1-0.2-0.2c-0.5-1.6-1.6-2.9-2.7-4.1c-0.2-0.2-0.4-0.3-0.6-0.4c-0.6-0.3-1.2-0.5-1.8-0.7c-0.5-0.2-1-0.2-1.5-0.3
			c-0.2,0-0.4,0-0.6,0c-0.2,0-0.5,0.1-0.7,0.2c-0.7,0.1-1.3,0.3-1.9,0.5c-0.6,0.2-1.2,0.4-1.8,0.8c-0.1,0.1-0.3,0.1-0.4,0.2
			c-1,0.6-1.9,1.1-2.6,2.1c-0.7,0.9-1.4,1.8-1.5,3c-0.4,1-0.5,2.1-0.4,3.4c-0.1,0.6,0.1,1.5,0.3,2.3c0.1,0.4,0.2,0.7,0.4,1
			c0.4,0.6,0.8,1.2,1.3,1.8c0.2,0.3,0.5,0.6,0.6,0.9c0.2,0.4,0.4,0.8,0.8,1.1c0.5,0.4,1,0.8,1.5,1.2c0.2,0.2,0.5,0.3,0.6,0.5
			c0.7,0.8,1.5,1.4,2.3,2.1c0.5,0.4,1.1,0.8,1.5,1.2c0.5,0.5,1,1,1.4,1.6c0.1,0.1,0.3,0.3,0.4,0.4c0.4,0.5,1,0.9,1.6,1.1
			c1,0.4,2,0.7,3,1.3c0,0,0.1,0,0.1,0.1c0.3,0.2,0.7,0.1,0.9-0.1c0.5-0.4,1.1-0.8,1.5-1.3c1.5-1.4,3.1-2.6,4.7-3.8
			c1.3-1,2.7-1.9,3.9-3c1.2-1,2.4-2.1,3.7-3.1c0.6-0.5,1.1-1.1,1.4-1.7c0.4-0.8,0.7-1.6,1-2.5c0.4-1.1,0.4-2.3,0.5-3.5
			C42.5,21.7,42.5,21.1,42.3,20.6z M41.4,22.5c0.2,0,0.3,0.2,0.3,0.4c0,0,0,0.1,0,0.1c0,0.1,0,0.2,0,0.3c0,0.4-0.2,0.6-0.6,0.6
			c-0.4,0-0.8,0-1.1,0c0,0-0.1,0.1-0.1,0.1c0,0,0.1,0.1,0.1,0.1c0.1,0,0.3,0,0.4,0c0.2,0,0.5,0,0.7,0c0.4,0,0.6,0.3,0.5,0.7
			c-0.1,0.2-0.1,0.5-0.2,0.7c-0.2,0.6-0.4,0.7-0.9,0.4c-0.2-0.1-0.5-0.3-0.7-0.4c0,0-0.1,0-0.1,0c0,0.1-0.1,0.2,0,0.2
			c0.1,0.1,0.2,0.2,0.3,0.3c0.2,0.2,0.5,0.3,0.7,0.4c0.1,0.1,0.2,0.4,0.1,0.5c-0.1,0.2-0.2,0.3-0.2,0.5c-0.1,0.3-0.4,0.3-0.7,0.2
			c-0.2-0.1-0.3-0.2-0.5-0.3c-0.1-0.1-0.2-0.2-0.3-0.3c-0.1,0-0.2,0-0.2,0c0,0-0.1,0.2-0.1,0.2c0.1,0.2,0.3,0.4,0.5,0.5
			c0.3,0.2,0.6,0.3,0.8,0.5c-0.1,0.5-0.5,0.8-0.8,1.2c-0.2,0.2-0.4,0.2-0.6,0c-0.2-0.2-0.5-0.4-0.7-0.7c0,0-0.2,0-0.2,0.1
			c0,0,0,0.1,0,0.1c0.1,0.4,0.5,0.6,0.7,0.8c0.1,0.2,0.1,0.4,0,0.5c-0.3,0.2-0.5,0.4-0.8,0.6c-0.2,0.1-0.4,0.1-0.5,0
			c-0.2-0.2-0.4-0.4-0.6-0.6c-0.2-0.1-0.4-0.2-0.3,0c0,0.1,0,0.2,0.1,0.2c0.3,0.3,0.6,0.6,0.9,0.9c-0.2,0.2-0.4,0.4-0.6,0.6
			c-0.7,0.6-1.4,1.1-2.1,1.7c-0.6,0.4-1.1,0.9-1.7,1.3c-1.3,0.9-2.5,1.9-3.7,2.8c-1,0.7-1.9,1.6-2.8,2.4c-0.2,0.2-0.5,0.4-0.8,0.6
			c-0.4-0.2-0.8-0.4-1.1-0.6c-0.3-0.1-0.7-0.2-1.1-0.3c-0.5-0.2-0.9-0.4-1.4-0.6c-0.4-0.2-0.7-0.4-1-0.7c-0.6-0.6-1.2-1.3-1.9-1.9
			c-0.2-0.2-0.5-0.5-0.7-0.6c-1-0.6-1.9-1.4-2.7-2.2c-0.6-0.5-1.2-1.1-1.8-1.6c-0.2-0.1-0.3-0.2-0.4-0.4c-0.1-0.1-0.1-0.2,0-0.4
			c0.2-0.4,0.2-0.4-0.3-0.4c0,0-0.1,0-0.1,0c-0.3,0-0.5,0-0.6-0.3c-0.2-0.3-0.4-0.6-0.4-1.1c0.2-0.2,0.4-0.5,0.6-0.7
			c-0.4-0.2-0.7,0.3-1.3,0.1c-0.3-0.4-0.8-0.9-1.1-1.5c-0.1-0.2,0-0.4,0.2-0.5c0.3-0.2,0.7-0.3,1-0.5c-0.4-0.2-0.7,0-1,0
			c-0.3,0-0.5-0.2-0.6-0.5c-0.1-0.3-0.1-0.6-0.1-1c0-0.4,0.1-0.6,0.5-0.6c0.3,0,0.7,0.1,0.9-0.2c-0.3-0.2-0.6-0.1-1-0.2
			c-0.4-0.1-0.6-0.3-0.5-0.7c0-0.5,0.1-0.9,0.2-1.4c0-0.3,0.2-0.4,0.6-0.4c0.2,0,0.5,0,0.7,0c0-0.2-0.1-0.3-0.2-0.3
			c-0.1,0-0.2-0.1-0.3-0.1C10,21,9.9,20.8,10,20.3c0.1-0.4,0.3-0.8,0.6-1.1c0.1-0.1,0.4-0.2,0.5-0.1c0.3,0.2,0.7,0.4,1,0.5
			c0.1,0,0.2,0,0.3-0.1c-0.3-0.3-0.6-0.5-0.9-0.8c-0.1-0.1-0.2-0.4-0.1-0.5c0.2-0.3,0.5-0.6,0.7-0.9c0.2-0.2,0.5-0.2,0.7,0
			c0.3,0.3,0.5,0.6,0.8,0.8c0,0,0.1,0,0.1,0c0.1,0,0.1-0.1,0.1-0.2c-0.2-0.3-0.4-0.6-0.6-1c-0.1-0.2,0-0.4,0.1-0.5
			c0.1-0.1,0.2-0.2,0.4-0.2c0.9-0.5,0.9-0.5,1.4,0.4c0,0.1,0.1,0.1,0.2,0.2c0,0,0.1,0,0.1,0c0,0,0.1-0.1,0.1-0.1
			c-0.1-0.3-0.1-0.6-0.2-1c0.1-0.1,0.2-0.3,0.4-0.3c0.8-0.4,1.7-0.4,2.6-0.6c0.2,0,0.4,0,0.6,0.1c0.6,0.2,1.3,0.2,1.9,0.6
			c0.1,0.1,0.3,0.1,0.4,0.1c0.4,0,0.6,0.2,0.9,0.4c0.3,0.3,0.7,0.6,1,1c0.7,1,1.5,2,1.7,3.2c0,0.3,0.1,0.6,0.3,0.8
			c0.1,0.1,0.4,0.2,0.5,0c0.3-0.4,0.6-0.9,0.9-1.3c0.7-1,1.5-2,2.5-2.6c0.4-0.3,0.6-0.2,1,0.2c0.1,0.1,0.2,0.3,0.3,0.4
			c0,0,0.1,0,0.1,0c0.1,0,0.2-0.1,0.2-0.2c0-0.1-0.1-0.3-0.1-0.4c-0.1-0.2-0.2-0.3-0.3-0.5c0,0,0-0.1,0-0.2c0.2-0.1,0.4-0.2,0.6-0.3
			c0.6-0.2,1-0.2,1,0.6c0,0.1,0,0.2,0,0.3c0,0.1,0.1,0.3,0.3,0.3c0.1,0,0.2-0.1,0.2-0.3c0-0.3-0.1-0.6-0.1-0.8
			c0-0.4,0.2-0.6,0.6-0.6c0.1,0,0.2,0,0.3,0c0.2,0,0.4,0.2,0.4,0.4c0,0.3,0,0.6,0,0.8c0,0.1,0,0.3,0.1,0.5c0.1-0.1,0.3-0.1,0.3-0.2
			c0.1-0.2,0.1-0.4,0.1-0.6c0.1-0.9,0.1-0.9,1.1-0.9c0.4,0,0.7,0.3,0.6,0.7c0,0.3-0.1,0.5-0.2,0.8c0,0,0.1,0.1,0.1,0.1
			c0.1,0,0.2,0,0.2-0.1c0.2-0.4,0.3-0.8,0.4-1.2c0.1-0.2,0.3-0.3,0.6-0.3c0.7,0.1,1,0.6,0.8,1.2c-0.1,0.3-0.3,0.7-0.4,1
			c0,0,0,0.1,0.1,0.1c0,0,0.1,0,0.1,0c0.1-0.1,0.3-0.3,0.3-0.4c0.2-0.4,0.3-0.8,0.5-1.2c0-0.1,0.2-0.1,0.2-0.1
			c0.2,0,0.4,0.1,0.5,0.2c0.4,0.2,0.6,0.5,0.4,0.9c-0.1,0.4-0.3,0.9-0.5,1.3c0,0.1,0,0.2,0.1,0.2c0.1,0,0.2,0,0.3,0
			c0.1,0,0.1-0.1,0.2-0.2c0.2-0.3,0.3-0.7,0.5-1c0-0.1,0.1-0.2,0.1-0.2c0.1-0.1,0.3-0.1,0.4,0c0.5,0.5,0.6,1.1,0.9,1.7
			c0,0.3-0.2,0.6-0.4,0.8c-0.2,0.1-0.4,0.2-0.6,0.3c-0.3,0.1-0.6,0.2-1,0.4c-0.2,0-0.2,0.3,0,0.3c0.3,0,0.6-0.1,0.8-0.2
			c0.2-0.1,0.4-0.2,0.5-0.3c0.2-0.1,0.3-0.1,0.5-0.2c0,0,0.1,0,0.1,0c0.1,0,0.2,0.1,0.3,0.2c0.1,0.1,0.1,0.3,0.1,0.4
			c0.2,0.9,0.1,1.3-1.1,1.3c-0.3,0-0.6-0.1-0.8,0.2C40.4,22.5,40.9,22.3,41.4,22.5z"/>
		<path fill-rule="evenodd" clip-rule="evenodd" fill="#443323" d="M22.1,27.2c-0.1,0.1-0.1,0.2-0.1,0.2c0,0.2,0,0.4,0,0.5
			c0,0.3,0,0.5,0.1,0.8c0.1,0.3,0.6,0.6,0.9,0.6c0.3-0.1,0.6-0.2,0.9-0.4c0.1-0.1,0.3-0.3,0.3-0.4c0.1-0.5,0-0.9-0.4-1.3
			C23.3,26.8,22.5,26.8,22.1,27.2z M22.8,28.7c-0.1,0-0.2-0.1-0.2-0.1c-0.1-0.2-0.1-0.3-0.1-0.5c0.1-0.3,0.3-0.5,0.6-0.6
			c0.2,0.1,0.3,0.3,0.3,0.6C23.5,28.3,23.2,28.6,22.8,28.7z"/>
		<path fill-rule="evenodd" clip-rule="evenodd" fill="#443323" d="M19.5,19.4C19.5,19.4,19.5,19.4,19.5,19.4
			C19.5,19.4,19.5,19.4,19.5,19.4z"/>
		<path fill-rule="evenodd" clip-rule="evenodd" fill="#443323" d="M19.6,19.4c-0.1,0-0.1,0-0.1,0c-0.3,0-0.4,0-0.6,0
			c-0.5,0-0.8,0.5-0.6,1c0,0.1,0.1,0.3,0.2,0.4c0.2,0.3,0.6,0.5,1,0.4c0.4-0.1,0.8-0.3,0.9-0.8C20.5,20,20.3,19.3,19.6,19.4z
			 M19.6,20.5c-0.2,0.1-0.4,0-0.5-0.1c0-0.2,0.3-0.4,0.5-0.4c0.1,0,0.2,0.1,0.2,0.2C19.8,20.3,19.7,20.4,19.6,20.5z"/>
		<path fill-rule="evenodd" clip-rule="evenodd" fill="#443323" d="M23.6,23.4C23.6,23.4,23.7,23.4,23.6,23.4
			C23.7,23.4,23.7,23.4,23.6,23.4C23.7,23.4,23.6,23.4,23.6,23.4C23.6,23.4,23.6,23.4,23.6,23.4z"/>
		<path fill-rule="evenodd" clip-rule="evenodd" fill="#443323" d="M22.9,23.3c-0.3,0.3-0.8,0.2-1.1,0.5c0,0-0.1,0.1,0,0.1
			c0,0.1,0.1,0.2,0.1,0.2c0.1,0,0.3,0,0.4,0c0.5-0.2,0.9-0.5,1.3-0.7C23.4,23.3,23.1,23.1,22.9,23.3z"/>
		<path fill-rule="evenodd" clip-rule="evenodd" fill="#443323" d="M23.2,26.3c0.4,0.2,0.7,0.1,1-0.2c0,0,0.1-0.1,0.1-0.1
			c-0.1-0.1-0.1-0.1-0.2-0.1C23.7,25.9,23.4,26,23.2,26.3z"/>
		<path fill-rule="evenodd" clip-rule="evenodd" fill="#443323" d="M33.7,22.2c0,0-0.1,0-0.1,0c-0.6,0-1.4,0.8-1.4,1.4
			c0,0.4,0.2,0.7,0.5,1c0.3,0.2,0.6,0.3,0.9,0.4c0.1,0,0.3,0,0.4,0c0.7-0.2,0.9-0.8,1-1.4c0-0.1,0-0.3-0.1-0.4
			C34.5,22.7,34.1,22.4,33.7,22.2z M34.2,23.8c-0.1,0.3-0.3,0.5-0.6,0.6c-0.2-0.1-0.4-0.2-0.6-0.3c-0.2-0.1-0.2-0.3-0.2-0.5
			c0-0.2,0.1-0.4,0.3-0.4c0.2-0.1,0.5-0.1,0.7-0.1C34.2,23.1,34.4,23.5,34.2,23.8z"/>
		<path fill-rule="evenodd" clip-rule="evenodd" fill="#443323" d="M35.7,21.7c0,0-0.1,0-0.1,0c0,0-0.1,0.1-0.1,0.1
			c0.1,0.3,0.3,0.7,0.4,1c0.1,0.3,0.2,0.5,0.2,0.7c0,0.8-0.2,1.3-0.6,2c0,0-0.1,0.1-0.1,0.1c-0.1,0.1,0,0.4,0.1,0.3
			c0.1,0,0.2,0,0.2-0.1c0.9-0.9,1.1-2.7,0.2-4C35.9,21.8,35.8,21.8,35.7,21.7z"/>
		<path fill-rule="evenodd" clip-rule="evenodd" fill="#443323" d="M33.4,26.3c-0.4,0.1-0.9,0.2-1.3,0.1c0-0.1-0.1-0.1-0.1-0.1
			c-0.5-0.1-0.8-0.3-1.1-0.6c0,0,0,0,0,0c-0.1-0.4-0.3-0.7-0.4-1c-0.1-0.2-0.1-0.5-0.1-0.7c0.3-0.8,0.5-1.6,1.2-2.2
			c0.1-0.1,0.2-0.2,0.3-0.3c0,0,0-0.1,0-0.1c-0.1,0-0.2-0.1-0.3-0.1c-0.1,0-0.2,0.1-0.2,0.1c-0.6,0.5-0.9,1-1,1.8
			c-0.4,0.8-0.2,1.5,0.1,2.3c0.1,0.1,0.1,0.3,0.2,0.4c0.1,0.2,0.3,0.4,0.4,0.5c0,0.1,0.1,0.1,0.1,0.1c0.7,0.5,1.5,0.6,2.4,0.3
			c0,0,0.1-0.1,0.1-0.1C33.5,26.3,33.4,26.3,33.4,26.3z"/>
		<path fill-rule="evenodd" clip-rule="evenodd" fill="#443323" d="M34.5,21.2c0,0,0.2-0.1,0.2-0.2c0-0.1-0.1-0.2-0.1-0.2
			c-0.3-0.1-0.7-0.2-1-0.3c-0.1,0-0.2,0-0.2,0.1c0,0-0.1,0.1-0.1,0.1c0,0.1,0,0.2,0,0.2C33.7,21,34.1,21.1,34.5,21.2z"/>
	</g>
</g>
</svg>
