<?xml version="1.0" encoding="utf-8"?>
<!-- Generator: Adobe Illustrator 18.0.0, SVG Export Plug-In . SVG Version: 6.00 Build 0)  -->
<!DOCTYPE svg PUBLIC "-//W3C//DTD SVG 1.1//EN" "http://www.w3.org/Graphics/SVG/1.1/DTD/svg11.dtd">
<svg version="1.1" id="Слой_1" xmlns="http://www.w3.org/2000/svg" xmlns:xlink="http://www.w3.org/1999/xlink" x="0px" y="0px"
	 viewBox="0 0 121.3 32.7" enable-background="new 0 0 121.3 32.7" xml:space="preserve">
<path fill="#C4B090" d="M6.9,0c17,0.6,33.9,1.1,50.8,1.6c16.9,0.5,33.8,0.9,50.8,1.6h0c6.5,0.4,10.5,4.4,12.1,9.5
	c0.6,2,0.9,4.2,0.7,6.3c-0.2,2.1-0.7,4.3-1.7,6.2c-2.4,4.7-7.2,8.1-14.5,7.5l0,0l0,0c-17.4-3.7-34.6-7.6-51.8-11.5
	C36.1,17.2,18.9,13.3,1.5,9.6l-0.2,0L1.1,9.4C0.3,8.5-0.1,6.9,0,5.4c0.1-0.7,0.2-1.4,0.5-2.1C0.8,2.6,1.3,2,1.9,1.4
	C3,0.5,4.6-0.1,6.9,0L6.9,0L6.9,0z M57.6,2.7C40.7,2.3,23.8,1.8,6.8,1.2h0C4.9,1,3.5,1.5,2.6,2.3c-0.5,0.4-0.8,0.9-1,1.4
	C1.3,4.3,1.2,4.9,1.2,5.5c-0.1,1.2,0.2,2.3,0.7,3c17.3,3.7,34.4,7.6,51.6,11.5c17.2,3.9,34.3,7.7,51.8,11.5
	c6.7,0.6,11.1-2.5,13.3-6.8c0.9-1.8,1.4-3.7,1.6-5.7c0.2-2-0.1-4-0.7-5.9c-1.5-4.6-5.2-8.3-11.1-8.7v0C91.4,3.7,74.5,3.2,57.6,2.7z"
	/>
</svg>
