<?xml version="1.0" encoding="utf-8"?>
<!-- Generator: Adobe Illustrator 18.0.0, SVG Export Plug-In . SVG Version: 6.00 Build 0)  -->
<!DOCTYPE svg PUBLIC "-//W3C//DTD SVG 1.1//EN" "http://www.w3.org/Graphics/SVG/1.1/DTD/svg11.dtd">
<svg version="1.1" id="Слой_1" xmlns="http://www.w3.org/2000/svg" xmlns:xlink="http://www.w3.org/1999/xlink" x="0px" y="0px"
	 viewBox="0 0 8 7.9" enable-background="new 0 0 8 7.9" xml:space="preserve">
<g>
	<g>
		<g>
			<path fill="#C4B090" d="M0.2,0.9C0.1,1.1,0.1,1.2,0.1,1.3C0,1.6-0.4,3.7,2,6c2.5,2.4,4.5,1.9,4.8,1.7c0.1,0,0.2,0,0.3-0.1
				C7.3,7.5,7.7,7.2,7.9,7C8.1,6.7,8,6.5,7.8,6.4L6,5.1C5.8,5,5.5,5,5.4,5.2L4.9,5.9c0,0,0,0.1-0.1,0.1C4.8,6,4.2,6.4,3.1,5.2
				C1.9,4.1,1.8,3.5,1.9,3.1c0,0,0.1,0,0.1-0.1l0.7-0.5C2.9,2.4,2.9,2.2,2.8,2L1.4,0.2C1.3,0,1.1-0.1,0.8,0.1
				C0.6,0.3,0.3,0.7,0.2,0.9z"/>
		</g>
		<path fill="#C4B090" d="M6.5,4.2c-0.1,0-0.1,0-0.1-0.1C6,2.9,5,2,3.8,1.6c-0.1,0-0.1-0.1-0.1-0.2c0-0.1,0.1-0.1,0.2-0.1
			C5.2,1.7,6.2,2.7,6.6,4C6.7,4.1,6.6,4.2,6.5,4.2C6.5,4.2,6.5,4.2,6.5,4.2z"/>
		<path fill="#C4B090" d="M7.7,4.3c-0.1,0-0.1-0.1-0.1-0.1C7.2,2.4,5.9,0.9,4.1,0.5C4,0.4,3.9,0.4,3.9,0.3C4,0.2,4,0.2,4.1,0.2
			c1.9,0.5,3.4,2,3.7,4C7.9,4.2,7.8,4.3,7.7,4.3C7.7,4.3,7.7,4.3,7.7,4.3z"/>
	</g>
</g>
</svg>
