<?xml version="1.0" encoding="utf-8"?>
<!-- Generator: Adobe Illustrator 18.0.0, SVG Export Plug-In . SVG Version: 6.00 Build 0)  -->
<!DOCTYPE svg PUBLIC "-//W3C//DTD SVG 1.1//EN" "http://www.w3.org/Graphics/SVG/1.1/DTD/svg11.dtd">
<svg version="1.1" id="Слой_1" xmlns="http://www.w3.org/2000/svg" xmlns:xlink="http://www.w3.org/1999/xlink" x="0px" y="0px"
	 viewBox="0 0 67.3 67.3" enable-background="new 0 0 67.3 67.3" xml:space="preserve">
<g>
	<polygon fill-rule="evenodd" clip-rule="evenodd" fill="#C4B090" points="3,33 3,32.9 1,32.1 0,31.8 0.1,30.8 1.1,30.6 3.2,30.1 
		3.2,30.1 1.2,29.1 0.4,28.6 0.5,27.7 1.5,27.5 3.7,27.2 3.7,27.2 1.8,26 1,25.5 1.2,24.6 2.2,24.5 4.4,24.4 4.4,24.4 2.7,23.1 
		1.9,22.5 2.2,21.6 3.2,21.6 5.4,21.7 5.4,21.7 3.8,20.2 3.1,19.5 3.5,18.7 4.5,18.8 6.7,19.1 6.7,19.1 5.2,17.4 4.6,16.7 5.1,15.9 
		6,16.1 8.2,16.6 8.2,16.6 6.9,14.8 6.3,14 6.9,13.3 7.8,13.6 9.9,14.3 9.9,14.3 8.8,12.4 8.3,11.6 8.9,10.8 9.8,11.2 11.8,12.2 
		11.8,12.1 10.9,10.1 10.5,9.3 11.2,8.6 12,9.1 14,10.2 14,10.2 13.2,8.1 12.9,7.2 13.6,6.6 14.4,7.2 16.3,8.4 16.3,8.4 15.7,6.3 
		15.5,5.3 16.3,4.8 17,5.5 18.7,6.9 18.7,6.9 18.4,4.7 18.2,3.8 19.1,3.3 19.7,4 21.3,5.6 21.3,5.6 21.2,3.4 21.1,2.4 22,2.1 
		22.6,2.8 24,4.6 24.1,2.4 24.1,1.4 25,1.1 25.6,1.9 26.8,3.8 27.1,1.6 27.2,0.6 28.1,0.5 28.6,1.3 29.6,3.3 30.1,1.1 30.3,0.2 
		31.3,0.1 31.6,1 32.5,3 33.2,0.9 33.5,0 34.5,0 34.7,0.9 35.4,3.1 36.3,1 36.7,0.1 37.6,0.2 37.8,1.2 38.3,3.4 39.3,1.4 39.8,0.6 
		40.8,0.8 40.9,1.7 41.1,3.9 42.3,2.1 42.9,1.3 43.8,1.6 43.8,2.5 43.9,4.8 45.3,3.1 45.9,2.3 46.8,2.7 46.7,3.6 46.5,5.9 48.1,4.3 
		48.8,3.6 49.7,4.1 49.5,5 49.1,7.2 50.8,5.8 51.6,5.2 52.4,5.7 52.1,6.6 51.5,8.8 53.4,7.5 54.2,7 54.9,7.6 54.6,8.5 53.8,10.6 
		55.7,9.5 56.6,9 57.3,9.7 56.9,10.6 55.9,12.6 57.9,11.7 58.8,11.3 59.4,12 58.9,12.9 57.8,14.8 59.9,14.1 60.8,13.8 61.4,14.6 
		60.8,15.3 59.4,17.1 61.6,16.6 62.6,16.4 63,17.3 62.4,18 60.9,19.6 63.1,19.3 64.1,19.2 64.5,20.1 63.7,20.8 62.1,22.3 64.3,22.2 
		65.3,22.2 65.6,23.1 64.8,23.7 63.4,24.7 65.1,24.8 66.1,24.8 66.4,25.8 65.5,26.3 63.9,27.3 65.8,27.5 66.8,27.7 66.9,28.6 
		66.1,29.1 64.5,29.9 66.2,30.3 67.1,30.5 67.2,31.4 66.3,31.8 64.8,32.4 66.4,32.9 67.3,33.2 67.3,34.2 66.4,34.5 64.3,35.1 
		64.3,35.1 66.3,36 67.2,36.4 67.1,37.3 66.1,37.5 64,38 64,38 65.9,39.1 66.8,39.5 66.6,40.5 65.6,40.6 63.4,40.8 63.4,40.9 
		65.3,42.1 66.1,42.6 65.8,43.5 64.8,43.6 62.6,43.6 62.6,43.6 64.3,45 65.1,45.6 64.7,46.5 63.8,46.5 61.6,46.3 61.6,46.3 
		63.1,47.9 63.8,48.5 63.4,49.4 62.4,49.2 60.3,48.9 60.2,48.9 61.6,50.6 62.3,51.3 61.8,52.1 60.8,51.9 58.7,51.3 58.7,51.3 
		59.9,53.1 60.5,53.9 59.9,54.7 59,54.4 56.9,53.6 56.9,53.6 58,55.5 58.4,56.4 57.8,57.1 56.9,56.7 54.9,55.7 54.9,55.7 55.8,57.7 
		56.2,58.6 55.5,59.3 54.6,58.8 52.8,57.6 52.7,57.6 53.4,59.7 53.7,60.6 53,61.2 52.2,60.6 50.4,59.3 50.4,59.3 50.9,61.5 
		51.1,62.4 50.3,62.9 49.5,62.2 47.9,60.8 47.9,60.8 48.2,63 48.3,63.9 47.4,64.3 46.8,63.6 45.3,62 45.3,62 45.4,64.2 45.4,65.2 
		44.5,65.5 43.9,64.7 42.6,63 42.5,63 42.4,65.2 42.4,66.1 41.4,66.4 40.9,65.6 39.8,63.7 39.7,63.7 39.4,65.9 39.3,66.8 38.3,67 
		37.9,66.1 36.9,64.2 36.9,64.2 36.3,66.3 36.1,67.2 35.1,67.3 34.8,66.4 34,64.3 34,64.3 33.3,66.4 32.9,67.3 32,67.2 31.7,66.3 
		31.1,64.2 31.1,64.2 30.2,66.2 29.8,67.1 28.8,66.9 28.6,66 28.3,63.9 28.2,63.8 27.1,65.7 26.6,66.6 25.7,66.3 25.6,65.4 
		25.4,63.2 25.4,63.2 24.1,65 23.6,65.7 22.6,65.4 22.7,64.5 22.7,62.3 22.6,62.3 21.2,63.9 20.6,64.7 19.7,64.3 19.8,63.3 20,61.1 
		20,61.1 18.4,62.6 17.7,63.3 16.9,62.8 17.1,61.9 17.5,59.7 17.5,59.7 15.8,61.1 15,61.6 14.2,61.1 14.5,60.2 15.1,58.1 15.1,58.1 
		13.3,59.2 12.4,59.8 11.7,59.1 12.1,58.2 12.9,56.2 12.9,56.2 10.9,57.2 10.1,57.7 9.4,57 9.8,56.1 10.9,54.2 10.8,54.1 8.8,55 
		7.9,55.3 7.3,54.6 7.8,53.8 9,51.9 9,51.9 6.9,52.5 6,52.8 5.4,52 6,51.2 7.4,49.5 7.4,49.5 5.3,49.9 4.3,50.1 3.8,49.3 4.5,48.6 
		6,47 6,47 3.8,47.2 2.9,47.3 2.5,46.4 3.2,45.7 4.9,44.3 4.9,44.3 2.7,44.3 1.7,44.3 1.4,43.4 2.2,42.8 4,41.6 4,41.5 1.8,41.3 
		0.9,41.2 0.7,40.3 1.5,39.8 3.4,38.7 3.4,38.7 1.3,38.3 0.3,38.1 0.2,37.2 1.1,36.8 3.1,35.9 3.1,35.8 1,35.2 0,35 0,34 0.9,33.7 
		3,33 	"/>
	<g>
		<line fill="none" stroke="#26201A" stroke-width="2" stroke-miterlimit="10" x1="22.5" y1="22.5" x2="44.8" y2="44.7"/>
		<line fill="none" stroke="#26201A" stroke-width="2" stroke-miterlimit="10" x1="22.5" y1="44.7" x2="44.8" y2="22.5"/>
	</g>
</g>
</svg>
