<?xml version="1.0" encoding="utf-8"?>
<!-- Generator: Adobe Illustrator 18.0.0, SVG Export Plug-In . SVG Version: 6.00 Build 0)  -->
<!DOCTYPE svg PUBLIC "-//W3C//DTD SVG 1.1//EN" "http://www.w3.org/Graphics/SVG/1.1/DTD/svg11.dtd">
<svg version="1.1" id="Слой_1" xmlns="http://www.w3.org/2000/svg" xmlns:xlink="http://www.w3.org/1999/xlink" x="0px" y="0px"
	 viewBox="0 0 59.3 59.3" enable-background="new 0 0 59.3 59.3" xml:space="preserve">
<path fill-rule="evenodd" clip-rule="evenodd" fill="#FFFFFF" d="M2.6,29.1L2.6,29.1l-1.8-0.7L0,28l0.1-0.9L0.9,27l1.9-0.5l0,0
	l-1.7-0.9l-0.8-0.4l0.1-0.8l0.8-0.1L3.2,24l0,0l-1.6-1l-0.7-0.5l0.2-0.8l0.9,0l1.9-0.1l0,0l-1.5-1.2l-0.7-0.5L2,19l0.9,0l1.9,0.1
	l0,0l-1.4-1.3l-0.6-0.6l0.4-0.8l0.8,0.1l1.9,0.3l0,0l-1.3-1.5L4,14.7L4.5,14l0.8,0.2l1.9,0.5l0,0l-1.1-1.6l-0.5-0.7l0.5-0.7L6.9,12
	l1.9,0.6l0,0l-1-1.7l-0.4-0.7l0.6-0.6l0.8,0.3l1.8,0.8l0,0L9.6,8.9L9.2,8.2l0.6-0.6L10.6,8l1.7,1l0,0l-0.7-1.8l-0.3-0.8L12,5.8
	l0.7,0.5l1.6,1.1l0,0l-0.5-1.9l-0.2-0.8l0.7-0.5L15,4.8l1.5,1.3l0,0l-0.3-1.9l-0.1-0.8l0.8-0.4l0.6,0.6L18.8,5l0,0l-0.1-2l-0.1-0.9
	l0.8-0.3l0.5,0.7L21.2,4l0.1-2l0-0.9L22.1,1l0.5,0.7l1.1,1.6l0.2-1.9L24,0.6l0.8-0.2l0.4,0.8l0.9,1.7L26.5,1l0.2-0.8l0.9-0.1
	l0.3,0.8l0.7,1.8l0.6-1.9L29.5,0l0.9,0l0.3,0.8l0.6,1.9L32,0.9l0.3-0.8l0.8,0.1L33.3,1L33.7,3l0.9-1.7l0.4-0.7l0.8,0.2L36,1.5l0.2,2
	l1.1-1.6l0.5-0.7l0.8,0.2l0,0.9l0,2l1.3-1.5L40.5,2l0.8,0.3l-0.1,0.9l-0.2,2l1.4-1.4L43,3.2l0.8,0.4l-0.1,0.8l-0.3,1.9l1.5-1.3
	l0.7-0.5L46.2,5L46,5.8l-0.5,1.9l1.6-1.1l0.7-0.5l0.7,0.5l-0.3,0.8l-0.7,1.8l1.7-0.9L49.9,8l0.6,0.6l-0.4,0.8l-0.9,1.8l1.8-0.8
	l0.8-0.3l0.6,0.6L52,11.3l-1,1.7l1.9-0.6l0.8-0.3l0.5,0.7l-0.5,0.7l-1.2,1.6l1.9-0.4l0.8-0.2l0.4,0.7L55,15.9l-1.3,1.5l1.9-0.2
	l0.8-0.1l0.4,0.8l-0.6,0.6l-1.5,1.3l2-0.1l0.9,0l0.3,0.8l-0.7,0.5l-1.2,0.9l1.5,0.1l0.9,0l0.2,0.8l-0.7,0.5L56.4,24l1.7,0.2l0.8,0.1
	l0.1,0.8l-0.8,0.4l-1.4,0.7l1.5,0.3l0.8,0.2l0.1,0.9L58.5,28l-1.3,0.5l1.4,0.4l0.8,0.3l0,0.9l-0.8,0.3L56.7,31v0l1.8,0.8l0.8,0.3
	l-0.1,0.9l-0.8,0.2l-1.9,0.4l0,0l1.7,0.9l0.8,0.4l-0.2,0.8l-0.8,0.1L55.9,36l0,0l1.6,1.1l0.7,0.5L58,38.4l-0.9,0l-1.9,0l0,0l1.5,1.2
	l0.7,0.5L57.1,41L56.2,41l-1.9-0.1l0,0l1.4,1.4l0.6,0.6l-0.4,0.8L55,43.4l-1.9-0.3l0,0l1.2,1.5l0.6,0.7L54.5,46l-0.8-0.2l-1.9-0.5
	l0,0l1.1,1.6l0.5,0.7l-0.5,0.7L52,47.9l-1.8-0.7l0,0l0.9,1.7l0.4,0.7L51,50.3L50.2,50l-1.7-0.8l0,0l0.8,1.8l0.3,0.8l-0.6,0.6
	l-0.7-0.4l-1.6-1l0,0l0.6,1.8l0.3,0.8L46.7,54L46,53.5l-1.5-1.1l0,0l0.4,1.9l0.2,0.8l-0.7,0.4l-0.6-0.6l-1.4-1.3l0,0l0.3,1.9
	l0.1,0.8l-0.8,0.4l-0.6-0.6L40,54.7l0,0l0.1,1.9l0,0.9l-0.8,0.3l-0.5-0.7l-1.2-1.5l0,0l-0.1,1.9l0,0.9l-0.8,0.2l-0.4-0.7l-1-1.6l0,0
	l-0.3,1.9l-0.1,0.8L33.8,59l-0.4-0.8l-0.8-1.7l0,0L32,58.4l-0.2,0.8L31,59.3l-0.3-0.8L30,56.7h0l-0.6,1.8L29,59.3l-0.9,0L28,58.5
	l-0.5-1.8l0,0l-0.8,1.7l-0.4,0.8L25.4,59l-0.2-0.8l-0.3-1.9l0,0l-1,1.6l-0.4,0.7l-0.8-0.2l-0.1-0.9l-0.2-1.9l0,0l-1.1,1.5L20.8,58
	L20,57.7l0-0.9l0-1.9l0,0l-1.3,1.4L18.2,57l-0.8-0.3l0.1-0.8l0.2-1.9l0,0l-1.4,1.3l-0.6,0.6l-0.7-0.4l0.2-0.8l0.4-1.9l0,0l-1.5,1.2
	l-0.7,0.5l-0.7-0.5l0.2-0.8l0.6-1.8l0,0l-1.6,1L11,52.7l-0.7-0.5l0.3-0.8l0.7-1.8l0,0l-1.7,0.9l-0.8,0.4l-0.6-0.6l0.4-0.8l0.9-1.7
	l0,0l-1.8,0.7L7,48.8l-0.5-0.7l0.5-0.7L8,45.8l0,0l-1.8,0.5l-0.8,0.2l-0.5-0.7l0.5-0.7l1.2-1.5l0,0L4.6,44l-0.8,0.2l-0.4-0.8L4,42.8
	l1.3-1.4l0,0l-1.9,0.2l-0.8,0.1l-0.3-0.8l0.6-0.6l1.5-1.2l0,0l-1.9,0l-0.9,0l-0.3-0.8L2,37.8l1.6-1.1l0,0l-1.9-0.2l-0.8-0.1
	l-0.2-0.8l0.7-0.4l1.7-1l0,0l-1.9-0.4l-0.8-0.2l-0.1-0.8l0.8-0.4l1.8-0.8l0,0l-1.9-0.5L0,30.8L0,30l0.8-0.3L2.6,29.1L2.6,29.1z
	 M26.8,29.7c0,1.6,1.3,2.8,2.8,2.8c1.6,0,2.8-1.3,2.8-2.8s-1.3-2.8-2.8-2.8C28.1,26.8,26.8,28.1,26.8,29.7L26.8,29.7z M28.9,20.8
	c3.3-1.9,4.4-6.1,2.5-9.4c-1.9-3.3-6.1-4.4-9.4-2.5c-3.3,1.9-4.4,6.1-2.5,9.4C21.4,21.6,25.6,22.7,28.9,20.8L28.9,20.8z M22.1,34.7
	c-3.3-1.9-7.5-0.8-9.4,2.5c-1.9,3.3-0.8,7.5,2.5,9.4c3.3,1.9,7.5,0.8,9.4-2.5C26.5,40.8,25.4,36.6,22.1,34.7L22.1,34.7z M37.6,33.7
	c0,3.8,3.1,6.9,6.9,6.9c3.8,0,6.9-3.1,6.9-6.9c0-3.8-3.1-6.9-6.9-6.9C40.7,26.8,37.6,29.9,37.6,33.7z"/>
</svg>
