<?xml version="1.0" encoding="utf-8"?>
<!-- Generator: Adobe Illustrator 18.0.0, SVG Export Plug-In . SVG Version: 6.00 Build 0)  -->
<!DOCTYPE svg PUBLIC "-//W3C//DTD SVG 1.1//EN" "http://www.w3.org/Graphics/SVG/1.1/DTD/svg11.dtd">
<svg version="1.1" id="Слой_1" xmlns="http://www.w3.org/2000/svg" xmlns:xlink="http://www.w3.org/1999/xlink" x="0px" y="0px"
	 viewBox="0 0 115.2 115.2" enable-background="new 0 0 115.2 115.2" xml:space="preserve">
<g>
	<path fill-rule="evenodd" clip-rule="evenodd" fill="#FFFFFF" d="M81.7,110.5l-5.6,2.2l-1.9-4.9c-2.5,0.8-4.9,1.4-7.4,1.8l0.6,5.2
		l-6,0.7l-0.6-5.2c-2.6,0.1-5.1,0.1-7.6-0.2l-0.8,5.2l-6-0.9l0.8-5.2c-2.5-0.5-4.9-1.3-7.3-2.1l-2.1,4.8l-5.6-2.4l2.1-4.9
		c-2.3-1.2-4.5-2.5-6.5-4l-3.3,4.1l-4.7-3.8l3.3-4.1c-1.9-1.7-3.7-3.5-5.3-5.5l-4.2,3.1l-3.6-4.9l4.3-3.1c-1.4-2.1-2.6-4.4-3.7-6.7
		l-4.9,1.9L3.2,76L8.1,74c-0.8-2.5-1.4-4.9-1.8-7.4l-5.2,0.6l-0.7-6l5.3-0.6c-0.1-2.6-0.1-5.1,0.2-7.6l-5.2-0.8
		c0.6-2,1.2-3.9,1.9-5.9L6.7,47c0.5-2.5,1.3-5,2.1-7.3l-3.3-1.5c0.8-1.9,1.6-3.7,2.4-5.6l3.4,1.5c1.2-2.3,2.5-4.5,4-6.5l-3.4-2.7
		c1-1.8,2-3.6,3.1-5.3l4.1,3.3c1.7-1.9,3.5-3.7,5.5-5.3l-3.1-4.2l4.9-3.6l3.1,4.3c2.1-1.4,4.4-2.6,6.7-3.7l-1.9-4.9l5.6-2.2L41.8,8
		c2.5-0.8,4.9-1.4,7.4-1.8L48.7,1l6-0.7l0.6,5.3c2.6-0.1,5.1-0.1,7.6,0.2l0.8-5.2l6,0.9l-0.8,5.2c2.5,0.5,5,1.3,7.3,2.1l2.1-4.8
		l5.6,2.4l-2.1,4.9c2.3,1.2,4.5,2.5,6.5,4l3.3-4.1l4.7,3.8L93.1,19c1.9,1.7,3.7,3.5,5.3,5.5l4.2-3.1l3.6,4.9l-4.3,3.1
		c1.4,2.1,2.6,4.4,3.7,6.7l4.9-1.9l2.2,5.6l-4.9,1.9c0.8,2.5,1.4,4.9,1.8,7.4l5.2-0.6l0.7,6l-5.2,0.6c0.1,2.6,0.1,5.1-0.2,7.6
		l5.2,0.8l-0.9,6l-5.2-0.8c-0.5,2.5-1.3,5-2.1,7.3l4.8,2.1l-2.4,5.6l-4.9-2.1c-1.2,2.3-2.5,4.5-4,6.5l4.1,3.3l-3.8,4.7L96.9,93
		c-1.7,1.9-3.5,3.7-5.5,5.3l3.1,4.2l-4.9,3.6l-3.1-4.2c-2.1,1.4-4.4,2.6-6.7,3.7L81.7,110.5L81.7,110.5z M34.3,39
		C23.9,52.1,26,71.1,39.1,81.6c13.1,10.4,32.1,8.3,42.6-4.8c10.4-13.1,8.3-32.1-4.8-42.6C63.8,23.8,44.7,25.9,34.3,39L34.3,39z
		 M37.4,41.5c-9,11.3-7.2,27.9,4.2,36.9c11.3,9,27.9,7.2,36.9-4.2c9-11.3,7.2-27.9-4.2-36.9C63,28.3,46.5,30.2,37.4,41.5L37.4,41.5z
		 M23.4,30.3c-15.2,19.1-12.1,46.9,7,62.1c19.1,15.2,46.9,12.1,62.1-7c15.2-19.1,12.1-46.9-7-62.1C66.5,8.1,38.6,11.2,23.4,30.3z"/>
	<path fill-rule="evenodd" clip-rule="evenodd" fill="#FFFFFF" d="M50.5,51.9c0.8-1,1.7-1.8,2.8-2.4l-6.8-17.3l2.4-0.9l6.8,17.3
		c2-0.5,4.1-0.3,6,0.5l22.5-28.2l3.3,2.6L65.1,51.5c1.6,1.8,2.4,4.1,2.4,6.5l19,2.9l-0.4,2.6l-19-2.9c-0.3,1.2-0.9,2.3-1.7,3.3
		c-0.8,0.9-1.6,1.7-2.6,2.3l13.6,34.7l-3.9,1.5L58.8,67.4c-1.8,0.1-3.6-0.2-5.2-1L41.7,81.3l-2-1.6l11.8-14.8
		c-1.5-1.4-2.5-3.2-2.9-5.1l-37.6-5.7l0.6-4.2l37,5.6C49.1,54.2,49.7,53,50.5,51.9z"/>
	<path fill-rule="evenodd" clip-rule="evenodd" fill="#FFFFFF" d="M74,93.4l-3.8,1.5l-1.3-3.3c-1.7,0.5-3.3,1-5,1.2l0.4,3.5
		l-4.1,0.5l-0.4-3.5c-1.7,0.1-3.5,0-5.2-0.1l-0.5,3.5L50.1,96l0.5-3.5c-1.7-0.4-3.3-0.8-5-1.4l-1.4,3.3l-3.8-1.6l1.4-3.3
		c-1.5-0.8-3-1.7-4.4-2.7l-2.2,2.8L32,87l2.2-2.8c-1.3-1.1-2.5-2.4-3.6-3.7l-2.9,2.1l-2.4-3.3l2.9-2.1c-0.9-1.4-1.8-2.9-2.5-4.5
		l-3.3,1.3L21,70.1l3.3-1.3c-0.5-1.7-1-3.3-1.2-5l-3.5,0.4l-0.5-4.1l3.5-0.4c-0.1-1.7,0-3.5,0.1-5.2L19.2,54c0.4-1.3,0.8-2.6,1.3-4
		l2.9,0.4c0.4-1.7,0.8-3.3,1.4-5l-2.3-1c0.5-1.3,1.1-2.5,1.6-3.8l2.3,1c0.8-1.5,1.7-3,2.7-4.4l-2.3-1.8c0.7-1.2,1.4-2.4,2.1-3.6
		l2.8,2.2c1.1-1.3,2.4-2.5,3.7-3.6l-2.1-2.9l3.3-2.4l2.1,2.9c1.4-0.9,2.9-1.8,4.5-2.5L42,22.4l3.8-1.5l1.3,3.3c1.7-0.5,3.3-1,5-1.2
		l-0.4-3.5l4.1-0.5l0.4,3.5c1.7-0.1,3.5,0,5.2,0.1l0.5-3.5l4.1,0.6l-0.5,3.5c1.7,0.4,3.3,0.8,5,1.4l1.4-3.3l3.8,1.6l-1.4,3.3
		c1.5,0.8,3,1.7,4.4,2.7l2.2-2.8l3.2,2.6l-2.2,2.8c1.3,1.1,2.5,2.4,3.6,3.7l2.9-2.1l2.4,3.3l-2.9,2.1c0.9,1.4,1.8,2.9,2.5,4.5
		l3.3-1.3l1.5,3.8L91.7,47c0.5,1.7,1,3.3,1.2,5l3.5-0.4l0.5,4.1l-3.5,0.4c0.1,1.7,0,3.5-0.1,5.2l3.5,0.5l-0.6,4.1l-3.5-0.5
		c-0.4,1.7-0.8,3.3-1.4,5l3.3,1.4l-1.6,3.8L89.5,74c-0.8,1.5-1.7,3-2.7,4.4l2.8,2.2l-2.6,3.2l-2.8-2.2c-1.1,1.3-2.4,2.5-3.7,3.6
		l2.1,2.9l-3.3,2.4l-2.1-2.9c-1.4,0.9-2.9,1.8-4.5,2.5L74,93.4L74,93.4z M42,45.1c-7,8.8-5.6,21.7,3.2,28.8c8.8,7,21.7,5.6,28.8-3.2
		c7-8.8,5.6-21.7-3.2-28.8C61.9,34.8,49,36.3,42,45.1L42,45.1z M44.1,46.8c-6.1,7.7-4.9,18.8,2.8,25c7.7,6.1,18.8,4.9,25-2.8
		c6.1-7.7,4.9-18.8-2.8-24.9C61.4,37.9,50.2,39.2,44.1,46.8L44.1,46.8z M34.6,39.3c-10.3,12.9-8.2,31.7,4.7,42
		c12.9,10.3,31.7,8.2,42-4.7c10.3-12.9,8.2-31.7-4.7-42C63.7,24.2,44.9,26.4,34.6,39.3z"/>
	<path fill-rule="evenodd" clip-rule="evenodd" fill="#FFFFFF" d="M53,53.9c0.5-0.7,1.2-1.2,1.9-1.6l-4.6-11.7l1.6-0.6l4.6,11.7
		c1.3-0.3,2.8-0.2,4,0.3l15.2-19.1l2.2,1.8l-15.1,19c1.1,1.2,1.7,2.8,1.6,4.4l12.9,1.9L77,61.6l-12.9-1.9c-0.2,0.8-0.6,1.5-1.1,2.2
		c-0.5,0.6-1.1,1.2-1.8,1.5l9.2,23.4l-2.6,1l-9.3-23.6c-1.2,0.1-2.4-0.1-3.5-0.7l-8,10.1l-1.4-1.1l8-10c-1-1-1.7-2.2-1.9-3.5
		l-25.4-3.8l0.4-2.8l25,3.8C52,55.4,52.4,54.6,53,53.9z"/>
</g>
</svg>
