<?xml version="1.0" encoding="utf-8"?>
<!-- Generator: Adobe Illustrator 18.0.0, SVG Export Plug-In . SVG Version: 6.00 Build 0)  -->
<!DOCTYPE svg PUBLIC "-//W3C//DTD SVG 1.1//EN" "http://www.w3.org/Graphics/SVG/1.1/DTD/svg11.dtd">
<svg version="1.1" id="Слой_1" xmlns="http://www.w3.org/2000/svg" xmlns:xlink="http://www.w3.org/1999/xlink" x="0px" y="0px"
	 viewBox="0 0 145.9 32.7" enable-background="new 0 0 145.9 32.7" xml:space="preserve">
<g>
	<path fill="#C4B090" d="M80.8,2.5C63.9,2.1,47,1.6,30,1"/>
	<path fill="#C4B090" d="M31.4,0c17,0.6,33.9,1.1,50.8,1.6c16.9,0.5,33.8,0.9,50.8,1.6h0c6.5,0.4,10.5,4.4,12.1,9.5
		c0.6,2,0.9,4.2,0.7,6.3c-0.2,2.1-0.7,4.3-1.7,6.2c-2.4,4.7-7.2,8.1-14.5,7.5l0,0l0,0c-17.4-3.7-34.6-7.6-51.8-11.5
		C60.6,17.2,43.5,13.3,26,9.6l-0.2,0l-0.1-0.1c-0.8-0.9-1.2-2.4-1.1-4c0.1-0.7,0.2-1.4,0.5-2.1c0.3-0.7,0.7-1.3,1.3-1.8
		C27.5,0.5,29.2-0.1,31.4,0L31.4,0L31.4,0z M82.1,2.7C65.2,2.3,48.3,1.8,31.3,1.2h0c-1.9-0.1-3.3,0.3-4.1,1.1
		c-0.5,0.4-0.8,0.9-1,1.4c-0.2,0.5-0.4,1.1-0.4,1.7c-0.1,1.2,0.2,2.3,0.7,3c17.3,3.7,34.4,7.6,51.6,11.5
		c17.2,3.9,34.3,7.7,51.8,11.5c6.7,0.6,11.1-2.5,13.3-6.8c0.9-1.8,1.4-3.7,1.6-5.7c0.2-2-0.1-4-0.7-5.9c-1.5-4.6-5.2-8.3-11.1-8.7v0
		C115.9,3.7,99,3.2,82.1,2.7z"/>
	<g>
		<path fill-rule="evenodd" clip-rule="evenodd" fill="#FFFFFF" d="M3.5,23.5l-0.3,0.2l-0.5-0.6l0.2-0.3l-0.3,0.1L2,22.3L2.2,22
			l-0.3,0.1l-0.4-0.7l0.2-0.3l-0.3,0.1L1,20.5l0.2-0.2l-0.3,0l-0.3-0.7l0.3-0.2l-0.3,0l-0.2-0.7l0.3-0.2l-0.3,0l-0.1-0.8l0.3-0.2
			l-0.3-0.1L0,16.6l0.3-0.1L0,16.4l0-0.8l0.3-0.1L0,15.4l0.1-0.8l0.3-0.1l-0.3-0.2l0.1-0.8l0.3,0l-0.3-0.2l0.2-0.7l0.3,0l-0.3-0.2
			l0.3-0.7l0.3,0L1,11.4l0.4-0.7l0.3,0.1l-0.2-0.3l0.4-0.7L2.2,10L2,9.7l0.5-0.6l0.3,0.1L2.7,8.9l0.5-0.6l0.3,0.2L3.4,8.2L4,7.7
			l0.3,0.2L4.2,7.5l0.6-0.5l0.3,0.2L5,6.9l0.7-0.4l0.3,0.2l0-0.3l0.7-0.3l0.2,0.3l0-0.3l0.7-0.3L7.7,6l0-0.3l0.8-0.2l0.2,0.3
			l0.1-0.3l0.8-0.1l0.2,0.3l0.1-0.3l0.8,0l0.1,0.3l0.1-0.3l0.8,0l0.1,0.3l0.1-0.3l0.8,0.1l0.1,0.3l0.2-0.3l0.8,0.2l0,0.3l0.2-0.3
			l0.7,0.2l0,0.3L14.7,6l0.7,0.3l0,0.2l0.1-0.1l0.7,0.4l0,0.2l0.2-0.1L17,7.3L17,7.4l0.2-0.1l0.6,0.5l-0.1,0.1l0.1-0.1l0.6,0.5
			l-0.1,0.3l0.3-0.1L19,9.2l-0.2,0.3l0.3-0.1l0.5,0.6l-0.2,0.3l0.3-0.1l0.4,0.7L20,11.1l0.3,0l0.3,0.7L20.4,12l0.3,0l0.3,0.7
			l-0.3,0.2l0.3,0l0.2,0.8L21,13.9l0.3,0l0.1,0.8l-0.3,0.2l0.3,0.1l0.1,0.8l-0.3,0.1l0.3,0.1l0,0.8l-0.3,0.1l0.3,0.1l-0.1,0.8
			L21,17.8l0.3,0.2l-0.2,0.8l-0.3,0l0.3,0.2l-0.2,0.7l-0.3,0l0.3,0.2l-0.3,0.7l-0.3,0l0.2,0.2L20,21.5l-0.3-0.1l0.2,0.3l-0.4,0.6
			l-0.3-0.1l0.2,0.3l-0.5,0.6L18.5,23l0.2,0.3l-0.5,0.6l-0.3-0.2l0.1,0.3l-0.6,0.5L17,24.4l0.1,0.3l-0.6,0.4l-0.3-0.2l0.1,0.3
			l-0.7,0.4l-0.3-0.2l0,0.3L14.7,26l-0.2-0.3l0,0.3l-0.7,0.2l-0.2-0.3l0,0.3l-0.8,0.2l-0.2-0.3l-0.1,0.3l-0.8,0.1l-0.1-0.3l-0.1,0.3
			l-0.8,0l-0.1-0.3l-0.1,0.3l-0.8,0l-0.1-0.3l-0.2,0.3l-0.8-0.1l-0.1-0.3l-0.2,0.3l-0.8-0.2l0-0.3l-0.2,0.3L6.7,26l0-0.3l-0.2,0.3
			l-0.7-0.3l0-0.3l-0.3,0.2l-0.7-0.4L5,24.7l-0.3,0.2l-0.6-0.5l0.1-0.3l-0.3,0.2l-0.6-0.5L3.5,23.5L3.5,23.5z M10.3,16.5
			c0.3,0.2,0.7,0.2,0.9,0c0.2-0.3,0.2-0.7,0-0.9c-0.3-0.2-0.7-0.2-0.9,0C10,15.8,10,16.3,10.3,16.5L10.3,16.5z M8,14
			c0.3-1.1-0.5-2.3-1.6-2.5c-1.1-0.3-2.3,0.5-2.5,1.6c-0.3,1.1,0.5,2.3,1.6,2.5C6.6,15.8,7.7,15.1,8,14L8,14z M10.4,19.5
			C9.2,19.8,8.6,21,9,22.1c0.3,1.1,1.5,1.7,2.6,1.4c1.1-0.3,1.7-1.5,1.4-2.6C12.6,19.8,11.5,19.1,10.4,19.5L10.4,19.5z M13.9,14.7
			c0.8,0.8,2.2,0.7,3-0.1c0.8-0.8,0.7-2.2-0.1-3c-0.8-0.8-2.2-0.7-3,0.1C13,12.6,13.1,13.9,13.9,14.7z"/>
		<path fill-rule="evenodd" clip-rule="evenodd" fill="#3D3323" d="M4.1,22.8L4.1,22.8l-0.6,0.3l-0.3,0.1L3,23l0.1-0.3l0.3-0.6l0,0
			l-0.6,0.2l-0.3,0.1l-0.2-0.2L2.6,22L3,21.5l0,0l-0.7,0.2L2,21.7l-0.2-0.3l0.2-0.2l0.4-0.5l0,0l-0.7,0.1l-0.3,0.1l-0.1-0.3l0.2-0.2
			l0.5-0.5l0,0l-0.7,0l-0.3,0L1,19.7l0.2-0.2l0.5-0.4l0,0l-0.7,0l-0.3,0l-0.1-0.3l0.2-0.2l0.6-0.4l0,0l-0.7-0.1l-0.3,0l-0.1-0.3
			l0.3-0.1l0.6-0.3l0,0l-0.7-0.1l-0.3-0.1l0-0.3l0.3-0.1l0.6-0.3v0l-0.7-0.2l-0.3-0.1l0-0.3l0.3-0.1l0.7-0.2v0l-0.6-0.3l-0.3-0.1
			l0-0.3l0.3-0.1l0.7-0.1l0,0l-0.6-0.3l-0.3-0.1l0.1-0.3l0.3,0l0.7-0.1v0L1,13.4l-0.2-0.2l0.1-0.3l0.3,0l0.7,0v0l-0.5-0.4L1,12.3
			L1.1,12l0.3,0l0.7,0.1l-0.5-0.5l-0.2-0.2l0.1-0.3l0.3,0l0.7,0.1l-0.4-0.5l-0.2-0.2L2,10.3l0.3,0.1L3,10.5L2.6,10L2.4,9.7l0.2-0.2
			l0.3,0.1l0.6,0.2L3.2,9.2L3.1,9l0.2-0.2l0.3,0.1l0.6,0.3L3.9,8.5L3.8,8.3L4,8.1l0.3,0.2l0.6,0.4L4.6,7.9L4.5,7.6l0.2-0.2L5,7.6
			l0.6,0.4L5.4,7.4L5.4,7.1l0.3-0.2l0.2,0.2l0.5,0.5L6.3,6.9l0-0.3l0.3-0.1l0.2,0.2l0.5,0.5l0-0.7l0-0.3l0.3-0.1l0.2,0.2L8,6.9
			l0-0.7l0-0.3l0.3-0.1l0.2,0.3l0.4,0.6L9,6l0-0.3l0.3,0L9.5,6l0.3,0.6l0.2-0.7L10,5.6l0.3,0l0.1,0.3l0.2,0.6l0.2-0.7L11,5.6l0.3,0
			l0.1,0.3l0.2,0.7l0.3-0.6L12,5.7l0.3,0L12.3,6l0.1,0.7l0.3-0.6l0.2-0.3l0.3,0.1l0,0.3l0.1,0.7l0.4-0.6l0.2-0.2l0.3,0.1l0,0.3
			l0,0.7l0.5-0.5l0.2-0.2l0.3,0.1l0,0.3L15,7.4L15.4,7l0.2-0.2l0.3,0.1l-0.1,0.3l-0.1,0.6l0.5-0.4l0.2-0.2l0.3,0.2l-0.1,0.3
			l-0.2,0.5l0.5-0.3l0.2-0.2l0.2,0.2l-0.1,0.3L17,8.7l0.4-0.3l0.3-0.1L18,8.5l-0.1,0.3l-0.3,0.6l0,0l0.6-0.3L18.4,9l0.2,0.2
			l-0.2,0.3L18.1,10l0,0l0.6-0.2l0.3-0.1l0.2,0.2l-0.2,0.2l-0.4,0.6l0,0l0.7-0.2l0.3-0.1l0.2,0.3L19.6,11l-0.5,0.5l0,0l0.7-0.1
			l0.3,0l0.1,0.3L20,11.9l-0.5,0.5l0,0l0.7,0l0.3,0l0.1,0.3l-0.2,0.2l-0.5,0.4l0,0l0.7,0l0.3,0l0.1,0.3l-0.3,0.2L20.1,14l0,0
			l0.7,0.1l0.3,0l0,0.3l-0.3,0.1l-0.6,0.3l0,0l0.7,0.2l0.3,0.1l0,0.3l-0.3,0.1l-0.6,0.2l0,0l0.6,0.2l0.3,0.1l0,0.3l-0.3,0.1
			l-0.7,0.2l0,0l0.6,0.3l0.3,0.1l0,0.3l-0.3,0.1l-0.7,0.1l0,0l0.6,0.3l0.3,0.1l-0.1,0.3l-0.3,0l-0.7,0.1l0,0l0.5,0.4l0.2,0.2
			l-0.1,0.3l-0.3,0l-0.7,0l0,0l0.5,0.4l0.2,0.2l-0.1,0.3l-0.3,0l-0.7-0.1l0,0l0.5,0.5l0.2,0.2l-0.1,0.3l-0.3-0.1L18.9,21l0,0
			l0.4,0.5l0.2,0.2L19.3,22L19,21.9l-0.6-0.2l0,0l0.4,0.6l0.2,0.3l-0.2,0.2l-0.3-0.1l-0.6-0.3l0,0l0.3,0.6l0.1,0.3L18,23.5l-0.3-0.1
			L17.2,23l0,0l0.3,0.6l0.1,0.3l-0.2,0.2L17,24l-0.6-0.4l0,0l0.2,0.6l0.1,0.3l-0.2,0.2l-0.2-0.2l-0.5-0.4l0,0l0.1,0.7l0.1,0.3
			l-0.3,0.1L15.4,25L15,24.6l0,0l0.1,0.7l0,0.3l-0.3,0.1l-0.2-0.2l-0.4-0.5l0,0l0,0.7l0,0.3L13.8,26l-0.2-0.2l-0.4-0.5l0,0l-0.1,0.7
			l0,0.3l-0.3,0.1L12.7,26l-0.3-0.6l0,0L12.3,26l-0.1,0.3l-0.3,0l-0.1-0.3l-0.3-0.6l0,0l-0.2,0.6l-0.1,0.3l-0.3,0l-0.1-0.3l-0.2-0.6
			h0l-0.2,0.6l-0.1,0.3l-0.3,0l-0.1-0.3l-0.2-0.7l0,0l-0.3,0.6l-0.1,0.3l-0.3,0l0-0.3l-0.1-0.7l0,0l-0.4,0.6l-0.2,0.3L8,26.1l0-0.3
			l0-0.7l0,0l-0.4,0.5l-0.2,0.2l-0.3-0.1l0-0.3l0-0.7l0,0l-0.5,0.5l-0.2,0.2l-0.3-0.1l0-0.3l0.1-0.7l0,0l-0.5,0.5l-0.2,0.2l-0.3-0.2
			l0.1-0.3L5.5,24l0,0L5,24.4l-0.2,0.2l-0.2-0.2l0.1-0.3l0.2-0.6l0,0l-0.6,0.4L4,23.9l-0.2-0.2l0.1-0.3L4.1,22.8L4.1,22.8z
			 M10.1,16.7c0.4,0.4,1,0.3,1.4-0.1c0.4-0.4,0.3-1-0.1-1.4c-0.4-0.4-1-0.3-1.4,0.1C9.7,15.7,9.7,16.4,10.1,16.7L10.1,16.7z
			 M8.3,14.1c0.3-1.3-0.5-2.6-1.8-2.9c-1.3-0.3-2.6,0.5-2.9,1.8c-0.3,1.3,0.5,2.6,1.8,2.9C6.7,16.2,8,15.4,8.3,14.1L8.3,14.1z
			 M10.3,19.2c-1.3,0.4-2,1.7-1.6,3c0.4,1.3,1.7,2,3,1.6c1.3-0.4,2-1.7,1.6-3C12.9,19.5,11.5,18.8,10.3,19.2L10.3,19.2z M13.7,14.9
			c1,0.9,2.5,0.9,3.4-0.1c0.9-1,0.9-2.5-0.1-3.4c-1-0.9-2.5-0.9-3.4,0.1C12.6,12.5,12.7,14,13.7,14.9z"/>
		<circle fill-rule="evenodd" clip-rule="evenodd" fill="#493D29" cx="29" cy="5.2" r="0.9"/>
		<circle fill-rule="evenodd" clip-rule="evenodd" fill="#493D29" cx="29.1" cy="5.2" r="0.6"/>
		<path fill-rule="evenodd" clip-rule="evenodd" fill="#3D3323" d="M29.2,0.6L29.2,0.6l0.1,0l0.1,0l0,0l0.2,0l0,0l0.1,0l0.1,0l0,0
			l0.2,0l0,0l0.1,0l0.1,0l0,0l0.2,0.1l0,0l0.1,0l0.1,0l0,0L30.9,1l0,0L31,1l0.1,0l0,0l0.2,0.1l0,0l0.1,0l0.1,0.1l0,0l0.2,0.1l0,0
			l0.1,0.1l0.1,0.1l0,0L32,1.7l0,0l0.1,0.1l0.1,0.1l0,0L32.3,2l0,0l0.1,0.1l0.1,0.1l0,0l0.1,0.2l0,0l0.1,0.1l0.1,0.1l0,0l0.1,0.2
			l0,0l0.1,0.1L33,2.9l0,0l0.1,0.2l0,0l0,0.1l0,0.1l0,0l0.1,0.2h0l0,0.1l0,0.1l0,0l0.1,0.2l0,0l0,0.1l0,0.1l0,0l0,0.2l0,0l0,0.1
			l0,0.1l0,0l0,0.2l0,0l0,0.1l0,0.1l0,0l0,0.2l0,0l0,0.1l0,0.1l0,0l0,0.2l0,0l0,0.1l0,0.1l0,0l0,0.2l0,0l0,0.1l0,0.1l0,0l-0.1,0.2
			l0,0l0,0.1l0,0.1l0,0l-0.1,0.2l0,0l0,0.1l0,0.1l0,0l-0.1,0.2l0,0L33,7.4l0,0.1l0,0l-0.1,0.2l0,0l-0.1,0.1l-0.1,0.1l0,0L32.6,8l0,0
			l-0.1,0.1l-0.1,0.1l0,0l-0.1,0.2l0,0l-0.1,0.1l-0.1,0.1l0,0L32,8.7l0,0L32,8.7l-0.1,0.1l0,0l-0.2,0.1l0,0L31.6,9l-0.1,0.1l0,0
			l-0.2,0.1l0,0l-0.1,0l-0.1,0.1l0,0l-0.2,0.1l0,0l-0.1,0l-0.1,0l0,0l-0.2,0.1l0,0l-0.1,0l-0.1,0l0,0l-0.2,0l0,0l-0.1,0l-0.1,0l0,0
			l-0.1,0l0,0l-0.1,0l-0.1,0l0,0l-0.1,0l0,0l-0.1,0l-0.1,0l0,0l-0.1,0l0,0l-0.1,0l-0.1,0l0,0l-0.2,0l0,0l-0.1,0l-0.1,0l0,0l-0.2,0
			l0,0l-0.1,0l-0.1,0l0,0l-0.2-0.1l0,0l-0.1,0l-0.1,0l0,0l-0.2-0.1l0,0l-0.1,0l-0.1,0l0,0l-0.2-0.1l0,0l-0.1-0.1l-0.1,0l0,0
			l-0.2-0.1l0,0l-0.1-0.1l-0.1-0.1l0,0l-0.2-0.1l0,0l-0.1-0.1L26,8.8l0,0l-0.2-0.1l0,0l-0.1-0.1l-0.1-0.1l0,0l-0.1-0.2l0,0l-0.1-0.1
			l-0.1-0.1l0,0L25.2,8l0,0l-0.1-0.1l-0.1-0.1l0,0L25,7.6l0,0l0-0.1l-0.1-0.1l0,0l-0.1-0.2l0,0l0-0.1l-0.1-0.1l0,0l-0.1-0.2h0l0-0.1
			l0-0.1l0,0l-0.1-0.2l0,0l0-0.1l0-0.1l0,0l0-0.2l0,0l0-0.1l0-0.1l0,0l0-0.2l0,0l0-0.1l0-0.1l0,0l0-0.2l0,0l0-0.1l0-0.1l0,0l0-0.2
			l0,0l0-0.1l0-0.1l0,0l0-0.2l0,0l0-0.1l0-0.1l0,0l0.1-0.2l0,0l0-0.1l0-0.1l0,0l0.1-0.2l0,0l0-0.1l0-0.1l0,0L24.8,3l0,0l0.1-0.1
			l0.1-0.1l0,0l0.1-0.2l0,0l0.1-0.1l0.1-0.1l0,0l0.1-0.2l0,0l0.1-0.1l0.1-0.1l0,0L25.6,2l0,0l0.1-0.1l0.1-0.1l0,0l0.2-0.1l0,0
			L26,1.6l0.1-0.1l0,0l0.2-0.1l0,0l0.1-0.1l0.1-0.1l0,0l0.2-0.1l0,0l0.1,0L26.8,1l0,0L27,1l0,0l0.1,0l0.1,0l0,0l0.2-0.1l0,0l0.1,0
			l0.1,0l0,0l0.2-0.1l0,0l0.1,0l0.1,0l0,0l0.2,0l0,0l0.1,0l0.1,0l0,0l0.2,0l0,0l0.1,0l0.1,0l0,0L29.2,0.6L29.2,0.6z M29,4.8
			c-0.2,0-0.4,0.2-0.4,0.4c0,0.2,0.2,0.4,0.4,0.4c0.2,0,0.4-0.2,0.4-0.4C29.3,5,29.2,4.8,29,4.8z"/>
		<path fill-rule="evenodd" clip-rule="evenodd" fill="#49433E" d="M29.2,1.3L29.2,1.3l0.1-0.3l0.1-0.1l0.1,0l0,0.1l0.1,0.3l0,0
			l0.1-0.2L29.8,1l0.1,0l0,0.1l0,0.3l0,0l0.2-0.2l0.1-0.1l0.1,0v0.1l0,0.3l0,0l0.2-0.2l0.1-0.1l0.1,0l0,0.1l0,0.3l0,0l0.2-0.2
			l0.1-0.1L31,1.5l0,0.1L31,1.9l0,0l0.2-0.2l0.1-0.1l0.1,0.1l0,0.1l-0.1,0.3l0,0l0.2-0.2l0.1-0.1l0.1,0.1l0,0.1l-0.1,0.3l0,0
			l0.3-0.1l0.1-0.1L32,2.2L32,2.3l-0.1,0.3l0,0l0.3-0.1l0.1,0l0.1,0.1l-0.1,0.1l-0.2,0.2v0l0.3-0.1l0.1,0l0.1,0.1l-0.1,0.1l-0.2,0.2
			l0,0l0.3-0.1l0.1,0l0.1,0.1l-0.1,0.1l-0.2,0.2h0l0.3,0l0.1,0l0,0.1l-0.1,0.1l-0.2,0.2l0,0l0.3,0l0.1,0l0,0.1L32.9,4l-0.2,0.2
			l0.3,0l0.1,0l0,0.1L33,4.4l-0.2,0.1l0.3,0.1l0.1,0l0,0.1l-0.1,0.1l-0.3,0.1L33.1,5l0.1,0l0,0.1l-0.1,0l-0.3,0.1l0.3,0.1l0.1,0
			l0,0.1l-0.1,0l-0.3,0.1l0.3,0.1l0.1,0.1l0,0.1L33,6l-0.3,0L33,6.1l0.1,0.1l0,0.1l-0.1,0l-0.3,0l0.2,0.2L33,6.6l0,0.1l-0.1,0
			l-0.3,0l0.2,0.2L32.8,7l-0.1,0.1l-0.1,0l-0.3,0l0.2,0.2l0.1,0.1l-0.1,0.1l-0.1,0l-0.3-0.1l0.2,0.2l0.1,0.1l-0.1,0.1l-0.1,0L32,7.6
			l0.1,0.2L32.2,8l-0.1,0.1L32,8l-0.3-0.1l0.1,0.3l0.1,0.1l-0.1,0.1l-0.1-0.1l-0.2-0.1l0.1,0.3l0,0.1l-0.1,0.1l-0.1-0.1l-0.2-0.2
			l0.1,0.3l0,0.1l-0.1,0.1l-0.1-0.1l-0.2-0.2l0,0.3l0,0.1l-0.1,0.1L30.7,9l-0.2-0.2l0,0.3l0,0.1l-0.1,0l-0.1-0.1l-0.2-0.2l0,0.3
			l0,0.1l-0.1,0L30,9.2l-0.1-0.2l0,0.2l0,0.1l-0.1,0l-0.1-0.1l-0.1-0.2l0,0.2l0,0.1l-0.1,0l0-0.1l-0.1-0.2l-0.1,0.2l0,0.1l-0.1,0
			l0-0.1l-0.1-0.2l-0.1,0.2l0,0.1l-0.1,0l0-0.1l-0.1-0.3h0l-0.1,0.3l-0.1,0.1l-0.1,0l0-0.1l0-0.3l0,0L28,9.3L28,9.4l-0.1,0l0-0.1
			l0-0.3l0,0l-0.2,0.2l-0.1,0.1l-0.1,0l0-0.1l0-0.3l0,0L27.3,9l-0.1,0.1l-0.1-0.1l0-0.1l0-0.3l0,0l-0.2,0.2l-0.1,0.1l-0.1-0.1l0-0.1
			l0.1-0.3l0,0l-0.2,0.2l-0.1,0.1l-0.1-0.1l0-0.1l0.1-0.3l0,0l-0.2,0.1l-0.1,0.1l-0.1-0.1l0-0.1L26.2,8l0,0L26,8.1l-0.1,0.1
			l-0.1-0.1L25.8,8L26,7.8l0,0l-0.3,0.1l-0.1,0l-0.1-0.1l0.1-0.1l0.2-0.2l0,0l-0.3,0.1l-0.1,0l-0.1-0.1l0.1-0.1l0.2-0.2l0,0l-0.3,0
			l-0.1,0l-0.1-0.1L25.2,7l0.2-0.2l0,0l-0.3,0l-0.1,0l0-0.1L25,6.7l0.2-0.2l0,0l-0.3,0l-0.1,0l0-0.1l0.1-0.1l0.2-0.2l0,0l-0.3,0
			l-0.1,0l0-0.1l0.1-0.1l0.2-0.1l0,0l-0.3-0.1l-0.1,0l0-0.1l0.1,0L25,5.4v0l-0.3-0.1l-0.1,0l0-0.1l0.1,0L25,5v0l-0.3-0.1l-0.1,0
			l0-0.1l0.1,0l0.3-0.1l0,0l-0.2-0.1l-0.1-0.1l0-0.1l0.1,0l0.3,0l0,0l-0.2-0.2l-0.1-0.1l0-0.1L25,4l0.3,0l0,0L25,3.8l-0.1-0.1l0-0.1
			l0.1,0l0.3,0l0,0l-0.2-0.2l-0.1-0.1l0.1-0.1l0.1,0l0.3,0l0,0l-0.2-0.2L25.3,3l0.1-0.1l0.1,0L25.7,3l0,0l-0.2-0.2l-0.1-0.1l0.1-0.1
			l0.1,0L26,2.7l0,0l-0.1-0.2l-0.1-0.1l0.1-0.1L26,2.3l0.2,0.1l0,0l-0.1-0.3L26,2L26.1,2L26.2,2l0.2,0.1l0,0l-0.1-0.3l0-0.1l0.1-0.1
			l0.1,0.1l0.2,0.2l0,0l-0.1-0.3l0-0.1l0.1-0.1l0.1,0.1l0.2,0.2l0,0l0-0.3l0-0.1l0.1-0.1l0.1,0.1l0.2,0.2l0,0l0-0.3l0-0.1l0.1,0
			l0.1,0.1l0.2,0.2l0,0l0-0.3l0-0.1l0.1,0L28,1.1l0.1,0.2l0,0l0-0.3l0-0.1l0.1,0l0.1,0.1l0.1,0.2l0,0l0.1-0.3l0-0.1l0.1,0l0,0.1
			l0.1,0.3h0L29,1l0-0.1l0.1,0l0,0.1L29.2,1.3L29.2,1.3z M29,4.4c-0.4,0-0.8,0.3-0.8,0.7c0,0.4,0.3,0.8,0.7,0.8
			c0.4,0,0.8-0.3,0.8-0.7C29.7,4.8,29.4,4.5,29,4.4z"/>
		<path fill-rule="evenodd" clip-rule="evenodd" fill="#FFFFFF" d="M11.1,19.6L22,9.2c0.3-0.3,0.9-0.5,1.3-0.1l1.4,1.6
			c0.4,0.4,0.1,1-0.2,1.3l-11.7,9.8c0,0.1,0,0.1-0.1,0.2c-0.3,1-1.4,1.6-2.4,1.2s-1.6-1.4-1.2-2.4C9.3,20,10.2,19.4,11.1,19.6z"/>
		<path fill-rule="evenodd" clip-rule="evenodd" fill="#3D3323" d="M11.3,20l11-10.5c0.2-0.2,0.6-0.3,0.7-0.1l1.4,1.6
			c0.1,0.2,0.1,0.5-0.2,0.7l-11.9,9.9c0,0.1,0,0.2-0.1,0.3c-0.2,0.8-1.1,1.2-1.8,1c-0.8-0.2-1.2-1.1-1-1.8
			C9.7,20.2,10.5,19.8,11.3,20z"/>
		<path fill-rule="evenodd" clip-rule="evenodd" fill="#FFFFFF" d="M16.9,18.2l-2.3-2.5c-0.4-0.4-0.3-1.1,0.1-1.4l12-10.7
			c0.4-0.4,1.1-0.3,1.4,0.1l2.3,2.5c0.4,0.4,0.3,1.1-0.1,1.4l-12,10.7C18,18.7,17.3,18.6,16.9,18.2z"/>
		<path fill-rule="evenodd" clip-rule="evenodd" fill="#3D3323" d="M17.3,18L15,15.4c-0.2-0.2-0.2-0.6,0-0.9L27,3.9
			c0.2-0.2,0.6-0.2,0.9,0l2.3,2.5c0.2,0.2,0.2,0.6,0,0.9L18.1,18C17.9,18.2,17.5,18.2,17.3,18z"/>
		<path fill-rule="evenodd" clip-rule="evenodd" fill="#FFFFFF" d="M17.9,11c0-0.2,0.1-0.3,0.3-0.4l0.3-0.3c0.1-0.1,0.3-0.2,0.4-0.2
			c0-0.2,0.1-0.3,0.3-0.4l0.3-0.3c0.1-0.1,0.3-0.2,0.4-0.2c0-0.2,0.1-0.3,0.3-0.4l0.3-0.3c0.1-0.1,0.3-0.2,0.4-0.2
			c0-0.2,0.1-0.3,0.3-0.4l0.3-0.3c0.1-0.1,0.3-0.2,0.4-0.2c0-0.2,0.1-0.3,0.3-0.4l0.3-0.3c0.4-0.3,0.9-0.3,1.3,0.1l3.4,3.7
			c0.3,0.4,0.3,0.9-0.1,1.3l-0.3,0.3c-0.1,0.1-0.3,0.2-0.4,0.2c0,0.2-0.1,0.3-0.3,0.4L25.6,13c-0.1,0.1-0.3,0.2-0.4,0.2
			c0,0.2-0.1,0.3-0.3,0.4l-0.3,0.3c-0.1,0.1-0.3,0.2-0.4,0.2c0,0.2-0.1,0.3-0.3,0.4l-0.3,0.3c-0.1,0.1-0.3,0.2-0.4,0.2
			c0,0.2-0.1,0.3-0.3,0.4l-0.3,0.3c-0.1,0.1-0.3,0.2-0.4,0.2c0,0.2-0.1,0.3-0.3,0.4l-0.3,0.3c-0.4,0.3-0.9,0.3-1.3-0.1l-3.4-3.7
			c-0.3-0.4-0.3-0.9,0.1-1.3l0.3-0.3C17.6,11.1,17.7,11,17.9,11z"/>
		<path fill-rule="evenodd" clip-rule="evenodd" fill="#49433E" d="M20.7,16.2l-3.4-3.7c-0.2-0.2-0.2-0.5,0-0.7l0.3-0.3
			c0.2-0.2,0.5-0.2,0.7,0c-0.2-0.2-0.2-0.5,0-0.7l0.3-0.3c0.2-0.2,0.5-0.2,0.7,0c-0.2-0.2-0.2-0.5,0-0.7l0.3-0.3
			c0.2-0.2,0.5-0.2,0.7,0c-0.2-0.2-0.2-0.5,0-0.7l0.3-0.3c0.2-0.2,0.5-0.2,0.7,0c-0.2-0.2-0.2-0.5,0-0.7L21.7,8
			c0.2-0.2,0.5-0.2,0.7,0c-0.2-0.2-0.2-0.5,0-0.7l0.3-0.3c0.2-0.2,0.5-0.2,0.7,0l3.4,3.7c0.2,0.2,0.2,0.5,0,0.7l-0.3,0.3
			c-0.2,0.2-0.5,0.2-0.7,0c0.2,0.2,0.2,0.5,0,0.7l-0.3,0.3c-0.2,0.2-0.5,0.2-0.7,0c0.2,0.2,0.2,0.5,0,0.7l-0.3,0.3
			c-0.2,0.2-0.5,0.2-0.7,0c0.2,0.2,0.2,0.5,0,0.7l-0.3,0.3c-0.2,0.2-0.5,0.2-0.7,0c0.2,0.2,0.2,0.5,0,0.7l-0.3,0.3
			c-0.2,0.2-0.5,0.2-0.7,0c0.2,0.2,0.2,0.5,0,0.7l-0.3,0.3C21.2,16.4,20.9,16.4,20.7,16.2z"/>
		<circle fill-rule="evenodd" clip-rule="evenodd" fill="#FFFFFF" cx="10.9" cy="21.4" r="0.5"/>
		<path fill-rule="evenodd" clip-rule="evenodd" fill="#FFFFFF" d="M31,5.3c-0.1,1-0.9,1.8-2,1.8c-1-0.1-1.8-0.9-1.8-2
			c0.1-1,0.9-1.8,2-1.8C30.2,3.4,31,4.3,31,5.3z"/>
		<circle fill-rule="evenodd" clip-rule="evenodd" fill="#3D3323" cx="29.1" cy="5.2" r="1.5"/>
		<circle fill-rule="evenodd" clip-rule="evenodd" fill="#FFFFFF" cx="29.1" cy="5.2" r="0.5"/>
	</g>
</g>
</svg>
