<?xml version="1.0" encoding="utf-8"?>
<!-- Generator: Adobe Illustrator 18.0.0, SVG Export Plug-In . SVG Version: 6.00 Build 0)  -->
<!DOCTYPE svg PUBLIC "-//W3C//DTD SVG 1.1//EN" "http://www.w3.org/Graphics/SVG/1.1/DTD/svg11.dtd">
<svg version="1.1" id="Слой_1" xmlns="http://www.w3.org/2000/svg" xmlns:xlink="http://www.w3.org/1999/xlink" x="0px" y="0px"
	 viewBox="0 0 27.1 27.1" enable-background="new 0 0 27.1 27.1" xml:space="preserve">
<path fill-rule="evenodd" clip-rule="evenodd" fill="#3D3323" d="M1.2,13.3L1.2,13.3l-0.8-0.3L0,12.8l0-0.4l0.4-0.1l0.9-0.2l0,0
	l-0.8-0.4l-0.3-0.2l0.1-0.4l0.4-0.1L1.5,11l0,0l-0.7-0.5l-0.3-0.2l0.1-0.4l0.4,0l0.9,0l0,0L1.1,9.3L0.8,9.1l0.1-0.4l0.4,0l0.9,0l0,0
	L1.5,8.1L1.2,7.9l0.2-0.4l0.4,0.1l0.9,0.1l0,0L2.1,7L1.8,6.7L2,6.4l0.4,0.1l0.9,0.2l0,0L2.8,6L2.5,5.7l0.2-0.3l0.4,0.1L4,5.8l0,0
	L3.5,5L3.3,4.7l0.3-0.3l0.4,0.2l0.8,0.4l0,0L4.4,4.1L4.2,3.7l0.3-0.3l0.3,0.2l0.8,0.4l0,0L5.3,3.3L5.2,2.9l0.3-0.2l0.3,0.2l0.7,0.5
	l0,0L6.3,2.5L6.2,2.2l0.3-0.2l0.3,0.3l0.7,0.6h0L7.4,1.9L7.3,1.5l0.3-0.2L8,1.6l0.6,0.6l0,0L8.5,1.4l0-0.4l0.4-0.1l0.2,0.3l0.6,0.7
	l0-0.9l0-0.4l0.4-0.1l0.2,0.3l0.5,0.8l0.1-0.9l0-0.4l0.4-0.1l0.2,0.3l0.4,0.8l0.2-0.9l0.1-0.4l0.4,0l0.1,0.4l0.3,0.8l0.3-0.9L13.5,0
	l0.4,0L14,0.4l0.3,0.9l0.4-0.8l0.2-0.4l0.4,0l0.1,0.4l0.2,0.9l0.4-0.8L16,0.2l0.4,0.1l0,0.4l0.1,0.9l0.5-0.7l0.2-0.3l0.4,0.1l0,0.4
	l0,0.9l0.6-0.7l0.2-0.3l0.4,0.1l0,0.4l-0.1,0.9l0.6-0.6l0.3-0.3L20,1.6L19.9,2l-0.2,0.9l0.7-0.6l0.3-0.2l0.3,0.2L21,2.7l-0.2,0.9
	L21.5,3l0.3-0.2l0.3,0.2L22,3.4l-0.3,0.8l0.8-0.4l0.3-0.2l0.3,0.3l-0.2,0.3l-0.4,0.8l0.8-0.4l0.4-0.2l0.3,0.3l-0.2,0.3l-0.5,0.8
	l0.9-0.3l0.4-0.1l0.2,0.3l-0.2,0.3l-0.5,0.7l0.9-0.2l0.4-0.1L25.4,7l-0.3,0.3l-0.6,0.7l0.9-0.1l0.4,0L26,8.1l-0.3,0.3L25,9l0.9,0
	l0.4,0l0.1,0.4l-0.3,0.2l-0.6,0.4l0.7,0l0.4,0l0.1,0.4l-0.3,0.2L25.8,11l0.8,0.1l0.4,0.1l0.1,0.4l-0.3,0.2L26,12l0.7,0.2l0.4,0.1
	l0,0.4l-0.4,0.1l-0.6,0.2l0.6,0.2l0.4,0.1v0.4l-0.4,0.1l-0.9,0.3v0l0.8,0.3l0.4,0.2l0,0.4l-0.4,0.1l-0.9,0.2l0,0l0.8,0.4l0.3,0.2
	l-0.1,0.4l-0.4,0l-0.9,0.1l0,0l0.7,0.5l0.3,0.2l-0.1,0.4l-0.4,0l-0.9,0l0,0l0.7,0.6l0.3,0.2l-0.1,0.4l-0.4,0l-0.9-0.1l0,0l0.6,0.6
	l0.3,0.3l-0.2,0.3l-0.4-0.1l-0.9-0.1l0,0l0.6,0.7l0.3,0.3L24.9,21l-0.4-0.1l-0.9-0.2l0,0l0.5,0.7l0.2,0.3L24.1,22l-0.4-0.1l-0.8-0.3
	l0,0l0.4,0.8l0.2,0.3L23.3,23l-0.4-0.2l-0.8-0.4l0,0l0.4,0.8l0.2,0.4l-0.3,0.3L22,23.7l-0.8-0.5l0,0l0.3,0.8l0.1,0.4l-0.3,0.2
	L21,24.4l-0.7-0.5l0,0l0.2,0.9l0.1,0.4l-0.3,0.2L20,25.1l-0.7-0.6l0,0l0.1,0.9l0.1,0.4l-0.4,0.2l-0.3-0.3L18.3,25l0,0l0,0.9l0,0.4
	l-0.4,0.1l-0.2-0.3l-0.5-0.7l0,0l0,0.9l0,0.4l-0.4,0.1l-0.2-0.3L16,25.7l0,0l-0.1,0.9l-0.1,0.4L15.4,27l-0.2-0.3l-0.4-0.8l0,0
	l-0.2,0.8l-0.1,0.4l-0.4,0L14,26.7l-0.3-0.8h0l-0.3,0.8l-0.1,0.4l-0.4,0l-0.1-0.4l-0.2-0.8l0,0l-0.4,0.8L12,27l-0.4,0l-0.1-0.4
	l-0.2-0.9l0,0l-0.4,0.8l-0.2,0.3l-0.4-0.1l0-0.4l-0.1-0.9l0,0l-0.5,0.7l-0.2,0.3l-0.4-0.1l0-0.4l0-0.9l0,0l-0.6,0.7L8.3,26l-0.4-0.2
	l0-0.4l0.1-0.9l0,0l-0.6,0.6l-0.3,0.3l-0.3-0.2l0.1-0.4l0.2-0.9l0,0l-0.7,0.5L6,24.8l-0.3-0.2l0.1-0.4l0.3-0.8l0,0l-0.7,0.5L5,24.1
	l-0.3-0.3l0.1-0.4l0.3-0.8l0,0L4.4,23l-0.3,0.2l-0.3-0.3L4,22.6l0.4-0.8l0,0l-0.8,0.3l-0.4,0.1L2.9,22l0.2-0.3l0.5-0.7l0,0l-0.8,0.2
	l-0.4,0.1l-0.2-0.3l0.2-0.3L3,20l0,0l-0.9,0.2l-0.4,0.1l-0.2-0.3l0.3-0.3l0.6-0.6l0,0L1.5,19l-0.4,0L1,18.7l0.3-0.3L2,17.9l0,0
	l-0.9,0l-0.4,0l-0.1-0.4l0.3-0.2l0.7-0.5l0,0l-0.9-0.1l-0.4,0l-0.1-0.4L0.6,16l0.8-0.4l0,0l-0.9-0.2l-0.4-0.1l0-0.4l0.4-0.2l0.8-0.4
	l0,0l-0.8-0.2L0,14.1l0-0.4l0.4-0.1L1.2,13.3L1.2,13.3z M12.3,13.6c0,0.7,0.6,1.3,1.3,1.3s1.3-0.6,1.3-1.3c0-0.7-0.6-1.3-1.3-1.3
	S12.3,12.8,12.3,13.6L12.3,13.6z M13.2,9.5c1.5-0.9,2-2.8,1.1-4.3c-0.9-1.5-2.8-2-4.3-1.2c-1.5,0.9-2,2.8-1.2,4.3
	C9.8,9.9,11.7,10.4,13.2,9.5L13.2,9.5z M10.1,15.9C8.6,15,6.7,15.5,5.8,17c-0.9,1.5-0.4,3.4,1.2,4.3c1.5,0.9,3.4,0.4,4.3-1.1
	C12.1,18.7,11.6,16.7,10.1,15.9L10.1,15.9z M17.2,15.4c0,1.7,1.4,3.1,3.1,3.1c1.7,0,3.1-1.4,3.1-3.1c0-1.7-1.4-3.1-3.1-3.1
	C18.6,12.2,17.2,13.6,17.2,15.4z"/>
</svg>
