<?xml version="1.0" encoding="utf-8"?>
<!-- Generator: Adobe Illustrator 18.0.0, SVG Export Plug-In . SVG Version: 6.00 Build 0)  -->
<!DOCTYPE svg PUBLIC "-//W3C//DTD SVG 1.1//EN" "http://www.w3.org/Graphics/SVG/1.1/DTD/svg11.dtd">
<svg version="1.1" id="Слой_1" xmlns="http://www.w3.org/2000/svg" xmlns:xlink="http://www.w3.org/1999/xlink" x="0px" y="0px"
	 viewBox="0 0 43.1 43" enable-background="new 0 0 43.1 43" xml:space="preserve">
<path fill-rule="evenodd" clip-rule="evenodd" fill="#FFFFFF" d="M1.9,21.1L1.9,21.1l-1.3-0.5L0,20.3l0-0.6l0.6-0.1L2,19.2v0
	l-1.3-0.6l-0.6-0.3l0.1-0.6L1,17.6l1.4-0.2l0,0l-1.2-0.7l-0.5-0.3l0.2-0.6l0.6,0l1.4-0.1l0,0l-1.1-0.9l-0.5-0.4l0.2-0.6l0.6,0
	l1.4,0.1l0,0l-1-1L2,12.5l0.3-0.6L2.9,12l1.4,0.2l0,0l-0.9-1.1l-0.4-0.5l0.3-0.5l0.6,0.1l1.4,0.3l0,0L4.4,9.5L4,9l0.4-0.5L5,8.7
	l1.3,0.5l0,0L5.6,7.9L5.3,7.4l0.4-0.5l0.6,0.3l1.3,0.6l0,0L7,6.5L6.7,5.9l0.5-0.4l0.5,0.3l1.2,0.7v0L8.4,5.2L8.2,4.6l0.5-0.4
	l0.5,0.4l1.2,0.8l0,0L10,4L9.9,3.4l0.5-0.3l0.5,0.4L12,4.4l0,0L11.7,3l-0.1-0.6l0.6-0.3l0.4,0.4l1,1h0l-0.1-1.4l0-0.6l0.6-0.2
	l0.4,0.5l0.9,1.1l0-1.4l0-0.6L16,0.7l0.3,0.5l0.8,1.2L17.3,1l0.1-0.6L18,0.3l0.3,0.5l0.7,1.3l0.3-1.4l0.1-0.6L20,0.1l0.2,0.6
	l0.5,1.3l0.4-1.4L21.4,0L22,0l0.2,0.6L22.6,2l0.6-1.3l0.2-0.6l0.6,0.1l0.1,0.6l0.3,1.4l0.7-1.2l0.3-0.5l0.6,0.1l0.1,0.6l0.2,1.4
	l0.8-1.2l0.3-0.5L28,1l0,0.6l0,1.4L29,2l0.4-0.5l0.6,0.2l0,0.6l-0.1,1.4l1-1l0.4-0.4l0.6,0.3l-0.1,0.6l-0.3,1.4l1.1-0.9L33,3.3
	l0.5,0.3l-0.2,0.6L33,5.6l1.2-0.8l0.5-0.3l0.5,0.4l-0.2,0.6l-0.5,1.3l1.3-0.7l0.5-0.3l0.4,0.4l-0.3,0.6L35.7,8l1.3-0.6l0.6-0.2
	L38,7.7l-0.3,0.5L37,9.4L38.3,9l0.6-0.2l0.4,0.5l-0.4,0.5L38,11l1.4-0.3l0.6-0.1l0.3,0.5l-0.4,0.5l-1,1.1l1.4-0.2l0.6-0.1l0.3,0.6
	l-0.5,0.4l-1.1,1l1.4,0l0.6,0l0.2,0.6l-0.5,0.4l-0.9,0.7l1.1,0.1l0.6,0l0.2,0.6l-0.5,0.3l-1,0.6l1.2,0.2l0.6,0.1l0.1,0.6l-0.6,0.3
	l-1,0.5l1.1,0.2l0.6,0.1l0.1,0.6l-0.6,0.2l-1,0.4l1,0.3l0.6,0.2v0.6L42.5,22l-1.4,0.4v0l1.3,0.6l0.6,0.2l-0.1,0.6L42.3,24l-1.4,0.3
	l0,0l1.2,0.7l0.5,0.3l-0.1,0.6L42,26l-1.4,0.2l0,0l1.2,0.8l0.5,0.3l-0.2,0.6l-0.6,0l-1.4,0l0,0l1.1,0.9l0.5,0.4l-0.2,0.6l-0.6,0
	l-1.4-0.1l0,0l1,1l0.4,0.4l-0.3,0.6l-0.6-0.1l-1.4-0.2l0,0l0.9,1.1l0.4,0.5l-0.3,0.5l-0.6-0.2l-1.4-0.4l0,0l0.8,1.2l0.4,0.5L38.3,35
	l-0.6-0.2l-1.3-0.5l0,0l0.7,1.2l0.3,0.5L37,36.5l-0.6-0.3l-1.3-0.6l0,0l0.6,1.3l0.3,0.6l-0.5,0.4L35,37.6l-1.2-0.7l0,0l0.4,1.3
	l0.2,0.6l-0.5,0.4l-0.5-0.4L32.3,38l0,0l0.3,1.4l0.1,0.6l-0.5,0.3l-0.5-0.4l-1-0.9l0,0l0.2,1.4l0.1,0.6l-0.6,0.3l-0.4-0.5l-0.9-1
	l0,0l0.1,1.4l0,0.6l-0.6,0.2l-0.4-0.5l-0.8-1.1l0,0l-0.1,1.4l0,0.6l-0.6,0.2l-0.3-0.5l-0.7-1.2l0,0l-0.2,1.4l-0.1,0.6l-0.6,0.1
	l-0.3-0.6L23.6,41l0,0l-0.3,1.3L23.1,43l-0.6,0l-0.2-0.6l-0.5-1.3h0l-0.5,1.3L21.1,43l-0.6,0l-0.2-0.6l-0.4-1.3l0,0l-0.6,1.3
	L19,42.9l-0.6-0.1l-0.1-0.6l-0.2-1.4l0,0L17.4,42L17,42.6l-0.6-0.1l-0.1-0.6l-0.1-1.4l0,0l-0.8,1.1l-0.4,0.5l-0.6-0.2l0-0.6l0-1.4
	l0,0l-0.9,1l-0.4,0.5l-0.6-0.2l0.1-0.6l0.2-1.4l0,0l-1,1l-0.4,0.4l-0.5-0.3l0.1-0.6l0.3-1.4l0,0l-1.1,0.9l-0.5,0.4l-0.5-0.4l0.2-0.6
	l0.4-1.3l0,0l-1.2,0.7L8,38.2l-0.5-0.4l0.2-0.6L8.2,36l0,0L7,36.6l-0.6,0.3L6,36.4l0.3-0.5c0.8-1.6,1-1.4-0.7-0.7l-0.6,0.2l-0.4-0.5
	L5,34.4l0.8-1.2l0,0l-1.3,0.4l-0.6,0.2l-0.3-0.5l0.4-0.5l0.9-1.1l0,0l-1.4,0.3l-0.6,0.1l-0.3-0.5l0.4-0.4l1-1l0,0l-1.4,0.1l-0.6,0.1
	l-0.2-0.6l0.5-0.4l1.1-0.9l0,0l-1.4,0l-0.6,0l-0.2-0.6l0.5-0.4l1.1-0.8l0,0l-1.4-0.1l-0.6-0.1l-0.1-0.6L1,25.5l1.2-0.7l0,0l-1.4-0.3
	l-0.6-0.1l-0.1-0.6l0.6-0.3L2,22.9l0,0l-1.3-0.4L0,22.4l0-0.6l0.6-0.2L1.9,21.1L1.9,21.1z M19.5,21.5c0,1.1,0.9,2,2,2s2-0.9,2-2
	c0-1.1-0.9-2-2-2S19.5,20.4,19.5,21.5z"/>
</svg>
