<?xml version="1.0" encoding="utf-8"?>
<!-- Generator: Adobe Illustrator 18.0.0, SVG Export Plug-In . SVG Version: 6.00 Build 0)  -->
<!DOCTYPE svg PUBLIC "-//W3C//DTD SVG 1.1//EN" "http://www.w3.org/Graphics/SVG/1.1/DTD/svg11.dtd">
<svg version="1.1" id="Слой_1" xmlns="http://www.w3.org/2000/svg" xmlns:xlink="http://www.w3.org/1999/xlink" x="0px" y="0px"
	 viewBox="0 0 40.2 40.2" enable-background="new 0 0 40.2 40.2" xml:space="preserve">
<path fill-rule="evenodd" clip-rule="evenodd" fill="#C4B090" d="M1.8,19.7L1.8,19.7l-1.2-0.5L0,19l0-0.6l0.6-0.1L1.9,18v0l-1.2-0.6
	l-0.5-0.3l0.1-0.6l0.6-0.1l1.3-0.2l0,0l-1.1-0.7l-0.5-0.3l0.1-0.6l0.6,0l1.3-0.1l0,0l-1-0.8l-0.5-0.4l0.2-0.5l0.6,0L3.2,13l0,0
	l-1-0.9l-0.4-0.4l0.3-0.5l0.6,0.1L4,11.4l0,0l-0.9-1L2.7,10L3,9.5l0.6,0.1l1.3,0.3l0,0L4.1,8.9L3.8,8.4l0.3-0.5l0.5,0.2l1.3,0.4l0,0
	L5.2,7.4L4.9,6.9l0.4-0.4l0.5,0.2l1.2,0.5l0,0L6.5,6.1L6.3,5.5l0.4-0.4l0.5,0.3l1.2,0.7v0L7.9,4.8L7.7,4.3l0.5-0.4l0.5,0.3L9.7,5
	l0,0L9.4,3.8L9.2,3.2l0.5-0.3l0.4,0.4l1,0.9l0,0L11,2.8l-0.1-0.6L11.4,2l0.4,0.4l0.9,1h0L12.6,2l0-0.6l0.5-0.2l0.4,0.5l0.8,1l0-1.3
	l0-0.6l0.6-0.2l0.3,0.5L16,2.3l0.2-1.3l0.1-0.6l0.6-0.1l0.3,0.5L17.7,2L18,0.7l0.1-0.6l0.6,0l0.2,0.5l0.5,1.2l0.4-1.3L20,0l0.6,0
	l0.2,0.6l0.4,1.3l0.5-1.2l0.2-0.5l0.6,0.1l0.1,0.6L22.9,2l0.6-1.2l0.3-0.5l0.6,0.1L24.4,1l0.1,1.3l0.7-1.1l0.3-0.5l0.6,0.2l0,0.6
	l0,1.3l0.8-1l0.4-0.4L28,1.6l0,0.6l-0.1,1.3l0.9-0.9l0.4-0.4l0.5,0.3L29.6,3l-0.2,1.3l1-0.8l0.4-0.4l0.5,0.3L31.1,4l-0.4,1.3
	l1.1-0.7l0.5-0.3l0.5,0.4l-0.2,0.5l-0.5,1.2l1.2-0.6l0.5-0.3l0.4,0.4L34,6.3l-0.6,1.2L34.6,7l0.5-0.2l0.4,0.4l-0.3,0.5l-0.7,1.1
	l1.3-0.4l0.6-0.2l0.3,0.5l-0.3,0.5l-0.8,1.1l1.3-0.3l0.6-0.1l0.3,0.5l-0.4,0.4l-0.9,1l1.3-0.2l0.6-0.1l0.2,0.5l-0.4,0.4l-1,0.9
	l1.3,0l0.6,0l0.2,0.5l-0.5,0.3l-0.8,0.6l1,0.1l0.6,0l0.1,0.6l-0.5,0.3l-1,0.6l1.1,0.2l0.6,0.1l0.1,0.6l-0.5,0.3l-0.9,0.5l1,0.2
	l0.6,0.1l0,0.6L39.6,19l-0.9,0.4l0.9,0.3l0.6,0.2v0.6l-0.6,0.2L38.4,21l0,0l1.2,0.5l0.5,0.2l-0.1,0.6l-0.6,0.1l-1.3,0.3l0,0l1.2,0.6
	l0.5,0.3l-0.1,0.6l-0.6,0.1l-1.3,0.2l0,0l1.1,0.7l0.5,0.3L39.3,26l-0.6,0l-1.3,0l0,0l1,0.8l0.4,0.4l-0.2,0.5l-0.6,0l-1.3-0.1l0,0
	l0.9,0.9l0.4,0.4l-0.3,0.5l-0.6-0.1L36,29.2l0,0l0.8,1l0.4,0.4l-0.3,0.5L36.3,31l-1.3-0.3l0,0l0.7,1.1l0.3,0.5l-0.4,0.5l-0.5-0.2
	L34,32l0,0l0.6,1.1l0.3,0.5l-0.4,0.4L34,33.8l-1.2-0.6l0,0l0.5,1.2l0.2,0.5l-0.4,0.4l-0.5-0.3l-1.1-0.7l0,0l0.4,1.2l0.2,0.5
	l-0.5,0.3l-0.5-0.3l-1-0.8l0,0l0.3,1.3l0.1,0.6L30,37.6l-0.4-0.4l-1-0.9l0,0l0.2,1.3l0.1,0.6l-0.5,0.2L27.9,38l-0.9-1l0,0l0,1.3
	l0,0.6l-0.5,0.2l-0.3-0.5l-0.8-1l0,0l-0.1,1.3l0,0.6l-0.6,0.1l-0.3-0.5l-0.7-1.1l0,0l-0.2,1.3l-0.1,0.6L22.9,40l-0.3-0.5L22,38.3
	l0,0l-0.3,1.3l-0.1,0.6l-0.6,0l-0.2-0.5l-0.5-1.2h0l-0.4,1.2l-0.2,0.5l-0.6,0l-0.2-0.6l-0.3-1.2l0,0L18,39.5l-0.2,0.5L17.2,40
	l-0.1-0.6l-0.2-1.3l0,0l-0.7,1.1l-0.3,0.5l-0.6-0.1l0-0.6l-0.1-1.3l0,0l-0.8,1l-0.3,0.5l-0.6-0.2l0-0.6l0-1.3l0,0l-0.8,1l-0.4,0.4
	l-0.5-0.2l0.1-0.6l0.1-1.3l0,0L11,37.4l-0.4,0.4l-0.5-0.3l0.1-0.6l0.3-1.3l0,0l-1,0.8L9,36.8l-0.5-0.3l0.2-0.6L9,34.7l0,0l-1.1,0.7
	l-0.5,0.3L7,35.3l0.2-0.5l0.5-1.2l0,0l-1.2,0.6L6,34.4L5.6,34l0.3-0.5l0.6-1.1l0,0l-1.2,0.5L4.7,33l-0.4-0.4l0.3-0.5L5.4,31l0,0
	l-1.2,0.4l-0.6,0.2l-0.3-0.5l0.4-0.5l0.8-1l0,0l-1.3,0.2l-0.6,0.1l-0.3-0.5L2.7,29l0.9-0.9l0,0l-1.3,0.1l-0.6,0.1l-0.2-0.5l0.4-0.4
	l1-0.8l0,0l-1.3,0l-0.6,0l-0.2-0.6l0.5-0.3l1.1-0.7l0,0l-1.3-0.1l-0.6-0.1l-0.1-0.6l0.5-0.3L2,23.1l0,0l-1.3-0.2l-0.6-0.1l-0.1-0.6
	L0.6,22l1.2-0.5l0,0L0.6,21L0,20.9l0-0.6l0.5-0.2L1.8,19.7L1.8,19.7z M18.2,20.1c0,1.1,0.9,1.9,1.9,1.9c1.1,0,1.9-0.9,1.9-1.9
	c0-1.1-0.9-1.9-1.9-1.9C19,18.2,18.2,19,18.2,20.1L18.2,20.1z M19.6,14.1c2.2-1.3,3-4.1,1.7-6.4c-1.3-2.2-4.1-3-6.4-1.7
	c-2.2,1.3-3,4.1-1.7,6.4C14.5,14.6,17.4,15.4,19.6,14.1L19.6,14.1z M15,23.5c-2.2-1.3-5.1-0.5-6.4,1.7c-1.3,2.2-0.5,5.1,1.7,6.4
	c2.2,1.3,5.1,0.5,6.4-1.7C18,27.7,17.2,24.8,15,23.5L15,23.5z M25.4,22.8c0,2.6,2.1,4.7,4.7,4.7s4.7-2.1,4.7-4.7
	c0-2.6-2.1-4.7-4.7-4.7S25.4,20.2,25.4,22.8z"/>
</svg>
