<?xml version="1.0" encoding="utf-8"?>
<!-- Generator: Adobe Illustrator 18.0.0, SVG Export Plug-In . SVG Version: 6.00 Build 0)  -->
<!DOCTYPE svg PUBLIC "-//W3C//DTD SVG 1.1//EN" "http://www.w3.org/Graphics/SVG/1.1/DTD/svg11.dtd">
<svg version="1.1" id="Слой_1" xmlns="http://www.w3.org/2000/svg" xmlns:xlink="http://www.w3.org/1999/xlink" x="0px" y="0px"
	 viewBox="0 0 74.5 74.4" enable-background="new 0 0 74.5 74.4" xml:space="preserve">
<path fill="#C4B090" d="M71.8,37.3C71.8,37.3,71.8,37.2,71.8,37.3l2.7,0c0-1.9-0.1-3.7-0.4-5.5l-2.7,0.4c-0.3-1.7-0.6-3.4-1.1-5
	l2.6-0.8c-0.5-1.8-1.2-3.5-2-5.2l-2.4,1.2c-0.8-1.6-1.6-3-2.6-4.5l2.2-1.5c-1-1.5-2.2-3-3.5-4.3l-2,1.9c-1.2-1.3-2.4-2.4-3.8-3.5
	l1.7-2.1C59,7,57.5,5.9,55.8,5l-1.4,2.4c-1.5-0.9-3-1.6-4.7-2.2l1-2.5c-1.7-0.7-3.5-1.2-5.3-1.6l-0.6,2.7c-1.7-0.4-3.4-0.6-5.1-0.8
	L40,0.1C39.1,0.1,38.2,0,37.2,0c-0.9,0-1.9,0-2.8,0.1l0.2,2.7c-1.7,0.1-3.4,0.4-5.1,0.8L28.9,1c-1.8,0.4-3.6,1-5.3,1.6l1,2.5
	C23,5.8,21.5,6.5,20,7.4L18.6,5C17,5.9,15.5,7,14,8.2l1.7,2.1c-1.3,1.1-2.6,2.2-3.8,3.5l-2-1.9c-1.3,1.4-2.4,2.8-3.5,4.3l2.2,1.5
	c-1,1.4-1.8,2.9-2.6,4.5l-2.4-1.2c-0.8,1.7-1.5,3.4-2,5.2l2.6,0.8c-0.5,1.6-0.9,3.3-1.1,5l-2.7-0.4C0.1,33.5,0,35.4,0,37.3v0.1h2.7
	c0,1.7,0.1,3.5,0.4,5.1l-2.7,0.4c0.3,1.8,0.7,3.7,1.2,5.4l2.6-0.8c0.5,1.7,1.1,3.3,1.9,4.8l-2.4,1.2c0.8,1.7,1.7,3.3,2.8,4.8
	l2.2-1.5c1,1.4,2.1,2.8,3.2,4l-2,1.9c1.3,1.4,2.6,2.6,4.1,3.8l1.7-2.1c1.3,1.1,2.8,2,4.3,2.9l-1.4,2.4c1.6,0.9,3.3,1.7,5,2.4l1-2.5
	c1.6,0.6,3.2,1.1,4.9,1.5L29,73.6c1.8,0.4,3.7,0.7,5.5,0.8l0.2-2.7c0.8,0.1,1.7,0.1,2.5,0.1c0.9,0,1.8,0,2.6-0.1l0.2,2.7
	c1.9-0.1,3.7-0.4,5.5-0.8L45,70.9c1.7-0.4,3.3-0.9,4.9-1.5l1,2.5c1.7-0.7,3.4-1.5,5-2.4l-1.4-2.4c1.5-0.9,2.9-1.8,4.3-2.9l1.7,2.1
	c1.4-1.2,2.8-2.4,4.1-3.8l-2-1.8c1.2-1.3,2.2-2.6,3.2-4l2.2,1.5c1-1.5,2-3.2,2.8-4.8l-2.4-1.2c0.7-1.5,1.4-3.1,1.9-4.8l2.6,0.8
	c0.5-1.8,1-3.6,1.2-5.4l-2.7-0.4C71.6,40.7,71.8,39,71.8,37.3z M37.2,63.8c-14.6,0-26.5-11.9-26.5-26.5c0-14.6,11.9-26.5,26.5-26.5
	c14.6,0,26.5,11.9,26.5,26.5C63.8,51.9,51.9,63.8,37.2,63.8z"/>
</svg>
