<?xml version="1.0" encoding="utf-8"?>
<!-- Generator: Adobe Illustrator 18.0.0, SVG Export Plug-In . SVG Version: 6.00 Build 0)  -->
<!DOCTYPE svg PUBLIC "-//W3C//DTD SVG 1.1//EN" "http://www.w3.org/Graphics/SVG/1.1/DTD/svg11.dtd">
<svg version="1.1" id="Слой_1" xmlns="http://www.w3.org/2000/svg" xmlns:xlink="http://www.w3.org/1999/xlink" x="0px" y="0px"
	 viewBox="0 0 33.9 33.9" enable-background="new 0 0 33.9 33.9" xml:space="preserve">
<g>
	<g>
		<path fill-rule="evenodd" clip-rule="evenodd" fill="#C4B090" d="M23.9,32.4l-1.7,0.7l-0.6-1.5c-0.7,0.2-1.5,0.4-2.2,0.5l0.2,1.5
			l-1.8,0.2l-0.2-1.5c-0.8,0-1.5,0-2.3-0.1l-0.2,1.5l-1.8-0.3l0.2-1.5c-0.7-0.2-1.5-0.4-2.2-0.6L11,32.8l-1.6-0.7l0.6-1.4
			C9.3,30.4,8.6,30,8,29.5l-1,1.2l-1.4-1.1l1-1.2c-0.6-0.5-1.1-1-1.6-1.6l-1.2,0.9l-1.1-1.4L4,25.4c-0.4-0.6-0.8-1.3-1.1-2l-1.4,0.6
			l-0.7-1.7l1.5-0.6C2,21,1.9,20.3,1.7,19.5l-1.5,0.2L0,17.9l1.5-0.2c0-0.8,0-1.5,0.1-2.3l-1.5-0.2c0.2-0.6,0.4-1.2,0.5-1.7l1.3,0.2
			C2,13,2.2,12.3,2.5,11.6l-1-0.4c0.2-0.6,0.5-1.1,0.7-1.6l1,0.4C3.6,9.3,3.9,8.6,4.4,8l-1-0.8c0.3-0.5,0.6-1,0.9-1.6l1.2,1
			c0.5-0.6,1-1.1,1.6-1.6L6.2,3.8l1.4-1.1L8.6,4c0.6-0.4,1.3-0.8,2-1.1L10,1.5l1.7-0.7l0.6,1.5c0.7-0.2,1.5-0.4,2.2-0.5l-0.2-1.5
			L16,0l0.2,1.5c0.8,0,1.5,0,2.3,0.1l0.2-1.5l1.8,0.3l-0.2,1.5c0.7,0.2,1.5,0.4,2.2,0.6L23,1.1l1.6,0.7L24,3.2
			c0.7,0.3,1.3,0.7,1.9,1.2l1-1.2l1.4,1.1l-1,1.2c0.6,0.5,1.1,1,1.6,1.6l1.2-0.9l1.1,1.4l-1.3,0.9c0.4,0.6,0.8,1.3,1.1,2l1.4-0.6
			l0.7,1.7l-1.5,0.6c0.2,0.7,0.4,1.5,0.5,2.2l1.5-0.2l0.2,1.8l-1.5,0.2c0,0.8,0,1.5,0,2.3l1.5,0.2l-0.3,1.8L32,20.2
			c-0.2,0.7-0.4,1.5-0.6,2.2l1.4,0.6l-0.7,1.6L30.7,24c-0.3,0.7-0.7,1.3-1.2,1.9l1.2,1l-1.1,1.4l-1.2-1c-0.5,0.6-1,1.1-1.6,1.6
			l0.9,1.2l-1.4,1.1l-0.9-1.3c-0.6,0.4-1.3,0.8-2,1.1L23.9,32.4L23.9,32.4z M10,11.4c-3.1,3.9-2.4,9.5,1.4,12.5
			c3.9,3.1,9.5,2.4,12.5-1.4c3.1-3.9,2.4-9.5-1.4-12.5C18.7,6.9,13.1,7.5,10,11.4L10,11.4z M10.9,12.1c-2.7,3.3-2.1,8.2,1.2,10.9
			c3.3,2.7,8.2,2.1,10.9-1.2c2.7-3.3,2.1-8.2-1.2-10.9C18.4,8.2,13.6,8.8,10.9,12.1L10.9,12.1z M6.8,8.8c-4.5,5.6-3.6,13.8,2.1,18.3
			c5.6,4.5,13.8,3.6,18.3-2.1c4.5-5.6,3.6-13.8-2.1-18.3C19.5,2.3,11.3,3.2,6.8,8.8z"/>
		<path fill-rule="evenodd" clip-rule="evenodd" fill="#C4B090" d="M14.8,15.2c0.2-0.3,0.5-0.5,0.8-0.7l-2-5.1l0.7-0.3l2,5.1
			c0.6-0.1,1.2-0.1,1.8,0.1l6.6-8.3l1,0.8l-6.6,8.3c0.5,0.5,0.7,1.2,0.7,1.9l5.6,0.8l-0.1,0.8l-5.6-0.8c-0.1,0.3-0.3,0.7-0.5,1
			c-0.2,0.3-0.5,0.5-0.8,0.7l4,10.2L21.2,30l-4-10.3c-0.5,0-1-0.1-1.5-0.3l-3.5,4.4l-0.6-0.5L15,19c-0.4-0.4-0.7-0.9-0.8-1.5
			L3.1,15.8l0.2-1.2l10.9,1.6C14.3,15.9,14.5,15.5,14.8,15.2z"/>
		<path fill-rule="evenodd" clip-rule="evenodd" fill="#C4B090" d="M21.7,27.4l-1.1,0.4l-0.4-1c-0.5,0.2-1,0.3-1.5,0.4l0.1,1
			l-1.2,0.1l-0.1-1c-0.5,0-1,0-1.5,0l-0.2,1l-1.2-0.2l0.2-1c-0.5-0.1-1-0.2-1.5-0.4l-0.4,1l-1.1-0.5l0.4-1c-0.5-0.2-0.9-0.5-1.3-0.8
			l-0.7,0.8l-0.9-0.8l0.7-0.8c-0.4-0.3-0.7-0.7-1.1-1.1l-0.8,0.6l-0.7-1l0.8-0.6c-0.3-0.4-0.5-0.9-0.7-1.3l-1,0.4l-0.4-1.1l1-0.4
			c-0.2-0.5-0.3-1-0.4-1.5l-1,0.1l-0.1-1.2l1-0.1c0-0.5,0-1,0-1.5l-1-0.2c0.1-0.4,0.2-0.8,0.4-1.2l0.8,0.1c0.1-0.5,0.2-1,0.4-1.5
			L6.5,13c0.2-0.4,0.3-0.7,0.5-1.1l0.7,0.3c0.2-0.5,0.5-0.9,0.8-1.3l-0.7-0.5C8,10,8.2,9.7,8.4,9.3L9.2,10c0.3-0.4,0.7-0.7,1.1-1.1
			L9.7,8.1l1-0.7l0.6,0.8c0.4-0.3,0.9-0.5,1.3-0.7l-0.4-1l1.1-0.4l0.4,1c0.5-0.2,1-0.3,1.5-0.4l-0.1-1l1.2-0.1l0.1,1
			c0.5,0,1,0,1.5,0l0.2-1l1.2,0.2l-0.2,1c0.5,0.1,1,0.2,1.5,0.4l0.4-1l1.1,0.5l-0.4,1c0.5,0.2,0.9,0.5,1.3,0.8l0.7-0.8l0.9,0.8
			l-0.7,0.8c0.4,0.3,0.7,0.7,1.1,1.1l0.8-0.6l0.7,1l-0.8,0.6c0.3,0.4,0.5,0.9,0.7,1.3l1-0.4l0.4,1.1l-1,0.4c0.2,0.5,0.3,1,0.4,1.5
			l1-0.1l0.1,1.2l-1,0.1c0,0.5,0,1,0,1.5l1,0.2l-0.2,1.2l-1-0.2c-0.1,0.5-0.2,1-0.4,1.5l1,0.4l-0.5,1.1l-1-0.4
			c-0.2,0.5-0.5,0.9-0.8,1.3l0.8,0.7l-0.8,0.9l-0.8-0.7c-0.3,0.4-0.7,0.7-1.1,1.1l0.6,0.8l-1,0.7l-0.6-0.8c-0.4,0.3-0.9,0.5-1.3,0.7
			L21.7,27.4L21.7,27.4z M12.2,13.2c-2.1,2.6-1.6,6.4,1,8.5c2.6,2.1,6.4,1.6,8.5-1c2.1-2.6,1.6-6.4-1-8.5
			C18.1,10.2,14.3,10.6,12.2,13.2L12.2,13.2z M12.9,13.7c-1.8,2.3-1.4,5.5,0.8,7.3c2.3,1.8,5.5,1.4,7.3-0.8c1.8-2.3,1.4-5.5-0.8-7.3
			C18,11.1,14.7,11.4,12.9,13.7L12.9,13.7z M10.1,11.5c-3,3.8-2.4,9.3,1.4,12.4c3.8,3,9.3,2.4,12.4-1.4c3-3.8,2.4-9.3-1.4-12.4
			C18.6,7.1,13.1,7.7,10.1,11.5z"/>
		<path fill-rule="evenodd" clip-rule="evenodd" fill="#C4B090" d="M15.5,15.8c0.2-0.2,0.3-0.4,0.5-0.5l-1.4-3.5l0.5-0.2l1.4,3.4
			c0.4-0.1,0.8-0.1,1.2,0.1l4.5-5.6l0.7,0.5l-4.5,5.6c0.3,0.4,0.5,0.8,0.5,1.3l3.8,0.6l-0.1,0.5l-3.8-0.6c-0.1,0.2-0.2,0.4-0.3,0.6
			c-0.1,0.2-0.3,0.3-0.5,0.5l2.7,6.9l-0.8,0.3l-2.7-6.9c-0.3,0-0.7,0-1-0.2l-2.4,3l-0.4-0.3l2.3-2.9c-0.3-0.3-0.5-0.6-0.6-1
			l-7.5-1.1l0.1-0.8l7.4,1.1C15.2,16.2,15.3,16,15.5,15.8z"/>
	</g>
</g>
</svg>
