<?xml version="1.0" encoding="utf-8"?>
<!-- Generator: Adobe Illustrator 18.0.0, SVG Export Plug-In . SVG Version: 6.00 Build 0)  -->
<!DOCTYPE svg PUBLIC "-//W3C//DTD SVG 1.1//EN" "http://www.w3.org/Graphics/SVG/1.1/DTD/svg11.dtd">
<svg version="1.1" id="Слой_1" xmlns="http://www.w3.org/2000/svg" xmlns:xlink="http://www.w3.org/1999/xlink" x="0px" y="0px"
	 viewBox="0 0 33.5 33.5" enable-background="new 0 0 33.5 33.5" xml:space="preserve">
<path fill-rule="evenodd" clip-rule="evenodd" fill="#49433E" d="M1.5,16.4L1.5,16.4l-1-0.4L0,15.8l0-0.5l0.5-0.1L1.6,15v0l-1-0.5
	l-0.4-0.2l0.1-0.5l0.5-0.1l1.1-0.2l0,0L0.9,13l-0.4-0.3l0.1-0.5l0.5,0l1.1-0.1l0,0l-0.9-0.7l-0.4-0.3l0.2-0.5l0.5,0l1.1,0.1l0,0
	L1.9,10L1.5,9.7l0.2-0.4l0.5,0.1l1.1,0.2l0,0L2.6,8.7L2.3,8.3l0.2-0.4L3,8l1.1,0.3l0,0L3.4,7.4L3.1,7l0.3-0.4l0.5,0.2l1,0.4l0,0
	L4.4,6.2L4.1,5.8l0.3-0.4l0.4,0.2l1,0.5v0L5.4,5L5.2,4.6l0.4-0.3L6,4.5l1,0.6v0L6.6,4L6.4,3.6l0.4-0.3l0.4,0.3l0.9,0.6h0L7.8,3.1
	L7.7,2.7l0.4-0.3l0.4,0.3l0.8,0.7l0,0L9.1,2.3L9.1,1.9l0.4-0.2L9.8,2l0.8,0.8l0,0l-0.1-1.1l0-0.5L10.9,1l0.3,0.4l0.7,0.9l0-1.1
	l0-0.5l0.5-0.1L12.7,1l0.6,0.9l0.1-1.1l0.1-0.5L14,0.2l0.2,0.4l0.5,1L15,0.6l0.1-0.5l0.5,0l0.2,0.4l0.4,1l0.3-1.1L16.7,0l0.5,0
	l0.1,0.5l0.3,1.1l0.4-1l0.2-0.4l0.5,0.1l0.1,0.5L19,1.7l0.5-1l0.2-0.4l0.5,0.1l0.1,0.5L20.4,2L21.1,1l0.3-0.4l0.5,0.1l0,0.5l0,1.1
	l0.7-0.9l0.3-0.4l0.4,0.2l0,0.5l-0.1,1.1l0.8-0.8l0.3-0.3L24.7,2l-0.1,0.5l-0.2,1.1l0.9-0.7l0.4-0.3l0.4,0.3l-0.1,0.5l-0.3,1.1
	l0.9-0.6L27,3.5l0.4,0.3l-0.2,0.5l-0.4,1l1-0.5l0.4-0.2l0.3,0.3l-0.2,0.4l-0.5,1l1-0.4l0.4-0.2L29.6,6l-0.3,0.4l-0.6,0.9L29.8,7
	l0.5-0.1l0.3,0.4l-0.3,0.4l-0.7,0.9l1.1-0.2l0.5-0.1l0.2,0.4L31,8.9l-0.7,0.8l1.1-0.1l0.5-0.1l0.2,0.4l-0.4,0.3l-0.8,0.7l1.1,0
	l0.5,0l0.2,0.5l-0.4,0.3l-0.7,0.5l0.8,0l0.5,0l0.1,0.5l-0.4,0.3l-0.8,0.5l0.9,0.1l0.5,0.1l0.1,0.5l-0.4,0.2l-0.8,0.4l0.9,0.2
	l0.5,0.1l0,0.5L33,15.8l-0.8,0.3l0.8,0.2l0.5,0.1l0,0.5L33,17.1L32,17.5v0l1,0.4l0.4,0.2l0,0.5l-0.5,0.1l-1.1,0.2v0l1,0.5l0.4,0.2
	l-0.1,0.5l-0.5,0.1l-1.1,0.1l0,0l0.9,0.6l0.4,0.3l-0.1,0.5l-0.5,0l-1.1,0l0,0l0.8,0.7l0.4,0.3l-0.2,0.4l-0.5,0L30.6,23l0,0l0.8,0.8
	l0.3,0.3l-0.2,0.4l-0.5-0.1L30,24.3l0,0l0.7,0.8l0.3,0.4l-0.3,0.4l-0.5-0.1l-1.1-0.3l0,0l0.6,0.9l0.3,0.4l-0.3,0.4l-0.5-0.2l-1-0.4
	l0,0l0.5,0.9l0.2,0.4l-0.3,0.4l-0.4-0.2l-1-0.5l0,0l0.4,1l0.2,0.4l-0.4,0.3l-0.4-0.2l-0.9-0.6l0,0l0.3,1l0.2,0.5l-0.4,0.3L26,30.2
	l-0.9-0.6l0,0l0.2,1.1l0.1,0.5L25,31.3L24.7,31l-0.8-0.7l0,0l0.1,1.1l0.1,0.5L23.6,32l-0.3-0.4l-0.7-0.8l0,0l0,1.1l0,0.5l-0.5,0.2
	l-0.3-0.4l-0.7-0.9l0,0l-0.1,1.1l0,0.5L20.6,33l-0.3-0.4l-0.6-0.9l0,0l-0.2,1.1l-0.1,0.5l-0.5,0.1l-0.2-0.4l-0.5-1l0,0l-0.3,1
	L18,33.4l-0.5,0L17.3,33l-0.4-1h0l-0.4,1l-0.2,0.5l-0.5,0L15.8,33l-0.3-1l0,0l-0.5,1l-0.2,0.4l-0.5-0.1l-0.1-0.5l-0.2-1.1l0,0
	l-0.5,0.9l-0.2,0.4L12.8,33l0-0.5l-0.1-1.1l0,0L12,32.3l-0.3,0.4l-0.5-0.2l0-0.5l0-1.1l0,0l-0.7,0.8l-0.3,0.4L9.8,32l0.1-0.5
	l0.1-1.1l0,0l-0.8,0.7l-0.3,0.3l-0.4-0.2l0.1-0.5l0.2-1.1l0,0l-0.8,0.7l-0.4,0.3l-0.4-0.3l0.1-0.5l0.3-1l0,0l-0.9,0.6l-0.4,0.3
	l-0.4-0.3L6,29l0.4-1l0,0l-1,0.5L5,28.7l-0.3-0.3l0.2-0.4c0.7-1.2,0.8-1.1-0.5-0.6l-0.4,0.2l-0.3-0.4l0.3-0.4l0.6-0.9l0,0l-1,0.3
	L3,26.3l-0.3-0.4L3,25.5l0.7-0.8l0,0l-1.1,0.2l-0.5,0.1l-0.2-0.4l0.3-0.3L3,23.4l0,0l-1.1,0.1l-0.5,0l-0.2-0.4l0.4-0.3l0.8-0.7l0,0
	l-1.1,0l-0.5,0l-0.1-0.5l0.4-0.3L2,20.7l0,0l-1.1-0.1l-0.5,0l-0.1-0.5l0.4-0.2l0.9-0.5l0,0l-1.1-0.2L0.1,19l-0.1-0.5l0.4-0.2l1-0.4
	l0,0l-1-0.3L0,17.4l0-0.5l0.5-0.2L1.5,16.4L1.5,16.4z M15.1,16.7c0,0.9,0.7,1.6,1.6,1.6c0.9,0,1.6-0.7,1.6-1.6
	c0-0.9-0.7-1.6-1.6-1.6C15.9,15.1,15.1,15.9,15.1,16.7z"/>
</svg>
