<?xml version="1.0" encoding="utf-8"?>
<!-- Generator: Adobe Illustrator 18.0.0, SVG Export Plug-In . SVG Version: 6.00 Build 0)  -->
<!DOCTYPE svg PUBLIC "-//W3C//DTD SVG 1.1//EN" "http://www.w3.org/Graphics/SVG/1.1/DTD/svg11.dtd">
<svg version="1.1" id="Слой_1" xmlns="http://www.w3.org/2000/svg" xmlns:xlink="http://www.w3.org/1999/xlink" x="0px" y="0px"
	 viewBox="0 0 33.6 26.2" enable-background="new 0 0 33.6 26.2" xml:space="preserve">
<g>
	<path fill-rule="evenodd" clip-rule="evenodd" fill="#FFFFFF" d="M3.5,23l-0.3,0.2l-0.5-0.6l0.2-0.3l-0.3,0.1L2,21.7l0.2-0.3
		l-0.3,0.1l-0.4-0.7l0.2-0.3l-0.3,0.1L1,20l0.2-0.2l-0.3,0l-0.3-0.7l0.3-0.2l-0.3,0l-0.2-0.7l0.3-0.2l-0.3,0l-0.1-0.8l0.3-0.2
		l-0.3-0.1L0,16.1l0.3-0.1L0,15.8l0-0.8L0.3,15L0,14.8L0.1,14L0.4,14l-0.3-0.2L0.3,13l0.3,0l-0.3-0.2l0.2-0.7l0.3,0l-0.3-0.2
		l0.3-0.7l0.3,0L1,10.9l0.4-0.7l0.3,0.1L1.5,10l0.4-0.7l0.3,0.1L2,9.2l0.5-0.6l0.3,0.1L2.7,8.4l0.5-0.6l0.3,0.2L3.4,7.6L4,7.1
		l0.3,0.2L4.2,7l0.6-0.5l0.3,0.2L5,6.4L5.7,6l0.3,0.2l0-0.3l0.7-0.3l0.2,0.3l0-0.3l0.7-0.3l0.2,0.3l0-0.3l0.8-0.2l0.2,0.3l0.1-0.3
		l0.8-0.1l0.2,0.3l0.1-0.3l0.8,0L10.6,5l0.1-0.3l0.8,0l0.1,0.3l0.1-0.3l0.8,0.1l0.1,0.3l0.2-0.3l0.8,0.2l0,0.3l0.2-0.3l0.7,0.2
		l0,0.3l0.2-0.3l0.7,0.3l0,0.2l0.1-0.1l0.7,0.4l0,0.2l0.2-0.1L17,6.7L17,6.9l0.2-0.1l0.6,0.5l-0.1,0.1l0.1-0.1l0.6,0.5l-0.1,0.3
		L18.5,8L19,8.6l-0.2,0.3l0.3-0.1l0.5,0.6l-0.2,0.3l0.3-0.1l0.4,0.7L20,10.5l0.3,0l0.3,0.7l-0.3,0.2l0.3,0l0.3,0.7l-0.3,0.2l0.3,0
		l0.2,0.8L21,13.3l0.3,0l0.1,0.8l-0.3,0.2l0.3,0.1l0.1,0.8l-0.3,0.1l0.3,0.1l0,0.8l-0.3,0.1l0.3,0.1l-0.1,0.8L21,17.2l0.3,0.2
		l-0.2,0.8l-0.3,0l0.3,0.2l-0.2,0.7l-0.3,0l0.3,0.2l-0.3,0.7l-0.3,0l0.2,0.2L20,21l-0.3-0.1l0.2,0.3l-0.4,0.6l-0.3-0.1l0.2,0.3
		l-0.5,0.6l-0.3-0.1l0.2,0.3l-0.5,0.6l-0.3-0.2l0.1,0.3L17.3,24L17,23.8l0.1,0.3l-0.6,0.4l-0.3-0.2l0.1,0.3l-0.7,0.4l-0.3-0.2l0,0.3
		l-0.7,0.3l-0.2-0.3l0,0.3l-0.7,0.2l-0.2-0.3l0,0.3l-0.8,0.2l-0.2-0.3l-0.1,0.3l-0.8,0.1l-0.1-0.3l-0.1,0.3l-0.8,0l-0.1-0.3
		l-0.1,0.3l-0.8,0l-0.1-0.3l-0.2,0.3L8.7,26l-0.1-0.3L8.5,26l-0.8-0.2l0-0.3l-0.2,0.3l-0.7-0.3l0-0.3l-0.2,0.3L5.8,25l0-0.3
		l-0.3,0.2l-0.7-0.4L5,24.2l-0.3,0.2l-0.6-0.5l0.1-0.3l-0.3,0.2l-0.6-0.5L3.5,23L3.5,23z M10.3,16c0.3,0.2,0.7,0.2,0.9,0
		c0.2-0.3,0.2-0.7,0-0.9c-0.3-0.2-0.7-0.2-0.9,0C10,15.3,10,15.7,10.3,16L10.3,16z M8,13.5c0.3-1.1-0.5-2.3-1.6-2.5
		c-1.1-0.3-2.3,0.5-2.5,1.6c-0.3,1.1,0.5,2.3,1.6,2.5C6.6,15.3,7.7,14.6,8,13.5L8,13.5z M10.4,18.9c-1.1,0.3-1.7,1.5-1.4,2.6
		c0.3,1.1,1.5,1.7,2.6,1.4c1.1-0.3,1.7-1.5,1.4-2.6C12.6,19.2,11.5,18.6,10.4,18.9L10.4,18.9z M13.9,14.2c0.8,0.8,2.2,0.7,3-0.1
		c0.8-0.8,0.7-2.2-0.1-3c-0.8-0.8-2.2-0.7-3,0.1C13,12,13.1,13.4,13.9,14.2z"/>
	<path fill-rule="evenodd" clip-rule="evenodd" fill="#3D3323" d="M4.1,22.3L4.1,22.3l-0.6,0.3l-0.3,0.1L3,22.5l0.1-0.3l0.3-0.6l0,0
		l-0.6,0.2L2.6,22l-0.2-0.2l0.2-0.2L3,20.9l0,0l-0.7,0.2L2,21.2l-0.2-0.3l0.2-0.2l0.4-0.5l0,0l-0.7,0.1l-0.3,0.1l-0.1-0.3l0.2-0.2
		l0.5-0.5l0,0l-0.7,0l-0.3,0L1,19.2L1.2,19l0.5-0.4l0,0l-0.7,0l-0.3,0l-0.1-0.3l0.2-0.2l0.6-0.4l0,0l-0.7-0.1l-0.3,0l-0.1-0.3
		l0.3-0.1l0.6-0.3l0,0l-0.7-0.1l-0.3-0.1l0-0.3l0.3-0.1l0.6-0.3v0l-0.7-0.2l-0.3-0.1l0-0.3l0.3-0.1L1.3,15v0l-0.6-0.3l-0.3-0.1
		l0-0.3l0.3-0.1l0.7-0.1l0,0l-0.6-0.3l-0.3-0.1l0.1-0.3l0.3,0l0.7-0.1v0L1,12.8l-0.2-0.2l0.1-0.3l0.3,0l0.7,0v0l-0.5-0.4L1,11.7
		l0.1-0.3l0.3,0l0.7,0.1l-0.5-0.5l-0.2-0.2l0.1-0.3l0.3,0l0.7,0.1l-0.4-0.5L1.9,10L2,9.7l0.3,0.1L3,10L2.6,9.4L2.4,9.2l0.2-0.2
		L2.9,9l0.6,0.2L3.2,8.7L3.1,8.4l0.2-0.2l0.3,0.1l0.6,0.3L3.9,8L3.8,7.7L4,7.5l0.3,0.2L4.8,8L4.6,7.4L4.5,7.1l0.2-0.2L5,7.1l0.6,0.4
		L5.4,6.8L5.4,6.5l0.3-0.2l0.2,0.2l0.5,0.5L6.3,6.4l0-0.3L6.5,6l0.2,0.2l0.5,0.5l0-0.7l0-0.3l0.3-0.1l0.2,0.2L8,6.4l0-0.7l0-0.3
		l0.3-0.1l0.2,0.3l0.4,0.6L9,5.5l0-0.3l0.3,0l0.1,0.3L9.8,6l0.2-0.7L10,5.1l0.3,0l0.1,0.3L10.7,6l0.2-0.7L11,5l0.3,0l0.1,0.3L11.5,6
		l0.3-0.6L12,5.1l0.3,0l0.1,0.3l0.1,0.7l0.3-0.6l0.2-0.3l0.3,0.1l0,0.3l0.1,0.7l0.4-0.6l0.2-0.2l0.3,0.1l0,0.3l0,0.7l0.5-0.5
		l0.2-0.2L15.1,6l0,0.3L15,6.8l0.4-0.4l0.2-0.2l0.3,0.1l-0.1,0.3l-0.1,0.6l0.5-0.4l0.2-0.2l0.3,0.2l-0.1,0.3l-0.2,0.5l0.5-0.3
		l0.2-0.2l0.2,0.2l-0.1,0.3L17,8.1l0.4-0.3l0.3-0.1L18,7.9l-0.1,0.3l-0.3,0.6l0,0l0.6-0.3l0.3-0.1l0.2,0.2l-0.2,0.3l-0.4,0.6l0,0
		l0.6-0.2l0.3-0.1l0.2,0.2l-0.2,0.2l-0.4,0.6l0,0l0.7-0.2l0.3-0.1l0.2,0.3l-0.2,0.2L19.1,11l0,0l0.7-0.1l0.3,0l0.1,0.3L20,11.3
		l-0.5,0.5l0,0l0.7,0l0.3,0l0.1,0.3l-0.2,0.2l-0.5,0.4l0,0l0.7,0l0.3,0l0.1,0.3l-0.3,0.2l-0.6,0.4l0,0l0.7,0.1l0.3,0l0,0.3l-0.3,0.1
		l-0.6,0.3l0,0l0.7,0.2l0.3,0.1l0,0.3L20.9,15l-0.6,0.2l0,0l0.6,0.2l0.3,0.1l0,0.3L20.9,16l-0.7,0.2l0,0l0.6,0.3l0.3,0.1l0,0.3
		l-0.3,0.1l-0.7,0.1l0,0l0.6,0.3l0.3,0.1l-0.1,0.3l-0.3,0l-0.7,0.1l0,0l0.5,0.4l0.2,0.2l-0.1,0.3l-0.3,0l-0.7,0l0,0l0.5,0.4l0.2,0.2
		l-0.1,0.3l-0.3,0l-0.7-0.1l0,0l0.5,0.5l0.2,0.2l-0.1,0.3l-0.3-0.1l-0.7-0.1l0,0l0.4,0.5l0.2,0.2l-0.2,0.2L19,21.4l-0.6-0.2l0,0
		l0.4,0.6l0.2,0.3l-0.2,0.2l-0.3-0.1l-0.6-0.3l0,0l0.3,0.6l0.1,0.3L18,22.9l-0.3-0.1l-0.6-0.3l0,0l0.3,0.6l0.1,0.3l-0.2,0.2L17,23.4
		l-0.6-0.4l0,0l0.2,0.6l0.1,0.3l-0.2,0.2L16.3,24l-0.5-0.4l0,0l0.1,0.7l0.1,0.3l-0.3,0.1l-0.2-0.2L15,24l0,0l0.1,0.7l0,0.3l-0.3,0.1
		l-0.2-0.2l-0.4-0.5l0,0l0,0.7l0,0.3l-0.3,0.1l-0.2-0.2l-0.4-0.5l0,0l-0.1,0.7l0,0.3l-0.3,0.1l-0.2-0.3l-0.3-0.6l0,0l-0.1,0.7
		l-0.1,0.3l-0.3,0l-0.1-0.3L11.5,25l0,0l-0.2,0.6l-0.1,0.3l-0.3,0l-0.1-0.3L10.6,25h0l-0.2,0.6l-0.1,0.3l-0.3,0l-0.1-0.3l-0.2-0.7
		l0,0l-0.3,0.6l-0.1,0.3l-0.3,0l0-0.3l-0.1-0.7l0,0l-0.4,0.6l-0.2,0.3L8,25.5l0-0.3l0-0.7l0,0l-0.4,0.5l-0.2,0.2l-0.3-0.1l0-0.3
		l0-0.7l0,0l-0.5,0.5L6.4,25l-0.3-0.1l0-0.3l0.1-0.7l0,0l-0.5,0.5l-0.2,0.2l-0.3-0.2l0.1-0.3l0.2-0.7l0,0L5,23.8L4.7,24l-0.2-0.2
		l0.1-0.3l0.2-0.6l0,0l-0.6,0.4L4,23.4l-0.2-0.2l0.1-0.3L4.1,22.3L4.1,22.3z M10.1,16.2c0.4,0.4,1,0.3,1.4-0.1
		c0.4-0.4,0.3-1-0.1-1.4c-0.4-0.4-1-0.3-1.4,0.1C9.7,15.2,9.7,15.8,10.1,16.2L10.1,16.2z M8.3,13.5c0.3-1.3-0.5-2.6-1.8-2.9
		c-1.3-0.3-2.6,0.5-2.9,1.8c-0.3,1.3,0.5,2.6,1.8,2.9C6.7,15.7,8,14.8,8.3,13.5L8.3,13.5z M10.3,18.6c-1.3,0.4-2,1.7-1.6,3
		c0.4,1.3,1.7,2,3,1.6c1.3-0.4,2-1.7,1.6-3C12.9,18.9,11.5,18.2,10.3,18.6L10.3,18.6z M13.7,14.4c1,0.9,2.5,0.9,3.4-0.1
		c0.9-1,0.9-2.5-0.1-3.4c-1-0.9-2.5-0.9-3.4,0.1C12.6,12,12.7,13.5,13.7,14.4z"/>
	<circle fill-rule="evenodd" clip-rule="evenodd" fill="#493D29" cx="29" cy="4.7" r="0.9"/>
	<circle fill-rule="evenodd" clip-rule="evenodd" fill="#493D29" cx="29.1" cy="4.7" r="0.6"/>
	<path fill-rule="evenodd" clip-rule="evenodd" fill="#3D3323" d="M29.2,0L29.2,0l0.1,0l0.1,0l0,0l0.2,0l0,0l0.1,0l0.1,0l0,0l0.2,0
		l0,0l0.1,0l0.1,0l0,0l0.2,0.1l0,0l0.1,0l0.1,0l0,0l0.2,0.1l0,0l0.1,0l0.1,0l0,0l0.2,0.1l0,0l0.1,0l0.1,0.1l0,0l0.2,0.1l0,0l0.1,0.1
		L31.8,1l0,0L32,1.1l0,0l0.1,0.1l0.1,0.1l0,0l0.2,0.2l0,0l0.1,0.1l0.1,0.1l0,0l0.1,0.2l0,0l0.1,0.1l0.1,0.1l0,0l0.1,0.2l0,0l0.1,0.1
		L33,2.3l0,0l0.1,0.2l0,0l0,0.1l0,0.1l0,0l0.1,0.2h0l0,0.1l0,0.1l0,0l0.1,0.2l0,0l0,0.1l0,0.1l0,0l0,0.2l0,0l0,0.1l0,0.1l0,0l0,0.2
		l0,0l0,0.1l0,0.1l0,0l0,0.2l0,0l0,0.1l0,0.1l0,0l0,0.2l0,0l0,0.1l0,0.1l0,0l0,0.2l0,0l0,0.1l0,0.1l0,0l-0.1,0.2l0,0l0,0.1l0,0.1
		l0,0l-0.1,0.2l0,0l0,0.1l0,0.1l0,0l-0.1,0.2l0,0L33,6.8l0,0.1l0,0l-0.1,0.2l0,0l-0.1,0.1l-0.1,0.1l0,0l-0.1,0.2l0,0l-0.1,0.1
		l-0.1,0.1l0,0l-0.1,0.2l0,0l-0.1,0.1L32.2,8l0,0L32,8.1l0,0L32,8.2l-0.1,0.1l0,0l-0.2,0.1l0,0l-0.1,0.1l-0.1,0.1l0,0l-0.2,0.1l0,0
		l-0.1,0l-0.1,0.1l0,0l-0.2,0.1l0,0l-0.1,0l-0.1,0l0,0L30.5,9l0,0l-0.1,0l-0.1,0l0,0l-0.2,0l0,0l-0.1,0l-0.1,0l0,0l-0.1,0l0,0
		l-0.1,0l-0.1,0l0,0l-0.1,0l0,0l-0.1,0l-0.1,0l0,0l-0.1,0l0,0l-0.1,0l-0.1,0l0,0l-0.2,0l0,0l-0.1,0l-0.1,0l0,0l-0.2,0l0,0l-0.1,0
		l-0.1,0l0,0l-0.2-0.1l0,0l-0.1,0l-0.1,0l0,0L27.3,9l0,0l-0.1,0l-0.1,0l0,0l-0.2-0.1l0,0l-0.1-0.1l-0.1,0l0,0l-0.2-0.1l0,0l-0.1-0.1
		l-0.1-0.1l0,0l-0.2-0.1l0,0l-0.1-0.1L26,8.3l0,0l-0.2-0.1l0,0L25.7,8L25.6,8l0,0l-0.1-0.2l0,0l-0.1-0.1l-0.1-0.1l0,0l-0.1-0.2l0,0
		l-0.1-0.1l-0.1-0.1l0,0L25,7.1l0,0l0-0.1l-0.1-0.1l0,0l-0.1-0.2l0,0l0-0.1l-0.1-0.1l0,0l-0.1-0.2h0l0-0.1l0-0.1l0,0l-0.1-0.2l0,0
		l0-0.1l0-0.1l0,0l0-0.2l0,0l0-0.1l0-0.1l0,0l0-0.2l0,0l0-0.1l0-0.1l0,0l0-0.2l0,0l0-0.1l0-0.1l0,0l0-0.2l0,0l0-0.1l0-0.1l0,0l0-0.2
		l0,0l0-0.1l0-0.1l0,0l0.1-0.2l0,0l0-0.1l0-0.1l0,0l0.1-0.2l0,0l0-0.1l0-0.1l0,0l0.1-0.2l0,0l0.1-0.1l0.1-0.1l0,0l0.1-0.2l0,0
		L25.1,2l0.1-0.1l0,0l0.1-0.2l0,0l0.1-0.1l0.1-0.1l0,0l0.1-0.2l0,0l0.1-0.1l0.1-0.1l0,0l0.2-0.1l0,0L26,1L26.1,1l0,0l0.2-0.1l0,0
		l0.1-0.1l0.1-0.1l0,0l0.2-0.1l0,0l0.1,0l0.1-0.1l0,0L27,0.4l0,0l0.1,0l0.1,0l0,0l0.2-0.1l0,0l0.1,0l0.1,0l0,0l0.2-0.1l0,0l0.1,0
		l0.1,0l0,0l0.2,0l0,0l0.1,0l0.1,0l0,0l0.2,0l0,0l0.1,0L29,0l0,0L29.2,0L29.2,0z M29,4.3c-0.2,0-0.4,0.2-0.4,0.4
		c0,0.2,0.2,0.4,0.4,0.4c0.2,0,0.4-0.2,0.4-0.4C29.3,4.5,29.2,4.3,29,4.3z"/>
	<path fill-rule="evenodd" clip-rule="evenodd" fill="#49433E" d="M29.2,0.8L29.2,0.8l0.1-0.3l0.1-0.1l0.1,0l0,0.1l0.1,0.3l0,0
		l0.1-0.2l0.1-0.1l0.1,0l0,0.1l0,0.3l0,0l0.2-0.2l0.1-0.1l0.1,0v0.1l0,0.3l0,0l0.2-0.2l0.1-0.1l0.1,0l0,0.1l0,0.3l0,0L30.9,1
		l0.1-0.1L31,0.9l0,0.1L31,1.3l0,0l0.2-0.2l0.1-0.1l0.1,0.1l0,0.1l-0.1,0.3l0,0l0.2-0.2l0.1-0.1l0.1,0.1l0,0.1l-0.1,0.3l0,0l0.3-0.1
		l0.1-0.1L32,1.7L32,1.8L31.8,2l0,0l0.3-0.1l0.1,0L32.3,2l-0.1,0.1l-0.2,0.2v0l0.3-0.1l0.1,0l0.1,0.1l-0.1,0.1l-0.2,0.2l0,0l0.3-0.1
		l0.1,0l0.1,0.1l-0.1,0.1l-0.2,0.2h0l0.3,0l0.1,0l0,0.1l-0.1,0.1l-0.2,0.2l0,0l0.3,0l0.1,0l0,0.1l-0.1,0.1l-0.2,0.2l0.3,0l0.1,0
		l0,0.1L33,3.8L32.8,4L33.1,4l0.1,0l0,0.1l-0.1,0.1l-0.3,0.1l0.3,0.1l0.1,0l0,0.1l-0.1,0l-0.3,0.1l0.3,0.1l0.1,0l0,0.1l-0.1,0
		l-0.3,0.1l0.3,0.1l0.1,0.1l0,0.1l-0.1,0l-0.3,0L33,5.6l0.1,0.1l0,0.1l-0.1,0l-0.3,0L32.9,6L33,6.1l0,0.1l-0.1,0l-0.3,0l0.2,0.2
		l0.1,0.1l-0.1,0.1l-0.1,0l-0.3,0l0.2,0.2l0.1,0.1l-0.1,0.1l-0.1,0l-0.3-0.1L32.4,7l0.1,0.1l-0.1,0.1l-0.1,0L32,7.1l0.1,0.2l0.1,0.1
		l-0.1,0.1L32,7.5l-0.3-0.1l0.1,0.3l0.1,0.1l-0.1,0.1l-0.1-0.1l-0.2-0.1l0.1,0.3l0,0.1l-0.1,0.1L31.4,8l-0.2-0.2l0.1,0.3l0,0.1
		l-0.1,0.1l-0.1-0.1l-0.2-0.2l0,0.3l0,0.1l-0.1,0.1l-0.1-0.1l-0.2-0.2l0,0.3l0,0.1l-0.1,0l-0.1-0.1l-0.2-0.2l0,0.3l0,0.1l-0.1,0
		L30,8.7l-0.1-0.2l0,0.2l0,0.1l-0.1,0l-0.1-0.1l-0.1-0.2l0,0.2l0,0.1l-0.1,0l0-0.1l-0.1-0.2l-0.1,0.2l0,0.1l-0.1,0l0-0.1l-0.1-0.2
		l-0.1,0.2l0,0.1l-0.1,0l0-0.1l-0.1-0.3h0l-0.1,0.3l-0.1,0.1l-0.1,0l0-0.1l0-0.3l0,0L28,8.7L28,8.8l-0.1,0l0-0.1l0-0.3l0,0l-0.2,0.2
		l-0.1,0.1l-0.1,0l0-0.1l0-0.3l0,0l-0.2,0.2l-0.1,0.1l-0.1-0.1l0-0.1l0-0.3l0,0l-0.2,0.2l-0.1,0.1l-0.1-0.1l0-0.1l0.1-0.3l0,0
		l-0.2,0.2l-0.1,0.1l-0.1-0.1l0-0.1l0.1-0.3l0,0l-0.2,0.1l-0.1,0.1l-0.1-0.1l0-0.1l0.1-0.3l0,0L26,7.6l-0.1,0.1l-0.1-0.1l0.1-0.1
		L26,7.2l0,0l-0.3,0.1l-0.1,0l-0.1-0.1l0.1-0.1l0.2-0.2l0,0L25.5,7l-0.1,0l-0.1-0.1l0.1-0.1l0.2-0.2l0,0l-0.3,0l-0.1,0l-0.1-0.1
		l0.1-0.1l0.2-0.2l0,0l-0.3,0l-0.1,0l0-0.1L25,6.1L25.2,6l0,0l-0.3,0l-0.1,0l0-0.1l0.1-0.1l0.2-0.2l0,0l-0.3,0l-0.1,0l0-0.1l0.1-0.1
		l0.2-0.1l0,0l-0.3-0.1l-0.1,0l0-0.1l0.1,0L25,4.9v0l-0.3-0.1l-0.1,0l0-0.1l0.1,0L25,4.5v0l-0.3-0.1l-0.1,0l0-0.1l0.1,0l0.3-0.1l0,0
		L24.8,4l-0.1-0.1l0-0.1l0.1,0l0.3,0l0,0l-0.2-0.2l-0.1-0.1l0-0.1l0.1,0l0.3,0l0,0L25,3.2l-0.1-0.1L25,3l0.1,0l0.3,0l0,0l-0.2-0.2
		l-0.1-0.1l0.1-0.1l0.1,0l0.3,0l0,0l-0.2-0.2l-0.1-0.1l0.1-0.1l0.1,0l0.3,0.1l0,0l-0.2-0.2l-0.1-0.1L25.6,2l0.1,0L26,2.1l0,0
		l-0.1-0.2l-0.1-0.1l0.1-0.1L26,1.7l0.2,0.1l0,0l-0.1-0.3L26,1.5l0.1-0.1l0.1,0.1l0.2,0.1l0,0l-0.1-0.3l0-0.1l0.1-0.1l0.1,0.1
		l0.2,0.2l0,0l-0.1-0.3l0-0.1l0.1-0.1L26.9,1l0.2,0.2l0,0l0-0.3l0-0.1l0.1-0.1l0.1,0.1l0.2,0.2l0,0l0-0.3l0-0.1l0.1,0l0.1,0.1
		l0.2,0.2l0,0l0-0.3l0-0.1l0.1,0L28,0.6l0.1,0.2l0,0l0-0.3l0-0.1l0.1,0l0.1,0.1l0.1,0.2l0,0l0.1-0.3l0-0.1l0.1,0l0,0.1l0.1,0.3h0
		L29,0.5l0-0.1l0.1,0l0,0.1L29.2,0.8L29.2,0.8z M29,3.9c-0.4,0-0.8,0.3-0.8,0.7c0,0.4,0.3,0.8,0.7,0.8c0.4,0,0.8-0.3,0.8-0.7
		C29.7,4.3,29.4,3.9,29,3.9z"/>
	<path fill-rule="evenodd" clip-rule="evenodd" fill="#FFFFFF" d="M11.1,19L22,8.7c0.3-0.3,0.9-0.5,1.3-0.1l1.4,1.6
		c0.4,0.4,0.1,1-0.2,1.3l-11.7,9.8c0,0.1,0,0.1-0.1,0.2c-0.3,1-1.4,1.6-2.4,1.2s-1.6-1.4-1.2-2.4C9.3,19.4,10.2,18.9,11.1,19z"/>
	<path fill-rule="evenodd" clip-rule="evenodd" fill="#3D3323" d="M11.3,19.5L22.3,9c0.2-0.2,0.6-0.3,0.7-0.1l1.4,1.6
		c0.1,0.2,0.1,0.5-0.2,0.7L12.3,21c0,0.1,0,0.2-0.1,0.3c-0.2,0.8-1.1,1.2-1.8,1c-0.8-0.2-1.2-1.1-1-1.8
		C9.7,19.7,10.5,19.3,11.3,19.5z"/>
	<path fill-rule="evenodd" clip-rule="evenodd" fill="#FFFFFF" d="M16.9,17.7l-2.3-2.5c-0.4-0.4-0.3-1.1,0.1-1.4L26.7,3
		c0.4-0.4,1.1-0.3,1.4,0.1l2.3,2.5c0.4,0.4,0.3,1.1-0.1,1.4l-12,10.7C18,18.1,17.3,18.1,16.9,17.7z"/>
	<path fill-rule="evenodd" clip-rule="evenodd" fill="#3D3323" d="M17.3,17.4L15,14.9c-0.2-0.2-0.2-0.6,0-0.9L27,3.3
		c0.2-0.2,0.6-0.2,0.9,0l2.3,2.5c0.2,0.2,0.2,0.6,0,0.9l-12,10.7C17.9,17.7,17.5,17.7,17.3,17.4z"/>
	<path fill-rule="evenodd" clip-rule="evenodd" fill="#FFFFFF" d="M17.9,10.4c0-0.2,0.1-0.3,0.3-0.4l0.3-0.3
		c0.1-0.1,0.3-0.2,0.4-0.2c0-0.2,0.1-0.3,0.3-0.4l0.3-0.3c0.1-0.1,0.3-0.2,0.4-0.2c0-0.2,0.1-0.3,0.3-0.4L20.4,8
		c0.1-0.1,0.3-0.2,0.4-0.2c0-0.2,0.1-0.3,0.3-0.4l0.3-0.3c0.1-0.1,0.3-0.2,0.4-0.2c0-0.2,0.1-0.3,0.3-0.4l0.3-0.3
		c0.4-0.3,0.9-0.3,1.3,0.1L27,10c0.3,0.4,0.3,0.9-0.1,1.3l-0.3,0.3c-0.1,0.1-0.3,0.2-0.4,0.2c0,0.2-0.1,0.3-0.3,0.4l-0.3,0.3
		c-0.1,0.1-0.3,0.2-0.4,0.2c0,0.2-0.1,0.3-0.3,0.4l-0.3,0.3c-0.1,0.1-0.3,0.2-0.4,0.2c0,0.2-0.1,0.3-0.3,0.4l-0.3,0.3
		c-0.1,0.1-0.3,0.2-0.4,0.2c0,0.2-0.1,0.3-0.3,0.4l-0.3,0.3c-0.1,0.1-0.3,0.2-0.4,0.2c0,0.2-0.1,0.3-0.3,0.4L21.7,16
		c-0.4,0.3-0.9,0.3-1.3-0.1l-3.4-3.7c-0.3-0.4-0.3-0.9,0.1-1.3l0.3-0.3C17.6,10.5,17.7,10.5,17.9,10.4z"/>
	<path fill-rule="evenodd" clip-rule="evenodd" fill="#49433E" d="M20.7,15.6l-3.4-3.7c-0.2-0.2-0.2-0.5,0-0.7l0.3-0.3
		c0.2-0.2,0.5-0.2,0.7,0c-0.2-0.2-0.2-0.5,0-0.7l0.3-0.3c0.2-0.2,0.5-0.2,0.7,0c-0.2-0.2-0.2-0.5,0-0.7l0.3-0.3
		c0.2-0.2,0.5-0.2,0.7,0c-0.2-0.2-0.2-0.5,0-0.7l0.3-0.3c0.2-0.2,0.5-0.2,0.7,0c-0.2-0.2-0.2-0.5,0-0.7l0.3-0.3
		c0.2-0.2,0.5-0.2,0.7,0c-0.2-0.2-0.2-0.5,0-0.7l0.3-0.3c0.2-0.2,0.5-0.2,0.7,0l3.4,3.7c0.2,0.2,0.2,0.5,0,0.7l-0.3,0.3
		c-0.2,0.2-0.5,0.2-0.7,0c0.2,0.2,0.2,0.5,0,0.7l-0.3,0.3c-0.2,0.2-0.5,0.2-0.7,0c0.2,0.2,0.2,0.5,0,0.7L24.4,13
		c-0.2,0.2-0.5,0.2-0.7,0c0.2,0.2,0.2,0.5,0,0.7l-0.3,0.3c-0.2,0.2-0.5,0.2-0.7,0c0.2,0.2,0.2,0.5,0,0.7l-0.3,0.3
		c-0.2,0.2-0.5,0.2-0.7,0c0.2,0.2,0.2,0.5,0,0.7l-0.3,0.3C21.2,15.8,20.9,15.8,20.7,15.6z"/>
	<circle fill-rule="evenodd" clip-rule="evenodd" fill="#FFFFFF" cx="10.9" cy="20.9" r="0.5"/>
	<path fill-rule="evenodd" clip-rule="evenodd" fill="#FFFFFF" d="M31,4.8c-0.1,1-0.9,1.8-2,1.8c-1-0.1-1.8-0.9-1.8-2
		c0.1-1,0.9-1.8,2-1.8C30.2,2.8,31,3.7,31,4.8z"/>
	<circle fill-rule="evenodd" clip-rule="evenodd" fill="#3D3323" cx="29.1" cy="4.7" r="1.5"/>
	<circle fill-rule="evenodd" clip-rule="evenodd" fill="#FFFFFF" cx="29.1" cy="4.7" r="0.5"/>
</g>
</svg>
