<?xml version="1.0" encoding="utf-8"?>
<!-- Generator: Adobe Illustrator 18.0.0, SVG Export Plug-In . SVG Version: 6.00 Build 0)  -->
<!DOCTYPE svg PUBLIC "-//W3C//DTD SVG 1.1//EN" "http://www.w3.org/Graphics/SVG/1.1/DTD/svg11.dtd">
<svg version="1.1" id="Слой_1" xmlns="http://www.w3.org/2000/svg" xmlns:xlink="http://www.w3.org/1999/xlink" x="0px" y="0px"
	 viewBox="0 0 24.9 24.9" enable-background="new 0 0 24.9 24.9" xml:space="preserve">
<g>
	<g>
		<path fill-rule="evenodd" clip-rule="evenodd" fill="#493D29" d="M0,12.2L0,12.2L0.1,11l0,0l0.2-1.2h0l0.3-1.1h0L1,7.6h0l0.5-1.1
			l0,0l0.6-1l0.7-0.9l0.8-0.9l0.9-0.8l0.9-0.7l1-0.6l1.1-0.5l1.1-0.4l0,0l1.1-0.3l0,0l1.2-0.2L12,0l0,0l1.2,0l0,0l1.2,0.1l1.2,0.2
			l1.1,0.3l1.1,0.4l0,0l1,0.5v0l1,0.6l0,0l0.9,0.7l0.8,0.8l0.8,0.9l0,0l0.7,1l0,0l0.6,1l0,0L24,7.8l0,0l0.3,1l0,0l0,0.1l0,0.1l0,0
			l0.2,0.9l0,0l0,0l0,0.1l0,0l0.2,0.9l0,0l0,0.1l0,0.1l0,0l0.1,0.9l0,0v0.1l0,0.1l0,0v1l0,0l-0.1,1.2h0l-0.2,1.2l0,0l-0.3,1.1h0
			l-0.4,1.1l0,0l-0.5,1l0,0l-0.6,1h0l-0.7,0.9l0,0l-0.8,0.9l0,0l-0.9,0.8l0,0l-1,0.7l0,0l-1,0.6l0,0L17.2,24l0,0l-1.1,0.4l0,0
			l-1.1,0.3l0,0l-1.2,0.2l0,0l-1.2,0.1l0,0l-1.2,0l0,0l-1.2-0.1v0l-1.1-0.3l0,0L8,24.1v0l-1.1-0.5v0l-1-0.6v0l-1-0.7v0L4,21.6l0,0
			l-0.8-0.8l0,0l-0.7-0.9v0l-0.7-1l0,0l-0.6-1l0,0l-0.5-1.1l0,0l-0.4-1.1v0l-0.2-1.1l0,0L0,13.3l0,0L0,12.2L0,12.2L0,12.2z
			 M11.9,12.4c0,0.3,0.3,0.6,0.6,0.6c0.3,0,0.6-0.3,0.6-0.6c0-0.3-0.3-0.6-0.6-0.6C12.1,11.9,11.9,12.1,11.9,12.4L11.9,12.4z
			 M11.9,8.4c1-0.6,1.4-1.9,0.8-3c-0.6-1-1.9-1.4-3-0.8c-1,0.6-1.4,1.9-0.8,3C9.5,8.7,10.8,9,11.9,8.4L11.9,8.4z M9.1,15
			c-1-0.6-2.4-0.2-3,0.8c-0.6,1-0.2,2.4,0.8,3s2.4,0.2,3-0.8C10.6,16.9,10.2,15.6,9.1,15L9.1,15z M16.2,14c0,1.2,1,2.2,2.2,2.2
			c1.2,0,2.2-1,2.2-2.2c0-1.2-1-2.2-2.2-2.2C17.2,11.9,16.2,12.8,16.2,14z"/>
		<path fill-rule="evenodd" clip-rule="evenodd" fill="#493D29" d="M1.6,12.2L1.6,12.2l-0.7-0.3l-0.3-0.1l0-0.3L1,11.4l0.8-0.2l0,0
			L1,10.8l-0.3-0.2l0.1-0.3l0.3,0l0.8-0.1l0,0L1.2,9.8L0.9,9.6L1,9.2l0.3,0l0.8,0l0,0L1.5,8.7L1.3,8.5l0.1-0.3l0.3,0l0.8,0l0,0
			L1.9,7.7L1.7,7.5l0.1-0.3l0.3,0l0.8,0.1l0,0L2.4,6.7L2.2,6.5l0.2-0.3l0.3,0.1l0.8,0.2l0,0L3,5.8L2.8,5.5L3,5.3l0.3,0.1l0.7,0.3
			l0,0L3.7,4.9L3.5,4.7l0.2-0.3L4,4.5l0.7,0.3l0,0L4.4,4.1L4.3,3.8l0.3-0.2l0.3,0.2l0.7,0.4l0,0L5.2,3.4L5.1,3.1l0.3-0.2l0.3,0.2
			l0.6,0.5l0,0L6.1,2.8L6,2.5l0.3-0.2l0.3,0.2L7.2,3h0L7.1,2.2L7,1.9l0.3-0.2L7.5,2l0.5,0.6l0,0L8,1.8l0-0.3l0.3-0.1l0.2,0.3L9,2.2
			l0-0.8l0-0.3L9.4,1l0.2,0.3L10,1.9l0.1-0.8l0-0.3l0.3-0.1L10.7,1L11,1.7L11.2,1l0.1-0.3l0.3,0l0.1,0.3L12,1.6l0.2-0.7l0.1-0.3
			l0.3,0l0.1,0.3l0.2,0.8l0.3-0.7l0.1-0.3l0.3,0L13.9,1l0.2,0.8l0.4-0.7l0.2-0.3L15,0.8l0,0.3L15.1,2l0.4-0.7L15.7,1L16,1.1l0,0.3
			l0,0.8l0.5-0.6l0.2-0.3l0.3,0.1l0,0.3L17,2.6l0.6-0.6l0.2-0.2L18.1,2L18,2.3l-0.1,0.8l0.6-0.5l0.3-0.2l0.3,0.2L19,2.9l-0.2,0.8
			l0.7-0.4L19.7,3L20,3.2l-0.1,0.3l-0.3,0.7l0.7-0.4l0.3-0.2L20.8,4l-0.2,0.3L20.3,5L21,4.7l0.3-0.1l0.2,0.3l-0.2,0.3L21,5.8
			l0.7-0.2L22,5.4l0.2,0.3L22,6l-0.5,0.6l0.8-0.2l0.3-0.1l0.2,0.3l-0.2,0.3l-0.5,0.6l0.8-0.1l0.3,0l0.1,0.3l-0.3,0.2l-0.6,0.5l0.8,0
			l0.3,0l0.1,0.3l-0.3,0.2L23,9.3l0.6,0l0.3,0L24,9.7l-0.3,0.2l-0.6,0.4l0.7,0.1l0.3,0l0.1,0.3l-0.3,0.2l-0.6,0.3l0.6,0.1l0.3,0.1
			l0,0.3L24,11.8L23.4,12l0.5,0.2l0.3,0.1v0.3L24,12.7L23.2,13v0l0.7,0.3l0.3,0.1l0,0.3l-0.3,0.1L23.2,14l0,0l0.7,0.4l0.3,0.2
			l-0.1,0.3l-0.3,0L23,15l0,0l0.6,0.4l0.3,0.2l-0.1,0.3l-0.3,0l-0.8,0l0,0l0.6,0.5l0.3,0.2L23.4,17l-0.3,0l-0.8-0.1l0,0l0.6,0.5
			l0.2,0.2L22.9,18l-0.3-0.1l-0.8-0.1l0,0l0.5,0.6l0.2,0.3L22.4,19L22,18.9l-0.7-0.2l0,0l0.4,0.6l0.2,0.3l-0.2,0.3l-0.3-0.1
			l-0.7-0.3l0,0l0.4,0.7l0.2,0.3L21,20.7l-0.3-0.1L20,20.2l0,0l0.3,0.7l0.1,0.3l-0.3,0.2l-0.3-0.2l-0.7-0.4l0,0l0.2,0.7l0.1,0.3
			l-0.3,0.2L19,22l-0.6-0.5l0,0l0.2,0.7l0.1,0.3l-0.3,0.2l-0.3-0.2L17.5,22l0,0l0.1,0.8l0,0.3l-0.3,0.1L17.1,23l-0.5-0.6l0,0l0,0.8
			l0,0.3l-0.3,0.1l-0.2-0.3l-0.5-0.6l0,0l0,0.8l0,0.3L15.2,24L15,23.7l-0.4-0.7l0,0l-0.1,0.8l-0.1,0.3l-0.3,0.1l-0.2-0.3l-0.3-0.7
			l0,0L13.4,24l-0.1,0.3l-0.3,0L12.9,24l-0.3-0.7h0L12.3,24l-0.1,0.3l-0.3,0L11.8,24l-0.2-0.7l0,0l-0.3,0.7l-0.1,0.3l-0.3,0
			l-0.1-0.3l-0.1-0.8l0,0l-0.4,0.7L10,24.1L9.6,24l0-0.3l-0.1-0.8l0,0l-0.4,0.6l-0.2,0.3l-0.3-0.1l0-0.3l0-0.8l0,0l-0.5,0.6
			l-0.2,0.3l-0.3-0.1l0-0.3l0.1-0.8l0,0l-0.6,0.5l-0.2,0.2l-0.3-0.2l0.1-0.3l0.2-0.7l0,0l-0.6,0.5l-0.3,0.2l-0.3-0.2l0.1-0.3
			l0.2-0.7l0,0l-0.6,0.4L5,21.7l-0.3-0.2l0.1-0.3l0.3-0.7l0,0l-0.7,0.4l-0.3,0.2l-0.2-0.2l0.2-0.3l0.4-0.7l0,0L3.7,20l-0.3,0.1
			l-0.2-0.3l0.2-0.3l0.4-0.6l0,0L3,19.1l-0.3,0.1l-0.2-0.3l0.2-0.3l0.5-0.6l0,0l-0.8,0.1l-0.3,0.1L1.9,18l0.2-0.2l0.5-0.6l0,0
			l-0.8,0.1l-0.3,0l-0.1-0.3l0.3-0.2l0.6-0.5l0,0l-0.8,0l-0.3,0l-0.1-0.3l0.3-0.2L2,15.2l0,0l-0.8-0.1l-0.3,0l-0.1-0.3l0.3-0.2
			l0.7-0.4l0,0L1,14.1L0.7,14l0-0.3L1,13.5l0.7-0.3l0,0L0.9,13l-0.3-0.1l0-0.3l0.3-0.1L1.6,12.2L1.6,12.2z M11.3,12.4
			c0,0.6,0.5,1.1,1.1,1.1c0.6,0,1.1-0.5,1.1-1.1c0-0.6-0.5-1.1-1.1-1.1C11.8,11.3,11.3,11.8,11.3,12.4L11.3,12.4z M12.2,8.9
			c1.3-0.8,1.8-2.4,1-3.8c-0.8-1.3-2.4-1.8-3.8-1c-1.3,0.8-1.8,2.4-1,3.8C9.2,9.2,10.8,9.7,12.2,8.9L12.2,8.9z M9.4,14.5
			c-1.3-0.8-3-0.3-3.8,1c-0.8,1.3-0.3,3,1,3.8c1.3,0.8,3,0.3,3.8-1C11.2,16.9,10.7,15.2,9.4,14.5L9.4,14.5z M15.6,14
			c0,1.5,1.2,2.8,2.8,2.8c1.5,0,2.8-1.2,2.8-2.8c0-1.5-1.2-2.8-2.8-2.8C16.8,11.3,15.6,12.5,15.6,14z"/>
	</g>
</g>
</svg>
