<?xml version="1.0" encoding="utf-8"?>
<!-- Generator: Adobe Illustrator 18.0.0, SVG Export Plug-In . SVG Version: 6.00 Build 0)  -->
<!DOCTYPE svg PUBLIC "-//W3C//DTD SVG 1.1//EN" "http://www.w3.org/Graphics/SVG/1.1/DTD/svg11.dtd">
<svg version="1.1" id="Слой_1" xmlns="http://www.w3.org/2000/svg" xmlns:xlink="http://www.w3.org/1999/xlink" x="0px" y="0px"
	 viewBox="0 0 254.2 92.5" enable-background="new 0 0 254.2 92.5" xml:space="preserve">
<g>
	<g>
		<path fill="#26201A" d="M31,29.4l0.6,0.6l0.1,1.2l-0.5,1.4l-0.5,0.9L30,34.4l-0.5,0.9L29,36.1l-0.7,0.8l-0.5,0.8l-3.9,3.5
			l-0.8,0.6l-2.9,1.4l-1.7,0.6l-2.4,0.7l-3,0.3l-2.3,0.1l-2.7-0.5l-1.6-0.7l-0.8-0.3l-1.5-0.9l-1.2-1.2l-1.1-1.4l-1.3-3.2l-0.2-1.9
			l-0.2-0.9L0,32l0.2-3.8l1.1-4.7l1.2-3.9l0.5-0.9l0.4-1l0.4-0.8L4.5,16l0.4-1l1-1.8l0.6-0.8l0.6-0.9l2.5-3l2.3-2.2l2.4-1.8L17,2.9
			l2.9-1l1.8-0.3l1.4-0.1l2.3,0.1l0.9,0.2l1.3,0.9l0.7,0.7L28.8,4l0.4,0.7l0.4,1.7l0.1,0.9l-0.1,0.9l-0.2,0.9l-0.2,1l-0.3,0.9
			l-1.8,3.6l-0.9,1.1l-1.3,0.8l-0.9-0.1l-0.7-0.4l-0.5-0.7l0.2-1.3l0.7-1.3L24,12l0.7-2.7l0-0.9l-0.5-1.5l-0.6-0.5l-1.4-0.2l-1.2,0
			l-1.9,0.6l-1.4,0.6l-1.3,0.8l-1.7,1.3l-1.5,1.4l-0.7,0.7L12,12.4l-0.7,0.9L10.7,14l-0.6,0.9l-1.5,2.7l-0.8,1.8l-0.6,1l-0.7,1.9
			l-1.3,4.8l0,0.9l-0.2,0.9l0.1,2l0,0.8l0.2,1.8l0.2,0.9L6.1,36l0.4,0.8l1,1.3l0.6,0.5L9,39.1l1.6,0.6l1.8,0.5l1.3,0L16,40l2-0.3
			l2.8-1.1l2.5-1.7l2.9-2.9l0.6-0.9l0.7-0.9l0.5-0.9l0.9-1.3l1.3-0.8L31,29.4z M2,28.1l-0.3-0.2l-0.6-0.4l-0.1,0.3L1.3,28l0.2,0.5
			l0.5,0L2,28.1z M2.4,26.3l-0.1-0.5L1.7,26l0.1,0.5L2.4,26.3z M1.9,30.7l-0.4-0.2l-0.1,0.7l0.5,0L1.9,30.7z M1.8,33l-0.4-0.1
			l-0.3,0.4l0.4,0.2L1.8,33z M2.4,23.6l-0.1,0.5l0.5-0.3l-0.1-0.5L2.4,23.6z M4.1,32.8l-0.5-0.1l-0.5,0.4l-0.2,0.4l-0.3,0.3L2.2,34
			l-0.4,0.4l0,0.2l0.5,0.3L3,34.2L3.2,34l0.3-0.2L4,33.4L4.1,32.8z M3.7,24.6l-0.6,0.1L3,25.4l0.6-0.1L3.7,24.6z M3.5,27.1l-0.6,0
			l0,0.6l0.6,0L3.5,27.1z M2.9,31.6l-0.6,0.2l-0.1,0.7l0.6-0.2L2.9,31.6z M2.7,29.4L2.6,30l0.6,0l0.1-0.5L2.7,29.4z M4.3,19.8
			l-0.4,0l-0.1,0.5l0.5,0L4.3,19.8z M2.3,37l0.1-0.5l-0.6,0L1.8,37L2.3,37z M4.1,22l-0.5,0.1l0.1,0.5l0.4-0.1L4.1,22z M5.1,23.3
			l-0.6,0l-0.1,0.6L4.8,24L5,23.8L5.1,23.3z M4.4,28.3l-0.5,0l0,0.5l0.5-0.1L4.4,28.3z M3.7,30.6L3.6,31l0.3,0l0.2-0.4L3.7,30.6z
			 M5.6,18.6l-0.5,0L5.1,19l0.5,0L5.6,18.6z M3.6,35.2l-0.5,0.1L3,35.9l0.5-0.1L3.6,35.2z M3.5,37.7l-0.7,0.1l-0.1,0.5l0.5,0
			l0.2-0.1L3.5,37.7z M5.5,21l-0.5-0.1l-0.1,0.5l0.5,0L5.5,21z M6,16.2l-0.5,0.1l0,0.4L6,16.6L6,16.2z M4.7,25.9l-0.3,0l-0.1,0.2
			l0.3,0L4.7,25.9z M6.7,14.8l-0.1,0.5l0.5,0l0.1-0.5L6.7,14.8z M6.4,17.4l-0.1,0.5L6.8,18l0-0.5L6.4,17.4z M4.3,36.5L4.1,37l0.6,0
			l0.1-0.6L4.3,36.5z M4.4,38.8l-0.5,0l-0.1,0.5l0.5,0L4.4,38.8z M8.1,13.5l0,0.6l0.5,0l0.1-0.6L8.1,13.5z M5.6,37.7l-0.4,0l0,0.4
			l0.4,0L5.6,37.7z M5.4,39.9l-0.5,0l0,0.6l0.5-0.1L5.4,39.9z M21.2,9l-0.8,0.4L19.4,10l-0.8,0.5l-2.5,2L14.7,14l-0.6,0.9l-0.7,0.8
			l-0.6,0.8L10.2,21L9,23.8l-0.7,2.8l-0.5,2.8l-0.1,2l0.1,1.8l0.4,1.7l0.3,0.9l0.2,1l-0.8-0.7l-0.4-0.7l-1-3.5l0-0.8L6.3,30l0.1-1.8
			L7,25.2l0.2-0.8l0.5-1l0.5-1.9l0.4-1l0.3-0.9l0.6-0.8l0.5-1l1.1-1.8l0.4-0.8l0.7-0.8l0.6-0.9l0.7-0.8l0.6-0.7l1.4-1.3l0.7-0.7
			l0.8-0.6l2.6-1.6l1-0.3l0.8-0.2l1.2,0.1l0.3,0.7l-0.6,0.6L21.2,9z M6.8,38.5l-0.5,0.1l0,0.5l0.5-0.1L6.8,38.5z M6.4,41.8l0.1-0.5
			L6,41.4l-0.1,0.4L6.4,41.8z M9.8,10.3l-0.1,0.3l0.3,0l0-0.3L9.8,10.3z M9.4,13.1l0.3-0.1l0.2-0.4l-0.4-0.1L9.4,13.1z M31.4,37.4
			l-0.1,0.7l-0.2,0.5l-0.4,0.8l-0.5,0.7l-2,2.1L25,44.7l-2.6,1.3l-2,0.7l-5.6,1.1l-0.9,0l-0.8-0.1l-1.1,0l-2.2-0.3l-1.3-0.3L7,46.5
			l-0.8-0.4l-0.4-0.6l2,0.4l0.8,0.3l2.7,0.3l3.7-0.2l5.2-1.2l4.4-2.2l0.9-0.6l0.8-0.6l0.7-0.7l0.7-0.6l1.2-1.2l2.1-3.1l0.2,0
			l0.2,0.8L31.4,37.4z M11.5,8.9l-0.5,0L11,9.2l0.5,0L11.5,8.9z M7.3,40l-0.1,0.5l0.5,0l0.1-0.6L7.3,40z M7.4,42.7l0-0.2l-0.2,0
			l-0.1,0.3L7.4,42.7z M8.7,41.7L8.9,41l-0.6,0l-0.2,0.7L8.7,41.7z M12.6,7.5l-0.3,0l0,0.4l0.4-0.1L12.6,7.5z M12.5,10l-0.3,0
			l-0.2,0.3l0.3,0.1L12.5,10z M14.3,6.2l-0.6-0.1l0,0.5l0.4,0.2L14.3,6.2z M13.7,8.8l-0.3,0l0,0.2l0.2,0L13.7,8.8z M10,42l-0.5,0
			l-0.1,0.6l0.5,0L10,42z M9.9,40.3l-0.1-0.1l-0.1,0.2l0.2,0L9.9,40.3z M15,7.5l-0.4,0.1l0,0.3l0.4,0L15,7.5z M11.1,41.6l0.1-0.5
			l-0.5,0.1l-0.1,0.4L11.1,41.6z M15.5,5.2l0-0.4l-0.5,0l0,0.4L15.5,5.2z M10.9,43.4l-0.3-0.1l-0.2,0.4l0.3,0.1L10.9,43.4z
			 M12.2,42.7l0.2-0.8l-0.6,0l-0.2,0.7L12.2,42.7z M16.4,6.4L16.5,6l-0.5,0L16,6.3L16.4,6.4z M16.7,3.9l-0.2,0l-0.1,0.3L16.7,4
			L16.7,3.9z M17.7,5.4l0.2-0.5l-0.5,0.1l-0.1,0.5L17.7,5.4z M12.8,43.2l0,0.4l0.3,0.1l0-0.4L12.8,43.2z M13.6,41l-0.4,0l-0.1,0.4
			l0.4,0L13.6,41z M14.5,42L14,42l0,0.6l0.5-0.1L14.5,42z M20.3,2.7l-0.4,0.1l-0.6,0.4L19,3.5l-0.3,0.7l0.6,0l0.3-0.3l0.2-0.2
			l0.3-0.3l0.2-0.2L20.3,2.7z M15.5,40.8l-0.2,0.5l0.5,0l0.1-0.5L15.5,40.8z M20.1,5.2l0.1-0.5l-0.4-0.2l0,0.5L20.1,5.2z M15.8,43.2
			l0.3-0.3l0.3-0.2l0.3-0.3l0.3-0.5l-0.3-0.2l-0.4,0.3L16,42.3l-0.3,0.2l-0.1,0.2l-0.3,0.4l0.1,0.2L15.8,43.2z M21,4.1l0.5,0l0-0.6
			l-0.5,0L21,4.1z M22.6,4.9l0-0.5l-0.5,0.1l0,0.6L22.6,4.9z M18.3,41.1l0-0.6l-0.4,0l-0.1,0.6L18.3,41.1z M22.9,2.4l-0.4,0l0,0.3
			l0.3,0L22.9,2.4z M17.9,42.8l-0.1,0l-0.1,0.2l0.2,0L17.9,42.8z M23.8,3.3l-0.5,0l-0.1,0.5l0.5,0L23.8,3.3z M19.3,42l0.1-0.4
			l-0.3,0L19,42L19.3,42z M20.7,40.4l-0.5,0L20,41l0.5,0L20.7,40.4z M26.2,3.3l-0.3,0l-0.3,0.4l-0.2,0.2L25,4.2l-0.2,0.1l-0.3,0.4
			L24.5,5l0.4-0.3l0.3-0.2l0.3-0.3l0.3-0.2L26,3.8L26.2,3.3z M26.1,5.6l-0.6,0.1l0.1,0.5l0.5-0.1L26.1,5.6z M22,39.2l-0.4,0
			l-0.1,0.4l0.5,0L22,39.2z M25.3,8l0,0.4L26,8.4l0-0.5L25.3,8z M25.3,12.8l-0.5,0.1l0.1,0.5l0.4-0.1L25.3,12.8z M25.3,10.7l0.2-0.1
			l0-0.3l-0.2,0.1L25.3,10.7z M27.1,6.7l-0.7,0.1l-0.1,0.6l0.5-0.1L27.1,6.7z M26.9,9.2l-0.5-0.1l-0.3,0.5l0.5,0L26.9,9.2z
			 M22.7,38.1l0,0.4l0.4-0.1l0-0.4L22.7,38.1z M27.4,4.5l-0.5,0L26.8,5l0.4,0L27.4,4.5z M23.1,40.1l-0.3,0l-0.2,0.3l0.4,0.1
			L23.1,40.1z M28.6,14.8l0.9-1.8l0.3-0.9l0.4-1l0.2-1l0.3-2.8l-0.2-2.3l0.4,0.2l0.6,0.7l0.4,1.7L32,8.7l-0.1,1.9l-0.4,2l-1,2.7
			l-1.1,1.9l-1,1.2l-1.3,0.8l-0.9-0.1l-0.8-0.4l-0.1-0.6l1.5-0.7l0.7-0.9L28.6,14.8z M26.6,11.6l-0.3,0L26.2,12l0.4,0L26.6,11.6z
			 M27.7,10.4l-0.4-0.1l-0.1,0.5l0.3,0L27.7,10.4z M28.1,5.7l0.1-0.2l-0.2,0l0,0.1L28.1,5.7z M27.9,8l-0.2,0l0.1,0.2l0.1,0L27.9,8z
			 M24.2,39.1l-0.2,0l0,0.3l0.2,0L24.2,39.1z M28.9,32.4l-0.3,0.3l-0.2,0.4l0.3,0.2l0.2-0.5l0.1-0.2l0.1-0.4L28.9,32.4z"/>
		<path fill="#26201A" d="M57.4,27.8l0.8,0.4l0.4,0.7l-0.1,1.2l-0.5,1.2l-0.6,0.9l-0.5,1l-1,1.6l-0.6,0.5l-0.6,0.7l-0.6,1l-0.7,0.7
			l-1.5,1.1l-0.7,0.5l-0.9,0.5l-1,0.3l-3.5,0.1L45,40l-1-0.1l-4.4,2.3l-1,0.3l-3.4,0.1l-0.7-0.3l-0.8,0l-2-1.1L31,40.7l-1.2-2
			L29,35.5l0.1-3.5L29,31.2l0.1-2l0.2-0.9l0.1-1.7l0.3-0.8l0.2-2l0.3-0.8l1.1-4.7l0.1-0.7l0.3-1l0.2-0.9l0.4-0.7l0.4-1.9l1-2.8
			L34,9.7l1.1-2.8l0.6-0.8L36,5.4l0.5-0.9L37.8,3l1.4-1.3L40,1.2l0.8-0.4l1.3-0.4l1.2-0.1l1-0.2l2.4,0.7L47.2,1l1.1,1.2l0.4,1.6
			l0.1,0.9l-0.1,0.7l-0.1,1l-0.1,0.8l-0.4,1L48,9.1L47.7,10l-2.2,4.4l-0.6,0.9l-1.2,1.4l-0.1,0.8l0.7,0.4l2.3,0.4l0.8,0.5l0.7,0.3
			l0.5,0.6l0.9,1.4l0.3,0.9l0.3,1.6l0.2,1.8l0,0.6l-0.2,1.7l-0.3,1l-0.1,0.7l-0.3,1.1l-0.6,1.9L48.5,33l-0.3,0.9l-0.4,0.7l-0.1,0.9
			l0.9,0.4l1.2-0.2l1.6-0.9l0.6-0.7l1.3-1.8l0.4-0.8l0.6-0.9l0.5-0.9l0.9-1.1l1-0.9L57.4,27.8z M30.5,26.1l-0.1,0.6l0.2,0.2l0.7-0.2
			l-0.1-0.6L30.5,26.1z M31.3,23.7l-0.5,0.1l0.1,0.6l0.5-0.1L31.3,23.7z M31.8,21.3l-0.6,0.1l0,0.5l0.6,0L31.8,21.3z M30.8,28.6
			l-0.5,0l-0.1,0.6l0.5,0L30.8,28.6z M30.1,31.2L30,31.6l0.5,0.1l0.1-0.5L30.1,31.2z M30.2,34.1l0.1-0.4l-0.4,0l-0.1,0.4L30.2,34.1z
			 M32.1,27.3l-0.6,0l0,0.6l0.5,0L32.1,27.3z M31.8,29.7l-0.7,0.2l0,0.7l0.7-0.1L31.8,29.7z M31.7,25.6l0.6,0.1l0.2-0.2l0.1-0.5
			l-0.1-0.2l-0.7,0.2L31.7,25.6z M32.7,17.7l0,0.4l0.4-0.1l0-0.4L32.7,17.7z M33,20.2l-0.6,0l-0.1,0.5l0.6,0L33,20.2z M32.8,22.3
			l-0.6,0l0,0.6l0.6,0L32.8,22.3z M31.5,32.8l0-0.5l-0.4,0l-0.1,0.5L31.5,32.8z M31.3,35.5l0-0.6l-0.6,0l0.1,0.6L31.3,35.5z
			 M33.8,12.9L33.4,13l0,0.3l0.4,0L33.8,12.9z M33.5,15.6l0-0.4l-0.4,0l-0.1,0.4L33.5,15.6z M31,37.6l0-0.4l-0.5,0.1l0.1,0.4
			L31,37.6z M33.5,26L33,26l-0.3,0.2l-0.1,0.5l0.7,0L33.5,26z M34,23.5l-0.6,0l-0.3,0.2L33,24.3l0.6,0l0.3-0.2L34,23.5z M33.1,28.5
			l-0.6,0.2l-0.1,0.5l0.6,0L33.1,28.5z M32.7,31.1L32.4,31l-0.2,0.4l0.4,0.1L32.7,31.1z M31.8,36l-0.2,0.6l0.6-0.1l0.1-0.5L31.8,36z
			 M35.2,8.8L35,9.2l0.2,0.5l0.4,0.4l0.1,0.3l0.4,0.4l0.4-0.5l-0.4-0.5l-0.4-0.4l-0.1-0.2l-0.2-0.3L35.2,8.8z M35.2,11.3l-0.5,0.1
			l0,0.5l0.5-0.1L35.2,11.3z M35.6,14.8l-0.3-0.5l-0.1-0.3l-0.3-0.3l-0.5,0.4l0.2,0.5l0.2,0.2L35,15l0.2,0.2l0.3,0.2l0.1-0.2
			L35.6,14.8z M34.3,18.8l-0.5,0.1l0.1,0.5l0.5-0.1L34.3,18.8z M34.6,16.6l0-0.4l-0.4,0l-0.1,0.4L34.6,16.6z M33.6,21.3l0,0.6
			l0.7-0.1l-0.1-0.5L33.6,21.3z M32.1,38.8l0.1-0.5l-0.5,0l-0.1,0.5L32.1,38.8z M32.5,33.7l-0.3,0l0,0.4l0.3,0L32.5,33.7z M36.2,7.5
			l-0.1,0.7l0.5,0.1l0.1-0.7L36.2,7.5z M36.3,12.6l-0.7,0.1l0.1,0.5l0.5,0.1L36.3,12.6z M35,22.3l-0.5,0.1l0,0.5l0.5-0.1L35,22.3z
			 M40.3,37.3l0.7-1.1l0.8-2l1-1.1l0.8-0.6l0.8-0.9l0.7-1.7l0.3-1l0.3-2.5l0-1.8l-0.3-0.8L45,23.3l-0.5-0.8l-0.7-0.2l-1.1-0.1
			l-1.3,0l-1.5,0.6l-0.8,0.5l-0.8,0.2L37.6,24l-0.7,0.8l-0.7,0.6l-0.6,0.7L35.1,27l-0.6,0.7l-0.9,2.7l-0.1,0.8l0,0.9l0.3,2.6
			l0.6,1.7l0.5,0.8l0.6,0.5l2,0.2l1.2-0.2L40.3,37.3z M34.7,25.3l0.1-0.5l-0.5,0l-0.1,0.7L34.7,25.3z M32.9,39.7l-0.3-0.1l0,0.4
			l0.4,0.1L32.9,39.7z M33.3,37l-0.4,0.1l0,0.4l0.4,0L33.3,37z M35.4,19.7l-0.2,0.8l0.2,0.7l0.6-0.2l0.6-0.5l0.6-0.8l0.6-0.6
			l0.6-0.9l0.6-0.7l1.6-2.4l2.2-4.2l0.7-1.7l0.2-1l0.2-1.5l-0.1-0.9l-0.3-0.6l-1-0.1l-1.1,0.4l-1.8,2.5l-1.2,2.7l-0.5,0.7l-0.2,1
			l-0.4,0.8l-1.8,5.5L35.4,19.7z M41.9,25.4l-0.8,0.5l-0.7,0.3l-0.8,0.5l-0.7,0.6L37,29.7l-0.4,0.7L35.8,33l0.3,2.5l0.2,0.7l0,0.4
			l-0.4-0.1l-1-1.2l-0.2-0.9l-0.2-2.6l0.2-1.3l0.6-1.3l0.6-0.7l1.2-1.5l1.5-1.4l1.7-1.2l0.9-0.4l1-0.2l1.1,0.1l0.3,0.8L42.7,25
			L41.9,25.4z M33.7,38.5l0.1,0.3l0.4,0l-0.1-0.5L33.7,38.5z M38.3,6.3l-0.6,0l-0.1,0.6l0.6,0L38.3,6.3z M37.9,4.4l0.2,0l0.1-0.2
			l-0.3,0L37.9,4.4z M37.8,9l-0.2,0l-0.2,0.3l0.4,0.2L37.8,9z M36.3,21.7l0-0.4l-0.3,0l-0.1,0.4L36.3,21.7z M36.1,23.5l-0.5,0.1
			l-0.1,0.5l0.5-0.1L36.1,23.5z M58,35.9l-0.1,0.8l-1.5,2.6l-1.1,1.2l-2.1,1.5l-0.8,0.2l-0.7,0.3l-2.4,0.5l-4,0.2l-0.7,0.2l-2.5,1.2
			L40.5,45L38,45.3l-0.8-0.1l-2.1-0.7l-1.3-0.8l-0.1-0.3l0.4,0l0.7,0.2l0.7,0.1l1.3,0l0.8,0.1l1.1-0.1l1-0.4l0.8-0.2l1.5-0.7
			l0.8-0.5l0.7-0.3l0.9-0.3l3.5,0l2.4-0.4l0.8-0.3l2.3-1.3l1.8-1.8l1.9-2.9l0.1-0.2l0.2-0.2l0.2,0l0.1,0.4L58,35.9z M37.7,15.5
			l0.4-0.7l0.3-1.1l1.1-2.7l1.4-2.6l0.5-0.7L42,7.1l0.4,0.7l-0.2,1.4l-0.6,1.3L40.3,13L40,14l-1.5,2.3l-1,0.8l0-0.8L37.7,15.5z
			 M39,5.1l-0.2,0.5l0.6,0l0.1-0.5L39,5.1z M39.9,2.5l-0.6,0.1l0,0.6L39.9,3L39.9,2.5z M35.5,39.4l-0.5,0l-0.1,0.5l0.6,0.1
			L35.5,39.4z M37.6,22.3l-0.4,0L37,22.6l0.4,0L37.6,22.3z M41.1,1.8l0.1-0.5l-0.5,0l-0.1,0.5L41.1,1.8z M39,20.8l-0.5,0.1l-0.1,0.6
			l0.4,0l0.3-0.3L39,20.8z M37,41.6l-0.2-0.5l-0.3-0.6l-0.5,0.2l0,0.4l0.4,0.3l0.3,0L37,41.6z M40.9,4l-0.3,0l0,0.4l0.4-0.1L40.9,4z
			 M39.3,18.7l-0.5,0l-0.1,0.5l0.4,0L39.3,18.7z M36.7,38.6l-0.3,0l0,0.3l0.3,0L36.7,38.6z M41.2,20.8l-0.6-0.6l-0.1-0.3l0.2-0.4
			l0.5-0.5l0.4-0.6l-0.1-0.2l-0.6,0l-0.3,0.2l-0.3,0.3L40.3,19L40,19.3l-0.5,0.6l0.2,0.5l0.3,0.2l0.6,0.5l0.4,0.3l0.3-0.3L41.2,20.8
			z M42.2,2.6l-0.5,0L41.6,3l0.5,0.1L42.2,2.6z M37.8,39.4l-0.5,0.1l0,0.6l0.5-0.1L37.8,39.4z M40.7,17.1l-0.6,0l-0.2,0.6l0.6,0
			L40.7,17.1z M41,15.5L41,15.9l0.4,0.6l0.6-0.2l0-0.6l-0.6-0.2L41,15.5z M38.7,41l0.2-0.5l-0.6,0l-0.1,0.5L38.7,41z M43.5,1.3
			l-0.3,0l-0.1,0.2l0.2,0.1L43.5,1.3z M43.2,3.6l-0.3,0.1l-0.1,0.4l0.4,0L43.2,3.6z M42.2,13.6l-0.4,0l0,0.4l0.4,0L42.2,13.6z
			 M43.8,20.7l-0.3-0.2l-0.6-0.7l-0.5-0.4l-0.5,0.6l0.3,0.5l0.3,0.2l0.4,0.3l0.4,0.4l0.4-0.3L43.8,20.7z M42.7,14.6l0,0.6l0.5,0
			l0.1-0.6L42.7,14.6z M42.5,17l0,0.6l0.5,0l0.1-0.5L42.5,17z M43.6,12.1l-0.5,0.1L43,12.8l0.5-0.1L43.6,12.1z M44.8,3l0.1-0.5
			l-0.6-0.1L44.3,3L44.8,3z M40.3,39.5l0.1-0.5l-0.5,0.1l-0.1,0.5L40.3,39.5z M43.6,10.1l0.1,0.4l0.1,0.2l0.1,0.2l0.1,0.3l0.3,0.5
			l0.4-0.3l0-0.5l-0.1-0.2l-0.2-0.2l-0.4-0.3L43.6,10.1z M45.1,8.3l-0.1-0.2l-0.3-0.2l-0.3-0.2l-0.1,0.4l0.1,0.2l0.1,0.2l0.2,0.2
			l0.4,0L45.1,8.3z M45.6,6.5l0-0.6l-0.6,0l0,0.7L45.6,6.5z M44.4,13.3l-0.3,0.1l0.1,0.3l0.3-0.2L44.4,13.3z M43.6,18.5l-0.1,0.2
			l0.3,0.1l0-0.2L43.6,18.5z M41.6,38.6l0.1-0.6l-0.5,0l-0.1,0.5L41.6,38.6z M40.8,40.4l0,0.4l0.4-0.1l0-0.4L40.8,40.4z M46,1.3
			l-0.2-0.1l-0.1,0.2l0.1,0.1L46,1.3z M43,36.6l-0.6,0l0.1,0.5l0.1,0.2l0.6-0.2L43,36.6z M47.1,2.3l-0.3-0.1l-0.2,0.4L47,2.7
			L47.1,2.3z M46.8,4.7l-0.5,0l0.1,0.5l0.4-0.1L46.8,4.7z M42.8,39.2L42.3,39l-0.2,0.5l0.5,0.1L42.8,39.2z M46.2,9.6l-0.5,0.1l0,0.4
			l0.4,0L46.2,9.6z M45.6,12.1l-0.1,0.2l0.2,0l0-0.2L45.6,12.1z M45.2,19.5l-0.6,0L44.5,20l0.6,0L45.2,19.5z M46.5,7.3l-0.4,0l0,0.4
			l0.4,0L46.5,7.3z M42.9,34.3l-0.1,0.5l0.4,0l0.1-0.5L42.9,34.3z M47.4,21.8l-0.3-0.2l-0.3-0.2l-0.2-0.2l-0.3-0.5L46,20.4l-0.6,0.4
			l0.4,0.5l0.3,0.2l0.2,0.2l0.2,0.2l0.4,0.3l0.4-0.3L47.4,21.8z M43.5,37.9l-0.1,0.4l0.5,0l0.2-0.5L43.5,37.9z M47.2,14.2l1.5-3.4
			l0.9-2.6l0.2-2.7l0-0.9l0.1-0.7l0-0.6l0.4,0.2L50.6,4l0.2,0.9l0.2,1.5L51,8.2L50.8,9l-0.1,1l-0.3,0.8l-0.3,0.8L49,14.3L48.1,16
			l-1,0.8l-0.9-0.1l0.2-1.2L47.2,14.2z M47.2,8.3l-0.1,0.2l0.2,0l0-0.2L47.2,8.3z M44.3,35.9l0-0.5l-0.4,0l-0.1,0.5L44.3,35.9z
			 M47.6,5.5l-0.1,0.6L48,5.9L48,5.5L47.6,5.5z M44.7,33.4l0.1-0.5L44.3,33l-0.1,0.5L44.7,33.4z M47.1,19.8l0.1-0.3l-0.3,0l0,0.4
			L47.1,19.8z M46.9,32.8l-0.8-0.9l-0.2-0.2l-0.5,0l0.2,0.5l0.2,0.3l0.2,0.2l0.2,0.3l0.3,0.4l0.4-0.2L46.9,32.8z M45.8,33.8
			l-0.7,0.1l-0.1,0.7l0.8-0.1L45.8,33.8z M47.1,36.5l0.1,0.2l0.2,0.2l0.5-0.1l0-0.4l-0.2-0.2l-0.3,0L47,36L47,35.4l-0.2-0.3
			l-0.6,0.1L46,35.6l-0.1,0.5l-0.2,0.2l-0.4,0l-0.3,0.2l-0.1,0.6l0.5,0.3l0.1,0.2l0.2,0.5l0.2,0.2l0.6-0.2l0.2-0.6l-0.1-0.2
			l-0.4-0.4L46,36.8l-0.1-0.2l0.2-0.3l0.6,0L47.1,36.5z M46.5,24.4l0,0.2l0.2,0l0-0.2L46.5,24.4z M45.1,39.1l-0.2,0l-0.1,0.2
			l0.2,0.1L45.1,39.1z M48.3,22.9l-0.5,0l-0.3,0.5l0.6,0.1L48.3,22.9z M47.3,30.2l-0.4,0l-0.2,0.5l0.5,0.1L47.3,30.2z M47.8,25.3
			l-0.4,0.1l0,0.4l0.4-0.1L47.8,25.3z M48.4,20.6L48,20.7l0,0.4l0.4,0L48.4,20.6z M48.6,26.4l-0.3,0.3l-0.3,0.2l-0.3,0.3l-0.4,0.6
			l0,0.6l0.5-0.3l0.3-0.3l0.4-0.5l0.3-0.3l0.3-0.4l-0.1-0.3L48.6,26.4z M49.3,24l-0.6-0.1l-0.1,0.6l0.6,0L49.3,24z M47.9,31.4
			l-0.1,0.4l0.5,0l0-0.4L47.9,31.4z M48.3,29.1l0,0.3l0.4,0l0-0.4L48.3,29.1z M47.5,38.9l-0.3,0l0,0.2l0.2,0L47.5,38.9z M48.9,38.1
			l0.1-0.5l-0.5-0.1L48.4,38L48.9,38.1z M50.4,31.8l0.2-0.9l0.3-1l0.1-0.8l0.4-1l0-1l0.2-0.9l0-0.8l-0.1-1.7l0.1-0.7l0.7,0.9
			l0.5,2.6l0,0.7l0,0.9l-0.2,2l-0.8,2.1l-1,1.1l-0.6,0.1L50,32.6L50.4,31.8z M50.1,36.7l-0.2,0l0,0.2l0.1,0L50.1,36.7z M51.1,37.7
			l-0.2,0l-0.1,0.2l0.2,0L51.1,37.7z M52.7,36.3l-0.3,0l-0.2,0.4l0.4,0L52.7,36.3z M53.6,34.8l0,0.2l0.2,0l0.1-0.2L53.6,34.8z
			 M55.9,32.2l0-0.2l-0.2-0.2l-0.1-0.1l0-0.3l-0.1-0.2l-0.1,0.3l0.1,0.2L55.9,32.2z"/>
		<path fill="#26201A" d="M57.6,41.5l-0.7-0.3l-0.8-0.5l-1-1.1L54.5,38l0-0.8l0-0.9l-0.1-0.9l0.2-2.9l0.9-3.2l0.8-1.3l0.8-0.1l1,0.2
			l0.5,0.6l-0.1,2.5l-0.3,1L58,33.7l0.1,0.8l0,1.1l0.3,0.6l0.3,0.9l1,0.1l1.1-0.2l0.9-0.6l0.7-0.7l0.6-0.7l0.9-1.5l0.6-0.7l0.2-1
			L64,30.8l-1.8-1.3l-0.9-1.4L61,27.5l-0.3-2.7l0.2-1.1l0.3-1.4l0.3-0.8l0.4-0.8l0.7-0.7l0.5-0.7l0.7-0.7l1.5-1l0.9-0.3l1-0.5
			l2.6-0.2l1.5,0.3l1,0.1l0.7,0.3l0.9,0l2.2-1.2l1.5,0.3l0.7,0.3l0.2,1.2l-0.2,1.3l-0.2,1.1l-0.5,1.6l-0.2,1L77,23.6L75.7,29
			l-0.3,0.7L75,32.6l-0.2,0.8l0.3,1.8l0.8,0.4l1.3,0l0.8-0.5l0.7-0.5l1.2-1.4l0.6-0.9l0.7-0.7l3-4.8l1-0.8l0.8,0.1l0.7,0.5l0.4,0.4
			l0,1.2l-1.5,2.9L85,31.9l-0.7,0.8l-0.5,0.9l-0.6,0.7l-0.4,0.7l-2.7,3L78.6,39l-0.8,0.6l-0.8,0.5L76,40.4l-1.1-0.1l-1.2,0.1
			L72,39.9l-0.6-0.6L71,38.8l-0.7-3.4l0.2-0.8l0.1-1.7l0.1-0.8l-0.2-0.8l-0.9,0.1l-0.8,1l-0.4,0.8l-0.4,1l-1.6,2.4l-2.7,3.2
			l-0.8,0.7L62,40.8l-2.1,0.8l-1.4,0.1L57.6,41.5z M56.6,36.2l-0.4,0l0,0.4l0.3,0L56.6,36.2z M56.9,33.8l-0.2,0l0,0.2l0.1,0.1
			L56.9,33.8z M57.7,37.2l-0.5,0l-0.1,0.6l0.5,0L57.7,37.2z M58.6,38.9l0.2-0.4l-0.4-0.2l-0.2,0.5L58.6,38.9z M59.2,32.8l0.3-1.8
			l0.5-0.9l0.8,0.4L60.8,34l-0.5,1.2l-0.7,0.2l-0.4-0.7L59.2,32.8z M67.8,40.2l-1.8,2l-1.8,1.5l-3.6,0.7l-0.9-0.1l-0.8-0.5l-0.8-0.4
			l-0.1-0.6l0.5,0l0.7,0.3l1.3-0.2l2.2-0.7l0.6-0.6l0.9-0.5l0.5-0.7l0.7-0.6l1.2-1.5l0.4-0.7l0.7-0.9l0.4-0.7l0.5-0.5l0.2,0.6l0,0.8
			l-0.2,1.2l-0.5,1.3L67.8,40.2z M60,39.5l-0.4,0l-0.2,0.5l0.5,0L60,39.5z M62.3,23.9l-0.1,0.6l0.8,0l-0.1-0.6L62.3,23.9z
			 M60.6,38.4l0.1,0.5l0.4-0.1l0-0.4L60.6,38.4z M62.8,26l-0.5,0.1l-0.2,0.2l0.1,0.5l0.5,0l0.1-0.3l0.1-0.5l0.3-0.3l0.4-0.1l0.3-0.3
			l0-0.5l-0.5,0l-0.3,0.3L63,25.6L62.8,26z M62.9,21.8l-0.2,0.1l0,0.2l0.2-0.1L62.9,21.8z M63.5,22.7l-0.1,0.5l0.5,0l0.2-0.5
			L63.5,22.7z M63.7,27.4l-0.6,0l0,0.6l0.6,0L63.7,27.4z M62.9,38.3l-0.3,0.3l-0.3,0.2L62.1,39l-0.3,0.3l-0.2,0.4l0.3,0.2l0.5-0.4
			l0.2-0.2l0.3-0.2l0.3-0.3l0.3-0.4l-0.1-0.1L62.9,38.3z M62.5,37l-0.4,0l0,0.4l0.5,0L62.5,37z M64.2,20.6l-0.1,0.2l0.3,0.1l0.1-0.4
			L64.2,20.6z M64.4,26.2l-0.1,0.6l0.5,0l0.1-0.7L64.4,26.2z M64.6,28.6l-0.4,0.1L64.1,29l0.5,0L64.6,28.6z M65,34.4l-0.2,0.1
			l-0.3,0.2L64,35.1l-0.7,0.7l0.3,0.5l0.5-0.5l0.3-0.3l0.2-0.2l0.3-0.3l0.1-0.2l0.2-0.3l0.5-0.4l0.4-0.1l0.3-0.3l0-0.5l-0.5,0.1
			l-0.3,0.3l-0.2,0.4L65,34.4z M65.8,19.5l-0.4,0l0.1,0.2l0.3,0L65.8,19.5z M65.4,21.7l-0.3,0l0,0.2l0.2,0L65.4,21.7z M70.4,27.3
			l0.9-0.6l0.7-1l0.5-1.9l0.5-0.9l-0.2-1l-0.6-0.9l-0.7-0.3l-0.9-0.1l-0.7-0.2l-1.7,0.3l-0.9,0.5l-0.6,0.5l-0.6,0.7l-0.6,1.2
			l-0.1,1.4l0.2,0.6l0.4,0.7l0.5,0.8l0.7,0.3l2.6,0L70.4,27.3z M64.3,37.2l0.3,0.2l0.2-0.4l-0.4-0.2L64.3,37.2z M66.6,20.7l0.1-0.2
			l-0.2,0l-0.1,0.2L66.6,20.7z M66.8,28.4l-0.5,0.4L66,29.1l-0.3,0.3l-0.2,0.2l-0.4,0.6l0.6-0.1l0.3-0.3l0.3-0.3l0.3-0.3l0.4-0.6
			L66.8,28.4z M66.3,30.8L66,31.1l-0.2,0.2l-0.3,0.3l-0.2,0.3l-0.1,0.2l0,0.4l0.4-0.1l0.3-0.3l0.5-0.6l0.4-0.4l-0.1-0.4L66.3,30.8z
			 M67.1,23.3l0.4-0.5l0.8-0.7l0.7-0.4l0.8-0.1l0.9-0.1l0.8,0.4l-0.2,0.8l-1.8,0.6l-0.8,0.5l-0.4,0.9l-0.3,0.8l-0.1,0.7l-1.1-0.8
			l-0.1-0.9L67.1,23.3z M68.1,19.2l-0.3-0.1l-0.1,0.4l0.3,0L68.1,19.2z M68.1,29.4l-0.5,0L67.5,30l0.1,0.2l0.5-0.1L68.1,29.4z
			 M67.7,31.8l-0.4,0l-0.1,0.5l0.5-0.1L67.7,31.8z M69,30.7l-0.6,0.1l0,0.6l0.5-0.1L69,30.7z M70.2,18.7L69.9,19l0.2,0.3l0.5,0.3
			l0.2,0.2l0.4,0.1l-0.1-0.3L71,19.4l-0.1-0.2L70.6,19L70.2,18.7z M70.2,30.1l0.3-0.3l-0.3-0.5L70,29.1l-0.3-0.5l-0.5-0.2l-0.1,0.5
			l0.1,0.3l0.3,0.2l0.1,0.2l0.2,0.2L70.2,30.1z M72.1,30.1l0.3,0l0.3,0l0.4,0.3l0,0.2l0.4,0.5l0.2,0l0.4-0.5l-0.4-0.5l-0.4-0.1
			l-0.2-0.3l0.3-0.6l0.3-0.3l0.5-0.4l-0.2-0.5l-0.6,0.3l-0.5,0.4l-0.4,0.3l-0.3,0.3L72,29.5l-0.2,0.4l-0.3,0.4l-0.7,0.3l0,0.4
			l0.6,0.1l0.2-0.6L72.1,30.1z M72.9,19.2l0-0.5l-0.5,0l-0.1,0.5L72.9,19.2z M71.8,28.7l0-0.5l-0.5,0l0,0.5L71.8,28.7z M72.4,26.8
			l0,0.6l0.2,0.2l0.7-0.1l0.1-0.5l-0.2-0.2l-0.2,0L72.4,26.8z M74,19.8l-0.6,0l-0.2,0.6l0.6,0L74,19.8z M72,31.6l0,0.4l0.5,0l0-0.4
			L72,31.6z M72.2,34.1l-0.5,0.1l0,0.4l0.4,0L72.2,34.1z M74,24l0.3-0.1l0.4-0.3l-0.1-0.5l-0.5,0l-0.4,0.4L73.7,24l-0.3,0.4L73,24.5
			L72.9,25l0.4-0.1l0.2-0.4L74,24z M73.4,22.3l0,0.3l0.2-0.1l-0.1-0.2L73.4,22.3z M75.2,18.5l-0.5,0.1l-0.1,0.5l0.5-0.1L75.2,18.5z
			 M73.2,35.1l-0.6,0l0,0.6l0.6-0.1L73.2,35.1z M74.3,26.2l0-0.5l-0.5,0l-0.1,0.5L74.3,26.2z M74.5,21.5l0.5,0L75,21l-0.6-0.1
			L74.5,21.5z M73.4,33.4l0-0.4L73,33l0,0.4L73.4,33.4z M72.9,38.1l0.1-0.4l-0.3-0.1L72.6,38L72.9,38.1z M76.1,22l-0.7-0.1l-0.2,0.8
			l0.6,0L76.1,22z M75.4,26.8l-0.3,0l-0.2,0.5l0.4,0L75.4,26.8z M74.2,31.8l0.3,0l0.1-0.3l-0.3,0L74.2,31.8z M74.4,34.1l-0.3,0
			l0,0.4l0.3,0L74.4,34.1z M75.8,19.7l0,0.5l0.5-0.1l0-0.5L75.8,19.7z M75.8,24.3l-0.5,0.1l-0.1,0.5l0.5-0.1L75.8,24.3z M73.9,39.1
			l0.1-0.4l-0.4,0l-0.1,0.4L73.9,39.1z M74.9,37.2l-0.1,0.2l0,0.5l0.6,0l0.1-0.7L74.9,37.2z M77.2,21.2l-0.1-0.4l-0.3,0.1l0,0.4
			L77.2,21.2z M86.5,34.2l-0.1,0.7l-0.6,1.2l-1.5,2.2l-1.1,1.3l-1.3,1.1l-0.7,0.4l-0.6,0.4l-0.7,0.5l-0.8,0.4l-1.2,0.4l-1,0.2L76,43
			l-0.6-0.1l-0.5-0.3l-0.5-0.4l-0.1-0.5l1.1,0l1.3-0.2l1-0.3l1.5-0.8l2-1.5l2.1-2.4l2.5-3.7l0.2,0l0.2,0.8L86.5,34.2z M77.4,18.5
			l-0.2,0l0,0.2l0.2-0.1L77.4,18.5z M80.3,19l0.6,0.2l0.1,1.2l-0.2,1.3l-0.4,0.7L80,24.3l-0.4,0.7l-0.1,1.1l-1.1,3.5l-0.1,0.9
			l-0.5,1.6l-0.1,1.2l-0.4,0.5L76.7,34l-0.4-0.4l-0.2-0.4l0-0.6l0.1-0.5l1.4-5.8l0.4-1l0.7-3.2l0.4-0.9l0.4-1.7l0.3-0.6L80.3,19z
			 M76.5,36.3l-0.3,0L76,36.6l0.4-0.1L76.5,36.3z M76.3,38.6l-0.4-0.1l0,0.5l0.4,0L76.3,38.6z M77.8,37.3l-0.6,0l-0.1,0.5l0.6,0
			L77.8,37.3z M79,36.1l-0.5,0.1l0,0.4l0.5-0.1L79,36.1z M80.3,34.9l-0.3,0l-0.2,0.4l0.4,0L80.3,34.9z M81.6,33.9l0-0.3l-0.3-0.1
			L81.2,34L81.6,33.9z M82.9,32.4l-0.3,0l0,0.4l0.2,0L82.9,32.4z"/>
		<path fill="#26201A" d="M91.9,30.5l0.8-0.6l0.6-0.9l1.3-1.3l1-1.6l1.2-2.5l0.2-0.8l0.1-1.1L97,20.9l-0.3-0.7l-0.6-0.6l-1.2-0.2
			l-1.2,0.4l-0.9,0.5l-0.6,0.4l-0.7,0.6l-0.7,0.8l-2.2,3.2l-0.4,1L87.7,27l-0.4,0.8L86,30l-1,0.8l-0.7-0.1l-0.7-0.4l-0.4-0.7
			l0.2-1.2l0.5-1l0.6-0.9l0.8-1.8l1-1.5l0.4-1.1l0.6-0.8l0.4-0.8l2.6-3l0.7-0.6l0.8-0.5l1.6-0.7l2.2-0.6l1.3,0.1l0.9-0.1l1.6,0.4
			l1.4,1.2l0.4,0.7l0.3,0.6l0.2,1l0.1,1.8l0,0.8l-0.2,1.1l-0.2,0.8l-2.5,5.3L98.2,29l-0.6,0.7l-0.7,0.7L96.5,31l0.4,0.7l0.7,0.3
			l0.7,0.5l0.9,1.1l0.4,0.9l0.2,0.9l0.5,0.4l0.6-0.3l0.7-0.8l1.4-1.3l0.5-0.9l1.3-1.7l1-1.5l0.4-1l0.7-0.9l1.3-1.9l0.9-0.8l0.9,0.1
			l0.7,0.2l0.4,0.7l-0.1,1.1l-0.6,1.3l-0.6,0.8l-0.4,0.8l-1.1,1.8l-0.6,0.6l-0.5,1l-0.7,0.7l-0.6,0.9L104,37l-0.6,0.8l-2.2,2.1
			l-0.8,0.6l-0.8,0.9l-2,5.8l-0.4,0.6L97,48.6l-0.6,1l-0.4,0.8l-1.3,1.4l-0.8,0.6l-0.6,0.6L92,53.7l-1.4,0.3l-0.9,0.4l-1.4,0.1
			l-1.3-0.1l-1.6-0.5L85,53.3l-0.6-0.7l-0.3-0.6L84,51L84,50.1l0.5-1.9l1.3-2.2l0.7-0.9l0.7-0.6l0.6-0.4l0.8-0.7l0.7-0.5l2.5-1.3
			l0.8-0.7l1.5-0.7l1-1.1l0.4-1l-0.2-1l-0.6-1.6l-0.6-0.4l-0.9-0.3l-1.4,0l-0.9,0.1l-1.3-0.2L89,34.4l-0.2-0.9l0-0.8l1-0.9l1.2-0.8
			L91.9,30.5z M86.1,25.6l0-0.2l-0.3,0.1l0,0.2L86.1,25.6z M95.2,22.2l-0.5,0.7l-0.6,0.4L93,24.5l-0.6,0.8l-0.5,1L91.3,27l-0.5,1
			l-0.5,0.6l-1.6,2.8l-1.1,1.6l-0.9,1.7l-0.4,0.6l-0.5-0.6L85.5,34l0.1-0.5l0.3-0.7l1-1.6l0.4-0.6l1.3-2.2l0.1-0.2l2.1-3.2l0.4-0.7
			l1.2-1.6l1.4-1.3l1.2,0.1L95.2,22.2z M85.9,49.8l-0.6,0L85,50.4l0.6,0L85.9,49.8z M89.1,20.6l0-0.2l-0.2,0.1l0,0.2L89.1,20.6z
			 M85.9,47.9l0-0.3l-0.4,0l0,0.4L85.9,47.9z M85.4,52.8l0-0.4l-0.3-0.2l0,0.3L85.4,52.8z M86.7,51.6l0.3-0.3l0.2-0.3l0.3-0.3
			l0.3-0.1l0.3-0.4l-0.2-0.5l-0.6,0.4l-0.7,0.6l-0.4,0.5l0.1,0.4L86.7,51.6z M86.7,48.5L86.6,49l0.5,0.1l0.1-0.5L86.7,48.5z
			 M87.2,46.4l-0.2,0l-0.1,0.2l0.2,0L87.2,46.4z M88.6,45.3l0-0.4l-0.5,0l0,0.4L88.6,45.3z M88.1,47.8l0.1-0.2l-0.3,0l-0.1,0.3
			L88.1,47.8z M87.8,52.2l-0.5,0l0,0.5l0.4,0L87.8,52.2z M91.9,17.7l-0.3,0L91.5,18l0.3,0L91.9,17.7z M110.4,33.7l-0.4,0.9l-0.9,1.5
			l-1.1,1.5l-1.4,1.6l-0.6,0.9l-0.7,0.7l-0.7,0.6l-0.7,0.7l-0.8,0.7l-0.9,1.1l-0.5,1.3l-0.3,1l-1.7,4.3L99.1,52l-0.6,0.9l-1.4,1.5
			l-1.5,1.2l-0.9,0.5l-1,0.4l-0.9,0.2l-2.9,0.3L89,56.9l-0.8-0.4L87.5,56l-0.3-0.3l0.6,0l1.7,0.1l2-0.3l1-0.3l1.7-0.8l0.9-0.6
			l0.8-0.6l1.4-1.6l1.1-1.8l0.9-1.9l1.2-3.9l0.5-1.3l0.9-1.1l1.6-1.4l4.6-5.4l1.7-2.9l0.2-0.2l0.2,0l0.4,1.5L110.4,33.7z M91.7,49.5
			l0.7-0.6L93,48l1.4-2.8l-0.3-0.7l-0.6,0l-1,0.6l-0.8,0.6l-2.2,2.1L89,48.7l-0.1,0.9l0.9,0.5l1.1-0.2L91.7,49.5z M89.5,46l-0.2,0.1
			l0,0.2l0.3,0L89.5,46z M89.1,50.9l-0.4,0l-0.1,0.5l0.4,0L89.1,50.9z M93.2,16.6l-0.2,0l-0.1,0.3l0.2,0L93.2,16.6z M88.6,53.5
			l0,0.4l0.3,0l0-0.2L88.6,53.5z M92.4,32.5l-0.3,0l-0.1,0.2l0.3,0.2L92.4,32.5z M94,17.5L93.9,18l0.4,0.2l0.2-0.5L94,17.5z
			 M91.2,44.7l-0.4,0l0,0.4l0.4-0.1L91.2,44.7z M91.9,46.4l0.7-0.2l0.1,0.3l-0.4,0.8l-0.7,0.9l-0.8,0.5l-0.4,0.1l-0.1-0.3l0.2-0.6
			L91.9,46.4z M90,52.2l-0.1,0.1l0,0.3l0.2-0.2L90,52.2z M95.7,16.4l-0.3,0l-0.1,0.4l0.4,0L95.7,16.4z M94,30.9l-0.5,0.1l0,0.4
			l0.5-0.1L94,30.9z M93.7,33.5l-0.4,0.1l0,0.5l0.4-0.2L93.7,33.5z M92.5,43.4L92,43.5l0,0.4l0.4,0L92.5,43.4z M91.4,51.1l0,0.5
			l0.2,0.2l0.2,0.2l0.2,0.2l0.3,0.3l0.3-0.3l-0.2-0.3l-0.1-0.2l-0.2-0.2L92,51.1L91.4,51.1z M95,32.8l0.1-0.5l-0.6,0l-0.1,0.5
			L95,32.8z M93.8,42.3l-0.5-0.1l0.1,0.5l0.4,0L93.8,42.3z M96.8,18l0-0.4l-0.4-0.2l-0.1,0.5L96.8,18z M95.3,29.7L95,29.9l0,0.4
			l0.4-0.1L95.3,29.7z M95.6,33.6l0,0.3l0.4,0l-0.1-0.3L95.6,33.6z M94.8,40.8l0,0.4l0.4,0l0-0.4L94.8,40.8z M95.1,43.1l-0.6,0
			l-0.1,0.6l0.5,0L95.1,43.1z M97.8,16.3l0,0.4l0.4,0l0-0.4L97.8,16.3z M97.9,18.7l-0.4-0.1l0,0.4l0.4,0L97.9,18.7z M93.9,50.9
			l-0.3,0l0.1,0.3l0.2-0.1L93.9,50.9z M97,26.1l-0.2,0l0,0.3l0.2-0.1L97,26.1z M96.6,28.6l-0.1-0.1l0,0.3l0.2,0L96.6,28.6z M95.8,36
			l-0.2,0l-0.1,0.3l0.2,0L95.8,36z M96.6,34.6L96.6,35l0.5-0.1l0-0.4L96.6,34.6z M96.2,39.5L96,39.9l0.2,0.4l0.3,0.2l0.2,0.2
			l0.1,0.3l0.5,0.3l0.4-0.3l-0.2-0.6l-0.1-0.2L97.1,40l-0.2-0.3l-0.3-0.3L96.2,39.5z M99.3,17.3l-0.5,0l0,0.5l0.4,0L99.3,17.3z
			 M96.3,41.9L95.8,42l-0.1,0.7l0.6-0.2L96.3,41.9z M98.9,19.7l-0.4,0l0,0.4l0.4-0.1L98.9,19.7z M95.3,47l-0.1,0.5l0.5-0.1l0-0.4
			L95.3,47z M96.9,37.1l-0.4,0l0,0.4l0.4,0.1L96.9,37.1z M95.7,44.5l0,0.4l0.4,0l0.1-0.4L95.7,44.5z M97.6,43l-0.7,0l-0.2,0.6
			l0.7,0.1L97.6,43z M97.8,38.3l-0.4,0l0,0.4l0.4,0L97.8,38.3z M99.5,21.2l0.1,0.3l0.4-0.1l0-0.3L99.5,21.2z M98.3,35.8l-0.4,0
			l0,0.5l0.4,0L98.3,35.8z M100.6,28.2l0.4-0.8l0.6-0.7l0.3-1l0.7-1.7l0.1-1.9l0.2-1l0-0.7l-0.2-1.5l0.2,0.2l0.5,0.7l0.7,1.5
			l0.3,1.6l-0.2,0.8l-0.1,1.1l-0.4,1.7l-0.4,0.7l-0.9,1.9l-0.4,0.7l-1.2,1.6l-0.8,0.2l-0.7-0.7l0.3-0.9L100.6,28.2z M99.2,36.8
			l-0.6,0.1l0.2,0.5l0.4,0L99.2,36.8z M99.1,39.9l0-0.7l-0.5,0l0,0.7L99.1,39.9z M98.6,42.3l0-0.3l-0.3-0.1l0,0.4L98.6,42.3z
			 M99.8,40.5l-0.2,0l0,0.2l0.2,0L99.8,40.5z M100.5,38.1l-0.5,0l-0.1,0.7l0.6-0.2L100.5,38.1z M101.3,36.7l-0.1,0.5l0.4,0.2
			l0.2-0.6L101.3,36.7z M104.3,34.3l-0.1,0.1l0,0.1l0.3-0.1L104.3,34.3z"/>
		<path fill="#26201A" d="M113.2,38.2l-0.9,0l-0.8-0.1l-1.5-0.7l-0.9-0.7l-0.5-0.5l-0.5-0.6l-0.2-0.6l-0.3-0.6l-0.4-2.2l0-0.8
			l0.1-3.1l0.2-1.5l0.3-0.8l0.2-0.8l1.2-3l0.4-0.7l1.4-2.1l0.5-0.7l1.1-1.2l1.9-1.6l1.9-0.9l2-0.8l3.1-0.2l0.8,0.1l1.8,0.5l1.2,0.1
			l0.7-0.7l0.8-0.7l1.6,0l0.7,0.1l0.4,0.3l0.3,1l0,1.1l-0.4,1.6l-0.1,0.8l-0.3,0.7l-0.4,1.6l-0.3,2.4l-0.3,0.8l-0.1,1.4l-0.3,0.8
			l-0.2,2.3l-0.3,0.8l0,1.5l-0.1,0.8l0.3,0.8l0.5,0.6l0.9,0.2l1-0.2l0.7-0.3l1.8-1.8l0.4-0.7l0.7-0.7l0.4-0.8l0.7-0.7l0.9-1.5
			l0.3-0.8l0.8-1l1-0.8l0.7,0l0.6,0.2l0.6,0.4l0.2,0.6l-0.3,1.1l-0.7,1.6l-0.6,0.8l-0.3,0.7l-1,1.4l-0.4,0.7l-1,1.3l-0.4,0.7
			l-1.7,1.7l-0.8,0.5l-0.6,0.6l-1,0.7l-0.9,0.5l-1.9,0.6l-1.2,0.1l-0.8-0.1l-0.7-0.3l-0.5-0.4l-0.5-0.6l-0.3-0.7l-0.5-0.6l-0.2-0.6
			l-0.1-0.9l-0.2-0.5l-0.7,0.3l-2.2,2.5l-1.3,1l-0.6,0.3l-2.3,1l-2.2,0.3L113.2,38.2z M108.6,27.8l0.4-0.3l0.5-0.5l-0.4-0.4
			l-0.5,0.4l-0.2,0.3l0,0.2L108,28l-0.1,0.1L108,28L108.6,27.8z M109,24.9l0.3,0l0.1-0.4l-0.4,0.1L109,24.9z M109.1,29.9l0-0.6
			l-0.6,0.1l0,0.6L109.1,29.9z M108.7,31.8l-0.4,0l-0.1,0.4l0.5,0L108.7,31.8z M111,23.1l-0.1-0.2l-0.5,0.1l0,0.6l0.6,0L111,23.1z
			 M110.7,25.5l-0.4-0.2l-0.3,0.3l-0.1,0.6l0.6,0L110.7,25.5z M110.2,28l-0.5,0.1l0.1,0.4l0.4-0.1L110.2,28z M109.4,30.9l0.5,0.1
			l0.1-0.5l-0.5,0L109.4,30.9z M109.3,33l-0.1,0.4l0.4,0l0.1-0.4L109.3,33z M112.1,20.1l0.2-0.1l0.3-0.3l0.2-0.2l0.3-0.3l0.1-0.2
			l0.3-0.3l0.3-0.4l-0.3-0.2l-0.4,0.3l-0.6,0.4l-0.3,0.3l-0.4,0.6l-0.1,0.3l-0.5,0.4l-0.3,0.2l-0.2,0.4l0.4-0.1l0.3-0.3L112.1,20.1z
			 M111.9,24.2l-0.6,0l-0.1,0.6l0.6,0.1L111.9,24.2z M111.2,29.3l-0.3-0.1l-0.1,0.4l0.2,0.1L111.2,29.3z M111.4,26.8l-0.2,0l0.1,0.2
			l0.2,0L111.4,26.8z M110.8,32.1l0.1-0.4l-0.3,0l-0.1,0.4L110.8,32.1z M110.8,34.5l0-0.5l-0.5,0.1l0.1,0.5L110.8,34.5z M112.2,22.2
			l0-0.4l-0.4,0l-0.1,0.5L112.2,22.2z M121,39.1l-2.1,1.2l-0.7,0.2l-1.1,0.2l-3.3,0.1l-0.7-0.2l-1.3-0.6l-1-0.8l-0.2-0.3l0.5,0
			l1.4,0.4l4,0l1.1-0.4l2-0.9l1.3-1l0.6-0.7l0.9-0.3l0.4,0.3l0,0.9l-0.5,0.9L121,39.1z M115.1,19.1l-0.4-0.2l-0.5,0.6l-0.2,0.2
			l-0.3,0.3l-0.6,0.4l-0.1,0.3l0.4,0.4l0.4-0.1l0.3-0.7l0.5-0.4l0.5-0.4L115.1,19.1z M117.7,33l1.3-0.8l0.5-0.6l1.1-1.1l0.6-0.7
			l1.6-3.2l0.6-1.8l0.4-1.6l0.3-0.7l0.1-0.8l0.2-0.7l0.1-0.7l-0.2-0.9l-0.6-0.6l-0.8-0.3l-1.4-0.2l-1.2,0.1l-1.1,0.2l-0.8,0.3
			l-1.5,0.9l-0.6,0.6l-1.1,1.2l-1.9,2.9l-0.6,1.5l-0.2,0.8l-0.3,0.7l-0.2,2.4l0.1,0.7l0,0.8l0.3,0.6l0.9,1.1l0.7,0.4l0.6,0.1
			l2.3-0.5L117.7,33z M111.3,35.3l0.1,0.5l0.5-0.1l0-0.4L111.3,35.3z M112.4,36.4l-0.1,0.5l0.5,0l0.2-0.5L112.4,36.4z M121.4,20.9
			l-0.8,0.1l-0.7,0.2l-0.7,0.4l-1.3,0.9l-0.5,0.6l-0.5,0.7l-0.6,0.7l-1.1,2.1l-0.2,0.8l-0.1,0.7l-0.3,0.8l-0.1,0.7l0.2,1.5l0,1.2
			l-0.5-0.1l-0.7-1.1l-0.1-0.8l-0.1-0.8l0.1-1.5L114,26l0.4-0.8l0.4-0.7l0.3-0.7l0.9-1.3l0.5-0.6l0.7-0.6l0.7-0.5l0.5-0.5l0.7-0.3
			l0.7-0.3l2.2-0.2l0.5,0.3l-0.1,0.8l-0.5,0.4L121.4,20.9z M114.9,16.9l0,0.3l0.4,0l-0.1-0.3L114.9,16.9z M116.4,17.8l-0.6,0
			l-0.1,0.5l0.6,0L116.4,17.8z M114.5,35.1L114,35l-0.2,0.5l0.6,0.1L114.5,35.1z M117.6,16.5l-0.4,0l-0.1,0.4l0.5,0.1L117.6,16.5z
			 M115.5,36.1l-0.5,0.1l0,0.5l0.5,0L115.5,36.1z M119,15.7l0.1-0.3l-0.4,0l-0.1,0.3L119,15.7z M116.3,35.4l0.4-0.1l0-0.4l-0.4,0.1
			L116.3,35.4z M120.1,16.8l0-0.2l-0.2-0.1l-0.2,0.3L120.1,16.8z M121.5,15.2l-0.4,0l0,0.3l0.3,0.1L121.5,15.2z M122.6,16.4l-0.3,0
			l-0.1,0.2l0.3,0.1L122.6,16.4z M123.4,30.9l-0.4-0.3l-0.3-0.1l-0.3-0.6l-0.2-0.2l-0.2,0l-0.3,0.3l-0.4,0.6l-0.3,0.3l-0.2,0.5
			l0.1,0.2l0.4-0.5l0.3-0.1l0.4,0l0.2,0.2l0.6,0.4l0.4-0.1L123.4,30.9z M121.4,32.1l-0.1,0.5l0.5,0.1l0.1-0.6L121.4,32.1z
			 M123.6,17.5l-0.2,0.1l0,0.2l0.2-0.1L123.6,17.5z M123.2,28.4l-0.3,0.2l0.2,0.5l0.2,0.2l0.4,0.5l0.3,0.2l0.4,0.3l0.5-0.4l-0.2-0.6
			l-0.4-0.4l-0.3-0.2l-0.2-0.2L123.2,28.4z M124.6,16.3l-0.1,0.5l0.5-0.1l0.1-0.6L124.6,16.3z M124,26.4l0-0.3l-0.3-0.1l0,0.4
			L124,26.4z M124.8,24.7l-0.2,0.6l0.7-0.2l0-0.7L124.8,24.7z M125,27l-0.6,0l-0.1,0.5l0.6,0.1L125,27z M125.7,19.9l-0.4,0.1l0,0.4
			l0.3-0.1L125.7,19.9z M126.4,15l-0.4,0l-0.1,0.4l0.4-0.1L126.4,15z M126.2,17.2l-0.5,0l-0.1,0.6l0.5-0.1L126.2,17.2z M125.1,22.2
			l-0.1,0.3l0.2,0l0.1-0.2L125.1,22.2z M124.1,32.2l-0.1,0.4l0.3,0l0-0.3L124.1,32.2z M127.4,15.9L127,16l0,0.5l0.4-0.1L127.4,15.9z
			 M126.5,24l0.1-0.5l-0.5,0L126,24L126.5,24z M125.2,30.8l0,0.5l0.6-0.1l-0.1-0.5L125.2,30.8z M125.4,33.1l-0.5,0.2l-0.1,0.5
			l0.5-0.1L125.4,33.1z M126.8,18.5l-0.1,0.4l0.4,0l0-0.4L126.8,18.5z M125.9,26l0,0.4l0.4,0l0-0.4L125.9,26z M127.2,27.2l-0.3,0
			l-0.1,0.3l0.3,0L127.2,27.2z M126.7,32l-0.4,0l-0.1,0.5l0.5,0L126.7,32z M128.4,15l0,0.2l0.3-0.1l0-0.2L128.4,15z M128.4,17.3
			l-0.2-0.1l-0.1,0.2l0.2,0L128.4,17.3z M127.7,22.2l-0.2,0.1l0,0.2l0.3-0.1L127.7,22.2z M126.1,34.3l-0.1,0.6l0.6,0l0.1-0.6
			L126.1,34.3z M127.6,35.4l-0.4,0l-0.2,0.4l0.5,0L127.6,35.4z M127.8,33.3l-0.4,0l0,0.4l0.4,0L127.8,33.3z M139,31.4l-0.1,0.7
			l-0.6,1.2l-1.5,2.2l-1.1,1.3l-1.3,1.1l-0.7,0.4l-0.6,0.4l-0.7,0.5l-0.8,0.4l-2.2,0.3l-0.8,0l-0.6-0.1l-0.5-0.3l-0.5-0.4l-0.1-0.5
			l1.1,0l1.3-0.1l1-0.2l1.5-0.7l2-1.5l2.1-2.4l2.5-3.7l0.2,0l0.2,0.8L139,31.4z M129.1,31l-0.2-0.5l-0.1-0.7l0-0.7l0-0.7l0.1-1.6
			l0.6-2.3l0-1.4l0.3-0.8l0.4-2.2l0.2-0.8l0-0.8l0.3-0.7l0.2-0.9l0.5-0.6l0.6-0.2l0.4,0.8l-0.1,1.1l-0.6,2.4l-0.1,0.7l-0.6,2.3
			l-0.1,1.6l-0.3,0.8l-0.4,2.2l0,2.9l-0.4,0.3L129.1,31z M128.5,34.4l-0.1,0.2l0.3,0.2l0.2-0.3L128.5,34.4z M129.5,35.6l-0.1,0.2
			l0.2,0.1l0.1-0.3L129.5,35.6z M131.2,34.3l-0.1-0.1l-0.1,0.1l0,0.2L131.2,34.3z"/>
		<path fill="#26201A" d="M177.2,21.2l0.6,0.4l0.4,0.6l-0.1,1.2l-1,2.2l-1.2,1.7l-0.3,0.8l-0.7,0.9l-0.6,0.9l-1.3,1.5l-2.2,2.1
			l-0.9,0.5l-1.7,0.9l-1.4,0.4l-1.4,0.1l-0.9-0.1l-0.8-0.3l-0.7-0.4l-1-1.2l-0.3-1.8l-0.2-0.9l0.1-0.9l-0.1-0.9l0.3-2.9l0.5-2
			l0.1-0.9l0.5-2.8l0.4-1.4l0.2-1.4l-0.3-0.7l-0.6-0.5l-0.8-0.1l-1.4,0.5l-1.5,0.7l-2.2,2l-0.7,0.9l-0.6,0.9l-1.6,4.6l-0.8,3.6
			l-0.2,1.8l0.1,0.9l-0.2,2.2l-0.5,1.2l-0.8,0.5l-0.8,0.2l-0.9,0l-0.9-0.2l-0.7-1.1l0-1.2l0-1.8l0.6-3.8l0.5-1.9l0.1-0.9l0.4-1
			l0.2-1.1l0.9-2.3l0.3-1.4l-0.5-0.8l-0.6-0.3l-0.8,0l-2.2,1.1l-1.3,0.8l-1.6,1.5l-1.3,1.7l-0.9,1.8l-0.6,0.9l-0.8,2.5l-0.5,2.4
			l-0.2,3l-0.3,1.4l-0.7,1.2L138,37l-1.8,0.1l-0.9-0.2l-0.4-1.2l-0.1-1.3l0.5-1.9l0.9-6.6l0.3-0.9l1-5.7l0.4-1l0.6-2.7l0.5-1.4
			l1-1.1l1-0.3l1-0.1l1,0.2l0.3,1l0,1.4l-0.8,2.9l0.1,0.6l0.7-0.3l0.5-0.8l1.5-1.5l2.7-1.6l0.9-0.5l2.9-0.5l1,0.1l0.8,0.3l0.8,0.5
			l0.3,0.7l0.7,0.4l0.7-0.2l3.1-2.7L161,12l0.9-0.3l1.4-0.3l1.3,0l0.9,0.1l1.6,0.8l0.5,0.5l0.5,0.7l0.5,1.6l0.1,0.9l-0.3,2.3
			l-1.7,6.1l-0.1,0.9l-0.4,1l-0.2,2.8l0.3,0.7l1,0.4l1.4-0.2l1.2-0.9l1-1.1l3.1-4.2l0.4-1l0.9-1.2l1-0.9L177.2,21.2z M138.4,30.1
			l0.2,0.5l0.5,0l0-0.5l-0.5-0.1l-0.1-0.3l0.2-0.6l0.5-0.4l0.3-0.3l0.1-0.7l-0.5-0.1l-0.2,0.7l0,0.2l-0.4,0.3l-0.6-0.1l-0.3-0.2
			l-0.3-0.1l-0.4-0.5l-0.5,0.4l0.3,0.4l0.2,0.2l0.1,0.3l0.1,0.2l0.2,0.2l0.3,0.2l0.3,0.1L138.4,30.1z M136.8,30.4l-0.4-0.2l-0.1,0.6
			l0.4,0L136.8,30.4z M137.9,20.4l-0.3,0l-0.2,0.4l0.3,0.1L137.9,20.4z M137.4,25.5l-0.4,0l-0.1,0.4l0.4,0L137.4,25.5z M136.4,32.8
			l-0.4,0.1l0,0.4l0.4-0.1L136.4,32.8z M136.1,35.4l-0.2,0l-0.2,0.2l0.2,0L136.1,35.4z M137.4,23l0,0.3l0.3,0.2l0.1-0.4L137.4,23z
			 M138.1,18l-0.1,0.2l0.3,0l0-0.2L138.1,18z M138.4,26.5l-0.5,0l-0.1,0.5l0.5,0L138.4,26.5z M138.7,24l-0.5,0.1l0,0.6l0.6-0.2
			L138.7,24z M137.4,32l0.5-0.1l0-0.4l-0.5,0L137.4,32z M139.8,16.7l-0.6-0.1l-0.2,0.6l0.6,0.1L139.8,16.7z M139.3,19.1l-0.5,0
			l-0.1,0.5l0.5,0L139.3,19.1z M139.1,22.1l0.1-0.7l-0.6,0l-0.1,0.7L139.1,22.1z M137.3,34.2l0.2-0.1l0-0.2l-0.2,0L137.3,34.2z
			 M147.2,22.8l-1.9,2.3l-1.6,2.7l-0.4,1l-0.5,1.4l-0.2,1.3l0,0.9l-0.9,4.9l-0.6,1l-1,0.8l-0.9,0.1l-1,0l-0.8-0.3l0-0.7l0.7-0.4
			l0.8-0.2l0.8-0.4l0.7-1.2l0.3-1.3l0.1-1l0.2-0.9l0-0.8l0.2-1l0.1-1l0.6-2.7l2-3.5l1.3-1.6l0.8-0.7l0.6-0.7l0.7-0.6l0.8-0.5
			l0.9-0.1l0.4,0.7l-0.6,0.8L147.2,22.8z M140.5,20.1l-0.6-0.1l-0.3,0.2l0,0.6l0.5,0.1l0.2-0.1L140.5,20.1z M140.8,17.8l-0.7,0.1
			l-0.1,0.7l0.6,0.1l0.3-0.3L140.8,17.8z M139.5,22.7l-0.1,0.5l0.1,0.2l0.5-0.1l0.2-0.2l-0.2-0.5L139.5,22.7z M139.6,25.2l-0.4,0.1
			l0,0.4l0.5,0L139.6,25.2z M138.7,32.7l-0.4-0.2l-0.1,0.5l0.3,0.1L138.7,32.7z M140.8,15.5l-0.2,0l-0.1,0.2l0.3,0L140.8,15.5z
			 M141.8,16.5l-0.3,0.1l-0.1,0.2l0.4,0L141.8,16.5z M141.8,19l-0.5,0l-0.1,0.7l0.5,0L141.8,19z M140.7,24l0,0.3l0.4,0l0-0.4
			L140.7,24z M141.1,21.3L141,22l0.5,0l0.1-0.7L141.1,21.3z M142.3,22.8l-0.4,0l-0.1,0.4l0.5,0L142.3,22.8z M142.9,20.2l-0.6-0.1
			l-0.1,0.5l0.6,0.1L142.9,20.2z M143.7,19.1l0.3,0.1l0.2-0.4l-0.4,0L143.7,19.1z M145.5,17.7l-0.3,0l-0.3,0.4l0.5,0.1L145.5,17.7z
			 M146.6,16.2l-0.1,0.4l0.3,0.1l0-0.4L146.6,16.2z M147.9,17.8l0-0.4l-0.4,0l-0.1,0.5L147.9,17.8z M149.3,16.2l-0.4-0.1l-0.1,0.5
			l0.5,0L149.3,16.2z M150.6,14.8l-0.3,0l-0.2,0.5l0.5,0L150.6,14.8z M149.9,17.3l0,0.5l0.4-0.1l0-0.4L149.9,17.3z M151.7,15.9
			l-0.4,0.1l0,0.4l0.4-0.1L151.7,15.9z M149.2,33.2l0,0.5l0.5,0l-0.1-0.5L149.2,33.2z M150.4,23.7l0.1,0.3l0.3-0.1l0-0.4L150.4,23.7
			z M150.5,26l-0.4,0.1l0,0.3l0.4,0L150.5,26z M150.3,28.7l0-0.4l-0.4,0l-0.1,0.5L150.3,28.7z M151.3,18.3l-0.2,0.4l0.5,0l0-0.4
			L151.3,18.3z M149.7,31.3l0.2-0.2l-0.3,0l0,0.2L149.7,31.3z M151.7,27.7l0-0.6l-0.1-0.2l-0.5,0.1l0,0.6l0.1,0.2L151.7,27.7z
			 M150.6,32l-0.1,0.5l0.5,0.1l0.2-0.7L150.6,32z M151.9,24.5l-0.4,0l0,0.5l0.4,0L151.9,24.5z M153,17.3l-0.5-0.1l-0.1,0.5l0.5,0
			L153,17.3z M151,29.6l0,0.5l0.5,0l0.1-0.5L151,29.6z M150.9,34.6l-0.3,0l-0.2,0.2l0.3,0.1L150.9,34.6z M152.7,19.7l-0.5,0l0,0.4
			l0.4,0L152.7,19.7z M152.3,22.2l-0.4,0l0,0.3l0.3,0L152.3,22.2z M160.1,20.4l-1.5,1.4l-1,1.8l-0.5,1.4l-0.3,1.4l-0.3,0.8l-0.1,1
			l-0.3,0.8l-0.7,6.4l-0.4,1.4l-0.5,1l-0.8,0.6l-0.9,0.2l-0.9,0l-0.9-0.2l-0.6-0.6l0.4-0.5l1.8-0.3l0.8-0.5l0.4-1.1l0.3-2.1
			l-0.1-0.9l0.3-1l0.3-2.7l0.3-1l0.2-0.8l0.1-0.9l1.3-3.7l0.5-0.9l1.4-1.6l1.5-1.3l1.2-0.7l1,0l-0.2,1.1l-0.9,0.9L160.1,20.4z
			 M152.5,28.3l-0.3,0l-0.1,0.4l0.4-0.1L152.5,28.3z M154,18.3l-0.6,0l0.1,0.6l0.5,0L154,18.3z M153.8,20.7l-0.5-0.1l-0.3,0.7
			l0.6,0.1L153.8,20.7z M153.1,23.7l0-0.3l-0.2,0l-0.2,0.2L153.1,23.7z M151.7,33.3l-0.2,0.4l0.3,0l0.2-0.3L151.7,33.3z M154.2,15.9
			l-0.3,0l0,0.4l0.3,0L154.2,15.9z M154.9,19.5l-0.4,0.1l-0.1,0.4l0.4,0L154.9,19.5z M154.9,17.1l0,0.4l0.4-0.1l0-0.4L154.9,17.1z
			 M156.6,16.1l0.1-0.4l-0.4,0l0,0.3L156.6,16.1z M157.7,17.1l0-0.2l-0.2,0l-0.2,0.3L157.7,17.1z M159.1,15.6l-0.4-0.1l0,0.4l0.3,0
			L159.1,15.6z M160.5,14.3l-0.5,0l-0.1,0.5l0.5,0L160.5,14.3z M161.6,13.1l-0.2,0.1l0,0.3l0.2,0L161.6,13.1z M163,13.9l-0.7,0.1
			l0.1,0.6l0.5-0.1L163,13.9z M163.9,15.6l0-0.3l-0.3,0l0,0.3L163.9,15.6z M164.3,12.9l-0.4,0l0,0.4l0.4-0.1L164.3,12.9z
			 M164.4,21.4l-0.4-0.1l-0.2,0.5l0.5,0L164.4,21.4z M164.2,23.9l-0.5,0.1l0,0.4l0.4-0.1L164.2,23.9z M165.3,14l-0.4,0l0,0.2l0.4,0
			L165.3,14z M165,16.4l-0.4,0l0,0.4l0.3-0.1L165,16.4z M163.5,28.7l-0.4,0.1l0,0.4l0.4,0L163.5,28.7z M163.8,26.5l0-0.2l-0.2,0.1
			l0,0.2L163.8,26.5z M165.3,23.1l0.2-0.5l-0.5-0.1l-0.1,0.5L165.3,23.1z M165,25l-0.4,0.1l0.1,0.3l0.3,0L165,25z M166.4,15.2
			l-0.5,0.1l0,0.4l0.4-0.1L166.4,15.2z M165.9,17.6l-0.3,0.1l0.1,0.2l0.2,0L165.9,17.6z M164.8,27.4l-0.4,0.1l0,0.3l0.4,0
			L164.8,27.4z M167.4,16.4l-0.3-0.1l-0.3,0.3l0.4,0.2L167.4,16.4z M167.1,18.8l-0.3,0l0,0.4l0.4,0L167.1,18.8z M165.7,31.1l-0.4,0
			l0,0.4l0.3,0L165.7,31.1z M177.6,29.2l-0.1,0.7l-0.6,1.2l-1.5,2.2l-1.1,1.3l-1.3,1.1l-0.7,0.4l-0.6,0.4l-0.7,0.5l-0.8,0.3
			l-2.2,0.5l-1.1,0l-0.6-0.1l-0.5-0.3l-0.5-0.4l-0.1-0.5l1.1,0l1.5-0.1l2.5-1l2-1.5l2.1-2.4l2.5-3.7l0.2,0l0.2,0.8L177.6,29.2z
			 M166.6,32.2l-0.2,0.1l0,0.2l0.2-0.1L166.6,32.2z M167.7,26l0.1-1l0.5-2l0.4-1l0.9-3.8l0.2-1.8l0-1.3l0.7,0.6l0.4,2.9l-0.1,1
			l-0.2,1.4l-1.6,6.4l-0.8,1.1l-0.8,0.4l-0.2-0.9L167.7,26z M167.8,33.5l-0.4,0l0.1,0.4l0.3,0L167.8,33.5z M169.2,32.3l0-0.3
			l-0.3,0.1l0,0.3L169.2,32.3z M170.2,31.1l-0.1-0.2L170,31l0,0.2L170.2,31.1z M174.4,27l-0.1,0l0,0.2l0.2-0.1L174.4,27z"/>
		<path fill="#26201A" d="M200.9,19.9l0.8-0.1l0.7,0.3l0.5,0.5l-0.1,1.3l-0.6,1.5l-2,3.4l-0.7,0.6L199,28l-3,2.8l-1.7,0.9l-2.2,0.4
			L191,32l-1,0.1l-1-0.1l-2.8,1.7l-0.9,0.4l-1.3,0.2l-4,0.4l-2.7-0.6l-0.6-0.7l-0.8-0.3l-0.9-1.4l-0.4-1.6l-0.2-1.9l0.1-1.5l0.4-2.2
			l0-0.8l0.2-0.9l1.2-3.8l0.2-1l1.7-4.3l0.2-0.8l0.8-1.4l0.9-0.9l0.9-0.4l0.9,0l0.7,0.2l0.6,0.6l-0.1,1.2l-0.4,1.4l-0.4,0.8L181,18
			l-0.4,0.8l-0.4,1l0.2,0.6l0.7-0.2l0.8-0.8l1-0.4l1-0.5l0.8-0.2l3.7-0.1l2.9,1.4l0.6,0.6l0.3,0.7l0.7,2.2l-0.2,1.9l-0.2,1l-0.3,0.8
			l0,0.9l0.9,0.4l1.2-0.4l1.5-1.1l0.6-0.6l0.6-1l0.6-0.7l2.1-3.5l0.7-0.8L200.9,19.9z M175.7,25.3l0-0.2l-0.3,0l0.1,0.2L175.7,25.3z
			 M175.4,27.4l-0.2,0l-0.1,0.2l0.3,0.1L175.4,27.4z M177.4,21.3l-0.4,0l0,0.4l0.2,0.1L177.4,21.3z M176.7,23.5l-0.1,0.8l0.6,0
			l0.1-0.8L176.7,23.5z M177.6,19l-0.2-0.1l-0.1,0.2l0.2,0L177.6,19z M176.9,26l-0.4,0l-0.1,0.5l0.5,0L176.9,26z M176.6,28.8
			l0.1-0.5l-0.5,0l-0.1,0.5L176.6,28.8z M177.8,27.2l-0.4,0l-0.2,0.5l0.5,0L177.8,27.2z M178.4,22.4l-0.5,0.1l-0.1,0.5l0.5-0.1
			L178.4,22.4z M177.5,30l0-0.4l-0.5,0l-0.1,0.5L177.5,30z M178.1,25.2l0.2-0.5l-0.5,0.1l-0.1,0.5L178.1,25.2z M178.9,15.4l0,0.2
			l0.2,0.1l0.1-0.3L178.9,15.4z M178.8,20l-0.4,0l-0.1,0.4l0.5,0L178.8,20z M176.9,32.1l0,0.4l0.3-0.1l0-0.4L176.9,32.1z M178.9,18
			l0.1-0.2l-0.3-0.1l0,0.3L178.9,18z M179.9,18.8l-0.3,0l0,0.3l0.2,0L179.9,18.8z M180.2,16.4l-0.4,0l0,0.4l0.3-0.1L180.2,16.4z
			 M179.4,23.9l0.2-0.6l-0.5,0l-0.1,0.6L179.4,23.9z M178.6,31.2l0.1-0.5l-0.5,0.1l-0.1,0.5L178.6,31.2z M180.5,13.9l-0.3,0l0,0.2
			l0.2,0L180.5,13.9z M179.4,21.2l0.1,0.3l0.3,0l0-0.4L179.4,21.2z M184,30.2l1.6-0.7l0.6-1.2l0.5-1.3l1.2-2.1l0.4-1l-0.2-0.7
			l-0.4-0.7l-0.6-0.6l-0.7-0.2l-2.5,0.1l-0.9,0.3l-1,0.6l-0.8,0.3l-0.7,0.6l-1.2,1.9L179,27l-0.1,0.9l0.2,0.6l0.5,0.8l1.1,1l0.8,0.3
			l0.8,0l1-0.2L184,30.2z M202.3,27.9l-0.1,0.7l-0.6,1.3l-0.8,1.3l-1.1,1.2l-2.1,1.5l-0.8,0.2l-0.7,0.3l-2.4,0.5l-3.9,0.2l-0.7,0.2
			l-2.6,1.3l-1.6,0.5l-1.1,0.2l-1.1,0l-0.8-0.1l-2.1-0.7l-1.3-0.8l-0.1-0.3l0.4,0l0.7,0.2l0.7,0.1l1.3,0l0.8,0.1l1.1-0.1l0.7-0.2
			l0.8-0.2l3.3-1.7l0.7-0.2l0.9-0.1l1.5,0.1l0.8,0l2.4-0.4l0.8-0.3l2.3-1.3l1.8-1.8l2.1-3.3l0.2,0l0.2,0.8L202.3,27.9z M180.7,22.6
			l0.2-0.4l-0.4-0.1l-0.2,0.4L180.7,22.6z M179.2,32.1l0,0.4l0.3,0l0.1-0.4L179.2,32.1z M180.9,25.8l0.4-0.7l1.1-1.1l1.2-0.6
			l0.8-0.2l1.1,0.3l0.5,0.7l-0.6,0.4l-0.9,0.4l-1.7,1l-1.5,2l-0.4,0.1l-0.6-0.6l-0.2-0.9L180.9,25.8z M180.3,33.2l0,0.2l0.2-0.1
			l0-0.2L180.3,33.2z M183.3,15.4l0.7-2l0.5-0.9l0.7-0.6l0.8,0.4l-0.2,1.5l-1.2,2.8l-1,0.6l-0.6,0l0-0.7L183.3,15.4z M182,32
			l-0.2-0.2l-0.1,0.2l0.2,0.2L182,32z M182.8,33l0,0.4l0.4-0.1l0-0.4L182.8,33z M183.9,31.8l0,0.2l0.2,0.1l0.1-0.3L183.9,31.8z
			 M185.6,30.5l-0.2,0l0,0.2l0.2,0L185.6,30.5z M185.4,33.1l0.1-0.3l-0.3,0l0,0.2L185.4,33.1z M186.9,31.5l-0.5,0l-0.1,0.5l0.5-0.1
			L186.9,31.5z M186.8,29.1l0,0.4l0.4,0l0.1-0.4L186.8,29.1z M189.1,20.5l-0.5,0l-0.1,0.5l0.5,0L189.1,20.5z M188.1,30.1l-0.6,0
			l0,0.6l0.6,0L188.1,30.1z M188.3,28.2l0.1-0.5l-0.5,0l0,0.4L188.3,28.2z M188.8,25.8l0.1-0.5l-0.4,0l-0.2,0.5L188.8,25.8z
			 M189.2,23.1l-0.4-0.1l-0.1,0.5l0.4,0.2l0.1,0.3l0.1,0.3l0.1,0.2l0.5-0.1l-0.1-0.6l-0.7-0.2L189.2,23.1z M189,28.9l-0.1,0.5l0.5,0
			l0-0.4L189,28.9z M190.3,21.8l-0.2,0l-0.2,0.4l0.4,0L190.3,21.8z M189.8,26.6l-0.4,0l0,0.5l0.5,0L189.8,26.6z M189,31.4l-0.2,0
			l0,0.3l0.2,0L189,31.4z M191.3,22.9l-0.4,0l-0.2,0.5l0.5,0.1L191.3,22.9z M190.9,27.6l-0.5,0l-0.1,0.6l0.6,0L190.9,27.6z
			 M190.6,25.7l0.4,0.2l0.1-0.6l-0.5,0L190.6,25.7z M190.4,30.1l-0.4,0.2l0,0.3l0.4-0.1L190.4,30.1z M192,28.7l-0.4,0l-0.2,0.4
			l0.4,0.1L192,28.7z M191.4,31.2l-0.2,0l-0.1,0.2l0.2,0L191.4,31.2z M192.9,29.8l-0.4,0.1l0,0.4l0.4-0.1L192.9,29.8z M194,24.2
			l0-0.8l-0.1-1.1l0-1.5l0.4,0l0.8,0.7l0.4,0.6l0.3,1.3l-0.1,0.8l-0.6,1.2l-1.1,0.6l-0.3-0.7L194,24.2z M194.4,28.8l-0.5,0l0,0.4
			l0.5-0.1L194.4,28.8z"/>
		<path fill="#26201A" d="M224.6,18.6l0.6,0.3l0.5,0.6l-0.1,1.1l-0.9,1.9l-0.4,0.6l-0.3,0.7l-1.5,2.1l-0.6,0.7l-0.4,0.6l-1.1,1.2
			l-0.7,0.6l-0.9,0.8l-1,0.8L217,31l-1.4,0.9l-2.3,0.8l-1.6,0.3l-0.7,0.2l-1.9,0.3l-4.1-0.4l-0.7-0.2l-0.7-0.3l-0.5-0.4l-0.8-0.4
			l-1.5-1.5l-0.3-0.6l-0.4-0.6l-0.3-0.7l-0.1-0.7l-0.2-0.8l-0.2-0.6l0.1-3.5l0.4-1.9l0.1-0.8l0.6-2.2l1.7-3l0.4-0.6l0.5-0.6l0.4-0.7
			l0.5-0.6l1.8-1.6l2.9-1.5l1.4-0.5l0.9-0.2l3,0l0.7,0.1l0.7,0.2l1.7,1l0.4,0.6l0.5,0.4l0.2,0.6l0.1,0.8l0.2,0.7l0,0.8l-0.7,2.6
			l-0.7,0.9l-1.5,0.6l-0.7,0l-0.6-0.1l-0.6-0.4l-0.1-1l0.1-1.1l-0.1-0.8l-0.3-0.6l-0.6-0.4l-1.1-0.2l-1.1,0.1l-0.6,0.1l-0.8,0.3
			l-0.6,0.5l-0.8,0.5l-0.5,0.6l-0.5,0.6l-1,1.4l-0.3,0.8l-0.2,0.6l-0.3,0.8l-0.5,1.6l-0.3,3.1l0.2,1.5l0.2,0.7l0.7,1.2l0.6,0.6
			l1.1,0.7l0.6,0.3l0.7,0.1l1.1,0l2-0.2l0.6-0.2l0.9-0.2l1.5-0.7l2-1.2l3.1-2.7l0.4-0.7l0.6-0.7l0.6-1l0.8-1l0.7-1.1l1-0.7
			L224.6,18.6z M201.2,19.4l-0.2,0.4l0.5,0l0.1-0.5L201.2,19.4z M201,24.1l-0.5,0.1l0,0.5l0.5,0L201,24.1z M201.4,21.6l-0.5,0.1
			l0,0.5l0.4-0.1L201.4,21.6z M200.9,26.3l-0.5,0l-0.1,0.6l0.5,0L200.9,26.3z M201.8,22.8l-0.2,0.4l0.4,0.5l0.2,0.1l0.3,0.2l0.1,0.2
			l0.3,0.5l0.2,0l0.5-0.5l-0.4-0.5l-0.3-0.2l-0.2-0.3l-0.4-0.4L201.8,22.8z M202.7,20.5l-0.5,0l-0.1,0.6l0.5,0L202.7,20.5z
			 M202.9,18.2l-0.4,0l-0.1,0.5l0.4-0.1L202.9,18.2z M202.1,25.2l-0.5,0l-0.1,0.5l0.5,0L202.1,25.2z M203.2,15.7l-0.2,0l0,0.2l0.2,0
			L203.2,15.7z M201.8,28.2l0-0.3l-0.3,0l0,0.4L201.8,28.2z M203.1,26.5l-0.5,0l-0.1,0.5l0.5,0L203.1,26.5z M203.8,17.3l0.4-0.1
			l0.1-0.5l-0.5,0.1L203.8,17.3z M203.6,21.7l-0.2,0l-0.1,0.3l0.2,0L203.6,21.7z M204.7,14.3l-0.4-0.1l-0.1,0.4l0.3,0L204.7,14.3z
			 M203.9,19.5l0-0.4l-0.4,0l0,0.4L203.9,19.5z M202.5,28.9l0,0.4l0.4-0.1l0-0.4L202.5,28.9z M225.1,27.4l-1.3,2.3l-1.9,2.2l-1,0.8
			l-0.8,0.5l-1.3,1l-2.2,0.9l-3.2,0.7l-3,0.3l-0.9,0l-0.7-0.1l-0.8,0l-2.3-0.4l-2-0.7l-0.8-0.5l-0.2-0.6l0.6,0.1l0.6,0.3l1.4,0.4
			l1.4,0.2l3.6,0l1.8-0.3l0.8-0.3l0.7-0.1l2.3-0.7l1.4-0.6l0.8-0.5l1-0.7l1.1-0.6l1.1-1.1l0.7-0.6l1.8-2.5l0.6-1.1l0.2-0.2l0.2,0
			l0.4,1.5L225.1,27.4z M204.1,28.2l0.1-0.5l-0.5,0l-0.2,0.5L204.1,28.2z M205.8,13.3l0.2-0.4l-0.4,0l-0.1,0.4L205.8,13.3z
			 M205.5,15.4l-0.3,0l0,0.4l0.3-0.1L205.5,15.4z M203.6,30l-0.1,0.5l0.5,0L204,30L203.6,30z M206.8,14.4l0.1-0.2l-0.3,0l-0.1,0.2
			L206.8,14.4z M205.3,28.7l-0.5,0.1l0,0.4l0.5,0L205.3,28.7z M207.4,11.7l-0.4,0l0,0.4l0.4,0L207.4,11.7z M205,31.2l-0.3,0l0,0.3
			l0.3,0L205,31.2z M210.5,17l-0.5,0.6l-1.4,2l-1.4,3.9l-0.2,1.3l-0.3,0.8l-0.3-0.2l-0.3-0.9l-0.2-1.3l0.2-1.1l0.1-0.8l0.5-1.4
			l0.4-0.8l0.3-0.7l0.4-0.7l0.5-0.7l0.6-0.6l0.5-0.7l0.7-0.5l0.7-0.4l0.7-0.3l0.9,0.2l0,0.8l-0.5,0.7L210.5,17z M207.8,13.2l0.4,0
			l0.1-0.4l-0.3,0L207.8,13.2z M206.2,30.1l-0.3,0l0,0.3l0.4-0.1L206.2,30.1z M208.5,10.8l0.2-0.4l-0.4,0l0,0.3L208.5,10.8z
			 M207.3,31.2l-0.4,0.1l0,0.3l0.3-0.1L207.3,31.2z M209.5,11.8l0,0.2l0.2-0.1l0-0.2L209.5,11.8z M210.8,10.3l0,0.4l0.4,0l0-0.3
			L210.8,10.3z M208.5,29.9l-0.1,0.3l0.3,0.1l0.1-0.3L208.5,29.9z M208.4,32.3l-0.3,0l0,0.2l0.2,0L208.4,32.3z M209.9,31.1l-0.3-0.2
			l-0.3,0.3l0.3,0.2L209.9,31.1z M213.6,9.9l-0.5,0l-0.1,0.4l0.4,0.2L213.6,9.9z M213.9,12.2l0.3-0.2l0.5-0.5l0-0.6l-0.6,0.4
			l-0.4,0.6l-0.2,0.4L213.9,12.2z M212.3,31l-0.5,0l-0.1,0.5l0.5,0L212.3,31z M215.2,12.5l0,0.4l0.4-0.1l0-0.4L215.2,12.5z
			 M213.6,29.6l-0.2,0l-0.1,0.2l0.2,0L213.6,29.6z M216.9,11.3l-0.4,0l-0.1,0.4l0.4,0L216.9,11.3z M216.7,13.6l-0.4,0l0,0.4l0.3,0
			L216.7,13.6z M214.5,30.9l-0.2,0.1l0,0.2l0.2-0.1L214.5,30.9z M219.9,14.8l-0.1-0.8l0.1-0.7l-0.2-0.7l0.1-0.5l0.3,0.2l0.7,1.2
			l0.3,0.8l0.1,2.2l-0.2,0.8l-0.5,1.2l-0.8,1l-0.8,0.4l-0.7,0.2l-0.9,0.1l-0.6-0.2l0-0.7l0.6-0.4l0.9-0.4l0.7-0.6l0.4-0.7
			L219.9,14.8z M217.9,12.4l-0.1-0.1l-0.1,0.2l0.1,0.1L217.9,12.4z M215.7,29.4l0,0.4l0.4-0.1l0-0.4L215.7,29.4z M217.3,28.6
			l0.1-0.3l-0.3-0.1l-0.1,0.3L217.3,28.6z M220,25.7l-0.3,0l0,0.4l0.3,0L220,25.7z"/>
		<path fill="#26201A" d="M224.8,32.2l-0.7-0.3l-0.8-0.5l-1-1.1l-0.7-1.7l0-0.8l0-0.9l-0.1-0.9l0.2-2.9l0.9-3.2l0.8-1.3l0.8-0.1
			l1,0.2l0.5,0.6l-0.1,2.5l-0.3,1l-0.2,1.6l0.1,0.8l0,1.1l0.3,0.6l0.3,0.9l1,0.1l1.1-0.2l0.9-0.6l0.7-0.7l0.6-0.7L231,24l0.6-0.7
			l0.2-1l-0.6-0.7l-1.8-1.3l-0.9-1.4l-0.3-0.6l-0.3-2.7l0.2-1.1l0.3-1.4l0.3-0.8l0.4-0.8l0.7-0.7l0.5-0.7l0.7-0.7l1.5-1l0.9-0.3
			l1-0.5l2.6-0.2l1.5,0.3l1,0.1l0.7,0.3l0.9,0l2.2-1.2l1.5,0.3l0.7,0.3l0.2,1.2l-0.2,1.3l-0.2,1.1l-0.5,1.6l-0.2,1l-0.3,0.8
			l-1.3,5.4l-0.3,0.7l-0.4,2.9l-0.2,0.8l0.3,1.8l0.8,0.4l1.3,0l0.8-0.5l0.7-0.5l1.2-1.4l0.6-0.9l0.7-0.7l3-4.8l1-0.8l0.8,0.1
			l0.7,0.5l0.4,0.4l0,1.2l-1.5,2.9l-0.5,0.8l-0.7,0.8l-0.5,0.9l-0.6,0.7l-0.4,0.7l-2.7,3l-1.6,0.9l-0.8,0.6l-0.8,0.5l-1.1,0.3
			L242,31l-1.2,0.1l-1.6-0.5l-0.6-0.6l-0.4-0.6l-0.7-3.4l0.2-0.8l0.1-1.7l0.1-0.8l-0.2-0.8l-0.9,0.1l-0.8,1l-0.4,0.8l-0.4,1
			l-1.6,2.4l-2.7,3.2l-0.8,0.7l-0.7,0.3l-2.1,0.8l-1.4,0.1L224.8,32.2z M223.8,26.9l-0.4,0l0,0.4l0.3,0L223.8,26.9z M224.1,24.5
			l-0.2,0l0,0.2l0.1,0.1L224.1,24.5z M224.9,27.9l-0.5,0l-0.1,0.6l0.5,0L224.9,27.9z M225.7,29.6l0.2-0.4l-0.4-0.2l-0.2,0.5
			L225.7,29.6z M226.4,23.5l0.3-1.8l0.5-0.9l0.8,0.4l-0.1,3.5l-0.5,1.2l-0.7,0.2l-0.4-0.7L226.4,23.5z M235,30.9l-1.8,2l-1.8,1.5
			l-3.6,0.7l-0.9-0.1l-0.8-0.5l-0.8-0.4l-0.1-0.6l0.5,0l0.7,0.3l1.3-0.2l2.2-0.7l0.6-0.6l0.9-0.5l0.5-0.7l0.7-0.6L234,29l0.4-0.7
			l0.7-0.9l0.4-0.7l0.5-0.5l0.2,0.6l0,0.8l-0.2,1.2l-0.5,1.3L235,30.9z M227.1,30.2l-0.4,0l-0.2,0.5l0.5,0L227.1,30.2z M229.4,14.6
			l-0.1,0.6l0.8,0l-0.1-0.6L229.4,14.6z M227.7,29.2l0.1,0.5l0.4-0.1l0-0.4L227.7,29.2z M230,16.8l-0.5,0.1l-0.2,0.2l0.1,0.5l0.5,0
			l0.1-0.3l0.1-0.5l0.3-0.3l0.4-0.1l0.3-0.3l0-0.5l-0.5,0l-0.3,0.3l-0.1,0.4L230,16.8z M230.1,12.5l-0.2,0.1l0,0.2l0.2-0.1
			L230.1,12.5z M230.7,13.4l-0.1,0.5l0.5,0l0.2-0.5L230.7,13.4z M230.9,18.1l-0.6,0l0,0.6l0.6,0L230.9,18.1z M230.1,29l-0.3,0.3
			l-0.3,0.2l-0.3,0.3l-0.3,0.3l-0.2,0.4l0.3,0.2l0.5-0.4l0.2-0.2l0.3-0.2l0.3-0.3l0.3-0.4l-0.1-0.1L230.1,29z M229.6,27.8l-0.4,0
			l0,0.4l0.5,0L229.6,27.8z M231.3,11.3l-0.1,0.2l0.3,0.1l0.1-0.4L231.3,11.3z M231.6,16.9l-0.1,0.6l0.5,0l0.1-0.7L231.6,16.9z
			 M231.7,19.3l-0.4,0.1l-0.1,0.4l0.5,0L231.7,19.3z M232.2,25.1l-0.2,0.1l-0.3,0.2l-0.5,0.4l-0.7,0.7l0.3,0.5l0.5-0.5l0.3-0.3
			l0.2-0.2l0.3-0.3l0.1-0.2l0.2-0.3l0.5-0.4l0.4-0.1l0.3-0.3l0-0.5L233,24l-0.3,0.3l-0.2,0.4L232.2,25.1z M232.9,10.2l-0.4,0
			l0.1,0.2l0.3,0L232.9,10.2z M232.6,12.4l-0.3,0l0,0.2l0.2,0L232.6,12.4z M237.6,18l0.9-0.6l0.7-1l0.5-1.9l0.5-0.9l-0.2-1l-0.6-0.9
			l-0.7-0.3l-0.9-0.1l-0.7-0.2l-1.7,0.3l-0.9,0.5l-0.6,0.5l-0.6,0.7l-0.6,1.2l-0.1,1.4l0.2,0.6l0.4,0.7l0.5,0.8l0.7,0.3l2.6,0
			L237.6,18z M231.4,28l0.3,0.2l0.2-0.4l-0.4-0.2L231.4,28z M233.7,11.4l0.1-0.2l-0.2,0l-0.1,0.2L233.7,11.4z M233.9,19.2l-0.5,0.4
			l-0.3,0.3l-0.3,0.3l-0.2,0.2l-0.4,0.6l0.6-0.1l0.3-0.3l0.3-0.3l0.3-0.3l0.4-0.6L233.9,19.2z M233.5,21.5l-0.3,0.3l-0.2,0.2
			l-0.3,0.3l-0.2,0.3l-0.1,0.2l0,0.4l0.4-0.1l0.3-0.3l0.5-0.6l0.4-0.4l-0.1-0.4L233.5,21.5z M234.3,14.1l0.4-0.5l0.8-0.7l0.7-0.4
			l0.8-0.1l0.9-0.1l0.8,0.4l-0.2,0.8l-1.8,0.6l-0.8,0.5l-0.4,0.9l-0.3,0.8l-0.1,0.7l-1.1-0.8l-0.1-0.9L234.3,14.1z M235.3,9.9
			l-0.3-0.1l-0.1,0.4l0.3,0L235.3,9.9z M235.3,20.1l-0.5,0l-0.1,0.5l0.1,0.2l0.5-0.1L235.3,20.1z M234.9,22.5l-0.4,0l-0.1,0.5
			l0.5-0.1L234.9,22.5z M236.1,21.4l-0.6,0.1l0,0.6l0.5-0.1L236.1,21.4z M237.3,9.5l-0.3,0.3l0.2,0.3l0.5,0.3l0.2,0.2l0.4,0.1
			l-0.1-0.3l-0.2-0.2L238,10l-0.3-0.3L237.3,9.5z M237.4,20.8l0.3-0.3l-0.3-0.5l-0.2-0.2l-0.3-0.5l-0.5-0.2l-0.1,0.5l0.1,0.3
			l0.3,0.2l0.1,0.2l0.2,0.2L237.4,20.8z M239.2,20.9l0.3,0l0.3,0l0.4,0.3l0,0.2l0.4,0.5l0.2,0l0.4-0.5l-0.4-0.5l-0.4-0.1l-0.2-0.3
			l0.3-0.6l0.3-0.3l0.5-0.4l-0.2-0.5l-0.6,0.3l-0.5,0.4l-0.4,0.3l-0.3,0.3l-0.2,0.3l-0.2,0.4l-0.3,0.4l-0.7,0.3l0,0.4l0.6,0.1
			l0.2-0.6L239.2,20.9z M240.1,9.9l0-0.5l-0.5,0l-0.1,0.5L240.1,9.9z M238.9,19.4l0-0.5l-0.5,0l0,0.5L238.9,19.4z M239.5,17.5l0,0.6
			l0.2,0.2l0.7-0.1l0.1-0.5l-0.2-0.2l-0.2,0L239.5,17.5z M241.2,10.6l-0.6,0l-0.2,0.6l0.6,0L241.2,10.6z M239.2,22.3l0,0.4l0.5,0
			l0-0.4L239.2,22.3z M239.3,24.8l-0.5,0.1l0,0.4l0.4,0L239.3,24.8z M241.1,14.7l0.3-0.1l0.4-0.3l-0.1-0.5l-0.5,0l-0.4,0.4l-0.1,0.4
			l-0.3,0.4l-0.3,0.2l-0.1,0.5l0.4-0.1l0.2-0.4L241.1,14.7z M240.6,13.1l0,0.3l0.2-0.1l-0.1-0.2L240.6,13.1z M242.3,9.2l-0.5,0.1
			l-0.1,0.5l0.5-0.1L242.3,9.2z M240.4,25.9l-0.6,0l0,0.6l0.6-0.1L240.4,25.9z M241.5,17l0-0.5l-0.5,0l-0.1,0.5L241.5,17z
			 M241.7,12.2l0.5,0l0.1-0.5l-0.6-0.1L241.7,12.2z M240.5,24.1l0-0.4l-0.4,0l0,0.4L240.5,24.1z M240,28.8l0.1-0.4l-0.3-0.1
			l-0.2,0.4L240,28.8z M243.2,12.7l-0.7-0.1l-0.2,0.8l0.6,0L243.2,12.7z M242.5,17.5l-0.3,0l-0.2,0.5l0.4,0L242.5,17.5z M241.4,22.6
			l0.3,0l0.1-0.3l-0.3,0L241.4,22.6z M241.6,24.9l-0.3,0l0,0.4l0.3,0L241.6,24.9z M243,10.5l0,0.5l0.5-0.1l0-0.5L243,10.5z
			 M242.9,15.1l-0.5,0.1l-0.1,0.5l0.5-0.1L242.9,15.1z M241.1,29.9l0.1-0.4l-0.4,0l-0.1,0.4L241.1,29.9z M242,28l-0.1,0.2l0,0.5
			l0.6,0l0.1-0.7L242,28z M244.3,11.9l-0.1-0.4l-0.3,0.1l0,0.4L244.3,11.9z M253.6,25l-0.1,0.7l-0.6,1.2l-1.5,2.2l-1.1,1.3l-1.3,1.1
			l-0.7,0.4l-0.6,0.4l-0.7,0.5l-0.8,0.4l-1.2,0.4l-1,0.2l-0.8,0l-0.6-0.1l-0.5-0.3l-0.5-0.4l-0.1-0.5l1.1,0l1.3-0.2l1-0.3l1.5-0.8
			l2-1.5l2.1-2.4l2.5-3.7l0.2,0l0.2,0.8L253.6,25z M244.6,9.2l-0.2,0l0,0.2l0.2-0.1L244.6,9.2z M247.5,9.7l0.6,0.2l0.1,1.2l-0.2,1.3
			l-0.4,0.7l-0.4,1.9l-0.4,0.7l-0.1,1.1l-1.1,3.5l-0.1,0.9l-0.5,1.6l-0.1,1.2l-0.4,0.5l-0.6,0.2l-0.4-0.4l-0.2-0.4l0-0.6l0.1-0.5
			l1.4-5.8l0.4-1l0.7-3.2l0.4-0.9l0.4-1.7l0.3-0.6L247.5,9.7z M243.6,27.1l-0.3,0l-0.1,0.4l0.4-0.1L243.6,27.1z M243.4,29.4
			l-0.4-0.1l0,0.5l0.4,0L243.4,29.4z M244.9,28l-0.6,0l-0.1,0.5l0.6,0L244.9,28z M246.2,26.8l-0.5,0.1l0,0.4l0.5-0.1L246.2,26.8z
			 M247.5,25.6l-0.3,0L247,26l0.4,0L247.5,25.6z M248.7,24.6l0-0.3l-0.3-0.1l-0.1,0.5L248.7,24.6z M250.1,23.2l-0.3,0l0,0.4l0.2,0
			L250.1,23.2z"/>
	</g>
	<g>
		<path fill="#26201A" d="M74.5,75l0.6,0.3l0.5,0.6L75.5,77l-0.9,1.9l-0.4,0.6l-0.3,0.7l-1.5,2.1L71.8,83l-0.4,0.6l-1.1,1.2
			l-0.7,0.6l-0.9,0.8l-1,0.8l-0.7,0.4l-1.4,0.9l-2.3,0.8l-1.6,0.3l-0.7,0.2L59,90l-4.1-0.4l-0.7-0.2l-0.7-0.3L53,88.6l-0.8-0.4
			l-1.5-1.5l-0.3-0.6l-0.4-0.6l-0.3-0.7l-0.1-0.7l-0.2-0.8l-0.2-0.6l0.1-3.5l0.4-1.9l0.1-0.8l0.6-2.2l1.7-3l0.4-0.6l0.5-0.6l0.4-0.7
			l0.5-0.6l1.8-1.6l2.9-1.5l1.4-0.5l0.9-0.2l3,0l0.7,0.1l0.7,0.2l1.7,1l0.4,0.6l0.5,0.4l0.2,0.6l0.1,0.8l0.2,0.7l0,0.8L68,72.7
			l-0.7,0.9l-1.5,0.6l-0.7,0l-0.6-0.1l-0.6-0.4l-0.1-1l0.1-1.1l-0.1-0.8l-0.3-0.6l-0.6-0.4l-1.1-0.2l-1.1,0.1l-0.6,0.1L59.4,70
			l-0.6,0.5L58,71l-0.5,0.6L57,72.2l-1,1.4l-0.3,0.8l-0.2,0.6l-0.3,0.8l-0.5,1.6l-0.3,3.1l0.2,1.5l0.2,0.7l0.7,1.2l0.6,0.6l1.1,0.7
			l0.6,0.3l0.7,0.1l1.1,0l2-0.2l0.6-0.2l0.9-0.2l1.5-0.7l2-1.2l3.1-2.7l0.4-0.7l0.6-0.7l0.6-1l0.8-1l0.7-1.1l1-0.7L74.5,75z
			 M51.1,75.9l-0.2,0.4l0.5,0l0.1-0.5L51.1,75.9z M50.8,80.5l-0.5,0.1l0,0.5l0.5,0L50.8,80.5z M51.2,78l-0.5,0.1l0,0.5l0.4-0.1
			L51.2,78z M50.8,82.7l-0.5,0l-0.1,0.6l0.5,0L50.8,82.7z M51.7,79.2l-0.2,0.4l0.4,0.5l0.2,0.1l0.3,0.2l0.1,0.2l0.3,0.5l0.2,0
			l0.5-0.5L53,80.2L52.7,80l-0.2-0.3l-0.4-0.4L51.7,79.2z M52.6,77L52,77l-0.1,0.6l0.5,0L52.6,77z M52.7,74.6l-0.4,0l-0.1,0.5
			l0.4-0.1L52.7,74.6z M52,81.6l-0.5,0l-0.1,0.5l0.5,0L52,81.6z M53,72.1l-0.2,0l0,0.2l0.2,0L53,72.1z M51.6,84.6l0-0.3l-0.3,0
			l0,0.4L51.6,84.6z M52.9,82.9l-0.5,0l-0.1,0.5l0.5,0L52.9,82.9z M53.7,73.7l0.4-0.1l0.1-0.5l-0.5,0.1L53.7,73.7z M53.4,78.1
			l-0.2,0l-0.1,0.3l0.2,0L53.4,78.1z M54.5,70.8l-0.4-0.1L54,71.1l0.3,0L54.5,70.8z M53.8,75.9l0-0.4l-0.4,0l0,0.4L53.8,75.9z
			 M52.4,85.3l0,0.4l0.4-0.1l0-0.4L52.4,85.3z M75,83.8l-1.3,2.3l-1.9,2.2l-1,0.8L70,89.6l-1.3,1l-2.2,0.9l-3.2,0.7l-3,0.3l-0.9,0
			l-0.7-0.1l-0.8,0L55.7,92l-2-0.7l-0.8-0.5l-0.2-0.6l0.6,0.1l0.6,0.3l1.4,0.4l1.4,0.2l3.6,0l1.8-0.3l0.8-0.3l0.7-0.1l2.3-0.7
			l1.4-0.6l0.8-0.5l1-0.7l1.1-0.6l1.1-1.1l0.7-0.6l1.8-2.5l0.6-1.1l0.2-0.2l0.2,0l0.4,1.5L75,83.8z M54,84.6l0.1-0.5l-0.5,0
			l-0.2,0.5L54,84.6z M55.7,69.8l0.2-0.4l-0.4,0l-0.1,0.4L55.7,69.8z M55.4,71.8l-0.3,0l0,0.4l0.3-0.1L55.4,71.8z M53.4,86.4
			l-0.1,0.5l0.5,0l0.1-0.5L53.4,86.4z M56.7,70.8l0.1-0.2l-0.3,0l-0.1,0.2L56.7,70.8z M55.1,85.1l-0.5,0.1l0,0.4l0.5,0L55.1,85.1z
			 M57.2,68.1l-0.4,0l0,0.4l0.4,0L57.2,68.1z M54.8,87.6l-0.3,0l0,0.3l0.3,0L54.8,87.6z M60.3,73.5l-0.5,0.6l-1.4,2L57,79.9
			l-0.2,1.3L56.4,82l-0.3-0.2L55.8,81l-0.2-1.3l0.2-1.1l0.1-0.8l0.5-1.4l0.4-0.8l0.3-0.7l0.4-0.7l0.5-0.7l0.6-0.6l0.5-0.7l0.7-0.5
			l0.7-0.4l0.7-0.3l0.9,0.2l0,0.8l-0.5,0.7L60.3,73.5z M57.7,69.6l0.4,0l0.1-0.4l-0.3,0L57.7,69.6z M56,86.5l-0.3,0l0,0.3l0.4-0.1
			L56,86.5z M58.4,67.2l0.2-0.4l-0.4,0l0,0.3L58.4,67.2z M57.1,87.6l-0.4,0.1l0,0.3l0.3-0.1L57.1,87.6z M59.3,68.3l0,0.2l0.2-0.1
			l0-0.2L59.3,68.3z M60.6,66.7l0,0.4l0.4,0l0-0.3L60.6,66.7z M58.3,86.4l-0.1,0.3l0.3,0.1l0.1-0.3L58.3,86.4z M58.3,88.7l-0.3,0
			l0,0.2l0.2,0L58.3,88.7z M59.8,87.5l-0.3-0.2l-0.3,0.3l0.3,0.2L59.8,87.5z M63.4,66.3l-0.5,0l-0.1,0.4l0.4,0.2L63.4,66.3z
			 M63.7,68.7l0.3-0.2l0.5-0.5l0-0.6l-0.6,0.4l-0.4,0.6l-0.2,0.4L63.7,68.7z M62.1,87.4l-0.5,0l-0.1,0.5l0.5,0L62.1,87.4z
			 M65.1,68.9l0,0.4l0.4-0.1l0-0.4L65.1,68.9z M63.4,86l-0.2,0l-0.1,0.2l0.2,0L63.4,86z M66.7,67.7l-0.4,0l-0.1,0.4l0.4,0L66.7,67.7
			z M66.6,70l-0.4,0l0,0.4l0.3,0L66.6,70z M64.4,87.3l-0.2,0.1l0,0.2l0.2-0.1L64.4,87.3z M69.8,71.2l-0.1-0.8l0.1-0.7L69.6,69
			l0.1-0.5l0.3,0.2l0.7,1.2l0.3,0.8l0.1,2.2l-0.2,0.8L70.3,75l-0.8,1l-0.8,0.4L68,76.6l-0.9,0.1l-0.6-0.2l0-0.7l0.6-0.4l0.9-0.4
			l0.7-0.6l0.4-0.7L69.8,71.2z M67.8,68.8l-0.1-0.1l-0.1,0.2l0.1,0.1L67.8,68.8z M65.6,85.8l0,0.4l0.4-0.1l0-0.4L65.6,85.8z
			 M67.2,85l0.1-0.3l-0.3-0.1l-0.1,0.3L67.2,85z M69.8,82.1l-0.3,0l0,0.4l0.3,0L69.8,82.1z"/>
		<path fill="#26201A" d="M101.2,86.9L98.9,87l-0.7-0.1l-0.8-0.4L96.8,86l-1.1-3.1l0.2-4.4l-0.3-0.9l-0.6-0.4l-1,0.2l-0.9-0.1
			l-2.6,0.3l-1.9,0l-0.9,0.5l-0.5,1l-0.4,1.8l0,0.9l-0.6,2.7l0,0.7l-0.4,1.3l-0.6,1.2L84.5,88l-0.9,0.2l-0.9,0L81.9,88l-0.4-1l0-2.1
			l0.2-0.9l0.4-3l0.2-0.9l0-0.8l1.3-6.4l0-0.9l0.2-0.8l0-0.9l0.3-1l0.3-1.8l0.6-2.2l0.8-1l0.9-0.3l0.9-0.1l0.9,0l0.8,0.3l0.3,0.9
			l-0.5,3L89,68.9l-0.2,1l-0.2,1.4l-0.3,1.1l0.4,0.9l0.8,0.2l0.9,0l1-0.2l1.7,0.1l0.9-0.2l1.8,0l1-0.5l0.7-0.9l0.1-0.9l0.3-0.9
			l0.5-2.6l0.9-2.2l0.8-1.3l0.9-0.4l1-0.2l0.9,0.2l0.6,0.4l0.2,1.5l-1.7,7.6l-0.6,1.8l-0.1,1l-0.2,1l-0.2,1.8l-0.2,0.7l-0.2,1.8
			l0.2,1.1l1.1,0.2l1.2,0l0.7-0.6l0.7-0.4l2.5-3l0.4-0.8l1.1-1.8l0.4-0.9l1.9-1.9l0.8,0.2l0.8,0.4l0.4,0.6l-0.2,1.3l-0.9,2.1
			l-0.6,0.8l-0.6,0.9l-0.4,0.8l-1.1,1.5l-0.6,0.6l-0.6,0.9l-0.5,0.7l-2.1,2l-2.4,1.3L101.2,86.9z M84.1,79.7l-0.7,0l-0.1,0.6l0.7,0
			L84.1,79.7z M83.6,82.1l-0.5,0L83,82.6l0.5,0L83.6,82.1z M83.2,84.7l-0.3,0l-0.1,0.4l0.4-0.1L83.2,84.7z M84.1,75l0,0.4l0.3-0.1
			l0-0.2L84.1,75z M84.4,77.8l0-0.6l-0.6,0l0,0.6L84.4,77.8z M84.6,73.1l0.3-0.1l0-0.4l-0.3,0L84.6,73.1z M84.9,74.3l0.6,0l0.2-0.2
			l0-0.5l-0.5,0l-0.3,0.3L84.9,74.3z M88.2,73.6l-0.6-0.1l-0.4,0.7l-0.3,0.4l-0.2,0.1l-0.3,0.2L86,75.4l-0.2,0.2l-0.3,0.2l-0.7,0.4
			l0.1,0.5l0.3,0l0.5-0.4l0.3-0.2l0.3-0.2l0.4-0.2L87,76l-0.2,0.6l-0.2,0.2l-0.4,0.3l-0.2,0.5l0,0.2l0.5,0.2l0.4-0.6l0.3-0.3
			l0.6-0.4l0.2-0.2l-0.1-0.7l-0.3-0.1l-0.4-0.3l0.1-0.8l0.4-0.4l0.6-0.2L88.2,73.6z M86.3,79.6L86,79.2l-0.2-0.3l-0.2-0.2l-0.4-0.5
			l-0.2,0l-0.5,0.5l0.1,0.3l0.5,0.3l0.2,0.2l0.3,0.5l0.4-0.1L86.3,79.6z M84.3,81.6l0.7-0.1l0-0.6l-0.7,0l-0.1,0.6L84.3,81.6z
			 M85.5,71.2l0,0.5l0.6,0L86,71.2L85.5,71.2z M84.5,83.6l0.1-0.5L84.3,83L84,83.6L84.5,83.6z M85.8,69.4l0.6,0.1l0.1-0.5l-0.5-0.1
			L85.8,69.4z M85.5,84.4L85,84.6L84.8,85l-0.4,0.4l-0.3,0.1l-0.2,0.4l0.5,0l0.3-0.3l0.3-0.5l0.5-0.2L85.5,84.4z M86.4,66.9l0.2,0
			l0-0.1l-0.1,0L86.4,66.9z M93.3,78.3l0.9,0.5L94,79.5l-0.9,0.3L91,80.1l-0.9,0.5l-0.4,1.1l-0.1,1l-0.2,0.9l-0.1,1.7L89,86.1
			l-0.4,2.4l-0.7,1.2l-1,0.6L86,90.5l-1.7-0.1l-0.1-0.8l0.7-0.3l0.7-0.2l0.8-0.6l0.5-1.1l0.4-1.1l0.1-0.8l0.2-1.1l0.1-0.7l0-1.2
			l0.3-1.8l0.3-1.1l1-0.6L93.3,78.3z M86.7,70.5l0.5,0l0.1-0.4l-0.5,0L86.7,70.5z M87.1,68.3l0.5,0l0-0.5l-0.4-0.1L87.1,68.3z
			 M85.8,82.1l-0.4,0l0,0.4l0.4,0L85.8,82.1z M86.6,72.4L86.6,73l0.5,0.1l0.1-0.7L86.6,72.4z M87.5,65.9l0.4,0l0-0.3l-0.3,0
			L87.5,65.9z M88.2,69.1l0,0.2l0.1-0.2l0-0.1L88.2,69.1z M89.2,74.9l-0.1-0.3l-0.5,0.1l-0.1,0.7l0.7,0L89.2,74.9z M89.9,71.7
			l-0.3-1l0.2-0.8l0.4-0.8l0.5-1.9l0.1-0.9l0.5-0.9l0.8,0l0.3,1l-0.1,1.2l-1,3.9l-0.5,0.6L89.9,71.7z M90.3,75.9l-0.5-0.1l-0.2,0.5
			l0.4,0.1L90.3,75.9z M91.6,75.1l-0.1-0.5l-0.5,0l0,0.5L91.6,75.1z M92.4,75.7l-0.2,0l0,0.2l0.2,0L92.4,75.7z M92.7,73.9l-0.1-0.1
			l-0.1,0.2l0.2,0L92.7,73.9z M93.8,75l0-0.4l-0.5-0.1l0.1,0.5L93.8,75z M94.4,74.1l0.6,0l0.1-0.5l-0.6,0L94.4,74.1z M95,75.6
			l-0.5-0.1L94.4,76l0.4,0.1L95,75.6z M96.2,75.1l0-0.5l-0.5,0l0,0.5L96.2,75.1z M96.6,76l1.1,1.2l0.3,0l0.4-0.5l-0.4-0.4L97.7,76
			l0-0.2l-0.1-0.2l0-0.4l0-0.2l0.4,0.2l0.4,0l0.4-0.6l-0.1-0.2L98,74l-0.2-0.2l-0.3-0.6l-0.3,0l-0.5,0.4l0,0.2l0.4,0.5l0.1,0.3
			l0.1,0.2l-0.2,0.4l-0.2,0.1l-0.3,0.3l-0.1,0.2L96.6,76z M96.4,78.3l0.4,0.2l0.1-0.7l-0.5-0.1L96.4,78.3z M97.1,80.6l0.2-0.4
			l0.3-0.2l0.2-0.3l0.3-0.5l-0.4-0.2l-0.3,0.4l-0.2,0.3l-0.3,0.3l-0.3,0.5l0.1,0.3L97.1,80.6z M97.6,82.1l0.1-0.2l0-0.4l-0.4,0
			L97,81.7l0.1,0.5L97.6,82.1z M98.2,72.5l0.6,0l0.1-0.7l-0.6,0L98.2,72.5z M98.8,69.8l0.2,0.5l0.2,0.3l0.1,0.2l0.2,0.3l0.5,0.3
			l0.1-0.7l-0.2-0.2l-0.4-0.6l-0.3-0.2L98.8,69.8z M98.9,82.6l-0.5-0.1l-0.5,0.4l-0.2,0.3l-0.2,0.3l-0.4,0.2l0,0.4l0.4-0.1l0.1-0.4
			l0.3-0.2l0.3,0l0.6-0.3L98.9,82.6z M100.1,73l-0.2-0.2l-0.6,0.1l-0.2,0.6l0.7,0.1L100.1,73z M99.5,77.8l-0.6,0l-0.2,0.2l-0.1,0.6
			l0.5,0l0.3-0.2L99.5,77.8z M99.8,68.9l0.6,0l0-0.6l-0.6,0.1L99.8,68.9z M99.5,76l0.2-0.5l-0.5,0L98.9,76L99.5,76z M98.4,80.7
			l0.6,0l0-0.6l-0.6,0L98.4,80.7z M100.2,66.3l0.5,0l0-0.4l-0.4-0.1L100.2,66.3z M98.4,85.1L98.2,85l-0.1,0.2l0.1,0.1L98.4,85.1z
			 M100.9,69.5l0,0.5l0.4-0.2l0-0.4L100.9,69.5z M100.6,72l0.2,0l0.1-0.2l-0.2,0L100.6,72z M99.6,81.8l0.1-0.2l-0.2,0l0,0.1
			L99.6,81.8z M100.5,74.3l-0.1,0.2l0.2,0l0-0.2L100.5,74.3z M99.8,84.1l0-0.5l-0.5,0.1l0,0.4L99.8,84.1z M101.4,67.5l0.2,0.1l0-0.4
			l-0.1,0L101.4,67.5z M112,81l-0.1,0.7l-0.6,1.2l-1.6,2.2l-1.1,1.3l-1.3,1.1l-0.7,0.4l-0.6,0.4l-0.7,0.5l-0.8,0.4l-2.2,0.3l-0.8,0
			l-0.6-0.1l-0.5-0.3l-0.5-0.4l-0.1-0.5l1.1,0l1.3-0.1l1-0.2l1.5-0.7l2-1.5l2.1-2.4l2.5-3.7l0.2,0l0.2,0.8L112,81z M100.9,85.4
			l-0.1-0.5l-0.6,0l0.1,0.5L100.9,85.4z M101.5,83.7l0.4,0.2l0.2-0.3l-0.3-0.3l-0.2-0.1l-0.2-0.2l-0.3-0.1l-0.3,0l0.1,0.3l0.4,0.4
			L101.5,83.7z M101.4,79l1.9-8.8l0.3-0.8l0.1-1.1l0.5-1.7l0.3-0.8l0.4,0l0.7,0.3l0,1.2l-0.2,1.4l-2.1,8.3l0,0.8l-0.2,1l-0.3,0.8
			l-0.1,1l-0.3,0.3l-0.5-0.1l-0.4-0.5l-0.2-0.6L101.4,79z M105.4,82.7l0.3-0.1l0.1-0.4l-0.3,0L105.4,82.7z M108.3,77.5l0,0.3
			l0.3-0.2l0-0.2L108.3,77.5z"/>
		<path fill="#26201A" d="M114.6,86.3l-0.9,0l-0.8-0.1l-1.5-0.7l-0.9-0.7l-0.5-0.5l-0.5-0.6l-0.2-0.6l-0.3-0.6l-0.4-2.2l0-0.8
			l0.1-3.1l0.2-1.5l0.3-0.8l0.2-0.8l1.2-3l0.4-0.7l1.4-2.1l0.5-0.7l1.1-1.2l1.9-1.6l1.9-0.9l2-0.8l3.1-0.2l0.8,0.1l1.8,0.5l1.2,0.1
			l0.7-0.7l0.8-0.7l1.6,0l0.7,0.1l0.4,0.3l0.3,1l0,1.1l-0.4,1.6l-0.1,0.8l-0.3,0.7l-0.4,1.6l-0.3,2.4l-0.3,0.8l-0.1,1.4l-0.3,0.8
			l-0.2,2.3l-0.3,0.8l0,1.5l-0.1,0.8l0.3,0.8l0.5,0.6l0.9,0.2l1-0.2l0.7-0.3l1.8-1.8l0.4-0.7l0.7-0.7l0.4-0.8l0.7-0.7l0.9-1.5
			l0.3-0.8l0.8-1l1-0.8l0.7,0l0.6,0.2l0.6,0.4l0.2,0.6l-0.3,1.1l-0.7,1.6l-0.6,0.8l-0.3,0.7l-1,1.4l-0.4,0.7l-1,1.3l-0.4,0.7
			l-1.7,1.7l-0.8,0.5l-0.6,0.6l-1,0.7l-0.9,0.5l-1.9,0.6l-1.2,0.1l-0.8-0.1l-0.7-0.3l-0.5-0.4l-0.5-0.6l-0.3-0.7l-0.5-0.6l-0.2-0.6
			l-0.1-0.9l-0.2-0.5l-0.7,0.3l-2.2,2.5l-1.3,1l-0.6,0.3l-2.3,1l-2.2,0.3L114.6,86.3z M110,75.8l0.4-0.3l0.5-0.5l-0.4-0.4L110,75
			l-0.2,0.3l0,0.2l-0.3,0.4l-0.1,0.1l0.1-0.1L110,75.8z M110.4,72.9l0.3,0l0.1-0.4l-0.4,0.1L110.4,72.9z M110.5,77.9l0-0.6l-0.6,0.1
			l0,0.6L110.5,77.9z M110.1,79.8l-0.4,0l-0.1,0.4l0.5,0L110.1,79.8z M112.4,71.1l-0.1-0.2l-0.5,0.1l0,0.6l0.6,0L112.4,71.1z
			 M112.1,73.5l-0.4-0.2l-0.3,0.3l-0.1,0.6l0.6,0L112.1,73.5z M111.6,76l-0.5,0.1l0.1,0.4l0.4-0.1L111.6,76z M110.9,78.9l0.5,0.1
			l0.1-0.5l-0.5,0L110.9,78.9z M110.7,81l-0.1,0.4l0.4,0l0.1-0.4L110.7,81z M113.6,68.1l0.2-0.1l0.3-0.3l0.2-0.2l0.3-0.3l0.1-0.2
			l0.3-0.3l0.3-0.4l-0.3-0.2l-0.4,0.3l-0.6,0.4l-0.3,0.3l-0.4,0.6l-0.1,0.3l-0.5,0.4l-0.3,0.2l-0.2,0.4l0.4-0.1l0.3-0.3L113.6,68.1z
			 M113.4,72.2l-0.6,0l-0.1,0.6l0.6,0.1L113.4,72.2z M112.6,77.3l-0.3-0.1l-0.1,0.4l0.2,0.1L112.6,77.3z M112.8,74.8l-0.2,0l0.1,0.2
			l0.2,0L112.8,74.8z M112.2,80.1l0.1-0.4l-0.3,0L112,80L112.2,80.1z M112.2,82.5l0-0.5l-0.5,0.1l0.1,0.5L112.2,82.5z M113.7,70.3
			l0-0.4l-0.4,0l-0.1,0.5L113.7,70.3z M122.4,87.1l-2.1,1.2l-0.7,0.2l-1.1,0.2l-3.3,0.1l-0.7-0.2l-1.3-0.6l-1-0.8l-0.2-0.3l0.5,0
			l1.4,0.4l4,0l1.1-0.4l2-0.9l1.3-1l0.6-0.7l0.9-0.3l0.4,0.3l0,0.9l-0.5,0.9L122.4,87.1z M116.5,67.2L116,67l-0.5,0.6l-0.2,0.2
			l-0.3,0.3l-0.6,0.4l-0.1,0.3l0.4,0.4l0.4-0.1l0.3-0.7L116,68l0.5-0.4L116.5,67.2z M119.1,81l1.3-0.8l0.5-0.6l1.1-1.1l0.6-0.7
			l1.6-3.2l0.6-1.8l0.4-1.6l0.3-0.7l0.1-0.8l0.2-0.7l0.1-0.7l-0.2-0.9l-0.6-0.6l-0.8-0.3l-1.4-0.2l-1.2,0.1l-1.1,0.2l-0.8,0.3
			l-1.5,0.9l-0.6,0.6l-1.1,1.2l-1.9,2.9l-0.6,1.5l-0.2,0.8l-0.3,0.7l-0.2,2.4l0.1,0.7l0,0.8l0.3,0.6l0.9,1.1l0.7,0.4l0.6,0.1
			l2.3-0.5L119.1,81z M112.7,83.3l0.1,0.5l0.5-0.1l0-0.4L112.7,83.3z M113.8,84.4l-0.1,0.5l0.5,0l0.2-0.5L113.8,84.4z M122.9,68.9
			l-0.8,0.1l-0.7,0.2l-0.7,0.4l-1.3,0.9l-0.5,0.6l-0.5,0.7l-0.6,0.7l-1.1,2.1l-0.2,0.8l-0.1,0.7l-0.3,0.8l-0.1,0.7l0.2,1.5l0,1.2
			l-0.5-0.1l-0.7-1.1l-0.1-0.8l-0.1-0.8l0.1-1.5l0.6-2.2l0.4-0.8l0.4-0.7l0.3-0.7l0.9-1.3l0.5-0.6l0.7-0.6l0.7-0.5l0.5-0.5l0.7-0.3
			l0.7-0.3l2.2-0.2l0.5,0.3l-0.1,0.8l-0.5,0.4L122.9,68.9z M116.3,64.9l0,0.3l0.4,0l-0.1-0.3L116.3,64.9z M117.8,65.8l-0.6,0
			l-0.1,0.5l0.6,0L117.8,65.8z M115.9,83.1l-0.5-0.1l-0.2,0.5l0.6,0.1L115.9,83.1z M119.1,64.5l-0.4,0l-0.1,0.4l0.5,0.1L119.1,64.5z
			 M116.9,84.1l-0.5,0.1l0,0.5l0.5,0L116.9,84.1z M120.4,63.7l0.1-0.3l-0.4,0l-0.1,0.3L120.4,63.7z M117.7,83.4l0.4-0.1l0-0.4
			l-0.4,0.1L117.7,83.4z M121.5,64.8l0-0.2l-0.2-0.1l-0.2,0.3L121.5,64.8z M122.9,63.2l-0.4,0l0,0.3l0.3,0.1L122.9,63.2z M124,64.4
			l-0.3,0l-0.1,0.2l0.3,0.1L124,64.4z M124.8,78.9l-0.4-0.3l-0.3-0.1l-0.3-0.6l-0.2-0.2l-0.2,0l-0.3,0.3l-0.4,0.6l-0.3,0.3l-0.2,0.5
			l0.1,0.2l0.4-0.5l0.3-0.1l0.4,0l0.2,0.2l0.6,0.4l0.4-0.1L124.8,78.9z M122.8,80.1l-0.1,0.5l0.5,0.1l0.1-0.6L122.8,80.1z M125,65.5
			l-0.2,0.1l0,0.2l0.2-0.1L125,65.5z M124.6,76.4l-0.3,0.2l0.2,0.5l0.2,0.2l0.4,0.5l0.3,0.2l0.4,0.3l0.5-0.4l-0.2-0.6l-0.4-0.4
			l-0.3-0.2l-0.2-0.2L124.6,76.4z M126,64.3l-0.1,0.5l0.5-0.1l0.1-0.6L126,64.3z M125.4,74.4l0-0.3l-0.3-0.1l0,0.4L125.4,74.4z
			 M126.2,72.7l-0.2,0.6l0.7-0.2l0-0.7L126.2,72.7z M126.4,75l-0.6,0l-0.1,0.5l0.6,0.1L126.4,75z M127.1,67.9l-0.4,0.1l0,0.4
			l0.3-0.1L127.1,67.9z M127.8,63l-0.4,0l-0.1,0.4l0.4-0.1L127.8,63z M127.6,65.2l-0.5,0l-0.1,0.6l0.5-0.1L127.6,65.2z M126.6,70.3
			l-0.1,0.3l0.2,0l0.1-0.2L126.6,70.3z M125.5,80.2l-0.1,0.4l0.3,0l0-0.3L125.5,80.2z M128.8,63.9l-0.4,0.1l0,0.5l0.4-0.1
			L128.8,63.9z M127.9,72l0.1-0.5l-0.5,0l-0.1,0.5L127.9,72z M126.6,78.9l0,0.5l0.6-0.1l-0.1-0.5L126.6,78.9z M126.8,81.1l-0.5,0.2
			l-0.1,0.5l0.5-0.1L126.8,81.1z M128.2,66.5l-0.1,0.4l0.4,0l0-0.4L128.2,66.5z M127.3,74l0,0.4l0.4,0l0-0.4L127.3,74z M128.6,75.2
			l-0.3,0l-0.1,0.3l0.3,0L128.6,75.2z M128.1,80l-0.4,0l-0.1,0.5l0.5,0L128.1,80z M129.8,63l0,0.2l0.3-0.1l0-0.2L129.8,63z
			 M129.8,65.4l-0.2-0.1l-0.1,0.2l0.2,0L129.8,65.4z M129.1,70.2l-0.2,0.1l0,0.2l0.3-0.1L129.1,70.2z M127.5,82.4l-0.1,0.6l0.6,0
			l0.1-0.6L127.5,82.4z M129,83.4l-0.4,0l-0.2,0.4l0.5,0L129,83.4z M129.2,81.3l-0.4,0l0,0.4l0.4,0L129.2,81.3z M140.4,79.4
			l-0.1,0.7l-0.6,1.2l-1.5,2.2l-1.1,1.3l-1.3,1.1l-0.7,0.4l-0.6,0.4l-0.7,0.5l-0.8,0.4l-2.2,0.3l-0.8,0l-0.6-0.1l-0.5-0.3l-0.5-0.4
			l-0.1-0.5l1.1,0l1.3-0.1l1-0.2l1.5-0.7l2-1.5l2.1-2.4l2.5-3.7l0.2,0l0.2,0.8L140.4,79.4z M130.5,79.1l-0.2-0.5l-0.1-0.7l0-0.7
			l0-0.7l0.1-1.6l0.6-2.3l0-1.4l0.3-0.8l0.4-2.2l0.2-0.8l0-0.8l0.3-0.7l0.2-0.9l0.5-0.6l0.6-0.2l0.4,0.8l-0.1,1.1l-0.6,2.4l-0.1,0.7
			l-0.6,2.3l-0.1,1.6l-0.3,0.8l-0.4,2.2l0,2.9l-0.4,0.3L130.5,79.1z M130,82.4l-0.1,0.2l0.3,0.2l0.2-0.3L130,82.4z M130.9,83.6
			l-0.1,0.2l0.2,0.1l0.1-0.3L130.9,83.6z M132.7,82.4l-0.1-0.1l-0.1,0.1l0,0.2L132.7,82.4z"/>
		<path fill="#26201A" d="M177.3,69.1l0.7,0.3l0.4,0.7l-0.1,1.2l-0.4,1.3l-0.5,0.9l-0.5,0.7l-1,1.8l-0.6,0.7l-1,1.5l-0.7,0.9
			l-0.7,0.6l-0.6,0.8l-2.2,1.8l-0.9,0.3l-0.8,0.5l-2.2,0.5l-1.2-0.2l-0.6-0.3l-0.7-0.5l-0.6-0.6l-0.4-0.6l-0.7-2.1l-0.1-1.1l0-0.7
			l-0.1-0.9l0.1-1.8l-0.2-0.3l-0.3,0.3l-1,1.7l-0.6,0.9l-0.5,0.9l-0.8,0.6l-0.6,0.7l-1.6,1.1l-1.4,0.1l-1.3-0.2l-1.3-0.6l-0.4-0.7
			l-0.3-0.7l-0.4-1.7l-0.3-0.7l-0.1-0.8l-0.2-0.5l-0.9,2.2l-0.4,0.7l-0.3,0.9l-2.1,3.3l-1.2,1.4l-1.2,1l-1.2,0.6l-1.3,0.2l-1.3,0
			l-0.7-0.1l-0.7-0.4l-0.6-0.4l-1-1.1l-0.3-1l-0.4-2.3l0-1.8L137,76l0.9-3.4l0.8-1.2l0.8-0.3l0.9,0.2L141,72l0.1,1.3l-0.3,1.2
			l-0.1,0.8l-0.2,0.8l0.1,0.9l-0.1,0.9l0.1,1.7l0.5,0.6l1,0.2l1.1-0.4l0.5-0.4l0.5-0.4l0.6-0.9l0.8-1.5l0.6-0.8l0.3-0.9l0.5-0.9
			l0.3-1l0.8-1.6l1.1-2.8l0.5-2l0.7-1.8l0.7-2.6l0.6-1.3l0.7-1.1l0.9-0.3l0.8-0.1l0.8,0.1l0.6,0.6l0.2,1.1l-0.1,1.4l-0.3,0.9l0,0.9
			l-0.5,2l0,0.7l-0.3,1.8l0.1,1l-0.1,1.1l-0.1,2.5l0.4,1.6l0.8,0.7l1-0.2l0.7-0.6l0.5-0.6l0.5-0.7l0.5-1l0.9-1.5l0.5-0.9l0.6-1.9
			l0.4-1.1l0.4-0.7l0.3-1l0.4-0.9l1-3.1l0.8-1.2l0.8-0.5l0.9-0.2l0.9,0.4l0.5,0.3l0.3,1.2L167,65l-0.2,1l-0.1,1l0.1,0.9l-0.1,0.9
			l-0.3,0.9l-0.2,1l0,0.8l-0.1,1l0,0.8l-0.2,0.8l0,0.8l0.1,1.1l0,0.8l0.1,0.8l0.3,0.8l1.2,0.3l1,0.1l0.8-0.6l0.8-0.5l0.8-0.6
			l0.5-0.7l1.7-2.3l0.5-0.9l0.6-0.7l1.3-2.3l0.9-0.8L177.3,69.1z M138.7,79.4l0.5-0.5l0.3-0.4l-0.1-0.2l-0.3,0.3l-0.4,0.4l-0.3,0.4
			L138.7,79.4z M139.1,80.3l0,0.4l0.4-0.1l0-0.4L139.1,80.3z M149.8,82.6l-0.5,1l-0.6,0.7L148,85l-0.6,0.7l-0.8,0.6l-0.9,0.6
			l-0.8,0.3l-1.5,0.4l-1.3,0.1l-0.7-0.1l-0.8-0.3l-0.8-0.5l-0.1-0.5l0.6,0.1l2,0l0.8-0.1l1.7-0.6l1.5-1l1.3-1.4l0.6-0.9l0.5-0.9
			l1-1.6l0.6-0.3l0.5,0.7l-0.4,1.3L149.8,82.6z M142.5,73.8l0.6,0.1l0.2,1.4l-0.2,2l-0.2,1l-0.6,0.8l-0.4,0l-0.5-1.6l0.1-1l0.2-1.4
			l0.3-0.9l0-0.5L142.5,73.8z M141.5,82.9l-0.2-0.1l-0.1,0.2l0.2,0L141.5,82.9z M142.6,81.5l0,0.2l0.2,0l0-0.2L142.6,81.5z
			 M148.6,74.3l0-0.4l-0.4,0l-0.1,0.5L148.6,74.3z M150,70.3l-0.2,0l0,0.1l0.2,0L150,70.3z M149.9,72.9l0-0.2l-0.3,0l0,0.4
			L149.9,72.9z M150.7,68.1l0.1-0.4l-0.4,0l-0.1,0.3L150.7,68.1z M151.6,68.7l-0.5,0l-0.1,0.5l0.5,0L151.6,68.7z M151.3,71.2
			l-0.5,0.1l0,0.3l0.5,0L151.3,71.2z M151,73.7l-0.4,0l-0.1,0.4l0.5,0L151,73.7z M152,66.6l-0.4,0l-0.2,0.5l0.5,0L152,66.6z
			 M152.6,69.8l-0.5,0l-0.1,0.7l0.5-0.1L152.6,69.8z M152.5,67.6l-0.1,0.5l0.4,0l0.1-0.5L152.5,67.6z M153.4,63.1l-0.3,0l-0.1,0.2
			l0.3,0L153.4,63.1z M153.2,65.1l-0.4,0l0,0.4l0.3,0L153.2,65.1z M152.4,72.4l-0.4,0l0,0.4l0.4-0.1L152.4,72.4z M152.9,76.1l-0.2,0
			l0,0.3l0.2,0L152.9,76.1z M154,77.3l-0.3,0l0,0.3l0.3,0L154,77.3z M155.2,72.6l0.2-1.7l0-0.8l0.2-1.8l0.7-3.4l0.1-0.9l0.4-1l0-0.3
			l0.3-0.2l0.7,0.4l0,1.1l-0.3,2.4l-0.2,0.8l-0.2,1.8l-0.2,1l0,2.8l-0.4,1.1l-0.7,0.2l-0.5-0.6L155.2,72.6z M158.6,82.6l-0.8,0.3
			l-1.3,0.2l-1.3-0.2l-0.7-0.3l-0.3-0.6l1-0.2l1.5-0.1l0.9-0.4l0.8-0.6l0.6-0.6l0.7-0.6l0.6-0.4l0.4,0.3l-0.3,1.3l-0.5,0.9
			L158.6,82.6z M155.2,78.2l-0.3,0l-0.1,0.4l0.4,0L155.2,78.2z M156.4,77.2l-0.2-0.1l-0.1,0.2l0.2,0L156.4,77.2z M157.9,75.9l0-0.2
			l-0.2,0.1l0,0.2L157.9,75.9z M160.8,70.8l-0.2,0.1l0,0.2l0.3-0.1L160.8,70.8z M160.7,73.2l-0.4,0l0,0.4l0.4,0L160.7,73.2z
			 M162.4,69.3l-0.6,0l-0.2,0.4l-0.1,0.5l0.5,0.1l0.2-0.2L162.4,69.3z M161.5,72l-0.1,0.5l0.5-0.1l0.1-0.5L161.5,72z M162.6,67.1
			l-0.4,0l-0.1,0.5l0.4,0L162.6,67.1z M162.8,71.3l0.5-0.1l0.1-0.5l-0.5,0L162.8,71.3z M163.9,63.3l-0.2,0.7l0.6,0.1l0.1-0.7
			L163.9,63.3z M163.9,65.9l-0.5,0l-0.1,0.5l0.5,0L163.9,65.9z M163.1,73l-0.4,0l-0.1,0.5l0.4,0L163.1,73z M163.7,68.1l-0.4,0
			l-0.1,0.5l0.4,0L163.7,68.1z M165.1,64.4l-0.5,0l0,0.5l0.5-0.1L165.1,64.4z M163.7,71.8l0,0.5l0.5-0.1l0.1-0.5L163.7,71.8z
			 M164.4,66.9l-0.1,0.6l0.5,0.1l0.1-0.6L164.4,66.9z M164.6,69.4l-0.3-0.2l-0.2,0.5l0.5,0L164.6,69.4z M165,75.5l-0.6,0.3l-0.3,0.2
			l-0.7,0.6l-0.2,0.2l0.3,0.5l0.4-0.3l0.5-0.6l0.5-0.4L165,75.5z M164,74.2l-0.3,0l0,0.4l0.3,0.1L164,74.2z M163.6,79.3l-0.1-0.4
			l-0.4,0l0,0.4L163.6,79.3z M165.4,62.4l-0.2,0l0,0.2l0.2-0.1L165.4,62.4z M166.4,63.3l-0.4,0l0,0.4l0.3,0.1L166.4,63.3z M164.7,80
			l-0.5,0l-0.2,0.1l-0.1,0.7l0.6,0l0.4-0.6l1-0.9l-0.4-0.3l-0.4,0.6L164.7,80z M164.4,77.7l-0.2,0.5l0.4,0.2l0.2-0.5L164.4,77.7z
			 M165.8,68.1l-0.3,0l0,0.2l0.3,0L165.8,68.1z M165.3,73.1L165,73l0,0.4l0.3,0.2L165.3,73.1z M165.9,65.9l0.1,0.2l0.1-0.1l0-0.1
			L165.9,65.9z M165,81.3l0,0.4l0.4,0.2l0.2-0.4L165,81.3z M167.9,77.2l-0.5-0.4l-0.4-2.2l0.2-3.8l0.7-4l0.1-0.9l0.2-1l0-1.1
			l0.6-0.6l0.5,0.3l0.1,1.3l-0.8,7.5l0,1.9l-0.1,0.9l0.1,1.6l-0.1,0.6L167.9,77.2z M166.9,79.9l-0.5,0l-0.1,0.4l0.5,0.1L166.9,79.9z
			 M178,77.2l-0.1,0.7l-0.6,1.2l-1.6,2.2l-1.1,1.3l-1.3,1.1l-0.7,0.4l-0.6,0.4l-0.7,0.5l-0.8,0.4l-1.2,0.4l-1,0.2l-0.8,0l-0.6-0.1
			l-0.5-0.3l-0.5-0.4l-0.1-0.5l1.1,0l1.3-0.2l1-0.3l1.5-0.8l2-1.5l2.1-2.4l2.5-3.7l0.2,0l0.2,0.8L178,77.2z M167.6,81.2l-0.1,0.5
			l0.5,0l0-0.5L167.6,81.2z M169.5,79.8l-0.7,0.1l-0.1,0.7l0.5,0.1l0.3-0.3L169.5,79.8z M170.6,78.9l0.3-0.2l0.7-0.6l0.2-0.2
			l0.1-0.5l-0.5,0.3l-0.3,0.3l-0.3,0.2l-0.3,0.3l-0.3,0.4l0,0.2L170.6,78.9z M173.4,76.4l-0.1-0.2l-0.4,0l-0.1,0.5l0.2,0.1l0.5,0
			L173.4,76.4z M174.5,74.9l-0.3,0l0,0.4l0.3,0L174.5,74.9z M175.7,73.6l-0.2,0l0,0.2l0.1,0L175.7,73.6z"/>
		<path fill="#26201A" d="M177.8,82.6l-0.7-0.3l-1.5-1l-0.4-0.7l-0.4-0.7l-0.6-2.6l0-0.9l0.6-2.8l0.1-0.9l0.4-1.9l0.4-0.9l0.1-1
			l0.3-1l0.5-0.9l0.4-1l0.4-2.3l0.1-1.2l-1.3-0.2l-1.1-0.3l-0.4-0.8l0.6-1.3l0.9-1l1-0.5l0.9-0.2l0.9-0.1l1,0.1l0.8,0.4l0.7,0.4
			l0.6,0.5l0.3,0.8l0,1.5l-0.9,4.4l-0.9,2.9l-0.3,0.9l-0.1,1l-0.4,1l-0.2,1l0,0.9l-0.2,1.5l0.1,1.3l0.2,0.8L180,78l1.2,0.1l1.4-0.1
			l0.9-0.4l1.7-1.1l1.4-1.3l0.6-0.9l0.5-0.9l0.6-0.9l1.6-3.8l0.3-1.4l0.2-1.4l1-3.8l0.1-1l0.9-2.2l0.9-1l0.9-0.1l0.9,0.1l0.8,0.4
			l0.5,1.1l-0.1,1.4l-0.2,1l-0.3,1l0,0.8l-0.2,1l-0.3,1L194,71l0,1l-0.3,0.9l-0.1,0.9l0,0.9l0.1,0.9l0.2,0.8l0.9,0.5l1.2-0.2
			l0.9-0.5l0.7-0.6l1.5-1.6l0.5-0.9l0.7-0.8l0.6-0.9l0.5-0.9l1.4-2.1l1-0.9l0.9,0l0.7,0.3l0.5,0.6l-0.3,1.3L204,73l-0.6,0.9
			l-0.7,0.9l-0.5,0.9l-1.3,1.7l-2.2,2.1l-2.6,1.8l-0.9,0.3l-1,0.2l-1.5,0l-1.1-0.2l-0.8-0.5l-0.6-0.7l-0.6-1.7l-0.1-0.9l-0.5-0.6
			l-0.6,0.3l-1.2,1.6l-2.5,2l-0.8,0.5l-0.9,0.4l-0.9,0.3l-3.7,0.5L177.8,82.6z M176.2,75l0.2-0.5l-0.5,0l-0.2,0.4L176.2,75z
			 M176.7,72l-0.4,0l-0.1,0.4l0.5,0.1L176.7,72z M176.5,69.9l0.1,0.3l0.3,0l0-0.5L176.5,69.9z M176.2,76.8l-0.5,0.1l-0.1,0.5
			l0.5-0.1L176.2,76.8z M178.2,60.1l-0.4,0l0,0.4l0.4,0.1L178.2,60.1z M179.1,61.7l0.3-0.3l0.3-0.3l0.2-0.2l0.3-0.3l0.2-0.4
			l-0.4-0.2l-0.3,0.3l-0.3,0.2l-0.6,0.4l-0.3,0.5l0,0.3L179.1,61.7z M178.1,70.5l-0.6,0.2l0,0.6l0.5,0l0.3-0.6l0.5-0.4l0.3-0.3
			l0-0.4l-0.4,0.1l-0.1,0.2L178.1,70.5z M176.8,76.3l0.6,0l0.1-0.7l-0.5,0L176.8,76.3z M178.9,63.6l-0.5,0l0.1,0.5l0.5-0.1
			L178.9,63.6z M178.2,65.9l-0.1,0.4l0.4,0l0-0.3L178.2,65.9z M177.8,68.4l0,0.6l0.5-0.1l-0.1-0.5L177.8,68.4z M176.7,78.1l0,0.6
			l0.6-0.2l-0.1-0.5L176.7,78.1z M177.6,73.6l0.1-0.3l-0.3,0l0,0.3L177.6,73.6z M187.1,83.2l-1.8,1.1l-1.8,0.7l-1.5,0.1l-2.3,0
			l-0.7-0.2l-1.5-0.9l-0.3-0.3l0.5,0l0.9,0.1l1.7,0.1l2-0.2l1.8-0.6l1.8-1l0.8-0.5l0.7-0.6l1-0.2l0.3,0.7l-0.7,1.1L187.1,83.2z
			 M178.2,74.3l0,0.4l0.4,0l-0.1-0.4L178.2,74.3z M179.3,80.2l-0.2-0.2l-0.1-0.2l-0.3-0.2l-0.2-0.3l-0.3-0.1l-0.5,0l0.2,0.5l0.4,0.4
			l0.4,0.5l0.5,0.2L179.3,80.2z M179.9,64.7l-0.4,0l-0.1,0.4l0.4,0L179.9,64.7z M180.1,62.2l-0.3,0l0,0.4l0.3,0L180.1,62.2z
			 M179.6,67.2l-0.4,0l-0.1,0.4l0.3,0L179.6,67.2z M178.1,76.9l0,0.3l0.2-0.1l0-0.3L178.1,76.9z M179.2,78.3l0.1-0.2l-0.3,0l0,0.2
			L179.2,78.3z M181.1,63.5l-0.2-0.1l-0.1,0.2l0.2,0L181.1,63.5z M181.5,70.3l0.6-2l0.2-0.9l0.8-3l0.3-1.8l0.3-1l0.6,0l0.2,0.7
			l0.1,0.8l-0.2,2.7l-0.5,1.4l-0.6,2.4l-0.3,0.9l-0.2,1l-0.8,2.7l0,0.9l-0.6,0.9l-0.8,0.5l-0.3-0.5L181.5,70.3z M180.1,79.1l0,0.4
			l0.4,0l0.1-0.5L180.1,79.1z M180.3,81.4l-0.3,0l0,0.4l0.3,0L180.3,81.4z M181.3,80.1l-0.1,0.5l0.4,0l0.1-0.5L181.3,80.1z
			 M182.5,79.1l-0.1,0.3l0.3,0l0.1-0.3L182.5,79.1z M185,78.7l-0.1,0.3l0.2,0l0.1-0.2L185,78.7z M186.5,77.8l0.1-0.2l-0.2,0
			l-0.1,0.1L186.5,77.8z M188.3,74l-0.2-0.2l-0.2,0.4l0.2,0.1L188.3,74z M188.1,76l-0.5,0.1l-0.1,0.5l0.5-0.1L188.1,76z M188.9,74.9
			l0.1,0.5l0.5-0.1l0-0.5L188.9,74.9z M189.8,72.5l-0.5,0l-0.1,0.6l0.5,0L189.8,72.5z M190.9,71.2l-0.5-0.1l-0.2,0.4l0.5,0.1
			L190.9,71.2z M191.3,68.7l-0.5,0l-0.2,0.5l0.5-0.1L191.3,68.7z M190.7,76.4l-0.3-0.6l-0.5,0.1l-0.1,0.5l0.6,0.3l0.4,0.3l0.2,0.6
			l0.6-0.2l0.1-0.6l-0.6-0.1L190.7,76.4z M190.3,73.7l-0.1,0.5l0.5,0l0.1-0.5L190.3,73.7z M191.2,66.4l0,0.2l0.3,0l0-0.3L191.2,66.4
			z M192.5,63.4l0.7-0.3l-0.1-0.5l-0.6,0.3l-0.1,0.2l-0.5,0.6l-0.2,0.2l0,0.4l0.2-0.2l0.2-0.3L192.5,63.4z M191.9,67.5l0.1,0.4
			l0.2,0.2l0.5-0.1l0.1-0.5l-0.3-0.1l-0.5,0L191.9,67.5z M191.9,73l0.1-0.6l-0.6,0l0,0.6L191.9,73z M191.9,74.4l-0.3,0.1l-0.5,0.4
			l0.1,0.5l0.5,0l0.4-0.6l0.7-0.7l0.1-0.5l-0.5,0.1l-0.2,0.4L191.9,74.4z M193.4,60.4l-0.3,0l-0.1,0.2l0.3,0.1L193.4,60.4z
			 M192.8,65.2l-0.4,0.1l0.1,0.3l0.4-0.1L192.8,65.2z M192,70.1l0,0.2l0.2,0l0.1-0.2L192,70.1z M193.5,68.7l-0.6,0l-0.2,0.3
			l-0.1,0.5l0.5,0l0.3-0.2L193.5,68.7z M194,66.3l-0.2-0.2l-0.5,0l-0.2,0.4l0.1,0.2l0.5,0L194,66.3z M192.7,76l-0.4-0.2l-0.3,0.5
			l0.5,0L192.7,76z M194.5,61.4l-0.6,0.1l0,0.5l0.5-0.1L194.5,61.4z M192.6,78.2l-0.5,0l-0.1,0.5l0.5,0L192.6,78.2z M194.1,63.8
			l-0.2,0.1l0,0.2l0.3,0L194.1,63.8z M193.2,71.1l-0.2,0l0,0.2l0.1,0L193.2,71.1z M193.6,79.9l0-0.6l-0.5,0l-0.1,0.6L193.6,79.9z
			 M193.4,77.2l-0.1,0.3l0.2,0.1l0.2-0.4L193.4,77.2z M205.3,75.8l-0.1,0.7l-0.6,1.2l-1.5,2.2l-1.1,1.3l-1.3,1.1l-0.7,0.4l-0.6,0.4
			l-0.7,0.5l-0.8,0.4l-1.2,0.4l-1,0.2l-0.8,0l-0.6-0.1l-0.5-0.3l-0.5-0.4l-0.1-0.5l1.1,0l1.3-0.2l1-0.3l1.5-0.8l2-1.5l2.1-2.4
			l2.5-3.7l0.2,0l0.2,0.8L205.3,75.8z M198.4,60.5l0.2,0.4l0,1.1l-0.2,2.4l-0.8,2.9l-0.1,1l-0.3,1l-0.6,2.9l-0.2,3l-0.4,0.5
			l-0.6-0.1l-0.4-0.4l-0.2-0.6l0-0.8l0.1-0.9l0.8-3.1l0-1.1l0.4-2.1l0.6-2.2l0.2-1l0.6-2.2l0.3-0.7L198.4,60.5z M194.7,78.2l-0.3,0
			l0,0.4l0.4-0.1L194.7,78.2z M194.2,80.6l0,0.2l0.2,0l-0.1-0.2L194.2,80.6z M195.5,79.2l-0.1,0.4l0.4,0l0.1-0.4L195.5,79.2z
			 M197.2,78.3l0-0.4l-0.5,0l0.1,0.4L197.2,78.3z M198.6,76.9l-0.3,0l0,0.3l0.2,0L198.6,76.9z M199.9,75.6l-0.3,0l0,0.3l0.2,0
			L199.9,75.6z M200.9,74.3l-0.1,0.2l0.2,0l0.1-0.2L200.9,74.3z M202.3,73.2l0.1-0.3l-0.3,0l-0.1,0.3L202.3,73.2z"/>
	</g>
</g>
</svg>
