<?xml version="1.0" encoding="utf-8"?>
<!-- Generator: Adobe Illustrator 18.0.0, SVG Export Plug-In . SVG Version: 6.00 Build 0)  -->
<!DOCTYPE svg PUBLIC "-//W3C//DTD SVG 1.1//EN" "http://www.w3.org/Graphics/SVG/1.1/DTD/svg11.dtd">
<svg version="1.1" id="Слой_1" xmlns="http://www.w3.org/2000/svg" xmlns:xlink="http://www.w3.org/1999/xlink" x="0px" y="0px"
	 viewBox="0 0 522.9 74" enable-background="new 0 0 522.9 74" xml:space="preserve">
<g>
	<path fill="#26201A" d="M38.8,39.4l0.7,0.7l0.1,1.5L39,43.4l-0.6,1.1l-0.8,1.2L37,46.7l-0.7,1.1l-0.9,1l-0.6,1l-4.8,4.4l-1,0.7
		l-3.6,1.7l-2.1,0.7l-3,0.8l-3.8,0.4l-2.9,0.1l-3.4-0.6l-1.9-0.9l-1.1-0.4l-1.9-1.1l-1.5-1.5l-1.3-1.7l-1.6-4L0.4,46l-0.3-1.2
		L0,42.7l0.3-4.8l1.4-5.9l1.5-4.9L3.9,26l0.5-1.2l0.5-1.1l0.7-1.1l0.5-1.2l1.3-2.2l0.7-1L8.8,17l3.2-3.8l2.8-2.8l3-2.2l3.4-2
		l3.6-1.3l2.3-0.3l1.8-0.1l2.8,0.1l1.1,0.3L34.6,6l0.9,0.8L36,7.6l0.5,0.9l0.5,2.2l0.2,1.2L37,13.1l-0.2,1.1l-0.3,1.2l-0.4,1.1
		l-2.2,4.6l-1.2,1.3L31,23.4l-1.1-0.1l-0.9-0.5L28.4,22l0.2-1.6l0.9-1.6l0.5-1.1l0.9-3.4l0-1.2l-0.6-1.9l-0.7-0.6l-1.8-0.3l-1.5,0
		L24,11l-1.7,0.8l-1.7,1l-2.2,1.7l-1.9,1.7l-0.8,0.9L15,18.1l-0.9,1.1l-0.6,0.9l-0.8,1.1l-1.9,3.4l-1,2.3l-0.7,1.2l-0.9,2.3l-1.6,6
		l0,1.1l-0.2,1.1l0.1,2.5l-0.1,1l0.2,2.3l0.2,1.1l0.8,2l0.5,1l1.3,1.6l0.8,0.6l1,0.6l2,0.8l2.2,0.6l1.7,0.1l3-0.3l2.5-0.4l3.5-1.4
		l3.2-2.2l3.6-3.7l0.7-1.1l0.9-1.1l0.6-1.1l1.1-1.6l1.6-1L38.8,39.4z M2.6,37.7l-0.3-0.3L1.5,37l-0.1,0.4l0.2,0.4l0.2,0.7l0.7,0
		L2.6,37.7z M3.1,35.5L3,34.8l-0.8,0.3l0.1,0.6L3.1,35.5z M2.3,41l-0.6-0.2l-0.1,0.8l0.7,0L2.3,41z M2.2,43.9l-0.5-0.1l-0.3,0.5
		l0.6,0.3L2.2,43.9z M3,32.2l-0.2,0.7l0.6-0.3l-0.1-0.6L3,32.2z M5.1,43.6l-0.6-0.1l-0.6,0.5l-0.3,0.5l-0.3,0.3l-0.5,0.2l-0.5,0.5
		l0,0.3L3,46.3l0.8-0.9L4,45.2l0.3-0.2l0.7-0.6L5.1,43.6z M4.6,33.4l-0.7,0.1l-0.2,0.8l0.7-0.1L4.6,33.4z M4.3,36.5l-0.8,0l0.1,0.7
		l0.7,0L4.3,36.5z M3.6,42.1l-0.8,0.2l-0.1,0.8l0.8-0.3L3.6,42.1z M3.4,39.4l-0.2,0.7l0.8,0l0.2-0.7L3.4,39.4z M5.4,27.4l-0.5,0
		L4.8,28l0.6,0L5.4,27.4z M2.9,48.9l0.1-0.6l-0.7,0l-0.1,0.7L2.9,48.9z M5.2,30.1l-0.6,0.2l0.1,0.6l0.5-0.2L5.2,30.1z M6.4,31.8
		l-0.7,0l-0.2,0.7l0.5,0.1l0.3-0.2L6.4,31.8z M5.5,38l-0.6,0l0,0.6l0.6-0.1L5.5,38z M4.6,40.9l-0.1,0.5l0.4,0L5.2,41L4.6,40.9z
		 M7.1,25.9l-0.6,0l-0.1,0.4l0.6,0L7.1,25.9z M4.6,46.7l-0.7,0.2l-0.1,0.6l0.7-0.1L4.6,46.7z M4.3,49.7l-0.8,0.1l-0.1,0.6l0.6,0
		l0.2-0.2L4.3,49.7z M6.8,28.9l-0.6-0.1L6,29.5l0.7,0L6.8,28.9z M7.6,22.8L6.9,23l-0.1,0.5l0.7-0.1L7.6,22.8z M5.9,35l-0.4,0
		l-0.1,0.3l0.4,0.1L5.9,35z M8.3,21.2l-0.2,0.7l0.6,0l0.2-0.7L8.3,21.2z M8,24.4L7.9,25l0.6,0.1l0-0.7L8,24.4z M5.3,48.3L5.1,49
		l0.7,0l0.1-0.7L5.3,48.3z M5.6,51.1l-0.6,0l-0.1,0.6l0.6,0L5.6,51.1z M10.1,19.5l0,0.7l0.7,0l0.1-0.7L10.1,19.5z M7,49.7l-0.5,0
		l-0.1,0.5l0.5,0L7,49.7z M6.7,52.5l-0.6,0l0,0.7l0.7-0.1L6.7,52.5z M26.5,13.9l-1,0.5l-1.2,0.7l-1,0.6l-3.1,2.5l-1.8,1.9l-0.7,1.1
		l-0.9,1l-0.7,1l-3.3,5.6l-1.4,3.6L10.4,36l-0.6,3.5l-0.1,2.4l0.1,2.2l0.5,2.2l0.4,1.1l0.3,1.2l-1-0.8l-0.5-0.9l-1.3-4.4l0.1-1
		l-0.2-1.3L8,37.8l0.7-3.7l0.3-1l0.6-1.2l0.6-2.3l0.5-1.2l0.4-1.1l0.7-1l0.6-1.2l1.4-2.2l0.6-1l0.9-1l0.8-1.1l0.9-1l0.7-0.9l1.8-1.7
		l0.8-0.9l1-0.7l3.3-2l1.2-0.4l1.1-0.3l1.4,0.1l0.3,0.9l-0.7,0.7L26.5,13.9z M8.5,50.8L7.8,51l0,0.7l0.7-0.1L8.5,50.8z M8,54.9
		L8,54.3l-0.5,0.1L7.4,55L8,54.9z M12.2,15.5l-0.1,0.4l0.4,0l0-0.4L12.2,15.5z M11.7,19.1l0.4-0.1l0.2-0.5l-0.5-0.1L11.7,19.1z
		 M39.3,49.3l-0.1,0.9l-0.3,0.7l-0.6,1l-0.6,0.9l-2.5,2.6l-3.9,3L28,60.1L25.5,61l-7,1.3l-1.2,0l-0.9-0.1l-1.4,0l-2.7-0.4l-1.6-0.4
		l-1.9-0.7l-1-0.5l-0.5-0.7L9.8,60l1,0.3l3.3,0.3l4.6-0.3l6.5-1.5l5.5-2.8l1.1-0.7l1-0.8l0.8-0.9l0.9-0.8l1.5-1.6l2.6-3.8l0.2,0
		l0.2,1L39.3,49.3z M14.4,13.7l-0.6,0l-0.1,0.4l0.6,0L14.4,13.7z M9.1,52.6L9,53.3l0.6,0l0.2-0.7L9.1,52.6z M9.2,56l0-0.3L9,55.7
		l-0.1,0.4L9.2,56z M10.9,54.8l0.2-0.8l-0.7,0l-0.2,0.8L10.9,54.8z M15.8,12l-0.4,0l-0.1,0.4l0.5-0.1L15.8,12z M15.7,15.1L15.3,15
		l-0.2,0.4l0.4,0.1L15.7,15.1z M17.9,10.4l-0.7-0.2l0,0.7l0.6,0.2L17.9,10.4z M17.2,13.6l-0.4,0l0,0.3l0.3,0L17.2,13.6z M12.5,55.1
		l-0.7,0l-0.1,0.7l0.7,0L12.5,55.1z M12.4,53l-0.1-0.1l-0.1,0.3l0.2,0L12.4,53z M18.8,12l-0.5,0.1l0,0.4l0.5,0L18.8,12z M13.8,54.7
		l0.1-0.6l-0.6,0.1l-0.1,0.5L13.8,54.7z M19.4,9.1l0.1-0.4l-0.6,0l0,0.4L19.4,9.1z M13.6,57l-0.3-0.1l-0.2,0.5l0.4,0.1L13.6,57z
		 M15.2,56.1l0.3-1l-0.8,0L14.4,56L15.2,56.1z M20.5,10.6l0.2-0.5l-0.6,0L20,10.5L20.5,10.6z M21,7.5l-0.3,0l-0.1,0.4l0.4-0.2
		L21,7.5z M22.2,9.3l0.2-0.7l-0.7,0.1l-0.1,0.6L22.2,9.3z M16,56.7L16,57.1l0.4,0.1l0.1-0.5L16,56.7z M17.1,54l-0.5,0l-0.1,0.5
		l0.5,0L17.1,54z M18.2,55.2l-0.7,0l0.1,0.7l0.6-0.1L18.2,55.2z M25.4,6l-0.5,0.2l-0.8,0.5l-0.3,0.3l-0.3,0.8l0.7,0l0.3-0.4l0.3-0.3
		l0.3-0.3l0.3-0.3L25.4,6z M19.4,53.7l-0.2,0.7l0.7,0l0.1-0.7L19.4,53.7z M25.2,9.1l0.1-0.6l-0.5-0.2l0,0.6L25.2,9.1z M19.8,56.6
		l0.4-0.3l0.3-0.2l0.4-0.3l0.4-0.7l-0.3-0.2l-0.5,0.4L20,55.5l-0.3,0.2l-0.2,0.3l-0.4,0.5l0.2,0.3L19.8,56.6z M26.3,7.7l0.7,0l0-0.7
		l-0.6,0L26.3,7.7z M28.3,8.8l0-0.6l-0.7,0.1l0,0.7L28.3,8.8z M22.8,54l0-0.7l-0.5,0L22.3,54L22.8,54z M28.6,5.6l-0.4,0l0,0.4l0.4,0
		L28.6,5.6z M22.4,56.1l-0.1,0l-0.2,0.2l0.2,0.1L22.4,56.1z M29.8,6.8l-0.6,0l-0.1,0.7l0.7,0L29.8,6.8z M24.2,55.2l0.1-0.5l-0.4,0
		l-0.1,0.5L24.2,55.2z M25.9,53.2l-0.7,0L25,54l0.7,0L25.9,53.2z M32.7,6.7l-0.4,0l-0.4,0.5l-0.3,0.3l-0.3,0.4L31,8l-0.4,0.5
		l0.1,0.4l0.6-0.3l0.4-0.2L31.9,8l0.3-0.2l0.3-0.4L32.7,6.7z M32.6,9.6l-0.7,0.1l0.1,0.6l0.7-0.1L32.6,9.6z M27.5,51.6l-0.5,0
		l-0.1,0.5l0.6,0L27.5,51.6z M31.7,12.6l0,0.5l0.8,0.1l0-0.7L31.7,12.6z M31.6,18.6l-0.7,0.1l0.1,0.6l0.5-0.1L31.6,18.6z M31.6,16
		l0.3-0.1l0-0.4l-0.3,0.2L31.6,16z M33.9,11l-0.8,0.1L33,11.9l0.7-0.2L33.9,11z M33.7,14.1L33,14l-0.4,0.7l0.7,0L33.7,14.1z
		 M28.4,50.2l0,0.5l0.5-0.2l0-0.4L28.4,50.2z M34.2,8.3l-0.7,0l-0.1,0.7L34,9L34.2,8.3z M28.9,52.8l-0.4,0l-0.2,0.4l0.5,0.1
		L28.9,52.8z M35.8,21.2L37,19l0.4-1.1l0.5-1.2l0.3-1.2l0.3-3.5L38.2,9l0.5,0.3l0.7,0.9l0.6,2.1l0.1,1.2l-0.1,2.4l-0.5,2.5l-1.3,3.4
		l-1.4,2.4l-1.2,1.5l-1.6,1l-1.1-0.1l-1-0.5l-0.1-0.7l1.9-0.8l0.9-1.1L35.8,21.2z M33.3,17.1l-0.4,0l-0.1,0.5l0.5,0L33.3,17.1z
		 M34.7,15.6l-0.5-0.1l-0.1,0.6l0.4,0.1L34.7,15.6z M35.2,9.8l0.2-0.2l-0.3,0l0,0.1L35.2,9.8z M34.9,12.6l-0.2,0l0.1,0.3l0.1,0
		L34.9,12.6z M30.2,51.5l-0.2,0l0,0.4l0.2,0L30.2,51.5z M36.1,43.2l-0.3,0.3L35.6,44l0.4,0.2l0.3-0.7l0.2-0.3l0.1-0.5L36.1,43.2z"/>
	<path fill="#26201A" d="M71.8,37.4l1,0.5l0.5,0.9l-0.1,1.5l-0.7,1.4l-0.7,1.1L71.1,44l-1.3,2.1l-0.7,0.6l-0.8,0.9l-0.8,1.2
		l-0.8,0.9l-1.9,1.4l-0.9,0.6l-1.1,0.6l-1.2,0.4l-4.3,0.2l-1-0.2L55,52.5l-5.5,2.9l-1.2,0.4L44,56l-0.9-0.4l-0.9,0l-2.5-1.3
		l-0.7-0.6l-1.5-2.5L36.3,47l0.1-4.4l-0.1-1l0.2-2.5l0.3-1.1l0.1-2.1l0.3-1l0.2-2.5l0.3-1.1l1.4-5.8l0.1-0.9l0.4-1.2l0.2-1.1
		l0.5-0.9l0.5-2.3l1.3-3.5l0.5-0.8l1.4-3.5l0.7-1l0.4-1l0.6-1.1l1.5-1.8L49,4.8l1.1-0.7l1-0.5L52.7,3l1.5-0.2l1.2-0.3l3,0.9l0.8,0.4
		l1.4,1.5l0.5,2l0.2,1.2l-0.2,0.9l-0.1,1.3l-0.1,1l-0.5,1.3L60,14l-0.4,1.1L57,20.7l-0.7,1.1l-1.5,1.8l-0.1,1l0.9,0.5l2.9,0.5l1,0.6
		l0.9,0.4l0.6,0.7l1.2,1.7l0.4,1.1l0.4,2l0.2,2.3l0,0.8l-0.3,2.2l-0.4,1.3l-0.1,0.9L62,40.8l-0.8,2.3l-0.5,0.8l-0.4,1.1L59.7,46
		l-0.1,1.1l1.1,0.5l1.5-0.3l2-1.1l0.8-0.9l1.6-2.2l0.5-1l0.8-1.1l0.6-1.1l1.1-1.4l1.2-1.2L71.8,37.4z M38.2,35.3L38,36.1l0.2,0.2
		l0.8-0.2l-0.1-0.8L38.2,35.3z M39.2,32.2l-0.7,0.1l0.1,0.8l0.6-0.2L39.2,32.2z M39.8,29.2L39,29.4l0,0.7l0.7,0L39.8,29.2z
		 M38.6,38.5l-0.6,0l-0.2,0.7l0.7,0L38.6,38.5z M37.7,41.7l-0.2,0.5l0.6,0.1l0.1-0.6L37.7,41.7z M37.8,45.3l0.1-0.5l-0.5,0l-0.1,0.5
		L37.8,45.3z M40.2,36.8l-0.8,0l0,0.7l0.7,0L40.2,36.8z M39.8,39.8L39,40l0,0.9l0.9-0.1L39.8,39.8z M39.7,34.6l0.7,0.1l0.3-0.3
		l0.2-0.7l-0.2-0.3l-0.8,0.2L39.7,34.6z M41,24.8l-0.1,0.5l0.5-0.1l0.1-0.5L41,24.8z M41.3,27.9l-0.7,0l-0.1,0.7l0.7,0L41.3,27.9z
		 M41,30.6l-0.7,0l0,0.7l0.7,0L41,30.6z M39.4,43.7l0-0.6l-0.5,0l-0.1,0.6L39.4,43.7z M39.2,47l0-0.8l-0.7,0l0.1,0.8L39.2,47z
		 M42.3,18.8l-0.5,0.1l0,0.4l0.4,0L42.3,18.8z M41.9,22.1l0.1-0.5l-0.4,0l-0.1,0.4L41.9,22.1z M38.8,49.7l0.1-0.5l-0.6,0.2l0.1,0.5
		L38.8,49.7z M41.9,35.2l-0.7,0l-0.3,0.2L40.9,36l0.9,0L41.9,35.2z M42.5,32l-0.7,0l-0.3,0.2l-0.2,0.8l0.8,0l0.3-0.2L42.5,32z
		 M41.5,38.3l-0.8,0.2l-0.1,0.7l0.8,0L41.5,38.3z M40.9,41.5l-0.4-0.1l-0.2,0.5l0.5,0.1L40.9,41.5z M39.8,47.6l-0.2,0.8l0.7-0.1
		l0.1-0.7L39.8,47.6z M44.1,13.6l-0.3,0.5l0.3,0.6l0.5,0.6l0.2,0.4l0.5,0.5l0.5-0.6l-0.4-0.6l-0.5-0.5l-0.2-0.3l-0.2-0.4L44.1,13.6z
		 M44,16.7l-0.6,0.2l0,0.7l0.6-0.2L44,16.7z M44.5,21.1l-0.4-0.6L44,20.2l-0.4-0.4L43,20.3l0.3,0.6l0.3,0.3l0.3,0.2l0.3,0.3l0.3,0.3
		l0.2-0.2L44.5,21.1z M42.9,26.1l-0.6,0.2l0.1,0.6l0.6-0.2L42.9,26.1z M43.3,23.4l0-0.5l-0.4,0l-0.1,0.5L43.3,23.4z M42,29.3l0,0.7
		l0.8-0.1l-0.1-0.7L42,29.3z M40.1,51.2l0.1-0.7l-0.7,0l-0.2,0.7L40.1,51.2z M40.7,44.8l-0.4,0l-0.1,0.5l0.4,0L40.7,44.8z M45.3,12
		l-0.1,0.8l0.6,0.2l0.2-0.8L45.3,12z M45.5,18.4l-0.8,0.1l0.1,0.6l0.6,0.1L45.5,18.4z M43.8,30.5l-0.6,0.1l0,0.6l0.6-0.2L43.8,30.5z
		 M50.5,49.2l0.9-1.4l1-2.5l1.3-1.3l1-0.7l1-1.1l0.9-2.1l0.4-1.3l0.4-3.1l0-2.3l-0.3-0.9l-0.6-0.7l-0.6-1l-0.9-0.2l-1.4-0.1
		l-1.7-0.1L49.9,31l-1,0.6L47.9,32L47,32.6l-0.9,1l-0.8,0.7l-0.8,0.9l-0.6,1.1l-0.8,0.9L42,40.6l-0.1,1l0,1.1l0.3,3.3l0.7,2.2l0.7,1
		l0.8,0.6l2.4,0.3l1.6-0.2L50.5,49.2z M43.4,34.3l0.1-0.7l-0.7,0l-0.1,0.8L43.4,34.3z M41.2,52.3l-0.4-0.1l-0.1,0.5l0.5,0.1
		L41.2,52.3z M41.7,48.9l-0.5,0.2l-0.1,0.4l0.5,0L41.7,48.9z M44.3,27.2l-0.3,1l0.2,0.9l0.8-0.3l0.8-0.6l0.7-1l0.7-0.7l0.7-1.1
		l0.8-0.9l2-3.1l2.7-5.2l0.8-2.2l0.3-1.3l0.3-1.9l-0.1-1.2l-0.4-0.8l-1.2-0.1l-1.4,0.5l-2.2,3.1L48,15.9l-0.6,0.9L47.2,18l-0.5,1
		l-2.2,6.8L44.3,27.2z M52.4,34.4l-0.9,0.6l-0.9,0.3l-1,0.6l-0.9,0.7l-2.3,3.1l-0.5,0.9l-1,3.2l0.4,3.2l0.3,0.9l0,0.4L45,48.2
		l-1.2-1.6l-0.2-1.2l-0.3-3.3l0.3-1.6l0.7-1.6l0.7-0.9l1.5-1.9l1.8-1.8l2.1-1.5l1.2-0.5l1.2-0.2l1.4,0.1l0.3,1l-1,0.8L52.4,34.4z
		 M42.2,50.8l0.1,0.4l0.5,0l-0.1-0.6L42.2,50.8z M47.9,10.5l-0.7,0L47,11.3l0.7,0L47.9,10.5z M47.5,8.1l0.3,0l0.1-0.3l-0.4-0.1
		L47.5,8.1z M47.3,13.8L47,13.8l-0.3,0.4l0.5,0.2L47.3,13.8z M45.4,29.7l0.1-0.4l-0.4,0l-0.1,0.5L45.4,29.7z M45.2,32l-0.6,0.1
		l-0.1,0.7l0.7-0.1L45.2,32z M72.6,47.5l-0.1,1l-1.8,3.2l-1.4,1.5l-2.6,1.9l-1,0.3l-0.9,0.3l-3,0.6l-5,0.2l-0.9,0.3l-3.1,1.5l-2,0.6
		l-3.1,0.4l-1-0.1L44,58.4l-1.6-0.9l-0.1-0.4l0.5,0l0.9,0.2l0.9,0.1l1.6,0l1,0.1l1.4-0.1l1.3-0.4l1-0.2l1.9-0.8l1-0.6l0.9-0.4
		l1.1-0.4l4.4,0.1l3.1-0.5l1-0.4l2.8-1.6l2.3-2.2l2.3-3.6l0.1-0.3l0.2-0.2l0.2,0l0.2,0.5L72.6,47.5z M47.2,22l0.5-0.9l0.3-1.4
		l1.4-3.4l1.8-3.2l0.6-0.8l0.8-0.6l0.5,0.9l-0.3,1.7l-0.7,1.7l-1.6,3L50,20.2l-1.9,2.9l-1.3,1l0-1L47.2,22z M48.8,9l-0.2,0.7l0.7,0
		L49.4,9L48.8,9z M50,5.7l-0.7,0.1l0,0.7l0.7-0.3L50,5.7z M44.4,51.9l-0.7,0l-0.2,0.7l0.8,0.1L44.4,51.9z M47,30.5l-0.5,0l-0.2,0.5
		l0.5,0L47,30.5z M51.5,4.8l0.1-0.6l-0.6,0l-0.1,0.7L51.5,4.8z M48.8,28.7l-0.7,0.1L48,29.5l0.5,0l0.3-0.3L48.8,28.7z M46.3,54.7
		l-0.2-0.6l-0.3-0.8l-0.6,0.3l-0.1,0.5l0.5,0.3l0.4,0.1L46.3,54.7z M51.1,7.6l-0.4,0L50.7,8l0.5-0.1L51.1,7.6z M49.2,26l-0.6,0
		l-0.1,0.7l0.5,0L49.2,26z M45.9,51l-0.4,0l0,0.4l0.4,0L45.9,51z M51.5,28.6l-0.7-0.8l-0.1-0.4l0.2-0.5l0.7-0.6l0.5-0.7L52,25.4
		l-0.7,0l-0.3,0.2l-0.3,0.4l-0.2,0.4l-0.3,0.3l-0.7,0.8l0.2,0.6l0.3,0.3l0.8,0.6l0.5,0.3l0.3-0.3L51.5,28.6z M52.9,5.9l-0.6,0
		l-0.2,0.5l0.6,0.1L52.9,5.9z M47.3,51.9L46.6,52l0,0.8l0.7-0.1L47.3,51.9z M50.9,24l-0.7,0L50,24.8l0.7,0L50.9,24z M51.3,22
		l-0.1,0.6l0.5,0.7l0.8-0.3l0-0.7L51.8,22L51.3,22z M48.4,53.9l0.2-0.6l-0.7,0l-0.1,0.6L48.4,53.9z M54.4,4.3l-0.4,0l-0.1,0.2
		l0.3,0.1L54.4,4.3z M54.1,7.1l-0.4,0.2l-0.1,0.5l0.5,0L54.1,7.1z M52.8,19.6l-0.4,0l-0.1,0.5l0.4,0L52.8,19.6z M54.9,28.5l-0.4-0.3
		l-0.8-0.8l-0.6-0.6l-0.6,0.7l0.4,0.6l0.3,0.2l0.5,0.4l0.5,0.5l0.5-0.3L54.9,28.5z M53.5,20.9l0.1,0.7l0.7,0l0.1-0.7L53.5,20.9z
		 M53.1,23.9l0,0.7l0.7,0l0.1-0.7L53.1,23.9z M54.6,17.8l-0.7,0.1l-0.1,0.7l0.7-0.2L54.6,17.8z M56,6.3l0.2-0.7l-0.7-0.1l-0.1,0.7
		L56,6.3z M50.5,52l0.1-0.7L50,51.6l-0.1,0.7L50.5,52z M54.6,15.2l0.2,0.5L55,16l0.1,0.3l0.1,0.4l0.4,0.6l0.6-0.4l0-0.7L56,15.9
		l-0.3-0.3l-0.5-0.4L54.6,15.2z M56.4,13l-0.2-0.3l-0.3-0.2l-0.4-0.3l-0.1,0.5l0.1,0.3l0.2,0.3l0.3,0.3l0.5,0L56.4,13z M57.1,10.7
		l0-0.7l-0.8,0l0,0.9L57.1,10.7z M55.5,19.3l-0.4,0.1l0.1,0.4l0.3-0.2L55.5,19.3z M54.5,25.8L54.3,26l0.4,0.1l0-0.3L54.5,25.8z
		 M52,50.9l0.1-0.7l-0.7,0l-0.1,0.7L52,50.9z M51.1,53.2L51,53.7l0.5-0.2l0.1-0.4L51.1,53.2z M57.5,4.2L57.3,4l-0.1,0.2l0.1,0.1
		L57.5,4.2z M53.8,48.4l-0.8,0L53,49l0.2,0.3l0.8-0.2L53.8,48.4z M58.9,5.4l-0.4-0.1l-0.3,0.5L58.8,6L58.9,5.4z M58.6,8.5l-0.7,0
		L58,9.2l0.5-0.1L58.6,8.5z M53.5,51.7L53,51.5l-0.3,0.6l0.6,0.2L53.5,51.7z M57.8,14.7l-0.6,0.1l0,0.5l0.5,0L57.8,14.7z M57,17.7
		L56.8,18l0.3,0.1l0-0.3L57,17.7z M56.6,27l-0.8,0l-0.1,0.7l0.7,0L56.6,27z M58.2,11.7l-0.5,0l-0.1,0.5l0.4,0L58.2,11.7z M53.7,45.5
		l-0.1,0.6l0.4,0l0.1-0.6L53.7,45.5z M59.3,29.9L59,29.6l-0.3-0.2l-0.3-0.2L58,28.6l-0.5-0.4l-0.7,0.6l0.5,0.6l0.3,0.3l0.3,0.2
		l0.3,0.3l0.5,0.4l0.6-0.3L59.3,29.9z M54.5,50.1l-0.1,0.5l0.6,0l0.2-0.6L54.5,50.1z M59,20.3l1.9-4.3l1.1-3.2l0.3-3.3l0-1.1
		l0.1-0.9l-0.1-0.7L62.8,7l0.5,0.6l0.3,1.2l0.3,1.9l-0.1,2.2l-0.3,1l-0.1,1.3L63,16.2l-0.3,1.1l-1.4,3.3l-1.1,2.1l-1.3,1l-1.2-0.1
		l0.3-1.5L59,20.3z M59,13l-0.1,0.2l0.3,0.1l0-0.2L59,13z M55.5,47.5l0-0.6l-0.5,0l-0.1,0.7L55.5,47.5z M59.5,9.5l-0.1,0.7l0.6-0.3
		l0.1-0.6L59.5,9.5z M55.9,44.4l0.1-0.7l-0.5,0.1l-0.1,0.6L55.9,44.4z M59,27.4l0.1-0.4l-0.4,0l-0.1,0.5L59,27.4z M58.7,43.6l-1-1.1
		l-0.3-0.2l-0.6,0l0.3,0.6l0.2,0.4l0.3,0.3l0.2,0.4l0.4,0.5l0.5-0.3L58.7,43.6z M57.3,44.9L56.5,45l-0.1,0.8l1-0.1L57.3,44.9z
		 M58.9,48.3l0.1,0.3l0.3,0.2l0.7-0.1l0-0.5L59.7,48l-0.4,0l-0.4-0.3l-0.1-0.7l-0.3-0.4l-0.7,0.1l-0.3,0.5l-0.2,0.7l-0.2,0.2l-0.5,0
		l-0.4,0.2l-0.1,0.7l0.7,0.4l0.2,0.3l0.2,0.7l0.3,0.3l0.8-0.2l0.2-0.8l-0.2-0.3L57.7,49l-0.2-0.3l-0.1-0.3l0.3-0.4l0.7,0L58.9,48.3z
		 M58.2,33.1l0,0.3l0.3,0.1l0-0.3L58.2,33.1z M56.4,51.6l-0.2-0.1l-0.1,0.2l0.2,0.1L56.4,51.6z M60.4,31.3l-0.6,0l-0.4,0.7l0.8,0.2
		L60.4,31.3z M59.2,40.3l-0.5,0l-0.2,0.6l0.6,0.1L59.2,40.3z M59.9,34.2l-0.5,0.1l0,0.4l0.5-0.1L59.9,34.2z M60.6,28.4l-0.5,0.1
		l-0.1,0.4l0.4,0L60.6,28.4z M60.8,35.7L60.5,36l-0.3,0.2l-0.3,0.3l-0.5,0.8l0,0.7l0.6-0.3l0.3-0.3l0.5-0.6l0.4-0.4l0.4-0.5
		l-0.2-0.4L60.8,35.7z M61.7,32.6L61,32.5l-0.2,0.7l0.7,0L61.7,32.6z M59.9,41.9l-0.1,0.4l0.7,0l0.1-0.5L59.9,41.9z M60.4,39l0,0.4
		l0.5,0l0.1-0.4L60.4,39z M59.4,51.3l-0.4-0.1l0,0.2l0.3,0.1L59.4,51.3z M61.2,50.3l0.2-0.7l-0.6-0.2l-0.2,0.7L61.2,50.3z
		 M63.1,42.4l0.3-1.1l0.4-1.2l0.1-1l0.4-1.3l0-1.3l0.2-1.1l0.1-1l-0.1-2.1l0.1-0.9l0.9,1.1l0.6,3.2l0,0.9l0,1.1l-0.3,2.5l-1,2.6
		l-1.3,1.3l-0.7,0.1l-0.1-0.8L63.1,42.4z M62.8,48.6l-0.3-0.1l0,0.3l0.1,0L62.8,48.6z M64,49.8l-0.3-0.1l-0.1,0.3l0.3,0L64,49.8z
		 M66,48L65.6,48l-0.2,0.5l0.5,0L66,48z M67.1,46.2l0,0.3l0.2,0.1l0.1-0.3L67.1,46.2z M69.9,42.9l0-0.2l-0.3-0.2l-0.1-0.1l0-0.4
		l-0.1-0.2l-0.1,0.4l0.2,0.3L69.9,42.9z"/>
	<path fill="#26201A" d="M72.1,54.5l-0.9-0.3l-0.9-0.7L69,52.2l-0.8-2.1l0-1l0-1.2l-0.1-1.1l0.3-3.6l1.1-4l1-1.6l1-0.1l1.2,0.3
		l0.6,0.7l-0.2,3.1l-0.4,1.2l-0.2,2l0.1,1l0,1.3l0.4,0.7l0.4,1.1l1.3,0.1l1.3-0.2l1.1-0.8L78,47l0.7-0.9l1.2-1.9l0.7-0.9l0.3-1.3
		l-0.8-0.9l-2.3-1.6l-1.1-1.8L76.3,37l-0.4-3.4l0.2-1.3l0.4-1.8l0.4-1l0.6-1l0.9-0.9l0.6-0.8l0.9-0.9l1.8-1.2l1.1-0.4l1.2-0.7
		l3.2-0.3l1.9,0.4l1.2,0.1l0.9,0.4l1.1,0l2.7-1.6l1.9,0.4l0.8,0.4l0.2,1.5L98,26.4l-0.3,1.3l-0.7,2L96.8,31l-0.4,1.1l-1.6,6.8
		l-0.4,0.9l-0.5,3.6l-0.3,1l0.3,2.2l1,0.5l1.7,0l0.9-0.6l0.9-0.6l1.5-1.8l0.8-1.1l0.8-0.9l3.8-6l1.3-1l0.9,0.1l0.9,0.6l0.5,0.5
		l0,1.6l-1.8,3.6l-0.6,1l-0.9,1l-0.6,1.1l-0.7,0.9l-0.5,0.9l-3.4,3.8l-2,1.1l-1,0.8l-0.9,0.6l-1.4,0.4L93.7,53l-1.6,0.2l-2-0.6
		l-0.8-0.8l-0.5-0.7L88,46.9l0.2-1l0.1-2.1l0.1-1l-0.3-0.9L87,41.8l-1,1.3l-0.6,1l-0.5,1.3l-2,3l-3.3,3.9l-1,0.9l-0.9,0.4l-2.7,1
		l-1.8,0.2L72.1,54.5z M70.9,47.9l-0.4,0l-0.1,0.4l0.4,0.1L70.9,47.9z M71.2,44.9L71,44.9l0,0.2l0.1,0.1L71.2,44.9z M72.3,49.1
		l-0.7,0l-0.2,0.7l0.7,0L72.3,49.1z M73.3,51.3l0.2-0.5L73,50.6l-0.2,0.6L73.3,51.3z M74.1,43.6l0.4-2.2l0.6-1.1l1,0.5l-0.1,4.4
		l-0.6,1.5l-0.9,0.3L74.1,46L74.1,43.6z M84.9,52.9l-2.3,2.5l-2.3,1.9l-4.5,0.9l-1.2-0.1l-1-0.6l-1-0.5l-0.1-0.7l0.7,0l0.9,0.3
		l1.6-0.3l2.8-0.8l0.7-0.7l1.1-0.7l0.7-0.9l0.9-0.8l1.5-1.9l0.5-0.8l0.9-1.1l0.5-0.9l0.7-0.6l0.3,0.8l0,1l-0.3,1.5l-0.6,1.6
		L84.9,52.9z M75.1,52l-0.5,0l-0.3,0.6l0.7,0L75.1,52z M77.9,32.5l-0.1,0.7l1-0.1l-0.1-0.7L77.9,32.5z M75.8,50.7l0.1,0.6l0.5-0.1
		l0-0.5L75.8,50.7z M78.6,35.2l-0.7,0.2l-0.3,0.3l0.1,0.6l0.7,0l0.1-0.4l0.1-0.6l0.4-0.3l0.5-0.1l0.4-0.4l0-0.6l-0.7,0L79,34.2
		l-0.1,0.5L78.6,35.2z M78.7,29.9L78.4,30l0,0.3l0.3-0.1L78.7,29.9z M79.5,31l-0.1,0.7l0.7,0l0.2-0.6L79.5,31z M79.7,36.8l-0.8,0
		l0,0.7l0.7,0L79.7,36.8z M78.8,50.5l-0.3,0.3L78.1,51l-0.4,0.3l-0.3,0.3l-0.2,0.5l0.3,0.2l0.6-0.5l0.3-0.3l0.3-0.2l0.4-0.3l0.4-0.5
		l-0.1-0.1L78.8,50.5z M78.2,49l-0.5,0l-0.1,0.5l0.6,0L78.2,49z M80.3,28.4l-0.1,0.3l0.4,0.1l0.1-0.5L80.3,28.4z M80.6,35.4
		l-0.1,0.7l0.7,0l0.1-0.8L80.6,35.4z M80.8,38.4l-0.5,0.1L80.2,39l0.7,0L80.8,38.4z M81.4,45.6l-0.2,0.2L80.8,46l-0.7,0.6l-0.9,0.9
		l0.4,0.6l0.6-0.6l0.3-0.3l0.3-0.3l0.3-0.3l0.2-0.3l0.3-0.4l0.7-0.6l0.5-0.2l0.3-0.4l0-0.6l-0.6,0.1l-0.3,0.3l-0.2,0.5L81.4,45.6z
		 M82.3,27l-0.5,0l0.1,0.3l0.4,0.1L82.3,27z M81.9,29.7l-0.4,0l0,0.3l0.3,0L81.9,29.7z M88.2,36.7l1.1-0.8l0.8-1.3l0.6-2.3l0.6-1.1
		l-0.3-1.3l-0.7-1.1l-0.9-0.3l-1.1-0.1l-0.9-0.2l-2.1,0.4L84,29.1l-0.7,0.6l-0.8,0.9l-0.8,1.5L81.7,34l0.2,0.8l0.5,0.9l0.7,1
		l0.8,0.4l3.2,0L88.2,36.7z M80.4,49.2l0.4,0.2l0.2-0.5l-0.6-0.2L80.4,49.2z M83.3,28.5l0.1-0.3l-0.2,0L83,28.5L83.3,28.5z
		 M83.6,38.2L83,38.7L82.6,39l-0.3,0.4L82,39.7l-0.5,0.8l0.7-0.1l0.3-0.4l0.3-0.3l0.4-0.3l0.5-0.8L83.6,38.2z M83,41.2l-0.4,0.4
		l-0.3,0.3L82,42.2l-0.3,0.4l-0.2,0.2l-0.1,0.5l0.5-0.2l0.3-0.3l0.7-0.7l0.5-0.5l-0.1-0.5L83,41.2z M84,31.8l0.5-0.6l1-0.9l0.9-0.5
		l1-0.1l1.1-0.1l1,0.5l-0.3,1l-2.3,0.8l-1,0.6l-0.5,1.1l-0.4,1.1l-0.1,0.8l-1.3-1l-0.1-1.2L84,31.8z M85.3,26.6l-0.4-0.1L84.7,27
		l0.4,0L85.3,26.6z M85.3,39.4l-0.7,0l-0.2,0.7l0.1,0.2l0.7-0.1L85.3,39.4z M84.8,42.4l-0.5,0l-0.1,0.7l0.6-0.2L84.8,42.4z M86.3,41
		l-0.7,0.1l0.1,0.7l0.7-0.2L86.3,41z M87.8,26.1l-0.3,0.4l0.2,0.4l0.7,0.4l0.3,0.2l0.5,0.1l-0.1-0.4l-0.3-0.3l-0.1-0.2l-0.3-0.4
		L87.8,26.1z M87.9,40.2l0.3-0.4l-0.4-0.6L87.6,39l-0.4-0.6l-0.6-0.3l-0.2,0.7l0.2,0.4l0.3,0.3l0.2,0.3l0.3,0.3L87.9,40.2z
		 M90.2,40.3l0.4,0l0.4,0.1l0.5,0.3l0,0.3l0.4,0.6l0.2,0l0.5-0.6l-0.4-0.6l-0.5-0.1l-0.2-0.4l0.4-0.8l0.4-0.3l0.6-0.5l-0.3-0.6
		l-0.8,0.4l-0.6,0.5l-0.5,0.3l-0.3,0.3l-0.3,0.4L89.9,40l-0.3,0.5l-0.9,0.4l0,0.5l0.8,0.2l0.3-0.8L90.2,40.3z M91.3,26.6l0-0.6
		l-0.7,0l-0.1,0.7L91.3,26.6z M89.8,38.5l0-0.6l-0.7,0l0,0.7L89.8,38.5z M90.6,36.1l0,0.8l0.3,0.2l0.8-0.1l0.2-0.7l-0.3-0.2L91.3,36
		L90.6,36.1z M92.6,27.4l-0.7,0l-0.2,0.8l0.7,0L92.6,27.4z M90.1,42.2l-0.1,0.5l0.6,0l0-0.5L90.1,42.2z M90.3,45.3l-0.6,0.1l0,0.4
		l0.5,0L90.3,45.3z M92.6,32.7l0.4-0.1l0.6-0.4l-0.1-0.6l-0.6,0l-0.5,0.5l-0.1,0.5l-0.4,0.5l-0.4,0.2l-0.1,0.6l0.5-0.2l0.3-0.5
		L92.6,32.7z M91.9,30.6l0,0.4l0.3-0.2l-0.1-0.3L91.9,30.6z M94.1,25.7l-0.6,0.1l-0.2,0.7l0.7-0.1L94.1,25.7z M91.7,46.6l-0.7,0
		l0,0.7l0.7-0.1L91.7,46.6z M93,35.4l0-0.6l-0.6,0l-0.1,0.7L93,35.4z M93.3,29.5l0.6,0l0.1-0.7l-0.7-0.1L93.3,29.5z M91.8,44.4
		l0.1-0.4l-0.5,0l-0.1,0.5L91.8,44.4z M91.2,50.2l0.1-0.5L91,49.6l-0.2,0.5L91.2,50.2z M95.2,30.1L94.4,30l-0.2,1l0.8,0L95.2,30.1z
		 M94.3,36.1l-0.4,0l-0.3,0.7l0.5,0L94.3,36.1z M92.9,42.5l0.4,0.1l0.1-0.4l-0.4,0L92.9,42.5z M93.1,45.3l-0.4,0l-0.1,0.5l0.4,0
		L93.1,45.3z M94.9,27.3l0,0.7l0.6-0.1l0-0.6L94.9,27.3z M94.8,33l-0.6,0.1l-0.1,0.7l0.6-0.1L94.8,33z M92.5,51.6l0.1-0.5l-0.4,0
		l-0.1,0.5L92.5,51.6z M93.7,49.2l-0.2,0.2l0,0.7l0.7,0l0.2-0.9L93.7,49.2z M96.6,29.1l-0.2-0.5l-0.4,0.2l0,0.4L96.6,29.1z
		 M108.2,45.4l-0.1,0.9l-0.8,1.5l-1.9,2.8l-1.4,1.6l-1.6,1.4l-0.9,0.5l-0.7,0.6l-0.9,0.6l-1,0.5l-1.5,0.5l-1.3,0.2l-1,0l-0.8-0.2
		l-0.6-0.3l-0.7-0.6L93,54.7l1.4,0l1.6-0.2l1.3-0.4l1.9-1l2.6-1.8l2.6-3l3.2-4.6l0.2,0l0.2,1L108.2,45.4z M96.9,25.8l-0.3-0.1l0,0.3
		l0.3-0.1L96.9,25.8z M100.5,26.4l0.7,0.3l0.1,1.5l-0.3,1.6l-0.5,0.9l-0.5,2.3L99.6,34l-0.2,1.3l-1.3,4.4L98,40.8l-0.6,2l-0.2,1.6
		L96.7,45L96,45.2l-0.5-0.6l-0.2-0.5l-0.1-0.7l0.1-0.6l1.7-7.3l0.5-1.2l0.9-4l0.5-1.1l0.6-2.2l0.4-0.8L100.5,26.4z M95.7,48.1
		l-0.4,0l-0.1,0.5l0.5-0.1L95.7,48.1z M95.4,51l-0.5-0.1l0,0.6l0.5,0L95.4,51z M97.3,49.2l-0.7,0l-0.1,0.7l0.7,0L97.3,49.2z
		 M98.9,47.7l-0.6,0.1l0,0.5l0.6-0.1L98.9,47.7z M100.5,46.2l-0.4,0l-0.2,0.5l0.5,0L100.5,46.2z M102.1,45l0-0.4l-0.4-0.1l-0.1,0.6
		L102.1,45z M103.8,43.2l-0.4,0l-0.1,0.4l0.3,0.1L103.8,43.2z"/>
	<path fill="#26201A" d="M115,40.8l1-0.8l0.8-1.1l1.6-1.6l1.2-2.1l1.5-3.1l0.3-1l0.2-1.4l-0.2-0.9l-0.4-0.9l-0.7-0.8l-1.5-0.2
		l-1.4,0.4l-1.1,0.6l-0.8,0.6l-0.9,0.8l-0.9,1l-2.7,4l-0.4,1.3l-0.7,0.9l-0.5,1.1l-1.6,2.6l-1.3,1l-0.9-0.2l-0.9-0.5l-0.5-0.9
		l0.3-1.5l0.6-1.3l0.7-1.1l1-2.3l1.3-1.9l0.5-1.4l0.8-1l0.5-1.1l3.3-3.7l0.8-0.8l1-0.6l2-0.8l2.8-0.7l1.7,0.1l1.1-0.1l2,0.6l1.7,1.5
		l0.6,0.9l0.4,0.7l0.3,1.2l0.2,2.2l0,1l-0.3,1.3l-0.2,1l-3.1,6.6l-0.9,0.7l-0.8,0.9l-0.9,0.9l-0.5,0.8l0.5,0.9l0.8,0.3l0.9,0.6
		l1.1,1.4l0.4,1.2l0.3,1.2l0.6,0.5l0.8-0.3l0.9-1l1.8-1.6l0.6-1.1l1.6-2.1l1.3-1.9l0.5-1.2l0.9-1.1l1.7-2.4l1.1-1l1.2,0.1l0.8,0.2
		l0.5,0.9l-0.1,1.3l-0.7,1.6l-0.7,1l-0.5,1.1l-1.4,2.3l-0.8,0.8l-0.7,1.2l-0.8,0.9l-0.7,1.1l-2.4,2.6l-0.7,1l-2.8,2.7l-1,0.7
		l-0.9,1.2l-2.5,7.2l-0.5,0.8l-0.4,1l-0.8,1.2l-0.5,1.1l-1.7,1.8l-1,0.7l-0.8,0.8l-1.5,0.8l-1.7,0.4l-1.1,0.5l-1.7,0.1l-1.6-0.1
		l-2-0.6l-0.7-0.8l-0.7-0.9l-0.3-0.8l-0.2-1.2l-0.1-1.2l0.6-2.3l1.6-2.7l0.9-1.1l0.8-0.8l0.8-0.6l1.1-0.9l0.9-0.6l3.1-1.6l1.1-0.9
		l1.9-0.8l1.3-1.3l0.4-1.3l-0.2-1.2l-0.7-2l-0.7-0.5l-1.1-0.4l-1.8,0l-1.1,0.1l-1.7-0.2l-0.7-0.6l-0.3-1.1l0.1-1l1.3-1.2l1.5-1
		L115,40.8z M107.8,34.7l0-0.3l-0.4,0.1l0,0.3L107.8,34.7z M119.2,30.4l-0.6,0.9l-0.7,0.5l-1.5,1.5l-0.7,1l-0.7,1.2l-0.7,0.9
		l-0.7,1.3l-0.7,0.8l-2,3.5l-1.4,2l-1.1,2.1l-0.5,0.7l-0.6-0.8l-0.3-0.9l0.1-0.7l0.4-0.8l1.2-2.1l0.5-0.7l1.6-2.7l0.1-0.2l2.7-4.1
		l0.5-0.9l1.6-2l1.8-1.6l1.5,0.1L119.2,30.4z M107.4,65l-0.7,0l-0.4,0.8l0.7,0L107.4,65z M111.5,28.4l0-0.2l-0.3,0.2l0,0.3
		L111.5,28.4z M107.4,62.5l0-0.4l-0.4,0l0,0.5L107.4,62.5z M106.8,68.7l0.1-0.4l-0.4-0.2l0,0.4L106.8,68.7z M108.5,67.1l0.4-0.3
		l0.3-0.4l0.3-0.3l0.4-0.2l0.4-0.5l-0.3-0.6l-0.8,0.5l-0.9,0.7l-0.4,0.6l0.2,0.5L108.5,67.1z M108.4,63.3l-0.1,0.7l0.6,0.1l0.1-0.7
		L108.4,63.3z M109.1,60.7l-0.2-0.1l-0.1,0.3l0.3,0L109.1,60.7z M110.8,59.3l0.1-0.5l-0.6,0l0,0.5L110.8,59.3z M110.3,62.4l0.2-0.3
		l-0.4,0l-0.1,0.4L110.3,62.4z M109.9,67.9l-0.6,0l0,0.7l0.5,0L109.9,67.9z M115,24.8l-0.4-0.1l-0.1,0.4l0.4,0.1L115,24.8z
		 M138.1,44.8l-0.5,1.1l-1.1,1.9l-1.3,1.9l-1.7,1.9l-0.8,1.1l-0.8,0.9l-0.9,0.8l-0.8,0.9l-1,0.9l-1.1,1.4l-0.6,1.7l-0.4,1.3
		l-2.1,5.4l-0.8,1.6l-0.7,1.1l-1.7,1.9l-1.9,1.5l-1.2,0.7l-1.3,0.4l-1.1,0.3l-3.6,0.4l-1.1-0.2l-1-0.5l-0.9-0.6l-0.3-0.4l0.7,0
		l2.1,0.1l2.5-0.4l1.2-0.4l2.2-1l1.1-0.7l1-0.8l1.8-1.9l1.4-2.3l1.1-2.3l1.5-4.9l0.6-1.6l1.1-1.4l2-1.8l5.7-6.7l2.1-3.6l0.3-0.3
		l0.2,0l0.5,1.8L138.1,44.8z M114.8,64.6l0.8-0.8l0.8-1.1l1.7-3.6l-0.4-0.9l-0.8,0l-1.2,0.8l-1,0.8l-2.8,2.7l-0.6,1.1l-0.1,1.1
		l1.2,0.7l1.4-0.2L114.8,64.6z M112,60.2l-0.2,0.1l0,0.2l0.4,0L112,60.2z M111.5,66.3l-0.4,0L111,67l0.4,0L111.5,66.3z M116.7,23.3
		l-0.3,0l-0.1,0.4l0.3,0.1L116.7,23.3z M110.8,69.6l-0.1,0.4l0.4,0l0-0.3L110.8,69.6z M115.7,43.3l-0.4-0.1l-0.1,0.3l0.3,0.2
		L115.7,43.3z M117.7,24.5l-0.2,0.5l0.5,0.2l0.2-0.7L117.7,24.5z M114.1,58.6l-0.5,0l0,0.4l0.5-0.2L114.1,58.6z M115,60.7l0.8-0.3
		l0.1,0.4l-0.5,1.1l-0.9,1.1l-1,0.6l-0.5,0.1l-0.1-0.4l0.2-0.8L115,60.7z M112.6,67.9l-0.2,0.1l0,0.4l0.3-0.3L112.6,67.9z
		 M119.8,23.1l-0.4,0l-0.1,0.5l0.5,0L119.8,23.1z M117.7,41.3l-0.6,0.2L117,42l0.6-0.1L117.7,41.3z M117.2,44.5l-0.5,0.1l0,0.6
		l0.5-0.2L117.2,44.5z M115.8,56.9l-0.6,0.2l-0.1,0.5l0.4,0L115.8,56.9z M114.4,66.5l0,0.6l0.3,0.3l0.3,0.2l0.3,0.3l0.4,0.3l0.4-0.3
		l-0.2-0.4l-0.2-0.3l-0.3-0.3l-0.2-0.4L114.4,66.5z M118.8,43.6L119,43l-0.7,0l-0.1,0.6L118.8,43.6z M117.4,55.5l-0.6-0.1l0.1,0.6
		l0.5,0L117.4,55.5z M121.1,25.1l0.1-0.4l-0.5-0.3l-0.1,0.7L121.1,25.1z M119.3,39.7l-0.5,0.3l-0.1,0.4l0.5-0.1L119.3,39.7z
		 M119.6,44.7l0,0.4l0.4,0l-0.1-0.4L119.6,44.7z M118.6,53.7l-0.1,0.5l0.4,0l0.1-0.4L118.6,53.7z M119,56.6l-0.7,0l-0.1,0.7l0.6,0
		L119,56.6z M122.3,23l-0.1,0.5l0.5,0l0.1-0.5L122.3,23z M122.5,26l-0.5-0.1l-0.1,0.5l0.5,0L122.5,26z M117.5,66.3l-0.4,0l0.1,0.4
		l0.2-0.2L117.5,66.3z M121.4,35.3l-0.3,0l0,0.4l0.3-0.2L121.4,35.3z M120.9,38.4l-0.1-0.1l0,0.4l0.3,0L120.9,38.4z M119.9,47.7
		l-0.2,0l-0.1,0.4l0.3,0L119.9,47.7z M120.9,45.9l-0.1,0.6l0.7-0.1l0.1-0.5L120.9,45.9z M120.4,52l-0.3,0.5l0.3,0.5l0.3,0.3l0.3,0.2
		l0.2,0.4l0.6,0.4l0.5-0.4l-0.2-0.7l-0.2-0.3l-0.3-0.3l-0.2-0.4l-0.4-0.3L120.4,52z M124.2,24.3l-0.6,0l0,0.7l0.5,0L124.2,24.3z
		 M120.5,55.1l-0.6,0.1l-0.1,0.8l0.7-0.3L120.5,55.1z M123.8,27.2l-0.4,0l-0.1,0.4l0.5-0.1L123.8,27.2z M119.3,61.4l-0.1,0.7
		l0.6-0.2l0-0.5L119.3,61.4z M121.3,49l-0.4,0l-0.1,0.4l0.5,0.1L121.3,49z M119.7,58.2l-0.1,0.4l0.4,0l0.1-0.5L119.7,58.2z
		 M122.1,56.4l-0.9,0l-0.2,0.8l0.9,0.2L122.1,56.4z M122.4,50.6l-0.5,0l-0.1,0.4l0.5,0L122.4,50.6z M124.5,29.1l0.2,0.4l0.5-0.1
		l0-0.4L124.5,29.1z M123.1,47.4l-0.5,0l0,0.6l0.4,0L123.1,47.4z M125.9,37.9l0.5-1.1l0.7-0.9l0.4-1.3l0.9-2.1l0.1-2.4l0.2-1.3
		l0-0.9l-0.3-1.8l0.3,0.2l0.6,0.9l0.9,1.9l0.3,2l-0.3,1l-0.1,1.3l-0.5,2.1l-0.5,0.8l-1.1,2.3l-0.5,0.9l-1.6,2l-1,0.2l-0.9-0.9
		l0.4-1.1L125.9,37.9z M124.2,48.7l-0.7,0.1l0.2,0.7l0.5,0L124.2,48.7z M124.1,52.5l0-0.9l-0.7,0l0,0.8L124.1,52.5z M123.3,55.5
		l0-0.4L123,55l-0.1,0.5L123.3,55.5z M124.9,53.2l-0.2,0l0,0.2l0.3,0L124.9,53.2z M125.8,50.2l-0.7,0l-0.1,0.8l0.7-0.3L125.8,50.2z
		 M126.7,48.6l-0.1,0.6l0.6,0.2l0.2-0.8L126.7,48.6z M130.5,45.5l-0.2,0.2l0,0.1l0.4-0.1L130.5,45.5z"/>
	<path fill="#26201A" d="M141.6,50.5l-1.1,0l-1-0.2l-1.9-0.9l-1.1-0.8l-0.6-0.6l-0.6-0.8l-0.3-0.8l-0.4-0.8l-0.6-2.7l0-1l0.2-3.9
		l0.3-1.9l0.4-1.1l0.3-1l1.5-3.8l0.5-0.8l1.7-2.6l0.7-0.9l1.4-1.5l2.4-2.1l2.3-1.2l2.5-1l3.8-0.3l0.9,0.1l2.3,0.6l1.4,0.1l0.8-0.9
		l1.1-0.9l2,0l0.9,0.1l0.5,0.4l0.4,1.2l0.1,1.3l-0.5,2l-0.1,1l-0.3,0.9l-0.5,1.9l-0.4,3l-0.3,1.1l-0.1,1.8l-0.3,1.1l-0.3,2.9l-0.3,1
		l0,1.8l-0.1,1l0.3,0.9l0.6,0.7l1.1,0.2l1.3-0.2l0.9-0.4l2.3-2.2l0.5-0.8l0.8-0.9l0.5-1.1l0.8-0.9l1.1-1.9l0.4-1l1-1.3l1.2-1l0.9,0
		l0.8,0.3l0.7,0.5l0.3,0.7l-0.3,1.4l-0.9,2l-0.7,1l-0.4,0.8l-1.3,1.7l-0.5,0.8l-1.3,1.6l-0.5,0.9l-2.2,2.2l-1,0.6l-0.7,0.7l-1.3,0.9
		l-1.1,0.6l-2.4,0.7l-1.5,0.2l-1-0.1l-0.8-0.3l-0.6-0.5l-0.6-0.7l-0.4-0.9l-0.6-0.8l-0.3-0.8l-0.1-1.1l-0.2-0.6l-0.8,0.3l-2.7,3.1
		l-1.7,1.3l-0.8,0.4l-2.9,1.3l-2.8,0.4L141.6,50.5z M135.9,37.3l0.5-0.3l0.6-0.6l-0.5-0.5l-0.6,0.5l-0.3,0.4l0,0.3l-0.4,0.5
		l-0.2,0.2l0.2-0.1L135.9,37.3z M136.4,33.8l0.4,0l0.1-0.5l-0.5,0.1L136.4,33.8z M136.5,40l0-0.8l-0.7,0.1l0.1,0.7L136.5,40z
		 M136,42.4l-0.5,0l-0.1,0.5l0.6,0L136,42.4z M138.9,31.5l-0.2-0.3l-0.7,0.2l0,0.8l0.7,0L138.9,31.5z M138.6,34.5l-0.6-0.3l-0.3,0.3
		l-0.2,0.7l0.8,0L138.6,34.5z M137.9,37.7l-0.6,0.2l0.2,0.5l0.5-0.2L137.9,37.7z M137,41.3l0.6,0.1l0.2-0.7l-0.7,0L137,41.3z
		 M136.8,43.9l-0.1,0.5l0.5,0l0.1-0.5L136.8,43.9z M140.3,27.8l0.3-0.2l0.3-0.3l0.3-0.3l0.3-0.3l0.2-0.3l0.4-0.4l0.4-0.5l-0.3-0.3
		l-0.6,0.3l-0.7,0.5l-0.4,0.3l-0.5,0.8l-0.1,0.4l-0.6,0.5l-0.4,0.2l-0.2,0.5l0.5-0.2l0.3-0.3L140.3,27.8z M140.1,32.8l-0.7,0
		l-0.2,0.7l0.7,0.1L140.1,32.8z M139.1,39.2l-0.4-0.1l-0.1,0.5l0.3,0.1L139.1,39.2z M139.4,36.1l-0.3,0l0.1,0.2l0.2,0L139.4,36.1z
		 M138.7,42.7l0.1-0.5l-0.4-0.1l-0.1,0.5L138.7,42.7z M138.7,45.8l0-0.7l-0.7,0.1l0.1,0.6L138.7,45.8z M140.4,30.4l0.1-0.5l-0.5,0
		l-0.1,0.6L140.4,30.4z M151.4,51.5l-2.7,1.5l-0.9,0.3l-1.4,0.3l-4.2,0.1l-0.8-0.2l-1.7-0.7l-1.3-1l-0.2-0.4l0.6,0l1.8,0.5l5,0
		l1.4-0.5l2.6-1.2l1.7-1.3L152,48l1.1-0.4l0.5,0.3l0,1.2l-0.6,1.1L151.4,51.5z M144,26.6l-0.6-0.2l-0.6,0.7l-0.3,0.3l-0.3,0.3
		l-0.8,0.6l-0.1,0.4l0.5,0.6l0.5-0.2l0.4-0.8l0.6-0.5l0.6-0.5L144,26.6z M147.3,43.9l1.7-1l0.6-0.8l1.4-1.4l0.7-0.9l1.9-4l0.8-2.3
		l0.5-2l0.4-0.9l0.1-1l0.3-0.9l0.1-0.9l-0.2-1.2l-0.7-0.8l-1-0.3l-1.8-0.2l-1.5,0.2l-1.4,0.3l-1,0.4l-1.8,1.1l-0.8,0.8l-1.4,1.6
		l-2.3,3.7l-0.8,1.9l-0.3,1l-0.4,0.9l-0.3,3l0.2,0.9l0,1l0.3,0.8l1.2,1.3l0.8,0.5l0.7,0.1l2.9-0.6L147.3,43.9z M139.3,46.8l0.1,0.6
		l0.6-0.2l0-0.5L139.3,46.8z M140.7,48.2l-0.1,0.6l0.6,0l0.2-0.6L140.7,48.2z M152,28.8l-1,0.1l-0.8,0.3l-0.9,0.5l-1.7,1.1l-0.7,0.7
		l-0.6,0.9l-0.7,0.9l-1.3,2.7l-0.2,1l-0.2,0.9l-0.3,1l-0.1,0.9l0.2,1.9l0,1.5l-0.6-0.1l-0.9-1.4l-0.1-1l-0.2-0.9l0.1-1.9l0.7-2.8
		l0.5-1l0.5-0.8l0.4-0.9l1.2-1.7l0.6-0.8l0.8-0.8l0.9-0.6l0.7-0.6l0.9-0.4l0.9-0.3l2.8-0.2l0.7,0.4l-0.1,1l-0.6,0.5L152,28.8z
		 M143.8,23.8l0,0.4l0.4,0l-0.1-0.4L143.8,23.8z M145.7,24.8l-0.7,0l-0.2,0.7l0.7,0L145.7,24.8z M143.3,46.5l-0.6-0.1l-0.3,0.7
		l0.7,0.1L143.3,46.5z M147.2,23.3l-0.5,0l-0.1,0.5l0.6,0.1L147.2,23.3z M144.5,47.8l-0.6,0.2l0,0.6l0.7,0L144.5,47.8z M148.9,22.3
		l0.1-0.4l-0.4,0l-0.1,0.4L148.9,22.3z M145.6,46.9l0.5-0.1l0.1-0.5l-0.5,0.2L145.6,46.9z M150.3,23.6l0-0.2l-0.3-0.1l-0.2,0.4
		L150.3,23.6z M152,21.6l-0.5,0l0,0.4l0.4,0.1L152,21.6z M153.4,23.2l-0.4-0.1l-0.2,0.3l0.4,0.1L153.4,23.2z M154.4,41.3l-0.5-0.3
		l-0.4-0.1l-0.4-0.7l-0.3-0.2l-0.3,0l-0.3,0.3l-0.4,0.7l-0.3,0.3l-0.3,0.6l0.2,0.3l0.5-0.6l0.4-0.2l0.4,0l0.3,0.3l0.7,0.5l0.5-0.1
		L154.4,41.3z M151.9,42.7l-0.1,0.7l0.6,0.1l0.2-0.7L151.9,42.7z M154.7,24.5l-0.2,0.1l0,0.2l0.2-0.1L154.7,24.5z M154.1,38.2
		l-0.3,0.2l0.2,0.7l0.3,0.3l0.4,0.6l0.3,0.3l0.5,0.3l0.6-0.5l-0.3-0.7l-0.5-0.6l-0.3-0.3l-0.3-0.3L154.1,38.2z M155.9,23l-0.1,0.6
		l0.7-0.1l0.2-0.7L155.9,23z M155.2,35.7l0-0.4l-0.4-0.1l-0.1,0.5L155.2,35.7z M156.2,33.5l-0.2,0.8l0.8-0.2l0-0.8L156.2,33.5z
		 M156.4,36.4l-0.7,0l-0.1,0.6l0.7,0.1L156.4,36.4z M157.3,27.4l-0.5,0.1l0,0.5l0.4-0.2L157.3,27.4z M158.1,21.3l-0.4,0l-0.1,0.5
		l0.5-0.2L158.1,21.3z M157.9,24.2l-0.7,0l-0.1,0.7l0.7-0.1L157.9,24.2z M156.6,30.4l-0.1,0.4l0.3,0.1l0.2-0.3L156.6,30.4z
		 M155.3,42.9l-0.1,0.5l0.4,0l0-0.4L155.3,42.9z M159.5,22.4l-0.5,0.2l0,0.6l0.5-0.2L159.5,22.4z M158.3,32.6l0.1-0.6l-0.6,0
		l-0.1,0.6L158.3,32.6z M156.7,41.2l0,0.7l0.7-0.1l-0.1-0.6L156.7,41.2z M157,44l-0.6,0.3l-0.1,0.6l0.6-0.2L157,44z M158.7,25.7
		l-0.1,0.5l0.5,0l0.1-0.4L158.7,25.7z M157.6,35.1l0,0.5l0.5,0l0-0.5L157.6,35.1z M159.2,36.6l-0.4-0.1l-0.1,0.4L159,37L159.2,36.6z
		 M158.6,42.7l-0.5,0l-0.1,0.6l0.6,0L158.6,42.7z M160.6,21.4l0,0.2l0.4-0.1l0-0.2L160.6,21.4z M160.6,24.3l-0.2-0.1l-0.2,0.3
		l0.3,0.1L160.6,24.3z M159.8,30.3l-0.3,0.1l0,0.3l0.4-0.1L159.8,30.3z M157.8,45.6l-0.2,0.7l0.8,0l0.2-0.7L157.8,45.6z M159.7,46.9
		l-0.5,0l-0.2,0.5l0.6,0L159.7,46.9z M159.9,44.3l-0.5,0l0,0.5l0.5,0L159.9,44.3z M174,41.9l-0.1,0.9l-0.8,1.5l-1.9,2.8l-1.4,1.6
		l-1.6,1.4l-0.9,0.5l-0.7,0.6l-0.9,0.6l-1,0.5l-2.8,0.4l-1,0l-0.8-0.2l-0.6-0.3l-0.7-0.6l-0.1-0.7l1.4,0l1.6-0.2l1.2-0.3l1.9-0.8
		l2.6-1.8l2.6-3l3.2-4.6l0.2,0l0.2,1L174,41.9z M161.5,41.5l-0.3-0.6l-0.1-0.9l0-0.8l0-0.9l0.1-2l0.7-2.9l0.1-1.7l0.3-1.1l0.5-2.8
		l0.3-1l0.1-1l0.4-0.9l0.2-1.1l0.6-0.7l0.8-0.2l0.5,1l-0.1,1.4l-0.8,3l-0.1,0.9l-0.7,2.8l-0.2,2l-0.3,1l-0.6,2.8l0,3.7l-0.6,0.4
		L161.5,41.5z M160.9,45.6l-0.1,0.2l0.3,0.2l0.3-0.4L160.9,45.6z M162.1,47.1l-0.1,0.3l0.3,0.1l0.1-0.4L162.1,47.1z M164.2,45.6
		l-0.1-0.1l-0.1,0.1l0,0.2L164.2,45.6z"/>
	<path fill="#26201A" d="M221.8,29.1l0.7,0.5l0.5,0.7l-0.2,1.6l-1.3,2.7l-1.5,2.2l-0.4,1l-0.9,1.1L218,40l-1.7,1.9l-2.7,2.6
		l-1.1,0.7l-2.1,1.2l-1.7,0.5l-1.7,0.2l-1.2-0.1l-1.1-0.4l-0.8-0.5l-1.3-1.6l-0.3-2.2l-0.3-1.1l0.1-1.1l-0.1-1.2l0.4-3.6l0.7-2.5
		l0.1-1.1l0.6-3.5l0.5-1.8l0.2-1.7l-0.4-0.9l-0.8-0.6l-1-0.2l-1.7,0.7l-1.9,0.9l-2.8,2.5l-0.9,1.1l-0.7,1.1l-2,5.8l-1,4.6l-0.2,2.3
		l0.2,1.1l-0.3,2.7l-0.7,1.4l-1,0.6l-1,0.3l-1.1,0l-1.1-0.3l-0.9-1.4l0-1.5l0.1-2.3l0.7-4.8l0.7-2.4l0.1-1.1l0.5-1.2l0.3-1.3
		l1.1-2.9l0.4-1.7l-0.6-1l-0.8-0.4l-1,0l-2.7,1.3l-1.6,1l-2,1.9l-1.6,2.1l-1.1,2.2l-0.8,1.2l-1,3.1l-0.7,3.1l-0.2,3.7l-0.4,1.7
		l-0.8,1.5l-1.2,0.5l-2.3,0.1l-1.1-0.3l-0.6-1.4l-0.1-1.6l0.6-2.3l1.1-8.3l0.4-1.1l1.2-7.1l0.4-1.3l0.7-3.4l0.6-1.7l1.2-1.4l1.2-0.4
		l1.3-0.1l1.3,0.3l0.4,1.3l0,1.8l-1,3.7l0.1,0.7l0.9-0.4l0.6-1l1.8-1.9l3.4-2l1.2-0.6l3.6-0.6l1.3,0.1l1.1,0.4l1,0.6l0.4,0.9
		l0.9,0.5l0.9-0.3l3.9-3.3l2.4-1.1l1.1-0.4l1.7-0.3l1.7,0l1.1,0.2l2,1l0.7,0.6l0.6,0.9l0.6,2l0.1,1.1l-0.4,2.9l-2.2,7.7l-0.1,1.2
		l-0.4,1.3l-0.2,3.6l0.4,0.9l1.3,0.5l1.7-0.2l1.4-1.1l1.3-1.3l3.8-5.2l0.5-1.2l1.1-1.5l1.2-1.1L221.8,29.1z M173.2,40.3l0.2,0.7
		l0.6,0l0-0.7l-0.6-0.2l-0.2-0.4l0.2-0.8l0.7-0.6l0.3-0.4l0.2-0.8L174,37l-0.2,0.8l0,0.3l-0.5,0.4l-0.7-0.1l-0.3-0.2l-0.4-0.1
		l-0.4-0.6l-0.6,0.5l0.4,0.5l0.3,0.3l0.2,0.4l0.2,0.3l0.3,0.3l0.3,0.2l0.4,0.1L173.2,40.3z M171.2,40.7l-0.6-0.3l-0.2,0.7l0.5,0
		L171.2,40.7z M172.6,28.1l-0.4-0.1l-0.2,0.5l0.4,0.1L172.6,28.1z M171.9,34.5l-0.5,0l-0.1,0.5l0.5,0L171.9,34.5z M170.7,43.6
		l-0.5,0.2l-0.1,0.4l0.5-0.2L170.7,43.6z M170.3,47l-0.2-0.1l-0.2,0.2l0.3,0.1L170.3,47z M171.9,31.4l0,0.4l0.4,0.2l0.1-0.5
		L171.9,31.4z M172.8,25.1l-0.1,0.2l0.4,0.1l0-0.3L172.8,25.1z M173.2,35.8l-0.7,0l-0.2,0.7l0.6,0L173.2,35.8z M173.6,32.6l-0.7,0.2
		l0.1,0.7l0.7-0.3L173.6,32.6z M171.9,42.7l0.6-0.1l0-0.5l-0.7,0L171.9,42.7z M175,23.5l-0.7-0.1l-0.2,0.8l0.7,0.1L175,23.5z
		 M174.3,26.5l-0.6,0l-0.1,0.6l0.6,0L174.3,26.5z M174,30.3l0.1-0.9l-0.7,0l-0.1,0.9L174,30.3z M171.8,45.4l0.3-0.1l0-0.2l-0.3,0
		L171.8,45.4z M184.2,31.2l-2.4,2.9l-2,3.4l-0.5,1.2l-0.7,1.8l-0.2,1.6l0,1.1l-1.1,6.1l-0.8,1.2l-1.2,1l-1.1,0.1l-1.2,0l-1-0.3
		l0-0.8l0.9-0.5l1-0.2l1-0.5l0.8-1.4l0.4-1.6l0.1-1.2l0.2-1.1l0.1-1l0.2-1.2l0.1-1.3l0.8-3.4l2.5-4.4l1.6-2l1.1-0.9l0.8-0.9l0.9-0.8
		l1-0.6l1.1-0.1l0.5,0.9l-0.8,1L184.2,31.2z M175.9,27.7l-0.7-0.2l-0.3,0.2l0,0.7l0.6,0.2l0.3-0.2L175.9,27.7z M176.1,24.8l-0.9,0.1
		l-0.1,0.8l0.7,0.1l0.4-0.3L176.1,24.8z M174.5,31l-0.1,0.7l0.2,0.3l0.7-0.2l0.2-0.2l-0.2-0.7L174.5,31z M174.7,34.2l-0.5,0.1
		l-0.1,0.4l0.6,0L174.7,34.2z M173.6,43.5l-0.5-0.3l-0.1,0.6l0.4,0.1L173.6,43.5z M176.2,22l-0.3-0.1l-0.1,0.3l0.4,0.1L176.2,22z
		 M177.5,23.3l-0.4,0.2l-0.1,0.2l0.4,0L177.5,23.3z M177.5,26.3l-0.7,0l-0.1,0.8l0.7,0L177.5,26.3z M176.1,32.7l0,0.4l0.4,0l0.1-0.4
		L176.1,32.7z M176.6,29.3l-0.1,0.9l0.7,0l0.1-0.9L176.6,29.3z M178.1,31.1l-0.5,0l-0.1,0.5l0.6,0L178.1,31.1z M178.8,27.9l-0.7-0.1
		l-0.2,0.7l0.7,0.1L178.8,27.9z M179.9,26.5l0.3,0.1l0.2-0.5l-0.4,0L179.9,26.5z M182.1,24.8l-0.4,0l-0.4,0.5l0.6,0.1L182.1,24.8z
		 M183.5,22.9l-0.1,0.5l0.4,0.1l0.1-0.5L183.5,22.9z M185.1,24.9l0.1-0.5l-0.5,0l-0.1,0.6L185.1,24.9z M186.8,22.9l-0.5-0.1
		l-0.2,0.7l0.6,0L186.8,22.9z M188.5,21.1l-0.4,0l-0.3,0.6l0.7,0L188.5,21.1z M187.6,24.2l0,0.6l0.5-0.1l0.1-0.5L187.6,24.2z
		 M189.8,22.5l-0.5,0.1l0,0.4l0.5-0.1L189.8,22.5z M186.8,44.1l0,0.6l0.7,0l-0.1-0.6L186.8,44.1z M188.3,32.2l0.1,0.4l0.4-0.2
		l0.1-0.4L188.3,32.2z M188.4,35.1l-0.5,0.1l0,0.4l0.4,0L188.4,35.1z M188.1,38.5l0-0.5l-0.5,0l-0.1,0.6L188.1,38.5z M189.3,25.4
		l-0.2,0.5l0.6,0l0.1-0.4L189.3,25.4z M187.4,41.7l0.3-0.3l-0.4,0l0,0.2L187.4,41.7z M189.9,37.3l0-0.7l-0.2-0.3l-0.6,0.2l0,0.7
		l0.2,0.3L189.9,37.3z M188.4,42.6l-0.2,0.7l0.6,0.2l0.2-0.8L188.4,42.6z M190.1,33.2l-0.5,0l0,0.6l0.5,0L190.1,33.2z M191.4,24.2
		l-0.6-0.1l-0.1,0.6l0.6,0L191.4,24.2z M188.9,39.6l0,0.7l0.6,0l0.1-0.6L188.9,39.6z M188.8,45.8l-0.4,0l-0.3,0.3l0.4,0.1
		L188.8,45.8z M191.1,27.2l-0.6,0l0,0.5l0.5,0L191.1,27.2z M190.5,30.4l-0.4,0l0,0.4l0.4,0L190.5,30.4z M200.3,28.1l-1.8,1.7
		l-1.3,2.3l-0.6,1.7l-0.4,1.7l-0.3,1.1l-0.1,1.2l-0.3,1.1l-0.9,8l-0.5,1.7l-0.6,1.2l-1,0.7l-1.1,0.3l-1.2,0l-1.1-0.3l-0.8-0.8
		l0.4-0.6l2.3-0.3l1-0.6l0.5-1.4l0.3-2.7l-0.1-1.2l0.4-1.2l0.4-3.3l0.4-1.2l0.3-1l0.1-1.2l1.7-4.7l0.6-1.1l1.8-2l1.9-1.7l1.5-0.8
		l1.2,0l-0.2,1.3l-1.2,1.2L200.3,28.1z M190.8,38l-0.4-0.1l-0.1,0.5l0.5-0.1L190.8,38z M192.7,25.5l-0.8,0l0.1,0.7l0.7,0L192.7,25.5
		z M192.4,28.5l-0.6-0.1l-0.3,0.8l0.8,0.1L192.4,28.5z M191.6,32.3l0-0.4l-0.2,0l-0.3,0.3L191.6,32.3z M189.9,44.2l-0.3,0.5l0.4,0
		l0.2-0.4L189.9,44.2z M192.9,22.5l-0.4,0l-0.1,0.4l0.4,0L192.9,22.5z M193.8,27l-0.5,0.1l-0.1,0.5l0.5,0L193.8,27z M193.8,24l0,0.5
		l0.5-0.2l0.1-0.4L193.8,24z M195.9,22.7l0.1-0.4l-0.4,0l0,0.4L195.9,22.7z M197.4,24l0-0.3l-0.3-0.1l-0.2,0.4L197.4,24z
		 M199.1,22.2l-0.5-0.1l0,0.5l0.4,0L199.1,22.2z M200.9,20.4l-0.7,0l-0.1,0.6l0.6,0L200.9,20.4z M202.2,19l-0.3,0.1l0,0.4l0.3,0
		L202.2,19z M203.9,20l-0.8,0.1l0.1,0.7l0.6-0.1L203.9,20z M205.1,22.1l0-0.4l-0.4,0l0,0.4L205.1,22.1z M205.6,18.7l-0.5,0l-0.1,0.5
		l0.5-0.1L205.6,18.7z M205.7,29.3l-0.5-0.1l-0.2,0.6l0.6,0L205.7,29.3z M205.4,32.5l-0.6,0.1l0,0.5l0.5-0.1L205.4,32.5z
		 M206.8,20.1l-0.4,0l0,0.3l0.4,0L206.8,20.1z M206.5,23.2l-0.4,0l0,0.4l0.4-0.2L206.5,23.2z M204.6,38.5l-0.5,0.1l-0.1,0.4l0.4,0
		L204.6,38.5z M205,35.8l0-0.3l-0.3,0.1l0,0.2L205,35.8z M206.9,31.5l0.2-0.6l-0.6-0.2l-0.1,0.7L206.9,31.5z M206.5,33.9L206,34
		l0.1,0.4l0.4,0L206.5,33.9z M208.2,21.6l-0.6,0.1l0,0.5l0.5-0.1L208.2,21.6z M207.6,24.7l-0.4,0.2l0.1,0.3l0.3,0L207.6,24.7z
		 M206.2,36.9l-0.5,0.1l0,0.4l0.4,0L206.2,36.9z M209.5,23.1l-0.4-0.1l-0.3,0.3l0.5,0.2L209.5,23.1z M209.2,26.2l-0.4,0l-0.1,0.4
		l0.4,0L209.2,26.2z M207.3,41.6l-0.4,0l-0.1,0.4l0.4,0L207.3,41.6z M222.3,39.2l-0.1,0.9l-0.8,1.5l-1.9,2.8l-1.4,1.6l-1.6,1.4
		l-0.9,0.5l-0.7,0.6L214,49l-1,0.4l-2.8,0.6l-1.3,0l-0.8-0.2l-0.6-0.3l-0.7-0.6l-0.1-0.7l1.4,0l1.9-0.2l3.2-1.3l2.6-1.8l2.6-3
		l3.2-4.6l0.2,0l0.2,1L222.3,39.2z M208.5,42.9l-0.3,0.1l0,0.3l0.3-0.1L208.5,42.9z M209.9,35.1l0.1-1.2l0.6-2.5l0.4-1.3l1.1-4.8
		l0.3-2.2l0-1.6l0.9,0.7l0.5,3.6l-0.1,1.3l-0.3,1.8l-2,8l-1,1.4l-1,0.5l-0.3-1.1L209.9,35.1z M210,44.5l-0.5,0l0.1,0.5l0.4,0
		L210,44.5z M211.8,43l0-0.4l-0.4,0.1l0,0.4L211.8,43z M213,41.5l-0.1-0.2l-0.2,0.1l0,0.3L213,41.5z M218.3,36.4l-0.1,0l0,0.3
		l0.2-0.2L218.3,36.4z"/>
	<path fill="#26201A" d="M251.4,27.5l1-0.1l0.9,0.3l0.7,0.6l-0.1,1.6l-0.8,1.8l-2.5,4.3l-0.8,0.7l-0.7,0.9l-3.7,3.5l-2.2,1.2
		l-2.8,0.4l-1.4-0.1l-1.3,0.1l-1.3-0.1l-3.5,2.1l-1.2,0.5l-1.6,0.3l-5,0.5l-3.4-0.7l-0.7-0.8l-1-0.4l-1.2-1.8l-0.6-2l-0.2-2.4
		l0.1-1.9l0.6-2.8l0-1l0.2-1.1l1.5-4.7l0.2-1.3l2.2-5.4l0.3-1l1-1.8l1.2-1.2l1.2-0.5l1.1,0l0.9,0.2l0.7,0.8l-0.1,1.6l-0.5,1.7
		l-0.6,1l-1.6,4.5l-0.5,1l-0.4,1.3l0.2,0.7l0.9-0.3l1-0.9l1.2-0.5l1.2-0.6l1-0.3l4.6-0.2l3.6,1.8l0.7,0.8l0.4,0.9l0.8,2.8l-0.2,2.4
		l-0.3,1.2l-0.4,1l0,1.1l1.1,0.5l1.5-0.5l1.9-1.4l0.7-0.7l0.8-1.2l0.8-0.9l2.6-4.4l0.9-1L251.4,27.5z M219.8,34.3l0-0.2l-0.4,0
		l0.1,0.3L219.8,34.3z M219.5,36.8l-0.2-0.1l-0.2,0.3l0.4,0.1L219.5,36.8z M222,29.2l-0.5,0l0,0.4l0.3,0.1L222,29.2z M221.1,31.9
		l-0.1,1l0.7,0l0.1-1L221.1,31.9z M222.3,26.3l-0.3-0.1l-0.2,0.2l0.2,0L222.3,26.3z M221.4,35.2l-0.5,0l-0.2,0.7l0.6,0L221.4,35.2z
		 M221,38.7l0.1-0.7l-0.6,0l-0.1,0.6L221,38.7z M222.5,36.7l-0.5,0l-0.3,0.6l0.7,0L222.5,36.7z M223.2,30.6l-0.7,0.1l-0.1,0.6
		l0.7-0.1L223.2,30.6z M222.1,40.2l0.1-0.5l-0.6,0l-0.1,0.7L222.1,40.2z M222.8,34.1l0.2-0.6l-0.6,0.1l-0.1,0.6L222.8,34.1z
		 M223.9,21.8l0,0.2l0.3,0.1l0.1-0.4L223.9,21.8z M223.8,27.6l-0.5,0l-0.1,0.5l0.6,0L223.8,27.6z M221.4,42.8l0,0.5l0.4-0.1l0.1-0.4
		L221.4,42.8z M223.8,25.2l0.1-0.3l-0.3-0.1l0,0.4L223.8,25.2z M225.1,26.1l-0.4,0l0,0.4l0.3,0L225.1,26.1z M225.6,23.1l-0.4,0
		l0,0.4l0.4-0.1L225.6,23.1z M224.5,32.5l0.2-0.8l-0.7,0l-0.1,0.7L224.5,32.5z M223.6,41.6l0.1-0.7l-0.7,0.1l-0.1,0.6L223.6,41.6z
		 M225.9,20l-0.4,0l0,0.3l0.3,0.1L225.9,20z M224.5,29.2l0.1,0.4l0.4,0l0-0.4L224.5,29.2z M230.2,40.5l2-0.8l0.7-1.5l0.6-1.7
		l1.5-2.6l0.4-1.3l-0.3-0.9l-0.6-0.9l-0.8-0.8l-0.8-0.2l-3.1,0.2l-1.1,0.4l-1.2,0.8l-1,0.4l-0.8,0.8l-1.5,2.4l-0.4,1.7l-0.1,1.2
		l0.3,0.7l0.6,1l1.4,1.3l1,0.4l1-0.1l1.2-0.3L230.2,40.5z M253.2,37.5l-0.1,0.9l-0.8,1.7l-1,1.6l-1.4,1.5l-2.6,1.9l-1,0.3l-0.9,0.3
		l-3,0.6l-4.9,0.2l-0.9,0.3l-3.2,1.7l-2,0.6l-1.3,0.2l-1.4,0l-1-0.1l-2.6-0.8l-1.6-0.9l-0.1-0.4l0.5,0l0.9,0.2l0.9,0.1l1.6,0l1,0.1
		l1.4-0.1l0.9-0.3l1-0.2l4.1-2.1l0.9-0.3l1.2-0.1l1.9,0.1l1-0.1l3.1-0.5l1-0.4l2.8-1.6l2.3-2.2l2.7-4.1l0.2,0l0.2,1L253.2,37.5z
		 M226.1,30.9l0.2-0.5l-0.5-0.1l-0.2,0.5L226.1,30.9z M224.2,42.8l-0.1,0.4l0.4,0l0.1-0.5L224.2,42.8z M226.3,34.9l0.5-0.9l1.4-1.3
		l1.6-0.8l1.1-0.3l1.3,0.4l0.6,0.9l-0.8,0.6l-1.2,0.5l-2.1,1.3l-1.8,2.5l-0.5,0.1l-0.7-0.7l-0.2-1.1L226.3,34.9z M225.6,44.1l0,0.3
		l0.2-0.1l0-0.3L225.6,44.1z M229.4,21.8l0.9-2.6l0.6-1.1l0.9-0.8l1,0.5l-0.2,1.9l-1.4,3.6l-1.2,0.8l-0.7,0l0-0.9L229.4,21.8z
		 M227.8,42.7l-0.3-0.2l-0.2,0.3l0.2,0.2L227.8,42.7z M228.7,43.9l0,0.5l0.5-0.1l0-0.4L228.7,43.9z M230.1,42.4l0,0.2l0.3,0.1
		l0.1-0.4L230.1,42.4z M232.3,40.8l-0.2,0l0,0.2l0.2,0L232.3,40.8z M232,44l0.1-0.4l-0.4-0.1l0,0.3L232,44z M233.9,42l-0.6,0
		l-0.1,0.6l0.6-0.1L233.9,42z M233.7,39.1l-0.1,0.4l0.4,0l0.1-0.4L233.7,39.1z M236.7,28.3l-0.6,0l-0.1,0.6l0.7,0L236.7,28.3z
		 M235.4,40.3l-0.7,0l0,0.7l0.7,0L235.4,40.3z M235.7,37.9l0.1-0.6l-0.7,0l-0.1,0.5L235.7,37.9z M236.3,34.9l0.1-0.6l-0.5,0
		l-0.2,0.7L236.3,34.9z M236.8,31.5l-0.5-0.1l-0.1,0.7l0.5,0.2l0.2,0.4l0.1,0.4l0.2,0.3l0.7-0.1l-0.1-0.7l-0.8-0.2L236.8,31.5z
		 M236.5,38.8l-0.1,0.6l0.6,0l0.1-0.5L236.5,38.8z M238.2,29.9l-0.3-0.1l-0.2,0.5l0.4,0L238.2,29.9z M237.5,35.9l-0.5,0l0,0.6l0.6,0
		L237.5,35.9z M236.5,41.9l-0.2,0l0,0.4l0.3,0L236.5,41.9z M239.3,31.2l-0.5,0l-0.2,0.6l0.6,0.1L239.3,31.2z M238.9,37.1l-0.7,0
		l-0.2,0.7l0.7,0L238.9,37.1z M238.5,34.8l0.6,0.2l0.2-0.7l-0.6,0L238.5,34.8z M238.3,40.2l-0.5,0.2l0,0.4l0.5-0.2L238.3,40.2z
		 M240.2,38.6l-0.5,0l-0.3,0.5l0.5,0.1L240.2,38.6z M239.5,41.6l-0.2-0.1l-0.1,0.2l0.3,0.1L239.5,41.6z M241.5,39.9l-0.5,0.2l0,0.5
		l0.5-0.2L241.5,39.9z M242.8,32.9l0-1l-0.1-1.4l0-1.8l0.5,0l1.1,0.9l0.5,0.8l0.4,1.6l-0.1,1l-0.7,1.5l-1.4,0.7l-0.4-0.9L242.8,32.9
		z M243.2,38.6l-0.6,0l-0.1,0.5l0.6-0.1L243.2,38.6z"/>
	<path fill="#26201A" d="M281.1,25.8l0.8,0.4l0.6,0.8l-0.1,1.3l-1.2,2.4l-0.5,0.8l-0.4,0.9l-1.8,2.6l-0.8,0.9l-0.5,0.8l-1.4,1.6
		l-0.9,0.7l-1.1,1l-1.2,1l-0.9,0.5l-1.7,1.1l-2.9,1l-2,0.4l-0.8,0.3l-2.4,0.4l-5.1-0.5l-0.9-0.2l-0.9-0.4l-0.6-0.6l-1-0.5l-1.8-1.9
		l-0.3-0.8l-0.5-0.7l-0.4-0.9l-0.1-0.9l-0.3-0.9l-0.2-0.8l0.2-4.4l0.5-2.3l0.1-1l0.8-2.8l2.1-3.7l0.5-0.8l0.7-0.8l0.5-0.8l0.7-0.8
		l2.2-2l3.7-1.9l1.8-0.6l1.1-0.2l3.7,0l0.9,0.2l0.8,0.2l2.2,1.3l0.5,0.7l0.6,0.6l0.3,0.8l0.2,1l0.3,0.9l0,1l-0.9,3.2l-0.9,1.2
		l-1.8,0.7l-0.9,0l-0.8-0.2l-0.7-0.5l-0.1-1.3l0.1-1.4l-0.1-1l-0.3-0.8l-0.7-0.5l-1.4-0.3l-1.4,0.1l-0.7,0.1l-1,0.4l-0.7,0.6l-1,0.6
		l-0.6,0.8l-0.7,0.7L258,24l-0.4,1l-0.3,0.8l-0.4,1l-0.6,2l-0.3,3.9l0.2,1.8l0.3,0.9l0.9,1.5l0.7,0.7l1.4,0.9l0.8,0.3l0.9,0.2l1.4,0
		l2.5-0.3l0.8-0.3l1.1-0.2l1.9-0.8l2.5-1.5l3.8-3.4l0.5-0.8l0.8-0.9l0.7-1.3l1-1.2l0.8-1.4l1.2-0.9L281.1,25.8z M251.8,26.9
		l-0.2,0.5l0.6,0l0.2-0.7L251.8,26.9z M251.5,32.8l-0.6,0.2l0,0.6l0.6,0L251.5,32.8z M252,29.6l-0.6,0.2l0,0.6l0.5-0.2L252,29.6z
		 M251.4,35.5l-0.7,0l-0.2,0.7l0.6,0L251.4,35.5z M252.6,31.2l-0.2,0.5l0.4,0.6l0.2,0.1l0.3,0.2l0.2,0.3l0.4,0.6l0.2,0.1l0.6-0.6
		l-0.5-0.6l-0.3-0.2l-0.2-0.4l-0.5-0.6L252.6,31.2z M253.7,28.3l-0.7,0l-0.2,0.7l0.6,0L253.7,28.3z M253.9,25.3l-0.5,0l-0.1,0.6
		l0.5-0.1L253.9,25.3z M253,34.2l-0.6,0l-0.1,0.6l0.6,0L253,34.2z M254.2,22.3l-0.2,0l0,0.2l0.3,0L254.2,22.3z M252.5,37.9l0-0.4
		l-0.4-0.1l-0.1,0.4L252.5,37.9z M254.2,35.8l-0.7,0l-0.2,0.7l0.7,0L254.2,35.8z M255.1,24.2l0.5-0.1l0.1-0.6l-0.6,0.1L255.1,24.2z
		 M254.7,29.7l-0.3,0l-0.1,0.4l0.3,0.1L254.7,29.7z M256.1,20.6l-0.5-0.1l-0.1,0.5l0.4,0L256.1,20.6z M255.2,27l0.1-0.4l-0.4,0
		l-0.1,0.5L255.2,27z M253.4,38.8l0,0.5l0.5-0.1l0-0.5L253.4,38.8z M281.7,36.9l-1.7,2.9l-2.4,2.7l-1.3,1l-0.9,0.6l-1.6,1.2
		l-2.8,1.2l-4,0.9l-3.7,0.4l-1.1,0l-0.9-0.1l-0.9,0l-2.9-0.5l-2.5-0.9l-0.9-0.7l-0.2-0.8l0.7,0.2l0.8,0.3l1.8,0.5l1.7,0.2l4.5,0
		l2.3-0.3l1-0.4l0.9-0.1l2.9-0.9l1.7-0.8l0.9-0.6l1.2-0.9l1.3-0.8l1.3-1.4l0.9-0.8l2.3-3.2l0.7-1.4l0.3-0.3l0.2,0l0.5,1.8
		L281.7,36.9z M255.4,37.9l0.1-0.6l-0.6,0l-0.2,0.6L255.4,37.9z M257.6,19.3l0.2-0.5l-0.5,0l-0.1,0.5L257.6,19.3z M257.2,21.9
		l-0.4,0l-0.1,0.4l0.4-0.1L257.2,21.9z M254.7,40.1l-0.1,0.6l0.6,0l0.1-0.6L254.7,40.1z M258.8,20.6l0.1-0.3l-0.4,0l-0.1,0.3
		L258.8,20.6z M256.9,38.5l-0.6,0.1l-0.1,0.4l0.6,0L256.9,38.5z M259.5,17.3l-0.5,0l-0.1,0.5l0.5,0L259.5,17.3z M256.5,41.7l-0.4,0
		l0,0.4l0.4,0.1L256.5,41.7z M263.4,23.9l-0.7,0.8l-1.8,2.5l-1.7,4.8l-0.3,1.6l-0.4,1.1l-0.4-0.3l-0.4-1.1l-0.3-1.7l0.3-1.3l0.1-1
		l0.7-1.8l0.6-1l0.3-0.8l0.5-0.9l0.7-0.9l0.7-0.7l0.6-0.8l0.9-0.6l0.9-0.5l0.8-0.3l1.1,0.2l0,1l-0.7,0.9L263.4,23.9z M260.1,19.1
		l0.5,0l0.1-0.5l-0.4,0L260.1,19.1z M258,40.2l-0.4,0l0,0.4l0.5-0.1L258,40.2z M261,16.1l0.2-0.5l-0.5,0l0,0.4L261,16.1z
		 M259.4,41.6l-0.5,0.1l0,0.4l0.4-0.1L259.4,41.6z M262.1,17.4l0,0.3l0.3-0.1l0-0.3L262.1,17.4z M263.8,15.5l-0.1,0.4l0.4,0l0-0.4
		L263.8,15.5z M260.9,40.1l-0.1,0.4l0.4,0.1l0.1-0.4L260.9,40.1z M260.8,43l-0.4,0l0,0.3l0.2,0L260.8,43z M262.7,41.5l-0.3-0.3
		l-0.3,0.4l0.4,0.2L262.7,41.5z M267.2,15l-0.6,0l-0.1,0.5l0.5,0.2L267.2,15z M267.6,17.9l0.3-0.2l0.7-0.6l-0.1-0.7l-0.7,0.5
		l-0.5,0.8l-0.2,0.5L267.6,17.9z M265.6,41.4l-0.7,0l-0.1,0.6l0.7,0L265.6,41.4z M269.3,18.2l0,0.5l0.5-0.1l0-0.5L269.3,18.2z
		 M267.3,39.7l-0.3-0.1l-0.1,0.3l0.3,0.1L267.3,39.7z M271.4,16.8l-0.4,0l-0.1,0.5l0.5,0L271.4,16.8z M271.2,19.6l-0.4,0l0,0.4
		l0.4,0L271.2,19.6z M268.5,41.3l-0.3,0.1l0,0.3l0.3-0.1L268.5,41.3z M275.2,21.1l-0.1-1l0.1-0.9l-0.3-0.9l0.1-0.7l0.3,0.3l0.9,1.5
		l0.3,1l0.1,2.8l-0.2,1l-0.6,1.5l-1,1.3l-1,0.5l-0.9,0.2l-1.2,0.1l-0.7-0.3l0-0.8l0.7-0.6l1.1-0.5l0.9-0.7l0.5-0.9L275.2,21.1z
		 M272.7,18.1l-0.1-0.1l-0.1,0.2l0.1,0.1L272.7,18.1z M270,39.4l0,0.5l0.5-0.2l0-0.4L270,39.4z M272,38.4l0.1-0.4l-0.4-0.1l-0.1,0.4
		L272,38.4z M275.3,34.8l-0.4-0.1l0,0.4l0.4,0L275.3,34.8z"/>
	<path fill="#26201A" d="M281.3,42.9l-0.9-0.3l-0.9-0.7l-1.2-1.3l-0.8-2.1l0-1l0-1.2l-0.1-1.1l0.3-3.6l1.1-4l1-1.6l1-0.1l1.2,0.3
		l0.6,0.7l-0.2,3.1l-0.4,1.2l-0.2,2l0.1,1l0,1.3l0.4,0.7l0.4,1.1l1.3,0.1l1.3-0.2l1.1-0.8l0.8-0.9l0.7-0.9l1.2-1.9l0.7-0.9l0.3-1.3
		l-0.8-0.9l-2.3-1.6l-1.1-1.8l-0.4-0.8l-0.4-3.4l0.2-1.3l0.4-1.8l0.4-1l0.6-1l0.9-0.9l0.6-0.8l0.9-0.9L291,13l1.1-0.4l1.2-0.7
		l3.2-0.3l1.9,0.4l1.2,0.1l0.9,0.4l1.1,0l2.7-1.6l1.9,0.4l0.8,0.4l0.2,1.5l-0.3,1.6l-0.3,1.3l-0.7,2l-0.2,1.3l-0.4,1.1l-1.6,6.8
		l-0.4,0.9l-0.5,3.6l-0.3,1l0.3,2.2l1,0.5l1.7,0l0.9-0.6l0.9-0.6l1.5-1.8l0.8-1.1l0.8-0.9l3.8-6l1.3-1l0.9,0.1l0.9,0.6l0.5,0.5
		l0,1.6l-1.8,3.6l-0.6,1l-0.9,1l-0.6,1.1l-0.7,0.9l-0.5,0.9l-3.4,3.8l-2,1.1l-1,0.8l-0.9,0.6l-1.4,0.4l-1.4-0.1l-1.6,0.2l-2-0.6
		l-0.8-0.8l-0.5-0.7l-0.9-4.2l0.2-1l0.1-2.1l0.1-1l-0.3-0.9l-1.2,0.1l-1,1.3l-0.6,1l-0.5,1.3l-2,3l-3.3,3.9l-1,0.9l-0.9,0.4l-2.7,1
		l-1.8,0.2L281.3,42.9z M280.1,36.3l-0.4,0l-0.1,0.4l0.4,0.1L280.1,36.3z M280.4,33.3l-0.2-0.1l0,0.2l0.1,0.1L280.4,33.3z
		 M281.4,37.5l-0.7,0l-0.2,0.7l0.7,0L281.4,37.5z M282.5,39.7l0.2-0.5l-0.5-0.2l-0.2,0.6L282.5,39.7z M283.3,32l0.4-2.2l0.6-1.1
		l1,0.5l-0.1,4.4l-0.6,1.5l-0.9,0.3l-0.5-0.9L283.3,32z M294.1,41.3l-2.3,2.5l-2.3,1.9l-4.5,0.9l-1.2-0.1l-1-0.6l-1-0.5l-0.1-0.7
		l0.7,0l0.9,0.3l1.6-0.3l2.8-0.8l0.7-0.7l1.1-0.7l0.7-0.9l0.9-0.8l1.5-1.9l0.5-0.8l0.9-1.1l0.5-0.9l0.7-0.6l0.3,0.8l0,1l-0.3,1.5
		l-0.6,1.6L294.1,41.3z M284.2,40.4l-0.5,0l-0.3,0.6l0.7,0L284.2,40.4z M287.1,20.9l-0.1,0.7l1-0.1l-0.1-0.7L287.1,20.9z M285,39.1
		l0.1,0.6l0.5-0.1l0-0.5L285,39.1z M287.8,23.6l-0.7,0.2l-0.3,0.3l0.1,0.6l0.7,0l0.1-0.4l0.1-0.6l0.4-0.3l0.5-0.1l0.4-0.4l0-0.6
		l-0.7,0l-0.3,0.3l-0.1,0.5L287.8,23.6z M287.9,18.3l-0.3,0.1l0,0.3l0.3-0.1L287.9,18.3z M288.7,19.4l-0.1,0.7l0.7,0l0.2-0.6
		L288.7,19.4z M288.9,25.2l-0.8,0l0,0.7l0.7,0L288.9,25.2z M287.9,38.9l-0.3,0.3l-0.3,0.2l-0.4,0.3l-0.3,0.3l-0.2,0.5l0.3,0.2
		l0.6-0.5l0.3-0.3l0.3-0.2l0.4-0.3l0.4-0.5l-0.1-0.1L287.9,38.9z M287.4,37.4l-0.5,0l-0.1,0.5l0.6,0L287.4,37.4z M289.5,16.8
		l-0.1,0.3l0.4,0.1l0.1-0.5L289.5,16.8z M289.8,23.8l-0.1,0.7l0.7,0l0.1-0.8L289.8,23.8z M290,26.8l-0.5,0.1l-0.1,0.4l0.7,0
		L290,26.8z M290.6,34l-0.2,0.2l-0.4,0.2l-0.7,0.6l-0.9,0.9l0.4,0.6l0.6-0.6l0.3-0.3l0.3-0.3l0.3-0.3l0.2-0.3l0.3-0.4l0.7-0.6
		l0.5-0.2l0.3-0.4l0-0.6l-0.6,0.1l-0.3,0.3l-0.2,0.5L290.6,34z M291.5,15.4l-0.5,0l0.1,0.3l0.4,0.1L291.5,15.4z M291.1,18.1l-0.4,0
		l0,0.3l0.3,0L291.1,18.1z M297.3,25.1l1.1-0.8l0.8-1.3l0.6-2.3l0.6-1.1l-0.3-1.3l-0.7-1.1l-0.9-0.3l-1.1-0.1l-0.9-0.2l-2.1,0.4
		l-1.2,0.7l-0.7,0.6l-0.8,0.9l-0.8,1.5l-0.1,1.8l0.2,0.8l0.5,0.9l0.7,1l0.8,0.4l3.2,0L297.3,25.1z M289.6,37.6l0.4,0.2l0.2-0.5
		l-0.6-0.2L289.6,37.6z M292.5,16.9l0.1-0.3l-0.2,0l-0.2,0.2L292.5,16.9z M292.8,26.6l-0.6,0.5l-0.3,0.3l-0.3,0.4l-0.3,0.3l-0.5,0.8
		l0.7-0.1l0.3-0.4l0.3-0.3l0.4-0.3l0.5-0.8L292.8,26.6z M292.2,29.6l-0.4,0.4l-0.3,0.3l-0.3,0.3l-0.3,0.4l-0.2,0.2l-0.1,0.5l0.5-0.2
		l0.3-0.3l0.7-0.7l0.5-0.5l-0.1-0.5L292.2,29.6z M293.2,20.2l0.5-0.6l1-0.9l0.9-0.5l1-0.1l1.1-0.1l1,0.5l-0.3,1l-2.3,0.8l-1,0.6
		l-0.5,1.1l-0.4,1.1l-0.1,0.8l-1.3-1l-0.1-1.2L293.2,20.2z M294.4,15l-0.4-0.1l-0.1,0.5l0.4,0L294.4,15z M294.4,27.8l-0.7,0
		l-0.2,0.7l0.1,0.2l0.7-0.1L294.4,27.8z M293.9,30.8l-0.5,0l-0.1,0.7l0.6-0.2L293.9,30.8z M295.5,29.4l-0.7,0.1l0.1,0.7l0.7-0.2
		L295.5,29.4z M297,14.5l-0.3,0.4l0.2,0.4l0.7,0.4l0.3,0.2l0.5,0.1l-0.1-0.4l-0.3-0.3l-0.1-0.2l-0.3-0.4L297,14.5z M297.1,28.6
		l0.3-0.4l-0.4-0.6l-0.3-0.3l-0.4-0.6l-0.6-0.3l-0.2,0.7l0.2,0.4l0.3,0.3l0.2,0.3l0.3,0.3L297.1,28.6z M299.4,28.7l0.4,0l0.4,0.1
		l0.5,0.3l0,0.3l0.4,0.6l0.2,0l0.5-0.6l-0.4-0.6l-0.5-0.1l-0.2-0.4l0.4-0.8l0.4-0.3l0.6-0.5l-0.3-0.6l-0.8,0.4l-0.6,0.5l-0.5,0.3
		l-0.3,0.3l-0.3,0.4l-0.2,0.5l-0.3,0.5l-0.9,0.4l0,0.5l0.8,0.2l0.3-0.8L299.4,28.7z M300.4,15l0-0.6l-0.7,0l-0.1,0.7L300.4,15z
		 M299,26.9l0-0.6l-0.7,0l0,0.7L299,26.9z M299.7,24.5l0,0.8l0.3,0.2l0.8-0.1l0.2-0.7l-0.3-0.2l-0.3-0.1L299.7,24.5z M301.8,15.8
		l-0.7,0l-0.2,0.8l0.7,0L301.8,15.8z M299.3,30.6l-0.1,0.5l0.6,0l0-0.5L299.3,30.6z M299.5,33.7l-0.6,0.1l0,0.4l0.5,0L299.5,33.7z
		 M301.8,21.1l0.4-0.1l0.6-0.4l-0.1-0.6l-0.6,0l-0.5,0.5l-0.1,0.5l-0.4,0.5l-0.4,0.2l-0.1,0.6l0.5-0.2l0.3-0.5L301.8,21.1z
		 M301.1,19l0,0.4l0.3-0.2l-0.1-0.3L301.1,19z M303.3,14.1l-0.6,0.1l-0.2,0.7l0.7-0.1L303.3,14.1z M300.8,35l-0.7,0l0,0.7l0.7-0.1
		L300.8,35z M302.2,23.8l0-0.6l-0.6,0l-0.1,0.7L302.2,23.8z M302.4,17.9l0.6,0l0.1-0.7l-0.7-0.1L302.4,17.9z M301,32.8l0.1-0.4
		l-0.5,0l-0.1,0.5L301,32.8z M300.4,38.6l0.1-0.5l-0.4-0.1l-0.2,0.5L300.4,38.6z M304.4,18.5l-0.9-0.2l-0.2,1l0.8,0L304.4,18.5z
		 M303.5,24.5l-0.4,0l-0.3,0.7l0.5,0L303.5,24.5z M302.1,30.9l0.4,0.1l0.1-0.4l-0.4,0L302.1,30.9z M302.3,33.7l-0.4,0l-0.1,0.5
		l0.4,0L302.3,33.7z M304.1,15.7l0,0.7l0.6-0.1l0-0.6L304.1,15.7z M304,21.4l-0.6,0.1l-0.1,0.7l0.6-0.1L304,21.4z M301.7,40l0.1-0.5
		l-0.4,0l-0.1,0.5L301.7,40z M302.9,37.6l-0.2,0.2l0,0.7l0.7,0l0.2-0.9L302.9,37.6z M305.8,17.5l-0.2-0.5l-0.4,0.2l0,0.4L305.8,17.5
		z M317.4,33.8l-0.1,0.9l-0.8,1.5l-1.9,2.8l-1.4,1.6l-1.6,1.4l-0.9,0.5l-0.7,0.6l-0.9,0.6l-1,0.5l-1.5,0.5l-1.3,0.2l-1,0l-0.8-0.2
		l-0.6-0.3l-0.7-0.6l-0.1-0.7l1.4,0l1.6-0.2l1.3-0.4l1.9-1l2.6-1.8l2.6-3l3.2-4.6l0.2,0l0.2,1L317.4,33.8z M306.1,14.2l-0.3-0.1
		l0,0.3l0.3-0.1L306.1,14.2z M309.7,14.8l0.7,0.3l0.1,1.5l-0.3,1.6l-0.5,0.9l-0.5,2.3l-0.5,0.9l-0.2,1.3l-1.3,4.4l-0.1,1.1l-0.6,2
		l-0.2,1.6l-0.4,0.6l-0.8,0.2l-0.5-0.6l-0.2-0.5l-0.1-0.7l0.1-0.6l1.7-7.3l0.5-1.2l0.9-4l0.5-1.1l0.6-2.2l0.4-0.8L309.7,14.8z
		 M304.9,36.5l-0.4,0l-0.1,0.5l0.5-0.1L304.9,36.5z M304.6,39.4l-0.5-0.1l0,0.6l0.5,0L304.6,39.4z M306.5,37.6l-0.7,0l-0.1,0.7
		l0.7,0L306.5,37.6z M308.1,36.1l-0.6,0.1l0,0.5l0.6-0.1L308.1,36.1z M309.7,34.6l-0.4,0l-0.2,0.5l0.5,0L309.7,34.6z M311.2,33.4
		l0-0.4l-0.4-0.1l-0.1,0.6L311.2,33.4z M312.9,31.6l-0.4,0l-0.1,0.4l0.3,0.1L312.9,31.6z"/>
	<path fill="#26201A" d="M358.5,21.5l0.8,0.4l0.6,0.8l-0.1,1.3l-1.2,2.4l-0.5,0.8l-0.4,0.9l-1.8,2.6l-0.8,0.9l-0.5,0.8l-1.4,1.6
		l-0.9,0.7l-1.1,1l-1.2,1l-0.9,0.5l-1.7,1.1l-2.9,1l-2,0.4l-0.8,0.3l-2.4,0.4l-5.1-0.5l-0.9-0.2l-0.9-0.4l-0.6-0.6l-1-0.5l-1.8-1.9
		l-0.3-0.8l-0.5-0.7l-0.4-0.9l-0.1-0.9l-0.3-0.9l-0.2-0.8l0.2-4.4l0.5-2.3l0.1-1l0.8-2.8l2.1-3.7l0.5-0.8l0.7-0.8l0.5-0.8l0.7-0.8
		l2.2-2l3.7-1.9l1.8-0.6l1.1-0.2l3.7,0l0.9,0.2l0.8,0.2l2.2,1.3l0.5,0.7l0.6,0.6l0.3,0.8l0.2,1l0.3,0.9l0,1l-0.9,3.2l-0.9,1.2
		l-1.8,0.7l-0.9,0l-0.8-0.2l-0.7-0.5l-0.1-1.3l0.1-1.4l-0.1-1l-0.3-0.8l-0.7-0.5l-1.4-0.3l-1.4,0.1l-0.7,0.1l-1,0.4l-0.7,0.6l-1,0.6
		l-0.6,0.8l-0.7,0.7l-1.2,1.7l-0.4,1l-0.3,0.8l-0.4,1l-0.6,2l-0.3,3.9l0.2,1.8l0.3,0.9l0.9,1.5l0.7,0.7l1.4,0.9l0.8,0.3l0.9,0.2
		l1.4,0l2.5-0.3l0.8-0.3l1.1-0.2l1.9-0.8l2.5-1.5l3.8-3.4l0.5-0.8l0.8-0.9l0.7-1.3l1-1.2l0.8-1.4l1.2-0.9L358.5,21.5z M329.2,22.6
		l-0.2,0.5l0.6,0l0.2-0.7L329.2,22.6z M328.9,28.5l-0.6,0.2l0,0.6l0.6,0L328.9,28.5z M329.4,25.3l-0.6,0.2l0,0.6l0.5-0.2L329.4,25.3
		z M328.8,31.2l-0.7,0L328,32l0.6,0L328.8,31.2z M330,26.9l-0.2,0.5l0.4,0.6l0.2,0.1l0.3,0.2l0.2,0.3l0.4,0.6l0.2,0.1l0.6-0.6
		l-0.5-0.6l-0.3-0.2l-0.2-0.4l-0.5-0.6L330,26.9z M331.1,24l-0.7,0l-0.2,0.7l0.6,0L331.1,24z M331.3,21l-0.5,0l-0.1,0.6l0.5-0.1
		L331.3,21z M330.4,29.9l-0.6,0l-0.1,0.6l0.6,0L330.4,29.9z M331.7,18l-0.2,0l0,0.2l0.3,0L331.7,18z M329.9,33.6l0-0.4l-0.4-0.1
		l-0.1,0.4L329.9,33.6z M331.6,31.5l-0.7,0l-0.2,0.7l0.7,0L331.6,31.5z M332.5,19.9l0.5-0.1l0.1-0.6l-0.6,0.1L332.5,19.9z
		 M332.2,25.4l-0.3,0l-0.1,0.4l0.3,0.1L332.2,25.4z M333.6,16.3l-0.5-0.1l-0.1,0.5l0.4,0L333.6,16.3z M332.6,22.7l0.1-0.4l-0.4,0
		l-0.1,0.5L332.6,22.7z M330.9,34.5l0,0.5l0.5-0.1l0-0.5L330.9,34.5z M359.2,32.6l-1.7,2.9l-2.4,2.7l-1.3,1l-0.9,0.6l-1.6,1.2
		l-2.8,1.2l-4,0.9l-3.7,0.4l-1.1,0l-0.9-0.1l-0.9,0l-2.9-0.5l-2.5-0.9l-0.9-0.7l-0.2-0.8l0.7,0.2l0.8,0.3l1.8,0.5l1.7,0.2l4.5,0
		l2.3-0.3l1-0.4l0.9-0.1l2.9-0.9l1.7-0.8l0.9-0.6l1.2-0.9l1.3-0.8l1.3-1.4l0.9-0.8l2.3-3.2l0.7-1.4l0.3-0.3l0.2,0l0.5,1.8
		L359.2,32.6z M332.9,33.6L333,33l-0.6,0l-0.2,0.6L332.9,33.6z M335,15l0.2-0.5l-0.5,0l-0.1,0.5L335,15z M334.6,17.6l-0.4,0
		l-0.1,0.4l0.4-0.1L334.6,17.6z M332.2,35.8l-0.1,0.6l0.6,0l0.1-0.6L332.2,35.8z M336.3,16.3l0.1-0.3l-0.4,0l-0.1,0.3L336.3,16.3z
		 M334.3,34.2l-0.6,0.1l-0.1,0.4l0.6,0L334.3,34.2z M336.9,13l-0.5,0l-0.1,0.5l0.5,0L336.9,13z M334,37.4l-0.4,0l0,0.4l0.4,0.1
		L334,37.4z M340.8,19.6l-0.7,0.8l-1.8,2.5l-1.7,4.8l-0.3,1.6l-0.4,1.1l-0.4-0.3l-0.4-1.1l-0.3-1.7l0.3-1.3l0.1-1l0.7-1.8l0.6-1
		l0.3-0.8l0.5-0.9l0.7-0.9l0.7-0.7l0.6-0.8l0.9-0.6l0.9-0.5l0.8-0.3l1.1,0.2l0,1l-0.7,0.9L340.8,19.6z M337.5,14.8l0.5,0l0.1-0.5
		l-0.4,0L337.5,14.8z M335.4,35.9l-0.4,0l0,0.4l0.5-0.1L335.4,35.9z M338.4,11.8l0.2-0.5l-0.5,0l0,0.4L338.4,11.8z M336.8,37.3
		l-0.5,0.1l0,0.4l0.4-0.1L336.8,37.3z M339.6,13.1l0,0.3l0.3-0.1l0-0.3L339.6,13.1z M341.2,11.2l-0.1,0.4l0.4,0l0-0.4L341.2,11.2z
		 M338.3,35.8l-0.1,0.4l0.4,0.1l0.1-0.4L338.3,35.8z M338.2,38.7l-0.4,0l0,0.3l0.2,0L338.2,38.7z M340.1,37.2l-0.3-0.3l-0.3,0.4
		l0.4,0.2L340.1,37.2z M344.7,10.7l-0.6,0l-0.1,0.5l0.5,0.2L344.7,10.7z M345.1,13.6l0.3-0.2l0.7-0.6L346,12l-0.7,0.5l-0.5,0.8
		l-0.2,0.5L345.1,13.6z M343.1,37.1l-0.7,0l-0.1,0.6l0.7,0L343.1,37.1z M346.8,13.9l0,0.5l0.5-0.1l0-0.5L346.8,13.9z M344.7,35.4
		l-0.3-0.1l-0.1,0.3l0.3,0.1L344.7,35.4z M348.9,12.5l-0.4,0l-0.1,0.5l0.5,0L348.9,12.5z M348.7,15.3l-0.4,0l0,0.4l0.4,0L348.7,15.3
		z M345.9,37l-0.3,0.1l0,0.3l0.3-0.1L345.9,37z M352.6,16.8l-0.1-1l0.1-0.9l-0.3-0.9l0.1-0.7l0.3,0.3l0.9,1.5l0.3,1l0.1,2.8l-0.2,1
		l-0.6,1.5l-1,1.3l-1,0.5l-0.9,0.2l-1.2,0.1l-0.7-0.3l0-0.8l0.7-0.6l1.1-0.5l0.9-0.7l0.5-0.9L352.6,16.8z M350.2,13.8l-0.1-0.1
		l-0.1,0.2l0.1,0.1L350.2,13.8z M347.4,35.1l0,0.5l0.5-0.2l0-0.4L347.4,35.1z M349.4,34.1l0.1-0.4l-0.4-0.1l-0.1,0.4L349.4,34.1z
		 M352.7,30.5l-0.4-0.1l0,0.4l0.4,0L352.7,30.5z"/>
	<path fill="#26201A" d="M392,36.5l-2.9,0.1l-0.9-0.2l-1-0.5l-0.8-0.6l-1.4-3.9l0.3-5.6l-0.4-1.1l-0.8-0.5l-1.2,0.2l-1.2-0.1
		l-3.2,0.4l-2.3,0.1l-1.1,0.6l-0.7,1.3l-0.5,2.2l0,1.1l-0.7,3.4l0,0.9l-0.5,1.7l-0.8,1.5l-1,0.4l-1.1,0.3l-1.1,0l-1.1-0.4l-0.5-1.3
		l0-2.6l0.3-1.1L368,29l0.3-1.1l0-1l1.7-8l0.1-1.1l0.3-1l0.1-1.1l0.4-1.2l0.3-2.2l0.7-2.8l1-1.3l1.1-0.4l1.2-0.1l1.1,0l1,0.3
		l0.4,1.2l-0.6,3.8l-0.3,1l-0.3,1.2l-0.3,1.8l-0.4,1.3l0.5,1.1l1.1,0.3l1.1-0.1l1.2-0.3l2.1,0.1l1.1-0.3l2.2,0l1.3-0.6l0.9-1.2
		l0.1-1.2l0.4-1.1l0.7-3.3l1.1-2.8l1-1.6l1.1-0.5l1.2-0.3l1.1,0.2l0.7,0.5l0.3,1.9l-2.2,9.6l-0.7,2.3l-0.1,1.2l-0.3,1.2l-0.3,2.3
		l-0.3,0.9l-0.2,2.2l0.2,1.4l1.4,0.3l1.5,0l0.9-0.8l0.9-0.5l3.2-3.8l0.5-1.1l1.4-2.2l0.5-1.1l2.3-2.3l1,0.2l1,0.5l0.5,0.7l-0.3,1.6
		l-1.1,2.6l-0.7,1l-0.8,1.1l-0.6,1l-1.3,1.9l-0.8,0.8l-0.7,1.1l-0.7,0.9l-2.6,2.5l-3,1.6L392,36.5z M370.6,27.5l-0.9,0l-0.2,0.7
		l0.9,0L370.6,27.5z M370,30.4l-0.6,0l-0.1,0.6l0.6,0L370,30.4z M369.4,33.7l-0.4,0l-0.1,0.5l0.5-0.1L369.4,33.7z M370.6,21.5l0,0.4
		l0.4-0.2l0-0.3L370.6,21.5z M371,25.1l0-0.7l-0.7,0l0,0.8L371,25.1z M371.1,19.2l0.4-0.1l0.1-0.4l-0.4,0L371.1,19.2z M371.6,20.7
		l0.7,0l0.2-0.2l0-0.7l-0.7,0l-0.3,0.4L371.6,20.7z M375.7,19.8l-0.7-0.2l-0.5,0.8l-0.4,0.5l-0.3,0.1l-0.3,0.2l-0.5,0.8l-0.3,0.3
		l-0.4,0.2l-0.9,0.5l0.1,0.7l0.4,0l0.6-0.5l0.4-0.2l0.3-0.2l0.5-0.2l0.3,0.3l-0.2,0.8l-0.3,0.3l-0.6,0.4l-0.3,0.6l0,0.3l0.6,0.3
		l0.5-0.8l0.3-0.3l0.7-0.6l0.3-0.3l-0.1-0.9l-0.4-0.1l-0.5-0.4l0.1-1l0.5-0.5l0.7-0.3L375.7,19.8z M373.3,27.3l-0.4-0.5l-0.2-0.4
		l-0.3-0.2l-0.4-0.6l-0.3,0l-0.6,0.6l0.1,0.4l0.7,0.4l0.3,0.3l0.4,0.6l0.5-0.2L373.3,27.3z M370.8,29.8l0.9-0.1l0-0.8l-0.9,0
		l-0.2,0.7L370.8,29.8z M372.3,16.8l0,0.7l0.7,0l-0.1-0.7L372.3,16.8z M371,32.3l0.1-0.6l-0.4-0.1l-0.3,0.7L371,32.3z M372.7,14.5
		l0.7,0.1l0.1-0.6l-0.6-0.1L372.7,14.5z M372.3,33.3l-0.6,0.3l-0.3,0.5l-0.5,0.5l-0.4,0.2l-0.2,0.5l0.6,0l0.3-0.4l0.4-0.6l0.6-0.3
		L372.3,33.3z M373.5,11.5l0.2,0l-0.1-0.1l-0.1,0L373.5,11.5z M382.1,25.8l1.1,0.6l-0.2,0.8l-1.1,0.4l-2.7,0.4l-1.2,0.7l-0.5,1.4
		l-0.2,1.3l-0.3,1.1l-0.2,2.2l-0.3,1l-0.4,3.1l-0.8,1.4l-1.3,0.7L373,41l-2.2-0.2l-0.1-1l0.9-0.4l0.9-0.3l1-0.7l0.6-1.4l0.5-1.4
		l0.1-1l0.3-1.3l0.1-0.9l0-1.5l0.4-2.3l0.4-1.4l1.2-0.8L382.1,25.8z M373.8,15.9l0.7,0l0.1-0.5l-0.7,0L373.8,15.9z M374.3,13.1
		l0.6,0l0-0.6l-0.5-0.1L374.3,13.1z M372.7,30.4l-0.4,0l-0.1,0.5l0.4,0L372.7,30.4z M373.7,18.3l-0.1,0.7l0.6,0.2l0.2-0.8
		L373.7,18.3z M374.8,10.1l0.4,0l0-0.4l-0.4-0.1L374.8,10.1z M375.7,14.2l0,0.3l0.2-0.2l-0.1-0.1L375.7,14.2z M377,21.4l-0.2-0.4
		l-0.7,0.2L376,22l0.9,0L377,21.4z M377.9,17.4l-0.4-1.2l0.2-1l0.5-1.1l0.6-2.4l0.1-1.1l0.6-1.1l1-0.1l0.4,1.2l-0.2,1.5l-1.2,4.9
		l-0.6,0.7L377.9,17.4z M378.3,22.6l-0.6-0.1l-0.2,0.6l0.5,0.1L378.3,22.6z M379.9,21.7l-0.1-0.6l-0.6,0l0,0.6L379.9,21.7z
		 M380.9,22.5l-0.3,0l0,0.2l0.3,0L380.9,22.5z M381.3,20.2l-0.1-0.1l-0.1,0.3l0.2,0.1L381.3,20.2z M382.7,21.6l0-0.4l-0.6-0.1
		l0.1,0.6L382.7,21.6z M383.5,20.4l0.7,0l0.1-0.7l-0.7,0L383.5,20.4z M384.2,22.3l-0.6-0.1l-0.1,0.6l0.5,0.1L384.2,22.3z
		 M385.8,21.6l0-0.7l-0.7,0l0,0.7L385.8,21.6z M386.2,22.9l1.4,1.5l0.4,0.1l0.4-0.6l-0.5-0.5l-0.2-0.4l0-0.3l-0.1-0.3l0-0.4l0-0.2
		l0.5,0.2l0.4,0l0.5-0.8l-0.2-0.3l-0.7-0.5l-0.3-0.3l-0.4-0.7l-0.4-0.1l-0.6,0.5l0,0.3l0.4,0.6l0.2,0.4l0.2,0.3l-0.3,0.5l-0.3,0.2
		l-0.4,0.3l-0.1,0.3L386.2,22.9z M386,25.7l0.6,0.3l0.1-0.8l-0.6-0.1L386,25.7z M386.8,28.6l0.3-0.5l0.3-0.2l0.3-0.4l0.4-0.6
		l-0.6-0.3l-0.4,0.5l-0.3,0.4l-0.4,0.4l-0.4,0.6l0.2,0.4L386.8,28.6z M387.5,30.4l0.1-0.3l0-0.5l-0.5,0l-0.3,0.4l0.1,0.7L387.5,30.4
		z M388.3,18.5l0.7,0l0.1-0.8l-0.7,0L388.3,18.5z M389,15l0.2,0.6l0.2,0.4l0.2,0.3l0.2,0.4l0.7,0.4l0.1-0.8l-0.3-0.3l-0.5-0.7
		l-0.3-0.2L389,15z M389.1,31.1l-0.6-0.1l-0.6,0.5l-0.2,0.4l-0.3,0.4l-0.5,0.2l-0.1,0.5l0.5-0.2l0.1-0.5l0.4-0.2l0.4,0l0.8-0.4
		L389.1,31.1z M390.6,19.1l-0.2-0.2l-0.7,0.1l-0.2,0.8l0.9,0.1L390.6,19.1z M389.8,25l-0.7,0l-0.2,0.2l-0.2,0.7l0.7,0l0.3-0.2
		L389.8,25z M390.2,13.9l0.8,0l0-0.7l-0.7,0.1L390.2,13.9z M389.8,22.8l0.2-0.6l-0.7,0l-0.2,0.6L389.8,22.8z M388.5,28.7l0.7,0
		l0-0.7l-0.7,0L388.5,28.7z M390.7,10.7l0.6,0l0.1-0.5l-0.5-0.1L390.7,10.7z M388.4,34.3l-0.2-0.2l-0.2,0.2l0.1,0.1L388.4,34.3z
		 M391.6,14.7l0,0.7l0.5-0.2l0.1-0.4L391.6,14.7z M391.3,17.8l0.3,0l0.1-0.3l-0.3,0L391.3,17.8z M389.9,30.1l0.1-0.2l-0.2-0.1l0,0.1
		L389.9,30.1z M391.1,20.7L391,21l0.3,0l0-0.3L391.1,20.7z M390.3,33l0-0.6l-0.6,0.1l-0.1,0.5L390.3,33z M392.2,12.1l0.3,0.1
		l0.1-0.4l-0.1,0L392.2,12.1z M405.4,29l-0.1,0.9l-0.8,1.5l-1.9,2.8l-1.4,1.6l-1.6,1.4l-0.9,0.5l-0.7,0.6l-0.9,0.6l-1,0.5l-2.8,0.4
		l-1,0l-0.8-0.2l-0.6-0.3l-0.7-0.6l-0.1-0.7l1.4,0l1.6-0.2l1.2-0.3l1.9-0.8l2.6-1.8l2.6-3l3.2-4.6l0.2,0l0.2,1L405.4,29z
		 M391.6,34.6l-0.1-0.7l-0.7,0l0.1,0.7L391.6,34.6z M392.3,32.4l0.6,0.2l0.3-0.4l-0.4-0.3l-0.3-0.1l-0.3-0.2l-0.4-0.1l-0.4-0.1
		l0.1,0.4l0.5,0.5L392.3,32.4z M392.3,26.6l2.3-11l0.4-1l0.2-1.4l0.6-2.2l0.4-1l0.4,0l0.8,0.4l0,1.5l-0.2,1.7L394.7,24l0,1l-0.2,1.3
		l-0.3,1l-0.1,1.3l-0.4,0.3l-0.6-0.1l-0.4-0.6l-0.3-0.8L392.3,26.6z M397.2,31.2l0.4-0.1l0.1-0.5l-0.4,0L397.2,31.2z M400.8,24.6
		l0,0.4l0.3-0.2l0-0.3L400.8,24.6z"/>
	<path fill="#26201A" d="M408.7,35.6l-1.1,0l-1-0.2l-1.9-0.9l-1.1-0.8l-0.6-0.6l-0.6-0.8l-0.3-0.8l-0.4-0.8l-0.6-2.7l0-1l0.2-3.9
		l0.3-1.9l0.4-1.1l0.3-1l1.5-3.8l0.5-0.8l1.7-2.6l0.7-0.9l1.4-1.5l2.4-2.1l2.3-1.2l2.5-1l3.8-0.3l0.9,0.1l2.3,0.6l1.4,0.1l0.8-0.9
		l1.1-0.9l2,0l0.9,0.1l0.5,0.4l0.4,1.2l0.1,1.3l-0.5,2l-0.1,1l-0.3,0.9l-0.5,1.9l-0.4,3l-0.3,1.1l-0.1,1.8L427,20l-0.3,2.9l-0.3,1
		l0,1.8l-0.1,1l0.3,0.9l0.6,0.7l1.1,0.2l1.3-0.2l0.9-0.4l2.3-2.2l0.5-0.8l0.8-0.9l0.5-1.1l0.8-0.9l1.1-1.9l0.4-1l1-1.3l1.2-1l0.9,0
		l0.8,0.3l0.7,0.5l0.3,0.7l-0.3,1.4l-0.9,2l-0.7,1l-0.4,0.8l-1.3,1.7l-0.5,0.8l-1.3,1.6l-0.5,0.9l-2.2,2.2l-1,0.6l-0.7,0.7l-1.3,0.9
		l-1.1,0.6l-2.4,0.7l-1.5,0.2l-1-0.1l-0.8-0.3l-0.6-0.5l-0.6-0.7l-0.4-0.9l-0.6-0.8l-0.3-0.8l-0.1-1.1l-0.2-0.6l-0.8,0.3l-2.7,3.1
		l-1.7,1.3l-0.8,0.4l-2.9,1.3l-2.8,0.4L408.7,35.6z M403,22.5l0.5-0.3l0.6-0.6l-0.5-0.5l-0.6,0.5l-0.3,0.4l0,0.3l-0.4,0.5l-0.2,0.2
		l0.2-0.1L403,22.5z M403.5,19l0.4,0l0.1-0.5l-0.5,0.1L403.5,19z M403.6,25.2l0-0.8l-0.7,0.1l0.1,0.7L403.6,25.2z M403.1,27.5
		l-0.5,0l-0.1,0.5l0.6,0L403.1,27.5z M406,16.7l-0.2-0.3l-0.7,0.2l0,0.8l0.7,0L406,16.7z M405.7,19.7l-0.6-0.3l-0.3,0.3l-0.2,0.7
		l0.8,0L405.7,19.7z M405,22.9l-0.6,0.2l0.2,0.5l0.5-0.2L405,22.9z M404.1,26.5l0.6,0.1l0.2-0.7l-0.7,0L404.1,26.5z M403.9,29
		l-0.1,0.5l0.5,0l0.1-0.5L403.9,29z M407.4,13l0.3-0.2l0.3-0.3l0.3-0.3l0.3-0.3l0.2-0.3l0.4-0.4l0.4-0.5l-0.3-0.3l-0.6,0.3l-0.7,0.5
		l-0.4,0.3l-0.5,0.8l-0.1,0.4l-0.6,0.5l-0.4,0.2l-0.2,0.5l0.5-0.2l0.3-0.3L407.4,13z M407.2,18l-0.7,0l-0.2,0.7l0.7,0.1L407.2,18z
		 M406.2,24.4l-0.4-0.1l-0.1,0.5l0.3,0.1L406.2,24.4z M406.5,21.3l-0.3,0l0.1,0.2l0.2,0L406.5,21.3z M405.8,27.9l0.1-0.5l-0.4-0.1
		l-0.1,0.5L405.8,27.9z M405.8,31l0-0.7l-0.7,0.1l0.1,0.6L405.8,31z M407.5,15.6l0.1-0.5l-0.5,0l-0.1,0.6L407.5,15.6z M418.5,36.7
		l-2.7,1.5l-0.9,0.3l-1.4,0.3l-4.2,0.1l-0.8-0.2l-1.7-0.7l-1.3-1l-0.2-0.4l0.6,0l1.8,0.5l5,0l1.4-0.5l2.6-1.2l1.7-1.3l0.8-0.9
		l1.1-0.4l0.5,0.3l0,1.2l-0.6,1.1L418.5,36.7z M411.1,11.7l-0.6-0.2l-0.6,0.7l-0.3,0.3l-0.3,0.3l-0.8,0.6l-0.1,0.4l0.5,0.6l0.5-0.2
		l0.4-0.8l0.6-0.5l0.6-0.5L411.1,11.7z M414.3,29.1l1.7-1l0.6-0.8l1.4-1.4l0.7-0.9l1.9-4l0.8-2.3l0.5-2l0.4-0.9l0.1-1l0.3-0.9
		l0.1-0.9l-0.2-1.2l-0.7-0.8l-1-0.3l-1.8-0.2l-1.5,0.2l-1.4,0.3l-1,0.4l-1.8,1.1l-0.8,0.8l-1.4,1.6l-2.3,3.7l-0.8,1.9l-0.3,1
		l-0.4,0.9l-0.3,3l0.2,0.9l0,1l0.3,0.8l1.2,1.3l0.8,0.5l0.7,0.1l2.9-0.6L414.3,29.1z M406.4,32l0.1,0.6l0.6-0.2l0-0.5L406.4,32z
		 M407.8,33.3l-0.1,0.6l0.6,0l0.2-0.6L407.8,33.3z M419.1,14l-1,0.1l-0.8,0.3l-0.9,0.5l-1.7,1.1l-0.7,0.7l-0.6,0.9l-0.7,0.9
		l-1.3,2.7l-0.2,1l-0.2,0.9l-0.3,1l-0.1,0.9l0.2,1.9l0,1.5l-0.6-0.1l-0.9-1.4l-0.1-1l-0.2-0.9l0.1-1.9l0.7-2.8l0.5-1l0.5-0.8
		l0.4-0.9l1.2-1.7l0.6-0.8l0.8-0.8l0.9-0.6l0.7-0.6l0.9-0.4l0.9-0.3l2.8-0.2l0.7,0.4l-0.1,1l-0.6,0.5L419.1,14z M410.9,8.9l0,0.4
		l0.4,0l-0.1-0.4L410.9,8.9z M412.7,10l-0.7,0l-0.2,0.7l0.7,0L412.7,10z M410.4,31.7l-0.6-0.1l-0.3,0.7l0.7,0.1L410.4,31.7z
		 M414.3,8.5l-0.5,0L413.7,9l0.6,0.1L414.3,8.5z M411.6,33l-0.6,0.2l0,0.6l0.7,0L411.6,33z M416,7.5l0.1-0.4l-0.4,0l-0.1,0.4
		L416,7.5z M412.7,32.1l0.5-0.1l0.1-0.5l-0.5,0.2L412.7,32.1z M417.4,8.8l0-0.2l-0.3-0.1l-0.2,0.4L417.4,8.8z M419.1,6.8l-0.5,0
		l0,0.4l0.4,0.1L419.1,6.8z M420.5,8.3l-0.4-0.1l-0.2,0.3l0.4,0.1L420.5,8.3z M421.5,26.4l-0.5-0.3l-0.4-0.1l-0.4-0.7l-0.3-0.2
		l-0.3,0l-0.3,0.3l-0.4,0.7l-0.3,0.3l-0.3,0.6l0.2,0.3l0.5-0.6l0.4-0.2l0.4,0l0.3,0.3l0.7,0.5l0.5-0.1L421.5,26.4z M419,27.9
		l-0.1,0.7l0.6,0.1l0.2-0.7L419,27.9z M421.8,9.7l-0.2,0.1l0,0.2l0.2-0.1L421.8,9.7z M421.2,23.4l-0.3,0.2l0.2,0.7l0.3,0.3l0.4,0.6
		l0.3,0.3l0.5,0.3l0.6-0.5l-0.3-0.7l-0.5-0.6l-0.3-0.3l-0.3-0.3L421.2,23.4z M423,8.2l-0.1,0.6l0.7-0.1l0.2-0.7L423,8.2z
		 M422.3,20.9l0-0.4l-0.4-0.1l-0.1,0.5L422.3,20.9z M423.3,18.7l-0.2,0.8l0.8-0.2l0-0.8L423.3,18.7z M423.5,21.6l-0.7,0l-0.1,0.6
		l0.7,0.1L423.5,21.6z M424.4,12.6l-0.5,0.1l0,0.5l0.4-0.2L424.4,12.6z M425.2,6.5l-0.4,0l-0.1,0.5l0.5-0.2L425.2,6.5z M425,9.3
		l-0.7,0l-0.1,0.7L425,10L425,9.3z M423.7,15.6l-0.1,0.4l0.3,0.1l0.2-0.3L423.7,15.6z M422.4,28.1l-0.1,0.5l0.4,0l0-0.4L422.4,28.1z
		 M426.6,7.6L426,7.8l0,0.6l0.5-0.2L426.6,7.6z M425.4,17.8l0.1-0.6l-0.6,0l-0.1,0.6L425.4,17.8z M423.8,26.4l0,0.7l0.7-0.1
		l-0.1-0.6L423.8,26.4z M424.1,29.2l-0.6,0.3l-0.1,0.6l0.6-0.2L424.1,29.2z M425.8,10.9l-0.1,0.5l0.5,0l0.1-0.4L425.8,10.9z
		 M424.7,20.3l0,0.5l0.5,0l0-0.5L424.7,20.3z M426.3,21.8l-0.4-0.1l-0.1,0.4l0.4,0.1L426.3,21.8z M425.7,27.8l-0.5,0l-0.1,0.6l0.6,0
		L425.7,27.8z M427.7,6.5l0,0.2l0.4-0.1l0-0.2L427.7,6.5z M427.7,9.5l-0.2-0.1l-0.2,0.3l0.3,0.1L427.7,9.5z M426.9,15.5l-0.3,0.1
		l0,0.3l0.4-0.1L426.9,15.5z M424.9,30.8l-0.2,0.7l0.8,0l0.2-0.7L424.9,30.8z M426.8,32.1l-0.5,0l-0.2,0.5l0.6,0L426.8,32.1z
		 M427,29.5l-0.5,0l0,0.5l0.5,0L427,29.5z M441.1,27.1l-0.1,0.9l-0.8,1.5l-1.9,2.8l-1.4,1.6l-1.6,1.4l-0.9,0.5l-0.7,0.6l-0.9,0.6
		l-1,0.5l-2.8,0.4l-1,0l-0.8-0.2l-0.6-0.3l-0.7-0.6l-0.1-0.7l1.4,0l1.6-0.2l1.2-0.3l1.9-0.8l2.6-1.8l2.6-3l3.2-4.6l0.2,0l0.2,1
		L441.1,27.1z M428.6,26.6l-0.3-0.6l-0.1-0.9l0-0.8l0-0.9l0.1-2l0.7-2.9l0.1-1.7l0.3-1.1l0.5-2.8l0.3-1l0.1-1l0.4-0.9l0.2-1.1
		l0.6-0.7l0.8-0.2l0.5,1l-0.1,1.4l-0.8,3l-0.1,0.9l-0.7,2.8l-0.2,2l-0.3,1l-0.6,2.8l0,3.7l-0.6,0.4L428.6,26.6z M428,30.8l-0.1,0.2
		l0.3,0.2l0.3-0.4L428,30.8z M429.2,32.3l-0.1,0.3l0.3,0.1l0.1-0.4L429.2,32.3z M431.3,30.8l-0.1-0.1l-0.1,0.1l0,0.2L431.3,30.8z"/>
	<path fill="#26201A" d="M487.2,14.2l0.8,0.4l0.6,0.9l-0.2,1.6l-0.6,1.6l-0.6,1.1l-0.7,0.9l-1.2,2.2l-0.8,0.9l-1.3,1.9l-0.9,1.1
		l-0.9,0.7l-0.8,1l-2.8,2.2l-1.1,0.4l-0.9,0.6l-2.7,0.6l-1.5-0.2l-0.8-0.3l-0.9-0.6l-0.8-0.8l-0.5-0.8l-0.9-2.7l-0.1-1.3l0-0.9
		l-0.2-1.1l0.1-2.2l-0.2-0.4l-0.3,0.4l-1.2,2.1l-0.8,1.1l-0.6,1.1l-1,0.7l-0.8,0.9l-2.1,1.4l-1.7,0.2l-1.6-0.3l-1.6-0.8l-0.5-0.9
		l-0.4-0.9l-0.5-2.1l-0.4-0.9l-0.1-1l-0.3-0.6l-1.1,2.8l-0.5,0.9l-0.4,1.1l-2.7,4.1l-1.5,1.7l-1.5,1.3l-1.5,0.7l-1.6,0.2l-1.6,0
		l-0.9-0.2l-0.9-0.5l-0.8-0.5l-1.3-1.4l-0.4-1.3l-0.5-2.8l0-2.3l0.3-2.3l1.1-4.2l1.1-1.5l1-0.4l1.1,0.3l0.6,0.8l0.2,1.7l-0.4,1.5
		l-0.1,1l-0.2,1l0.1,1.1l-0.1,1.1l0.2,2.1l0.6,0.8l1.2,0.3l1.4-0.4l0.7-0.6l0.6-0.5l0.8-1.1l1-1.8l0.7-1l0.4-1.1l0.6-1.1l0.4-1.3
		l1-2l1.4-3.5l0.7-2.5l0.9-2.3l0.9-3.3l0.8-1.7l0.9-1.4l1.1-0.4l1-0.1l0.9,0.1l0.7,0.7l0.3,1.4L460,6.4l-0.4,1.1l-0.1,1.1l-0.6,2.5
		l0,0.9l-0.4,2.2l0.1,1.3l-0.2,1.3l-0.1,3.1l0.5,2l1,0.8l1.2-0.3l0.8-0.7l0.7-0.7l0.6-0.8l0.6-1.3l1.2-1.8l0.6-1.1l0.7-2.4l0.5-1.4
		l0.5-0.8l0.4-1.3l0.5-1.1l1.3-3.9l1-1.5l1-0.6l1.1-0.2l1.1,0.5l0.7,0.4l0.3,1.5l-0.4,3.9l-0.3,1.2l-0.1,1.2l0.1,1.1l-0.1,1.1
		l-0.4,1.1l-0.2,1.2l0,1l-0.1,1.3l-0.1,1l-0.2,1l-0.1,1l0.1,1.3l-0.1,1l0.2,0.9l0.3,1L475,26l1.3,0.1l1-0.8l1-0.6l1-0.8l0.7-0.8
		l2.1-2.9l0.6-1.1l0.8-0.9l1.6-2.8l1.1-1L487.2,14.2z M438.9,27l0.7-0.6l0.3-0.5l-0.1-0.3l-0.4,0.3l-0.5,0.5l-0.3,0.5L438.9,27z
		 M439.4,28.3l-0.1,0.5l0.5-0.1l0.1-0.5L439.4,28.3z M452.8,31.1l-0.7,1.2l-0.8,0.9l-0.8,0.9l-0.8,0.9l-1,0.7l-1.1,0.7l-1,0.4
		l-1.9,0.5l-1.6,0.1l-0.9-0.2l-1-0.4l-1-0.7l-0.1-0.6l0.8,0.1l2.5,0l1-0.1l2.1-0.8l1.8-1.2l1.7-1.8l0.7-1.1l0.6-1.1l1.3-2l0.7-0.3
		l0.6,0.9l-0.5,1.6L452.8,31.1z M443.6,20.1l0.7,0.2l0.3,1.8l-0.2,2.5l-0.2,1.3l-0.7,1l-0.5,0l-0.6-2l0.1-1.3l0.3-1.7l0.4-1.1l0-0.7
		L443.6,20.1z M442.4,31.4l-0.2-0.1l-0.2,0.3l0.2,0.1L442.4,31.4z M443.7,29.6l0,0.3l0.3,0l0-0.3L443.7,29.6z M451.2,20.7l0-0.5
		l-0.4,0l-0.1,0.6L451.2,20.7z M453.1,15.7l-0.2,0l0,0.1l0.3,0.1L453.1,15.7z M452.9,18.9l0-0.3l-0.4-0.1l-0.1,0.4L452.9,18.9z
		 M453.8,13l0.1-0.5l-0.4,0l-0.1,0.4L453.8,13z M455.1,13.7l-0.6,0l-0.1,0.6l0.6,0L455.1,13.7z M454.7,16.9l-0.6,0.2l0,0.4l0.6,0
		L454.7,16.9z M454.3,20l-0.5,0l-0.1,0.5l0.6,0L454.3,20z M455.5,11l-0.5,0l-0.2,0.6l0.7,0L455.5,11z M456.3,15.1l-0.7,0l-0.1,0.8
		l0.7-0.1L456.3,15.1z M456.1,12.3L456,13l0.5,0l0.2-0.7L456.1,12.3z M457.3,6.7L457,6.6l-0.2,0.3l0.4,0L457.3,6.7z M457,9.2l-0.5,0
		l0,0.4l0.4,0L457,9.2z M456,18.3l-0.4,0l-0.1,0.5l0.5-0.2L456,18.3z M456.7,22.9l-0.3-0.1l0,0.4l0.3,0.1L456.7,22.9z M458,24.4
		l-0.4,0l0,0.4l0.4,0L458,24.4z M459.5,18.6l0.2-2.1l0-1l0.2-2.2l0.9-4.3l0.1-1.2l0.4-1.3l0-0.4l0.4-0.2l0.9,0.5l0.1,1.4l-0.4,3
		l-0.3,1L462,14l-0.2,1.3l-0.1,3.5l-0.5,1.4l-0.9,0.3l-0.6-0.7L459.5,18.6z M463.7,31.1l-1,0.4l-1.6,0.3l-1.6-0.2l-0.9-0.4l-0.4-0.8
		l1.2-0.2l1.8-0.1l1.1-0.5l1-0.8l0.8-0.8l0.9-0.8l0.8-0.5l0.5,0.3l-0.3,1.6l-0.6,1.1L463.7,31.1z M459.6,25.6l-0.4,0l-0.1,0.5l0.5,0
		L459.6,25.6z M461,24.3l-0.3-0.1l-0.1,0.3l0.3,0.1L461,24.3z M462.9,22.7l0-0.2l-0.2,0.2l0,0.2L462.9,22.7z M466.5,16.3l-0.3,0.1
		l0,0.2l0.4-0.1L466.5,16.3z M466.4,19.3l-0.5,0l-0.1,0.5l0.5,0L466.4,19.3z M468.6,14.5l-0.7,0l-0.2,0.5l-0.1,0.7l0.6,0.1l0.3-0.3
		L468.6,14.5z M467.4,17.8l-0.1,0.6l0.7-0.2l0.1-0.6L467.4,17.8z M468.8,11.6l-0.5,0l-0.1,0.6l0.5,0L468.8,11.6z M469,16.9l0.6-0.2
		l0.1-0.6l-0.7,0L469,16.9z M470.4,6.9l-0.2,0.8l0.7,0.1L471,7L470.4,6.9z M470.4,10.1l-0.6,0l-0.1,0.6l0.6,0L470.4,10.1z
		 M469.4,19.1l-0.5,0l-0.1,0.6l0.5,0L469.4,19.1z M470.2,13l-0.5,0l-0.1,0.7l0.5,0L470.2,13z M471.9,8.3l-0.6,0l0,0.7l0.7-0.1
		L471.9,8.3z M470.2,17.6l0,0.6l0.6-0.1l0.1-0.6L470.2,17.6z M471.1,11.4l-0.2,0.7l0.6,0.1l0.2-0.7L471.1,11.4z M471.3,14.5
		l-0.4-0.2l-0.3,0.7l0.6,0L471.3,14.5z M471.8,22.2l-0.7,0.3l-0.4,0.2l-0.8,0.7l-0.2,0.2l0.4,0.6l0.5-0.4l0.7-0.7l0.7-0.6
		L471.8,22.2z M470.6,20.6l-0.4,0l-0.1,0.4l0.4,0.1L470.6,20.6z M470,27l-0.2-0.5l-0.4,0l0,0.5L470,27z M472.3,5.8l-0.3,0l0,0.2
		l0.2-0.1L472.3,5.8z M473.5,6.9l-0.5,0l-0.1,0.4l0.4,0.1L473.5,6.9z M471.4,27.8l-0.6,0l-0.3,0.2l-0.2,0.8l0.7,0l0.4-0.7l1.2-1.2
		l-0.5-0.3l-0.5,0.8L471.4,27.8z M471.1,25l-0.2,0.6l0.6,0.2l0.2-0.7L471.1,25z M472.9,13l-0.4,0l0,0.3l0.4,0.1L472.9,13z
		 M472.2,19.1l-0.4-0.1l-0.1,0.5l0.3,0.2L472.2,19.1z M472.9,10.2l0.1,0.3l0.2-0.2l-0.1-0.1L472.9,10.2z M471.8,29.4l-0.1,0.4
		l0.5,0.2l0.3-0.5L471.8,29.4z M475.4,24.3l-0.6-0.6l-0.5-2.8l0.3-4.8l0.8-5.1l0.1-1.1l0.2-1.3l0-1.4l0.7-0.7l0.7,0.4l0.2,1.6
		l-1,9.4l0,2.4l-0.1,1.1l0.1,2l-0.2,0.7L475.4,24.3z M474.2,27.7l-0.6,0l-0.1,0.5l0.6,0.1L474.2,27.7z M488.1,24.3l-0.1,0.9
		l-0.8,1.5l-1.9,2.8l-1.4,1.6l-1.6,1.4l-0.9,0.5l-0.7,0.6l-0.9,0.6l-1,0.5l-1.5,0.5l-1.3,0.2l-1,0l-0.8-0.2l-0.6-0.3l-0.7-0.6
		l-0.1-0.7l1.4,0l1.6-0.2l1.3-0.4l1.9-1l2.6-1.8l2.6-3l3.2-4.6l0.2,0l0.2,1L488.1,24.3z M475.1,29.3l-0.1,0.6l0.7,0l0-0.7
		L475.1,29.3z M477.4,27.6l-0.9,0.1l-0.1,0.9l0.6,0.1l0.3-0.3L477.4,27.6z M478.8,26.4l0.4-0.2l0.8-0.8l0.3-0.3l0.1-0.6l-0.6,0.4
		l-0.3,0.4l-0.3,0.2l-0.4,0.3l-0.4,0.5l0,0.2L478.8,26.4z M482.4,23.4l-0.1-0.3l-0.5,0l-0.1,0.6l0.2,0.1l0.6,0L482.4,23.4z
		 M483.7,21.4l-0.4-0.1l-0.1,0.4l0.4,0L483.7,21.4z M485.2,19.8l-0.2-0.1l0,0.3l0.1,0L485.2,19.8z"/>
	<path fill="#26201A" d="M487.8,31l-0.9-0.3l-1.8-1.2l-0.6-0.9l-0.5-0.9l-0.8-3.2l0-1.1l0.7-3.5l0.1-1.2l0.5-2.3l0.5-1.1l0.1-1.2
		l0.4-1.2l0.6-1.1l0.4-1.3l0.5-2.9l0.1-1.5l-1.7-0.2l-1.4-0.4l-0.5-1l0.8-1.7l1.1-1.2l1.2-0.6l1.1-0.3l1.2-0.1l1.3,0.1l1,0.5
		l0.9,0.5l0.7,0.6l0.4,1l0,1.8l-1.1,5.5l-1.1,3.6l-0.4,1.1l-0.1,1.2l-0.4,1.3l-0.3,1.2l-0.1,1.1l-0.2,1.9l0.1,1.6l0.2,1l0.7,0.6
		l1.5,0.1l1.7-0.2l1.2-0.5l2.1-1.4l1.7-1.6l0.7-1.1l0.6-1.1l0.8-1.2l2-4.8l0.4-1.8l0.2-1.7l1.3-4.7l0.1-1.3l1.1-2.8l1.2-1.2l1.2-0.1
		l1.2,0.1l1,0.5L511,2l-0.1,1.8L510.6,5l-0.4,1.2l-0.1,1l-0.3,1.2l-0.4,1.2l-1.3,6.9l0,1.3l-0.4,1.1l-0.1,1.1l0,1.2l0.2,1.2l0.2,1
		l1.2,0.7l1.6-0.2l1.1-0.6l0.9-0.8l1.9-2l0.6-1.1l0.9-1l0.7-1.1l0.6-1.1l1.8-2.6l1.2-1.1l1.1,0l0.8,0.4l0.6,0.8l-0.3,1.6l-1.9,3.9
		l-0.7,1.1l-0.9,1.1l-0.6,1.1l-1.6,2.1l-2.7,2.7l-3.3,2.2l-1.1,0.4l-1.3,0.3l-1.8,0l-1.4-0.3l-1-0.6l-0.7-0.9l-0.7-2.2l-0.2-1.2
		l-0.6-0.7l-0.7,0.3l-1.6,2l-3.1,2.5l-1,0.6l-1.1,0.5l-1.1,0.4l-4.6,0.6L487.8,31z M485.9,21.5l0.2-0.6l-0.6,0l-0.2,0.5L485.9,21.5z
		 M486.4,17.8l-0.5,0l-0.1,0.5l0.6,0.1L486.4,17.8z M486.2,15.2l0.1,0.4l0.4,0l0-0.6L486.2,15.2z M485.8,23.8l-0.6,0.2l-0.1,0.6
		l0.7-0.1L485.8,23.8z M488.3,2.9l-0.5,0l-0.1,0.5l0.5,0.1L488.3,2.9z M489.5,5l0.3-0.3l0.4-0.3l0.2-0.2l0.3-0.4l0.2-0.5L490.5,3
		l-0.3,0.3l-0.3,0.2L489.1,4l-0.4,0.6l0,0.4L489.5,5z M488.1,16l-0.8,0.3l0,0.7l0.7,0l0.4-0.8l0.7-0.6l0.4-0.3l0-0.5l-0.5,0.1
		l-0.2,0.3L488.1,16z M486.6,23.1l0.7,0l0.1-0.8l-0.7,0L486.6,23.1z M489.2,7.3l-0.7,0l0.1,0.6l0.6-0.1L489.2,7.3z M488.3,10.1
		l-0.1,0.5l0.5,0l0-0.4L488.3,10.1z M487.9,13.3l0,0.7l0.7-0.2l-0.1-0.7L487.9,13.3z M486.4,25.4l0,0.7l0.8-0.2l-0.1-0.6L486.4,25.4
		z M487.6,19.8l0.1-0.4l-0.4,0l0,0.4L487.6,19.8z M499.4,31.9l-2.3,1.4l-2.2,0.9l-1.9,0.2l-2.9-0.1l-0.9-0.2l-1.9-1.1l-0.3-0.4
		l0.7,0l1.1,0.2l2.2,0.1l2.4-0.3l2.2-0.8l2.2-1.2l1-0.6l0.9-0.8l1.2-0.3l0.4,0.9l-0.8,1.4L499.4,31.9z M488.4,20.7l-0.1,0.4l0.5,0
		l-0.1-0.5L488.4,20.7z M489.7,28.1l-0.3-0.3l-0.2-0.3l-0.3-0.2l-0.2-0.4l-0.4-0.1l-0.7,0l0.3,0.6l0.5,0.5l0.4,0.6l0.6,0.3
		L489.7,28.1z M490.4,8.7l-0.4,0l-0.1,0.5l0.5,0L490.4,8.7z M490.7,5.6l-0.4,0L490.3,6l0.4,0L490.7,5.6z M490.1,11.9l-0.4,0
		l-0.1,0.5l0.4,0L490.1,11.9z M488.2,23.9l0,0.4l0.3-0.2l0-0.4L488.2,23.9z M489.6,25.7l0.1-0.3l-0.4,0l0,0.2L489.6,25.7z
		 M491.9,7.2l-0.2-0.1l-0.1,0.3l0.3,0L491.9,7.2z M492.5,15.6l0.8-2.5l0.2-1.1l1-3.7L495,6l0.4-1.2l0.8,0l0.3,0.9l0.2,1l-0.3,3.4
		l-0.7,1.8l-0.7,3l-0.4,1.1l-0.2,1.2l-1,3.4l0,1.2l-0.7,1.1l-1,0.6l-0.4-0.6L492.5,15.6z M490.7,26.7l-0.1,0.5l0.5,0l0.1-0.6
		L490.7,26.7z M490.9,29.5l-0.4,0l-0.1,0.4l0.4,0L490.9,29.5z M492.3,28l-0.1,0.6l0.5,0l0.1-0.6L492.3,28z M493.7,26.6l-0.1,0.4
		l0.4,0.1l0.1-0.4L493.7,26.6z M496.9,26.3l-0.1,0.4l0.3,0.1l0.2-0.3L496.9,26.3z M498.7,25l0.2-0.2l-0.3-0.1l-0.1,0.2L498.7,25z
		 M501,20.3l-0.3-0.2l-0.3,0.5l0.3,0.1L501,20.3z M500.8,22.9l-0.6,0.1l-0.1,0.7l0.6-0.2L500.8,22.9z M501.7,21.5l0.1,0.7l0.6-0.1
		l0-0.7L501.7,21.5z M502.8,18.5l-0.7,0l-0.1,0.7l0.6,0L502.8,18.5z M504.3,16.8l-0.6-0.1l-0.2,0.5l0.6,0.1L504.3,16.8z M504.7,13.7
		l-0.6,0l-0.2,0.7l0.7-0.1L504.7,13.7z M504,23.3l-0.4-0.7l-0.6,0.2l-0.2,0.7l0.7,0.3l0.5,0.4l0.3,0.8l0.8-0.3l0.2-0.7l-0.8-0.2
		L504,23.3z M503.5,19.9l-0.1,0.7l0.7,0l0.1-0.7L503.5,19.9z M504.6,10.8l0,0.3l0.4,0.1l0-0.4L504.6,10.8z M506.2,7.1l0.8-0.3
		L507,6.1l-0.8,0.4L506,6.8l-0.6,0.7l-0.2,0.2l0,0.4l0.2-0.2l0.2-0.4L506.2,7.1z M505.4,12.2l0.1,0.5l0.3,0.2l0.7-0.1l0.1-0.7
		l-0.4-0.1l-0.6,0L505.4,12.2z M505.5,19.1l0.1-0.7l-0.7,0l0,0.7L505.5,19.1z M505.5,20.8l-0.4,0.1l-0.7,0.6l0.1,0.7l0.7,0l0.5-0.8
		l0.9-0.9l0.1-0.7l-0.6,0.2l-0.2,0.5L505.5,20.8z M507.4,3.3l-0.4,0l-0.2,0.3l0.4,0.1L507.4,3.3z M506.6,9.2l-0.5,0.2l0.1,0.4
		l0.5-0.1L506.6,9.2z M505.6,15.4l0,0.3l0.2,0.1l0.2-0.3L505.6,15.4z M507.4,13.7l-0.7,0l-0.2,0.4l-0.1,0.6l0.6,0l0.3-0.2
		L507.4,13.7z M508.1,10.7l-0.3-0.3l-0.6,0L507,11l0.2,0.3l0.7,0L508.1,10.7z M506.5,22.8l-0.5-0.2l-0.4,0.6l0.6,0L506.5,22.8z
		 M508.7,4.5l-0.7,0.1l0,0.7l0.6-0.1L508.7,4.5z M506.3,25.6l-0.7,0l-0.1,0.7l0.7,0L506.3,25.6z M508.2,7.5l-0.2,0.2l0,0.3l0.4,0
		L508.2,7.5z M507.1,16.7l-0.3-0.1l0,0.3l0.1,0L507.1,16.7z M507.6,27.7l-0.1-0.7l-0.7,0l-0.1,0.7L507.6,27.7z M507.3,24.3l-0.1,0.4
		l0.3,0.1l0.2-0.5L507.3,24.3z M522.2,22.6l-0.1,0.9l-0.8,1.5l-1.9,2.8l-1.4,1.6l-1.6,1.4l-0.9,0.5l-0.7,0.6l-0.9,0.6l-1,0.5
		l-1.5,0.5l-1.3,0.2l-1,0l-0.8-0.2l-0.6-0.3l-0.7-0.6l-0.1-0.7l1.4,0l1.6-0.2l1.3-0.4l1.9-1l2.6-1.8l2.6-3l3.2-4.6l0.2,0l0.2,1
		L522.2,22.6z M513.6,3.4l0.3,0.5l0.1,1.4l-0.3,3l-1,3.7l-0.1,1.2l-0.4,1.2l-0.7,3.7l-0.3,3.7l-0.4,0.6l-0.7-0.1l-0.5-0.5l-0.2-0.8
		l0-1l0.1-1.2l1-3.9l0-1.4l0.5-2.6l0.8-2.7l0.2-1.3l0.7-2.8l0.3-0.8L513.6,3.4z M509,25.5l-0.4,0l-0.1,0.5l0.5-0.1L509,25.5z
		 M508.4,28.6l0,0.2l0.3,0l-0.1-0.3L508.4,28.6z M510,26.9l-0.1,0.5l0.5,0l0.1-0.5L510,26.9z M512.1,25.6l0-0.4l-0.6,0l0.1,0.5
		L512.1,25.6z M513.8,23.9l-0.4,0l0,0.4l0.3,0L513.8,23.9z M515.5,22.3l-0.4-0.1l0,0.4l0.3,0.1L515.5,22.3z M516.8,20.6l-0.1,0.2
		l0.3,0l0.1-0.2L516.8,20.6z M518.5,19.4l0.1-0.4l-0.4-0.1l-0.1,0.4L518.5,19.4z"/>
</g>
</svg>
