<?xml version="1.0" encoding="utf-8"?>
<!-- Generator: Adobe Illustrator 18.0.0, SVG Export Plug-In . SVG Version: 6.00 Build 0)  -->
<!DOCTYPE svg PUBLIC "-//W3C//DTD SVG 1.1//EN" "http://www.w3.org/Graphics/SVG/1.1/DTD/svg11.dtd">
<svg version="1.1" id="Слой_1" xmlns="http://www.w3.org/2000/svg" xmlns:xlink="http://www.w3.org/1999/xlink" x="0px" y="0px"
	 viewBox="0 0 73.3 100.4" enable-background="new 0 0 73.3 100.4" xml:space="preserve">
<path fill="#FFFFFF" d="M73.2,31.9c0.2-0.2,0.1-0.5,0-0.6c-0.1-0.7-0.1-1.4-0.2-2.1c-0.8-5.7-2.8-11-6-15.4c0-0.2-0.1-0.3-0.3-0.4
	c-2.6-3.5-5.9-6.4-10-8.5c-0.1-0.2-0.2-0.3-0.5-0.2c-5-2.6-11-4.3-17-4.6c0,0,0,0,0,0C35.6-0.1,32,0.2,28.7,1.2
	C13.5,3.6,1.8,17.3,0.2,32.6C0,32.7-0.1,33,0.2,33.1c0,0,0,0,0,0c-0.1,1-0.1,2.1-0.1,3.1c0,3.5,0.6,7.2,1.7,10.8
	c0.1,1.9,1,3.6,1.9,5.3c1.7,3.3,2.8,6.8,3.8,10.3c1.9,6.7,5.6,12.4,8.5,18.7c1.1,2.3,2.1,5.6,3.5,8.8c0,0.1,0,0.2,0.1,0.2
	c1.8,4.1,4.2,8.1,7.8,9.4c0.1,0.1,0.2,0.3,0.4,0.3c0.1,0,0.2,0,0.3-0.1c0.7,0.2,1.4,0.3,2.1,0.3c0.1,0,0.1,0,0.2,0
	c0.2,0,0.3,0,0.5-0.1c0.1,0,0.2,0,0.4,0c0,0,0.1,0,0.1,0c2.1-0.2,4.2,0,6.3,0.1c1.1,0.1,2.3,0.2,3.4,0.2c0.1,0,0.1,0,0.2,0
	c0.1,0,0.2,0,0.3-0.1c0.3,0,0.6-0.1,0.9-0.1c2.2-0.4,4.3-0.7,5.9-2.2h0c0.4,0,0.5-0.3,0.5-0.6c0.1-0.2,0.3-0.4,0.4-0.6
	c1.3-1.9,1.9-4.6,2.7-6.8c1.1-3.2,2.6-6.2,4-9.2c3.9-8.5,7.9-16.9,11.5-25.4C72,48.5,73.8,40,73.2,31.9z M72.2,31.3
	c-1.2,0.2-2.4,0.6-3.5,1.2c-0.4,0.2-1,0.6-1.5,1.1c0.1-2.4,0.1-4.9-0.1-7.2c1.3-0.6,2.7-0.9,4.2-1C71.7,27.3,72.1,29.3,72.2,31.3z
	 M71.1,24.6c-1.4,0.1-2.8,0.5-4.1,1c-0.1-0.6-0.2-1.2-0.3-1.8c-0.2-1.4-0.5-2.8-0.8-4.2c1.1-0.3,2.2-0.4,3.3-0.4
	C69.9,21,70.6,22.8,71.1,24.6z M43.9,96.9c0.4-0.9,0.4-2.1,0.5-3.1c0.1-1.1,0.2-2.6-0.1-3.7c0.8,0,1.6,0,2.4,0
	c-0.4,1.3-0.5,2.8-0.7,4.1c-0.1,0.7-0.3,1.3-0.5,2c-0.1,0.2-0.2,0.5-0.3,0.7C44.8,96.8,44.3,96.8,43.9,96.9z M38.8,94.6
	c-0.1-1.4-0.2-2.8-0.2-4.2c0.2,0.1,0.5,0,0.6-0.2c0,0,0,0,0-0.1c0.4,0,0.9,0,1.3,0c-0.3,1.3-0.1,3-0.1,4.3c0,0.5-0.2,1.8,0.2,2.5
	c-0.5,0-1.1,0-1.6,0C39.1,96.2,38.9,95.2,38.8,94.6z M38,94.1c0,0.7-0.2,1.9,0.1,2.8c-0.7,0-1.3,0-2,0c0.2-0.8,0-1.8,0-2.7
	c-0.1-1.3,0-2.7-0.2-3.9c0.2,0,0.4,0,0.5,0c0.2,0.2,0.5,0.1,0.7,0c0.3,0,0.7,0,1-0.1C38,91.5,38,92.8,38,94.1z M9.7,49.6
	c-1.5-3.6-2.8-7.2-3.7-11c0-0.2,0-0.4,0-0.6c1.6-0.6,3.3-1.1,5-1.5v0c0.1,9.1,1.2,20.3,6.7,28c-1-0.5-1.9-1.1-2.9-1.7
	c-0.2-0.4-0.3-0.9-0.5-1.3C12.5,57.6,11.3,53.5,9.7,49.6z M13.5,62.1c-0.3-0.2-0.6-0.4-0.9-0.6c0,0,0-0.1,0-0.1
	c-3.2-5.3-5.1-11.5-6.1-17.8c0.6,1.8,1.4,3.5,2,5.2c1.7,4.3,3.1,8.7,4.8,13C13.4,61.9,13.4,62,13.5,62.1z M13.4,18
	c0.2-0.4,0.4-0.8,0.6-1.2c1.1,1,2.2,2.1,3.2,3.2c-0.8,1.2-1.6,2.5-2.3,3.7c-0.2,0.3-0.3,0.6-0.5,0.9c-0.7-0.9-1.5-1.7-2.3-2.5
	c0-0.2,0-0.3,0-0.5c0-0.3,0-0.6,0-0.9C12.6,19.7,13,18.9,13.4,18z M12.3,17.8c0.1-0.7,0.1-1.5,0.2-2.2c0.2,0.2,0.4,0.4,0.6,0.6
	C12.9,16.7,12.6,17.2,12.3,17.8z M37.7,84c0,0.1,0,0.1,0,0.2c-0.2,0-0.4,0-0.5,0c-0.1,0-0.3,0-0.4,0c-0.1-4.3-0.2-8.7-0.3-13
	c0.3,0,0.7,0,1,0c1.3,0.1,2.5,0.1,3.6,0c0.2,0.2,0.5,0.2,0.7,0c0.3,0,0.6,0,0.9-0.1c-0.2,1.4-0.4,2.7-0.6,4.1
	C39.6,77.6,37.9,80.4,37.7,84z M38.5,84.9c0.2,0,0.3,0.1,0.3,0.1c0,0.1-0.7,0.6-0.8,0.7c-0.3,0.2-0.7,0.4-1.1,0.6
	c0-0.5-0.1-0.9-0.1-1.4C37.4,84.9,38.1,84.9,38.5,84.9z M41.2,70.2c-1.2,0-2.5-0.1-3.7-0.1c-0.3,0-0.7,0-1,0c0,0,0,0,0,0
	c0.3-0.4,1-1.2,1-1.3c0.4-0.7,0.5-1.6,0.6-2.4c0.5-2.7,1-5.4,1.7-8c1.8-6.4,3.2-12.7,3.6-19.3c0.1-2,0.2-4,0.1-6
	c2.3,0.3,4.5,0.7,6.8,1.1c-0.2,1.1-0.4,2.2-0.5,2.9c-0.4,2.6-0.8,5.1-1.3,7.7c-1,5.5-2.7,10.9-4.1,16.4c-0.4,1.8-0.8,3.6-1.1,5.4
	C42.8,67.8,42.1,69.1,41.2,70.2z M36.1,32.5c0.1,0,0.1,0,0.2,0c2.2,0,4.4,0.2,6.5,0.4c0,1.6,0,3.3-0.1,4.9
	c-0.4,6.9-1.9,13.6-3.8,20.2c-0.6,2.2-1.2,4.4-1.5,6.6c-0.2,1.4-0.4,2.6-0.9,3.9c0-1.2-0.1-2.4-0.1-3.7
	C36.4,54.1,36.7,43.3,36.1,32.5z M19.6,61.3c-1.5-4.5-2.9-9.1-4.3-13.6c-0.6-2.1-1.5-4.1-2.2-6.2c-0.5-1.6-0.8-3.2-1.3-4.8
	c0-0.1,0-0.2,0-0.2c0-0.1,0-0.2,0-0.2c1.2-0.3,2.3-0.5,3.5-0.7c0.7-0.1,1.3-0.3,2-0.4c0,0.4,0,0.8,0,1.3c0,6.4,1.5,12.4,3.2,18.5
	c1.2,4.4,2.2,9.2,5,12.8c-0.9-0.4-1.8-0.7-2.7-1c-0.2-0.1-0.5-0.2-0.7-0.3c-0.2-0.1-0.5-0.2-0.7-0.3C20.7,64.6,20.2,63,19.6,61.3z
	 M20.3,65.8c-0.5-0.2-0.9-0.4-1.3-0.6c0-0.1,0-0.2-0.1-0.3c-5.1-6.4-6.5-15.7-6.9-24c0.5,1.6,1.2,3.1,1.7,4.4c1.7,4.6,3,9.4,4.5,14
	C18.8,61.5,19.6,63.7,20.3,65.8z M17.2,31c0,0.1,0,0.2,0,0.3c-1.8,0.4-3.6,0.9-5.3,1.4c0.6-2.2,1.6-4.4,2.6-6.5
	C15.6,27.7,16.5,29.3,17.2,31z M15,25.3c0.8-1.5,1.7-2.9,2.6-4.4c-0.2,2.6-0.3,5.3-0.4,7.9C16.6,27.7,15.8,26.5,15,25.3z M17.2,32.3
	c0,0.6,0,1.3,0,1.9c-0.5,0.1-1,0.2-1.5,0.3c-1.3,0.3-2.6,0.6-4,0.9c0-0.6,0-1.1,0-1.7C13.5,33.1,15.4,32.7,17.2,32.3z M35.4,50
	c-0.5,5.8-0.1,11.8-0.1,17.5c0,0.4,0,0.8,0,1.2c-3.2-4.1-4.3-9-5.9-13.9c-2-6-2.8-12.2-2.9-18.5c0-1,0-1.9,0-2.9
	c3-0.5,6.1-0.8,9.2-0.8C35.4,38.3,35.4,44.1,35.4,50z M35.9,84.1c-0.5,0-0.9,0-1.4,0.2c-0.3-3.5-2.3-7-4.3-9.8
	c-0.3-1.4-0.7-2.8-1.2-4.2c1.9,0.7,4.2,0.8,6.4,0.9C35.5,75.4,35.7,79.7,35.9,84.1z M25.8,27.8c-0.9-1.2-1.9-2.3-3-3.4
	c1.2-1.7,2.5-3.4,3.9-5C26.3,22.1,26,25,25.8,27.8z M25.7,29.4c0,0.2,0,0.4,0,0.7c-2.4,0.2-4.9,0.5-7.3,1c1.2-1.9,2.4-3.8,3.6-5.6
	C23.1,26.9,24.4,28.3,25.7,29.4z M20.1,26.2c-0.3,0.4-1.2,1.7-1.8,2.8c0.1-2.6,0.2-5.1,0.3-7.7c0.9,1,1.8,2.1,2.6,3.2
	C20.8,25.1,20.4,25.7,20.1,26.2z M25.6,31c0,0.5,0,1,0,1.5c-2.5,0.4-4.9,0.9-7.4,1.4c0-0.6,0-1.3,0-1.9C20.6,31.6,23.1,31.3,25.6,31
	z M25.6,33.5c0,0.9,0,1.8,0,2.8c0,6.3,1,12.8,2.9,18.8c1.7,5.3,3.1,10.6,6.8,14.9c-2.2-0.1-4.4-0.2-6.4-0.9c-1-3.2-2.1-6.4-3.1-9.6
	c-1.4-4.5-2.6-9.1-3.9-13.6c-1-3.6-1.9-7.4-3.6-10.8c0-0.1,0-0.1,0-0.2C20.6,34.4,23.1,33.9,25.6,33.5z M29,72.7
	c-1.1-1.5-2.4-3-3.9-4.2c1,0.4,2,0.9,3,1.3C28.4,70.8,28.7,71.7,29,72.7z M21.3,47c1.2,4.6,2.6,9.2,3.9,13.8c0.8,2.7,1.7,5.3,2.5,8
	c-0.3-0.1-0.6-0.2-0.9-0.3c0-0.1,0-0.2-0.1-0.3c-3.3-3.6-4.3-8.8-5.5-13.5c-1.6-6.1-3.1-11.9-3.1-18.3c0,0,0-0.1,0-0.1
	C19.5,39.8,20.4,43.4,21.3,47z M24.3,69.1c1.7,1.7,3.6,3.7,5.2,5.8c0,0.2,0.1,0.4,0.1,0.6c1.1,4.7,1.9,9.4,3.2,14
	c-1.3,0.1-2.7,0-4-0.1c-2.2-7.4-4.7-14.7-7.2-22C22.6,67.8,23.5,68.3,24.3,69.1z M32.8,86c-0.8-3.2-1.4-6.4-2.1-9.6
	c1.6,2.4,2.8,5.1,3,8c0,0,0,0,0,0C33.1,84.9,32.8,85.5,32.8,86z M33.7,85.6c0.3-0.7,1.6-0.7,2.2-0.8c0,0,0,0,0,0c0,0.6,0,1.2,0,1.8
	c-0.5,0.1-1,0.2-1.5,0.1C33.9,86.6,33.4,86.1,33.7,85.6z M26.6,32.4c0-0.5,0-1,0.1-1.5c2.6-0.2,5.2-0.4,7.7-0.5
	c2.8-0.1,5.5-0.2,8.3-0.1c0,0,0,0,0.1,0c0,0.6,0.1,1.1,0.1,1.7c-1.4-0.2-2.8-0.3-4.2-0.3C34.5,31.5,30.5,31.8,26.6,32.4z M56.7,31.6
	c-1.7-0.5-3.4-0.9-5.2-1.2c0-0.2,0-0.4,0-0.6c1.7-0.9,3.1-2.4,4.5-3.8c0.5,1.2,0.9,2.4,1.1,3.7c0.1,0.7,0.2,1.4,0.2,2.1
	C57.1,31.7,56.9,31.6,56.7,31.6z M57.4,32.5c0,0.2,0,0.3,0,0.5c0,0.1,0,0.2,0,0.2c0,0.4,0.1,0.8,0.1,1.1c0,0.1-0.1,0.2-0.1,0.4
	c-1.9-0.4-3.8-0.8-5.7-1.2c0-0.8-0.1-1.6-0.1-2.4c0.9,0.2,1.9,0.3,2.8,0.5C55.4,31.9,56.4,32.2,57.4,32.5z M51.5,29.4
	c-0.2-2.8-0.5-5.6-1-8.4c0.6-0.5,1.3-1,2-1.4c1.2,1.7,2.2,3.5,3.1,5.4C54,26.4,52.6,28,51.5,29.4z M47.6,26.8
	c0.3,0.7,0.8,2.4,1.6,3.2c-1.9-0.2-3.9-0.4-5.8-0.4c0,0,0,0,0-0.1c0.1,0,0.2,0,0.2-0.1c0.7-1.7,1.8-3.3,3-4.7
	C47,25.4,47.3,26.1,47.6,26.8z M47.3,23.9c0.8-0.8,1.6-1.6,2.4-2.3c0.4,2.8,0.8,5.6,0.9,8.4c0-0.1-0.1-0.2-0.2-0.3
	C49.1,28.9,48,25.6,47.3,23.9z M50.8,31c0,0.3,0,0.7,0.1,1c-0.1,0.3-0.2,0.8-0.3,1.2c-2.3-0.5-4.6-0.9-7-1.2c0-0.6-0.1-1.2-0.1-1.8
	C45.9,30.4,48.3,30.7,50.8,31z M50.9,34.8c0,6.3-0.9,12.4-2.3,18.5c-0.7,3.2-1.9,6.2-3.3,9.1c-0.2,0.4-0.3,0.7-0.5,1.1
	c0.1-0.4,0.2-0.7,0.2-1.1c1.2-5.1,2.7-10.2,3.8-15.3C49.7,43,50.3,38.9,50.9,34.8z M51.3,19.7c-0.3,0.2-0.6,0.4-0.9,0.7
	c-0.3-1.7-0.6-3.5-1-5.2c0.9,1.2,1.9,2.5,2.8,3.9C51.9,19.3,51.6,19.5,51.3,19.7z M49.6,21c-0.9,0.7-1.8,1.5-2.7,2.3
	c-0.8-1.6-1.8-3.2-2.9-4.8c0.6-0.5,1.1-0.9,1.6-1.3c0.9-0.7,1.8-1.4,2.8-2.1C48.9,17,49.3,19,49.6,21z M46.2,24
	c-1.3,1.4-2.4,2.9-2.9,4.6c-0.2-2.9-0.6-5.7-1.1-8.5c0.4-0.3,0.7-0.6,1.1-0.9C44.3,20.8,45.3,22.4,46.2,24z M42,19.2
	c-0.2-1-0.4-1.9-0.6-2.9c0.5,0.7,1,1.5,1.4,2.2C42.6,18.7,42.3,18.9,42,19.2z M41.5,20.7c0.5,2.5,0.8,5.1,1,7.6
	c-1-1.8-2-3.6-3.1-5.5C40.1,22.1,40.8,21.4,41.5,20.7z M42.1,29.6c-1.9,0-3.9,0-5.8,0c0,0,0,0,0,0c0,0,0-0.1,0-0.1
	c0.1-2.1,1.1-4.1,2.5-5.8C39.9,25.7,41,27.7,42.1,29.6z M39,22.1c-0.8-1.3-1.7-2.7-2.5-4c0.9-1,1.8-1.9,2.7-2.8
	c0.3-0.3,0.7-0.6,1-0.9c0,0,0,0.1,0.1,0.1c0.4,1.7,0.8,3.5,1.1,5.2C40.5,20.5,39.7,21.3,39,22.1z M38.3,22.9
	c-1.1,1.4-1.9,2.9-2.4,4.4c-0.5-1.7-1.7-3.4-3-5.1c1-1.1,1.9-2.3,2.9-3.4C36.7,20.2,37.5,21.6,38.3,22.9z M35.2,29.6L35.2,29.6
	c-2.8,0-5.6,0.1-8.4,0.3c1.4-2.4,3.3-4.4,5.1-6.5C33.3,25.3,34.4,27.4,35.2,29.6z M32.5,21.8c-1.4-1.6-2.9-3-4.2-4.3
	c0.3-0.3,0.5-0.6,0.8-0.8c0.9-0.9,1.9-1.9,2.9-2.9c1.2,1.4,2.4,2.9,3.5,4.5C34.4,19.4,33.4,20.6,32.5,21.8z M31.5,22.9
	c-1.7,2-3.4,3.8-4.8,6.1c0.2-3.5,0.6-7.1,0.9-10.6C29.1,19.8,30.4,21.3,31.5,22.9z M43.4,71c1.5-0.1,2.9-0.4,4.3-0.7
	c-0.1,0.2-0.2,0.5-0.2,0.7c-1.6,1-3.2,2.2-4.5,3.4C43.1,73.3,43.2,72.1,43.4,71z M47.1,69.5c-1.2,0.3-2.4,0.5-3.6,0.6
	c0.1-0.6,0.2-1.2,0.3-1.8c0.7-1.2,1.2-2.5,1.7-3.8c1.2-3,2.6-5.9,3.5-9c1.9-6.6,2.8-13.8,2.7-20.7c0-0.2,0-0.3,0-0.5
	c1.5,0.3,3,0.6,4.5,1c0.3,0.1,0.6,0.1,0.9,0.2c-2.9,8.3-4.2,17-6.4,25.5c-0.7,2.8-1.7,5.5-2.7,8.2C47.8,69.3,47.5,69.4,47.1,69.5z
	 M51.1,62.2c2.4-8.8,3.8-17.9,6.4-26.6c0,0,0.1,0,0.1,0c0.1,1.1,0.1,2.2,0.1,3.2c0.2,10.4-2.7,21.3-8.6,29.9c-0.1,0-0.2,0.1-0.4,0.1
	C49.6,66.7,50.4,64.5,51.1,62.2z M57.5,24.4c0.5-0.4,0.9-0.8,1.4-1.2c0.5-0.4,1-0.7,1.6-1.1c0.6,1,1.2,2.1,1.8,3.1
	c0.3,0.6,0.7,1.4,1.1,2.1c-1.8,1.1-3.4,2.5-4.9,3.8c-0.1-0.8-0.2-1.5-0.4-2.3C57.9,27.5,57.7,26,57.5,24.4z M58.6,33
	C58.6,33,58.6,33,58.6,33c1.7,0.5,3.3,1.1,5,1.7c0.8,0.3,1.5,0.5,2.3,0.8c0,0,0,0,0,0c-0.2,0.4-0.4,0.8-0.6,1.1
	c-2.2-0.8-4.5-1.2-6.6-1.7c-0.1,0-0.2,0-0.3-0.1c0-0.5,0-1-0.1-1.5C58.5,33.3,58.6,33.2,58.6,33z M58.6,32.2c1.6-1.4,3.3-2.8,5.1-4
	c1,2.1,1.9,4.4,2,6.4C63.4,33.7,61,32.9,58.6,32.2z M64.1,26.7c-0.8-1.7-1.8-3.4-2.8-5c1.2-0.7,2.6-1.4,3.9-1.9
	c0.1,0.7,0.2,1.3,0.4,2c0.3,1.4,0.5,2.7,0.6,4.1c-0.7,0.3-1.3,0.6-2,1C64.2,26.9,64.2,26.8,64.1,26.7z M60.9,20.9
	C60,19.4,59,18,58,16.6c2.1-0.9,4.2-1.6,6.2-2c0.4,1.4,0.7,2.9,1,4.4C63.7,19.4,62.3,20.1,60.9,20.9z M60.1,21.4
	c-0.9,0.6-1.8,1.3-2.7,1.9c-0.3-2-0.6-4-1-6c0.2-0.1,0.5-0.2,0.7-0.3C58.1,18.4,59.1,19.9,60.1,21.4z M56.2,16.6
	c-0.1-0.4-0.1-0.7-0.2-1.1c0.2,0.3,0.4,0.6,0.7,0.8C56.5,16.5,56.3,16.6,56.2,16.6z M56.3,24.2C56.3,24.2,56.3,24.2,56.3,24.2
	c-0.9-1.8-1.9-3.5-3-5.2c0.6-0.4,1.2-0.7,1.9-1.1C55.6,20.1,56,22.1,56.3,24.2z M53,18.5c-0.8-1.1-1.6-2.2-2.4-3.2
	c-0.3-0.4-0.6-0.8-0.9-1.1c1.1-0.8,2.2-1.5,3.4-2.1c0.4,0.5,0.8,0.9,1.1,1.4c0.3,1.3,0.5,2.5,0.8,3.8C54.3,17.7,53.6,18.1,53,18.5z
	 M53.5,10.9c-0.8-1-1.6-2-2.3-3c0.6-0.3,1.1-0.5,1.7-0.8c0.3,1.2,0.6,2.5,0.8,3.7C53.6,10.8,53.5,10.9,53.5,10.9z M52.6,11.4
	c-1.2,0.7-2.3,1.4-3.4,2.2c-0.1-0.2-0.3-0.3-0.4-0.5c-0.3-1.2-0.6-2.3-1-3.5c0.8-0.4,1.7-0.9,2.5-1.3c0,0,0,0.1,0.1,0.1
	C51.1,9.5,51.8,10.4,52.6,11.4z M47.6,8.8c-0.5-1.7-1.1-3.4-1.8-5.1c0.2-0.1,0.5-0.2,0.8-0.2c1.3,1.2,2.3,2.7,3.3,4.2
	C49.1,8,48.3,8.4,47.6,8.8z M47.7,11.7c-0.4-0.5-0.8-1-1.2-1.4c0.2-0.1,0.5-0.3,0.7-0.4C47.4,10.5,47.6,11.1,47.7,11.7z M48.2,13.7
	c0,0.2,0.1,0.3,0.1,0.5c-1,0.8-2.1,1.6-3.1,2.3c-0.5,0.4-1.1,0.8-1.6,1.3c-0.9-1.3-1.8-2.5-2.7-3.6c0-0.1,0-0.2-0.1-0.3
	c1.5-1.2,3.2-2.2,4.9-3.2C46.6,11.7,47.4,12.7,48.2,13.7z M40.7,13.2c-0.5-2-1-3.9-1.6-5.9c0.6-0.5,1.3-0.9,1.9-1.3
	c0.3,0.3,0.6,0.5,0.9,0.8c1.2,1,2.3,2.1,3.4,3.3C43.7,11.1,42.2,12.1,40.7,13.2z M38.9,6.6c-0.4-1.2-0.7-2.3-1.1-3.5
	c0.9,0.7,1.8,1.6,2.6,2.4C39.9,5.9,39.4,6.2,38.9,6.6z M39.8,12.7c-0.9-1.2-1.9-2.4-2.9-3.6c0.5-0.5,1.1-0.9,1.6-1.3
	C39,9.5,39.4,11.1,39.8,12.7z M39.8,13.9c-0.1,0.1-0.2,0.2-0.3,0.2c-1.3,1-2.4,2.2-3.5,3.3C35,16,33.9,14.5,32.7,13
	c1.2-1.2,2.4-2.3,3.7-3.4C37.6,11,38.7,12.5,39.8,13.9z M32.1,12.4c-0.9-1-1.8-1.9-2.8-2.8c0.3-0.9,0.6-1.8,1-2.7
	C30.9,6.4,31.4,6,32,5.6c1.3,1,2.6,2.2,3.8,3.4C34.5,10.1,33.3,11.2,32.1,12.4z M31.4,13.1c-1,1-2,2-2.9,2.9
	c-0.2,0.2-0.4,0.4-0.6,0.6c0.2-2,0.6-4,1.1-6C29.8,11.4,30.6,12.3,31.4,13.1z M28.8,9.1c-0.2-0.2-0.4-0.3-0.6-0.5
	c0.4-0.3,0.7-0.6,1.1-0.9C29.1,8.2,28.9,8.6,28.8,9.1z M28.5,10.2c-0.5,1.5-0.8,3.1-1.1,4.7c-0.1,0.5-0.2,1-0.3,1.6
	c-1-1-2.2-2.1-3.5-3.2c1.2-1.4,2.5-2.7,3.9-3.9C27.8,9.6,28.1,9.9,28.5,10.2z M25.9,16.6c0.3,0.3,0.7,0.7,1,1c0,0,0,0.1,0,0.1
	c-1.7,1.9-3.4,3.8-4.9,5.8c-1-1-2.1-2.1-3.1-3.1c-0.1-0.1-0.2-0.2-0.3-0.3c0-0.2,0-0.5,0-0.7c1.1-1.6,2.3-3,3.4-4.5
	c0.3-0.3,0.5-0.7,0.8-1C24,14.9,25,15.8,25.9,16.6z M20.8,15.1c-0.7,0.8-1.3,1.7-2,2.6c0.2-2.1,0.4-4.2,0.8-6.3
	c0.9,0.6,1.8,1.3,2.6,2C21.7,13.9,21.2,14.5,20.8,15.1z M19.2,10.1c-0.2-0.1-0.5-0.3-0.7-0.4c0.5-0.6,1-1.2,1.5-1.8
	C19.6,8.6,19.4,9.3,19.2,10.1z M18.9,10.9c-0.4,1.6-0.6,3.2-0.8,4.8c-0.1,1.1-0.3,2.3-0.4,3.4c0,0,0,0,0,0.1
	c-1.1-1.1-2.2-2.2-3.3-3.2c1-1.9,2.2-3.9,3.6-5.7C18.3,10.5,18.6,10.7,18.9,10.9z M13.9,25.4c-0.8,1.5-1.6,3.1-2.1,4.7
	c0.1-2.3,0.2-4.6,0.2-6.9C12.7,23.9,13.3,24.6,13.9,25.4z M11.5,18.9c0,0.2,0,0.4,0,0.6c-0.2,0.5-0.4,0.9-0.7,1.4
	c-0.9-0.8-1.9-1.5-3-2c0.9-1.7,1.9-3.3,2.8-4.9c0.4,0.4,0.9,0.7,1.3,1.1C11.8,16.3,11.6,17.6,11.5,18.9z M8.4,29.9
	c0.8-2.5,1.8-4.9,2.8-7.3c-0.2,3.3-0.3,6.7-0.3,10C10.3,31.6,9.3,30.7,8.4,29.9z M10.3,33.3c-1.1,0.4-2.2,0.9-3.3,1.3
	c0.5-1.2,0.8-2.7,1.1-3.8C8.8,31.7,9.5,32.6,10.3,33.3z M10.4,21.7c-0.7,1.5-1.3,3-2,4.5c-0.4,0.9-0.8,1.9-1.1,2.9
	c-0.4-0.4-0.9-0.7-1.3-1c0.1-1.4,0.2-2.8,0.3-4.2c0-0.8,0.1-1.6,0.2-2.4c0.3-0.6,0.6-1.3,0.9-1.9C8.4,20.4,9.5,21,10.4,21.7z
	 M7,29.8C7.1,29.8,7.1,29.8,7,29.8c-0.3,1.4-0.7,2.7-1.2,4c0-1.6,0.1-3.2,0.2-4.8C6.4,29.2,6.7,29.5,7,29.8z M6.3,35.9
	c1.5-0.7,3-1.4,4.6-1.9c0,0.5,0,1.1,0,1.6c-1.7,0.4-3.4,0.9-5,1.5c0-0.3,0-0.5,0-0.8C6,36.2,6.2,36.1,6.3,35.9z M17.7,65.6
	c0.9,0.5,1.9,0.9,2.9,1.3c2.5,7.4,5,14.9,7.2,22.4c-1-0.1-2-0.2-2.9-0.2c-3.9-8-6.5-16.6-9.8-25C16,64.7,16.9,65.2,17.7,65.6z
	 M26.1,90.4c0.1,1.5,0.7,4.9,1.4,6.3c-0.5,0-1.1,0-1.7-0.1c0,0,0,0,0,0c-1.3-2-2.1-4.1-2.8-6.3C24,90.3,25.1,90.3,26.1,90.4z
	 M26.8,90.4c0.9,0.1,1.8,0.1,2.8,0.1c0,0,0,0,0,0c-0.2,2,0.4,4.2,0.7,6.1c-0.6,0-1.2-0.1-1.9-0.1c0,0-0.1,0-0.1,0
	c-0.1-0.6-0.5-1.6-0.6-1.9C27.3,93.4,27.2,91.8,26.8,90.4z M30.1,90.6C30.1,90.6,30.1,90.6,30.1,90.6c0.7,0,1.3,0,2,0
	c0.2,1.4,0.3,2.7,0.4,4.1c0.1,0.5,0.1,1.6,0.4,2.2c-0.6,0-1.2,0-1.8-0.1C30.8,94.7,30.3,92.7,30.1,90.6z M32.8,90.5
	c0.1,0,0.2,0,0.3,0c0.8-0.1,1.5-0.1,2.3-0.2c-0.3,1.1-0.2,2.3-0.1,3.4c0,0.9-0.1,2.2,0.2,3.1c-0.5,0-1,0-1.5,0c0-0.4-0.2-0.7-0.3-1
	c-0.2-0.6-0.3-1.3-0.4-1.9C33.1,92.8,33,91.7,32.8,90.5z M33.7,89.4c-0.3-0.9-0.5-1.9-0.8-2.8c0.2,0.5,0.7,0.9,1.5,1
	c0.5,0.1,1,0,1.5-0.1c0,0.5,0,1,0,1.5c0,0.1,0,0.2,0.1,0.2C35.3,89.3,34.5,89.3,33.7,89.4z M37.1,89.2c-0.1-0.6-0.1-1.3-0.2-1.9
	c0.8-0.3,1.6-0.8,2.2-1.3c0.9-0.8,0.4-1.6-0.4-1.8c0,0,0-0.1,0-0.1c0.1-2.7,1.3-5,3-7c-0.7,4.1-1.5,8.2-3,12.1
	C38.2,89.1,37.7,89.1,37.1,89.2z M39.7,89c1.5-4.2,2.3-8.6,3-13c1.3-1.3,2.7-2.4,4.2-3.4c-0.3,0.9-0.6,1.8-0.9,2.7
	c-1.5,4.4-0.8,9.2-2.3,13.6C42.3,88.9,41,89,39.7,89z M46.6,94.8c0.3-1.4,0.7-3.3,0.5-4.8c0.3,0,0.5,0,0.8,0c0.1,0.1,0.3,0.1,0.5,0
	c0.3,0,0.5,0,0.8,0c-0.4,2.4-1.4,4.6-2.5,6.8c-0.2,0-0.4,0-0.5,0C46.4,96.2,46.5,95.3,46.6,94.8z M48,88.9c-1.2,0-2.3-0.1-3.5-0.1
	c1.2-4,0.7-8.3,1.8-12.4c0.4-1.5,0.9-3,1.4-4.4c1.4-0.9,2.8-1.7,4-2.5c0.6-0.4,1.2-0.7,1.8-1.1c0.1-0.1,0.3-0.1,0.4-0.1
	c0.2-0.1,0.3-0.2,0.3-0.3c0.2-0.1,0.3-0.2,0.4-0.3C52.4,74.8,50.1,81.8,48,88.9z M53.3,67.4c-0.9,0.2-1.8,0.4-2.6,0.8
	c5.3-8.3,7.8-18.4,7.9-28.2c0-1.4,0-2.8-0.1-4.2c2.1,0.4,4.4,0.9,6.5,1.6c-3.4,7.2-5.6,14.9-7.9,22.4c-0.7,2.2-1.3,4.3-2,6.5
	C54.5,66.7,53.9,67.1,53.3,67.4z M57.2,62.1c2.5-8.3,5-16.5,8.4-24.5c0.1,0.1,0.3,0.1,0.4,0.2c0,0.1,0,0.2,0,0.4
	c-0.7,9.5-3.1,18.5-8.4,26.6c-0.5,0.4-1,0.7-1.5,1.1C56.4,64.5,56.8,63.3,57.2,62.1z M64.6,27.6c0.6-0.3,1.1-0.6,1.7-0.9
	c0.1,1.7,0.1,3.3,0,5C65.9,30.3,65.2,28.9,64.6,27.6z M68.9,18.6c-1-0.1-2.1,0-3.1,0.3c-0.2-0.9-0.4-1.9-0.6-2.8
	c-0.1-0.5-0.3-1-0.4-1.5c0.6-0.1,1.1-0.2,1.7-0.3C67.3,15.6,68.2,17.1,68.9,18.6z M65.8,13.5c-0.5,0.1-0.9,0.1-1.4,0.2
	c-0.4-1.2-0.9-2.3-1.4-3.4C64,11.3,65,12.4,65.8,13.5z M61.8,9.3c0.2,0.2,0.4,0.3,0.6,0.5c0.5,1.4,1,2.7,1.5,4.1
	c-2.2,0.5-4.4,1.2-6.4,2.2c-0.7-0.9-1.3-1.8-2-2.6c-0.2-0.7-0.4-1.5-0.6-2.2c2.1-1,4.4-1.6,6.6-1.7C61.7,9.4,61.8,9.4,61.8,9.3z
	 M58.5,6.9c0.8,0.5,1.6,1.1,2.4,1.7c-2.2,0.2-4.3,0.9-6.2,1.8c-0.3-1.2-0.7-2.4-1-3.6c0.8-0.4,1.6-0.8,2.5-1.2
	C56.9,5.9,57.7,6.4,58.5,6.9z M55.2,5.1c-0.6,0.3-1.2,0.6-1.8,0.8C53.2,5.3,53,4.7,52.7,4C53.6,4.4,54.4,4.7,55.2,5.1z M48.6,3
	c0.2,0,0.3-0.2,0.3-0.3C50,3,51,3.4,52.1,3.7c0.2,0.8,0.4,1.7,0.6,2.5c-0.7,0.3-1.3,0.6-2,1c-0.1-0.2-0.3-0.4-0.4-0.5
	c-0.8-1.2-1.7-2.4-2.8-3.5C47.8,3.2,48.2,3.1,48.6,3z M47.1,2.2c-0.2,0-0.5,0.1-0.7,0.2C46.2,2.2,46,2,45.7,1.9
	C46.2,2,46.7,2.1,47.1,2.2z M47,9.2c-0.3,0.2-0.7,0.4-1,0.6c-1.1-1.2-2.3-2.4-3.5-3.6C42.3,6,42,5.8,41.8,5.6
	c1.2-0.7,2.3-1.3,3.6-1.7C46,5.6,46.5,7.4,47,9.2z M39.5,1.1c1.5,0.1,2.9,0.2,4.4,0.5c0,0.1,0.1,0.2,0.1,0.2
	c0.3,0.1,0.5,0.3,0.8,0.4C44.9,2.4,45,2.6,45,2.9c-1.3,0.5-2.6,1.3-3.9,2.1c-1.1-1-2.3-2.1-3.5-3C38.3,1.7,38.9,1.4,39.5,1.1z
	 M36.9,2.5c0.5,1.5,0.9,3,1.3,4.6c-0.7,0.5-1.3,1-2,1.5c-1.1-1.2-2.4-2.4-3.7-3.4C34,4.2,35.4,3.3,36.9,2.5
	C36.9,2.5,36.9,2.5,36.9,2.5z M35,1.4c0.3,0.1,0.5,0.3,0.8,0.4c-1.4,0.8-2.8,1.7-4.1,2.7c-0.1,0-0.1-0.1-0.2-0.1c0.6-1,1.2-2,2-2.9
	C34,1.4,34.5,1.4,35,1.4z M32.8,1.5c-0.6,0.8-1.2,1.7-1.7,2.5c-1.1-0.7-2.3-1.3-3.6-1.6C29.2,2,31,1.7,32.8,1.5z M26.4,2.7
	c0.1,0,0.1,0,0.2-0.1c1.5,0.5,2.8,1.2,4.1,2c-0.2,0.3-0.3,0.6-0.5,0.9c-1,0.8-1.9,1.6-2.8,2.4c-1.5-1.1-3.1-2.1-4.8-2.8
	C23.8,4.2,25.1,3.4,26.4,2.7z M26.7,8.7c-1.3,1.3-2.6,2.6-3.8,3.9c-1-0.8-2-1.5-3-2.1c0.4-1.5,0.9-2.9,1.7-4.3
	c0.2-0.2,0.4-0.3,0.5-0.5C23.7,6.5,25.3,7.5,26.7,8.7z M22,4.3c-0.1,0.2-0.3,0.3-0.4,0.5c-0.1,0-0.3-0.1-0.4-0.1
	C21.5,4.5,21.8,4.4,22,4.3z M20.5,5c0.2,0.1,0.5,0.2,0.7,0.3c0,0.1-0.1,0.1-0.1,0.2c-1.3,1.1-2.4,2.4-3.5,3.8
	c-0.9-0.4-1.7-0.8-2.6-1C16.8,7,18.6,5.9,20.5,5z M17.2,9.9c-1.3,1.8-2.5,3.7-3.6,5.5c-0.3-0.3-0.6-0.5-0.9-0.7c0.4-2,0.9-4,1.8-5.9
	C15.5,9.1,16.3,9.5,17.2,9.9z M13.9,9.2c-0.8,1.6-1.4,3.3-1.8,5c-0.4-0.3-0.8-0.6-1.1-0.8c0.7-1.2,1.5-2.4,2.2-3.7
	C13.5,9.5,13.7,9.3,13.9,9.2z M11.9,10.9c-0.5,0.7-1,1.4-1.4,2.1c-0.1-0.1-0.3-0.2-0.4-0.3C10.6,12.1,11.3,11.5,11.9,10.9z
	 M7.8,15.4c0.6-0.8,1.3-1.5,1.9-2.3c0.1,0.1,0.3,0.2,0.4,0.3c-1.1,1.6-2,3.3-3,5c-0.1,0-0.2-0.1-0.2-0.1C7.1,17.4,7.4,16.4,7.8,15.4
	z M6.7,16.9c-0.1,0.4-0.2,0.8-0.3,1.2C6.2,18.1,6.1,18,6,18C6.2,17.6,6.5,17.2,6.7,16.9z M5.8,18.2c0.1,0.1,0.3,0.3,0.4,0.4
	c-0.1,0.6-0.2,1.3-0.3,1.9c0,0.2,0,0.3,0,0.5c-0.8,1.8-1.6,3.6-2.3,5.4c-0.4-0.2-0.8-0.5-1.3-0.7C3.2,23.1,4.4,20.6,5.8,18.2z
	 M2.3,33.4c0.5-2,1.1-4,1.8-5.9c0.4,0.3,0.8,0.6,1.2,0.9C5.2,30,5.1,31.6,5,33.2c0,0.7,0,1.5,0,2.3C4.2,34.6,3.3,34,2.3,33.4z
	 M4.5,35.9c-1.1,0.6-2.1,1.3-3.2,2c0.2-1.3,0.5-2.6,0.8-3.8C3,34.6,3.8,35.2,4.5,35.9z M4.3,26.9c0.4-1.2,0.9-2.3,1.4-3.4
	c-0.1,1.4-0.2,2.7-0.3,4.1C5,27.3,4.6,27.1,4.3,26.9z M2.2,26.3c0.4,0.3,0.8,0.5,1.2,0.8c-0.7,2-1.3,4-1.8,6
	c-0.2-0.1-0.4-0.2-0.6-0.3C1.1,30.6,1.5,28.4,2.2,26.3z M0.9,33.5c0.2,0.1,0.3,0.2,0.5,0.3c-0.2,0.9-0.4,1.7-0.6,2.6
	C0.8,35.4,0.8,34.4,0.9,33.5z M1,39.1c1.3-0.9,2.6-1.8,4-2.5c0,0.3,0,0.6,0,0.9c-1.4,0.6-2.7,1.4-3.9,2.5C1.1,39.7,1,39.4,1,39.1z
	 M2,44.1c-0.3-1.1-0.6-2.3-0.7-3.4c1.1-1,2.4-1.8,3.8-2.4c0.4,7.4,2.3,15.2,5.7,21.6c-0.5-0.5-1-0.9-1.6-1.4
	C5.2,54.7,3.4,49.4,2,44.1z M16.1,79.9C13.4,74,9.8,68.7,8.1,62.4c-0.6-2.4-1.4-4.8-2.4-7.1c1.6,2.4,3.5,4.6,5.8,6.3
	c0.1,0.1,0.2,0.2,0.3,0.2C11.9,62,12,62,12,62c0.6,0.5,1.3,0.9,1.9,1.3c3.4,8.5,6.3,17.3,9.9,25.7c-1.4,0-2.7,0.1-4,0.5
	C18.4,86.1,17.3,82.4,16.1,79.9z M24,96.1c-0.1-0.1-0.2-0.1-0.2,0c-1.4-1.6-2.6-3.7-3.5-5.8c0.7,0,1.4,0,2.1,0
	c0.5,2.2,1.2,4.3,2.4,6.2C24.4,96.4,24.1,96.3,24,96.1z M24.9,97.2c0.5,0.2,1.1,0.3,1.7,0.4c0,0,0,0,0,0.1c0,0.3,0.1,0.6,0.3,0.9
	C26.2,98.1,25.5,97.7,24.9,97.2z M27.7,98.9c0,0-0.1-0.1-0.1-0.1c-0.2-0.4-0.4-0.7-0.6-1.2c0.7,0.1,1.5,0.1,2.1,0.1c0,0,0,0,0,0
	c0,0.2,0,0.4,0.1,0.6c0.1,0.2,0.2,0.5,0.3,0.7c0,0.1,0.1,0.2,0.1,0.3C29,99.3,28.4,99.1,27.7,98.9z M31.4,99.3c0,0-0.1,0-0.2,0
	c-0.2,0-0.5,0-0.7,0c-0.1-0.2-0.3-0.4-0.4-0.6c-0.1-0.2-0.3-0.5-0.5-0.7c-0.1-0.1-0.2-0.2-0.4-0.3c0.7,0,1.3,0,1.7,0
	c0.3,0,0.6,0,0.9,0c0,0.2,0.1,0.4,0.1,0.6c0.1,0.3,0.3,0.6,0.4,0.9C32,99.3,31.7,99.3,31.4,99.3z M33,99.2c-0.1-0.3-0.3-0.7-0.4-1
	c-0.1-0.1-0.1-0.3-0.2-0.4c0.6,0,1.2,0,1.8,0.1c0,0.1,0,0.2,0,0.3c0,0.3,0.1,0.7,0.2,1.1C34,99.1,33.5,99.1,33,99.2z M36.8,99.2
	c0,0-0.1,0-0.1,0c-0.6,0-1.1-0.1-1.7-0.1c0,0,0-0.1,0-0.2c-0.1-0.3-0.2-0.6-0.3-1c0-0.1,0-0.1,0-0.2c0.7,0,1.4,0,2.1,0.1
	C36.8,98.3,36.8,98.8,36.8,99.2z M39.1,99.2c-0.5,0-1.1,0-1.6,0c0-0.4,0-0.9,0-1.3c0.6,0,1.2,0,1.8,0C39.3,98.4,39.2,98.8,39.1,99.2
	z M41.3,98.6c-0.1,0.2-0.3,0.4-0.4,0.6c-0.4,0-0.7,0-1.1,0c0.1-0.4,0.1-0.9,0.1-1.3c0.5,0,1.1,0,1.6,0
	C41.5,98.2,41.4,98.4,41.3,98.6z M41.5,96.9c0.2-0.7-0.1-1.9-0.1-2.5c0-1.3,0.3-3,0-4.3c0.8,0,1.6,0,2.4,0c-0.2,0.9-0.1,1.9-0.1,2.7
	c0,1.4-0.3,2.7-0.5,4.1C42.6,96.9,42,96.9,41.5,96.9z M41.7,99.3c0.1-0.1,0.1-0.3,0.2-0.4c0.1-0.3,0.2-0.6,0.2-0.9c0.7,0,1.3,0,2,0
	c-0.1,0.2-0.1,0.4-0.2,0.5c-0.2,0.3-0.4,0.5-0.6,0.8c-0.2,0-0.4,0.1-0.6,0.1C42.4,99.3,42,99.3,41.7,99.3z M47,98.2
	c-0.8,0.5-1.7,0.8-2.7,1c0.2-0.4,0.4-0.8,0.4-1.1c0.8,0,1.7,0,2.5,0C47.2,98,47.1,98.1,47,98.2z M51,90.9c-0.7,2-1.3,4.3-2.6,6
	c-0.3,0-0.6,0-0.8,0c1-2.1,2-4.3,2.2-6.7c0.5,0,1,0,1.4,0c0,0,0,0,0.1,0C51.1,90.4,51.1,90.6,51,90.9z M64.3,61.4
	c-2.3,5.3-5,10.5-7.4,15.8c-1.9,4-3.7,8-5.3,12.2c-0.1-0.1-0.2-0.2-0.4-0.2c-0.8-0.1-1.6-0.1-2.4-0.2c2.2-7.3,4.6-14.6,6.8-21.9
	c0.6-0.4,1.2-0.8,1.8-1.3c0.2,0.1,0.5,0.1,0.7-0.2c0.2-0.3,0.4-0.6,0.6-0.8c2.5-2,4.8-4.1,6.9-6.7C65.2,59.2,64.8,60.3,64.3,61.4z
	 M69.5,49.6c-0.6,1.1-1.2,2.3-1.7,3.5c-1.9,3.5-4.5,6.7-7.5,9.4c4.1-7,5.8-15.1,6.5-23.2c0-0.4,0.1-0.8,0.1-1.2
	c1.8,0.8,3.4,2,4.5,3.6c0.1,0.2,0.3,0.2,0.4,0.2C71.3,44.6,70.5,47.2,69.5,49.6z M71.9,41.1c-1.2-1.7-3-2.9-5-3.8
	c0-0.4,0.1-0.9,0.1-1.4c1.8,0.7,3.6,1.5,4.9,2.9c0.1,0.1,0.1,0.1,0.2,0.1C72.1,39.7,72,40.4,71.9,41.1z M72.3,37.8
	c-1.5-1.3-3.3-2-5.2-2.7c0.3-0.3,0.4-0.7,0.7-0.9c0.4-0.4,1-0.7,1.6-1c0.9-0.4,1.9-0.8,2.9-0.9c0.1,0.8,0.1,1.6,0.1,2.3
	C72.4,35.6,72.4,36.7,72.3,37.8z"/>
</svg>
