<?xml version="1.0" encoding="utf-8"?>
<!-- Generator: Adobe Illustrator 18.0.0, SVG Export Plug-In . SVG Version: 6.00 Build 0)  -->
<!DOCTYPE svg PUBLIC "-//W3C//DTD SVG 1.1//EN" "http://www.w3.org/Graphics/SVG/1.1/DTD/svg11.dtd">
<svg version="1.1" id="Слой_1" xmlns="http://www.w3.org/2000/svg" xmlns:xlink="http://www.w3.org/1999/xlink" x="0px" y="0px"
	 viewBox="0 0 82.1 101.9" enable-background="new 0 0 82.1 101.9" xml:space="preserve">
<g>
	<path fill="#FFFFFF" d="M37.9,75.2c1.3-0.3,1.6-1.7,1.1-2.7c-0.1-0.3-0.3-0.5-0.5-0.6c0,0,0-0.1,0-0.2c-0.1-0.2-0.3-0.3-0.5-0.2
		c0-0.1-0.1-0.2-0.3-0.2c-0.3,0.1-0.7,0.3-0.9,0.6c-0.2,0.1-0.4,0.2-0.5,0.4c-0.1,0.1-0.1,0.2-0.1,0.3c-0.2,0.4-0.4,0.8-0.4,1.2
		C35.6,75.1,36.8,75.5,37.9,75.2z M36.4,73.5c0-0.2,0.1-0.3,0.2-0.5c0.1,0,0.2,0,0.3-0.1c0.2-0.2,0.4-0.3,0.7-0.4
		c0.2,0,0.4,0.1,0.5,0.3c0,0,0,0.1,0,0.1c0,0,0.1,0.1,0.1,0.1c0.3,0.6,0,1.3-0.7,1.5C36.7,74.8,36.2,74.4,36.4,73.5z"/>
	<path fill="#FFFFFF" d="M46,39.2c6.1,0,10.8-4.2,11.9-9.8C58,29.3,58,29,58,28.8c0.2-1.3,0.1-2.6-0.1-3.9c-0.9-4.9-4.7-8.3-9.1-9.3
		c0-0.1-0.1-0.2-0.2-0.2c-0.5-0.1-1-0.1-1.5-0.1c-2.1-0.2-4.3,0.2-6.3,1.3c0,0-0.1,0-0.1,0.1C37.2,18.2,34.5,21,34,25
		c-0.4,3.4,0.3,7.5,2.2,10.3C38.2,38.2,42.8,39.2,46,39.2z M43.8,35c0,0.8,0.1,1.6,0.1,2.4c0,0.3,0,0.6,0,0.9
		c-1.9-0.2-3.8-0.9-5.4-2c0.1-0.1,0.2-0.3,0.4-0.5c0.4-0.5,0.9-1,1.3-1.5c0.7-0.8,1.6-1.7,2-2.7c0.5,0.5,1.2,0.8,1.9,1
		C43.8,33.2,43.8,34.3,43.8,35z M45.2,38.3c-0.1,0-0.2,0-0.4,0c0.1-0.7-0.1-1.7-0.2-2.2c0-0.7-0.1-1.3,0-2c0-0.5,0.1-0.9,0.2-1.3
		c0.1,0,0.3,0.1,0.5,0.1c0.6,0.1,1.2,0,1.7-0.1c0.1,1.8-0.1,3.6,0.2,5.4C46.6,38.2,45.9,38.3,45.2,38.3z M48,37.9
		c-0.2-1.8,0-3.6-0.6-5.3c0.9-0.2,1.6-0.7,2.2-1.3c1.1,1.4,2.1,2.9,3.3,4.2C51.5,36.7,49.8,37.5,48,37.9z M53.5,35
		c-1.3-1.3-2.3-2.8-3.6-4.1c0.4-0.5,0.7-1,0.9-1.7c2,0.3,4.1,0.5,6.2,0.3C56.4,31.8,55.2,33.6,53.5,35z M57.4,26.7
		c0,0.6,0,1.3-0.2,1.9c-2.1,0.2-4.1,0-6.2-0.1c0.1-0.4,0.1-0.8,0.1-1.2c0-0.1,0-0.3,0-0.4c0.7,0.3,1.5,0.2,2.3,0.2
		C54.7,27,56.1,26.7,57.4,26.7C57.4,26.7,57.4,26.7,57.4,26.7z M54.9,20.1c1,1.1,1.8,2.5,2.2,4.1c0.1,0.6,0.2,1.1,0.3,1.7
		c-1.1,0-2.1,0.2-3.2,0.3c-1.1,0.1-2.1,0.1-3.2,0.1c-0.2-0.6-0.5-1.2-0.8-1.8C51.8,23.1,53.5,21.7,54.9,20.1z M54.5,19.7
		c-1.6,1.4-3.2,2.8-4.9,4.2c-0.6-0.7-1.3-1.2-2.1-1.5c0.1-0.9-0.1-2-0.2-2.8c-0.1-1,0-2.2-0.3-3.2C49.9,16.7,52.6,17.8,54.5,19.7z
		 M46.9,23.4c0.1,0.2,0.3,0.2,0.4,0.1c0,0,0,0,0-0.1c0.7,0.3,1.4,0.7,1.9,1.2c0,0.1,0.1,0.1,0.1,0.1c0.5,0.6,0.9,1.5,1,2.6
		c0.3,3-2.7,5.1-5.4,4.6c-2.4-0.4-4-2.3-4.2-4.7c-0.1-2.7,2.3-4,4.7-4.3c0.5,0.1,0.9,0.2,1.3,0.3C46.9,23.3,46.9,23.3,46.9,23.4z
		 M44,16.4c0.9-0.1,1.7-0.1,2.6,0c-0.2,1,0,2.2,0.1,3.2c0,0.8,0,1.7,0,2.5c-0.7-0.1-1.5-0.1-2.2,0.2c-0.1,0-0.2,0.1-0.2,0.2
		c0,0-0.1,0-0.1,0C44,20.5,43.7,18.4,44,16.4z M42.8,16.6c0.2,0,0.4-0.1,0.6-0.1c-0.4,2.1-0.1,4.1,0.1,6.2c-0.7,0.2-1.3,0.6-1.9,1
		c-1.6-1.1-3.3-2.2-4.6-3.7C38.6,18.4,40.6,17.2,42.8,16.6z M34.9,24.4c0.3-1.5,0.9-2.8,1.8-3.8c1.2,1.5,2.8,2.6,4.4,3.7
		c-0.4,0.5-0.7,1.1-0.8,1.7c-1.8-0.1-3.8-0.2-5.6,0.2C34.7,25.6,34.8,25,34.9,24.4z M34.7,26.9c1.8,0.1,3.7,0.1,5.5,0
		c0,0.7,0.1,1.4,0.4,2.1c-1.9,0.1-3.8,0.3-5.7,0.3C34.7,28.5,34.7,27.7,34.7,26.9z M34.9,30c1.9,0.2,4,0.4,5.8-0.1
		c0,0,0.1,0,0.1-0.1c0.3,0.5,0.6,1,1,1.4c0,0-0.1,0.1-0.1,0.1c-0.4,1.1-1.6,2-2.4,2.8c-0.3,0.3-1.2,1-1.5,1.6
		c-0.7-0.6-1.3-1.3-1.8-2.1C35.6,32.5,35.2,31.3,34.9,30z"/>
	<path fill="#FFFFFF" d="M43.1,27.4c-0.2,1.7,1.4,2.7,2.9,2.4c1.5-0.3,2.3-1.6,2-3.1c-0.1-0.6-0.5-1.2-1-1.5c-0.5-0.3-1.4-0.5-2-0.1
		C44,25.3,43.2,26.4,43.1,27.4z M46.5,25.8c0.4,0.2,0.6,0.6,0.7,1c0.3,0.9-0.2,1.8-1.1,2.1c-1.1,0.3-2.2-0.3-2.2-1.4
		c0-0.5,0.2-0.9,0.5-1.3c0.3-0.3,0.6-0.4,1-0.5C45.8,25.7,46.2,25.7,46.5,25.8z"/>
	<path fill="#FFFFFF" d="M62.7,53.9c0-0.5-0.1-1.1-0.2-1.6c-0.8-3.4-5.7-6.3-9.2-5.4c-4.1,0.6-8,3.7-7.7,8.2c0.2,4.9,5.5,8.1,10,7.4
		c4-0.6,7-4,7.2-7.8C63,54.4,62.9,54.1,62.7,53.9z M52.9,55.3c-0.6,0.7-1.1,1.4-1.7,2.1c-0.2-0.3-0.4-0.5-0.6-0.8
		c-0.2-0.4-0.3-0.7-0.4-1.1C51.1,55.5,52,55.4,52.9,55.3z M50.2,54.8c0-0.6,0.3-1.1,0.6-1.6c0.3,0.2,0.7,0.5,1,0.7
		c0.2,0.2,0.5,0.4,0.8,0.6C51.7,54.5,51,54.6,50.2,54.8z M53.5,55.8c0.1,1,0.1,2,0.2,3c-0.7-0.1-1.3-0.4-1.8-0.8
		C52.4,57.3,52.9,56.6,53.5,55.8z M53.3,54c-0.5-0.3-1-0.7-1.5-1c-0.1-0.1-0.3-0.2-0.5-0.4c0.4-0.3,0.8-0.5,1.3-0.7
		c0,0.1,0.1,0.2,0.2,0.2c0.1,0,0.1,0,0.2,0C53.2,52.7,53.3,53.4,53.3,54z M52.4,47.6c0.1,0.1,0.1,0.1,0.2,0.1c0.1,0,0.3,0,0.4,0
		c-0.5,0.8-0.1,2.6,0,3.2c0,0.1,0,0.2,0,0.3c-0.9,0.1-1.6,0.4-2.2,0.9c-0.9-0.8-1.9-1.5-3-1.7C49,49.1,50.7,48.2,52.4,47.6z
		 M47.4,50.8c0.8,0.7,1.8,1.3,2.7,1.9c-0.4,0.6-0.7,1.2-0.7,2.1c-1,0.1-2.1,0.2-3.1,0.1C46.1,53.3,46.5,52,47.4,50.8z M46.5,55.7
		c0-0.1,0-0.1,0-0.2c1,0.2,2,0.2,3,0.1c0,0.1,0,0.1,0,0.1c0.1,0.9,0.5,1.8,1.1,2.4c-0.5,0.6-1,1.2-1.5,1.7
		C47.9,58.8,46.9,57.3,46.5,55.7z M49.7,60.4c0.5-0.5,1-1.1,1.5-1.6c0.7,0.6,1.6,0.9,2.5,1c0,0.7,0,1.4,0,2.1
		C52.2,61.8,50.9,61.2,49.7,60.4z M53.6,47.7c1.7,0,3.3,0.3,4.7,1.1c-0.6,0.8-1.2,1.5-1.9,2.3c-0.7-0.3-1.8-0.4-2.6-0.1
		C53.7,49.8,53.7,48.7,53.6,47.7z M54.6,54.3c0.1-0.1,0.2-0.3,0.3-0.4c0.5-0.6,1-1.2,1.6-1.8c0.7,0.3,1.3,0.9,1.6,1.7
		c0,0.1,0.1,0.2,0.1,0.4C57,54.3,55.8,54.3,54.6,54.3z M58.2,55.1c-0.1,0.6-0.4,1.2-0.8,1.8c-0.5-0.4-0.9-0.7-1.4-1.1
		c-0.3-0.2-0.6-0.4-0.9-0.6C56.2,55.2,57.2,55.2,58.2,55.1z M53.9,52.1c0.6-0.1,1.1-0.2,1.8-0.1c-0.6,0.6-1.1,1.3-1.7,2
		C54,53.3,54,52.7,53.9,52.1z M55,56c0.7,0.4,1.3,0.9,2,1.4c-0.3,0.3-0.6,0.6-1,0.8c-0.6,0.4-1.2,0.6-1.8,0.6c0-1.1-0.1-2.3-0.1-3.4
		C54.4,55.6,54.7,55.8,55,56z M56.1,61.5c-0.6,0.2-1.3,0.3-1.9,0.3c0-0.7,0-1.4,0-2c0.6,0,1.2-0.2,1.8-0.4c0.7-0.3,1.2-0.8,1.7-1.3
		c0.6,0.5,1.2,1,1.9,1.4C58.5,60.4,57.3,61.1,56.1,61.5z M60.1,58.9c-0.7-0.4-1.3-0.9-2-1.4c0.5-0.7,0.8-1.5,0.9-2.4
		c1.1-0.1,2.1-0.2,3.2-0.4C62.2,56.2,61.3,57.7,60.1,58.9z M59.1,54.1c0-0.2,0-0.4-0.1-0.5c-0.2-1-1-1.7-1.8-2.2
		c0.6-0.7,1.2-1.5,1.6-2.4c0.9,0.6,1.8,1.3,2.5,2.2c0.6,0.8,0.9,1.7,1,2.6C61.2,54,60.2,54.1,59.1,54.1z"/>
	<path fill="#FFFFFF" d="M81.2,45.7c1.5-5.3,0.8-11.1,0.3-16.4c-0.6-5.7-2.4-10.5-6-14.9C72,10,67.3,5.8,62.1,3.6
		c-2.9-1.2-5.9-2.2-8.9-3.1c-3-0.9-5.8-0.5-8.8-0.3c0,0-0.1,0-0.1,0c-0.1,0-0.2,0-0.4,0c0,0,0,0,0,0c-9.6,0.8-19.2,6.1-24.8,13.4
		c-4,5.2-4.2,13.2-3.8,19.5c0.1,2,0.3,4-0.2,6c-0.5,2.1-2.4,3.7-3.9,5.1c-2.2,2-4.5,3.7-6.9,5.3c-1.9,1.3-6.5,4.8-2.7,6.7
		c1.7,0.9,4.1,0.3,5.9,0.2c1.8-0.2,3.8-0.1,5,1.5c1.5,2.1-0.2,4.6-1.3,6.4c-1.6,2.5,0.4,3.6,0.4,6.4c0,1,0.5,1.7,1.2,2.4
		c2.4,2.2,1.1,3.9,0.6,6.2c-0.9,3.7,2.2,6.1,5.7,7.6c0.1,0.1,0.2,0.2,0.4,0.2h0c2.2,0.9,4.5,1.5,5.9,2c0,0,0.1,0,0.1,0
		c0.5,0.3,1.1,0.4,1.6,0.6c3.2,1.1,5.1,2.5,5.2,6.2c0.2,5,2.5,6.3,7.2,5.9c0.2,0,0.4-0.1,0.4-0.3c4.2,0.2,8.5-0.4,12.7-0.4
		c5.1,0,10.3,0.5,15.4,0.1c0.2,0,0.4-0.2,0.4-0.3c2.4-1.1,2-2.9,0.3-5.3c-3.7-5.3-9.4-12-7.5-18.8C64.7,64.6,77.8,58,81.2,45.7z
		 M71.9,48.9c-0.6,0.1-1.2,0.1-1.8,0c0-0.4-0.1-0.8-0.2-1.2c-0.2-0.7-0.3-1.4-0.4-2.2c0.6,0.1,1.3,0.1,2,0c0.6-0.1,1.1-0.2,1.6-0.4
		c-0.2,0.7-0.5,1.4-0.8,2.1C72.1,47.8,71.7,48.3,71.9,48.9z M32.6,84.4c2.9,2.7,4.7,5.8,8.3,7.8c3.8,2.1,8.5,2.6,12.7,2
		c0.2,0.3,0.3,0.6,0.5,0.9c-4.8,0.9-9.2,0.5-13.6-1.6c-3.8-1.8-6.1-5.4-8.7-8.6C32,84.8,32.4,84.6,32.6,84.4z M29.6,84.3
		c1-0.5,1.9-0.9,2.9-1.5C32.9,83.8,30.3,85.2,29.6,84.3z M40.5,91.2c-3.2-1.8-4.7-5-7.5-7.2c0.4-0.5,0.6-1.1,0.2-1.6
		c0.7-0.4,1.4-0.8,2-1.3c0.2,0.5,0.7,0.6,1.2,0.5c0.5,2.6,3.1,4.7,5.1,6.2c2.9,2.2,6.3,2.8,9.9,2c0.6,1.2,1.2,2.3,1.7,3.5
		C48.7,93.5,44.5,93.5,40.5,91.2z M35.6,80.8c0.7-0.5,1.5-1.1,2.3-1.8c0.1,0.6-0.2,1.2-0.8,1.6C36.8,80.9,36,81.2,35.6,80.8z
		 M36.9,81.5c0.3-0.1,0.5-0.2,0.7-0.3c0.2-0.1,0.3-0.3,0.5-0.4c1.8,4.9,7.4,7.8,12.3,7.1c0.2,0.3,0.3,0.7,0.5,1
		C44.8,89.9,39.9,86.7,36.9,81.5z M43.4,85.7c-2.2-1.3-3.4-3.4-5.1-5.2c0.5-0.6,0.7-1.4,0.3-2.1c0.9-0.8,1.7-1.8,2.4-2.8
		c1,0.6,2.1,0.9,3.3,0.9c0.2,0.7,0.8,1.1,1.6,1.2c0,0,0,0.1,0,0.1c0.1,0.2,0.2,0.5,0.3,0.7c0,0,0,0,0,0.1c0,0,0,0,0,0
		c0,0.1,0.1,0.2,0.1,0.3c0.1,0.1,0.1,0.3,0.2,0.5c0.4,2.3,2.5,5.8,3.1,6.8c0.2,0.3,0.3,0.6,0.5,0.9C47.6,87.3,45.5,86.9,43.4,85.7z
		 M45,76.6c1.8,0,3.6-0.5,5.4-1.3C49.8,77.2,46,78.2,45,76.6z M41.1,75.4c0.7-1.1,1.1-2.3,1.1-3.5c4.5,1.1,10.8-1.5,11.3-6.4
		c1.3,0.1,2.7,0.1,4-0.1c-1.4,3.2-2.6,6-5.7,8.1C48.2,75.8,45,75.3,41.1,75.4z M32.1,72.6c-6.5-4.5-9.8-10.8-10.2-18.7
		c-0.3-5.4,0.2-12.3,4.5-16c2.9,3.9,8.4,5.4,13.2,4.9c-1.1,0.7-2.4,0.9-3.7,1.1c-1.2,0.1-2.6-0.2-3.7,0.2c0,0,0,0,0,0
		c0,0,0.1,0,0.1,0c0,0.1,0,0.1,0.1,0.1c1,0.5,2,0.8,3.1,1c-0.9,2.6-2.1,4.9-3.7,7.1c-1.6,2.3-4,3.8-5.7,5.9
		c-0.5-1.3-0.8-2.6-0.9-4.1c-0.3-3.3-0.1-12,3.8-13.2c0.2-0.1,0.1-0.4-0.1-0.3c-4.4,1-4.6,9.6-4.6,13.1c0.1,7.4,5.4,13,11.5,16.1
		c-1.3,0.9-2.4,1.9-2.9,2.5c-0.2,0.2-0.4,0.5-0.6,0.7C32.4,72.9,32.3,72.7,32.1,72.6z M26.9,69.3c-1.6,0.5-3,1.7-4.5,2.5
		c-0.1,0-0.1,0.1-0.2,0.1c-0.3-0.4-0.8-0.8-1.1-1.2c-0.7-0.9-1.1-2-1.5-3.1c-0.3-0.9-0.5-1.9-0.6-2.9c-0.1-0.7,0.2-1.3,0.2-1.9
		c1.1-0.4,2.1-0.9,3.1-1.6C23.2,64.1,24.8,66.9,26.9,69.3z M33.8,38.4c-2.3-1.1-4.4-2.5-6.1-4.4c-0.9-1-1.5-2.1-2-3.2
		c0.9,0.8,1.9,1.2,2.9,1.2c0.1,0,0.2-0.1,0.3-0.2c0.3-0.1,0.5-0.5,0.2-0.8c-2.8-3.5-3.4-8.2-2.3-12.5c-0.1,2.1,0.6,4,1.1,6.1
		c0.1,0.3,0.4,0.4,0.6,0.3c0.3,0,0.6-0.2,0.5-0.5c-0.3-2.4-0.2-4.8,0.5-7.1c0.4-1.5,1.1-2.5,1.9-3.5c-0.5,1.8-0.3,4,0,5.2
		c0.1,0.3,0.3,0.4,0.5,0.4c0.2,0.1,0.6,0.1,0.6-0.2c0.3-2.1,0.6-3.7,1.8-5.4c0.5-0.7,1.1-1.3,1.8-1.9c-0.4,1-0.6,2-0.6,3
		c0,0.6,0.9,0.6,0.9,0c0-0.2,0-0.3,0-0.5C38,11.4,40.8,9,43.9,8c-0.4,0.3-0.8,0.7-1,1c-0.7,0.7-1.5,1.6-1.5,2.7c0,0.1,0,0.1,0.1,0.2
		c0,0,0,0,0,0c-0.1,0.2,0.2,0.4,0.3,0.2c1.9-2.5,5-4.2,8.2-4.3c-1.6,0.6-2.9,1.9-4.3,2.9c-0.2,0.1-0.1,0.3,0,0.4
		c0,0.1,0.1,0.1,0.1,0.1c3.3-0.6,6.4-1.9,9.7-1c-0.5,0.1-1,0.2-1.4,0.3c-0.9,0.2-2.6,0.6-3.4,1.3h0c-0.1,0-0.1,0.1-0.1,0.1
		c0,0-0.1,0.1-0.1,0.1c0,0,0,0.1,0,0.1c0.2,0,0.4,0,0.7,0c3.5-0.1,6.2,0.9,9.1,2.3c-1.1-0.1-2.3-0.1-3.4,0.3c-0.1,0-0.1,0.1-0.1,0.1
		c0,0-0.1,0-0.1,0c-0.2,0-0.3,0.2-0.1,0.3c3.2,1.6,6.2,2.7,8,5.8c-0.5-0.4-1-0.7-1.5-1c-0.8-0.5-1.8-1-2.7-0.8c0,0,0,0,0,0
		c-0.1,0-0.1-0.1-0.2-0.1c-0.1-0.1-0.2,0.1-0.2,0.2c1.1,1.6,2.5,2.9,3.5,4.7c0.6,1.2,1,2.4,1.2,3.7c-0.6-1.4-1.6-2.5-3-2.5
		c-0.1,0-0.1,0-0.1,0c0,0,0,0,0,0c-0.3-0.1-0.6,0.2-0.3,0.4c1.6,1.2,1.9,3.2,2.1,5.1c0.1,0.9,0,1.8-0.2,2.7c-0.4-1-1-2-1.6-3
		c-0.1-0.1-0.2-0.2-0.3-0.1c0-0.2-0.4-0.2-0.4,0c0,3.9-0.3,8.1-2.8,11.1c0.1-0.4,0.2-0.7,0.3-1.1c0.2-0.9,0.6-2.3,0-3.2c0,0,0,0,0,0
		c0,0,0,0,0,0.1c-0.1-0.2-0.4-0.2-0.5,0.1c-1,3.2-3.3,5.4-5.8,7.3c0.4-0.6,0.8-1.2,0.8-1.9c0,0,0,0,0.1-0.1c0.3-0.4-0.2-0.9-0.5-0.5
		c-1.5,1.6-3.2,2.9-5.1,4c-1,0.6-2.1,0.9-3.1,1.1c0.9-0.6,1.8-1.3,2.5-1.8c0.2-0.1,0.2-0.3,0.1-0.5c0.3-0.3,0.1-0.9-0.4-0.8
		c-2.4,0.5-4.9,0.9-7.3,1c-0.9,0-1.7,0-2.6-0.1c0.2,0,0.4-0.1,0.7-0.1c1.5-0.2,2.9-0.7,4.1-1.7c0.1-0.1,0.1-0.2,0.1-0.3
		c0.3-0.2,0-0.8-0.4-0.7c-4.7,0.7-9.5-0.2-12.9-3.3c1.7,0.8,4,1,5.3,1c0.2,0,0.3-0.1,0.3-0.3C33.9,39.2,34.2,38.6,33.8,38.4z
		 M70.1,29.8c0.5,0,1.1,0.1,1.6,0.2c-0.1,0.5,0.1,1.2,0.1,1.7c0.1,0.5,0.1,1.1,0.2,1.6c-1-0.1-1.9-0.1-2.8,0.3
		c0.2-1.2,0.2-2.5,0.9-3.6C70.2,30,70.2,29.9,70.1,29.8z M68.4,33.9c0,0.1,0,0.1,0,0.2c-0.3,0.2-0.7,0.4-1,0.7c0,0,0,0,0,0
		c-0.9-0.6-2.1-0.9-3.2-1.2c0,0,0-0.1,0-0.1c1.5-2.3,3.4-3.3,5.5-3.5C68.8,31,68.8,32.6,68.4,33.9z M56.7,43.7
		c0.1-0.1,0.1-0.2,0.2-0.4c0,0,0,0,0,0c4-3,4.6-8,4.3-12.7c0.6,1.1,1.2,2.2,1.5,3.5c0,0-0.1,0.1-0.1,0.1c-2.3,3.1-2.8,8.2-0.7,11.6
		c-1.3-0.9-2.9-1.5-4.5-1.7c-0.8-0.1-2.4-0.2-3.6,0c0.5-0.4,0.9-0.9,1.3-1.3c1-1.1,2-2.4,2.7-3.9c0,0.3-0.1,0.5-0.2,0.8
		c-0.3,0.9-0.7,1.8-1.1,2.7c0,0,0,0,0,0c-0.2,0.1-0.2,0.3-0.2,0.5c-0.1,0.1-0.1,0.2-0.2,0.4C55.8,43.8,56.4,44.1,56.7,43.7z
		 M62.3,37c0.9,0.8,1.7,1.5,2.7,2.1c0,0,0,0,0,0c0,0.3-0.1,0.6-0.1,0.9c0,0.4,0,0.8,0.1,1.2c-0.1-0.1-0.2-0.1-0.3,0
		c-0.7,0.3-1.2,0.9-1.7,1.5c-0.3,0.3-0.6,0.7-0.9,1l0,0C61.4,41.6,61.6,39.1,62.3,37z M63.2,43.4c0.5-0.6,1.1-1.3,1.8-1.7
		c0,0,0.1-0.1,0.1-0.1c0.2,1,0.7,1.8,1.4,2.5c-0.5,0-1,0.3-1.5,0.4c-0.7,0.2-1.4,0.5-2.1,0.8c-0.2-0.3-0.3-0.6-0.5-0.9
		C62.7,44.1,63,43.7,63.2,43.4z M62.6,36.3c0.1-0.3,0.2-0.5,0.4-0.8c0.2,0.1,0.6,0.1,0.6-0.2c0.2-0.3,0.4-0.8,0.5-1.2
		c0.9,0.5,1.9,0.6,2.8,1.1c-0.7,0.8-1.3,1.9-1.6,3C64.4,37.6,63.5,36.9,62.6,36.3z M64.2,32.3c0-0.9-0.1-1.8-0.2-2.5
		c-0.2-1.3-0.5-2.9-1.4-4c1.4,1,2.1,3.2,2.4,4.8c0,0,0,0,0,0c0,0,0,0,0,0.1c0,0.3,0.2,0.4,0.4,0.4C65,31.4,64.6,31.8,64.2,32.3z
		 M51.3,43.9c-0.3,0.4-0.6,0.7-0.7,0.9c-0.2,0.3-0.5,0.6-0.8,0.9c-1,0.2-2,1-2.8,1.7c0.1-0.2,0.2-0.4,0.3-0.5
		C48.7,46,50.1,45,51.3,43.9z M34.8,61.1c-0.8-0.2-1.5-0.5-2.2-0.9c-1.5-0.9-2.6-2.5-2.7-4.2c0.8-0.9,1.6-1.8,2.3-2.8
		c0.6,1.1,1.6,2,2.6,2.8c0.9,0.7,2.6,1.7,4,1.6c-0.9,1.2-1.7,2.6-2.6,3.8C35.8,61.2,35.3,61.2,34.8,61.1z M35.5,62.2
		c-1.1,1.4-2.5,2.6-4.2,3.5c0,0,0,0,0,0c-2.1-1.8-3.9-4-5-6.5c0,0,0,0,0.1,0c1-0.8,2-1.6,2.9-2.5c0.2,1.5,1.1,2.8,2.3,3.8
		C32.4,61,34.2,62.2,35.5,62.2z M36,55.6c-1.4-0.7-2.5-1.8-3.4-3c0.8-1.2,1.5-2.4,2.1-3.6c0.7,1.3,1.8,2.4,3.1,3.1
		c1,0.6,2.7,1.4,4,1.4c-0.8,1-1.5,2.1-2.3,3.1c-0.1,0.1-0.2,0.2-0.2,0.3C38.4,56.3,37,56.1,36,55.6z M38.7,51.5
		c-1.5-0.7-2.6-1.9-3.7-3.2c0.4-0.9,0.8-1.9,1.1-2.8c3,0.4,6.4-0.1,9.3-0.7c-0.7,0.5-1.4,1-2.1,1.5c-1.1,0.7-2.2,1.1-3.4,1.4
		c-0.1,0-0.2,0.3,0,0.3c0.3,0.1,0.6,0.1,0.9,0.1c1.7,0.4,3.6,0,5.4-0.8c-1.2,1.9-2.5,3.7-3.8,5.5C41.3,52.1,39.8,52,38.7,51.5z
		 M32.2,66.3c3.3-1.7,5.2-5,7.3-8c1.1-1.6,2.4-3.2,3.6-4.8c-0.7,3.5,1.5,7.9,4.3,9.8c1.4,0.9,3.3,1.7,5.3,2c-0.4,5.2-6.2,5.9-10.4,6
		c0-0.4-0.1-0.7-0.3-1.1c-0.9-2.3-3-1.9-4.9-0.9c0,0,0,0-0.1-0.1C35.2,68.4,33.6,67.4,32.2,66.3z M53.2,64.6c-0.1,0-0.2-0.1-0.3,0
		c-1.2-0.1-2.4-0.5-3.7-1.1c-4-1.8-6.6-7.4-5-11.6c0.6-0.9,1.3-1.8,1.8-2.8c0.2-0.2,0.4-0.4,0.6-0.6c0.6-0.6,1.3-1.1,2-1.5
		c0.2-0.1,0.3-0.2,0.5-0.3c0,0,0.1,0.1,0.1,0.1c0.1,0.1,0.3,0,0.4,0c0,0,0,0,0.1,0c1.1-0.3,2.1-0.9,3-1.7c0.9-0.5,2.7-0.3,3.6-0.3
		c3.2,0,5.6,1.7,7.2,4.4c2.5,4.3,1.2,9.4-1.7,13C59,63.7,56.2,64.8,53.2,64.6z M63.2,45.8c0.6-0.2,1.3-0.4,1.9-0.6
		c0.6-0.2,1.3-0.3,1.8-0.8c0,0,0,0,0,0c0.6,0.4,1.2,0.8,1.9,0.9c0.1,0.6,0.1,1.3,0.3,1.9c0.1,0.5,0.1,1,0.3,1.5
		c-1.5-0.2-2.9-0.6-4.2-1.3C64.4,47.1,63.7,46.5,63.2,45.8z M68.6,34.6c0.1,0,0.1,0,0.2,0c3-1.1,7.7,0.8,8,4.2
		c0.2,3.2-2.4,5.1-5.2,5.7C65,46,64.2,37.1,68.6,34.6z M75.8,33.1c-0.2,0.2-0.5,0.4-0.7,0.6C75,33.8,75,33.9,74.9,34
		c0,0-0.1,0.1-0.1,0.1c0,0,0,0,0,0c-0.1,0-0.1,0-0.2,0.1c-0.5-0.3-1.1-0.5-1.7-0.7c-0.2-0.6-0.2-1.3-0.3-1.9c-0.1-0.4-0.1-1-0.2-1.4
		c1.5,0.4,2.9,1.3,4.2,2.4C76.3,32.7,76,33,75.8,33.1z M76.7,33.3c0.1-0.1,0.3-0.2,0.4-0.3c0.5,0.5,0.9,1,1.4,1.6
		c-0.5,0.6-1,1.1-1.5,1.7c-0.5-0.6-1.1-1.2-1.8-1.7c0.2-0.1,0.5-0.4,0.6-0.4C76.1,33.9,76.4,33.6,76.7,33.3z M73.2,47
		c0.3-0.7,0.5-1.4,0.5-2.1c0.7-0.3,1.4-0.7,1.9-1.2c1,0.4,1.9,1.3,2.9,1.8c-0.4,0.5-1,1-1.6,1.5c-1.3,1-2.8,1.6-4.4,1.8
		C72.9,48.3,73,47.5,73.2,47z M76.2,43.2c0.5-0.6,1-1.2,1.3-1.9c0.8,0.6,1.9,0.9,2.7,1.6c-0.2,0.7-0.6,1.3-1,2c0,0,0,0-0.1-0.1
		C78.1,44.3,77.1,43.6,76.2,43.2z M77.6,40.6c0.2-0.8,0.3-1.6,0.1-2.5c-0.1-0.5-0.3-1-0.5-1.4c0.6-0.4,1.1-1,1.6-1.6
		c1.3,2.1,2,4.5,1.5,6.8C79.5,41.4,78.5,41.1,77.6,40.6z M80.8,32.3c0.2,1.9,0.3,3.9,0.3,5.8c-0.7-2.8-2.6-5.4-4.9-7.2
		c-2.9-2.4-7.4-2.2-10.4-0.1c0,0,0-0.1,0-0.1c-0.1-3.6-1.3-8.4-4.3-10.9c0.5,0.2,1,0.5,1.5,0.8c0.9,0.6,1.6,1.3,2.4,1.9
		c0,0.4,0,0.7,0.1,1.1c0.7,4.5,5.5,5.9,9.2,4.5c3.3-1.2,4.2-4,3.6-6.8C79.9,24.6,80.5,28.3,80.8,32.3z M77,19c1.6,3.5,1.1,7.1-3,8.5
		c-3.9,1.4-7.5-1.6-7.6-5.5c-0.1-2.7,2.3-4.7,4.7-5.4C73.8,15.8,75.5,17.1,77,19z M7.4,55.4c-1.5,0.1-8.5,0.8-5.8-2.5
		c1.6-2,4.2-3.2,6.2-4.7c3.6-2.6,7.7-5.8,8.3-10.5c0.4-2.9-0.2-6-0.1-8.9c0.1-3.6,0.4-7.2,1.5-10.7c2.3-6.8,9.5-11.8,15.9-14.5
		C39.4,1.2,45.9,0.3,52.3,1c0,0,0,0,0,0c0.2,0.1,0.5,0.1,0.7,0.2c3,0.8,6,1.9,8.8,3.2c5.2,2.3,9.4,6.3,13,10.6
		c0.2,0.3,0.4,0.5,0.7,0.8c-1.6-0.6-3.6-0.6-5.1-0.1c-2.6,0.8-4.3,2.8-4.7,5.3c-1.6-3-4.2-5-7.4-6c1.5,0,2.8,0.1,4.3,0.5
		c0.4,0.1,0.6-0.5,0.2-0.6c-0.2-0.1-0.5-0.2-0.7-0.2c-2.9-1.9-5.9-3.2-9.3-3.1c0.1-0.1,0.3-0.1,0.4-0.1c1.5-0.5,2.9-0.7,4.4-0.4
		c0.3,0.1,0.6-0.4,0.2-0.6c-0.1-0.1-0.3-0.1-0.4-0.1c0-0.1,0-0.3-0.2-0.3c-3-1.3-6.8-1.1-9.9,0.3C48.6,9.2,50,8,51.8,8
		c0.4,0,0.4-0.7,0-0.7c-0.1,0-0.2,0-0.3,0c0-0.1-0.1-0.1-0.2-0.2c-3-0.6-6.9,1-9,3.5c0.3-0.5,0.9-1,1.3-1.4c0.4-0.4,0.8-0.7,1.2-1
		c0.3-0.2,0.7-0.4,0.9-0.7c0-0.1,0-0.2,0-0.2c0-0.2-0.1-0.4-0.3-0.4c-2.1,0-4.2,1.5-5.8,2.7c-0.8,0.6-1.7,1.4-2.5,2.3
		c0.4-1.2,1.1-2.2,2-3.1c0.2-0.2-0.1-0.6-0.3-0.4c-0.5,0.3-0.9,0.7-1.3,1.2c-2,1.2-4.2,3.5-5.2,5.9c0-0.1,0-0.3,0-0.4
		c0.1-1.2,0.7-2.2,1-3.3c0.2-0.2,0.5-0.5,0.7-0.7c0.1-0.1,0-0.2-0.1-0.2c-4.1,0.7-5.7,6-5.9,10.2c-0.5-1.7-0.8-3.4-0.4-5.2
		c0.1-0.2-0.3-0.3-0.4-0.1c-0.1,0.2-0.1,0.3-0.2,0.5C23.8,20.2,25.3,27.1,28,31c-1.2-0.4-2.4-1.3-3.2-2.4c-0.2-0.5-0.4-1-0.6-1.5
		c0-0.2,0-0.5,0-0.7c0.1-0.3-0.4-0.5-0.5-0.1c-0.2,0.8-0.1,1.6,0.3,2.4c0.8,4.4,4.5,7.9,8.4,10c-2.5-0.1-4.8-1-6.8-2.6
		c-0.1-0.1-0.3,0-0.3,0.1c0.1,0.4,0.3,0.7,0.6,1.1c0.1,0.1,0.1,0.3,0.2,0.4C21,40.4,21,48.8,21.1,53.9c0,2.3,0.4,4.5,1,6.6
		c-2.5,1.5-5.7,2-8.6,2.1c0.3-0.6,0.4-1.2,0.5-1.9C14.6,56.5,10.9,55.1,7.4,55.4z M14,72.8c-1.5-1.3-1.2-3-1.5-4.6
		c-0.1-0.3-0.2-0.5-0.4-0.8c-0.5-1.1-0.2-2.1,0.5-3.1c0.1-0.2,0.3-0.5,0.4-0.7c1.9,0,3.7-0.2,5.5-0.6c-1,1.9,0.9,7.9,2.9,9.3
		c-2,0.8-4.2,1.2-6.3,1.9C14.8,73.6,14.5,73.2,14,72.8z M15.3,74.9c4-1.2,9.1-2.1,12-5.2c1.3,1.4,2.7,2.7,4.3,3.8
		c0.1,0.1,0.2,0.1,0.3,0.1c-2,2.2-4,4.1-6.7,5.8c-1.9,1.2-3.9,2.1-6,2.8c-1.8,0.6-3.3-0.3-5-0.4C13.5,79.4,15.8,77.4,15.3,74.9z
		 M19.4,86.1c0,0-0.1,0-0.1,0c-1.8-0.7-3.4-1.7-4.4-3.1c-0.2-0.2-0.3-0.5-0.4-0.7c1.8,0.2,3,0.9,5,0.6c2.2-0.4,4.4-1.7,6.2-2.7
		c2-1.1,3.7-2.5,5.3-4.1c1.9-1.8,3.3-4,5.4-5.6c1.6-1.2,4.6-1.3,4.7,1.3c0,1.1-0.5,2.3-1.1,3.2c-1.3,2.2-3.8,4-5.8,5.4
		C30,83.5,24.6,85.6,19.4,86.1z M52.6,100.2c-3,0-6.4-0.1-9.6,0.2c-0.9-0.1-2,0.1-2.9,0.2c-0.1,0-0.2,0-0.3,0
		c-0.1-0.1-0.2-0.1-0.3-0.1c-1.3,0.1-2.5,0.2-3.7,0c-2.7-0.4-2.4-3.8-2.5-5.6c-0.1-1.5-0.6-2.7-1.5-3.8c-0.8-1-2.2-1.6-3.4-2
		c-0.7-0.2-1.6-0.7-2.4-0.9c-0.1-0.1-0.2-0.2-0.3-0.3c-1.3-0.4-2.7-0.7-4.2-1.2c2.6-0.4,5.2-1.3,7.7-2.4c0.3,0.8,1.2,0.9,2.1,0.6
		c4.6,8.3,13.9,13.2,23.4,11c0.8,1.4,1.6,2.7,2.6,4C55.7,100.2,54.1,100.2,52.6,100.2z M58.5,100.1c-3.3-4.1-5.3-8.7-7.7-13.3
		c-1.6-2.9-2.9-5.7-3.6-8.9c0.6,0,1.1-0.1,1.7-0.3c1,4.6,3.5,8.6,5.9,12.6c2,3.4,4.1,6.8,6.6,9.9C60.3,100.1,59.4,100.1,58.5,100.1z
		 M53.7,87.1c1.8,0.3,4.5,0.2,5.9-0.9c0.1,0.2,0.2,0.4,0.3,0.6c-1.8,0.9-3.6,1-5.5,1.4C54.2,87.9,53.9,87.5,53.7,87.1z M57.7,93.5
		c0.7,0.1,1.5-0.1,2.1-0.2c1.1-0.2,2.4-0.4,3.3-1c0,0.1,0.1,0.3,0.1,0.4c0.1,0.2,0.2,0.3,0.3,0.5c-0.7,0.2-1.4,0.6-2.1,0.9
		c-1,0.4-2,0.5-3.1,0.6C58.1,94.2,57.9,93.9,57.7,93.5z M67.8,96.2c1.1,1.7,1.9,3.1-0.4,4.1c-1.7-0.1-3.4-0.2-5.1-0.2
		c-1.3-1.6-2.5-3.2-3.6-4.9c1.7,0.3,3.9-0.6,5.3-1.4c0.2,0.2,0.4,0.3,0.6,0.4c0.4,0.2,1.1,0.1,1.5-0.1
		C66.8,94.7,67.3,95.4,67.8,96.2z M63.9,90.5c0.5,0.8,1,1.6,1.5,2.3c0.1,0.1,0.2,0.2,0.2,0.3c-0.2,0.1-0.4,0.2-0.7,0.1
		c-0.4-0.1-0.7-0.6-1-0.9c-0.2-0.4-0.4-0.9-0.3-1.3C63.6,90.8,63.7,90.6,63.9,90.5z M63.5,90c-0.3,0.2-0.5,0.5-0.5,0.7
		c-0.1,0.2-0.1,0.5-0.1,0.7c0,0-0.1,0-0.1,0c-1.6,0.9-3.7,1.5-5.5,1.3c-0.6-1-1.2-2-1.9-3c-0.2-0.3-0.4-0.6-0.5-0.9
		c1.9,0.2,4-0.4,5.7-1.2c0.6,0.6,1.3,0.8,2,0.5C62.9,88.8,63.2,89.4,63.5,90z M61.5,86c0.2,0.5,0.4,0.9,0.7,1.4
		c-0.7,0.3-1.4-0.6-1.7-1.2c-0.5-0.8-0.5-1.8,0.1-2.6C60.8,84.4,61.1,85.2,61.5,86z M60.4,83.2c-0.8,0.5-1,1.4-0.9,2.3
		c-1.1,0.4-2.1,0.8-3.4,0.9c-0.9,0.1-1.8,0-2.7,0.2c-1.7-2.9-3.3-5.9-4.1-9.2c0,0,0,0,0,0c1.1-0.5,1.9-1.4,2-2.5
		c3.9-2.1,7.1-5.9,7-9.7c0,0,0,0,0,0c1.5-0.4,2.8-1.2,3.8-2.3c4.4-3.3,4.3-10.5,1.7-14.8c0,0-0.1-0.1-0.1-0.1
		c0.1,0.1,0.2,0.1,0.3,0.2c4.7,3.1,11.3,2.4,15.2-1.8c0.5-0.6,1-1.2,1.3-1.8c-0.2,1.2-0.6,2.4-1,3.6c-2,5.5-6.2,10.1-10,14.4
		c-3.3,3.8-6.2,7.7-8.5,12.2C59.4,77.6,59.5,80.4,60.4,83.2z"/>
	<path fill="#FFFFFF" d="M70.9,41.6c1.3-0.2,1.9-1.5,1.9-2.7c0-0.6-0.2-1.1-0.6-1.5C72,37.2,71.6,37,71.3,37c-0.5-0.1-1.1,0-1.5,0.2
		c-0.7,0.3-1.2,1-1.4,1.7C67.9,40.4,69.4,41.9,70.9,41.6z M69.2,39.1c0.1-0.5,0.5-0.9,0.9-1.2c0.3-0.2,0.6-0.2,0.9-0.2
		c0.2,0.1,0.4,0.1,0.6,0.2c0.2,0.2,0.3,0.6,0.3,0.9c0.1,0.7-0.3,1.6-1,1.9C69.9,41.1,68.9,40.1,69.2,39.1z"/>
	<path fill="#FFFFFF" d="M70.1,19c-0.1,0.1,0,0.3,0,0.4c-0.8,0.7-1.1,1.7-1,2.9c0.3,2.3,2.3,3.5,4.5,2.9c2.5-0.7,3.2-3.1,1.9-5.2
		C74.6,18.3,71.3,16.7,70.1,19z M72.6,19c0.8,0.2,1.4,0.7,1.9,1.2c1.3,1.5,0.7,3.3-1.2,3.9c-3.6,1.1-5.1-4.8-1.3-5.1
		c0.1,0,0.1,0,0.1-0.1C72.3,18.9,72.5,19,72.6,19z"/>
	<path fill="#FFFFFF" d="M71.9,20.6c-0.3,0.3-0.4,0.9-0.2,1.3c0.3,0.7,1,0.8,1.6,0.5c0.6-0.3,0.7-1.1,0.3-1.6
		c-0.3-0.4-1.3-1-1.7-0.4C71.9,20.4,71.9,20.5,71.9,20.6z M72.4,20.9c0.1,0.1,0.3,0.1,0.4,0.2c0.1,0.1,0.2,0.2,0.2,0.3
		c0,0.1,0,0.1,0,0.2c-0.2,0.2-0.5,0.3-0.6,0C72.2,21.4,72.3,21.1,72.4,20.9z"/>
</g>
</svg>
