<?xml version="1.0" encoding="utf-8"?>
<!-- Generator: Adobe Illustrator 18.0.0, SVG Export Plug-In . SVG Version: 6.00 Build 0)  -->
<!DOCTYPE svg PUBLIC "-//W3C//DTD SVG 1.1//EN" "http://www.w3.org/Graphics/SVG/1.1/DTD/svg11.dtd">
<svg version="1.1" id="Слой_1" xmlns="http://www.w3.org/2000/svg" xmlns:xlink="http://www.w3.org/1999/xlink" x="0px" y="0px"
	 viewBox="0 0 99.6 74.6" enable-background="new 0 0 99.6 74.6" xml:space="preserve">
<g>
	<path fill="#FFFFFF" d="M21.2,25.9c-3.3,1-6,4.4-6.3,7.9c0,0,0,0,0,0c-0.4,4.2,1,8.9,3.5,11.5c3.8,3.9,12.9,4.4,15.9-0.7
		c0,0,0.1,0,0.1-0.1c2.4-2.5,3.1-6.9,2.9-10.2c-0.2-3.3-2.2-5.8-4.9-7.4C29.2,24.9,24.8,24.5,21.2,25.9z M34.2,44.1
		c-0.1,0-0.1,0-0.2,0.1C30.8,49,22.8,48,19,44.8c-2.7-2.3-3.7-5.8-3.4-9.3c0.1-0.1,0.1-0.1,0.1-0.3c0-2,0.5-3.6,1.4-4.9
		c0.9-1.5,2-2.8,3.5-3.4c0.1,0,0.1-0.1,0.2-0.1c3.3-1.5,7.3-1.4,10.8,0.3C38.4,30.3,37.2,38.7,34.2,44.1z"/>
	<path fill="#FFFFFF" d="M28.2,29.1c-1-0.3-2.6-0.5-4.2-0.4c0,0,0,0.1,0,0.1c-1.1,0.1-2.2,0.5-3.2,1.3c-1.1,0.9-2.4,2.6-2.6,4.2
		c-0.1,0.1-0.1,0.3-0.1,0.4c-0.3,2.5,0.6,5.2,2.5,7.3c3.2,3.5,8.9,2.5,11.5-1.2C34.7,37.1,32.5,30.5,28.2,29.1z M21,31.1
		c0.6-0.7,1.3-1.1,2.1-1.3c-0.2,1.3,0.5,2.8,0,4c-0.3,0.7-2.3,0.5-3.5,0.4C19.8,33.1,20.1,32.1,21,31.1z M23.8,41.2
		c0,0.5-0.1,0.9-0.2,1.4c-0.8-0.3-1.5-0.8-2.1-1.3c-0.7-0.6-1.2-1.4-1.5-2.2c1.1-0.2,2.7-0.6,3.6,0.1C24.1,39.4,23.9,40.6,23.8,41.2
		z M31.8,39.4c-0.5,1.5-1.5,2.6-2.7,3.1c0-0.3-0.1-0.6-0.2-0.8c-0.1-0.6-0.2-1.3-0.2-2c0-0.1,0-0.4,0.1-0.6c0.2-0.3,1-0.2,1.3-0.1
		c0.6,0.1,1.2,0.2,1.8,0.2C31.8,39.3,31.8,39.3,31.8,39.4z M32,38.7c-1.2-0.3-3.5-1.3-4,0.3c-0.3,0.7-0.1,1.6,0,2.3
		c0.1,0.4,0.1,1.1,0.2,1.5c-1.2,0.4-2.6,0.3-3.9,0c0.2-1.3,0.7-3.2-0.2-4.1c-1.1-1.1-3-0.4-4.4-0.2c-0.3-0.9-0.5-1.8-0.6-2.7
		c0-0.2,0-0.4,0-0.6c0,0,0-0.1,0-0.1c1.4,0.1,3.6,0.4,4.3-0.8c0.4-0.7,0.3-1.6,0.2-2.4c-0.1-0.5-0.1-1.1-0.2-1.6c0-0.2,0-0.4,0-0.6
		c1.2-0.3,2.5-0.1,3.8,0.1c-0.2,1.3-0.8,3.4,0.2,4.4c0.9,0.9,3.1,0.8,4.4,0.4C32.3,36,32.3,37.4,32,38.7z M30.2,34
		c-0.5,0-1.9,0.1-2.2-0.5c-0.4-1.1-0.1-2.4-0.1-3.5c1.8,0.6,3.1,2,3.8,3.8C31.1,33.8,30.7,33.9,30.2,34z"/>
	<path fill="#FFFFFF" d="M20.9,17.9c3-0.5,4.8-4.1,3.9-6.8c-0.7-2.3-3.8-3.6-6-2.8c-2.2,0-3.5,3.1-3.4,4.9
		C15.5,16.2,18.1,18.3,20.9,17.9z M16.9,10.3c0.1-0.2,0.3-0.4,0.5-0.6c0.1,0.1,0.2,0.1,0.3,0c2.4-1.1,5.5-1,6.4,1.9
		c0.7,2.4-1.2,4.8-3.4,5.4c-2.6,0.6-4.5-1.9-4.6-4.2C16.1,12,16.4,11.1,16.9,10.3z"/>
	<path fill="#FFFFFF" d="M20.5,14.8c1.4-0.3,1.8-2,1.5-3.2c-0.3-1.2-2.1-2-2.9-0.8c-0.5,0.5-0.9,1.3-1,1.8
		C17.8,14.1,19,15.2,20.5,14.8z M18.7,12.7c0-0.4,0.2-0.8,0.4-1.2c0-0.1,0.1-0.1,0.1-0.1c0.8-0.1,1.6-0.6,1.9,0.5
		c0.2,0.8,0,1.7-0.8,2.1C19.3,14.6,18.6,13.6,18.7,12.7z"/>
	<path fill="#FFFFFF" d="M28.3,19.1c1.6-0.3,2.2-1.9,1.6-3.3c-0.4-1-1.9-1.7-2.8-1.1c-0.9,0.2-1.4,1.4-1.3,2.2
		C25.8,18.3,26.9,19.3,28.3,19.1z M26.7,15.8c0-0.1,0.1-0.1,0.1-0.2c0.4-0.1,0.9-0.4,1.3-0.3c0.4,0.1,0.8,0.4,1,0.8
		c0.6,1-0.1,1.9-1.1,2.2c-0.9,0.2-1.5-0.6-1.5-1.4C26.5,16.5,26.5,16.1,26.7,15.8z"/>
	<path fill="#FFFFFF" d="M44.1,12.4c-0.2-0.6-0.6-1.1-1.1-1.4c-0.5-0.3-1.4-0.4-1.7,0.1c-1.7,1-1.8,4.8,1.2,4.4
		C44,15.3,44.5,13.7,44.1,12.4z M42.5,14.9c-1.1,0.3-1.9-0.5-1.9-1.6c0-0.5,0.2-1,0.5-1.3c0.1-0.1,0.3-0.2,0.4-0.3
		c0.3,0,0.6-0.2,1-0.1c0.5,0.1,0.8,0.5,1,1C44,13.5,43.5,14.6,42.5,14.9z"/>
	<path fill="#FFFFFF" d="M60.9,15.6c1.2-0.5,1.3-2,0.8-3c-0.2-0.5-0.7-0.9-1.3-1.1c-0.5-0.2-1.4-0.1-1.6,0.5
		c-0.7,0.4-1.2,1.4-1.1,2.3C57.8,15.8,59.7,16.1,60.9,15.6z M59,12.3c0.4,0.1,0.7-0.1,1.1-0.1c0.4,0,0.7,0.3,0.9,0.6
		c0.4,0.6,0.3,1.6-0.3,2.1c-0.8,0.6-2.2,0.2-2.4-0.8C58.1,13.4,58.5,12.7,59,12.3z"/>
	<path fill="#FFFFFF" d="M57.3,18.3c-0.1-0.7-0.3-1.3-0.6-1.9c-1.4-2.9-6.7-4.2-9.3-2.2c-2.2,1.3-3.6,4.2-3.5,6.8
		c0.1,4.2,5,6.6,8.7,5.7c3.4-0.9,5.1-4.5,4.8-7.8C57.6,18.8,57.6,18.5,57.3,18.3z M54.7,15.5c1.1,0.7,1.7,1.6,1.9,2.7
		c-1.2-0.2-2.3,0-3.4,0.3c-0.5-1.3-0.8-2.8-1.4-4C52.8,14.6,53.8,14.9,54.7,15.5z M47.8,14.8c0.2,0,0.3-0.1,0.5-0.1
		c0.1,0.6,0.3,1.2,0.5,1.8c0.2,0.6,0.4,1.3,0.6,1.9c-1.5-0.2-3.4,0.1-4.6,0.8C45.1,17.5,46.3,15.8,47.8,14.8z M50.4,25.5
		c0,0.3-0.1,0.5,0,0.7c-2-0.2-3.9-1.7-4.9-3.6c1.6-0.6,3.3-0.6,4.9-0.5c-0.1,0.5,0,1.3,0,1.7C50.4,24.3,50.4,24.9,50.4,25.5z
		 M53.6,25.4c0.1-1.2,0.1-2.4,0-3.6c0,0,0.1,0,0.2,0c0.8-0.4,1.8-0.5,2.7-0.5C55.9,23,54.8,24.5,53.6,25.4z M56.6,20.5
		c-1.1,0.1-2.3,0.3-3.2,0.8c0,0-0.1,0-0.1,0.1c-0.1-0.1-0.3,0-0.4,0.2c-0.1,0.6-0.1,1.3-0.1,1.9c0,0.7,0.1,1.7-0.2,2.4
		c-0.5,0.2-1.1,0.3-1.6,0.4c0.2-0.6,0.1-1.4,0-1.9c0-0.6-0.1-1.2-0.1-1.7c0-0.2,0-0.5,0-0.7c0.2-0.3,0.1-0.8-0.4-0.8
		c-1.9,0-3.8,0.1-5.6,0.9c-0.1-0.2-0.1-0.3-0.2-0.5c-0.1-0.5-0.2-1-0.2-1.5c0.1,0,0.2,0,0.2,0c1.4-1,3.7-0.6,5.3-0.4
		c0.6,0,0.6-0.8,0.1-0.9c0,0,0,0,0,0c-0.1-1-0.7-2-1-2.9c0-0.1-0.2-0.7-0.3-1.2c0.7-0.1,1.4-0.2,2.1-0.1c0.4,1.6,0.7,3.3,1.4,4.7
		c0.2,0.4,0.6,0.2,0.7,0c1.2-0.2,2.3-0.3,3.5-0.1C56.8,19.5,56.7,20,56.6,20.5z"/>
	<path fill="#FFFFFF" d="M70.4,37c-0.1,0-0.2,0.1-0.2,0.2c-0.6,0.1-1.1,0.6-1.2,1.2c-0.3,1,0.7,1.7,1.6,1.7c0.9,0,1.4-0.8,1.4-1.6
		C72,37.6,71.3,36.7,70.4,37z M70.7,39.2c-0.4,0.1-1-0.2-0.9-0.7c0.1-0.5,0.5-0.7,1-0.8c0.3,0.1,0.5,0.2,0.6,0.6
		C71.3,38.7,71.1,39.1,70.7,39.2z"/>
	<path fill="#FFFFFF" d="M70.2,33.6c0,0,0,0.1-0.1,0.1c-1.1,0.1-2.1,0.6-2.8,1.3c-0.8,0.8-1,2-1.1,3.1c0,0,0,0,0,0
		c0.1-0.2,0.1-0.5,0.2-0.7c-0.2,0.7-0.3,1.5-0.2,2.2c0.4,2.7,3.2,4.1,5.6,3.2c2.4-0.8,4.8-3.7,3.5-6.4
		C74.6,34.8,72.2,33.4,70.2,33.6z M70.6,42.4c-2.1,0.1-3.6-1.6-3.6-3.6c0-1.6,0.9-2.9,2.1-3.8c2.1-0.8,4.7,0.1,5.5,2.3
		C75.6,39.8,72.9,42.3,70.6,42.4z"/>
	<path fill="#FFFFFF" d="M77.2,41.1c0,0,0-0.1,0-0.1c0.4-1.2,0.5-2.6,0.2-4.1c-0.4-1.1-1-2.1-1.7-2.9c-1.9-2-5.8-3.1-8.1-1.2
		c-3.3,2-4.5,6.9-2.2,10c0.5,0.6,1.1,1.1,1.8,1.5c1.5,0.8,3.3,0.8,4.9,0.6c1.5-0.2,2.7-0.9,3.7-1.8c0,0,0-0.1,0.1-0.1
		c0.5-0.5,0.9-1.2,1.1-1.8C77.1,41.2,77.2,41.1,77.2,41.1z M76.3,41.2c-0.8,1.1-1.7,2-3.2,2.6c-1.9,0.7-4,0.6-5.8-0.3
		c-3.2-1.6-2.9-5.6-1.1-8.4c0,0,0-0.1,0.1-0.1c0,0,0,0,0,0c0.4-0.6,1-1.2,1.5-1.7c1-0.4,1.9-0.7,3.1-0.7c1.5,0.1,2.8,0.8,3.9,1.8
		c1,0.9,1.7,2.2,2,3.5C77,39.1,76.6,40.1,76.3,41.2z"/>
	<path fill="#FFFFFF" d="M99.4,56.6c0.1-2.3,0-4.5-0.1-6.5c-0.7-10.7-3.7-20.9-7.3-30.9c-2.8-7.5-7.1-17.3-15.9-19.1
		C69.9-1,65.2,3.4,60.2,6.8c-1.9-4.2-5.5-1.1-8.6-0.1c-3.2,1-7.4-4.6-9.4,0.1c-0.1,0-0.1-0.1-0.2-0.1c-3.8-2.4-7.4-5.8-12-6.3
		c-8.7-0.9-15.3,5.4-19.3,12.4c-4.8,8.5-7.3,19-9.3,28.5c-1.8,8.5-3.1,21.4,3.3,28.5c0.6,1.1,1.6,1.8,2.7,2.4c0.1,0,0.1,0.1,0.2,0.2
		c0.1,0,0.1,0.1,0.2,0.1c0.1,0,0.3,0.1,0.4,0.2c0.5,0.3,0.9,0.5,1.5,0.7c0.8,0.3,1.8,0.8,2.8,0.9c0.2,0,0.3,0.1,0.5,0.1
		c0.6,0.1,1.3,0.1,2,0.1c2.4-0.3,4.9-1.2,7-2.5c0.9-0.7,1.9-1.1,2.9-1.6c1.1-0.5,2-1.3,3-2c5.1-4,9.4-9.3,14.3-13.3
		c0.1,0.7,0.6,1.7,1.3,2c2.6,1,4.6-2,7.3-0.8c1.8,0.8,2.8,1.8,4.9,1.4c1.3-0.2,2.3-1.7,3.1-2.8c3.5,2.7,6.7,6.3,9.6,9.1
		c0.5,0.5,1,1,1.6,1.5c0,0.1,0.2,0.3,0.3,0.3c1.5,1.3,3.2,2.5,5,3.6c0.1,0.2,0.3,0.3,0.5,0.3c4.8,2.7,10.2,4.1,15.4,2.6
		c0.8-0.2,1.5-0.6,2.2-1c0.1,0,0.1,0,0.2-0.1c0.4-0.3,0.8-0.7,1.1-1c0.5-0.4,0.9-0.9,1.2-1.4c0-0.1,0.1-0.1,0.1-0.2c0,0,0,0,0-0.1
		c1.7-2.5,2.6-5.6,3-8.7c0.2-1,0.3-2,0.4-2.9C99.6,56.8,99.5,56.7,99.4,56.6z M98.1,48.1c0.2,1.8,0.3,3.8,0.3,5.9
		c-2.4,2.2-5.1,3.6-8.1,5c-3.5,1.7-6.9,3.5-10.8,4.1c0.1-1.2,0.1-2.4,0.1-3.5c0-1.3-0.2-2.5-0.4-3.8c6.6-2,13.3-5.2,18.7-9.6
		C98,46.8,98,47.4,98.1,48.1z M97.9,45.7c-3,1.4-5.6,3.6-8.5,5.2c-3.2,1.8-6.7,3.1-10.3,4.2c-0.3-1.8-0.9-3.6-1.6-5.2
		c4.1-1.3,7.7-3.4,11.4-5.6c2.4-1.4,6.1-2.5,7.9-4.7C97.3,41.6,97.6,43.6,97.9,45.7z M96.8,39c-2.3,2-5.5,3.3-8.1,4.8
		c-3.7,2.1-7.4,4.2-11.5,5.3c-0.2-0.4-0.4-0.9-0.6-1.3c-0.2-0.6-0.5-1.1-0.8-1.6c0,0,0,0,0,0c2-1.2,3.4-3.2,4-5.6
		c5.8-1.9,11-4.8,15.1-9.3C95.6,33.8,96.3,36.4,96.8,39z M68,47.4c0.8,0.2,1.6,0.3,2.4,0.3c0.1,0.3,0.4,0.8,0.6,1.1
		c0.2,0.4,0.3,0.9,0.6,1.3c0,0,0,0,0.1,0c0,0,0,0.1,0,0.1c-6.8,1.7-12.1-4.1-12.9-10.3C58.3,35,61.6,28.8,66,26.6
		c0.6,1.4,1.3,2.7,2.2,3.7c-1.9,0.6-3.7,2-4.9,3.6c0,0,0,0,0,0c0,0,0,0,0,0c-1,1.4-1.6,3-1.6,4.7C61.4,42.6,63.6,46.4,68,47.4z
		 M69.6,46.5c-2.6-0.1-4.7-1.2-6.1-3.4c-1.5-2.5-0.7-5.5,0.2-8.1c0.1,0,0.2-0.1,0.2-0.2c0.1-0.2,0.2-0.5,0.3-0.7
		c0-0.1,0.1-0.1,0.1-0.2c0,0,0-0.1,0.1-0.1c1.6-1.7,3.9-2.8,6.1-2.9c0.4,0,0.8,0,1.2,0.1c0.1,0.1,0.2,0.1,0.3,0
		c4.5,0.6,7.6,4.6,6.8,9.2C78.1,44.7,73.8,46.6,69.6,46.5z M94.7,30.8c-2,1.6-3.8,3.4-5.9,4.9c-2.7,1.9-5.8,3.3-8.9,4.4
		c0-0.2,0.1-0.3,0.1-0.5c0.3-1.7,0-3.3-0.7-4.6c5.2-1.7,11.2-3.8,13.9-8.9C93.8,27.6,94.3,29.2,94.7,30.8z M74.3,1
		c9.5-0.4,14.4,12.4,17.1,19.5c0.6,1.7,1.2,3.4,1.8,5.1c-3.3,4.7-8.8,7.1-14.1,8.8c-1.4-2.4-4.1-4-7-4.4c-1.3-2.1-1.9-5.1-1.5-7.5
		c0.2,0,0.5,0,0.7,0c1.8-0.3,2.9-1.9,2.5-3.7c-0.2-0.8-0.7-1.4-1.3-1.8c-0.5-0.3-1.5-0.6-2.2-0.2C70.8,11.5,69.3,4.4,74.3,1z
		 M68.7,19.9c0-1.4,1.3-2.4,2.6-2.4c0.2,0,0.4,0.1,0.7,0.2c0.5,0.2,0.9,0.8,1,1.3c0.4,1.2-0.3,2.4-1.5,2.7
		C70.1,22,68.7,21.4,68.7,19.9z M73.4,1.1c0.1,0,0.1,0,0.2,0c-4.9,3.4-3.4,11.1-4.2,16.3c0,0,0,0.1,0,0.1c-0.8,0.5-1.3,1.3-1.4,2.3
		c-0.1,1.4,0.8,2.4,2,2.7c-0.4,2.4,0,5.3,1.2,7.5c-0.2,0-0.4,0-0.6,0c-0.5,0-1,0.1-1.4,0.2c0,0,0,0,0-0.1c-2.7-3.1-3.8-8.3-4.6-12.3
		c-0.9-4.5-0.9-9.3,1.2-13.5C68.1,2.7,70.6,1.4,73.4,1.1z M50.7,7.6c2.5,0,6.9-4.3,8.6-0.4c0,0-0.1,0-0.1,0.1
		c-4.7,4.3-11.4,2.7-16.4-0.2c0,0,0-0.1,0-0.1c0-0.1-0.1-0.2-0.2-0.1C45.1,3.8,47.8,7.6,50.7,7.6z M38.1,5.1
		c0.1,0.1,0.2,0.1,0.3,0.2c-0.4,3-0.6,6.1-1.4,9.1c-0.3,1.3-0.8,2.6-1.4,3.8c-0.6,0.7-1,1.6-1.4,2.4c-0.7,1.4-1.5,2.6-2.2,3.9
		c-0.4-0.2-0.8-0.4-1.1-0.5c0.2-0.7,0.5-1.5,0.7-2.3C33,19,33,14.4,33,11.7c0-3-0.3-7.1-1.8-9.9C33.5,2.4,35.9,3.6,38.1,5.1z
		 M35.1,27.4c0.9,0.5,1.6,1.2,2,2.2c0,0.1,0.1,0.2,0.2,0.2c0,0,0.1,0,0.1,0c0.6-0.1,1.2-0.5,1.6-0.9c0.1,0.4,0.4,0.8,0.6,1.1
		c0.1,0.2,0.3,0.7,0.6,0.9c-0.3,0.2-0.6,0.3-0.8,0.5c-0.3,0.2-0.6,0.4-0.8,0.7c0,0,0,0.1,0,0.1c0,0,0,0,0,0c0,0.5,0.2,0.9,0.3,1.4
		c0.2,0.7,0.3,1.3,0.3,2c0,0.1,0.1,0.2,0.2,0.3c0,0,0,0.1,0.1,0.1c0.6,0.5,1.5,0.4,2.3,0.6c0,0.7-0.1,1.5-0.1,2.2
		c-0.4-0.1-0.7-0.1-1.1-0.1c-0.4-0.1-0.9-0.3-1.3-0.3c-0.1,0-0.1,0-0.1,0.1c-0.1,0-0.3,0-0.3,0.2c0,1-0.3,2-0.6,3
		c-0.1,0.2,0,0.3,0.2,0.3c0.5,0.5,1.2,0.8,1.8,1c-0.2,0.4-0.4,0.8-0.6,1.2c-0.1,0.2-0.3,0.5-0.5,0.7c-0.3-0.1-0.6-0.2-0.9-0.3
		c-0.3-0.1-0.6-0.3-0.9-0.2c-0.1,0-0.1,0.1-0.1,0.2c0,0-0.1,0-0.1,0.1c-0.8,1.2-1.8,2-2.8,3c0,0,0,0,0,0c-0.2,0-0.4,0.1-0.4,0.4
		c0.1,0.7,0.2,1.4,0.6,2c-1,0.7-2.1,1.2-3.2,1.6c-0.1-0.3-0.3-0.7-0.4-1c-0.1-0.3-0.2-0.7-0.4-1.1c0,0-0.1-0.1-0.1-0.1
		c0-0.1-0.1-0.1-0.2-0.1c-0.8,0.1-1.6,0.2-2.4,0.3c-0.7,0.1-1.4,0-2.1,0.1c-0.1-0.2-0.4-0.3-0.5,0c-0.2,0.7-0.3,1.5-0.6,2.2
		c0,0,0,0.1,0,0.1c-0.9-0.1-1.9-0.1-2.8-0.1c0-0.2,0.1-0.4,0.1-0.5c0.2-0.5,0.2-1,0.2-1.5c0-0.1,0-0.1,0-0.2c0-0.1,0-0.1,0-0.2v0
		c0-0.1-0.1-0.2-0.2-0.2c0,0,0,0,0,0c-0.6-0.4-1.2-0.7-1.8-1c-0.4-0.2-0.9-0.5-1.4-0.5c-0.1-0.1-0.2-0.1-0.3,0
		c-0.1,0.1-0.2,0.2-0.2,0.2c0,0-0.1,0-0.1,0c-0.3,0.3-0.6,0.6-0.9,0.9c-0.2,0.2-0.4,0.3-0.6,0.5c-0.7-0.6-1.3-1.2-2-1.8
		c0,0,0,0,0-0.1c0.4-0.6,0.8-1.3,1.2-1.9c0,0,0.1,0,0.1,0c0.2,0,0.3-0.2,0.2-0.3c-0.1-0.5-0.7-0.9-1-1.2c-0.6-0.6-1-1.4-1.1-2.2
		c0-0.1-0.1-0.2-0.3-0.1c-0.1-0.1-0.2-0.1-0.3,0c-0.5,0.2-1,0.6-1.6,0.8c-0.3,0.1-0.6,0.3-1,0.3c-0.3,0-0.2,0-0.3-0.3
		c-0.3-0.9-0.4-1.9-0.6-2.8c0.7-0.2,1.6-0.4,2.2-0.8c0.2,0.1,0.6,0,0.6-0.3c-0.1-1.4-0.1-2.7-0.1-4.1c0-0.1-0.1-0.3-0.3-0.3
		c-0.5-0.1-1.9,0-2.1-0.5c-0.4-1,0.2-2.7,0.7-3.7c0.7,0.2,1.7,0.6,2.4,0.4c1-0.3,1.1-1.6,1.8-2.3c0.1-0.1,0.1-0.2,0-0.3
		c-0.6-0.9-1.4-1.6-0.6-2.7c0.5-0.6,1.2-1.1,1.9-1.5c0.6,0.5,1,1,1.5,1.6c0.1,0.1,0.3,0.1,0.4,0c0.8-0.5,1.5-1,2.3-1.6
		c0.1-0.1,0.2-0.2,0.1-0.3c-0.2-0.7-0.5-1.2-0.9-1.8c1.2-0.3,2.4-0.5,3.6-0.7c0.1,0.8,0.2,1.5,0,2.3c-0.1,0.2,0.1,0.3,0.3,0.4
		c0.9,0,1.8,0.1,2.6,0.1c0.2,0,0.3-0.2,0.3-0.3c0-0.7,0.1-1.3,0.3-1.9c0-0.1,0-0.1,0-0.2c0.4,0,0.8,0,1.3,0c0.8,0,1.4,0.2,2.1,0.4
		c0.1,0,0.2,0.1,0.3,0.1c0,0,0,0.1,0,0.1c0.1,0.7-0.3,1.2-0.5,1.9c0,0.1,0,0.2,0.1,0.3c0,0.2,0.3,0.3,0.5,0.2c0.5,0.3,1,0.5,1.4,0.8
		c0.1,0.1,0.3,0,0.4,0c0.5-0.5,0.8-1.1,1.3-1.6c0.7,0.6,1.4,1.2,2.2,1.7c-0.3,0.5-0.8,1-1.2,1.5C34.5,27.1,34.8,27.5,35.1,27.4z
		 M13.3,10.8C15.7,7.1,19,4,23.2,2.4c2.5-1,5-1.1,7.3-0.7c1.4,2.7,1.5,6.1,1.6,9.1c0.1,3.7-0.5,7.1-1.1,10.6c0,0-0.1,0-0.1,0
		c-0.6,0-1.2-0.3-1.8-0.4c-0.8-0.1-1.7-0.1-2.5,0.1c-0.1,0-0.1,0.2,0,0.3c0,0,0,0.1,0,0.1C26.2,22,26,22.6,26,23.2
		c-0.7-0.1-1.4-0.1-2.1,0c0.1-0.8,0-1.5-0.3-2.3c0-0.1-0.1-0.1-0.1-0.1c0,0-0.1-0.1-0.2-0.1c-1.4,0.1-2.8,0.3-4.1,0.6
		c-0.2,0.1-0.3,0.3-0.1,0.5c0.5,0.5,0.7,0.9,0.9,1.6c0.1,0.3-1.1,0.9-1.3,1.1c-0.8,0.6-1.4-0.8-2.1-1.3c-0.1-0.1-0.2-0.1-0.3,0
		c-0.1,0-0.1,0-0.2,0c-1.2,0.7-3.3,1.9-2.7,3.7c0.1,0.2,0.3,0.4,0.4,0.6c0.6,0.7,0.4,0.7,0,1.4c-0.5,0.8-0.8,1.2-1.8,1
		c-0.4-0.1-0.8-0.2-1.2-0.3c-0.3-0.1-0.5,0.2-0.5,0.4c-0.6,0.9-1.4,2.8-1.1,4.1c-0.6-0.4-1.6-0.6-2.1-0.8c-0.6-0.3-1.2-0.5-1.8-0.8
		C5.4,32.2,5.2,32,5,31.9C6.9,24.6,9.2,17.2,13.3,10.8z M4,36c0.3-1.2,0.6-2.3,0.9-3.5c0.4,0.5,1.5,1,1.9,1.2
		C7.4,34,8,34.3,8.7,34.6c0.4,0.2,0.8,0.5,1.2,0.4c0,0,0,0,0,0c0.1,0.1,0.2,0.1,0.3,0.1c0.1,0,0.2-0.1,0.2-0.2
		c0.3,0.1,0.6,0.2,1,0.2c1,0.6,0.6,2.4,0.6,3.6c-0.3,0.1-0.5,0.2-0.8,0.3c-0.5,0.2-1.1,0.3-1.6,0.4c0,0,0,0-0.1,0
		c-2.1,0.2-4.1-0.5-6-1.5C3.7,37.3,3.8,36.7,4,36z M3.4,38.5c1.7,1.2,3.9,1.9,6,1.7c0.2,1.1,0.2,2.3,0.7,3.2
		c0.5,1.1,2.8-0.5,3.6-0.9c0.1,0.6,0.4,1.2,0.7,1.7c0.3,0.4,0.6,1,1.1,1.3c-0.5,0.6-0.8,1.2-1.3,1.8c-4.3,0.5-8.3,0-12-2.2
		C2.5,42.9,2.9,40.7,3.4,38.5z M2.1,45.7c3.3,2.3,8,3.9,11.9,2.6c0.3,0.3,0.7,0.7,1.1,1c0.3,0.3,0.6,0.6,1,0.8c0,0,0,0.1,0,0.1
		c0.1,0.1,0.1,0.2,0.2,0.2c-0.3,0.6-0.6,1.2-0.8,1.9c-4.9,0-9.5,1.6-13.9-1.1C1.7,49.3,1.8,47.5,2.1,45.7z M1.5,54.4
		c0-0.9,0-1.8,0-2.7c3.4,3.1,9.6,2.1,13.7,1.5c-0.3,1.5-0.4,3.1-0.3,4.7c-4,1.7-9.2,1.1-13.3,0C1.6,56.8,1.5,55.6,1.5,54.4z
		 M1.7,58.6c1.2,0.9,3.5,0.9,4.7,1c2.9,0.3,5.9,0.3,8.6-0.8c0.1,0.8,0.1,1.6,0.2,2.3c0.2,1.2,0.4,2.6,0.7,4c-2.5,0.8-5,1.2-7.6,1.3
		c-1.6,0-3-0.1-4.5-0.8c-0.2-0.1-0.3-0.1-0.4-0.2C2.5,63.3,2,61,1.7,58.6z M8.3,71.5c-0.6-0.4-1.1-0.8-1.7-1.3c0,0,0,0,0,0
		c-0.6-0.5-1-1-1.3-1.7c-0.5-0.7-1-1.4-1.4-2.2c3.7,1.9,8.7,1,12.4-0.2c0.3,1,0.7,2,1.1,2.9C14.9,71,11.4,71.9,8.3,71.5z M12.3,73
		c-0.6-0.1-1.2-0.2-1.8-0.4c-0.2-0.1-0.4-0.1-0.6-0.2c0.7,0,1.5-0.1,2.1-0.2c2-0.4,4.2-1.2,5.8-2.5c0.6,0.9,1.3,1.8,2.1,2.4
		C17.5,73.3,14.7,74,12.3,73z M23.5,70.2c-0.8,0.5-1.7,1-2.6,1.5c0-0.1-0.1-0.1-0.2-0.1c-3.2-2-4.1-7.1-4.6-10.5
		c-0.7-4.1-0.6-8.4,1.8-11.9c0.2-0.3,0.4-0.6,0.7-0.8c1,0.6,2.1,1,3,1.7c-0.1,0.4-0.2,0.9-0.3,1.3c-0.1,0.2-0.2,0.5-0.3,0.7
		c-0.1,0.1,0,0.3,0,0.4c0,0,0,0.1,0,0.1c-0.6,3.1-0.9,6.1-0.1,9.5c0.6,2.7,1.5,5.8,3.6,7.6C24.2,69.8,23.8,70,23.5,70.2z M52,55.9
		c-0.7-0.4-1.7-1-2.5-1c-1,0-1.7,0.3-2.5,0.7c-1.3,0.6-3.3,1.1-4.2-0.4c-0.1-0.1-0.2-0.2-0.3-0.2c0.4-0.3,0.7-0.6,1.1-0.8
		c5.2-3.9,10-2.7,14.3,0.3C56.3,56.4,55,57.6,52,55.9z M70.6,64.7c-3.4-3-6.4-6.4-9.7-9.2c-0.6-0.5-1.2-1-1.9-1.5
		c-0.1-0.1-0.2-0.1-0.3-0.2c-4.9-3.4-10.5-4.5-15.7-0.4c-4.4,3.4-8.2,7.5-12.2,11.3c-0.3,0.2-0.6,0.5-0.9,0.7
		c-0.5,0.7-1.2,1.3-1.9,1.8c-2.8-4.1,5.4-10.1,7.8-12.5c4.8-4.7,9.5-8.2,16.4-8.8c0.1,0,0.2-0.1,0.3-0.2c4.4,0.5,8,3.8,11.1,7.2
		c1.6,1.8,3.1,3.7,4.5,5.6C69.2,60.2,71.8,62.8,70.6,64.7z M71.2,65.3c2.7-2.6-4.3-9.9-5.9-11.7c-2.4-2.9-5.2-5.5-8.6-7.3
		c-1.1-0.6-2.3-1.1-3.5-1.2c-0.9-0.1-1.6,0.1-2.3,0.3c-7,0.4-12.2,5.6-16.9,10.5c-2.5,2.5-9.4,7.6-6.3,11.7
		c-0.9,0.6-1.8,1.2-2.7,1.7c-4.6-3.4-4.1-11-3.3-16.6c1,0.2,2,0.1,3,0.3c0.2,0,0.4-0.1,0.4-0.3c0.1,0,0.1-0.1,0.2-0.2
		c0.2-0.7,0.3-1.5,0.5-2.2c0.6,0.2,1.2,0.2,1.8,0.2c0.9,0,1.8-0.1,2.6-0.3c0.1,0.3,0.2,0.5,0.2,0.7c0.1,0.4,0.3,0.9,0.5,1.2
		c0.1,0.2,0.3,0.2,0.4,0.1c0,0,0,0,0.1,0c1.3-0.4,2.6-0.8,3.7-1.7c0.2,0,0.5-0.2,0.4-0.5c0-0.1,0-0.2-0.1-0.2
		c-0.3-0.5-0.5-1.1-0.7-1.7c0.1,0,0.1,0,0.2-0.1c1-1,2-2,2.7-3.2c0.2,0.1,0.4,0.2,0.6,0.3c0.3,0.2,0.7,0.3,1,0.4
		c0.1,0,0.1,0.1,0.2,0c0.5-0.1,0.6-0.7,0.8-1.1c0.2-0.5,0.4-1,0.5-1.5c0.1-0.1,0.1-0.3,0.1-0.4c0-0.1-0.2-0.2-0.3-0.2
		c-0.6-0.2-1.2-0.4-1.7-0.7c0,0,0,0,0-0.1c0.1-1,0.5-1.9,0.4-2.9c0.3,0.2,0.8,0.4,1.2,0.5c0.4,0.1,0.9,0.3,1.4,0.3
		c0.2,0.1,0.5,0,0.5-0.3c0-0.8,0-1.7-0.1-2.5c0.2-0.1,0.3-0.6-0.1-0.7c-0.7-0.2-1.5-0.3-2.3-0.3c0,0,0,0,0,0
		c0.1-1.1-0.4-2.4-0.9-3.4c0.3-0.2,0.5-0.4,0.8-0.5c0.3-0.2,0.7-0.3,1-0.5c0.1,0,0.1-0.1,0.1-0.2c0.1-0.1,0.1-0.1,0.1-0.2
		c0-0.2-0.1-0.3-0.3-0.5c-0.2-0.2-0.4-0.5-0.6-0.8c-0.3-0.4-0.5-0.9-0.9-1.3c0,0,0,0,0,0c-0.1-0.1-0.3-0.2-0.5,0
		c-0.3,0.4-0.7,0.6-1.1,0.9c-0.5-1-1.3-1.7-2.2-2.2c0.5-0.5,0.9-1,1.2-1.6c0.1-0.2,0-0.3-0.1-0.4c-0.9-0.6-1.8-1.1-2.6-1.8
		c0,0-0.1,0-0.1,0c0,0,0,0,0,0c0.2-0.4,0.3-0.7,0.5-1.1c0.2-0.4,0.3-0.8,0.5-1.2c2.9-4.7,3.7-9.7,4-15.2c5.2,3.4,12,7,17.6,4.2
		c3.1-1.2,5.8-3.3,8.6-5.2c-2,3.8-1.9,8.1-1.3,12.3c0.4,2.8,1,6.3,2.1,9.3c-5.3,2-8.6,9.2-7.8,14.6c1,6.4,7,12.4,14,10.5
		c0,0,0,0,0,0c0.8,1.9,1.5,3.8,1.7,6c0.2,2.8,0.4,6.7-1.6,8.9C71.9,65.9,71.6,65.6,71.2,65.3z M73,66.8c1.9-2.2,1.9-5.5,1.7-8.2
		c-0.1-2.1-0.6-4-1.3-6c-0.4-1.2-1-2.2-1.6-3.3c-0.1-0.2-0.2-0.4-0.2-0.5c-0.2-0.3-0.4-0.7-0.6-1c1.5-0.1,2.8-0.5,4.1-1.1
		c0.2,0.3,0.3,0.5,0.5,0.8c0.1,0.1,0.2,0.3,0.2,0.4c0,0,0,0,0,0c0.2,0.6,0.5,1.1,0.7,1.7c0,0.1,0,0.3,0.1,0.4
		c1.6,4.2,2.8,9.1,1.9,13.3c-0.2,0.1-0.3,0.4-0.1,0.6c-0.5,1.8-1.3,3.4-2.7,4.8C74.8,68.1,73.9,67.4,73,66.8z M97,64.8
		c-1.9,4.3-5.1,7.4-11.3,7.1c-2.2-0.1-4.1-0.5-6-1.2c6.4-2.2,12.3-4.4,17.9-8.2C97.5,63.2,97.3,64,97,64.8z M97.8,61.8
		c-2.6,1.5-5.2,3-7.9,4.3c-3.6,1.8-7.7,2.6-11.5,3.9c-0.6-0.3-1.2-0.6-1.8-0.9c1.7-1.3,2.5-3.2,2.8-5.3c3.8-0.5,7.1-2.1,10.5-3.8
		c3-1.5,6.2-2.8,8.5-5.3C98.4,57.1,98.3,59.5,97.8,61.8z"/>
	<path fill="#FFFFFF" d="M79.3,16.9c1.8-0.5,2.4-2.5,1.7-4.1c-0.5-1.1-2.7-2.9-3.6-1.2c-0.3,0.2-0.5,0.4-0.6,0.5
		c-0.6,0.6-0.9,1.5-0.9,2.4C75.7,16.5,77.5,17.3,79.3,16.9z M76.9,12.4c0.2-0.3,0.5-0.5,0.7-0.6c0.5,0,0.9-0.2,1.4,0
		c0.5,0.2,0.9,0.7,1.2,1.1c0.7,1.3,0.2,2.7-1.1,3.2c-1.5,0.5-2.7-0.3-2.8-1.9C76.3,13.6,76.6,13,76.9,12.4z"/>
	<path fill="#FFFFFF" d="M86.1,23.3c1.5-0.4,1.9-2.1,1.6-3.4c-0.4-1.4-2.3-2.7-3.5-1.5c0,0,0,0.1,0,0.1c-0.2,0.1-0.3,0.2-0.4,0.3
		c-0.6,0.5-1,1.3-1,2.1C82.7,22.6,84.4,23.8,86.1,23.3z M84,19.2c0.3-0.3,0.7-0.4,1.1-0.5c0.7,0.1,1.3,0.2,1.8,1.1
		c0.4,0.9,0.2,2.1-0.6,2.6c-1.2,0.8-2.6-0.3-2.7-1.6C83.4,20.3,83.6,19.7,84,19.2z"/>
	<path fill="#FFFFFF" d="M79.2,23.7c-1.1-0.4-2.4,0.9-2.8,1.9c-0.8,1.9,0.2,3.6,2.2,3.8c1.8,0.2,3-1.2,3.1-2.9
		C81.8,25.2,80.6,23.7,79.2,23.7z M79,28.8c-3.2,0.2-2.6-4-0.4-4.6c0.6,0.2,1.2,0.2,1.8,0.6c0.5,0.4,0.7,1,0.7,1.6
		C81,27.6,80.3,28.7,79,28.8z"/>
</g>
</svg>
