<?xml version="1.0" encoding="utf-8"?>
<!-- Generator: Adobe Illustrator 18.0.0, SVG Export Plug-In . SVG Version: 6.00 Build 0)  -->
<!DOCTYPE svg PUBLIC "-//W3C//DTD SVG 1.1//EN" "http://www.w3.org/Graphics/SVG/1.1/DTD/svg11.dtd">
<svg version="1.1" id="Слой_1" xmlns="http://www.w3.org/2000/svg" xmlns:xlink="http://www.w3.org/1999/xlink" x="0px" y="0px"
	 viewBox="0 0 9 9" enable-background="new 0 0 9 9" xml:space="preserve">
<path fill="#C4B090" d="M4.5,0C2,0,0,2,0,4.5S2,9,4.5,9S9,7,9,4.5S7,0,4.5,0z M8.7,4.2C8.6,4.4,8.4,4.7,8.2,4.8C8.1,5.1,8,5.7,8,5.9
	C7.9,6.2,7.5,6.5,7.5,6.5c-0.1,0,0-0.3,0-0.5c0.1-0.2-0.2-0.4-0.2-0.6c0-0.2-0.3-0.8-0.4-0.8c-0.1,0-0.6-0.1-0.8,0
	c-0.1,0-0.5,0-0.7-0.1C5.2,4.3,5.2,3.6,5.2,3.4c0-0.2,0.3-0.3,0.3-0.4c0.1-0.1,0.1-0.3,0.3-0.2C5.9,2.7,6,2.6,6,2.6
	c0.3-0.1,0.5,0.2,0.9,0.2c0.4,0,0.3,0,0.7-0.1c0.4-0.1,0.1-0.4,0-0.4C7.5,2.2,7.4,2.4,7.2,2.4C7,2.5,7,2.4,6.7,2.3
	C6.4,2.3,6.5,2.1,6.4,2c-0.1-0.1,0,0.1-0.3,0.2C5.8,2.3,5.8,2.4,5.5,2.3C5.2,2.2,5.5,2.1,5.6,1.9C5.7,1.8,6,1.4,6.1,1.1
	C6.2,0.9,6,0.9,5.7,1C5.5,1,5.5,0.9,5.2,0.8C4.9,0.8,5,0.5,5,0.3C7,0.6,8.5,2.2,8.7,4.2z M3.7,1.3c0,0,0.1,0.2,0.1,0.2
	c-0.1,0-0.3,0-0.4,0C2.9,2.1,2.2,2.9,2.2,3.2C2.1,3.5,2,3.5,2,3.5S1.7,2.9,1.4,3.1C1.1,3.2,1.1,3.8,1.3,3.8c0.2,0,0.3-0.2,0.4-0.1
	c0.1,0.1,0,0.1,0.1,0.4c0.1,0.3,0,0.5,0,0.5S1.2,4.5,1,4.3C0.8,4.1,0.8,3.8,0.7,3.7C0.6,3.6,0.6,3.3,0.5,3.1c0.5-1.3,1.6-2.4,3-2.7
	C3.6,0.6,3.8,1.1,3.7,1.3z M3.1,8.5c0,0-0.1-0.1-0.1-0.2C2.9,8,2.7,7.6,2.7,7.3c0-0.3,0.2-0.7-0.3-1C2,6.1,1.8,5.7,1.8,5.5
	c0-0.2,0.1-0.8,0.1-0.8c0,0,0.3-0.1,0.5-0.2c0.2-0.1,0.6,0,0.9,0.2c0.3,0.3,0.6,0.5,0.9,0.6c0.4,0.1,0.6,0,0.6,0.2
	c0.1,0.2-0.1,0.2-0.2,0.4C4.6,6,4.1,7.4,3.8,7.7C3.4,7.9,3.3,7.9,3.3,8.2c0,0.2,0,0.3,0,0.4C3.3,8.5,3.2,8.5,3.1,8.5z"/>
</svg>
