<?xml version="1.0" encoding="utf-8"?>
<!-- Generator: Adobe Illustrator 18.0.0, SVG Export Plug-In . SVG Version: 6.00 Build 0)  -->
<!DOCTYPE svg PUBLIC "-//W3C//DTD SVG 1.1//EN" "http://www.w3.org/Graphics/SVG/1.1/DTD/svg11.dtd">
<svg version="1.1" id="Слой_1" xmlns="http://www.w3.org/2000/svg" xmlns:xlink="http://www.w3.org/1999/xlink" x="0px" y="0px"
	 viewBox="0 0 9 8.9" enable-background="new 0 0 9 8.9" xml:space="preserve">
<g>
	<g>
		<path fill="#C4B090" d="M2.3,4.3h2V2.8c-0.7,0-1.3-0.1-1.8-0.2C2.4,3,2.3,3.6,2.3,4.3z"/>
		<path fill="#C4B090" d="M2.5,6.4c0.5-0.1,1.1-0.2,1.8-0.2V4.6h-2C2.3,5.2,2.4,5.8,2.5,6.4z"/>
		<path fill="#C4B090" d="M4.3,8.8V6.4c-0.7,0-1.2,0.1-1.7,0.2C3,7.8,3.6,8.7,4.3,8.8z"/>
		<path fill="#C4B090" d="M4.3,0.1C3.6,0.2,3,1,2.6,2.2c0.5,0.1,1.1,0.2,1.7,0.2V0.1z"/>
		<path fill="#C4B090" d="M4.6,0.1v2.4c0.7,0,1.2-0.1,1.7-0.2C6,1,5.4,0.2,4.6,0.1z"/>
		<path fill="#C4B090" d="M7,4.6c0,0.7-0.1,1.3-0.2,1.9C7.4,6.7,7.8,7,8.1,7.1C8.6,6.4,9,5.5,9,4.6H7z"/>
		<path fill="#C4B090" d="M7,4.3h2c0-0.9-0.3-1.8-0.8-2.5C7.9,2,7.4,2.2,6.7,2.4C6.9,3,7,3.6,7,4.3z"/>
		<path fill="#C4B090" d="M6.7,2.1C7.3,1.9,7.7,1.7,8,1.6C7.3,0.8,6.3,0.2,5.2,0C5.9,0.4,6.4,1.1,6.7,2.1z"/>
		<path fill="#C4B090" d="M2.3,2.1c0.3-1,0.8-1.8,1.4-2.1C2.7,0.2,1.7,0.8,1,1.6C1.3,1.7,1.7,1.9,2.3,2.1z"/>
		<path fill="#C4B090" d="M2,4.3C2,3.6,2.1,3,2.3,2.4C1.6,2.2,1.1,2,0.8,1.8C0.3,2.5,0,3.4,0,4.3H2z"/>
		<path fill="#C4B090" d="M2.3,6.7C1.7,6.9,1.3,7.2,1,7.3c0.7,0.8,1.6,1.4,2.7,1.6C3.1,8.5,2.6,7.8,2.3,6.7z"/>
		<path fill="#C4B090" d="M6.6,6.8c-0.3,1-0.8,1.7-1.4,2.1c1-0.2,2-0.7,2.6-1.5C7.6,7.2,7.2,7,6.6,6.8z"/>
		<path fill="#C4B090" d="M6.4,2.5C5.9,2.6,5.3,2.7,4.6,2.8v1.5h2C6.7,3.6,6.6,3,6.4,2.5z"/>
		<path fill="#C4B090" d="M6.7,4.6h-2v1.5c0.7,0,1.3,0.1,1.8,0.3C6.6,5.9,6.7,5.2,6.7,4.6z"/>
		<path fill="#C4B090" d="M6.4,6.7C5.9,6.6,5.3,6.4,4.6,6.4v2.3C5.4,8.7,6,7.9,6.4,6.7z"/>
		<path fill="#C4B090" d="M2,4.6H0C0,5.5,0.3,6.3,0.8,7c0.2-0.1,0.7-0.4,1.4-0.6C2.1,5.9,2,5.3,2,4.6z"/>
	</g>
</g>
</svg>
