<?xml version="1.0" encoding="utf-8"?>
<!-- Generator: Adobe Illustrator 18.0.0, SVG Export Plug-In . SVG Version: 6.00 Build 0)  -->
<!DOCTYPE svg PUBLIC "-//W3C//DTD SVG 1.1//EN" "http://www.w3.org/Graphics/SVG/1.1/DTD/svg11.dtd">
<svg version="1.1" id="Слой_1" xmlns="http://www.w3.org/2000/svg" xmlns:xlink="http://www.w3.org/1999/xlink" x="0px" y="0px"
	 viewBox="0 0 9 8.4" enable-background="new 0 0 9 8.4" xml:space="preserve">
<g>
	<g>
		<path fill="#C4B090" d="M8.9,4L4.5,0L0,4C0,4,0,4.1,0,4.2c0.1,0.1,0.2,0.1,0.2,0l4.2-3.8l4.2,3.8c0,0,0.1,0,0.1,0c0,0,0.1,0,0.1,0
			C9,4.1,9,4,8.9,4z"/>
		<path fill="#C4B090" d="M4.5,1.2L1,4.3v4.2h2.2v-3c0-0.6,0.5-1,1-1h0.3c0.6,0,1,0.5,1,1v3h2.2l0-4.2L4.5,1.2z"/>
	</g>
</g>
</svg>
