<?xml version="1.0" encoding="utf-8"?>
<!-- Generator: Adobe Illustrator 18.0.0, SVG Export Plug-In . SVG Version: 6.00 Build 0)  -->
<!DOCTYPE svg PUBLIC "-//W3C//DTD SVG 1.1//EN" "http://www.w3.org/Graphics/SVG/1.1/DTD/svg11.dtd">
<svg version="1.1" id="Слой_1" xmlns="http://www.w3.org/2000/svg" xmlns:xlink="http://www.w3.org/1999/xlink" x="0px" y="0px"
	 viewBox="0 0 197.1 46.8" enable-background="new 0 0 197.1 46.8" xml:space="preserve">
<polygon fill="#49433E" points="188.4,46.8 8.7,46.8 0,0 197.1,0 "/>
<g>
	<polygon fill="#49433E" points="188.4,46.8 8.7,46.8 0,0 197.1,0 	"/>
	<path fill="#906D57" d="M197.1,0h-1.8v1.5L195,1.5l-0.3,1.8l1.8,0.3l0.3-1.8l-0.1,0h0.1L197.1,0L197.1,0z M193.5,0h-1.8v1.8h1.8V0
		L193.5,0z M189.9,0h-1.8v1.8h1.8V0L189.9,0z M186.3,0h-1.8v1.8h1.8V0L186.3,0z M182.8,0H181v1.8h1.8V0L182.8,0z M179.2,0h-1.8v1.8
		h1.8V0L179.2,0z M175.6,0h-1.8v1.8h1.8V0L175.6,0z M172,0h-1.8v1.8h1.8V0L172,0z M168.5,0h-1.8v1.8h1.8V0L168.5,0z M164.9,0h-1.8
		v1.8h1.8V0L164.9,0z M161.3,0h-1.8v1.8h1.8V0L161.3,0z M157.7,0h-1.8v1.8h1.8V0L157.7,0z M154.2,0h-1.8v1.8h1.8V0L154.2,0z
		 M150.6,0h-1.8v1.8h1.8V0L150.6,0z M147,0h-1.8v1.8h1.8V0L147,0z M143.4,0h-1.8v1.8h1.8V0L143.4,0z M139.9,0h-1.8v1.8h1.8V0
		L139.9,0z M136.3,0h-1.8v1.8h1.8V0L136.3,0z M132.7,0h-1.8v1.8h1.8V0L132.7,0z M129.1,0h-1.8v1.8h1.8V0L129.1,0z M125.6,0h-1.8v1.8
		h1.8V0L125.6,0z M122,0h-1.8v1.8h1.8V0L122,0z M118.4,0h-1.8v1.8h1.8V0L118.4,0z M114.8,0H113v1.8h1.8V0L114.8,0z M111.2,0h-1.8
		v1.8h1.8V0L111.2,0z M107.7,0h-1.8v1.8h1.8V0L107.7,0z M104.1,0h-1.8v1.8h1.8V0L104.1,0z M100.5,0h-1.8v1.8h1.8V0L100.5,0z M96.9,0
		h-1.8v1.8h1.8V0L96.9,0z M93.4,0h-1.8v1.8h1.8V0L93.4,0z M89.8,0H88v1.8h1.8V0L89.8,0z M86.2,0h-1.8v1.8h1.8V0L86.2,0z M82.6,0
		h-1.8v1.8h1.8V0L82.6,0z M79.1,0h-1.8v1.8h1.8V0L79.1,0z M75.5,0h-1.8v1.8h1.8V0L75.5,0z M71.9,0h-1.8v1.8h1.8V0L71.9,0z M68.3,0
		h-1.8v1.8h1.8V0L68.3,0z M64.8,0H63v1.8h1.8V0L64.8,0z M61.2,0h-1.8v1.8h1.8V0L61.2,0z M57.6,0h-1.8v1.8h1.8V0L57.6,0z M54,0h-1.8
		v1.8H54V0L54,0z M50.5,0h-1.8v1.8h1.8V0L50.5,0z M46.9,0h-1.8v1.8h1.8V0L46.9,0z M43.3,0h-1.8v1.8h1.8V0L43.3,0z M39.7,0h-1.8v1.8
		h1.8V0L39.7,0z M36.2,0h-1.8v1.8h1.8V0L36.2,0z M32.6,0h-1.8v1.8h1.8V0L32.6,0z M29,0h-1.8v1.8H29V0L29,0z M25.4,0h-1.8v1.8h1.8V0
		L25.4,0z M21.9,0h-1.8v1.8h1.8V0L21.9,0z M18.3,0h-1.8v1.8h1.8V0L18.3,0z M14.7,0h-1.8v1.8h1.8V0L14.7,0z M11.1,0H9.3v1.8h1.8V0
		L11.1,0z M7.5,0H5.8v1.8h1.8V0L7.5,0z M4,0H2.2v1.8H4V0L4,0z M1.8,0H0l0,0l0.3,1.8h0.1V1.3L2,1L1.8,0L1.8,0z M2.3,2.8L0.6,3.1
		l0.3,1.8l1.8-0.3L2.3,2.8L2.3,2.8z M3,6.3L1.2,6.6c0,0,0.1,0.4,0.2,0.9l0,0c0,0,0,0,0,0l0,0c0,0,0,0,0,0l0,0c0,0,0,0,0,0l0.2,0.9
		l1.8-0.3L3,6.3L3,6.3z M3.6,9.8l-1.8,0.3L2,10.7c0.1,0.5,0.2,1.2,0.2,1.2L4,11.6L3.6,9.8L3.6,9.8z M4.3,13.3l-1.8,0.3l0.3,1.8
		l1.8-0.3L4.3,13.3L4.3,13.3z M4.9,16.9l-1.8,0.3l0.3,1.8l1.8-0.3L4.9,16.9L4.9,16.9z M5.6,20.4l-1.8,0.3l0.3,1.8l1.8-0.3L5.6,20.4
		L5.6,20.4z M6.2,23.9l-1.8,0.3c0,0,0.1,0.3,0.1,0.7l0,0c0,0,0,0,0,0l0,0c0,0,0,0,0,0l0,0c0,0,0,0,0,0l0,0c0,0,0,0,0,0l0,0
		c0,0,0,0,0,0v0c0,0,0,0,0,0l0,0c0,0,0,0,0,0l0,0c0,0,0,0,0,0l0,0c0,0,0,0,0,0l0,0c0,0,0,0,0,0l0,0c0,0,0,0,0,0l0,0c0,0,0,0,0,0
		L4.8,26l1.8-0.3L6.2,23.9L6.2,23.9z M6.9,27.4l-1.8,0.3l0.1,0.6c0,0,0,0,0,0l0,0v0l0,0c0.1,0.5,0.2,1.1,0.2,1.1l1.8-0.3L6.9,27.4
		L6.9,27.4z M7.6,30.9l-1.8,0.3c0,0,0.2,1.3,0.3,1.7l0,0c0,0,0,0,0,0l0,0c0,0,0,0,0,0l0,0v0l0,0c0,0,0,0,0,0l0,0c0,0,0,0,0,0v0
		c0,0,0,0,0,0v0c0,0,0,0,0,0l0,0c0,0,0,0,0,0l0,0v0l0,0c0,0,0,0,0,0l0,0v0l0,0c0,0,0,0,0,0l0,0c0,0,0,0,0,0l0,0l0,0l0,0l1.8-0.3
		L7.6,30.9L7.6,30.9z M8.2,34.4l-1.8,0.3l0.3,1.8l1.8-0.3L8.2,34.4L8.2,34.4z M8.9,38l-1.8,0.3L7.4,40l1.8-0.3L8.9,38L8.9,38z
		 M9.5,41.5l-1.8,0.3c0,0,0.1,0.3,0.1,0.7l0,0c0,0,0,0,0,0l0,0c0,0,0,0,0,0l0,0c0,0,0,0,0,0l0,0c0,0,0,0,0,0l0,0c0,0,0,0,0,0l0,0
		c0,0,0,0,0,0l0,0l0,0l0.2,1l1.8-0.3L9.5,41.5L9.5,41.5z M10.2,45l-1.2,0.2V45H8.7v0.2l0,0V45v0.2l-0.3,0.1l0.3,1.4l0,0l0,0
		c0,0,0,0,0,0l0,0v0l0,0l0,0l0,0l0,0l0,0c0,0,0,0,0,0v0c0,0,0,0,0,0l0,0c0,0,0,0,0,0v0c0,0,0,0,0,0v0c0,0,0,0,0,0v0c0,0,0,0,0,0v0
		c0,0,0,0,0,0v0c0,0,0,0,0,0l0,0h0.2v0l1.5-0.3l0,0l0,0l0,0L10.2,45L10.2,45z M12.5,45h-1.8v1.8h1.8V45L12.5,45z M16.1,45h-1.8v1.8
		h1.8V45L16.1,45z M19.6,45h-1.8v1.8h1.8V45L19.6,45z M23.2,45h-1.8v1.8h1.8V45L23.2,45z M26.8,45H25v1.8h1.8V45L26.8,45z M30.4,45
		h-1.8v1.8h1.8V45L30.4,45z M33.9,45h-1.8v1.8h1.8V45L33.9,45z M37.5,45h-1.8v1.8h1.8V45L37.5,45z M41.1,45h-1.8v1.8h1.8V45L41.1,45
		z M44.7,45h-1.8v1.8h1.8V45L44.7,45z M48.2,45h-1.8v1.8h1.8V45L48.2,45z M51.8,45H50v1.8h1.8V45L51.8,45z M55.4,45h-1.8v1.8h1.8V45
		L55.4,45z M59,45h-1.8v1.8H59V45L59,45z M62.6,45h-1.8v1.8h1.8V45L62.6,45z M66.1,45h-1.8v1.8h1.8V45L66.1,45z M69.7,45h-1.8v1.8
		h1.8V45L69.7,45z M73.3,45h-1.8v1.8h1.8V45L73.3,45z M76.9,45h-1.8v1.8h1.8V45L76.9,45z M80.4,45h-1.8v1.8h1.8V45L80.4,45z M84,45
		h-1.8v1.8H84V45L84,45z M87.6,45h-1.8v1.8h1.8V45L87.6,45z M91.2,45h-1.8v1.8h1.8V45L91.2,45z M94.7,45h-1.8v1.8h1.8V45L94.7,45z
		 M98.3,45h-1.8v1.8h1.8V45L98.3,45z M101.9,45h-1.8v1.8h1.8V45L101.9,45z M105.5,45h-1.8v1.8h1.8V45L105.5,45z M109,45h-1.8v1.8
		h1.8V45L109,45z M112.6,45h-1.8v1.8h1.8V45L112.6,45z M116.2,45h-1.8v1.8h1.8V45L116.2,45z M119.8,45H118v1.8h1.8V45L119.8,45z
		 M123.3,45h-1.8v1.8h1.8V45L123.3,45z M126.9,45h-1.8v1.8h1.8V45L126.9,45z M130.5,45h-1.8v1.8h1.8V45L130.5,45z M134.1,45h-1.8
		v1.8h1.8V45L134.1,45z M137.6,45h-1.8v1.8h1.8V45L137.6,45z M141.2,45h-1.8v1.8h1.8V45L141.2,45z M144.8,45H143v1.8h1.8V45
		L144.8,45z M148.4,45h-1.8v1.8h1.8V45L148.4,45z M151.9,45h-1.8v1.8h1.8V45L151.9,45z M155.5,45h-1.8v1.8h1.8V45L155.5,45z
		 M159.1,45h-1.8v1.8h1.8V45L159.1,45z M162.7,45h-1.8v1.8h1.8V45L162.7,45z M166.3,45h-1.8v1.8h1.8V45L166.3,45z M169.8,45H168v1.8
		h1.8V45L169.8,45z M173.4,45h-1.8v1.8h1.8V45L173.4,45z M177,45h-1.8v1.8h1.8V45L177,45z M180.6,45h-1.8v1.8h1.8V45L180.6,45z
		 M184.1,45h-1.8v1.8h1.8V45L184.1,45z M187.2,43.7l-0.3,1.4h-1v1.8h1.8v-1.2l0.9,0.2l0.3-1.4v0l0,0l0,0l0,0v0l0,0l0,0l0,0
		c0,0,0,0,0,0l0,0c0,0,0,0,0,0l0,0c0,0,0,0,0,0l0,0v0l0,0c0,0,0,0,0,0l0,0c0,0,0,0,0,0l0,0c0,0,0,0,0,0l0,0c0,0,0,0,0,0l0,0
		c0,0,0,0,0,0v0c0,0,0,0,0,0l0,0c0,0,0,0,0,0l0,0c0,0,0,0,0,0l0,0c0,0,0,0,0,0l0,0c0,0,0,0,0,0l0,0c0,0,0,0,0,0v0c0,0,0-0.1,0-0.1
		l0,0c0,0,0-0.1,0-0.1L187.2,43.7L187.2,43.7z M187.8,40.2l-0.3,1.8l1.8,0.3l0.3-1.8L187.8,40.2L187.8,40.2z M188.5,36.6l-0.3,1.8
		l1.8,0.3l0.3-1.8L188.5,36.6L188.5,36.6z M189.1,33.1l-0.3,1.8l1.8,0.3l0.3-1.8L189.1,33.1L189.1,33.1z M189.8,29.6l-0.3,1.8
		l1.8,0.3c0,0,0.1-0.4,0.2-0.9l0.2-0.9L189.8,29.6L189.8,29.6z M190.4,26.1l-0.3,1.8l1.8,0.3l0.2-1l0,0l0,0l0,0l0,0c0,0,0,0,0,0h0
		c0,0,0,0,0,0l0,0c0,0,0,0,0,0v0c0.1-0.4,0.1-0.7,0.1-0.7L190.4,26.1L190.4,26.1z M191.1,22.6l-0.3,1.8l1.8,0.3l0.3-1.8L191.1,22.6
		L191.1,22.6z M191.7,19.1l-0.3,1.8l1.8,0.3l0.3-1.8L191.7,19.1L191.7,19.1z M192.4,15.5l-0.3,1.8l1.8,0.3l0-0.1l0,0v0c0,0,0,0,0,0
		l0,0c0,0,0,0,0,0v0c0.1-0.4,0.3-1.7,0.3-1.7L192.4,15.5L192.4,15.5z M193,12l-0.3,1.8l1.8,0.3c0,0,0.1-0.5,0.2-0.9l0,0v0l0.2-0.8
		L193,12L193,12z M193.7,8.5l-0.3,1.8l1.8,0.3l0.3-1.5c0,0,0,0,0,0v0c0,0,0,0,0,0v0c0,0,0,0,0,0l0,0c0-0.1,0-0.2,0-0.2L193.7,8.5
		L193.7,8.5z M194.3,5L194,6.8l1.8,0.3l0.3-1.8L194.3,5L194.3,5z"/>
	<path fill="#49433E" d="M195.6,1.2l-8.2,44.4H9.7L1.4,1.2H195.6 M197.1,0H0l8.7,46.8h179.7L197.1,0L197.1,0z"/>
</g>
<g>
	<rect x="55.8" y="37.4" fill="#C4B090" width="83.2" height="0.4"/>
</g>
<g>
	<rect x="47.7" y="8.4" fill="#C4B090" width="99.3" height="0.4"/>
</g>
<text transform="matrix(1 0 0 1 12.8495 31.7519)" fill="#26201A" font-family="'PFDinTextCompPro-Bold'" font-size="23.9235">СИБНЕФТЕХИМТРЕЙД</text>
<g>
	<path fill="#C0AD8F" d="M18,14.7c1.5,0,2.5,0.4,3.2,1.1c0.7,0.7,1,1.6,1,2.8c0,0.1,0,0.2,0,0.2c0,0.1,0,0.1,0,0.2l-3.1,0.6
		c0-0.5-0.1-0.9-0.3-1.2c-0.2-0.3-0.5-0.5-0.8-0.5c-0.2,0-0.4,0-0.5,0.1c-0.1,0.1-0.2,0.2-0.3,0.3c-0.1,0.1-0.1,0.3-0.2,0.4
		c0,0.2,0,0.3,0,0.4v8.5c0,0.2,0.1,0.4,0.2,0.6c0.1,0.2,0.4,0.3,0.8,0.3c0.3,0,0.6-0.1,0.8-0.4s0.3-0.7,0.3-1.3l3.2,0.4
		c0,1.3-0.4,2.4-1.1,3.2c-0.7,0.8-1.8,1.2-3.1,1.2c-1.5,0-2.6-0.4-3.3-1.1c-0.7-0.7-1-1.8-1-3.2v-8.3c0-1.3,0.4-2.4,1.1-3.2
		C15.4,15.1,16.5,14.7,18,14.7z"/>
	<path fill="#C0AD8F" d="M29.7,22.8l-2.6,8.7h-3.2V14.8h3.2v8.8h0.1l2.5-8.8H33v16.7h-3.3L29.7,22.8L29.7,22.8z"/>
	<path fill="#C0AD8F" d="M35.3,31.5V14.8h7.6v3.1h-4.4v3h0.8c1.6,0,2.8,0.4,3.5,1.3s1.1,2.2,1.1,3.9c0,0.9-0.1,1.7-0.3,2.4
		c-0.2,0.7-0.6,1.2-1,1.7c-0.4,0.4-0.9,0.7-1.5,0.9s-1.2,0.3-1.8,0.3H35.3z M39.1,28.4c0.5,0,0.9-0.2,1.2-0.5s0.4-0.9,0.4-1.7
		c0-0.5,0-0.9-0.1-1.1c-0.1-0.3-0.2-0.5-0.4-0.6s-0.3-0.2-0.5-0.3c-0.2,0-0.4-0.1-0.6-0.1h-0.6v4.3H39.1z"/>
	<path fill="#C0AD8F" d="M50.8,31.5v-6.9h-2.1v6.9h-3.3V14.8h3.3v6.6h2.1v-6.6h3.3v16.7H50.8z"/>
	<path fill="#C0AD8F" d="M56.5,31.5V14.8h7.6v3.1h-4.4v3.5h3.8v3.1h-3.8v3.8h4.4v3.1H56.5z"/>
	<path fill="#C0AD8F" d="M78.3,25.4c0,0.7-0.1,1.4-0.3,1.9c-0.2,0.6-0.5,1-1,1.4c-0.4,0.4-0.9,0.7-1.5,0.9c-0.6,0.2-1.2,0.4-1.9,0.4
		v1.4h-3.3v-1.4c-0.7,0-1.3-0.2-1.9-0.4c-0.6-0.2-1.1-0.5-1.5-0.9c-0.4-0.4-0.7-0.9-1-1.4c-0.2-0.6-0.3-1.2-0.3-1.9v-5.2
		c0-0.7,0.1-1.4,0.3-1.9c0.2-0.6,0.5-1,1-1.4c0.4-0.4,0.9-0.7,1.5-0.9c0.6-0.2,1.2-0.3,1.9-0.4v-0.8h3.3v0.8
		c1.4,0.1,2.5,0.5,3.4,1.3c0.8,0.8,1.2,1.9,1.2,3.3V25.4z M70.4,18.5c-0.5,0-0.8,0.2-1.1,0.5c-0.3,0.3-0.4,0.7-0.4,1.2v5.4
		c0,0.5,0.1,0.9,0.4,1.2s0.6,0.5,1.1,0.5V18.5z M75.1,20.2c0-0.5-0.1-0.9-0.4-1.2s-0.6-0.4-1-0.4v8.7c0.4,0,0.8-0.2,1-0.5
		c0.3-0.3,0.4-0.7,0.4-1.1V20.2z"/>
	<path fill="#C0AD8F" d="M85,17.9v13.5h-3.3V17.9h-2.6v-3.1h8.4v3.1H85z"/>
	<path fill="#C0AD8F" d="M89,31.5V14.8h7.6v3.1h-4.4v3.5H96v3.1h-3.8v3.8h4.4v3.1H89z"/>
	<path fill="#C0AD8F" d="M102.5,26.6l-1.5,4.9h-3.8l3.4-8.7l-3.2-8h3.8l1.2,4.1h0.1l1.1-4.1h3.8l-3.3,8l3.5,8.7H104L102.5,26.6
		L102.5,26.6z"/>
	<path fill="#C0AD8F" d="M114.8,22.8l-2.6,8.7H109V14.8h3.2v8.8h0.1l2.5-8.8h3.3v16.7h-3.3L114.8,22.8L114.8,22.8z"/>
	<path fill="#C0AD8F" d="M125.1,28.2l-0.7-2.1l-0.8-2.5h-0.1v7.8h-3.3V14.8h3l1.7,4.4l1.1,3.3h0.1l1.1-3.4l1.6-4.4h3v16.7h-3.3v-7.8
		h-0.1l-0.8,2.6l-0.6,1.9H125.1z"/>
	<path fill="#C0AD8F" d="M139,17.9v13.5h-3.3V17.9h-2.6v-3.1h8.4v3.1H139z"/>
	<path fill="#C0AD8F" d="M146.9,14.8c0.7,0,1.3,0.1,1.9,0.3c0.6,0.2,1.1,0.4,1.5,0.8c0.4,0.4,0.7,0.9,0.9,1.6
		c0.2,0.7,0.3,1.5,0.3,2.5c0,1.7-0.4,3-1.1,4c-0.7,0.9-1.9,1.4-3.5,1.4h-0.8v6.1h-3.3V14.8H146.9z M146.2,17.9v4.3h0.6
		c0.2,0,0.4,0,0.6-0.1s0.4-0.2,0.5-0.3c0.2-0.2,0.3-0.4,0.4-0.7s0.1-0.7,0.1-1.2c0-0.7-0.1-1.3-0.4-1.6c-0.3-0.3-0.7-0.5-1.2-0.5
		H146.2z"/>
	<path fill="#C0AD8F" d="M153.2,31.5V14.8h7.6v3.1h-4.4v3.5h3.8v3.1h-3.8v3.8h4.4v3.1H153.2z"/>
	<path fill="#C0AD8F" d="M168.2,22.8l-2.6,8.7h-3.2V14.8h3.2v8.8h0.1l2.5-8.8h3.3v16.7h-3.3L168.2,22.8L168.2,22.8z M165.7,10.7
		c0,0.2,0.1,0.4,0.1,0.6s0.2,0.4,0.3,0.6c0.1,0.2,0.3,0.3,0.5,0.4c0.2,0.1,0.4,0.2,0.6,0.2c0.2,0,0.4-0.1,0.6-0.2
		c0.2-0.1,0.3-0.3,0.4-0.4c0.1-0.2,0.2-0.4,0.3-0.6c0.1-0.2,0.1-0.4,0.1-0.6h2.3c0,0.4-0.1,0.8-0.3,1.2c-0.2,0.4-0.4,0.8-0.7,1.2
		s-0.7,0.7-1.1,0.9c-0.4,0.2-1,0.4-1.6,0.4c-0.7,0-1.2-0.1-1.7-0.4c-0.5-0.2-0.8-0.5-1.1-0.9s-0.5-0.8-0.7-1.2
		c-0.1-0.4-0.2-0.8-0.2-1.2H165.7z"/>
	<path fill="#C0AD8F" d="M175.5,31.5v3.2h-2.7v-6l1-0.2c0.5-0.6,0.8-1.2,1-1.9c0.1-0.7,0.2-1.3,0.2-2l0.4-9.8h7.8v13.6h1.3v6.2h-2.7
		v-3.2H175.5z M178,24.9c0,0.7-0.1,1.4-0.2,2c-0.1,0.6-0.3,1.1-0.5,1.5h2.7V17.9h-1.8L178,24.9z"/>
</g>
</svg>
