<?xml version="1.0" encoding="utf-8"?>
<!-- Generator: Adobe Illustrator 18.0.0, SVG Export Plug-In . SVG Version: 6.00 Build 0)  -->
<!DOCTYPE svg PUBLIC "-//W3C//DTD SVG 1.1//EN" "http://www.w3.org/Graphics/SVG/1.1/DTD/svg11.dtd">
<svg version="1.1" id="Слой_1" xmlns="http://www.w3.org/2000/svg" xmlns:xlink="http://www.w3.org/1999/xlink" x="0px" y="0px"
	 viewBox="0 0 595.3 841.9" enable-background="new 0 0 595.3 841.9" xml:space="preserve">
<path fill="#C4B090" d="M561.1,521.3v-1l14.1,5c2-6,4-11,6-17.1l-14.1-4c2-5,3-11,5-16.1l14.1,4c1-6,3-12,4-17.1l-15.1-3
	c1-6,2-11,3-17.1l15.1,2c1-6,1-12,2-18.1l-15.1-1c0-6,0-11,0-17.1h15.1c0-6,0-12-1-18.1l-15.1,1c0-6-1-11-2-17.1l15.1-3
	c-1-6-2-12-3-18.1l-15.1,3c-1-6-2-11-4-17.1l14.1-4c-1-6-3-12-5-17.1l-14.1,4c-2-5-4-11-6-16.1l14.1-5c-2-6-4-11-7-17.1l-14.1,6
	c-2-5-5-10-7-15.1l13-7c-3-5-6-10-9-16.1l-13,8c-3-5-6-10-9-14.1l12-8c-3-5-7-10-11-14.1l-12,9c-3-4-7-9-11-13l11-10c-4-4-8-9-12-13
	l-10,11c-4-4-8-8-12-12l10-11c-4-4-9-8-14.1-11l-9,12c-4-3-9-7-14.1-10l8-12c-5-3-10-7-15.1-10l-8,13c-5-3-10-6-15.1-8l7-13
	c-5-3-11-5-16.1-8l-3,13.1c-5-2-10-4-15.1-6h-1l6-14.1c-6-2-11-4-17.1-6l-4,14.1c-5-2-11-3-16.1-5l4-14.1c-6-1-12-3-17.1-4l-4,15.1
	c-6-1-11-2-17.1-3l2-15.1c-6-1-12-1-18.1-2l-1,15.1c-6,0-11,0-17.1,0v-15.1c-6,0-12,0-18.1,1l1,15.1c-6,0-11,1-17.1,2l-2-15.1
	c-6,1-12,2-18.1,3l3,14.1c-6,1-11,2-17.1,4l-3-14.1c-6,1-12,3-17.1,5l4,14.1c-5,2-11,4-16.1,6l-5-15.1c-6,2-11,4-17.1,7l6,14.1
	c-5,2-10,5-15.1,7l-7-13c-5,3-10,6-16.1,9l8,13c-5,3-10,6-14.1,9l-8-12c-5,3-10,7-14.1,11l9,12c-4,3-9,7-13,11l-10-11
	c-5,2-9,7-13,11l11,11c-4,4-8,8-12,12l-11-10c-4,4-8,9-11,14.1l12,9c-3,4-7,9-10,14.1l-12-8c-3,5-7,10-10,15.1l13,8
	c-3,5-6,10-8,15.1l-15.1-8c-3,5-5,11-8,16.1l14.1,6c-2,5-4,10-6,15.1l-14.1-5c-2,6-4,11-6,17.1l14.1,4c-2,5-3,11-5,16.1l-14.1-4
	c-1,6-3,12-4,17.1l15.1,4c-1,6-2,11-3,17.1l-15.1-2c-1,6-1,12-2,18.1l16.1,1c0,6-1,11,0,17.1H1c0,6,0,12,1,18.1l15.1-1
	c0,6,1,11,2,17.1l-15.1,2c1,6,2,12,3,18.1l13-3c1,6,2,11,4,17.1l-14.1,4c1,6,3,12,5,17.1l14.1-4c2,5,4,11,6,16.1l-15.1,4
	c2,6,4,11,7,17.1l13-7c2,5,5,10,7,15.1l-13,7c3,6,6,11,9,16.1l13-8c3,5,6,10,9,14.1l-12,8c3,5,7,10,11,14.1l11-8c3,4,7,9,11,13
	l-11,10c4,4,8,9,12,13l11-11c4,4,8,8,12,12l-10,11c4,4,9,8,14.1,11l9-12c4,3,9,7,14.1,10l-8,12c5,3,10,7,15.1,10l8-13
	c5,3,10,6,15.1,8l-7,13c5,3,11,5,16.1,8l6-14.1c5,2,10,4,15.1,6l-5,14.1c6,2,11,4,17.1,6l4-14.1c5,2,11,3,16.1,5l-4,14.1
	c6,1,12,3,17.1,4l3-15.1c6,1,11,2,17.1,3l-2,15.1c6,1,12,1,18.1,2l1-15.1c6,0,11,1,17.1,1v15.1c6,0,12,0,18.1-1l-1-15.1
	c6,0,11-1,17.1-2l2,15.1c6-1,12-2,18.1-3l-3-15.1c6-1,11-2,17.1-4l4,14.1c6-1,12-3,17.1-5l-5-11c5-2,11-4,16.1-6l5,14.1
	c6-2,11-4,17.1-7l-6-14.1c5-2,10-5,15.1-7l7,13c5-3,10-6,16.1-9l-8-13c5-3,10-6,14.1-9l8,12c5-3,10-7,14.1-11l-8-10c4-3,9-7,13-11
	l10,11c4-4,9-8,13-12l-10-11c4-4,8-8,12-12l11,10c4-4,8-9,12-14.1l-13-9c3-4,7-9,10-14.1l12,8c3-5,7-10,10-15.1l-13-8
	c3-5,6-10,8-15.1l13,7c3-5,5-11,8-16.1l-14.1-6C557.1,531.4,559.1,526.3,561.1,521.3z M539.1,481.2c-11-7-28.1-17.1-50.2-26.1
	c-2-5-5-10-7-14.1c-3-5-6-10-9-15.1c-3-5-6-9-10-12c-4-4-8-8-12-10c-4-3-8-5-12-7l-1-1c-4-1-7-2-11-3c-4-1-9-1-14.1-1
	c-6,0-11,1-15.1,2c-5,2-8,4-12,6c-3,3-6,6-7,9c-2,3-3,7-3,11c0,3,1,5,2,7c1,2,2,3,4,4c-7-1-13-1-20.1-2c-7-1-14.1-1-20.1-2
	c3-17.1-4-33.1-17.1-44.2c2-3,5-6,7-10c17.1-23.1,37.1-48.2,50.2-73.3c0,1,1,3,1,4c2,7,3,14.1,4,21.1c0,7,0,14.1-1,18.1
	c-1,5-3,9-6,12c-2,2-3,3-5,4c-2,1-3,2-5,2c-1,0-3,0-4,0c-1,0-2-1-2-2c-2-4-5-6-7-6c-3-1-5,0-8,2c-3,4-3,7-2,9c1,2,2,4,4,6
	c2,2,5,4,8,5c1,0,2,1,2,1c4,1,8,1,12,1c4-1,8-2,12-5c4-2,8-6,12-10c3-4,6-7,8-11s4-8,6-12c1-4,2-9,3-13c1-5,1-10,0-16.1
	c0-5-1-10-2-15.1c-1-5-3-11-5-16.1s-4-11-7-16.1c9-28.1,13-50.2,15.1-63.2C515,253.3,567.2,369.7,539.1,481.2z M393.5,418.9
	c0-1,0-2,0-3c1-1,1-2,2-3c1-1,3-2,5-3s4-1,7-1s7,1,10,2c1,0,2,1,3,1c4,2,9,6,15.1,11c5,4,9,10,13,16.1c0,1,1,1,1,2
	c-19.1-4-41.2-7-62.2-9c2-1,4-2,5-4C394.5,426,394.5,423,393.5,418.9z M356.4,179c-7,11-19.1,30.1-31.1,58.2c-5,2-10,5-14.1,7
	c-5,3-10,6-15.1,9c-5,3-9,6-12,10c-4,4-8,8-10,12c-3,4-5,8-7,12c-2,4-3,8-4,12s-1,9-1,14.1c0,6,1,11,2,15.1c2,5,4,8,6,12
	c3,3,6,6,9,7c3,2,7,3,11,3c3,0,5-1,7-2c1-1,3-2,4-5c-1,7-1,13-2,20.1c0,4-1,8-1,12c-16.1-1-32.1,7-40.2,21.1c-5-4-10-8-16.1-12
	c-5-4-10-8-16.1-12c2,1,4,1,6,0c2-1,4-2,6-4c3-3,4-6,5-10s1-8,1-12c-1-4-2-8-5-12c-2-4-6-8-10-12c-4-3-7-6-11-8c-3-2-7-4-10-5l-1-1
	c-4-1-9-2-13-3c-5-1-10-1-16.1,0c-5,0-10,1-15.1,2c-5,1-11,3-16.1,5c-5,2-10,4-15.1,6c-23.1-8-42.2-12-55.2-14.1
	C129.5,204.1,244.9,151.9,356.4,179z M302.2,337.6c-1-2-2-4-4-5s-6-1-10,0c-1,0-2,0-3,0l0,0c-1,0-2-1-3-2s-2-3-3-5c-1-2-1-4-1-7
	c0-4,1-9,3-13s6-9,11-15.1c4-5,10-9,16.1-13c1,0,1-1,2-1C306.2,295.5,304.2,316.5,302.2,337.6z M221.8,362.7c-1,3,0,5,1,7
	c-17.1-13-35.1-25.1-52.2-34.1c1,0,2,0,2-1c7-2,14.1-3,21.1-4c7,0,14.1,0,18.1,1c5,1,9,3,12,6c2,2,3,3,4,5c1,2,2,3,2,5c0,1,0,3,0,4
	s-1,2-2,3C223.9,357.7,221.8,360.7,221.8,362.7z M54.2,367.7c11,7,27.1,16.1,48.2,25.1c2,5,5,11,8,16.1s6,10,9,15.1c3,5,6,9,10,12
	c4,4,8,8,12,10c4,3,8,5,12,7l1,1c4,1,7,2,11,3c4,1,9,1,14.1,1c6,0,11-1,15.1-2c5-2,8-4,12-6c3-3,6-6,7-9c2-3,3-7,3-11c0-3-1-5-2-7
	c-1-3-4-4-9-4c-3,0-5,2-6,4c-1,2-1,6,0,10c0,1,0,2,0,3c-1,1-1,2-2,3c-1,1-3,2-5,3c-2,1-4,1-7,1c-4,0-9-1-13-3s-9-6-15.1-11
	c-5-4-9-10-13-16.1c-1-1-1-2-2-3c27.1,6,59.2,9,88.3,11c8,1,15.1,1,22.1,2c0,14.1,6,28.1,17.1,37.1c-3,4-6,8-10,13s-8,11-12,16.1
	c1-2,1-4,0-6c-1-2-2-4-4-6c-3-3-6-4-10-5c-4-1-8-1-12-1c-4,1-8,2-12,5c-4,2-8,6-12,10c-3,4-6,7-8,11c-2,4-4,8-6,12c-1,4-2,9-3,13.1
	c-1,5-1,10,0,16.1c0,5,1,10,2,15.1s3,11,5,16.1s4,10,6,15.1c-8,25.1-12,46.2-14.1,59.2C81.3,587.6,30.1,476.2,54.2,367.7z
	 M243.9,490.2c-12,17.1-25.1,35.1-34.1,52.2c0-1,0-2-1-2c-2-7-3-14.1-4-21.1c0-7,0-14.1,1-18.1c1-5,3-9,6-12c2-2,3-3,5-4
	c2-1,3-2,5-2c2,0,3,0,4,0l0,0c1,0,2,1,3,2c2,4,5,6,7,6C239.9,492.2,242.9,491.2,243.9,490.2z M238.9,662.9c7-11,18.1-29.1,28.1-53.2
	c5-2,11-5,16.1-8c5-3,10-6,15.1-9c5-3,9-6,12-10c4-4,8-8,10-12c3-4,5-8,7-12c2-4,3-8,4-12c1-4,1-9,1-14.1c0-6-1-11-2-15.1
	c-2-5-4-8-6-12c-3-3-6-6-9-7c-1,0-1-1-2-1c-3-1-6-2-9-2s-5,1-7,2c-2,1-4,3-4,8c0,3,2,5,4,6s6,1,10,0c1,0,2,0,3,0c1,1,2,1,3,3
	c1,1,2,3,3,5c1,2,1,4,1,7c0,4-1,9-3,13c-2,4-6,9-11,15.1c-4,5-10,9-16.1,13c-1,1-2,1-3,2c6-27.1,9-59.2,11-88.3c0-5,1-11,1-16.1
	c15.1,1,29.1-5,39.1-16.1c6,4,11,8,17.1,13c23.1,17.1,48.2,37.1,73.3,50.2c-1,0-3,1-4,1c-7,2-14.1,3-21.1,4c-7,0-14.1,0-18.1-1
	c-5-1-9-3-12-6c-2-2-3-3-4-5c-1-2-2-3-2-5c0-1,0-3,0-4s1-2,2-3c4-2,5-5,6-7c1-3,0-5-2-8c-3-3-6-4-9-2c-2,1-4,2-6,4c-3,3-4,6-5,10
	c-1,4-1,8-1,12c1,4,2,8,5,12c2,4,6,8,10,12c4,3,7,6,11,8c3,2,7,4,10,5l1,1c4,1,9,2,13,3c5,1,10,1,16.1,0c5,0,10-1,15.1-2
	s11-3,16.1-5s11-4,16.1-7c22.1,7,40.2,11,53.2,13C460.8,639.8,347.3,689,238.9,662.9z"/>
</svg>
