<?xml version="1.0" encoding="utf-8"?>
<!-- Generator: Adobe Illustrator 18.0.0, SVG Export Plug-In . SVG Version: 6.00 Build 0)  -->
<!DOCTYPE svg PUBLIC "-//W3C//DTD SVG 1.1//EN" "http://www.w3.org/Graphics/SVG/1.1/DTD/svg11.dtd">
<svg version="1.1" id="Слой_1" xmlns="http://www.w3.org/2000/svg" xmlns:xlink="http://www.w3.org/1999/xlink" x="0px" y="0px"
	 viewBox="0 0 37.5 37.5" enable-background="new 0 0 37.5 37.5" xml:space="preserve">
<linearGradient id="SVGID_1_" gradientUnits="userSpaceOnUse" x1="2.014329e-06" y1="18.7303" x2="37.4707" y2="18.7303">
	<stop  offset="4.294480e-02" style="stop-color:#6A6664"/>
	<stop  offset="0.138" style="stop-color:#737070"/>
	<stop  offset="0.264" style="stop-color:#83828A"/>
	<stop  offset="0.5225" style="stop-color:#ACADB0"/>
	<stop  offset="0.6349" style="stop-color:#9C9CA0"/>
	<stop  offset="0.8499" style="stop-color:#7D7B82"/>
	<stop  offset="0.8764" style="stop-color:#79787E"/>
</linearGradient>
<path fill="url(#SVGID_1_)" d="M36.3,18.7l0-0.1h1.2c0-0.4,0-0.8,0-1.2l-1.1,0.1c0-0.4-0.1-0.7-0.1-1.1l1.1-0.1
	c0-0.4-0.1-0.8-0.2-1.1L36,15.4c-0.1-0.4-0.1-0.7-0.2-1.1l1.1-0.3c-0.1-0.4-0.2-0.7-0.3-1.1l-1.1,0.4c-0.1-0.3-0.2-0.7-0.4-1
	l1.1-0.4c-0.1-0.4-0.3-0.7-0.5-1.1l-1,0.5c-0.2-0.3-0.3-0.6-0.5-1l1-0.6c-0.2-0.3-0.4-0.7-0.6-1l-1,0.6c-0.2-0.3-0.4-0.6-0.6-0.9
	L34,7.8c-0.2-0.3-0.5-0.6-0.7-0.9l-0.9,0.7c-0.2-0.3-0.5-0.6-0.7-0.8L32.5,6c-0.3-0.3-0.5-0.6-0.8-0.8L30.9,6
	c-0.3-0.3-0.5-0.5-0.8-0.7l0.7-0.9C30.6,4.2,30.3,4,30,3.7l-0.7,0.9C29,4.4,28.7,4.2,28.4,4l0.6-1c-0.3-0.2-0.6-0.4-1-0.6l-0.6,1
	c-0.3-0.2-0.6-0.3-1-0.5l0.5-1c-0.3-0.2-0.7-0.3-1-0.5l-0.4,1.1c-0.3-0.1-0.7-0.3-1-0.4L24.9,1c-0.4-0.1-0.7-0.2-1.1-0.3l-0.3,1.1
	c-0.3-0.1-0.7-0.2-1.1-0.3l0.2-1.1c-0.4-0.1-0.8-0.2-1.1-0.2l-0.2,1.1c-0.4-0.1-0.7-0.1-1.1-0.1l0.1-1.1C20,0,19.6,0,19.2,0l0,1.1
	c-0.4,0-0.7,0-1.1,0l0-1.1c-0.4,0-0.8,0-1.2,0.1L17,1.2c-0.4,0-0.7,0.1-1.1,0.1l-0.2-1.1c-0.4,0.1-0.8,0.1-1.1,0.2l0.2,1.1
	c-0.4,0.1-0.7,0.2-1,0.3l-0.3-1.1c-0.4,0.1-0.7,0.2-1.1,0.4l0.4,1.1c-0.3,0.1-0.7,0.3-1,0.4l-0.5-1.1c-0.4,0.2-0.7,0.3-1,0.5l0.5,1
	c-0.3,0.2-0.6,0.3-1,0.5l-0.6-1C9,2.7,8.7,2.9,8.3,3.1l0.6,1C8.7,4.3,8.4,4.5,8.1,4.7L7.4,3.8C7.1,4,6.8,4.3,6.5,4.5l0.7,0.9
	C7,5.6,6.7,5.9,6.5,6.1L5.7,5.3C5.4,5.6,5.1,5.9,4.8,6.1l0.9,0.8C5.5,7.2,5.2,7.5,5,7.7L4.1,7C3.9,7.3,3.6,7.6,3.4,8l0.9,0.7
	C4.1,8.9,3.9,9.2,3.8,9.5l-1-0.6c-0.2,0.3-0.4,0.7-0.6,1l1,0.5c-0.2,0.3-0.3,0.6-0.5,1l-1-0.5c-0.2,0.3-0.3,0.7-0.4,1.1l1.1,0.4
	c-0.1,0.3-0.2,0.7-0.4,1l-1.1-0.3c-0.1,0.4-0.2,0.7-0.3,1.1l1.1,0.3c-0.1,0.3-0.2,0.7-0.2,1.1l-1.1-0.2c-0.1,0.4-0.1,0.8-0.2,1.1
	l1.1,0.1c0,0.4-0.1,0.7-0.1,1.1L0,17.6c0,0.4,0,0.7,0,1.1c0,0,0,0,0,0l1.2,0c0,0.4,0,0.7,0,1.1L0,19.9c0,0.4,0.1,0.8,0.1,1.1
	l1.1-0.1c0,0.4,0.1,0.7,0.2,1.1l-1.1,0.2c0.1,0.4,0.2,0.8,0.2,1.1l1.1-0.3c0.1,0.4,0.2,0.7,0.3,1l-1.1,0.4c0.1,0.4,0.2,0.7,0.4,1.1
	l1.1-0.4c0.1,0.3,0.3,0.7,0.4,1l-1,0.5c0.2,0.3,0.3,0.7,0.5,1l1-0.5c0.2,0.3,0.4,0.6,0.5,0.9l-1,0.6c0.2,0.3,0.4,0.6,0.6,1l0.9-0.7
	c0.2,0.3,0.4,0.6,0.7,0.9l-0.9,0.7c0.2,0.3,0.5,0.6,0.8,0.9l0.8-0.8c0.2,0.3,0.5,0.5,0.8,0.8l-0.8,0.8C6,32.5,6.3,32.7,6.6,33
	l0.7-0.9c0.3,0.2,0.6,0.5,0.8,0.7l-0.7,0.9c0.3,0.2,0.6,0.5,0.9,0.7l0.6-1c0.3,0.2,0.6,0.4,0.9,0.6l-0.6,1c0.3,0.2,0.7,0.4,1,0.5
	l0.5-1c0.3,0.2,0.7,0.3,1,0.5L11.5,36c0.4,0.1,0.7,0.3,1.1,0.4l0.4-1.1c0.3,0.1,0.7,0.2,1,0.3l-0.3,1.1c0.4,0.1,0.7,0.2,1.1,0.3
	l0.2-1.1c0.4,0.1,0.7,0.1,1.1,0.2l-0.2,1.1c0.4,0.1,0.8,0.1,1.1,0.1l0.1-1.1c0.4,0,0.7,0.1,1.1,0.1l0,1.1c0.2,0,0.4,0,0.6,0
	c0.2,0,0.4,0,0.6,0l0-1.1c0.4,0,0.7,0,1.1-0.1l0.1,1.1c0.4,0,0.8-0.1,1.1-0.1l-0.2-1.1c0.4-0.1,0.7-0.1,1.1-0.2l0.2,1.1
	c0.4-0.1,0.7-0.2,1.1-0.3l-0.3-1.1c0.3-0.1,0.7-0.2,1-0.3l0.4,1.1c0.4-0.1,0.7-0.3,1.1-0.4l-0.5-1.1c0.3-0.1,0.7-0.3,1-0.5l0.5,1
	c0.3-0.2,0.7-0.4,1-0.5l-0.6-1c0.3-0.2,0.6-0.4,0.9-0.6l0.6,1c0.3-0.2,0.6-0.4,0.9-0.7l-0.7-0.9c0.3-0.2,0.6-0.4,0.8-0.7l0.7,0.9
	c0.3-0.3,0.6-0.5,0.9-0.8L31,31.3c0.3-0.3,0.5-0.5,0.8-0.8l0.9,0.8c0.3-0.3,0.5-0.6,0.7-0.9l-0.9-0.7c0.2-0.3,0.4-0.6,0.7-0.9
	l0.9,0.7c0.2-0.3,0.4-0.6,0.6-1l-1-0.6c0.2-0.3,0.4-0.6,0.5-0.9l1,0.5c0.2-0.3,0.3-0.7,0.5-1l-1-0.5c0.2-0.3,0.3-0.7,0.4-1l1.1,0.4
	c0.1-0.4,0.3-0.7,0.4-1.1L35.5,24c0.1-0.3,0.2-0.7,0.3-1l1.1,0.3c0.1-0.4,0.2-0.7,0.2-1.1L36,21.9c0.1-0.4,0.1-0.7,0.2-1.1l1.1,0.1
	c0-0.4,0.1-0.8,0.1-1.1l-1.1-0.1C36.3,19.4,36.3,19.1,36.3,18.7z M18.8,34.4c-8.7,0-15.7-7-15.7-15.7c0-4.4,1.8-8.4,4.7-11.2
	l21,23.3C26.1,33.1,22.6,34.4,18.8,34.4z M31.3,28.2L10.6,5.3C12.9,3.9,15.7,3,18.7,3c8.7,0,15.7,7,15.7,15.7
	C34.5,22.3,33.3,25.6,31.3,28.2z"/>
</svg>
