<?xml version="1.0" encoding="utf-8"?>
<!-- Generator: Adobe Illustrator 18.0.0, SVG Export Plug-In . SVG Version: 6.00 Build 0)  -->
<!DOCTYPE svg PUBLIC "-//W3C//DTD SVG 1.1//EN" "http://www.w3.org/Graphics/SVG/1.1/DTD/svg11.dtd">
<svg version="1.1" id="Слой_1" xmlns="http://www.w3.org/2000/svg" xmlns:xlink="http://www.w3.org/1999/xlink" x="0px" y="0px"
	 viewBox="0 0 250.9 46.8" enable-background="new 0 0 250.9 46.8" xml:space="preserve">
<g>
	<path fill="#26201A" d="M66.2,16.6c0-5.8,0.8-11.4,2.4-16.6H0l11,46.8h63.6C69.3,38,66.2,27.7,66.2,16.6z"/>
	<path fill="#765547" d="M68.6,0h-1.8v1.4l-0.4-0.1c-0.2,0.6-0.3,1.2-0.4,1.8l1.7,0.4c0.1-0.2,0.1-0.4,0.2-0.7c0,0,0,0,0,0
		c0,0,0,0,0,0c0,0,0,0,0,0c0,0,0,0,0,0c0,0,0,0,0,0c0,0,0,0,0,0c0,0,0,0,0,0c0,0,0,0,0,0c0,0,0,0,0,0c0,0,0,0,0,0c0,0,0,0,0,0
		c0,0,0,0,0,0c0,0,0,0,0,0c0,0,0,0,0,0c0,0,0,0,0,0c0,0,0,0,0,0c0,0,0,0,0,0c0,0,0,0,0,0c0,0,0,0,0,0c0,0,0,0,0,0c0,0,0,0,0,0
		c0,0,0,0,0,0c0,0,0,0,0,0c0,0,0,0,0,0c0,0,0,0,0,0c0,0,0,0,0,0c0,0,0,0,0,0c0,0,0,0,0,0c0,0,0,0,0,0c0,0,0,0,0,0c0,0,0,0,0,0
		c0,0,0,0,0,0c0,0,0,0,0,0l0,0c0,0,0-0.1,0-0.1v0c0,0,0-0.1,0-0.1l0,0c0,0,0-0.1,0-0.1c0,0,0,0,0,0c0,0,0,0,0,0c0,0,0,0,0,0
		c0,0,0,0,0,0c0,0,0,0,0,0c0,0,0,0,0,0c0,0,0,0,0,0c0,0,0,0,0,0l0,0c0,0,0,0,0,0c0,0,0,0,0,0c0,0,0,0,0,0c0,0,0,0,0,0c0,0,0,0,0,0
		c0,0,0,0,0,0c0,0,0,0,0,0c0,0,0,0,0,0c0,0,0,0,0,0c0,0,0,0,0,0c0,0,0,0,0,0C68.2,1.4,68.4,0.7,68.6,0L68.6,0z M65,0h-1.8v1.8H65V0
		L65,0z M61.4,0h-1.8v1.8h1.8V0L61.4,0z M57.9,0h-1.8v1.8h1.8V0L57.9,0z M54.3,0h-1.8v1.8h1.8V0L54.3,0z M50.7,0h-1.8v1.8h1.8V0
		L50.7,0z M47.1,0h-1.8v1.8h1.8V0L47.1,0z M43.6,0h-1.8v1.8h1.8V0L43.6,0z M40,0h-1.8v1.8H40V0L40,0z M36.4,0h-1.8v1.8h1.8V0L36.4,0
		z M32.8,0H31v1.8h1.8V0L32.8,0z M29.3,0h-1.8v1.8h1.8V0L29.3,0z M25.7,0h-1.8v1.8h1.8V0L25.7,0z M22.1,0h-1.8v1.8h1.8V0L22.1,0z
		 M18.5,0h-1.8v1.8h1.8V0L18.5,0z M14.9,0h-1.8v1.8h1.8V0L14.9,0z M11.4,0H9.6v1.8h1.8V0L11.4,0z M7.8,0H6v1.8h1.8V0L7.8,0z M4.2,0
		H2.4v1.8h1.8V0L4.2,0z M1.8,0H0l0,0l0.4,1.8h0.2V1L2,0.7L1.8,0L1.8,0z M2.4,2.4L0.7,2.9l0.4,1.7l1.7-0.4L2.4,2.4L2.4,2.4z M3.2,5.9
		L1.5,6.3l0.4,1.7l1.7-0.4L3.2,5.9L3.2,5.9z M4.1,9.4L2.3,9.8l0.4,1.7l1.7-0.4L4.1,9.4L4.1,9.4z M4.9,12.9l-1.7,0.4L3.5,15l1.7-0.4
		L4.9,12.9L4.9,12.9z M5.7,16.4L4,16.8c0,0,0.1,0.6,0.3,1.1l0,0c0,0,0,0,0,0l0.1,0.6l1.7-0.4L5.7,16.4L5.7,16.4z M6.5,19.8l-1.7,0.4
		l0.1,0.3c0,0,0,0,0,0l0,0c0,0,0,0,0,0l0,0C5,21.1,5.2,22,5.2,22l1.7-0.4L6.5,19.8L6.5,19.8z M7.3,23.3l-1.7,0.4c0,0,0.1,0.5,0.2,1
		l0,0c0,0,0,0,0,0l0,0l0,0L6,25.5l1.7-0.4L7.3,23.3L7.3,23.3z M8.2,26.8l-1.7,0.4l0.2,0.6l0,0l0,0c0,0,0,0,0,0l0,0c0,0,0,0,0,0l0,0
		c0,0,0,0,0,0l0,0c0,0,0,0,0,0l0,0c0,0,0,0,0,0l0,0c0.1,0.5,0.2,1,0.2,1l1.7-0.4L8.2,26.8L8.2,26.8z M9,30.3l-1.7,0.4
		c0,0,0.1,0.4,0.2,0.8l0,0c0,0,0,0,0,0l0,0c0,0,0,0,0,0l0.2,0.9L9.4,32L9,30.3L9,30.3z M9.8,33.8l-1.7,0.4l0.3,1.1l0,0l0,0
		c0,0,0,0,0,0l0,0c0.1,0.3,0.1,0.6,0.1,0.6l1.7-0.4L9.8,33.8L9.8,33.8z M10.6,37.2l-1.7,0.4c0,0,0.1,0.5,0.2,1l0,0c0,0,0,0,0,0l0,0
		c0,0,0,0,0,0l0,0l0,0l0.2,0.7L11,39L10.6,37.2L10.6,37.2z M11.4,40.7l-1.7,0.4l0.4,1.5c0,0,0,0,0,0l0,0c0,0,0,0,0,0l0,0
		c0,0.1,0,0.2,0,0.2l1.7-0.4L11.4,40.7L11.4,40.7z M12.3,44.2l-1.7,0.4c0,0,0.1,0.4,0.2,0.8l0,0c0,0,0,0,0,0l0.2,0.9l1.4-0.3v0.8
		h1.8V45h-1.7L12.3,44.2L12.3,44.2z M17.7,45h-1.8v1.8h1.8V45L17.7,45z M21.3,45h-1.8v1.8h1.8V45L21.3,45z M24.8,45h-1.8v1.8h1.8V45
		L24.8,45z M28.4,45h-1.8v1.8h1.8V45L28.4,45z M32,45h-1.8v1.8H32V45L32,45z M35.6,45h-1.8v1.8h1.8V45L35.6,45z M39.2,45h-1.8v1.8
		h1.8V45L39.2,45z M42.7,45h-1.8v1.8h1.8V45L42.7,45z M46.3,45h-1.8v1.8h1.8V45L46.3,45z M49.9,45h-1.8v1.8h1.8V45L49.9,45z
		 M53.5,45h-1.8v1.8h1.8V45L53.5,45z M57,45h-1.8v1.8H57V45L57,45z M60.6,45h-1.8v1.8h1.8V45L60.6,45z M64.2,45h-1.8v1.8h1.8V45
		L64.2,45z M67.8,45H66v1.8h1.8V45L67.8,45z M71.3,45h-1.8v1.8h1.8V45L71.3,45z M72.7,43.5l-1.6,0.8c0.3,0.5,0.6,1.1,0.9,1.6
		l1.1-0.6v1.6c0,0,0.5,0,0.9,0l0,0h0.6l0,0l0,0l0,0l0,0l0,0l0,0c-0.4-0.6-0.7-1.2-1-1.8h0l0,0c-0.2-0.4-0.4-0.7-0.6-1.1v0
		c0,0,0,0,0,0l0,0c0,0,0,0,0,0c0,0,0,0,0,0c0,0,0,0,0,0c0,0,0,0,0,0c0,0,0,0,0,0l0,0c0,0,0,0,0,0c0,0,0,0,0,0c0,0,0,0,0,0
		c0,0,0,0,0,0c0,0,0,0,0,0c0,0,0,0,0,0c0,0,0,0,0,0c0,0,0,0,0,0c0,0,0,0,0,0c0,0,0,0,0,0s0,0,0,0c0,0,0,0,0,0c0,0,0,0,0,0
		c0,0,0,0,0,0c0,0,0,0,0,0c0,0,0,0,0,0c0,0,0,0,0,0c0,0,0,0,0,0c0,0,0,0,0,0c0,0,0,0,0,0c0,0,0,0,0,0c0,0,0,0,0,0c0,0,0,0,0,0
		c0,0,0,0,0,0l0,0C72.8,43.6,72.7,43.5,72.7,43.5L72.7,43.5z M71.2,40.2L69.5,41c0.2,0.6,0.5,1.1,0.8,1.7l1.6-0.8
		C71.6,41.3,71.4,40.8,71.2,40.2L71.2,40.2z M69.8,36.9l-1.7,0.6c0.2,0.6,0.4,1.2,0.7,1.7l1.7-0.7c0,0,0-0.1-0.1-0.1c0,0,0,0,0,0
		c0,0,0,0,0,0c0,0,0,0,0,0c0,0,0,0,0,0c0,0,0,0,0,0c0,0,0,0,0,0c0,0,0,0,0,0c0,0,0,0,0,0c0,0,0,0,0,0c0,0,0,0,0,0c0,0,0,0,0,0l0,0
		c-0.1-0.2-0.2-0.5-0.3-0.7l0,0c0,0,0-0.1,0-0.1c0,0,0,0,0,0c0,0,0,0,0,0c0,0,0,0,0,0c0,0,0,0,0,0c0,0,0,0,0,0c0,0,0,0,0,0
		c0,0,0,0,0,0c0,0,0,0,0,0c0,0,0,0,0,0c0,0,0,0,0,0c0,0,0,0,0,0c0,0,0,0,0,0c0,0,0,0,0,0c0,0,0,0,0,0C69.9,37.3,69.9,37.1,69.8,36.9
		L69.8,36.9z M68.7,33.5l-1.7,0.5c0.2,0.6,0.4,1.2,0.6,1.8l1.7-0.6c-0.2-0.5-0.3-1-0.5-1.5c0,0,0,0,0,0c0,0,0,0,0,0c0,0,0,0,0,0
		c0,0,0,0,0,0c0,0,0,0,0,0l0,0C68.7,33.6,68.7,33.6,68.7,33.5L68.7,33.5z M67.7,30.1L66,30.5c0.1,0.6,0.3,1.2,0.5,1.8l1.7-0.5
		c-0.1-0.4-0.2-0.7-0.3-1.1l0,0c0,0,0,0,0,0c0,0,0,0,0,0c0,0,0,0,0-0.1c0,0,0,0,0,0c0,0,0,0,0,0c0,0,0,0,0,0c0,0,0,0,0,0
		c0,0,0,0,0,0c0,0,0,0,0,0c0,0,0,0,0,0c0,0,0,0,0,0c0,0,0,0,0,0c0,0,0,0,0,0c0,0,0,0,0,0c0,0,0,0,0,0c0,0,0,0,0,0c0,0,0,0,0,0
		c0,0,0,0,0,0c0,0,0,0,0,0c0,0,0,0,0,0c0,0,0,0,0,0c0,0,0,0,0,0c0,0,0,0,0,0c0,0,0,0,0,0l0,0c0,0,0,0,0,0l0,0
		C67.8,30.3,67.8,30.2,67.7,30.1L67.7,30.1z M67,26.6l-1.8,0.3c0.1,0.6,0.2,1.2,0.3,1.8l1.8-0.4c-0.1-0.4-0.2-0.9-0.2-1.3l0,0
		c0,0,0,0,0,0c0,0,0,0,0,0c0,0,0,0,0,0c0,0,0,0,0,0c0,0,0,0,0,0c0,0,0,0,0,0c0,0,0,0,0,0c0,0,0,0,0,0c0,0,0,0,0,0
		C67.1,26.9,67,26.7,67,26.6L67,26.6z M66.5,23l-1.8,0.2c0.1,0.6,0.1,1.2,0.2,1.8l1.8-0.2c0-0.2-0.1-0.5-0.1-0.7v0c0,0,0,0,0,0l0,0
		c0,0,0,0,0,0c0,0,0,0,0,0c0,0,0,0,0,0c0,0,0,0,0,0c0,0,0,0,0,0c0,0,0,0,0,0c0,0,0,0,0,0c0,0,0,0,0,0c0,0,0,0,0,0c0,0,0,0,0,0
		c0,0,0,0,0,0c0,0,0,0,0,0c0,0,0,0,0,0c0,0,0,0,0,0c0,0,0,0,0,0C66.6,23.6,66.6,23.3,66.5,23L66.5,23z M66.2,19.5l-1.8,0.1
		c0,0.6,0.1,1.2,0.1,1.8l1.8-0.1c0-0.4-0.1-0.7-0.1-1.1v0c0,0,0,0,0,0l0,0c0,0,0,0,0,0v0c0,0,0,0,0-0.1c0,0,0,0,0,0c0,0,0,0,0,0
		c0,0,0,0,0,0c0,0,0,0,0,0c0,0,0,0,0,0c0,0,0,0,0,0c0,0,0,0,0,0c0,0,0,0,0,0c0,0,0,0,0,0c0,0,0,0,0,0c0,0,0,0,0,0l0,0c0,0,0,0,0,0
		l0,0c0,0,0,0,0,0c0,0,0,0,0,0c0,0,0,0,0,0c0,0,0,0,0,0c0,0,0,0,0,0c0,0,0,0,0,0C66.3,19.8,66.3,19.6,66.2,19.5L66.2,19.5z
		 M64.4,15.9c0,0.3,0,0.5,0,0.8c0,0.4,0,0.7,0,1.1l1.8,0c0-0.2,0-0.4,0-0.6v0c0,0,0,0,0,0c0,0,0,0,0,0c0,0,0,0,0,0c0,0,0,0,0,0
		c0,0,0,0,0,0c0,0,0,0,0,0c0,0,0,0,0,0c0,0,0,0,0,0c0,0,0,0,0,0c0,0,0,0,0,0c0,0,0,0,0,0c0,0,0,0,0,0c0,0,0,0,0,0c0,0,0,0,0,0
		c0,0,0,0,0,0c0,0,0,0,0,0c0,0,0,0,0,0c0,0,0,0,0,0c0,0,0,0,0,0c0,0,0,0,0,0c0,0,0,0,0,0c0,0,0,0,0,0c0,0,0,0,0,0c0,0,0,0,0,0
		c0,0,0,0,0,0c0,0,0,0,0,0c0,0,0,0,0,0c0,0,0,0,0,0c0,0,0,0,0,0c0,0,0,0,0,0c0,0,0,0,0,0c0,0,0,0,0,0c0,0,0,0,0,0c0,0,0,0,0,0
		c0,0,0,0,0,0c0,0,0,0,0,0c0,0,0,0,0,0c0,0,0,0,0,0c0,0,0,0,0,0c0,0,0,0,0,0s0,0,0,0c0,0,0,0,0,0s0,0,0,0c0,0,0,0,0,0c0,0,0,0,0,0
		c0,0,0,0,0,0c0,0,0,0,0,0c0,0,0,0,0,0c0,0,0,0,0,0l0,0l0,0l0,0c0,0,0,0,0,0c0,0,0,0,0,0c0,0,0,0,0,0c0,0,0,0,0,0c0,0,0,0,0,0
		c0,0,0,0,0,0c0,0,0,0,0,0c0,0,0,0,0,0c0,0,0,0,0,0c0,0,0,0,0,0c0,0,0,0,0,0c0,0,0,0,0,0c0,0,0,0,0,0c0,0,0,0,0,0c0,0,0,0,0,0
		c0,0,0,0,0,0c0,0,0,0,0,0c0,0,0,0,0,0c0,0,0,0,0,0c0,0,0,0,0,0c0,0,0,0,0,0c0,0,0,0,0,0c0,0,0,0,0,0c0,0,0,0,0,0c0,0,0,0,0,0
		c0,0,0,0,0,0c0,0,0,0,0,0c0,0,0,0,0,0s0,0,0,0c0,0,0,0,0,0c0,0,0,0,0,0c0,0,0,0,0,0c0,0,0,0,0,0c0,0,0,0,0,0c0,0,0,0,0,0
		c0,0,0,0,0,0c0,0,0,0,0,0c0,0,0,0,0,0c0,0,0,0,0,0c0,0,0,0,0,0c0,0,0,0,0,0c0,0,0,0,0,0c0,0,0,0,0,0c0,0,0,0,0,0c0,0,0,0,0,0
		c0,0,0,0,0,0c0,0,0,0,0,0c0,0,0,0,0,0c0,0,0,0,0,0c0,0,0,0,0,0c0-0.1,0-0.1,0-0.2L64.4,15.9L64.4,15.9z M64.5,12.2
		c0,0.6-0.1,1.2-0.1,1.8l1.8,0.1c0-0.1,0-0.1,0-0.2c0,0,0,0,0,0c0,0,0,0,0,0c0,0,0,0,0,0c0,0,0,0,0,0c0,0,0,0,0,0c0,0,0,0,0,0v0
		c0,0,0,0,0,0c0,0,0,0,0,0c0,0,0,0,0,0c0,0,0,0,0,0c0,0,0,0,0,0c0,0,0,0,0,0c0,0,0,0,0,0c0,0,0,0,0,0c0,0,0,0,0,0c0,0,0,0,0,0
		c0,0,0,0,0,0c0,0,0,0,0,0c0,0,0,0,0,0c0,0,0,0,0,0v0c0,0,0,0,0-0.1l0,0c0,0,0-0.1,0-0.1v0c0,0,0,0,0-0.1l0,0c0,0,0,0,0,0
		c0,0,0,0,0,0c0,0,0,0,0-0.1v0c0,0,0,0,0,0c0,0,0,0,0,0c0,0,0,0,0,0c0,0,0,0,0,0c0,0,0,0,0,0c0,0,0,0,0,0c0,0,0,0,0,0c0,0,0,0,0,0
		c0,0,0,0,0,0c0,0,0,0,0,0c0,0,0,0,0,0c0,0,0,0,0,0c0,0,0,0,0,0c0,0,0,0,0,0c0,0,0,0,0,0c0,0,0,0,0,0c0,0,0,0,0,0c0,0,0,0,0,0
		c0,0,0,0,0,0c0,0,0,0,0,0c0,0,0,0,0,0c0,0,0,0,0,0c0,0,0,0,0,0c0,0,0,0,0,0c0,0,0,0,0,0c0,0,0,0,0,0c0,0,0,0,0,0c0,0,0,0,0,0
		c0,0,0,0,0,0c0,0,0,0,0,0c0,0,0,0,0,0c0,0,0,0,0,0c0,0,0,0,0,0c0,0,0,0,0,0v0c0,0,0,0,0,0v0c0,0,0,0,0,0l0,0c0,0,0,0,0,0
		c0,0,0,0,0,0c0,0,0,0,0,0l0,0c0,0,0,0,0,0c0,0,0,0,0,0c0,0,0,0,0,0c0,0,0,0,0,0c0,0,0,0,0-0.1v0c0,0,0,0,0,0v0c0,0,0,0,0-0.1
		c0,0,0,0,0,0c0,0,0,0,0,0c0,0,0,0,0,0c0,0,0,0,0,0c0,0,0,0,0,0c0,0,0,0,0,0c0,0,0,0,0,0c0,0,0,0,0,0c0,0,0,0,0,0c0,0,0,0,0,0
		c0,0,0,0,0,0c0,0,0,0,0,0c0,0,0,0,0,0c0,0,0,0,0,0c0,0,0,0,0,0c0,0,0,0,0,0c0,0,0,0,0,0c0,0,0,0,0,0c0,0,0,0,0,0c0,0,0,0,0,0
		c0,0,0,0,0,0c0,0,0,0,0,0c0,0,0,0,0,0c0,0,0,0,0,0c0-0.1,0-0.2,0-0.3L64.5,12.2L64.5,12.2z M64.9,8.5c-0.1,0.6-0.2,1.2-0.2,1.8
		l1.8,0.2c0.1-0.5,0.1-1,0.2-1.5c0,0,0,0,0,0c0,0,0,0,0,0c0,0,0,0,0,0c0,0,0,0,0,0c0,0,0,0,0,0c0,0,0,0,0,0c0,0,0,0,0,0c0,0,0,0,0,0
		c0,0,0,0,0,0l0,0c0-0.1,0-0.1,0-0.2L64.9,8.5L64.9,8.5z M65.5,4.9c-0.1,0.6-0.2,1.2-0.3,1.8L67,7c0-0.1,0-0.2,0.1-0.3c0,0,0,0,0,0
		c0,0,0,0,0,0c0,0,0,0,0,0c0,0,0,0,0,0c0,0,0,0,0,0c0,0,0,0,0,0c0,0,0,0,0,0c0,0,0,0,0,0c0,0,0,0,0,0c0,0,0,0,0,0c0,0,0,0,0,0
		c0,0,0,0,0,0c0,0,0,0,0,0c0,0,0,0,0,0c0,0,0,0,0,0l0,0c0-0.2,0.1-0.4,0.1-0.6v0c0,0,0,0,0,0c0,0,0,0,0,0c0,0,0,0,0,0c0,0,0,0,0,0
		c0,0,0,0,0,0c0,0,0,0,0,0c0,0,0,0,0,0c0,0,0,0,0,0c0,0,0,0,0,0c0,0,0,0,0,0c0,0,0,0,0,0c0,0,0,0,0,0c0,0,0,0,0,0c0,0,0,0,0,0
		c0,0,0,0,0,0c0,0,0,0,0,0c0,0,0,0,0,0c0,0,0,0,0,0c0,0,0,0,0,0c0,0,0,0,0,0c0,0,0,0,0,0c0-0.2,0.1-0.4,0.1-0.5L65.5,4.9L65.5,4.9z"
		/>
	<path fill="#26201A" d="M67,1.2c-1.3,5-2,10.2-2,15.4c0,10.2,2.6,20.2,7.5,29H12L1.5,1.2H67 M68.6,0H0l11,46.8h63.6
		c-5.3-8.8-8.4-19.2-8.4-30.2C66.2,10.9,67,5.3,68.6,0L68.6,0z"/>
	<path fill="#26201A" d="M180.4,0c1.6,5.3,2.4,10.9,2.4,16.6c0,11.1-3.1,21.4-8.4,30.2h65.5l11-46.8H180.4z"/>
	<path fill="#765547" d="M250.9,0h-1.8v1.7l-0.4-0.1l-0.4,1.7l1.7,0.4c0,0,0-0.1,0.1-0.4l0,0l0,0l0,0c0,0,0,0,0,0l0.3-1.4l-1-0.2h1
		L250.9,0L250.9,0z M247.3,0h-1.8v1.8h1.8V0L247.3,0z M243.7,0H242v1.8h1.8V0L243.7,0z M240.2,0h-1.8v1.8h1.8V0L240.2,0z M236.6,0
		h-1.8v1.8h1.8V0L236.6,0z M233,0h-1.8v1.8h1.8V0L233,0z M229.4,0h-1.8v1.8h1.8V0L229.4,0z M225.9,0h-1.8v1.8h1.8V0L225.9,0z
		 M222.3,0h-1.8v1.8h1.8V0L222.3,0z M218.7,0h-1.8v1.8h1.8V0L218.7,0z M215.1,0h-1.8v1.8h1.8V0L215.1,0z M211.6,0h-1.8v1.8h1.8V0
		L211.6,0z M208,0h-1.8v1.8h1.8V0L208,0z M204.4,0h-1.8v1.8h1.8V0L204.4,0z M200.8,0H199v1.8h1.8V0L200.8,0z M197.3,0h-1.8v1.8h1.8
		V0L197.3,0z M193.7,0h-1.8v1.8h1.8V0L193.7,0z M190.1,0h-1.8v1.8h1.8V0L190.1,0z M186.5,0h-1.8v1.8h1.8V0L186.5,0z M183,0h-1.8v0.8
		L180.7,1c0,0,0,0,0,0.1c0,0,0,0,0,0c0,0,0,0,0,0c0,0,0,0,0,0c0,0,0,0,0,0c0,0,0,0,0,0c0,0,0,0,0,0c0.1,0.4,0.2,0.9,0.4,1.3
		c0,0,0,0,0,0c0,0,0,0,0,0c0,0,0,0,0,0c0,0,0,0,0,0c0,0,0,0,0,0c0,0,0,0,0,0c0,0,0,0,0,0c0,0,0,0,0,0c0,0.1,0,0.2,0.1,0.2l1.7-0.4
		c0-0.2-0.1-0.3-0.1-0.5h0.2V0L183,0z M183.3,4.1l-1.8,0.4c0.1,0.3,0.1,0.6,0.2,1c0,0,0,0,0,0c0,0,0,0,0,0c0,0,0,0,0,0c0,0,0,0,0,0
		c0,0,0,0,0,0c0,0,0,0,0,0c0,0,0,0,0,0c0,0,0,0,0,0c0,0,0,0,0,0c0,0,0,0,0,0c0,0,0,0,0,0c0,0,0,0,0,0c0,0,0,0,0,0c0,0,0,0,0,0
		c0,0,0,0,0,0c0,0,0,0,0,0c0,0,0,0,0,0v0c0,0.2,0.1,0.4,0.1,0.6l1.8-0.3C183.5,5.3,183.4,4.7,183.3,4.1L183.3,4.1z M183.9,7.7
		L182.2,8c0,0.1,0,0.3,0.1,0.4l0,0c0,0,0,0,0,0c0,0,0,0,0,0c0,0,0,0,0,0c0,0,0,0,0,0c0,0,0,0,0,0c0,0,0,0,0,0c0,0,0,0,0,0
		c0,0,0,0,0,0c0,0,0,0,0,0c0,0,0,0,0,0c0,0,0,0,0,0c0,0,0,0,0,0c0,0,0,0,0,0c0,0,0,0,0,0c0,0,0,0,0,0c0,0,0,0,0,0c0,0,0,0,0,0
		c0,0,0,0,0,0c0,0,0,0,0,0c0,0,0,0,0,0c0,0,0,0,0,0c0,0,0,0,0,0c0,0,0,0,0,0c0,0,0,0,0,0c0,0,0,0,0,0c0,0,0,0,0,0c0,0,0,0,0,0
		c0,0,0,0,0,0c0,0,0,0,0,0c0,0,0,0,0,0c0,0,0,0,0,0c0,0,0,0,0,0c0,0,0,0,0,0c0,0,0,0,0,0c0,0,0,0,0,0c0,0,0,0,0,0c0,0,0,0,0,0
		c0,0,0,0,0,0c0,0,0,0,0,0c0,0,0,0,0,0c0,0,0,0,0,0c0,0,0,0,0,0c0,0,0,0,0,0c0,0,0,0,0,0c0,0,0,0,0,0c0,0,0,0,0,0c0,0,0,0,0,0
		c0,0,0,0,0,0c0,0,0,0,0,0l0,0c0,0.3,0.1,0.6,0.1,0.9l1.8-0.2C184.1,8.9,184,8.3,183.9,7.7L183.9,7.7z M184.4,11.4l-1.8,0.2
		c0.1,0.6,0.1,1.2,0.1,1.8l1.8-0.1C184.5,12.6,184.4,12,184.4,11.4L184.4,11.4z M184.6,15l-1.8,0c0,0.1,0,0.1,0,0.2v0c0,0,0,0,0,0
		c0,0,0,0,0,0c0,0,0,0,0,0c0,0,0,0,0,0c0,0,0,0,0,0c0,0,0,0,0,0c0,0,0,0,0,0c0,0,0,0,0,0c0,0,0,0,0,0c0,0,0,0,0,0c0,0,0,0,0,0
		c0,0,0,0,0,0c0,0,0,0,0,0c0,0,0,0,0,0c0,0,0,0,0,0c0,0,0,0,0,0c0,0,0,0,0,0c0,0,0,0,0,0v0c0,0,0,0,0,0c0,0,0,0,0,0
		c0,0.1,0,0.2,0,0.2v0c0,0,0,0,0,0c0,0,0,0,0,0c0,0,0,0,0,0v0c0,0,0,0,0,0.1c0,0,0,0,0,0c0,0,0,0,0,0c0,0,0,0,0,0c0,0,0,0,0,0v0
		c0,0,0,0,0,0c0,0,0,0,0,0c0,0,0,0,0,0c0,0,0,0,0,0c0,0,0,0,0,0c0,0,0,0,0,0c0,0,0,0,0,0c0,0,0,0,0,0c0,0,0,0,0,0c0,0,0,0,0,0
		c0,0,0,0,0,0c0,0,0,0,0,0c0,0,0,0,0,0c0,0,0,0,0,0c0,0,0,0,0,0c0,0,0,0,0,0c0,0,0,0,0,0c0,0,0,0,0,0c0,0,0,0,0,0c0,0,0,0,0,0
		c0,0,0,0,0,0c0,0,0,0,0,0c0,0,0,0,0,0c0,0,0,0,0,0c0,0,0,0,0,0c0,0,0,0,0,0c0,0,0,0,0,0c0,0,0,0,0,0c0,0,0,0,0,0c0,0,0,0,0,0
		c0,0,0,0,0,0c0,0,0,0,0,0c0,0,0,0,0,0c0,0,0,0,0,0c0,0,0,0,0,0c0,0,0,0,0,0c0,0,0,0,0,0c0,0,0,0,0,0c0,0,0,0,0,0c0,0,0,0,0,0
		c0,0,0,0,0,0c0,0,0,0,0,0l0,0l0,0l0,0l0,0c0,0,0,0,0,0c0,0.1,0,0.2,0,0.2l1.8,0l0-0.3C184.6,16.1,184.6,15.6,184.6,15L184.6,15z
		 M182.8,18.7c0,0.1,0,0.3,0,0.4l0,0c0,0,0,0,0,0v0c0,0,0,0,0,0l0,0c0,0,0,0,0,0c0,0,0,0,0,0c0,0,0,0,0,0c0,0,0,0,0,0c0,0,0,0,0,0
		c0,0,0,0,0,0c0,0,0,0,0,0c0,0,0,0,0,0c0,0,0,0,0,0c0,0,0,0,0,0c0,0,0,0,0,0c0,0,0,0,0,0c0,0,0,0,0,0c0,0,0,0,0,0c0,0,0,0,0,0
		c0,0,0,0,0,0c0,0,0,0,0,0c0,0,0,0,0,0v0c0,0,0,0.1,0,0.1v0c0,0.1,0,0.1,0,0.2l0,0c0,0,0,0.1,0,0.1c0,0,0,0,0,0c0,0,0,0,0,0
		c0,0,0,0,0,0c0,0,0,0,0,0c0,0,0,0,0,0c0,0,0,0,0,0c0,0,0,0,0,0c0,0,0,0,0,0.1c0,0,0,0,0,0c0,0,0,0,0,0c0,0,0,0,0,0c0,0,0,0,0,0
		c0,0,0,0,0,0c0,0,0,0,0,0c0,0,0,0,0,0c0,0,0,0,0,0c0,0,0,0,0,0c0,0,0,0,0,0c0,0,0,0,0,0c0,0,0,0,0,0c0,0,0,0,0,0c0,0,0,0,0,0
		c0,0,0,0,0,0c0,0,0,0,0,0c0,0,0,0,0,0c0,0,0,0,0,0c0,0,0,0,0,0c0,0,0,0,0,0c0,0,0,0,0,0c0,0,0,0,0,0c0,0,0,0,0,0v0c0,0,0,0,0,0
		c0,0,0,0,0,0c0,0,0,0,0,0c0,0,0,0,0,0c0,0,0,0,0,0c0,0,0,0,0,0c0,0,0,0,0,0v0c0,0.1,0,0.3,0,0.4l1.8,0.1c0-0.6,0.1-1.2,0.1-1.8
		L182.8,18.7L182.8,18.7z M182.5,22.2c-0.1,0.6-0.1,1.2-0.2,1.8l1.8,0.2c0.1-0.6,0.1-1.2,0.2-1.8L182.5,22.2L182.5,22.2z
		 M182.1,25.8c0,0.2-0.1,0.5-0.1,0.7v0c0,0,0,0,0,0c0,0,0,0,0,0c0,0,0,0,0,0c0,0,0,0,0,0c0,0,0,0,0,0c0,0,0,0,0,0c0,0,0,0,0,0
		c0,0,0,0,0,0c0,0,0,0,0,0c0,0,0,0,0,0c0,0,0,0,0,0c0,0,0,0,0,0c0,0,0,0,0,0c0,0,0,0,0,0c0,0,0,0,0,0c0,0,0,0,0,0c0,0,0,0,0,0
		c0,0,0,0,0,0c0,0,0,0,0,0c0,0,0,0,0,0c0,0,0,0,0,0c0,0,0,0,0,0c0,0,0,0,0,0c0,0,0,0,0,0c0,0,0,0,0,0c0,0,0,0,0,0c0,0,0,0,0,0
		c0,0,0,0,0,0v0c0,0,0,0,0,0v0c0,0,0,0,0,0c0,0,0,0,0,0c0,0,0,0,0,0c0,0,0,0,0,0c0,0,0,0,0,0c0,0,0,0,0,0c0,0,0,0,0,0c0,0,0,0,0,0
		c0,0,0,0,0,0c0,0,0,0,0,0c0,0,0,0,0,0c0,0,0,0,0,0c0,0,0,0,0,0c0,0,0,0,0,0c0,0,0,0,0,0c0,0,0,0,0,0c0,0,0,0,0,0c0,0,0,0,0,0
		c0,0,0,0,0,0c0,0,0,0,0,0c0,0,0,0,0,0c0,0,0,0,0,0c0,0,0,0,0,0c0,0,0,0,0,0c0,0,0,0,0,0c0,0,0,0,0,0c0,0,0,0,0,0c0,0,0,0,0,0
		c0,0,0,0,0,0c0,0,0,0,0,0c0,0,0,0,0,0c0,0,0,0,0,0c0,0,0,0,0,0c0,0,0,0,0,0c0,0,0,0,0,0c0,0,0,0,0,0l0,0c0,0.2-0.1,0.3-0.1,0.5
		l1.8,0.3c0.1-0.6,0.2-1.2,0.3-1.8L182.1,25.8L182.1,25.8z M181.4,29.3c-0.1,0.6-0.3,1.2-0.4,1.7l1.7,0.4c0.2-0.6,0.3-1.2,0.4-1.8
		L181.4,29.3L181.4,29.3z M180.5,32.8c-0.1,0.3-0.2,0.5-0.2,0.8l0,0c0,0,0,0,0,0v0c0,0,0,0,0,0l0,0c0,0,0,0,0,0v0c0,0,0,0,0,0
		c0,0,0,0,0,0c0,0,0,0,0,0l0,0c0,0,0,0,0,0.1l0,0c0,0,0,0,0,0v0c0,0,0,0,0,0l0,0c0,0,0,0,0,0v0c-0.1,0.2-0.2,0.5-0.2,0.7l1.7,0.5
		c0.2-0.6,0.4-1.2,0.5-1.8L180.5,32.8L180.5,32.8z M179.5,36.2c-0.1,0.2-0.1,0.3-0.2,0.5c0,0,0,0,0,0c0,0,0,0,0,0v0c0,0,0,0,0,0
		c0,0,0,0,0,0c0,0,0,0,0,0c0,0,0,0,0,0v0c0,0,0,0,0,0c0,0,0,0,0,0c0,0,0,0,0,0l0,0c0,0,0,0,0,0l0,0c-0.1,0.3-0.2,0.6-0.3,0.9
		c0,0,0,0,0,0c0,0,0,0,0,0c0,0,0,0,0,0c0,0,0,0,0,0c0,0,0,0,0,0c0,0,0,0,0,0c0,0,0,0,0,0c0,0,0,0,0,0c0,0,0,0,0,0c0,0,0,0,0,0
		c0,0,0,0.1,0,0.1l1.7,0.7c0.2-0.6,0.4-1.2,0.6-1.7L179.5,36.2L179.5,36.2z M178.2,39.5c-0.1,0.2-0.2,0.4-0.3,0.6c0,0,0,0,0,0
		c0,0,0,0,0,0c0,0,0,0,0,0c0,0,0,0,0,0c0,0,0,0,0,0c0,0,0,0,0,0c0,0,0,0,0,0c0,0,0,0,0,0c0,0,0,0,0,0c0,0,0,0,0,0c0,0,0,0,0,0
		c0,0,0,0,0,0c0,0,0,0,0,0l0,0c-0.1,0.3-0.3,0.6-0.4,1l1.6,0.8c0.3-0.6,0.5-1.1,0.7-1.7L178.2,39.5L178.2,39.5z M176.7,42.7
		C176.7,42.7,176.6,42.7,176.7,42.7C176.6,42.8,176.6,42.8,176.7,42.7C176.6,42.8,176.6,42.8,176.7,42.7
		C176.6,42.8,176.6,42.8,176.7,42.7C176.6,42.8,176.6,42.8,176.7,42.7C176.6,42.8,176.6,42.8,176.7,42.7
		C176.6,42.8,176.6,42.8,176.7,42.7C176.6,42.8,176.6,42.8,176.7,42.7c0,0.1-0.1,0.1-0.1,0.1c0,0,0,0,0,0c0,0,0,0,0,0c0,0,0,0,0,0
		c0,0,0,0,0,0c0,0,0,0,0,0c0,0,0,0,0,0c0,0,0,0,0,0c0,0,0,0,0,0c0,0,0,0,0,0c0,0,0,0,0,0c0,0,0,0,0,0h0c-0.2,0.4-0.5,0.9-0.7,1.3
		l1.3,0.7h-0.3v1.8h1.8V45h-1.2c0.3-0.5,0.5-1,0.8-1.5L176.7,42.7L176.7,42.7z M175.1,45.7c-0.2,0.4-0.4,0.8-0.7,1.1l0,0h2.1
		c0,0,0,0,0-0.1l-1.4-0.8V45.7L175.1,45.7z M182.2,45h-1.8v1.8h1.8V45L182.2,45z M185.8,45H184v1.8h1.8V45L185.8,45z M189.4,45h-1.8
		v1.8h1.8V45L189.4,45z M192.9,45h-1.8v1.8h1.8V45L192.9,45z M196.5,45h-1.8v1.8h1.8V45L196.5,45z M200.1,45h-1.8v1.8h1.8V45
		L200.1,45z M203.7,45h-1.8v1.8h1.8V45L203.7,45z M207.2,45h-1.8v1.8h1.8V45L207.2,45z M210.8,45H209v1.8h1.8V45L210.8,45z
		 M214.4,45h-1.8v1.8h1.8V45L214.4,45z M218,45h-1.8v1.8h1.8V45L218,45z M221.5,45h-1.8v1.8h1.8V45L221.5,45z M225.1,45h-1.8v1.8
		h1.8V45L225.1,45z M228.7,45h-1.8v1.8h1.8V45L228.7,45z M232.3,45h-1.8v1.8h1.8V45L232.3,45z M235.8,45h-1.8v1.8h1.8V45L235.8,45z
		 M238.8,43.4l-0.4,1.7h-0.8v1.8h1.8v-1.5l0.7,0.2l0.3-1.1c0,0,0,0,0,0l0,0c0.1-0.3,0.1-0.6,0.1-0.6L238.8,43.4L238.8,43.4z
		 M239.7,39.9l-0.4,1.7L241,42l0.3-1.3c0,0,0,0,0,0v0c0,0,0,0,0,0l0,0c0.1-0.2,0.1-0.4,0.1-0.4L239.7,39.9L239.7,39.9z M240.5,36.4
		l-0.4,1.7l1.7,0.4l0.4-1.5c0,0,0,0,0,0v0c0,0,0,0,0,0l0,0c0-0.1,0-0.2,0-0.2L240.5,36.4L240.5,36.4z M241.3,32.9l-0.4,1.7l1.7,0.4
		l0.4-1.7l0,0L241.3,32.9L241.3,32.9z M242.1,29.5l-0.4,1.7l1.7,0.4c0,0,0.2-1,0.4-1.5l0,0c0,0,0,0,0,0l0,0c0,0,0,0,0,0v0
		c0,0,0,0,0,0l0-0.2L242.1,29.5L242.1,29.5z M242.9,26l-0.4,1.7l1.7,0.4c0,0,0.2-0.9,0.3-1.4v0c0,0,0,0,0,0l0.1-0.3L242.9,26
		L242.9,26z M243.8,22.5l-0.4,1.7l1.7,0.4c0,0,0.2-0.7,0.3-1.3l0.1-0.5L243.8,22.5L243.8,22.5z M244.6,19l-0.4,1.7l1.7,0.4
		c0,0,0.1-0.6,0.3-1.1v0c0,0,0,0,0,0v0c0,0,0,0,0,0l0.2-0.7L244.6,19L244.6,19z M245.4,15.5l-0.4,1.7l1.7,0.4c0,0,0.1-0.5,0.2-0.9
		l0.2-0.8L245.4,15.5L245.4,15.5z M246.2,12.1l-0.4,1.7l1.7,0.4c0,0,0.2-0.6,0.3-1.1l0,0c0,0,0,0,0,0l0.1-0.6L246.2,12.1L246.2,12.1
		z M247,8.6l-0.4,1.7l1.7,0.4c0,0,0.1-0.4,0.2-0.9l0,0c0,0,0,0,0,0v0c0,0,0,0,0,0l0.2-0.9L247,8.6L247,8.6z M247.9,5.1l-0.4,1.7
		l1.7,0.4c0,0,0.1-0.3,0.1-0.6l0,0v0l0,0c0,0,0,0,0,0l0.3-1.1L247.9,5.1L247.9,5.1z"/>
	<path fill="#26201A" d="M249.4,1.2l-10.5,44.4h-62.4c4.9-8.8,7.5-18.8,7.5-29c0-5.2-0.7-10.4-2-15.4H249.4 M250.9,0h-70.5
		c1.6,5.3,2.4,10.9,2.4,16.6c0,11.1-3.1,21.4-8.4,30.2h65.5L250.9,0L250.9,0z"/>
	<polyline fill="#161716" points="67,0 53.5,0 26.9,11.1 62.2,11.1 	"/>
	<polyline fill="#161716" points="184.5,11.1 224,11.1 192.9,0 180.3,0 	"/>
</g>
</svg>
