<?xml version="1.0" encoding="utf-8"?>
<!-- Generator: Adobe Illustrator 18.0.0, SVG Export Plug-In . SVG Version: 6.00 Build 0)  -->
<!DOCTYPE svg PUBLIC "-//W3C//DTD SVG 1.1//EN" "http://www.w3.org/Graphics/SVG/1.1/DTD/svg11.dtd">
<svg version="1.1" id="Слой_1" xmlns="http://www.w3.org/2000/svg" xmlns:xlink="http://www.w3.org/1999/xlink" x="0px" y="0px"
	 viewBox="0 0 595.3 841.9" enable-background="new 0 0 595.3 841.9" xml:space="preserve">
<g>
	<g>
		<g>
			
				<rect id="SVGID_55_" x="150.7" y="554.7" transform="matrix(-0.9116 -0.4111 0.4111 -0.9116 59.6873 1304.4735)" fill="#C4B090" width="38.8" height="182.3"/>
		</g>
	</g>
	<g>
		<g>
			<defs>
				<path id="SVGID_1_" d="M225.4,377.8c31.3-19.4,64.7-31.3,98.1-34.5l248,392.5l21.6-14L224.3,136.2l-24.8,9.7l93.8,148.8
					c-33.4,3.2-67.9,15.1-98.1,34.5c-31.3,19.4-55,45.3-73.3,74.4l-96-152.1L5.4,267.8l264.2,417.3l21.6-14L152.1,452.2
					C170.4,423.1,195.2,397.2,225.4,377.8z"/>
			</defs>
			<clipPath id="SVGID_2_">
				<use xlink:href="#SVGID_1_"  overflow="visible"/>
			</clipPath>
			<path clip-path="url(#SVGID_2_)" fill="#C4B090" d="M225.4,377.8c31.3-19.4,64.7-31.3,98.1-34.5l248,392.5l21.6-14L203.8,105
				l-21.6,14l111.1,175.8c-33.4,3.2-67.9,15.1-98.1,34.5c-31.3,19.4-55,45.3-73.3,74.4L21.6,245.2L0,259.2l269.6,426l21.6-14
				L152.1,452.2C170.4,423.1,195.2,397.2,225.4,377.8z"/>
		</g>
	</g>
	<g>
		<g>
			<g>
				<circle fill="#47433D" cx="548.9" cy="549.3" r="25.9"/>
				<circle fill="#47433D" cx="548.9" cy="549.3" r="22.6"/>
			</g>
			<g>
				<circle fill="#47433D" cx="548.9" cy="549.3" r="25.9"/>
				<circle fill="#47433D" cx="548.9" cy="549.3" r="22.6"/>
			</g>
		</g>
		
			<linearGradient id="SVGID_3_" gradientUnits="userSpaceOnUse" x1="50.1705" y1="798.5715" x2="51.6442" y2="802.8514" gradientTransform="matrix(10.7841 0 0 -10.7841 0 9183.9629)">
			<stop  offset="4.355400e-02" style="stop-color:#E7EAF3"/>
			<stop  offset="0.1934" style="stop-color:#AFB4C1"/>
			<stop  offset="0.223" style="stop-color:#AFB4C1"/>
			<stop  offset="0.2892" style="stop-color:#B0B3C1"/>
			<stop  offset="0.3484" style="stop-color:#898C95"/>
			<stop  offset="0.3606" style="stop-color:#898C95"/>
			<stop  offset="0.4077" style="stop-color:#D8DAE4"/>
			<stop  offset="0.4417" style="stop-color:#DDE0EA"/>
			<stop  offset="0.4847" style="stop-color:#68676A"/>
			<stop  offset="0.5209" style="stop-color:#6B696D"/>
			<stop  offset="0.5381" style="stop-color:#807E82"/>
			<stop  offset="0.5754" style="stop-color:#D0D2DC"/>
			<stop  offset="0.5801" style="stop-color:#DFE3ED"/>
			<stop  offset="0.5854" style="stop-color:#DFE3ED"/>
			<stop  offset="0.6091" style="stop-color:#BBBDC6"/>
			<stop  offset="0.6393" style="stop-color:#989BA3"/>
			<stop  offset="0.6551" style="stop-color:#8E9197"/>
			<stop  offset="0.6794" style="stop-color:#8E9197"/>
			<stop  offset="0.7028" style="stop-color:#979AA2"/>
			<stop  offset="0.7458" style="stop-color:#B4B7C2"/>
			<stop  offset="0.7509" style="stop-color:#B8BBC7"/>
			<stop  offset="1" style="stop-color:#C0C3CD"/>
		</linearGradient>
		<circle fill="url(#SVGID_3_)" cx="548.9" cy="549.3" r="24.8"/>
	</g>
	<g>
		<g>
			<g>
				<path fill="#47433D" d="M211.4,341.1c8.6,0,16.2,7.5,16.2,16.2c0,8.6-7.5,16.2-16.2,16.2s-16.2-7.5-16.2-16.2
					C195.2,347.6,202.7,341.1,211.4,341.1"/>
				<path fill="#47433D" d="M211.4,337.9c-10.8,0-19.4,8.6-19.4,19.4s8.6,19.4,19.4,19.4s19.4-8.6,19.4-19.4
					C229.7,346.5,221.1,337.9,211.4,337.9L211.4,337.9z"/>
			</g>
			<g>
				<path fill="#47433D" d="M211.4,341.1c8.6,0,16.2,7.5,16.2,16.2c0,8.6-7.5,16.2-16.2,16.2s-16.2-7.5-16.2-16.2
					C195.2,347.6,202.7,341.1,211.4,341.1"/>
				<path fill="#47433D" d="M211.4,337.9c-10.8,0-19.4,8.6-19.4,19.4s8.6,19.4,19.4,19.4s19.4-8.6,19.4-19.4
					C229.7,346.5,221.1,337.9,211.4,337.9L211.4,337.9z"/>
			</g>
		</g>
		
			<linearGradient id="SVGID_4_" gradientUnits="userSpaceOnUse" x1="19.0597" y1="817.0208" x2="20.1082" y2="820.0661" gradientTransform="matrix(10.7841 0 0 -10.7841 0 9183.9629)">
			<stop  offset="4.355400e-02" style="stop-color:#E7EAF3"/>
			<stop  offset="0.1934" style="stop-color:#AFB4C1"/>
			<stop  offset="0.223" style="stop-color:#AFB4C1"/>
			<stop  offset="0.2892" style="stop-color:#B0B3C1"/>
			<stop  offset="0.3484" style="stop-color:#898C95"/>
			<stop  offset="0.3606" style="stop-color:#898C95"/>
			<stop  offset="0.4077" style="stop-color:#D8DAE4"/>
			<stop  offset="0.4417" style="stop-color:#DDE0EA"/>
			<stop  offset="0.4847" style="stop-color:#68676A"/>
			<stop  offset="0.5209" style="stop-color:#6B696D"/>
			<stop  offset="0.5381" style="stop-color:#807E82"/>
			<stop  offset="0.5754" style="stop-color:#D0D2DC"/>
			<stop  offset="0.5801" style="stop-color:#DFE3ED"/>
			<stop  offset="0.5854" style="stop-color:#DFE3ED"/>
			<stop  offset="0.6091" style="stop-color:#BBBDC6"/>
			<stop  offset="0.6393" style="stop-color:#989BA3"/>
			<stop  offset="0.6551" style="stop-color:#8E9197"/>
			<stop  offset="0.6794" style="stop-color:#8E9197"/>
			<stop  offset="0.7028" style="stop-color:#979AA2"/>
			<stop  offset="0.7458" style="stop-color:#B4B7C2"/>
			<stop  offset="0.7509" style="stop-color:#B8BBC7"/>
			<stop  offset="1" style="stop-color:#C0C3CD"/>
		</linearGradient>
		<circle fill="url(#SVGID_4_)" cx="211.4" cy="356.2" r="17.3"/>
	</g>
</g>
</svg>
