<?xml version="1.0" encoding="utf-8"?>
<!-- Generator: Adobe Illustrator 18.0.0, SVG Export Plug-In . SVG Version: 6.00 Build 0)  -->
<!DOCTYPE svg PUBLIC "-//W3C//DTD SVG 1.1//EN" "http://www.w3.org/Graphics/SVG/1.1/DTD/svg11.dtd">
<svg version="1.1" id="Слой_1" xmlns="http://www.w3.org/2000/svg" xmlns:xlink="http://www.w3.org/1999/xlink" x="0px" y="0px"
	 viewBox="0 0 18.1 18.1" enable-background="new 0 0 18.1 18.1" xml:space="preserve">
<linearGradient id="SVGID_1_" gradientUnits="userSpaceOnUse" x1="0.3588" y1="9.0389" x2="18.441" y2="9.0389">
	<stop  offset="6.134970e-02" style="stop-color:#6A6664"/>
	<stop  offset="0.1485" style="stop-color:#737070"/>
	<stop  offset="0.264" style="stop-color:#83828A"/>
	<stop  offset="0.5225" style="stop-color:#ACADB0"/>
	<stop  offset="0.6349" style="stop-color:#9C9CA0"/>
	<stop  offset="0.8499" style="stop-color:#7D7B82"/>
	<stop  offset="0.8764" style="stop-color:#79787E"/>
</linearGradient>
<path fill-rule="evenodd" clip-rule="evenodd" fill="url(#SVGID_1_)" d="M17.9,9L17.9,9l0.6,0c0-0.2,0-0.4,0-0.6l-0.6,0
	c0-0.2,0-0.3-0.1-0.5l0.5-0.1c0-0.2-0.1-0.4-0.1-0.5l-0.5,0.1c0-0.2-0.1-0.3-0.1-0.5l0.5-0.1c0-0.2-0.1-0.4-0.2-0.5l-0.5,0.2
	c-0.1-0.2-0.1-0.3-0.2-0.5l0.5-0.2c-0.1-0.2-0.1-0.3-0.2-0.5l-0.5,0.2C17,5.3,16.9,5.1,16.9,5l0.5-0.3c-0.1-0.2-0.2-0.3-0.3-0.5
	l-0.5,0.3c-0.1-0.1-0.2-0.3-0.3-0.4l0.4-0.3c-0.1-0.2-0.2-0.3-0.3-0.4L16,3.7c-0.1-0.1-0.2-0.3-0.3-0.4l0.4-0.4
	c-0.1-0.1-0.3-0.3-0.4-0.4l-0.4,0.4c-0.1-0.1-0.3-0.2-0.4-0.4l0.4-0.4C15.1,2,15,1.9,14.8,1.8l-0.3,0.4c-0.1-0.1-0.3-0.2-0.4-0.3
	l0.3-0.5c-0.2-0.1-0.3-0.2-0.5-0.3l-0.3,0.5c-0.2-0.1-0.3-0.2-0.5-0.2l0.2-0.5c-0.2-0.1-0.3-0.2-0.5-0.2l-0.2,0.5
	c-0.2-0.1-0.3-0.1-0.5-0.2l0.2-0.5c-0.2-0.1-0.4-0.1-0.5-0.2l-0.1,0.5c-0.2,0-0.3-0.1-0.5-0.1l0.1-0.5c-0.2,0-0.4-0.1-0.5-0.1
	l-0.1,0.5c-0.2,0-0.3,0-0.5-0.1l0-0.6C10,0,9.8,0,9.6,0l0,0.6c-0.2,0-0.4,0-0.5,0l0-0.6C8.9,0,8.7,0,8.5,0l0.1,0.6
	c-0.2,0-0.3,0-0.5,0.1L8,0.1c-0.2,0-0.4,0.1-0.5,0.1l0.1,0.5C7.4,0.8,7.2,0.8,7,0.9L6.9,0.3C6.7,0.4,6.5,0.5,6.4,0.5L6.5,1
	C6.4,1.1,6.2,1.2,6.1,1.2L5.8,0.7C5.7,0.8,5.5,0.9,5.3,1l0.3,0.5C5.4,1.5,5.3,1.6,5.1,1.7L4.9,1.2C4.7,1.3,4.5,1.4,4.4,1.5L4.7,2
	C4.5,2.1,4.4,2.2,4.3,2.3L3.9,1.8C3.8,2,3.6,2.1,3.5,2.2l0.4,0.4C3.7,2.7,3.6,2.8,3.5,3L3.1,2.6C3,2.7,2.8,2.8,2.7,3l0.4,0.4
	C3,3.5,2.9,3.6,2.8,3.7L2.3,3.4C2.2,3.5,2.1,3.7,2,3.8l0.5,0.3C2.4,4.3,2.3,4.4,2.2,4.6L1.7,4.3C1.6,4.5,1.5,4.6,1.4,4.8L1.9,5
	C1.8,5.2,1.8,5.4,1.7,5.5L1.2,5.3C1.1,5.5,1,5.6,1,5.8L1.5,6C1.4,6.2,1.4,6.3,1.3,6.5L0.8,6.3C0.7,6.5,0.7,6.7,0.6,6.9L1.2,7
	c0,0.2-0.1,0.3-0.1,0.5L0.5,7.4c0,0.2-0.1,0.4-0.1,0.5L1,8c0,0.2,0,0.3,0,0.5l-0.6,0c0,0.2,0,0.4,0,0.5c0,0,0,0,0,0l0.6,0
	c0,0.2,0,0.3,0,0.5l-0.6,0c0,0.2,0,0.4,0.1,0.6L1,10.1c0,0.2,0,0.3,0.1,0.5l-0.5,0.1c0,0.2,0.1,0.4,0.1,0.5l0.5-0.1
	c0,0.2,0.1,0.3,0.1,0.5l-0.5,0.2C0.8,12,0.9,12.2,1,12.3l0.5-0.2c0.1,0.2,0.1,0.3,0.2,0.5l-0.5,0.2c0.1,0.2,0.2,0.3,0.2,0.5l0.5-0.3
	c0.1,0.2,0.2,0.3,0.3,0.5l-0.5,0.3C1.8,14,1.9,14.1,2,14.3L2.5,14c0.1,0.1,0.2,0.3,0.3,0.4l-0.4,0.3c0.1,0.1,0.2,0.3,0.4,0.4
	l0.4-0.4c0.1,0.1,0.2,0.3,0.4,0.4l-0.4,0.4c0.1,0.1,0.3,0.3,0.4,0.4l0.4-0.4c0.1,0.1,0.3,0.2,0.4,0.3L4,16.3
	c0.1,0.1,0.3,0.2,0.5,0.3l0.3-0.5c0.1,0.1,0.3,0.2,0.4,0.3l-0.3,0.5c0.2,0.1,0.3,0.2,0.5,0.3l0.2-0.5c0.2,0.1,0.3,0.2,0.5,0.2
	l-0.2,0.5c0.2,0.1,0.3,0.1,0.5,0.2L6.6,17c0.2,0.1,0.3,0.1,0.5,0.2l-0.1,0.5c0.2,0.1,0.4,0.1,0.5,0.1l0.1-0.5c0.2,0,0.3,0.1,0.5,0.1
	L8,18c0.2,0,0.4,0,0.6,0.1l0-0.6c0.2,0,0.3,0,0.5,0l0,0.6c0.1,0,0.2,0,0.3,0c0.1,0,0.2,0,0.3,0l0-0.6c0.2,0,0.3,0,0.5,0l0.1,0.6
	c0.2,0,0.4,0,0.6-0.1l-0.1-0.5c0.2,0,0.3-0.1,0.5-0.1l0.1,0.5c0.2,0,0.4-0.1,0.5-0.1l-0.2-0.5c0.2,0,0.3-0.1,0.5-0.2l0.2,0.5
	c0.2-0.1,0.3-0.1,0.5-0.2l-0.2-0.5c0.2-0.1,0.3-0.1,0.5-0.2l0.2,0.5c0.2-0.1,0.3-0.2,0.5-0.3l-0.3-0.5c0.2-0.1,0.3-0.2,0.4-0.3
	l0.3,0.5c0.2-0.1,0.3-0.2,0.5-0.3l-0.3-0.4c0.1-0.1,0.3-0.2,0.4-0.3l0.4,0.4c0.1-0.1,0.3-0.2,0.4-0.4l-0.4-0.4
	c0.1-0.1,0.2-0.2,0.4-0.4l0.4,0.4c0.1-0.1,0.2-0.3,0.4-0.4L16,14.3c0.1-0.1,0.2-0.3,0.3-0.4l0.5,0.3c0.1-0.2,0.2-0.3,0.3-0.5
	l-0.5-0.3c0.1-0.1,0.2-0.3,0.3-0.5l0.5,0.3c0.1-0.2,0.2-0.3,0.2-0.5l-0.5-0.2c0.1-0.2,0.1-0.3,0.2-0.5l0.5,0.2
	c0.1-0.2,0.1-0.3,0.2-0.5l-0.5-0.2c0.1-0.2,0.1-0.3,0.1-0.5l0.5,0.1c0-0.2,0.1-0.4,0.1-0.5l-0.5-0.1c0-0.2,0.1-0.3,0.1-0.5l0.5,0.1
	c0-0.2,0-0.4,0.1-0.6l-0.6,0C17.9,9.4,17.9,9.2,17.9,9z M9.4,14.6c-3.1,0-5.6-2.5-5.6-5.6c0-3.1,2.5-5.6,5.6-5.6C12.5,3.5,15,6,15,9
	C15,12.1,12.5,14.6,9.4,14.6z"/>
</svg>
