<?xml version="1.0" encoding="utf-8"?>
<!-- Generator: Adobe Illustrator 18.0.0, SVG Export Plug-In . SVG Version: 6.00 Build 0)  -->
<!DOCTYPE svg PUBLIC "-//W3C//DTD SVG 1.1//EN" "http://www.w3.org/Graphics/SVG/1.1/DTD/svg11.dtd">
<svg version="1.1" id="Слой_1" xmlns="http://www.w3.org/2000/svg" xmlns:xlink="http://www.w3.org/1999/xlink" x="0px" y="0px"
	 viewBox="0 0 156.3 156.1" enable-background="new 0 0 156.3 156.1" xml:space="preserve">
<g>
	<path fill="#825F41" d="M72.7,156.1l-0.3,0c-3.9-0.3-7.8-0.9-11.6-1.7l-0.3-0.1l1.2-5.5c-3.3-0.8-6.6-1.8-9.8-3l-2.1,5.3l-0.3-0.1
		c-3.6-1.4-7.2-3.1-10.5-5.1l-0.3-0.1l2.8-4.9c-2.9-1.7-5.8-3.6-8.5-5.8l-3.5,4.4l-0.2-0.2c-3-2.4-5.9-5.1-8.6-7.9l-0.2-0.2l4.2-3.9
		c-2.3-2.5-4.5-5.2-6.4-8l-4.7,3.2l-0.2-0.2c-2.2-3.2-4.2-6.6-5.9-10.1l-0.1-0.3l5.1-2.5c-1.5-3.1-2.7-6.3-3.8-9.5l-5.4,1.7
		l-0.1-0.3c-1.2-3.7-2-7.5-2.6-11.4l0-0.3l5.6-0.9C6,85.5,5.7,82,5.7,78.6H0v-0.5c0-3.9,0.3-7.8,0.9-11.6l0-0.3l5.6,0.8
		c0.5-3.4,1.3-6.7,2.3-10l-5.4-1.7l0.1-0.3c1.1-3.7,2.6-7.4,4.3-10.9L7.9,44l5.1,2.5c1.5-3,3.2-6,5.1-8.9l-4.7-3.2l0.2-0.2
		c2.2-3.2,4.6-6.3,7.3-9.1l0.2-0.2l4.2,3.9c2.3-2.5,4.8-4.8,7.5-7l-3.5-4.4l0.2-0.2c3-2.4,6.3-4.6,9.6-6.6l0.3-0.1l2.8,4.9
		c3-1.7,6.1-3.2,9.2-4.4l-2.1-5.3l0.3-0.1C53.2,4,56.9,2.8,60.7,2L61,1.9l1.3,5.5c3.3-0.7,6.7-1.3,10.1-1.5L72,0.2l0.3,0
		C74.5,0.1,76.4,0,78.2,0c1.9,0,3.9,0.1,5.8,0.2l0.3,0l-0.4,5.7c3.4,0.3,6.8,0.8,10.1,1.5l1.3-5.5l0.3,0.1c3.8,0.9,7.6,2,11.2,3.4
		l0.3,0.1l-2.1,5.3c3.2,1.3,6.3,2.7,9.2,4.4l2.8-4.9l0.3,0.1c3.4,1.9,6.6,4.2,9.6,6.6l0.2,0.2l-3.5,4.4c2.6,2.1,5.2,4.5,7.5,7
		l4.2-3.9l0.2,0.2c2.6,2.8,5.1,5.9,7.3,9.1l0.2,0.2l-4.7,3.2c1.9,2.8,3.6,5.8,5.1,8.8l5.1-2.5l0.1,0.3c1.7,3.5,3.1,7.2,4.3,10.9
		l0.1,0.3l-5.4,1.7c1,3.3,1.8,6.6,2.3,10l5.6-0.8l0,0.3c0.6,3.8,0.9,7.7,0.9,11.6v0.3l-5.7,0c0,3.4-0.3,6.8-0.7,10.2l5.6,0.8l0,0.3
		c-0.6,3.8-1.4,7.7-2.6,11.4l-0.1,0.3l-5.4-1.7c-1,3.3-2.3,6.5-3.7,9.5l5.1,2.5l-0.1,0.3c-1.7,3.5-3.6,6.9-5.8,10.1l-0.2,0.2
		l-4.7-3.2c-1.9,2.8-4.1,5.5-6.4,8l4.2,3.9l-0.2,0.2c-2.6,2.8-5.5,5.5-8.5,8l-0.2,0.2l-3.6-4.4c-2.7,2.1-5.5,4.1-8.4,5.8l2.9,4.9
		l-0.3,0.2c-3.4,2-6.9,3.7-10.5,5.1l-0.3,0.1l-2.1-5.3c-3.2,1.2-6.5,2.3-9.8,3l1.3,5.5l-0.3,0.1c-3.8,0.9-7.7,1.5-11.5,1.7l-0.3,0
		l-0.4-5.7c-3.4,0.2-6.8,0.2-10.2,0L72.7,156.1z M61.3,153.9c3.6,0.8,7.2,1.3,10.9,1.6l0.4-5.7l0.3,0c3.6,0.3,7.2,0.3,10.7,0l0.3,0
		l0.4,5.7c3.6-0.3,7.3-0.8,10.9-1.6l-1.3-5.5l0.3-0.1c3.5-0.8,6.9-1.9,10.3-3.2l0.3-0.1l2.1,5.3c3.4-1.4,6.7-3,9.9-4.8l-2.9-4.9
		l0.3-0.2c3.1-1.8,6.1-3.8,8.9-6.1l0.2-0.2l3.6,4.4c2.8-2.3,5.5-4.8,8-7.5l-4.2-3.9l0.2-0.2c2.4-2.6,4.7-5.5,6.7-8.4l0.2-0.2
		l4.7,3.2c2-3,3.9-6.2,5.5-9.5l-5.1-2.5l0.1-0.3c1.5-3.2,2.9-6.6,3.9-10L147,99l5.4,1.7c1.1-3.5,1.9-7.1,2.4-10.7l-5.6-0.8l0-0.3
		c0.5-3.5,0.8-7.1,0.8-10.6v-0.3l0.3-0.1l5.4,0c0-3.7-0.3-7.3-0.8-11l-5.6,0.8l0-0.3c-0.5-3.5-1.3-7.1-2.4-10.5l-0.1-0.3l5.4-1.7
		c-1.1-3.5-2.4-6.9-4-10.2l-5.1,2.5l-0.1-0.3c-1.5-3.2-3.4-6.3-5.4-9.3l-0.2-0.2l4.7-3.2c-2.1-3-4.4-5.9-6.9-8.6l-4.2,3.9l-0.2-0.2
		c-2.4-2.6-5.1-5.1-7.9-7.3l-0.2-0.2l3.5-4.4c-2.9-2.3-5.9-4.4-9.1-6.2l-2.8,4.9l-0.3-0.1c-3.1-1.8-6.4-3.4-9.7-4.7l-0.3-0.1
		l2.1-5.3c-3.4-1.3-7-2.4-10.5-3.2l-1.3,5.5l-0.3-0.1C90.6,7.3,87,6.7,83.5,6.5l-0.3,0l0.4-5.7c-1.8-0.1-3.6-0.2-5.4-0.2
		c-0.2,0-0.4,0-0.6,0c-1.5,0-3.1,0.1-5,0.2L73,6.5l-0.3,0c-3.6,0.3-7.1,0.8-10.6,1.6l-0.3,0.1l-1.3-5.5C57,3.4,53.5,4.5,50.1,5.8
		l2.1,5.3l-0.3,0.1c-3.3,1.3-6.6,2.9-9.7,4.7l-0.3,0.1l-2.8-4.9c-3.2,1.8-6.2,3.9-9.1,6.2l3.5,4.4L33.3,22c-2.8,2.2-5.4,4.7-7.9,7.3
		l-0.2,0.2l-4.2-3.9c-2.5,2.7-4.8,5.6-6.9,8.6l4.7,3.2l-0.2,0.2c-2,3-3.8,6.1-5.4,9.3l-0.1,0.3l-5.1-2.5c-1.6,3.3-2.9,6.7-4,10.2
		l5.4,1.7L9.5,57c-1,3.4-1.9,6.9-2.4,10.5l0,0.3l-5.6-0.8C0.9,70.6,0.6,74.3,0.6,78h5.7l0,0.3c0,3.6,0.3,7.2,0.8,10.7l0,0.3
		l-5.6,0.9c0.6,3.6,1.4,7.2,2.5,10.7l5.4-1.7l0.1,0.3c1.1,3.4,2.4,6.8,3.9,10l0.1,0.3l-5.1,2.5c1.6,3.3,3.5,6.5,5.5,9.5l4.7-3.2
		l0.2,0.2c2,2.9,4.3,5.8,6.7,8.4l0.2,0.2l-4.2,3.9c2.5,2.7,5.2,5.2,8.1,7.5l3.5-4.4l0.2,0.2c2.8,2.2,5.8,4.3,8.9,6l0.3,0.1l-2.8,4.9
		c3.2,1.8,6.5,3.4,9.9,4.8l2.1-5.3l0.3,0.1c3.3,1.3,6.8,2.4,10.3,3.1l0.3,0.1L61.3,153.9z M78.2,133.9c-30.7,0-55.7-25-55.7-55.7
		c0-30.7,25-55.7,55.7-55.7c30.7,0,55.7,25,55.7,55.7C133.9,108.9,108.9,133.9,78.2,133.9z M78.2,23C47.8,23,23,47.8,23,78.2
		c0,30.4,24.7,55.1,55.1,55.1c30.4,0,55.1-24.7,55.1-55.1C133.3,47.8,108.5,23,78.2,23z"/>
	<path fill="#C4B090" d="M150.3,78.2C150.3,78.1,150.3,78.1,150.3,78.2l5.7-0.1c0-3.9-0.3-7.8-0.9-11.6l-5.6,0.8
		c-0.5-3.6-1.3-7.1-2.4-10.5l5.4-1.7c-1.1-3.7-2.6-7.3-4.3-10.8l-5.1,2.5c-1.6-3.3-3.4-6.4-5.4-9.3l4.7-3.2
		c-2.2-3.2-4.6-6.2-7.3-9.1L131,29c-2.4-2.6-5.1-5.1-7.9-7.3l3.5-4.4c-3-2.4-6.3-4.6-9.6-6.6l-2.8,4.9c-3.1-1.8-6.3-3.4-9.7-4.7
		l2.1-5.3c-3.6-1.4-7.4-2.6-11.1-3.4l-1.3,5.5c-3.5-0.8-7-1.3-10.7-1.6l0.4-5.7c-1.9-0.1-3.8-0.2-5.8-0.2c-2,0-3.9,0.1-5.9,0.2
		l0.4,5.7C69.1,6.5,65.5,7,62.1,7.8l-1.3-5.5c-3.8,0.9-7.5,2-11.1,3.4l2.1,5.3c-3.4,1.3-6.6,2.9-9.7,4.7l-2.8-4.9
		c-3.3,1.9-6.6,4.1-9.6,6.6l3.5,4.4c-2.8,2.2-5.5,4.7-7.9,7.3l-4.2-3.9c-2.6,2.8-5.1,5.9-7.3,9.1l4.7,3.2c-2,3-3.8,6.1-5.4,9.3
		L8,44.4c-1.7,3.5-3.1,7.1-4.3,10.8l5.4,1.7c-1,3.4-1.9,6.9-2.4,10.5l-5.6-0.8c-0.6,3.8-0.9,7.7-0.9,11.6v0.2H6
		c0,3.7,0.3,7.2,0.8,10.8l-5.6,0.9c0.6,3.8,1.5,7.6,2.6,11.3l5.4-1.7c1.1,3.5,2.4,6.8,4,10l-5.1,2.5c1.7,3.5,3.7,6.9,5.8,10.1
		l4.7-3.2c2,3,4.3,5.8,6.7,8.4l-4.2,3.9c2.6,2.8,5.5,5.5,8.5,7.9l3.5-4.4c2.8,2.2,5.8,4.3,8.9,6.1l-2.8,4.9c3.4,1.9,6.9,3.6,10.5,5
		l2.1-5.3c3.3,1.3,6.8,2.4,10.3,3.2l-1.2,5.5c3.8,0.8,7.6,1.4,11.5,1.7l0.4-5.7c1.7,0.1,3.5,0.2,5.3,0.2c1.9,0,3.7-0.1,5.5-0.2
		l0.4,5.7c3.9-0.3,7.7-0.9,11.5-1.7l-1.3-5.5c3.5-0.8,7-1.9,10.3-3.2l2.1,5.3c3.6-1.4,7.1-3.1,10.5-5.1l-2.9-4.9
		c3.1-1.8,6.1-3.9,8.9-6.1l3.6,4.4c3-2.4,5.9-5.1,8.5-7.9l-4.2-3.9c2.4-2.6,4.7-5.5,6.7-8.4l4.7,3.2c2.2-3.2,4.1-6.6,5.8-10.1
		l-5.1-2.5c1.6-3.2,2.9-6.6,3.9-10l5.4,1.7c1.1-3.7,2-7.5,2.6-11.3l-5.6-0.8C150,85.3,150.3,81.8,150.3,78.2z M78.2,133.6
		c-30.6,0-55.4-24.9-55.4-55.4c0-30.6,24.9-55.4,55.4-55.4c30.6,0,55.4,24.9,55.4,55.4C133.6,108.7,108.7,133.6,78.2,133.6z"/>
	<linearGradient id="SVGID_1_" gradientUnits="userSpaceOnUse" x1="23.4361" y1="78.0497" x2="132.864" y2="78.0497">
		<stop  offset="6.134970e-02" style="stop-color:#6A6664"/>
		<stop  offset="0.1485" style="stop-color:#737070"/>
		<stop  offset="0.264" style="stop-color:#83828A"/>
		<stop  offset="0.5225" style="stop-color:#ACADB0"/>
		<stop  offset="0.6349" style="stop-color:#9C9CA0"/>
		<stop  offset="0.8499" style="stop-color:#7D7B82"/>
		<stop  offset="0.8764" style="stop-color:#79787E"/>
	</linearGradient>
	<path fill="url(#SVGID_1_)" d="M78.1,132.8c-30.2,0-54.7-24.5-54.7-54.7c0-30.2,24.5-54.7,54.7-54.7c30.2,0,54.7,24.5,54.7,54.7
		C132.9,108.2,108.3,132.8,78.1,132.8z M78.1,26.3c-28.5,0-51.7,23.2-51.7,51.7c0,28.5,23.2,51.7,51.7,51.7
		c28.5,0,51.7-23.2,51.7-51.7C129.9,49.5,106.7,26.3,78.1,26.3z"/>
</g>
</svg>
