<?xml version="1.0" encoding="utf-8"?>
<!-- Generator: Adobe Illustrator 18.0.0, SVG Export Plug-In . SVG Version: 6.00 Build 0)  -->
<!DOCTYPE svg PUBLIC "-//W3C//DTD SVG 1.1//EN" "http://www.w3.org/Graphics/SVG/1.1/DTD/svg11.dtd">
<svg version="1.1" id="Слой_1" xmlns="http://www.w3.org/2000/svg" xmlns:xlink="http://www.w3.org/1999/xlink" x="0px" y="0px"
	 viewBox="0 0 9 6.4" enable-background="new 0 0 9 6.4" xml:space="preserve">
<path fill="#C4B090" d="M8.2,0H0.7C0.3,0,0,0.3,0,0.7v4.9c0,0.4,0.3,0.7,0.7,0.7h7.5C8.7,6.4,9,6.1,9,5.7V0.7C9,0.3,8.7,0,8.2,0z
	 M8.5,5.7c0.1,0.1,0.1,0.2,0,0.2c0,0-0.1,0-0.1,0c0,0-0.1,0-0.1,0L5.8,3.4L5.5,3.7H3.5L3.2,3.4L0.7,5.9c0,0-0.1,0-0.1,0
	c0,0-0.1,0-0.1,0c-0.1-0.1-0.1-0.2,0-0.2l2.4-2.6L0.5,0.7c-0.1-0.1-0.1-0.2,0-0.2c0.1-0.1,0.2-0.1,0.2,0l3,3h1.7l3-3
	c0.1-0.1,0.2-0.1,0.2,0c0.1,0.1,0.1,0.2,0,0.2L6.1,3.2L8.5,5.7z"/>
</svg>
