<?xml version="1.0" encoding="utf-8"?>
<!-- Generator: Adobe Illustrator 18.0.0, SVG Export Plug-In . SVG Version: 6.00 Build 0)  -->
<!DOCTYPE svg PUBLIC "-//W3C//DTD SVG 1.1//EN" "http://www.w3.org/Graphics/SVG/1.1/DTD/svg11.dtd">
<svg version="1.1" id="Слой_1" xmlns="http://www.w3.org/2000/svg" xmlns:xlink="http://www.w3.org/1999/xlink" x="0px" y="0px"
	 viewBox="0 0 28.7 32.6" enable-background="new 0 0 28.7 32.6" xml:space="preserve">
<g>
	<path fill="#26201A" d="M24.8,21c3.3-5.7,4.6-11.8,3.6-16.8c-0.3-1.6-1.5-2.9-3.1-3.4l-1.9-0.6C23.1,0,22.9,0,22.7,0
		c-2.6,0-4.1,4.1-4.6,6.2c-0.6,2.6-0.1,4.4,1.2,5l1.3,0.6c0.6,1.6,0.2,3.9-1,6c-1.2,2.1-3,3.6-4.7,3.9L13.7,21
		c-0.4-0.3-0.8-0.4-1.3-0.4c-2.4,0-5.9,3.7-6.8,6.1c-0.7,1.9,0,3,0.4,3.4l1.5,1.4c0.8,0.8,1.9,1.2,3.1,1.2c0.5,0,1-0.1,1.4-0.2
		C16.9,30.8,21.5,26.6,24.8,21z M23.9,20.4c-3,5.1-7.3,9.4-12.1,11c-0.4,0.1-0.7,0.2-1.1,0.2c-0.9,0-1.7-0.3-2.3-0.9l-1.5-1.4
		c-1.9-1.7,3.2-7.6,5.6-7.6c0.2,0,0.5,0.1,0.6,0.2l1.5,1.1c2.3-0.2,4.6-2.1,5.9-4.5c1.4-2.4,1.9-5.3,0.9-7.4l-1.7-0.7
		c-2.1-0.9,0.4-9.2,3-9.2c0.1,0,0.2,0,0.4,0.1L25,1.8c1.2,0.4,2.1,1.4,2.4,2.6C28.3,9.3,26.8,15.3,23.9,20.4z"/>
	<path fill="#26201A" d="M10.5,2.2C7,3.4,4.2,5.8,2.6,9C0.9,12.3,0.6,16,1.8,19.4c0.1,0.3-0.1,0.6-0.4,0.7c-0.1,0-0.1,0-0.2,0
		c-0.2,0-0.4-0.1-0.5-0.4C-0.5,16-0.2,12,1.6,8.5C3.4,5,6.4,2.4,10.2,1.2c0.3-0.1,0.6,0.1,0.7,0.4C10.9,1.8,10.8,2.1,10.5,2.2z"/>
	<path fill="#26201A" d="M12,7c-2.2,0.7-4,2.2-5,4.3c-1,2.1-1.2,4.4-0.5,6.6c0.1,0.3-0.1,0.6-0.4,0.7c-0.1,0-0.1,0-0.2,0
		c-0.2,0-0.4-0.1-0.5-0.4c-0.8-2.5-0.6-5.1,0.6-7.4c1.2-2.3,3.2-4,5.7-4.9C12,5.8,12.3,6,12.4,6.3C12.5,6.6,12.3,6.9,12,7z"/>
	<path fill="#26201A" d="M13.6,11.7c-1.9,0.6-3,2.7-2.3,4.6c0.1,0.3-0.1,0.6-0.4,0.7c-0.1,0-0.1,0-0.2,0c-0.2,0-0.4-0.1-0.5-0.4
		c-0.8-2.5,0.6-5.2,3.1-6c0.3-0.1,0.6,0.1,0.7,0.4C14,11.3,13.9,11.6,13.6,11.7z"/>
</g>
</svg>
