<?xml version="1.0" encoding="utf-8"?>
<!-- Generator: Adobe Illustrator 18.0.0, SVG Export Plug-In . SVG Version: 6.00 Build 0)  -->
<!DOCTYPE svg PUBLIC "-//W3C//DTD SVG 1.1//EN" "http://www.w3.org/Graphics/SVG/1.1/DTD/svg11.dtd">
<svg version="1.1" id="Слой_1" xmlns="http://www.w3.org/2000/svg" xmlns:xlink="http://www.w3.org/1999/xlink" x="0px" y="0px"
	 viewBox="0 0 595.3 841.9" enable-background="new 0 0 595.3 841.9" xml:space="preserve">
<path opacity="0.7" fill="#FFFFFF" enable-background="new    " d="M24.8,430.3c43.4,112.8,154.9,181.7,272.6,181.7
	c31,0,62-6.3,86.7-12.5l86.7,213c6.2,12.5,12.4,18.8,24.8,18.8c6.2,0,6.2,0,12.4,0c12.4-6.3,18.6-18.8,12.4-37.6l-86.7-213
	c62-31.3,111.5-87.7,136.3-150.4c31-75.2,31-156.7,0-225.6c-49.6-119.1-154.9-188-272.6-188c-43.4,0-80.5,6.3-117.7,25.1
	C31,104.5-37.2,280,24.8,430.3z M198.3,92c31-12.5,62-18.8,92.9-18.8c99.1,0,185.9,56.4,223,150.4c24.8,62.7,24.8,125.3,0,188
	c-18.6,56.4-62,106.5-123.9,131.6l0,0l0,0l0,0c-31,12.5-62,18.8-92.9,18.8c-99.1,0-185.9-56.4-223-150.4
	C18.6,286.2,80.6,142.1,198.3,92z"/>
</svg>
